M48
;Layer_Color=9474304
;FILE_FORMAT=2:5
INCH,LZ
;TYPE=PLATED
T1F00S00C0.01181
T2F00S00C0.03543
T3F00S00C0.04000
T4F00S00C0.04016
T5F00S00C0.15748
%
T01
X0070866Y0084646
T02
X0247Y0129842
Y0139685
X0081004Y0130925
Y0120925
Y0110925
Y0100925
Y0090925
Y0080925
Y0070925
Y0060925
X0016004
Y0070925
Y0080925
Y0090925
Y0100925
Y0110925
Y0120925
Y0130925
X0247Y0165
Y0174843
T03
X0113228Y000811
Y001811
Y002811
Y003811
Y004811
Y005811
Y006811
Y007811
Y008811
Y009811
Y010811
Y011811
Y012811
Y013811
X0173228
Y012811
Y011811
Y010811
Y009811
Y008811
Y007811
Y006811
Y005811
Y004811
Y003811
Y002811
Y001811
Y000811
Y014811
Y015811
Y016811
Y017811
Y018811
Y019811
Y020811
Y021811
Y022811
Y023811
X0113228
Y022811
Y021811
Y020811
Y019811
Y018811
Y017811
Y016811
Y015811
Y014811
T04
X0206988Y000811
Y001811
Y002811
Y003811
Y004811
Y005811
Y006811
Y007811
Y008811
Y009811
Y010811
Y011811
Y012811
Y013811
X0072Y0216
Y0226
Y0236
X0058
X0048
Y0226
Y0216
X0058
Y0226
X0082
Y0236
Y0216
X0206988Y021811
Y022811
Y023811
Y020811
Y019811
Y018811
Y017811
Y016811
Y015811
Y014811
T05
X0263Y0012642
X0013
Y0244642
X0263
M30
