G04*
G04 #@! TF.GenerationSoftware,Altium Limited,Altium Designer,20.0.12 (288)*
G04*
G04 Layer_Color=16711935*
%FSLAX25Y25*%
%MOIN*%
G70*
G01*
G75*
%ADD18C,0.06706*%
%ADD19R,0.06706X0.06706*%
%ADD26C,0.00800*%
D18*
X206988Y8110D02*
D03*
Y198110D02*
D03*
Y188110D02*
D03*
Y178110D02*
D03*
Y228110D02*
D03*
Y218110D02*
D03*
Y208110D02*
D03*
Y138110D02*
D03*
Y148110D02*
D03*
Y158110D02*
D03*
Y168110D02*
D03*
Y98110D02*
D03*
Y108110D02*
D03*
Y118110D02*
D03*
Y128110D02*
D03*
Y58110D02*
D03*
Y68110D02*
D03*
Y78110D02*
D03*
Y88110D02*
D03*
Y48110D02*
D03*
Y38110D02*
D03*
Y28110D02*
D03*
Y18110D02*
D03*
X113228Y238110D02*
D03*
Y228110D02*
D03*
Y218110D02*
D03*
Y208110D02*
D03*
Y198110D02*
D03*
Y188110D02*
D03*
Y178110D02*
D03*
Y168110D02*
D03*
Y158110D02*
D03*
Y148110D02*
D03*
Y138110D02*
D03*
Y128110D02*
D03*
Y118110D02*
D03*
Y108110D02*
D03*
X173228D02*
D03*
Y118110D02*
D03*
Y128110D02*
D03*
Y138110D02*
D03*
Y148110D02*
D03*
Y158110D02*
D03*
Y168110D02*
D03*
Y178110D02*
D03*
Y188110D02*
D03*
Y198110D02*
D03*
Y208110D02*
D03*
X113228Y88110D02*
D03*
Y78110D02*
D03*
Y68110D02*
D03*
Y58110D02*
D03*
Y48110D02*
D03*
Y38110D02*
D03*
Y28110D02*
D03*
Y18110D02*
D03*
Y8110D02*
D03*
X173228D02*
D03*
Y18110D02*
D03*
Y28110D02*
D03*
Y38110D02*
D03*
Y48110D02*
D03*
Y58110D02*
D03*
Y68110D02*
D03*
X113228Y98110D02*
D03*
X173228Y218110D02*
D03*
Y228110D02*
D03*
Y238110D02*
D03*
Y98110D02*
D03*
Y88110D02*
D03*
Y78110D02*
D03*
X16004Y120925D02*
D03*
Y130925D02*
D03*
X81004Y120925D02*
D03*
Y130925D02*
D03*
X16004Y100925D02*
D03*
Y110925D02*
D03*
X81004Y100925D02*
D03*
Y110925D02*
D03*
X16004Y80925D02*
D03*
Y90925D02*
D03*
X81004Y80925D02*
D03*
Y90925D02*
D03*
Y70925D02*
D03*
Y60925D02*
D03*
X16004Y70925D02*
D03*
Y60925D02*
D03*
X72000Y236000D02*
D03*
Y226000D02*
D03*
Y216000D02*
D03*
X82000Y236000D02*
D03*
Y226000D02*
D03*
X48000Y236000D02*
D03*
Y226000D02*
D03*
Y216000D02*
D03*
X58000Y236000D02*
D03*
Y226000D02*
D03*
X247000Y165000D02*
D03*
Y174843D02*
D03*
Y129842D02*
D03*
Y139685D02*
D03*
D19*
X206988Y238110D02*
D03*
X82000Y216000D02*
D03*
X58000D02*
D03*
D26*
X263000Y12642D02*
D03*
Y244642D02*
D03*
X13000D02*
D03*
Y12642D02*
D03*
M02*
