G04*
G04 #@! TF.GenerationSoftware,Altium Limited,Altium Designer,20.0.12 (288)*
G04*
G04 Layer_Color=32768*
%FSLAX25Y25*%
%MOIN*%
G70*
G01*
G75*
%ADD27C,0.00394*%
%ADD28C,0.00197*%
D27*
X35433Y41339D02*
X39370D01*
X37402Y39370D02*
Y43307D01*
X35433Y20374D02*
X39370D01*
X37402Y18406D02*
Y22343D01*
X52165Y20374D02*
X56102D01*
X54134Y18406D02*
Y22343D01*
X52165Y41339D02*
X56102D01*
X54134Y39370D02*
Y43307D01*
X68898Y41339D02*
X72835D01*
X70866Y39370D02*
Y43307D01*
X68898Y20374D02*
X72835D01*
X70866Y18406D02*
Y22343D01*
X34000Y113031D02*
Y116969D01*
X32032Y115000D02*
X35969D01*
D28*
X40945Y34646D02*
Y48031D01*
X33858Y34646D02*
Y48031D01*
X40945D01*
X33858Y34646D02*
X40945D01*
X33661Y12697D02*
Y28150D01*
X41142Y12697D02*
Y28150D01*
X33661Y12697D02*
X41142D01*
X33661Y28150D02*
X41142D01*
X50394Y12697D02*
Y28150D01*
X57874Y12697D02*
Y28150D01*
X50394Y12697D02*
X57874D01*
X50394Y28150D02*
X57874D01*
X57677Y34646D02*
Y48031D01*
X50591Y34646D02*
Y48031D01*
X57677D01*
X50591Y34646D02*
X57677D01*
X74409D02*
Y48031D01*
X67323Y34646D02*
Y48031D01*
X74409D01*
X67323Y34646D02*
X74409D01*
X67126Y12697D02*
Y28150D01*
X74606Y12697D02*
Y28150D01*
X67126Y12697D02*
X74606D01*
X67126Y28150D02*
X74606D01*
X30260Y108307D02*
X37740D01*
X30260Y121693D02*
X37740D01*
X30260Y108307D02*
Y121693D01*
X37740Y108307D02*
Y121693D01*
M02*
