G04*
G04 #@! TF.GenerationSoftware,Altium Limited,Altium Designer,20.0.12 (288)*
G04*
G04 Layer_Color=16711935*
%FSLAX25Y25*%
%MOIN*%
G70*
G01*
G75*
%ADD57C,0.00394*%
D57*
X141142Y89961D02*
X140878Y90945D01*
X140157Y91665D01*
X139173Y91929D01*
X138189Y91665D01*
X137469Y90945D01*
X137205Y89961D01*
X137469Y88976D01*
X138189Y88256D01*
X139173Y87992D01*
X140157Y88256D01*
X140878Y88976D01*
X141142Y89961D01*
X209071Y290134D02*
X208807Y291118D01*
X208087Y291839D01*
X207102Y292102D01*
X206118Y291839D01*
X205398Y291118D01*
X205134Y290134D01*
X205398Y289150D01*
X206118Y288429D01*
X207102Y288165D01*
X208087Y288429D01*
X208807Y289150D01*
X209071Y290134D01*
X71555Y87874D02*
Y92835D01*
X80020Y87874D02*
Y92835D01*
X71555D02*
X80020D01*
X71555Y87874D02*
X80020D01*
X71555Y161890D02*
Y166850D01*
X80020Y161890D02*
Y166850D01*
X71555D02*
X80020D01*
X71555Y161890D02*
X80020D01*
X414843Y101083D02*
X419803D01*
X414843Y92618D02*
X419803D01*
Y101083D01*
X414843Y92618D02*
Y101083D01*
X143189Y236910D02*
X148150D01*
X143189Y228445D02*
X148150D01*
Y236910D01*
X143189Y228445D02*
Y236910D01*
X128425Y105020D02*
X133386D01*
X128425Y113484D02*
X133386D01*
X128425Y105020D02*
Y113484D01*
X133386Y105020D02*
Y113484D01*
X270590Y6520D02*
Y11480D01*
X262126Y6520D02*
Y11480D01*
Y6520D02*
X270590D01*
X262126Y11480D02*
X270590D01*
X445157Y177854D02*
X450118D01*
X445157Y169390D02*
X450118D01*
Y177854D01*
X445157Y169390D02*
Y177854D01*
X449685Y111319D02*
X454646D01*
X449685Y102854D02*
X454646D01*
Y111319D01*
X449685Y102854D02*
Y111319D01*
X461071Y111500D02*
X466031D01*
X461071Y103035D02*
X466031D01*
Y111500D01*
X461071Y103035D02*
Y111500D01*
X438091Y153819D02*
Y158780D01*
X429626Y153819D02*
Y158780D01*
Y153819D02*
X438091D01*
X429626Y158780D02*
X438091D01*
X206520Y261591D02*
X211480D01*
X206520Y253126D02*
X211480D01*
Y261591D01*
X206520Y253126D02*
Y261591D01*
X196520Y261591D02*
X201480D01*
X196520Y253126D02*
X201480D01*
Y261591D01*
X196520Y253126D02*
Y261591D01*
X80020Y70157D02*
Y75118D01*
X71555Y70157D02*
Y75118D01*
Y70157D02*
X80020D01*
X71555Y75118D02*
X80020D01*
Y79016D02*
Y83976D01*
X71555Y79016D02*
Y83976D01*
Y79016D02*
X80020D01*
X71555Y83976D02*
X80020D01*
X48031Y99488D02*
Y104449D01*
X56496Y99488D02*
Y104449D01*
X48031D02*
X56496D01*
X48031Y99488D02*
X56496D01*
X63090Y127441D02*
Y132402D01*
X71555Y127441D02*
Y132402D01*
X63090D02*
X71555D01*
X63090Y127441D02*
X71555D01*
Y144173D02*
Y149134D01*
X80020Y144173D02*
Y149134D01*
X71555D02*
X80020D01*
X71555Y144173D02*
X80020D01*
X80020Y153032D02*
Y157992D01*
X71555Y153032D02*
Y157992D01*
Y153032D02*
X80020D01*
X71555Y157992D02*
X80020D01*
X34154Y164842D02*
Y169803D01*
X42618Y164842D02*
Y169803D01*
X34154D02*
X42618D01*
X34154Y164842D02*
X42618D01*
X118583Y145965D02*
X123543D01*
X118583Y137500D02*
X123543D01*
Y145965D01*
X118583Y137500D02*
Y145965D01*
X59724Y167224D02*
X64685D01*
X59724Y158760D02*
X64685D01*
Y167224D01*
X59724Y158760D02*
Y167224D01*
X118583Y128248D02*
X123543D01*
X118583Y119783D02*
X123543D01*
Y128248D01*
X118583Y119783D02*
Y128248D01*
X156791Y71339D02*
Y76299D01*
X148327Y71339D02*
Y76299D01*
Y71339D02*
X156791D01*
X148327Y76299D02*
X156791D01*
X369193Y56968D02*
Y61929D01*
X360728Y56968D02*
Y61929D01*
Y56968D02*
X369193D01*
X360728Y61929D02*
X369193D01*
X369587Y44370D02*
Y49331D01*
X361122Y44370D02*
Y49331D01*
Y44370D02*
X369587D01*
X361122Y49331D02*
X369587D01*
X369193Y31378D02*
Y36339D01*
X360728Y31378D02*
Y36339D01*
Y31378D02*
X369193D01*
X360728Y36339D02*
X369193D01*
X431004Y107362D02*
Y112323D01*
X422539Y107362D02*
Y112323D01*
Y107362D02*
X431004D01*
X422539Y112323D02*
X431004D01*
X181378Y104232D02*
X186339D01*
X181378Y95768D02*
X186339D01*
Y104232D01*
X181378Y95768D02*
Y104232D01*
X195945D02*
X200905D01*
X195945Y95768D02*
X200905D01*
Y104232D01*
X195945Y95768D02*
Y104232D01*
X429134Y198307D02*
Y203268D01*
X437598Y198307D02*
Y203268D01*
X429134D02*
X437598D01*
X429134Y198307D02*
X437598D01*
X129874Y214520D02*
Y219480D01*
X121409Y214520D02*
Y219480D01*
X129874D01*
X121409Y214520D02*
X129874D01*
Y205520D02*
Y210480D01*
X121409Y205520D02*
Y210480D01*
X129874D01*
X121409Y205520D02*
X129874D01*
X181020Y260874D02*
X185980D01*
X181020Y252409D02*
X185980D01*
Y260874D01*
X181020Y252409D02*
Y260874D01*
X170520Y252409D02*
X175480D01*
X170520Y260874D02*
X175480D01*
X170520Y252409D02*
Y260874D01*
X175480Y252409D02*
Y260874D01*
X23110Y48228D02*
X28071D01*
X23110Y56693D02*
X28071D01*
X23110Y48228D02*
Y56693D01*
X28071Y48228D02*
Y56693D01*
X437284Y102067D02*
X442244D01*
X437284Y110531D02*
X442244D01*
X437284Y102067D02*
Y110531D01*
X442244Y102067D02*
Y110531D01*
X454232Y198701D02*
Y203661D01*
X445768Y198701D02*
Y203661D01*
Y198701D02*
X454232D01*
X445768Y203661D02*
X454232D01*
X445768Y190039D02*
Y195000D01*
X454232Y190039D02*
Y195000D01*
X445768D02*
X454232D01*
X445768Y190039D02*
X454232D01*
X123031Y93504D02*
X142717D01*
X123031Y77756D02*
X142717D01*
Y93504D01*
X123031Y77756D02*
Y93504D01*
X191354Y278323D02*
Y293677D01*
X210646Y278323D02*
Y293677D01*
X191354Y278323D02*
X210646D01*
X191354Y293677D02*
X210646D01*
X377362Y56968D02*
X389370D01*
X377362Y61929D02*
X389370D01*
Y56968D02*
Y61929D01*
X377362Y56968D02*
Y61929D01*
Y44370D02*
X389370D01*
X377362Y49331D02*
X389370D01*
Y44370D02*
Y49331D01*
X377362Y44370D02*
Y49331D01*
Y31378D02*
X389370D01*
X377362Y36339D02*
X389370D01*
Y31378D02*
Y36339D01*
X377362Y31378D02*
Y36339D01*
X181378Y75000D02*
Y87008D01*
X186339Y75000D02*
Y87008D01*
X181378Y75000D02*
X186339D01*
X181378Y87008D02*
X186339D01*
X195945Y75000D02*
Y87008D01*
X200905Y75000D02*
Y87008D01*
X195945Y75000D02*
X200905D01*
X195945Y87008D02*
X200905D01*
X437284Y71653D02*
Y83661D01*
X442244Y71653D02*
Y83661D01*
X437284Y71653D02*
X442244D01*
X437284Y83661D02*
X442244D01*
M02*
