%TF.GenerationSoftware,Altium Limited,Altium Designer,19.1.8 (144)*%
G04 Layer_Physical_Order=1*
G04 Layer_Color=255*
%FSLAX26Y26*%
%MOIN*%
%TF.FileFunction,Copper,L1,Top,Signal*%
%TF.Part,Single*%
G01*
G75*
%TA.AperFunction,SMDPad,CuDef*%
%ADD10R,0.125984X0.062992*%
%ADD11R,0.017716X0.057087*%
%ADD12R,0.084646X0.039370*%
%ADD13R,0.084646X0.127953*%
%ADD14R,0.051181X0.041339*%
%ADD15O,0.025591X0.082677*%
%ADD16R,0.023622X0.068898*%
%ADD17R,0.041339X0.051181*%
%ADD18R,0.127953X0.098425*%
%ADD19R,0.055118X0.041339*%
%ADD20R,0.041339X0.055118*%
%TA.AperFunction,Conductor*%
%ADD21C,0.020000*%
%ADD22C,0.010000*%
%ADD23C,0.015000*%
%ADD24C,0.018000*%
%ADD25C,0.017000*%
%ADD26C,0.250000*%
%TA.AperFunction,ComponentPad*%
%ADD27C,0.060000*%
%ADD28R,0.060000X0.060000*%
%ADD29C,0.236220*%
%ADD30R,0.060000X0.060000*%
%TA.AperFunction,WasherPad*%
%ADD31C,0.060000*%
%TA.AperFunction,ViaPad*%
%ADD32C,0.050000*%
G36*
X4520000Y3120000D02*
X4720000D01*
Y260000D01*
X4510000D01*
Y0D01*
X1590000D01*
Y1070000D01*
X1320000Y1340000D01*
X30000D01*
Y3140000D01*
X290000D01*
Y3360000D01*
X4520000D01*
Y3120000D01*
D02*
G37*
G36*
X1510000Y1050000D02*
Y-269D01*
X1506459Y-3799D01*
X260000Y-28D01*
Y240000D01*
X30000D01*
Y1300000D01*
X1260000D01*
X1510000Y1050000D01*
D02*
G37*
%LPC*%
G36*
X3601850Y3175558D02*
X2680512D01*
X2659799Y3173928D01*
X2639596Y3169078D01*
X2634910Y3167137D01*
X2140000Y3167137D01*
X2137269Y3166594D01*
X2134954Y3165047D01*
X2014953Y3045047D01*
X2013406Y3042731D01*
X2012863Y3040000D01*
Y2950000D01*
X2013406Y2947269D01*
X2014953Y2944953D01*
X2016189Y2944128D01*
Y2929772D01*
X2053811D01*
Y2942863D01*
X2066189D01*
Y2929772D01*
X2103811D01*
Y2942863D01*
X2594684D01*
X2602684Y2936030D01*
X2620400Y2925173D01*
X2639596Y2917222D01*
X2659799Y2912372D01*
X2680512Y2910742D01*
X3601850D01*
X3622563Y2912372D01*
X3642766Y2917222D01*
X3661962Y2925173D01*
X3679678Y2936030D01*
X3695477Y2949523D01*
X3708970Y2965322D01*
X3719827Y2983038D01*
X3727778Y3002234D01*
X3732628Y3022437D01*
X3734258Y3043150D01*
X3732628Y3063863D01*
X3727778Y3084066D01*
X3719827Y3103262D01*
X3708970Y3120978D01*
X3695477Y3136777D01*
X3679678Y3150271D01*
X3661962Y3161127D01*
X3642766Y3169078D01*
X3622563Y3173928D01*
X3601850Y3175558D01*
D02*
G37*
G36*
X1880000Y3167137D02*
X1308780D01*
X1307839Y3166950D01*
X1306884Y3166881D01*
X1306486Y3166681D01*
X1306048Y3166594D01*
X1305252Y3166061D01*
X1304395Y3165631D01*
X1304103Y3165294D01*
X1303733Y3165047D01*
X1303200Y3164250D01*
X1302574Y3163525D01*
X1302434Y3163102D01*
X1302186Y3162731D01*
X1302074Y3162167D01*
X1301227Y3161320D01*
X1289148Y3160369D01*
X1269999Y3155772D01*
X1251805Y3148236D01*
X1235014Y3137947D01*
X1220040Y3125157D01*
X1207250Y3110183D01*
X1196961Y3093392D01*
X1189425Y3075198D01*
X1184828Y3056049D01*
X1183283Y3036417D01*
X1184828Y3016785D01*
X1189425Y2997637D01*
X1196961Y2979443D01*
X1207250Y2962652D01*
X1220040Y2947677D01*
X1235014Y2934888D01*
X1251805Y2924599D01*
X1269999Y2917062D01*
X1289148Y2912465D01*
X1308780Y2910920D01*
X1328412Y2912465D01*
X1347560Y2917062D01*
X1365754Y2924599D01*
X1382545Y2934888D01*
X1391882Y2942863D01*
X1717765Y2942863D01*
Y2630503D01*
X1697409D01*
Y2575165D01*
X1731329D01*
X1733242Y2570545D01*
X1721349Y2558651D01*
X1720692Y2557669D01*
X1697409D01*
Y2502330D01*
X1762591D01*
Y2554930D01*
X1802409D01*
Y2502331D01*
X1820765D01*
Y2467000D01*
X1821696Y2462318D01*
X1824349Y2458349D01*
X1901348Y2381349D01*
X1905318Y2378696D01*
X1910000Y2377765D01*
X2114932D01*
X2271349Y2221349D01*
X2275318Y2218696D01*
X2280000Y2217765D01*
X2458572D01*
X2463159Y2213177D01*
X2460824Y2208441D01*
X2458583Y2208737D01*
X2448924Y2207465D01*
X2439923Y2203737D01*
X2432194Y2197806D01*
X2426263Y2190077D01*
X2422535Y2181076D01*
X2421263Y2171417D01*
X2422535Y2161758D01*
X2426263Y2152758D01*
X2432194Y2145029D01*
X2439923Y2139098D01*
X2448924Y2135370D01*
X2458583Y2134098D01*
X2468242Y2135370D01*
X2477242Y2139098D01*
X2484971Y2145029D01*
X2490902Y2152758D01*
X2494630Y2161758D01*
X2495536Y2168640D01*
X2500714Y2171308D01*
X2501347Y2170914D01*
Y1926418D01*
X2502278Y1921736D01*
X2504930Y1917766D01*
X2529023Y1893674D01*
X2526263Y1890077D01*
X2522535Y1881076D01*
X2521263Y1871417D01*
X2522535Y1861758D01*
X2526263Y1852758D01*
X2532194Y1845029D01*
X2539923Y1839098D01*
X2548924Y1835370D01*
X2558583Y1834098D01*
X2568242Y1835370D01*
X2577242Y1839098D01*
X2584971Y1845029D01*
X2590902Y1852758D01*
X2594630Y1861758D01*
X2595902Y1871417D01*
X2594630Y1881076D01*
X2590902Y1890077D01*
X2584971Y1897806D01*
X2577242Y1903737D01*
X2568242Y1907465D01*
X2558583Y1908737D01*
X2549732Y1907571D01*
X2525817Y1931486D01*
Y2145126D01*
X2530817Y2146823D01*
X2532194Y2145029D01*
X2539923Y2139098D01*
X2548924Y2135370D01*
X2558583Y2134098D01*
X2568242Y2135370D01*
X2577242Y2139098D01*
X2584971Y2145029D01*
X2590902Y2152758D01*
X2594630Y2161758D01*
X2595536Y2168640D01*
X2600714Y2171308D01*
X2601347Y2170914D01*
Y1916418D01*
X2602278Y1911736D01*
X2604930Y1907766D01*
X2625196Y1887501D01*
X2622535Y1881076D01*
X2621263Y1871417D01*
X2622535Y1861758D01*
X2626263Y1852758D01*
X2632194Y1845029D01*
X2639923Y1839098D01*
X2648924Y1835370D01*
X2658583Y1834098D01*
X2668242Y1835370D01*
X2677242Y1839098D01*
X2684971Y1845029D01*
X2690902Y1852758D01*
X2694630Y1861758D01*
X2695902Y1871417D01*
X2694630Y1881076D01*
X2690902Y1890077D01*
X2684971Y1897806D01*
X2677242Y1903737D01*
X2668242Y1907465D01*
X2658583Y1908737D01*
X2648924Y1907465D01*
X2642499Y1904804D01*
X2625817Y1921486D01*
Y2145126D01*
X2630817Y2146823D01*
X2632194Y2145029D01*
X2639923Y2139098D01*
X2648924Y2135370D01*
X2658583Y2134098D01*
X2668242Y2135370D01*
X2677242Y2139098D01*
X2684971Y2145029D01*
X2690902Y2152758D01*
X2694630Y2161758D01*
X2695902Y2171417D01*
X2694630Y2181076D01*
X2690902Y2190077D01*
X2684971Y2197806D01*
X2677242Y2203737D01*
X2668242Y2207465D01*
X2658583Y2208737D01*
X2648924Y2207465D01*
X2639923Y2203737D01*
X2632194Y2197806D01*
X2626835Y2190822D01*
X2625653Y2190279D01*
X2624409Y2190081D01*
X2620855Y2190087D01*
X2537262Y2273680D01*
X2533293Y2276332D01*
X2528611Y2277264D01*
X2297764D01*
X2073150Y2501877D01*
X2075001Y2506345D01*
Y2537166D01*
X2090001D01*
Y2552166D01*
X2127560D01*
Y2560600D01*
X2152097D01*
X2160440Y2552257D01*
X2158824Y2548354D01*
X2157724Y2540000D01*
X2158824Y2531646D01*
X2162048Y2523862D01*
X2167177Y2517177D01*
X2173862Y2512048D01*
X2181646Y2508824D01*
X2190000Y2507724D01*
X2198354Y2508824D01*
X2206138Y2512048D01*
X2212823Y2517177D01*
X2217952Y2523862D01*
X2221176Y2531646D01*
X2222276Y2540000D01*
X2221176Y2548354D01*
X2217952Y2556138D01*
X2212823Y2562823D01*
X2206138Y2567952D01*
X2198354Y2571176D01*
X2190000Y2572276D01*
X2181646Y2571176D01*
X2177743Y2569560D01*
X2165816Y2581487D01*
X2161847Y2584139D01*
X2157165Y2585070D01*
X2124560D01*
Y2637670D01*
X2097235D01*
Y2707331D01*
X2103811D01*
Y2790228D01*
X2066189D01*
Y2707331D01*
X2072765D01*
Y2637670D01*
X2055442D01*
Y2582331D01*
X2077765D01*
Y2580000D01*
X2078696Y2575318D01*
X2080355Y2572835D01*
X2078291Y2567835D01*
X2052442D01*
Y2534909D01*
X2047442Y2532236D01*
X2047235Y2532374D01*
Y2707331D01*
X2053811D01*
Y2790228D01*
X2016189D01*
Y2707331D01*
X2022765D01*
Y2637669D01*
X1997235D01*
Y2707331D01*
X2003811D01*
Y2790228D01*
X1966189D01*
Y2707331D01*
X1972765D01*
Y2637669D01*
X1955442D01*
Y2582331D01*
X2022765D01*
Y2567835D01*
X2005001D01*
Y2537165D01*
Y2506496D01*
X2027560D01*
Y2506496D01*
X2032061Y2508360D01*
X2284044Y2256377D01*
X2288014Y2253725D01*
X2292696Y2252794D01*
X2523543D01*
X2563159Y2213177D01*
X2560824Y2208441D01*
X2558583Y2208737D01*
X2548924Y2207465D01*
X2539923Y2203737D01*
X2532194Y2197806D01*
X2526835Y2190822D01*
X2525653Y2190279D01*
X2524409Y2190081D01*
X2520855Y2190087D01*
X2472291Y2238651D01*
X2468322Y2241304D01*
X2463640Y2242235D01*
X2285068D01*
X2128651Y2398651D01*
X2124682Y2401304D01*
X2120000Y2402235D01*
X1915068D01*
X1845235Y2472068D01*
Y2502331D01*
X1867591D01*
Y2557669D01*
X1839308D01*
X1838652Y2558651D01*
X1829757Y2567546D01*
X1831671Y2572165D01*
X1870591D01*
Y2587835D01*
X1799409D01*
Y2579400D01*
X1762591D01*
Y2630503D01*
X1742235D01*
Y2942863D01*
X1916189Y2942863D01*
Y2929772D01*
X1953811D01*
Y2942863D01*
X1966189D01*
Y2929772D01*
X2003811D01*
Y2944128D01*
X2005046Y2944953D01*
X2006594Y2947269D01*
X2007137Y2950000D01*
X2007137Y3040000D01*
X2006594Y3042731D01*
X2005047Y3045047D01*
X1885047Y3165047D01*
X1882732Y3166594D01*
X1880000Y3167137D01*
D02*
G37*
G36*
X3618583Y2888743D02*
Y2776417D01*
X3730909D01*
X3730507Y2781520D01*
X3725800Y2801128D01*
X3718083Y2819758D01*
X3707546Y2836951D01*
X3694450Y2852285D01*
X3679117Y2865381D01*
X3661923Y2875917D01*
X3643293Y2883634D01*
X3623686Y2888341D01*
X3618583Y2888743D01*
D02*
G37*
G36*
X3588583D02*
X3583480Y2888341D01*
X3563872Y2883634D01*
X3545242Y2875917D01*
X3528049Y2865381D01*
X3512715Y2852285D01*
X3499619Y2836951D01*
X3489083Y2819758D01*
X3481366Y2801128D01*
X3476659Y2781520D01*
X3476257Y2776417D01*
X3588583D01*
Y2888743D01*
D02*
G37*
G36*
X4315000Y2887326D02*
Y2775000D01*
X4427326D01*
X4426924Y2780103D01*
X4422217Y2799711D01*
X4414500Y2818341D01*
X4403964Y2835534D01*
X4390868Y2850868D01*
X4375534Y2863964D01*
X4358341Y2874500D01*
X4339711Y2882217D01*
X4320103Y2886924D01*
X4315000Y2887326D01*
D02*
G37*
G36*
X4285000D02*
X4279897Y2886924D01*
X4260289Y2882217D01*
X4241659Y2874500D01*
X4224466Y2863964D01*
X4209132Y2850868D01*
X4196036Y2835534D01*
X4185500Y2818341D01*
X4177783Y2799711D01*
X4173076Y2780103D01*
X4172674Y2775000D01*
X4285000D01*
Y2887326D01*
D02*
G37*
G36*
X2693780Y2885278D02*
Y2772953D01*
X2806105D01*
X2805704Y2778055D01*
X2800996Y2797663D01*
X2793280Y2816293D01*
X2782743Y2833487D01*
X2769647Y2848820D01*
X2754314Y2861916D01*
X2737120Y2872453D01*
X2718490Y2880169D01*
X2698882Y2884877D01*
X2693780Y2885278D01*
D02*
G37*
G36*
X2663780D02*
X2658677Y2884877D01*
X2639069Y2880169D01*
X2620439Y2872453D01*
X2603245Y2861916D01*
X2587912Y2848820D01*
X2574816Y2833487D01*
X2564280Y2816293D01*
X2556563Y2797663D01*
X2551855Y2778055D01*
X2551454Y2772953D01*
X2663780D01*
Y2885278D01*
D02*
G37*
G36*
X1323780Y2880278D02*
Y2767953D01*
X1436105D01*
X1435704Y2773055D01*
X1430996Y2792663D01*
X1423280Y2811293D01*
X1412743Y2828487D01*
X1399647Y2843820D01*
X1384314Y2856916D01*
X1367120Y2867453D01*
X1348490Y2875169D01*
X1328882Y2879877D01*
X1323780Y2880278D01*
D02*
G37*
G36*
X1293780D02*
X1288677Y2879877D01*
X1269069Y2875169D01*
X1250439Y2867453D01*
X1233245Y2856916D01*
X1217912Y2843820D01*
X1204816Y2828487D01*
X1194280Y2811293D01*
X1186563Y2792663D01*
X1181855Y2773055D01*
X1181454Y2767953D01*
X1293780D01*
Y2880278D01*
D02*
G37*
G36*
X1956811Y2793228D02*
X1950000D01*
Y2763780D01*
X1956811D01*
Y2793228D01*
D02*
G37*
G36*
X1920000D02*
X1913189D01*
Y2763780D01*
X1920000D01*
Y2793228D01*
D02*
G37*
G36*
X1956811Y2733780D02*
X1950000D01*
Y2704331D01*
X1956811D01*
Y2733780D01*
D02*
G37*
G36*
X1920000D02*
X1913189D01*
Y2704331D01*
X1920000D01*
Y2733780D01*
D02*
G37*
G36*
X3730909Y2746417D02*
X3618583D01*
Y2634091D01*
X3623686Y2634493D01*
X3643293Y2639200D01*
X3661923Y2646917D01*
X3679117Y2657454D01*
X3694450Y2670550D01*
X3707546Y2685883D01*
X3718083Y2703077D01*
X3725800Y2721707D01*
X3730507Y2741314D01*
X3730909Y2746417D01*
D02*
G37*
G36*
X3588583D02*
X3476257D01*
X3476659Y2741314D01*
X3481366Y2721707D01*
X3489083Y2703077D01*
X3499619Y2685883D01*
X3512715Y2670550D01*
X3528049Y2657454D01*
X3545242Y2646917D01*
X3563872Y2639200D01*
X3583480Y2634493D01*
X3588583Y2634091D01*
Y2746417D01*
D02*
G37*
G36*
X4427326Y2745000D02*
X4315000D01*
Y2632674D01*
X4320103Y2633076D01*
X4339711Y2637783D01*
X4358341Y2645500D01*
X4375534Y2656036D01*
X4390868Y2669132D01*
X4403964Y2684466D01*
X4414500Y2701659D01*
X4422217Y2720289D01*
X4426924Y2739897D01*
X4427326Y2745000D01*
D02*
G37*
G36*
X4285000D02*
X4172674D01*
X4173076Y2739897D01*
X4177783Y2720289D01*
X4185500Y2701659D01*
X4196036Y2684466D01*
X4209132Y2669132D01*
X4224466Y2656036D01*
X4241659Y2645500D01*
X4260289Y2637783D01*
X4279897Y2633076D01*
X4285000Y2632674D01*
Y2745000D01*
D02*
G37*
G36*
X2806105Y2742953D02*
X2693780D01*
Y2630627D01*
X2698882Y2631028D01*
X2718490Y2635736D01*
X2737120Y2643453D01*
X2754314Y2653989D01*
X2769647Y2667085D01*
X2782743Y2682419D01*
X2793280Y2699612D01*
X2800996Y2718242D01*
X2805704Y2737850D01*
X2806105Y2742953D01*
D02*
G37*
G36*
X2663780D02*
X2551454D01*
X2551855Y2737850D01*
X2556563Y2718242D01*
X2564280Y2699612D01*
X2574816Y2682419D01*
X2587912Y2667085D01*
X2603245Y2653989D01*
X2620439Y2643453D01*
X2639069Y2635736D01*
X2658677Y2631028D01*
X2663780Y2630627D01*
Y2742953D01*
D02*
G37*
G36*
X1436105Y2737953D02*
X1323780D01*
Y2625627D01*
X1328882Y2626028D01*
X1348490Y2630736D01*
X1367120Y2638453D01*
X1384314Y2648989D01*
X1399647Y2662085D01*
X1412743Y2677419D01*
X1423280Y2694612D01*
X1430996Y2713242D01*
X1435704Y2732850D01*
X1436105Y2737953D01*
D02*
G37*
G36*
X1293780D02*
X1181454D01*
X1181855Y2732850D01*
X1186563Y2713242D01*
X1194280Y2694612D01*
X1204816Y2677419D01*
X1217912Y2662085D01*
X1233245Y2648989D01*
X1250439Y2638453D01*
X1269069Y2630736D01*
X1288677Y2626028D01*
X1293780Y2625627D01*
Y2737953D01*
D02*
G37*
G36*
X1870591Y2633504D02*
X1850000D01*
Y2617835D01*
X1870591D01*
Y2633504D01*
D02*
G37*
G36*
X1820000D02*
X1799409D01*
Y2617835D01*
X1820000D01*
Y2633504D01*
D02*
G37*
G36*
X1975001Y2567835D02*
X1952442D01*
Y2552165D01*
X1975001D01*
Y2567835D01*
D02*
G37*
G36*
X2127560Y2522166D02*
X2105001D01*
Y2506497D01*
X2127560D01*
Y2522166D01*
D02*
G37*
G36*
X1975001Y2522165D02*
X1952442D01*
Y2506496D01*
X1975001D01*
Y2522165D01*
D02*
G37*
G36*
X990000Y2507319D02*
X980341Y2506048D01*
X971340Y2502320D01*
X963611Y2496389D01*
X957681Y2488660D01*
X953952Y2479659D01*
X952681Y2470000D01*
X953952Y2460341D01*
X957681Y2451340D01*
X963611Y2443611D01*
X971340Y2437680D01*
X980341Y2433952D01*
X990000Y2432681D01*
X999659Y2433952D01*
X1008660Y2437680D01*
X1016389Y2443611D01*
X1022319Y2451340D01*
X1026048Y2460341D01*
X1027319Y2470000D01*
X1026048Y2479659D01*
X1022319Y2488660D01*
X1016389Y2496389D01*
X1008660Y2502320D01*
X999659Y2506048D01*
X990000Y2507319D01*
D02*
G37*
G36*
X850000D02*
X840341Y2506048D01*
X831340Y2502320D01*
X823611Y2496389D01*
X817681Y2488660D01*
X813952Y2479659D01*
X812681Y2470000D01*
X813952Y2460341D01*
X817681Y2451340D01*
X823611Y2443611D01*
X831340Y2437680D01*
X840341Y2433952D01*
X850000Y2432681D01*
X859659Y2433952D01*
X868660Y2437680D01*
X876389Y2443611D01*
X882319Y2451340D01*
X886048Y2460341D01*
X887319Y2470000D01*
X886048Y2479659D01*
X882319Y2488660D01*
X876389Y2496389D01*
X868660Y2502320D01*
X859659Y2506048D01*
X850000Y2507319D01*
D02*
G37*
G36*
X710000D02*
X700341Y2506048D01*
X691340Y2502320D01*
X683611Y2496389D01*
X677681Y2488660D01*
X673952Y2479659D01*
X672681Y2470000D01*
X673952Y2460341D01*
X677681Y2451340D01*
X683611Y2443611D01*
X691340Y2437680D01*
X700341Y2433952D01*
X710000Y2432681D01*
X719659Y2433952D01*
X728660Y2437680D01*
X736389Y2443611D01*
X742319Y2451340D01*
X746048Y2460341D01*
X747319Y2470000D01*
X746048Y2479659D01*
X742319Y2488660D01*
X736389Y2496389D01*
X728660Y2502320D01*
X719659Y2506048D01*
X710000Y2507319D01*
D02*
G37*
G36*
X570000D02*
X560341Y2506048D01*
X551340Y2502320D01*
X543611Y2496389D01*
X537681Y2488660D01*
X533952Y2479659D01*
X532681Y2470000D01*
X533952Y2460341D01*
X537681Y2451340D01*
X543611Y2443611D01*
X551340Y2437680D01*
X560341Y2433952D01*
X570000Y2432681D01*
X579659Y2433952D01*
X588660Y2437680D01*
X596389Y2443611D01*
X602319Y2451340D01*
X606048Y2460341D01*
X607319Y2470000D01*
X606048Y2479659D01*
X602319Y2488660D01*
X596389Y2496389D01*
X588660Y2502320D01*
X579659Y2506048D01*
X570000Y2507319D01*
D02*
G37*
G36*
X430000D02*
X420341Y2506048D01*
X411340Y2502320D01*
X403611Y2496389D01*
X397680Y2488660D01*
X393952Y2479659D01*
X392681Y2470000D01*
X393952Y2460341D01*
X397680Y2451340D01*
X403611Y2443611D01*
X411340Y2437680D01*
X420341Y2433952D01*
X430000Y2432681D01*
X439659Y2433952D01*
X448660Y2437680D01*
X456389Y2443611D01*
X462320Y2451340D01*
X466048Y2460341D01*
X467319Y2470000D01*
X466048Y2479659D01*
X462320Y2488660D01*
X456389Y2496389D01*
X448660Y2502320D01*
X439659Y2506048D01*
X430000Y2507319D01*
D02*
G37*
G36*
X290000D02*
X280341Y2506048D01*
X271340Y2502320D01*
X263611Y2496389D01*
X257680Y2488660D01*
X253952Y2479659D01*
X252681Y2470000D01*
X253952Y2460341D01*
X257680Y2451340D01*
X263611Y2443611D01*
X271340Y2437680D01*
X280341Y2433952D01*
X290000Y2432681D01*
X299659Y2433952D01*
X308660Y2437680D01*
X316389Y2443611D01*
X322320Y2451340D01*
X326048Y2460341D01*
X327319Y2470000D01*
X326048Y2479659D01*
X322320Y2488660D01*
X316389Y2496389D01*
X308660Y2502320D01*
X299659Y2506048D01*
X290000Y2507319D01*
D02*
G37*
G36*
X4300000Y3168962D02*
X4280368Y3167417D01*
X4261219Y3162819D01*
X4243025Y3155283D01*
X4226235Y3144994D01*
X4211260Y3132204D01*
X4198471Y3117230D01*
X4188181Y3100439D01*
X4180645Y3082245D01*
X4176048Y3063097D01*
X4174503Y3043465D01*
X4176048Y3023832D01*
X4180645Y3004684D01*
X4188181Y2986490D01*
X4198471Y2969699D01*
X4211260Y2954725D01*
X4226235Y2941935D01*
X4243025Y2931646D01*
X4261219Y2924110D01*
X4280368Y2919513D01*
X4300000Y2917968D01*
X4319632Y2919513D01*
X4338781Y2924110D01*
X4356975Y2931646D01*
X4373765Y2941935D01*
X4375519Y2943433D01*
X4452667Y2866285D01*
Y2587180D01*
X4289983Y2424496D01*
X4227008D01*
Y2420137D01*
X4106779D01*
Y2431496D01*
X3966795D01*
Y2354504D01*
X4021043D01*
X4057863Y2159999D01*
X4057863Y2100000D01*
X4058406Y2097269D01*
X4058551Y2097052D01*
Y2074458D01*
X4124827D01*
X4126740Y2069838D01*
X3942765Y1885864D01*
X3940113Y1881894D01*
X3939182Y1877212D01*
Y1710000D01*
X3940113Y1705318D01*
X3942765Y1701349D01*
X3956903Y1687211D01*
X3954990Y1682591D01*
X3915165D01*
Y1617410D01*
X3970503D01*
Y1637765D01*
X4052331D01*
Y1617409D01*
X4107669D01*
Y1682591D01*
X4052331D01*
Y1662235D01*
X4016485D01*
X3963652Y1715068D01*
Y1872144D01*
X4050932Y1959424D01*
X4055551Y1957510D01*
Y1951773D01*
X4074409D01*
Y1921773D01*
X4055551D01*
Y1898229D01*
X4079433D01*
X4081347Y1893610D01*
X4031349Y1843612D01*
X4028696Y1839643D01*
X4027765Y1834960D01*
Y1834560D01*
X3979497D01*
Y1765442D01*
X4034836D01*
Y1787903D01*
X4038824Y1788696D01*
X4042794Y1791349D01*
X4047332Y1795887D01*
X4052332Y1794020D01*
Y1765442D01*
X4107670D01*
Y1794655D01*
X4113110D01*
X4117792Y1795586D01*
X4121762Y1798238D01*
X4134242Y1810718D01*
X4136894Y1814687D01*
X4137825Y1819370D01*
Y1898229D01*
X4170039D01*
Y1921773D01*
X4151181D01*
Y1936773D01*
X4141450D01*
Y1972318D01*
X4136181D01*
Y1975316D01*
X4132323D01*
Y1972316D01*
X4122458D01*
X4120387Y1977316D01*
X4206757Y2063686D01*
X4372419D01*
X4374488Y2061087D01*
X4372323Y2056213D01*
X4329024D01*
Y1943787D01*
X4470976D01*
Y2056213D01*
X4416314D01*
Y2060000D01*
X4415072Y2066243D01*
X4411535Y2071535D01*
X4391535Y2091535D01*
X4386243Y2095072D01*
X4380000Y2096314D01*
X4200001D01*
X4200000Y2096314D01*
X4193757Y2095072D01*
X4188465Y2091535D01*
X4172039Y2075110D01*
X4167039Y2077181D01*
Y2145544D01*
X4137825D01*
Y2175442D01*
X4187669D01*
Y2244560D01*
X4132331D01*
Y2209634D01*
X4117137Y2194440D01*
X4116287Y2194488D01*
X4112137Y2196055D01*
Y2242343D01*
X4351140Y2347504D01*
X4366992D01*
Y2424496D01*
X4345542D01*
X4343628Y2429115D01*
X4482256Y2567744D01*
X4486014Y2573367D01*
X4487333Y2580000D01*
Y2873465D01*
X4486014Y2880098D01*
X4482256Y2885721D01*
X4400032Y2967946D01*
X4401529Y2969699D01*
X4411819Y2986490D01*
X4419355Y3004684D01*
X4423952Y3023832D01*
X4425497Y3043465D01*
X4423952Y3063097D01*
X4419355Y3082245D01*
X4411819Y3100439D01*
X4401529Y3117230D01*
X4388740Y3132204D01*
X4373765Y3144994D01*
X4356975Y3155283D01*
X4338781Y3162819D01*
X4319632Y3167417D01*
X4300000Y3168962D01*
D02*
G37*
G36*
X3908992Y2434496D02*
X3851000D01*
Y2408000D01*
X3908992D01*
Y2434496D01*
D02*
G37*
G36*
X3821000D02*
X3763008D01*
Y2408000D01*
X3821000D01*
Y2434496D01*
D02*
G37*
G36*
X4570779Y2427496D02*
X4512787D01*
Y2401000D01*
X4570779D01*
Y2427496D01*
D02*
G37*
G36*
X4482787D02*
X4424795D01*
Y2401000D01*
X4482787D01*
Y2427496D01*
D02*
G37*
G36*
X990000Y2407319D02*
X980341Y2406048D01*
X971340Y2402320D01*
X963611Y2396389D01*
X957681Y2388660D01*
X956075Y2384784D01*
X883925D01*
X882319Y2388660D01*
X876389Y2396389D01*
X868660Y2402320D01*
X859659Y2406048D01*
X850000Y2407319D01*
X840341Y2406048D01*
X831340Y2402320D01*
X823611Y2396389D01*
X817681Y2388660D01*
X816075Y2384784D01*
X743925D01*
X742319Y2388660D01*
X736389Y2396389D01*
X728660Y2402320D01*
X719659Y2406048D01*
X710000Y2407319D01*
X700341Y2406048D01*
X691340Y2402320D01*
X683611Y2396389D01*
X677681Y2388660D01*
X676075Y2384784D01*
X603925D01*
X602319Y2388660D01*
X596389Y2396389D01*
X588660Y2402320D01*
X579659Y2406048D01*
X570000Y2407319D01*
X560341Y2406048D01*
X551340Y2402320D01*
X543611Y2396389D01*
X537681Y2388660D01*
X536075Y2384784D01*
X463925D01*
X462320Y2388660D01*
X456389Y2396389D01*
X448660Y2402320D01*
X439659Y2406048D01*
X430000Y2407319D01*
X420341Y2406048D01*
X411340Y2402320D01*
X403611Y2396389D01*
X397680Y2388660D01*
X396075Y2384784D01*
X323925D01*
X322320Y2388660D01*
X316389Y2396389D01*
X308660Y2402320D01*
X299659Y2406048D01*
X290000Y2407319D01*
X280341Y2406048D01*
X271340Y2402320D01*
X263611Y2396389D01*
X257680Y2388660D01*
X253952Y2379659D01*
X252681Y2370000D01*
X253952Y2360341D01*
X257680Y2351340D01*
X263611Y2343611D01*
X271340Y2337680D01*
X280341Y2333952D01*
X290000Y2332681D01*
X299659Y2333952D01*
X308660Y2337680D01*
X316389Y2343611D01*
X322320Y2351340D01*
X323925Y2355216D01*
X396075D01*
X397680Y2351340D01*
X403611Y2343611D01*
X411340Y2337680D01*
X420341Y2333952D01*
X430000Y2332681D01*
X439659Y2333952D01*
X448660Y2337680D01*
X456389Y2343611D01*
X462320Y2351340D01*
X463925Y2355216D01*
X536075D01*
X537681Y2351340D01*
X543611Y2343611D01*
X551340Y2337680D01*
X560341Y2333952D01*
X570000Y2332681D01*
X579659Y2333952D01*
X588660Y2337680D01*
X596389Y2343611D01*
X602319Y2351340D01*
X603925Y2355216D01*
X676075D01*
X677681Y2351340D01*
X683611Y2343611D01*
X691340Y2337680D01*
X700341Y2333952D01*
X710000Y2332681D01*
X719659Y2333952D01*
X728660Y2337680D01*
X736389Y2343611D01*
X742319Y2351340D01*
X743925Y2355216D01*
X816075D01*
X817681Y2351340D01*
X823611Y2343611D01*
X831340Y2337680D01*
X840341Y2333952D01*
X850000Y2332681D01*
X859659Y2333952D01*
X868660Y2337680D01*
X876389Y2343611D01*
X882319Y2351340D01*
X883925Y2355216D01*
X956075D01*
X957681Y2351340D01*
X963611Y2343611D01*
X971340Y2337680D01*
X980341Y2333952D01*
X990000Y2332681D01*
X999659Y2333952D01*
X1003535Y2335558D01*
X1434657Y1904435D01*
X1434330Y1899445D01*
X1432194Y1897806D01*
X1426263Y1890077D01*
X1422535Y1881076D01*
X1421263Y1871417D01*
X1422523Y1861851D01*
X1422376Y1861659D01*
X1418239Y1859064D01*
X1023386Y2253916D01*
X1026048Y2260341D01*
X1027319Y2270000D01*
X1026048Y2279659D01*
X1022319Y2288660D01*
X1016389Y2296389D01*
X1008660Y2302320D01*
X999659Y2306048D01*
X990000Y2307319D01*
X980341Y2306048D01*
X971340Y2302320D01*
X963611Y2296389D01*
X957681Y2288660D01*
X953952Y2279659D01*
X952681Y2270000D01*
X953952Y2260341D01*
X957681Y2251340D01*
X963611Y2243611D01*
X971340Y2237680D01*
X980341Y2233952D01*
X990000Y2232681D01*
X999659Y2233952D01*
X1006083Y2236613D01*
X1515440Y1727257D01*
X1513824Y1723354D01*
X1512724Y1715000D01*
X1513824Y1706646D01*
X1517048Y1698862D01*
X1522177Y1692177D01*
X1528862Y1687048D01*
X1536646Y1683824D01*
X1545000Y1682724D01*
X1553354Y1683824D01*
X1561138Y1687048D01*
X1567823Y1692177D01*
X1572952Y1698862D01*
X1576176Y1706646D01*
X1577276Y1715000D01*
X1576176Y1723354D01*
X1574415Y1727606D01*
X1578654Y1730438D01*
X1749546Y1559546D01*
X1754342Y1556341D01*
X1760000Y1555216D01*
X4232331D01*
Y1535440D01*
X4278051D01*
Y1514558D01*
X4232330D01*
Y1477333D01*
X3992869D01*
X3992320Y1478660D01*
X3986389Y1486389D01*
X3978660Y1492320D01*
X3969659Y1496048D01*
X3960000Y1497319D01*
X3950341Y1496048D01*
X3941340Y1492320D01*
X3933611Y1486389D01*
X3927680Y1478660D01*
X3923952Y1469659D01*
X3922681Y1460000D01*
X3923952Y1450341D01*
X3927680Y1441340D01*
X3933611Y1433611D01*
X3941340Y1427680D01*
X3950341Y1423952D01*
X3960000Y1422681D01*
X3969659Y1423952D01*
X3978660Y1427680D01*
X3986389Y1433611D01*
X3992320Y1441340D01*
X3992869Y1442667D01*
X4244331D01*
X4250964Y1443986D01*
X4253140Y1445440D01*
X4287669D01*
Y1477685D01*
X4290454Y1479546D01*
X4297545Y1486637D01*
X4302165Y1484724D01*
Y1442440D01*
X4317834D01*
Y1479999D01*
Y1517558D01*
X4307619D01*
Y1532440D01*
X4317835D01*
Y1569999D01*
X4332835D01*
Y1584999D01*
X4363504D01*
Y1607558D01*
X4319922D01*
X4318008Y1612178D01*
X4323239Y1617409D01*
X4357670D01*
Y1633687D01*
X4380000D01*
X4386243Y1634928D01*
X4391535Y1638465D01*
X4411535Y1658465D01*
X4415072Y1663757D01*
X4416314Y1670000D01*
Y1723315D01*
X4470976D01*
Y1835740D01*
X4329024D01*
Y1723315D01*
X4383686D01*
Y1676757D01*
X4373243Y1666313D01*
X4357670D01*
Y1682590D01*
X4302331D01*
Y1638316D01*
X4289455Y1625440D01*
X4284835Y1627353D01*
Y1682590D01*
X4229497D01*
Y1662235D01*
X4180504D01*
Y1682591D01*
X4125165D01*
Y1617409D01*
X4180504D01*
Y1637765D01*
X4229497D01*
Y1617409D01*
X4276186D01*
X4278946Y1612409D01*
X4278311Y1609218D01*
X4273651Y1604558D01*
X4232331D01*
Y1584784D01*
X1811667D01*
X1810672Y1589784D01*
X1816138Y1592048D01*
X1822823Y1597177D01*
X1827952Y1603862D01*
X1831176Y1611646D01*
X1832276Y1620000D01*
X1831176Y1628354D01*
X1827952Y1636138D01*
X1822823Y1642823D01*
X1816138Y1647952D01*
X1808354Y1651176D01*
X1800000Y1652276D01*
X1791646Y1651176D01*
X1787743Y1649560D01*
X1670817Y1766486D01*
Y1836436D01*
X1677242Y1839098D01*
X1684971Y1845029D01*
X1690902Y1852758D01*
X1694630Y1861758D01*
X1695902Y1871417D01*
X1694630Y1881076D01*
X1690902Y1890077D01*
X1684971Y1897806D01*
X1677242Y1903737D01*
X1670818Y1906398D01*
Y2136437D01*
X1677242Y2139098D01*
X1684971Y2145029D01*
X1690902Y2152758D01*
X1694630Y2161758D01*
X1695902Y2171417D01*
X1694630Y2181076D01*
X1690902Y2190077D01*
X1684971Y2197806D01*
X1677242Y2203737D01*
X1668242Y2207465D01*
X1658583Y2208737D01*
X1648924Y2207465D01*
X1639923Y2203737D01*
X1632194Y2197806D01*
X1626263Y2190077D01*
X1622535Y2181076D01*
X1621263Y2171417D01*
X1622535Y2161758D01*
X1626263Y2152758D01*
X1632194Y2145029D01*
X1639923Y2139098D01*
X1646348Y2136437D01*
Y1906398D01*
X1639923Y1903737D01*
X1632194Y1897806D01*
X1626263Y1890077D01*
X1622535Y1881076D01*
X1621263Y1871417D01*
X1622535Y1861758D01*
X1626263Y1852758D01*
X1632194Y1845029D01*
X1639923Y1839098D01*
X1646347Y1836437D01*
Y1761418D01*
X1647278Y1756736D01*
X1649930Y1752766D01*
X1770440Y1632257D01*
X1768824Y1628354D01*
X1767724Y1620000D01*
X1768824Y1611646D01*
X1772048Y1603862D01*
X1777177Y1597177D01*
X1783862Y1592048D01*
X1789328Y1589784D01*
X1788333Y1584784D01*
X1766124D01*
X1493025Y1857883D01*
X1494630Y1861758D01*
X1495902Y1871417D01*
X1494630Y1881076D01*
X1490902Y1890077D01*
X1484971Y1897806D01*
X1477242Y1903737D01*
X1473366Y1905342D01*
Y2137492D01*
X1477242Y2139098D01*
X1484971Y2145029D01*
X1490902Y2152758D01*
X1494630Y2161758D01*
X1495902Y2171417D01*
X1494630Y2181076D01*
X1490902Y2190077D01*
X1484971Y2197806D01*
X1477242Y2203737D01*
X1468242Y2207465D01*
X1458583Y2208737D01*
X1448924Y2207465D01*
X1439923Y2203737D01*
X1432194Y2197806D01*
X1426263Y2190077D01*
X1422535Y2181076D01*
X1421263Y2171417D01*
X1422535Y2161758D01*
X1426263Y2152758D01*
X1432194Y2145029D01*
X1439923Y2139098D01*
X1443798Y2137493D01*
Y1943643D01*
X1439178Y1941729D01*
X1024442Y2356465D01*
X1026048Y2360341D01*
X1027319Y2370000D01*
X1026048Y2379659D01*
X1022319Y2388660D01*
X1016389Y2396389D01*
X1008660Y2402320D01*
X999659Y2406048D01*
X990000Y2407319D01*
D02*
G37*
G36*
X3908992Y2378000D02*
X3851000D01*
Y2351504D01*
X3908992D01*
Y2378000D01*
D02*
G37*
G36*
X3821000D02*
X3763008D01*
Y2351504D01*
X3821000D01*
Y2378000D01*
D02*
G37*
G36*
X4570779Y2371000D02*
X4512787D01*
Y2344504D01*
X4570779D01*
Y2371000D01*
D02*
G37*
G36*
X4482787D02*
X4424795D01*
Y2344504D01*
X4482787D01*
Y2371000D01*
D02*
G37*
G36*
X850000Y2307319D02*
X840341Y2306048D01*
X831340Y2302320D01*
X823611Y2296389D01*
X817681Y2288660D01*
X813952Y2279659D01*
X812681Y2270000D01*
X813952Y2260341D01*
X817681Y2251340D01*
X823611Y2243611D01*
X831340Y2237680D01*
X840341Y2233952D01*
X850000Y2232681D01*
X859659Y2233952D01*
X868660Y2237680D01*
X876389Y2243611D01*
X882319Y2251340D01*
X886048Y2260341D01*
X887319Y2270000D01*
X886048Y2279659D01*
X882319Y2288660D01*
X876389Y2296389D01*
X868660Y2302320D01*
X859659Y2306048D01*
X850000Y2307319D01*
D02*
G37*
G36*
X710000D02*
X700341Y2306048D01*
X691340Y2302320D01*
X683611Y2296389D01*
X677681Y2288660D01*
X673952Y2279659D01*
X672681Y2270000D01*
X673952Y2260341D01*
X677681Y2251340D01*
X683611Y2243611D01*
X691340Y2237680D01*
X700341Y2233952D01*
X710000Y2232681D01*
X719659Y2233952D01*
X728660Y2237680D01*
X736389Y2243611D01*
X742319Y2251340D01*
X746048Y2260341D01*
X747319Y2270000D01*
X746048Y2279659D01*
X742319Y2288660D01*
X736389Y2296389D01*
X728660Y2302320D01*
X719659Y2306048D01*
X710000Y2307319D01*
D02*
G37*
G36*
X570000D02*
X560341Y2306048D01*
X551340Y2302320D01*
X543611Y2296389D01*
X537681Y2288660D01*
X533952Y2279659D01*
X532681Y2270000D01*
X533952Y2260341D01*
X537681Y2251340D01*
X543611Y2243611D01*
X551340Y2237680D01*
X560341Y2233952D01*
X570000Y2232681D01*
X579659Y2233952D01*
X588660Y2237680D01*
X596389Y2243611D01*
X602319Y2251340D01*
X606048Y2260341D01*
X607319Y2270000D01*
X606048Y2279659D01*
X602319Y2288660D01*
X596389Y2296389D01*
X588660Y2302320D01*
X579659Y2306048D01*
X570000Y2307319D01*
D02*
G37*
G36*
X430000D02*
X420341Y2306048D01*
X411340Y2302320D01*
X403611Y2296389D01*
X397680Y2288660D01*
X393952Y2279659D01*
X392681Y2270000D01*
X393952Y2260341D01*
X397680Y2251340D01*
X403611Y2243611D01*
X411340Y2237680D01*
X420341Y2233952D01*
X430000Y2232681D01*
X439659Y2233952D01*
X448660Y2237680D01*
X456389Y2243611D01*
X462320Y2251340D01*
X466048Y2260341D01*
X467319Y2270000D01*
X466048Y2279659D01*
X462320Y2288660D01*
X456389Y2296389D01*
X448660Y2302320D01*
X439659Y2306048D01*
X430000Y2307319D01*
D02*
G37*
G36*
X290000D02*
X280341Y2306048D01*
X271340Y2302320D01*
X263611Y2296389D01*
X257680Y2288660D01*
X253952Y2279659D01*
X252681Y2270000D01*
X253952Y2260341D01*
X257680Y2251340D01*
X263611Y2243611D01*
X271340Y2237680D01*
X280341Y2233952D01*
X290000Y2232681D01*
X299659Y2233952D01*
X308660Y2237680D01*
X316389Y2243611D01*
X322320Y2251340D01*
X326048Y2260341D01*
X327319Y2270000D01*
X326048Y2279659D01*
X322320Y2288660D01*
X316389Y2296389D01*
X308660Y2302320D01*
X299659Y2306048D01*
X290000Y2307319D01*
D02*
G37*
G36*
X4263504Y2247560D02*
X4247835D01*
Y2225001D01*
X4263504D01*
Y2247560D01*
D02*
G37*
G36*
X4217835D02*
X4202165D01*
Y2225001D01*
X4217835D01*
Y2247560D01*
D02*
G37*
G36*
X2873583Y2208500D02*
Y2186417D01*
X2895665D01*
X2893523Y2191590D01*
X2887111Y2199946D01*
X2878755Y2206357D01*
X2873583Y2208500D01*
D02*
G37*
G36*
X2843583D02*
X2838410Y2206357D01*
X2830054Y2199946D01*
X2823643Y2191590D01*
X2821500Y2186417D01*
X2843583D01*
Y2208500D01*
D02*
G37*
G36*
X1573583D02*
Y2186417D01*
X1595665D01*
X1593523Y2191590D01*
X1587111Y2199946D01*
X1578755Y2206357D01*
X1573583Y2208500D01*
D02*
G37*
G36*
X1543583D02*
X1538410Y2206357D01*
X1530054Y2199946D01*
X1523643Y2191590D01*
X1521500Y2186417D01*
X1543583D01*
Y2208500D01*
D02*
G37*
G36*
X4263504Y2195001D02*
X4247835D01*
Y2172442D01*
X4263504D01*
Y2195001D01*
D02*
G37*
G36*
X4217835D02*
X4202165D01*
Y2172442D01*
X4217835D01*
Y2195001D01*
D02*
G37*
G36*
X990000Y2207319D02*
X980341Y2206048D01*
X971340Y2202320D01*
X963611Y2196389D01*
X957681Y2188660D01*
X953952Y2179659D01*
X952681Y2170000D01*
X953952Y2160341D01*
X957681Y2151340D01*
X963611Y2143611D01*
X971340Y2137680D01*
X980341Y2133952D01*
X990000Y2132681D01*
X999659Y2133952D01*
X1008660Y2137680D01*
X1016389Y2143611D01*
X1022319Y2151340D01*
X1026048Y2160341D01*
X1027319Y2170000D01*
X1026048Y2179659D01*
X1022319Y2188660D01*
X1016389Y2196389D01*
X1008660Y2202320D01*
X999659Y2206048D01*
X990000Y2207319D01*
D02*
G37*
G36*
X850000D02*
X840341Y2206048D01*
X831340Y2202320D01*
X823611Y2196389D01*
X817681Y2188660D01*
X813952Y2179659D01*
X812681Y2170000D01*
X813952Y2160341D01*
X817681Y2151340D01*
X823611Y2143611D01*
X831340Y2137680D01*
X840341Y2133952D01*
X850000Y2132681D01*
X859659Y2133952D01*
X868660Y2137680D01*
X876389Y2143611D01*
X882319Y2151340D01*
X886048Y2160341D01*
X887319Y2170000D01*
X886048Y2179659D01*
X882319Y2188660D01*
X876389Y2196389D01*
X868660Y2202320D01*
X859659Y2206048D01*
X850000Y2207319D01*
D02*
G37*
G36*
X710000D02*
X700341Y2206048D01*
X691340Y2202320D01*
X683611Y2196389D01*
X677681Y2188660D01*
X673952Y2179659D01*
X672681Y2170000D01*
X673952Y2160341D01*
X677681Y2151340D01*
X683611Y2143611D01*
X691340Y2137680D01*
X700341Y2133952D01*
X710000Y2132681D01*
X719659Y2133952D01*
X728660Y2137680D01*
X736389Y2143611D01*
X742319Y2151340D01*
X746048Y2160341D01*
X747319Y2170000D01*
X746048Y2179659D01*
X742319Y2188660D01*
X736389Y2196389D01*
X728660Y2202320D01*
X719659Y2206048D01*
X710000Y2207319D01*
D02*
G37*
G36*
X570000D02*
X560341Y2206048D01*
X551340Y2202320D01*
X543611Y2196389D01*
X537681Y2188660D01*
X533952Y2179659D01*
X532681Y2170000D01*
X533952Y2160341D01*
X537681Y2151340D01*
X543611Y2143611D01*
X551340Y2137680D01*
X560341Y2133952D01*
X570000Y2132681D01*
X579659Y2133952D01*
X588660Y2137680D01*
X596389Y2143611D01*
X602319Y2151340D01*
X606048Y2160341D01*
X607319Y2170000D01*
X606048Y2179659D01*
X602319Y2188660D01*
X596389Y2196389D01*
X588660Y2202320D01*
X579659Y2206048D01*
X570000Y2207319D01*
D02*
G37*
G36*
X430000D02*
X420341Y2206048D01*
X411340Y2202320D01*
X403611Y2196389D01*
X397680Y2188660D01*
X393952Y2179659D01*
X392681Y2170000D01*
X393952Y2160341D01*
X397680Y2151340D01*
X403611Y2143611D01*
X411340Y2137680D01*
X420341Y2133952D01*
X430000Y2132681D01*
X439659Y2133952D01*
X448660Y2137680D01*
X456389Y2143611D01*
X462320Y2151340D01*
X466048Y2160341D01*
X467319Y2170000D01*
X466048Y2179659D01*
X462320Y2188660D01*
X456389Y2196389D01*
X448660Y2202320D01*
X439659Y2206048D01*
X430000Y2207319D01*
D02*
G37*
G36*
X290000D02*
X280341Y2206048D01*
X271340Y2202320D01*
X263611Y2196389D01*
X257680Y2188660D01*
X253952Y2179659D01*
X252681Y2170000D01*
X253952Y2160341D01*
X257680Y2151340D01*
X263611Y2143611D01*
X271340Y2137680D01*
X280341Y2133952D01*
X290000Y2132681D01*
X299659Y2133952D01*
X308660Y2137680D01*
X316389Y2143611D01*
X322320Y2151340D01*
X326048Y2160341D01*
X327319Y2170000D01*
X326048Y2179659D01*
X322320Y2188660D01*
X316389Y2196389D01*
X308660Y2202320D01*
X299659Y2206048D01*
X290000Y2207319D01*
D02*
G37*
G36*
X1030000Y2110000D02*
X1005000D01*
Y2085000D01*
X1030000D01*
Y2110000D01*
D02*
G37*
G36*
X890000D02*
X865000D01*
Y2085000D01*
X890000D01*
Y2110000D01*
D02*
G37*
G36*
X750000D02*
X725000D01*
Y2085000D01*
X750000D01*
Y2110000D01*
D02*
G37*
G36*
X610000D02*
X585000D01*
Y2085000D01*
X610000D01*
Y2110000D01*
D02*
G37*
G36*
X470000D02*
X445000D01*
Y2085000D01*
X470000D01*
Y2110000D01*
D02*
G37*
G36*
X330000D02*
X305000D01*
Y2085000D01*
X330000D01*
Y2110000D01*
D02*
G37*
G36*
X975000D02*
X950000D01*
Y2085000D01*
X975000D01*
Y2110000D01*
D02*
G37*
G36*
X835000D02*
X810000D01*
Y2085000D01*
X835000D01*
Y2110000D01*
D02*
G37*
G36*
X695000D02*
X670000D01*
Y2085000D01*
X695000D01*
Y2110000D01*
D02*
G37*
G36*
X555000D02*
X530000D01*
Y2085000D01*
X555000D01*
Y2110000D01*
D02*
G37*
G36*
X415000D02*
X390000D01*
Y2085000D01*
X415000D01*
Y2110000D01*
D02*
G37*
G36*
X275000D02*
X250000D01*
Y2085000D01*
X275000D01*
Y2110000D01*
D02*
G37*
G36*
X1030000Y2055000D02*
X1005000D01*
Y2030000D01*
X1030000D01*
Y2055000D01*
D02*
G37*
G36*
X975000D02*
X950000D01*
Y2030000D01*
X975000D01*
Y2055000D01*
D02*
G37*
G36*
X890000D02*
X865000D01*
Y2030000D01*
X890000D01*
Y2055000D01*
D02*
G37*
G36*
X835000D02*
X810000D01*
Y2030000D01*
X835000D01*
Y2055000D01*
D02*
G37*
G36*
X750000D02*
X725000D01*
Y2030000D01*
X750000D01*
Y2055000D01*
D02*
G37*
G36*
X695000D02*
X670000D01*
Y2030000D01*
X695000D01*
Y2055000D01*
D02*
G37*
G36*
X610000D02*
X585000D01*
Y2030000D01*
X610000D01*
Y2055000D01*
D02*
G37*
G36*
X555000D02*
X530000D01*
Y2030000D01*
X555000D01*
Y2055000D01*
D02*
G37*
G36*
X470000D02*
X445000D01*
Y2030000D01*
X470000D01*
Y2055000D01*
D02*
G37*
G36*
X415000D02*
X390000D01*
Y2030000D01*
X415000D01*
Y2055000D01*
D02*
G37*
G36*
X330000D02*
X305000D01*
Y2030000D01*
X330000D01*
Y2055000D01*
D02*
G37*
G36*
X275000D02*
X250000D01*
Y2030000D01*
X275000D01*
Y2055000D01*
D02*
G37*
G36*
X4170039Y1975316D02*
X4166181D01*
Y1951773D01*
X4170039D01*
Y1975316D01*
D02*
G37*
G36*
X1595665Y2156417D02*
X1521500D01*
X1523643Y2151245D01*
X1530054Y2142889D01*
X1538410Y2136477D01*
X1546347Y2133190D01*
Y1909645D01*
X1538410Y1906357D01*
X1530054Y1899946D01*
X1523643Y1891590D01*
X1521500Y1886417D01*
X1558583D01*
X1595665D01*
X1593523Y1891590D01*
X1587111Y1899946D01*
X1578755Y1906357D01*
X1570817Y1909645D01*
Y2133189D01*
X1578755Y2136477D01*
X1587111Y2142889D01*
X1593523Y2151245D01*
X1595665Y2156417D01*
D02*
G37*
G36*
X2895665D02*
X2821500D01*
X2823643Y2151245D01*
X2830054Y2142889D01*
X2838410Y2136477D01*
X2846347Y2133190D01*
Y1909645D01*
X2838410Y1906357D01*
X2830054Y1899946D01*
X2823643Y1891590D01*
X2821500Y1886417D01*
X2858583D01*
Y1871417D01*
D01*
Y1886417D01*
X2895665D01*
X2893523Y1891590D01*
X2887111Y1899946D01*
X2878755Y1906357D01*
X2870817Y1909645D01*
Y2133189D01*
X2878755Y2136477D01*
X2887111Y2142889D01*
X2893523Y2151245D01*
X2895665Y2156417D01*
D02*
G37*
G36*
X2895665Y1856417D02*
X2873583D01*
Y1834335D01*
X2878755Y1836477D01*
X2887111Y1842889D01*
X2893523Y1851245D01*
X2895665Y1856417D01*
D02*
G37*
G36*
X1595665D02*
X1573583D01*
Y1834335D01*
X1578755Y1836477D01*
X1587111Y1842889D01*
X1593523Y1851245D01*
X1595665Y1856417D01*
D02*
G37*
G36*
X1543583D02*
X1521500D01*
X1523643Y1851245D01*
X1530054Y1842889D01*
X1538410Y1836477D01*
X1543583Y1834335D01*
Y1856417D01*
D02*
G37*
G36*
X2843583D02*
X2821500D01*
X2823643Y1851245D01*
X2830054Y1842889D01*
X2838410Y1836477D01*
X2843583Y1834335D01*
Y1856417D01*
D02*
G37*
G36*
X3795583Y2208417D02*
X3721583D01*
Y2134417D01*
X3746347D01*
Y1906398D01*
X3739923Y1903737D01*
X3732194Y1897806D01*
X3726263Y1890077D01*
X3722535Y1881076D01*
X3721263Y1871417D01*
X3722535Y1861758D01*
X3726263Y1852758D01*
X3732194Y1845029D01*
X3739923Y1839098D01*
X3748924Y1835370D01*
X3758583Y1834098D01*
X3768242Y1835370D01*
X3777242Y1839098D01*
X3784971Y1845029D01*
X3790902Y1852758D01*
X3794630Y1861758D01*
X3795902Y1871417D01*
X3794630Y1881076D01*
X3790902Y1890077D01*
X3784971Y1897806D01*
X3777242Y1903737D01*
X3770817Y1906398D01*
Y2134417D01*
X3795583D01*
Y2208417D01*
D02*
G37*
G36*
X3658583Y2208737D02*
X3648924Y2207465D01*
X3639923Y2203737D01*
X3632194Y2197806D01*
X3626263Y2190077D01*
X3622535Y2181076D01*
X3621263Y2171417D01*
X3622535Y2161758D01*
X3626263Y2152758D01*
X3632194Y2145029D01*
X3639923Y2139098D01*
X3646347Y2136437D01*
Y1906398D01*
X3639923Y1903737D01*
X3632194Y1897806D01*
X3626263Y1890077D01*
X3622535Y1881076D01*
X3621263Y1871417D01*
X3622535Y1861758D01*
X3626263Y1852758D01*
X3632194Y1845029D01*
X3639923Y1839098D01*
X3648924Y1835370D01*
X3658583Y1834098D01*
X3668242Y1835370D01*
X3677242Y1839098D01*
X3684971Y1845029D01*
X3690902Y1852758D01*
X3694630Y1861758D01*
X3695902Y1871417D01*
X3694630Y1881076D01*
X3690902Y1890077D01*
X3684971Y1897806D01*
X3677242Y1903737D01*
X3670817Y1906398D01*
Y2136436D01*
X3677242Y2139098D01*
X3684971Y2145029D01*
X3690902Y2152758D01*
X3694630Y2161758D01*
X3695902Y2171417D01*
X3694630Y2181076D01*
X3690902Y2190077D01*
X3684971Y2197806D01*
X3677242Y2203737D01*
X3668242Y2207465D01*
X3658583Y2208737D01*
D02*
G37*
G36*
X3558583D02*
X3548924Y2207465D01*
X3539923Y2203737D01*
X3532194Y2197806D01*
X3526263Y2190077D01*
X3522535Y2181076D01*
X3521263Y2171417D01*
X3522535Y2161758D01*
X3526263Y2152758D01*
X3532194Y2145029D01*
X3539923Y2139098D01*
X3546347Y2136437D01*
Y1906398D01*
X3539923Y1903737D01*
X3532194Y1897806D01*
X3526263Y1890077D01*
X3522535Y1881076D01*
X3521263Y1871417D01*
X3522535Y1861758D01*
X3526263Y1852758D01*
X3532194Y1845029D01*
X3539923Y1839098D01*
X3548924Y1835370D01*
X3558583Y1834098D01*
X3568242Y1835370D01*
X3577242Y1839098D01*
X3584971Y1845029D01*
X3590902Y1852758D01*
X3594630Y1861758D01*
X3595902Y1871417D01*
X3594630Y1881076D01*
X3590902Y1890077D01*
X3584971Y1897806D01*
X3577242Y1903737D01*
X3570817Y1906398D01*
Y2136436D01*
X3577242Y2139098D01*
X3584971Y2145029D01*
X3590902Y2152758D01*
X3594630Y2161758D01*
X3595902Y2171417D01*
X3594630Y2181076D01*
X3590902Y2190077D01*
X3584971Y2197806D01*
X3577242Y2203737D01*
X3568242Y2207465D01*
X3558583Y2208737D01*
D02*
G37*
G36*
X3458583D02*
X3448924Y2207465D01*
X3439923Y2203737D01*
X3432194Y2197806D01*
X3426263Y2190077D01*
X3422535Y2181076D01*
X3421263Y2171417D01*
X3422535Y2161758D01*
X3426263Y2152758D01*
X3432194Y2145029D01*
X3439923Y2139098D01*
X3446347Y2136437D01*
Y1906398D01*
X3439923Y1903737D01*
X3432194Y1897806D01*
X3426263Y1890077D01*
X3422535Y1881076D01*
X3421263Y1871417D01*
X3422535Y1861758D01*
X3426263Y1852758D01*
X3432194Y1845029D01*
X3439923Y1839098D01*
X3448924Y1835370D01*
X3458583Y1834098D01*
X3468242Y1835370D01*
X3477242Y1839098D01*
X3484971Y1845029D01*
X3490902Y1852758D01*
X3494630Y1861758D01*
X3495902Y1871417D01*
X3494630Y1881076D01*
X3490902Y1890077D01*
X3484971Y1897806D01*
X3477242Y1903737D01*
X3470817Y1906398D01*
Y2136436D01*
X3477242Y2139098D01*
X3484971Y2145029D01*
X3490902Y2152758D01*
X3494630Y2161758D01*
X3495902Y2171417D01*
X3494630Y2181076D01*
X3490902Y2190077D01*
X3484971Y2197806D01*
X3477242Y2203737D01*
X3468242Y2207465D01*
X3458583Y2208737D01*
D02*
G37*
G36*
X3358583D02*
X3348924Y2207465D01*
X3339923Y2203737D01*
X3332194Y2197806D01*
X3326263Y2190077D01*
X3322535Y2181076D01*
X3321263Y2171417D01*
X3322535Y2161758D01*
X3326263Y2152758D01*
X3332194Y2145029D01*
X3339923Y2139098D01*
X3346347Y2136437D01*
Y1906398D01*
X3339923Y1903737D01*
X3332194Y1897806D01*
X3326263Y1890077D01*
X3322535Y1881076D01*
X3321263Y1871417D01*
X3322535Y1861758D01*
X3326263Y1852758D01*
X3332194Y1845029D01*
X3339923Y1839098D01*
X3348924Y1835370D01*
X3358583Y1834098D01*
X3368242Y1835370D01*
X3377242Y1839098D01*
X3384971Y1845029D01*
X3390902Y1852758D01*
X3394630Y1861758D01*
X3395902Y1871417D01*
X3394630Y1881076D01*
X3390902Y1890077D01*
X3384971Y1897806D01*
X3377242Y1903737D01*
X3370817Y1906398D01*
Y2136436D01*
X3377242Y2139098D01*
X3384971Y2145029D01*
X3390902Y2152758D01*
X3394630Y2161758D01*
X3395902Y2171417D01*
X3394630Y2181076D01*
X3390902Y2190077D01*
X3384971Y2197806D01*
X3377242Y2203737D01*
X3368242Y2207465D01*
X3358583Y2208737D01*
D02*
G37*
G36*
X3258583D02*
X3248924Y2207465D01*
X3239923Y2203737D01*
X3232194Y2197806D01*
X3226263Y2190077D01*
X3222535Y2181076D01*
X3221263Y2171417D01*
X3222535Y2161758D01*
X3226263Y2152758D01*
X3232194Y2145029D01*
X3239923Y2139098D01*
X3246347Y2136437D01*
Y1906398D01*
X3239923Y1903737D01*
X3232194Y1897806D01*
X3226263Y1890077D01*
X3222535Y1881076D01*
X3221263Y1871417D01*
X3222535Y1861758D01*
X3226263Y1852758D01*
X3232194Y1845029D01*
X3239923Y1839098D01*
X3248924Y1835370D01*
X3258583Y1834098D01*
X3268242Y1835370D01*
X3277242Y1839098D01*
X3284971Y1845029D01*
X3290902Y1852758D01*
X3294630Y1861758D01*
X3295902Y1871417D01*
X3294630Y1881076D01*
X3290902Y1890077D01*
X3284971Y1897806D01*
X3277242Y1903737D01*
X3270817Y1906398D01*
Y2136436D01*
X3277242Y2139098D01*
X3284971Y2145029D01*
X3290902Y2152758D01*
X3294630Y2161758D01*
X3295902Y2171417D01*
X3294630Y2181076D01*
X3290902Y2190077D01*
X3284971Y2197806D01*
X3277242Y2203737D01*
X3268242Y2207465D01*
X3258583Y2208737D01*
D02*
G37*
G36*
X3158583D02*
X3148924Y2207465D01*
X3139923Y2203737D01*
X3132194Y2197806D01*
X3126263Y2190077D01*
X3122535Y2181076D01*
X3121263Y2171417D01*
X3122535Y2161758D01*
X3126263Y2152758D01*
X3132194Y2145029D01*
X3139923Y2139098D01*
X3146347Y2136437D01*
Y1906398D01*
X3139923Y1903737D01*
X3132194Y1897806D01*
X3126263Y1890077D01*
X3122535Y1881076D01*
X3121263Y1871417D01*
X3122535Y1861758D01*
X3126263Y1852758D01*
X3132194Y1845029D01*
X3139923Y1839098D01*
X3148924Y1835370D01*
X3158583Y1834098D01*
X3168242Y1835370D01*
X3177242Y1839098D01*
X3184971Y1845029D01*
X3190902Y1852758D01*
X3194630Y1861758D01*
X3195902Y1871417D01*
X3194630Y1881076D01*
X3190902Y1890077D01*
X3184971Y1897806D01*
X3177242Y1903737D01*
X3170817Y1906398D01*
Y2136436D01*
X3177242Y2139098D01*
X3184971Y2145029D01*
X3190902Y2152758D01*
X3194630Y2161758D01*
X3195902Y2171417D01*
X3194630Y2181076D01*
X3190902Y2190077D01*
X3184971Y2197806D01*
X3177242Y2203737D01*
X3168242Y2207465D01*
X3158583Y2208737D01*
D02*
G37*
G36*
X3058583D02*
X3048924Y2207465D01*
X3039923Y2203737D01*
X3032194Y2197806D01*
X3026263Y2190077D01*
X3022535Y2181076D01*
X3021263Y2171417D01*
X3022535Y2161758D01*
X3026263Y2152758D01*
X3032194Y2145029D01*
X3039923Y2139098D01*
X3046347Y2136437D01*
Y1906398D01*
X3039923Y1903737D01*
X3032194Y1897806D01*
X3026263Y1890077D01*
X3022535Y1881076D01*
X3021263Y1871417D01*
X3022535Y1861758D01*
X3026263Y1852758D01*
X3032194Y1845029D01*
X3039923Y1839098D01*
X3048924Y1835370D01*
X3058583Y1834098D01*
X3068242Y1835370D01*
X3077242Y1839098D01*
X3084971Y1845029D01*
X3090902Y1852758D01*
X3094630Y1861758D01*
X3095902Y1871417D01*
X3094630Y1881076D01*
X3090902Y1890077D01*
X3084971Y1897806D01*
X3077242Y1903737D01*
X3070817Y1906398D01*
Y2136436D01*
X3077242Y2139098D01*
X3084971Y2145029D01*
X3090902Y2152758D01*
X3094630Y2161758D01*
X3095902Y2171417D01*
X3094630Y2181076D01*
X3090902Y2190077D01*
X3084971Y2197806D01*
X3077242Y2203737D01*
X3068242Y2207465D01*
X3058583Y2208737D01*
D02*
G37*
G36*
X2958583D02*
X2948924Y2207465D01*
X2939923Y2203737D01*
X2932194Y2197806D01*
X2926263Y2190077D01*
X2922535Y2181076D01*
X2921263Y2171417D01*
X2922535Y2161758D01*
X2926263Y2152758D01*
X2932194Y2145029D01*
X2939923Y2139098D01*
X2946347Y2136437D01*
Y1906398D01*
X2939923Y1903737D01*
X2932194Y1897806D01*
X2926263Y1890077D01*
X2922535Y1881076D01*
X2921263Y1871417D01*
X2922535Y1861758D01*
X2926263Y1852758D01*
X2932194Y1845029D01*
X2939923Y1839098D01*
X2948924Y1835370D01*
X2958583Y1834098D01*
X2968242Y1835370D01*
X2977242Y1839098D01*
X2984971Y1845029D01*
X2990902Y1852758D01*
X2994630Y1861758D01*
X2995902Y1871417D01*
X2994630Y1881076D01*
X2990902Y1890077D01*
X2984971Y1897806D01*
X2977242Y1903737D01*
X2970817Y1906398D01*
Y2136436D01*
X2977242Y2139098D01*
X2984971Y2145029D01*
X2990902Y2152758D01*
X2994630Y2161758D01*
X2995902Y2171417D01*
X2994630Y2181076D01*
X2990902Y2190077D01*
X2984971Y2197806D01*
X2977242Y2203737D01*
X2968242Y2207465D01*
X2958583Y2208737D01*
D02*
G37*
G36*
X2758583D02*
X2748924Y2207465D01*
X2739923Y2203737D01*
X2732194Y2197806D01*
X2726263Y2190077D01*
X2722535Y2181076D01*
X2721263Y2171417D01*
X2722535Y2161758D01*
X2726263Y2152758D01*
X2732194Y2145029D01*
X2739923Y2139098D01*
X2746347Y2136437D01*
Y1906398D01*
X2739923Y1903737D01*
X2732194Y1897806D01*
X2726263Y1890077D01*
X2722535Y1881076D01*
X2721263Y1871417D01*
X2722535Y1861758D01*
X2726263Y1852758D01*
X2732194Y1845029D01*
X2739923Y1839098D01*
X2748924Y1835370D01*
X2758583Y1834098D01*
X2768242Y1835370D01*
X2777242Y1839098D01*
X2784971Y1845029D01*
X2790902Y1852758D01*
X2794630Y1861758D01*
X2795902Y1871417D01*
X2794630Y1881076D01*
X2790902Y1890077D01*
X2784971Y1897806D01*
X2777242Y1903737D01*
X2770817Y1906398D01*
Y2136436D01*
X2777242Y2139098D01*
X2784971Y2145029D01*
X2790902Y2152758D01*
X2794630Y2161758D01*
X2795902Y2171417D01*
X2794630Y2181076D01*
X2790902Y2190077D01*
X2784971Y2197806D01*
X2777242Y2203737D01*
X2768242Y2207465D01*
X2758583Y2208737D01*
D02*
G37*
G36*
X2458583Y1908737D02*
X2448924Y1907465D01*
X2439923Y1903737D01*
X2432194Y1897806D01*
X2426263Y1890077D01*
X2422535Y1881076D01*
X2421263Y1871417D01*
X2422535Y1861758D01*
X2426263Y1852758D01*
X2432194Y1845029D01*
X2439923Y1839098D01*
X2448924Y1835370D01*
X2458583Y1834098D01*
X2468242Y1835370D01*
X2477242Y1839098D01*
X2484971Y1845029D01*
X2490902Y1852758D01*
X2494630Y1861758D01*
X2495902Y1871417D01*
X2494630Y1881076D01*
X2490902Y1890077D01*
X2484971Y1897806D01*
X2477242Y1903737D01*
X2468242Y1907465D01*
X2458583Y1908737D01*
D02*
G37*
G36*
X2358583Y2208737D02*
X2348924Y2207465D01*
X2339923Y2203737D01*
X2332194Y2197806D01*
X2326263Y2190077D01*
X2322535Y2181076D01*
X2321263Y2171417D01*
X2322535Y2161758D01*
X2326263Y2152758D01*
X2332194Y2145029D01*
X2339923Y2139098D01*
X2346347Y2136437D01*
Y1906398D01*
X2339923Y1903737D01*
X2332194Y1897806D01*
X2326263Y1890077D01*
X2322535Y1881076D01*
X2321263Y1871417D01*
X2322535Y1861758D01*
X2326263Y1852758D01*
X2332194Y1845029D01*
X2339923Y1839098D01*
X2348924Y1835370D01*
X2358583Y1834098D01*
X2368242Y1835370D01*
X2377242Y1839098D01*
X2384971Y1845029D01*
X2390902Y1852758D01*
X2394630Y1861758D01*
X2395902Y1871417D01*
X2394630Y1881076D01*
X2390902Y1890077D01*
X2384971Y1897806D01*
X2377242Y1903737D01*
X2370817Y1906398D01*
Y2136436D01*
X2377242Y2139098D01*
X2384971Y2145029D01*
X2390902Y2152758D01*
X2394630Y2161758D01*
X2395902Y2171417D01*
X2394630Y2181076D01*
X2390902Y2190077D01*
X2384971Y2197806D01*
X2377242Y2203737D01*
X2368242Y2207465D01*
X2358583Y2208737D01*
D02*
G37*
G36*
X2258583D02*
X2248924Y2207465D01*
X2239923Y2203737D01*
X2232194Y2197806D01*
X2226263Y2190077D01*
X2222535Y2181076D01*
X2221263Y2171417D01*
X2222535Y2161758D01*
X2226263Y2152758D01*
X2232194Y2145029D01*
X2239923Y2139098D01*
X2246347Y2136437D01*
Y1906398D01*
X2239923Y1903737D01*
X2232194Y1897806D01*
X2226263Y1890077D01*
X2222535Y1881076D01*
X2221263Y1871417D01*
X2222535Y1861758D01*
X2226263Y1852758D01*
X2232194Y1845029D01*
X2239923Y1839098D01*
X2248924Y1835370D01*
X2258583Y1834098D01*
X2268242Y1835370D01*
X2277242Y1839098D01*
X2284971Y1845029D01*
X2290902Y1852758D01*
X2294630Y1861758D01*
X2295902Y1871417D01*
X2294630Y1881076D01*
X2290902Y1890077D01*
X2284971Y1897806D01*
X2277242Y1903737D01*
X2270817Y1906398D01*
Y2136436D01*
X2277242Y2139098D01*
X2284971Y2145029D01*
X2290902Y2152758D01*
X2294630Y2161758D01*
X2295902Y2171417D01*
X2294630Y2181076D01*
X2290902Y2190077D01*
X2284971Y2197806D01*
X2277242Y2203737D01*
X2268242Y2207465D01*
X2258583Y2208737D01*
D02*
G37*
G36*
X2158583D02*
X2148924Y2207465D01*
X2139923Y2203737D01*
X2132194Y2197806D01*
X2126263Y2190077D01*
X2122535Y2181076D01*
X2121263Y2171417D01*
X2122535Y2161758D01*
X2126263Y2152758D01*
X2132194Y2145029D01*
X2139923Y2139098D01*
X2146347Y2136437D01*
Y1906398D01*
X2139923Y1903737D01*
X2132194Y1897806D01*
X2126263Y1890077D01*
X2122535Y1881076D01*
X2121263Y1871417D01*
X2122535Y1861758D01*
X2126263Y1852758D01*
X2132194Y1845029D01*
X2139923Y1839098D01*
X2148924Y1835370D01*
X2158583Y1834098D01*
X2168242Y1835370D01*
X2177242Y1839098D01*
X2184971Y1845029D01*
X2190902Y1852758D01*
X2194630Y1861758D01*
X2195902Y1871417D01*
X2194630Y1881076D01*
X2190902Y1890077D01*
X2184971Y1897806D01*
X2177242Y1903737D01*
X2170817Y1906398D01*
Y2136436D01*
X2177242Y2139098D01*
X2184971Y2145029D01*
X2190902Y2152758D01*
X2194630Y2161758D01*
X2195902Y2171417D01*
X2194630Y2181076D01*
X2190902Y2190077D01*
X2184971Y2197806D01*
X2177242Y2203737D01*
X2168242Y2207465D01*
X2158583Y2208737D01*
D02*
G37*
G36*
X2058583D02*
X2048924Y2207465D01*
X2039923Y2203737D01*
X2032194Y2197806D01*
X2026263Y2190077D01*
X2022535Y2181076D01*
X2021263Y2171417D01*
X2022535Y2161758D01*
X2026263Y2152758D01*
X2032194Y2145029D01*
X2039923Y2139098D01*
X2046347Y2136437D01*
Y1906398D01*
X2039923Y1903737D01*
X2032194Y1897806D01*
X2026263Y1890077D01*
X2022535Y1881076D01*
X2021263Y1871417D01*
X2022535Y1861758D01*
X2026263Y1852758D01*
X2032194Y1845029D01*
X2039923Y1839098D01*
X2048924Y1835370D01*
X2058583Y1834098D01*
X2068242Y1835370D01*
X2077242Y1839098D01*
X2084971Y1845029D01*
X2090902Y1852758D01*
X2094630Y1861758D01*
X2095902Y1871417D01*
X2094630Y1881076D01*
X2090902Y1890077D01*
X2084971Y1897806D01*
X2077242Y1903737D01*
X2070817Y1906398D01*
Y2136436D01*
X2077242Y2139098D01*
X2084971Y2145029D01*
X2090902Y2152758D01*
X2094630Y2161758D01*
X2095902Y2171417D01*
X2094630Y2181076D01*
X2090902Y2190077D01*
X2084971Y2197806D01*
X2077242Y2203737D01*
X2068242Y2207465D01*
X2058583Y2208737D01*
D02*
G37*
G36*
X1958583D02*
X1948924Y2207465D01*
X1939923Y2203737D01*
X1932194Y2197806D01*
X1926263Y2190077D01*
X1922535Y2181076D01*
X1921263Y2171417D01*
X1922535Y2161758D01*
X1926263Y2152758D01*
X1932194Y2145029D01*
X1939923Y2139098D01*
X1946347Y2136437D01*
Y1906398D01*
X1939923Y1903737D01*
X1932194Y1897806D01*
X1926263Y1890077D01*
X1922535Y1881076D01*
X1921263Y1871417D01*
X1922535Y1861758D01*
X1926263Y1852758D01*
X1932194Y1845029D01*
X1939923Y1839098D01*
X1948924Y1835370D01*
X1958583Y1834098D01*
X1968242Y1835370D01*
X1977242Y1839098D01*
X1984971Y1845029D01*
X1990902Y1852758D01*
X1994630Y1861758D01*
X1995902Y1871417D01*
X1994630Y1881076D01*
X1990902Y1890077D01*
X1984971Y1897806D01*
X1977242Y1903737D01*
X1970817Y1906398D01*
Y2136436D01*
X1977242Y2139098D01*
X1984971Y2145029D01*
X1990902Y2152758D01*
X1994630Y2161758D01*
X1995902Y2171417D01*
X1994630Y2181076D01*
X1990902Y2190077D01*
X1984971Y2197806D01*
X1977242Y2203737D01*
X1968242Y2207465D01*
X1958583Y2208737D01*
D02*
G37*
G36*
X1858583D02*
X1848924Y2207465D01*
X1839923Y2203737D01*
X1832194Y2197806D01*
X1826263Y2190077D01*
X1822535Y2181076D01*
X1821263Y2171417D01*
X1822535Y2161758D01*
X1826263Y2152758D01*
X1832194Y2145029D01*
X1839923Y2139098D01*
X1846347Y2136437D01*
Y1906398D01*
X1839923Y1903737D01*
X1832194Y1897806D01*
X1826263Y1890077D01*
X1822535Y1881076D01*
X1821263Y1871417D01*
X1822535Y1861758D01*
X1826263Y1852758D01*
X1832194Y1845029D01*
X1839923Y1839098D01*
X1848924Y1835370D01*
X1858583Y1834098D01*
X1868242Y1835370D01*
X1877242Y1839098D01*
X1884971Y1845029D01*
X1890902Y1852758D01*
X1894630Y1861758D01*
X1895902Y1871417D01*
X1894630Y1881076D01*
X1890902Y1890077D01*
X1884971Y1897806D01*
X1877242Y1903737D01*
X1870817Y1906398D01*
Y2136436D01*
X1877242Y2139098D01*
X1884971Y2145029D01*
X1890902Y2152758D01*
X1894630Y2161758D01*
X1895902Y2171417D01*
X1894630Y2181076D01*
X1890902Y2190077D01*
X1884971Y2197806D01*
X1877242Y2203737D01*
X1868242Y2207465D01*
X1858583Y2208737D01*
D02*
G37*
G36*
X1758583D02*
X1748924Y2207465D01*
X1739923Y2203737D01*
X1732194Y2197806D01*
X1726263Y2190077D01*
X1722535Y2181076D01*
X1721263Y2171417D01*
X1722535Y2161758D01*
X1726263Y2152758D01*
X1732194Y2145029D01*
X1739923Y2139098D01*
X1746347Y2136437D01*
Y1906398D01*
X1739923Y1903737D01*
X1732194Y1897806D01*
X1726263Y1890077D01*
X1722535Y1881076D01*
X1721263Y1871417D01*
X1722535Y1861758D01*
X1726263Y1852758D01*
X1732194Y1845029D01*
X1739923Y1839098D01*
X1748924Y1835370D01*
X1758583Y1834098D01*
X1768242Y1835370D01*
X1777242Y1839098D01*
X1784971Y1845029D01*
X1790902Y1852758D01*
X1794630Y1861758D01*
X1795902Y1871417D01*
X1794630Y1881076D01*
X1790902Y1890077D01*
X1784971Y1897806D01*
X1777242Y1903737D01*
X1770817Y1906398D01*
Y2136436D01*
X1777242Y2139098D01*
X1784971Y2145029D01*
X1790902Y2152758D01*
X1794630Y2161758D01*
X1795902Y2171417D01*
X1794630Y2181076D01*
X1790902Y2190077D01*
X1784971Y2197806D01*
X1777242Y2203737D01*
X1768242Y2207465D01*
X1758583Y2208737D01*
D02*
G37*
G36*
X987559Y1753504D02*
X965000D01*
Y1737834D01*
X987559D01*
Y1753504D01*
D02*
G37*
G36*
X935000D02*
X912441D01*
Y1737834D01*
X935000D01*
Y1753504D01*
D02*
G37*
G36*
X987559Y1707834D02*
X965000D01*
Y1692165D01*
X987559D01*
Y1707834D01*
D02*
G37*
G36*
X935000D02*
X912441D01*
Y1692165D01*
X935000D01*
Y1707834D01*
D02*
G37*
G36*
X3900669Y1685591D02*
X3885000D01*
Y1665001D01*
X3900669D01*
Y1685591D01*
D02*
G37*
G36*
X3855000D02*
X3839330D01*
Y1665001D01*
X3855000D01*
Y1685591D01*
D02*
G37*
G36*
X3900669Y1635001D02*
X3885000D01*
Y1614410D01*
X3900669D01*
Y1635001D01*
D02*
G37*
G36*
X3855000D02*
X3839330D01*
Y1614410D01*
X3855000D01*
Y1635001D01*
D02*
G37*
G36*
X4363504Y1554999D02*
X4347835D01*
Y1532440D01*
X4363504D01*
Y1554999D01*
D02*
G37*
G36*
X1210000Y1526881D02*
Y1495945D01*
X1218242D01*
Y1509488D01*
X1216473Y1518382D01*
X1211435Y1525923D01*
X1210000Y1526881D01*
D02*
G37*
G36*
X1130000D02*
X1128565Y1525923D01*
X1123527Y1518382D01*
X1121758Y1509488D01*
Y1495945D01*
X1130000D01*
Y1526881D01*
D02*
G37*
G36*
X910000D02*
Y1495945D01*
X918242D01*
Y1509488D01*
X916473Y1518382D01*
X911434Y1525923D01*
X910000Y1526881D01*
D02*
G37*
G36*
X880000D02*
X878566Y1525923D01*
X873527Y1518382D01*
X871758Y1509488D01*
Y1495945D01*
X880000D01*
Y1526881D01*
D02*
G37*
G36*
X4363503Y1517558D02*
X4347834D01*
Y1494999D01*
X4363503D01*
Y1517558D01*
D02*
G37*
G36*
Y1464999D02*
X4347834D01*
Y1442440D01*
X4363503D01*
Y1464999D01*
D02*
G37*
G36*
X918242Y1465945D02*
X910000D01*
Y1435009D01*
X911434Y1435967D01*
X916473Y1443507D01*
X918242Y1452402D01*
Y1465945D01*
D02*
G37*
G36*
X880000D02*
X871758D01*
Y1452402D01*
X873527Y1443507D01*
X878566Y1435967D01*
X880000Y1435009D01*
Y1465945D01*
D02*
G37*
G36*
X1245000Y1529671D02*
X1237276Y1528135D01*
X1230728Y1523760D01*
X1226353Y1517212D01*
X1224817Y1509488D01*
Y1452402D01*
X1226353Y1444678D01*
X1230728Y1438130D01*
X1232068Y1437235D01*
X1230551Y1432235D01*
X1214164D01*
X1212282Y1437235D01*
X1216473Y1443507D01*
X1218242Y1452402D01*
Y1465945D01*
X1195000D01*
Y1480945D01*
X1180000D01*
Y1526881D01*
X1178565Y1525923D01*
X1173527Y1518382D01*
X1172549Y1513464D01*
X1167451D01*
X1166473Y1518382D01*
X1161435Y1525923D01*
X1160000Y1526881D01*
Y1480945D01*
X1145000D01*
Y1465945D01*
X1121758D01*
Y1452402D01*
X1123527Y1443507D01*
X1127718Y1437235D01*
X1125836Y1432235D01*
X1115068D01*
X1109263Y1438040D01*
X1109272Y1438130D01*
X1113647Y1444678D01*
X1115183Y1452402D01*
Y1509488D01*
X1113647Y1517212D01*
X1109272Y1523760D01*
X1102724Y1528135D01*
X1095000Y1529671D01*
X1087276Y1528135D01*
X1080728Y1523760D01*
X1076353Y1517212D01*
X1074817Y1509488D01*
Y1452402D01*
X1076353Y1444678D01*
X1080728Y1438130D01*
X1082765Y1436769D01*
Y1435000D01*
X1083696Y1430318D01*
X1086349Y1426349D01*
X1101349Y1411349D01*
X1105318Y1408696D01*
X1110000Y1407765D01*
X1350000D01*
X1354682Y1408696D01*
X1357465Y1410556D01*
X1361646Y1408824D01*
X1370000Y1407724D01*
X1378354Y1408824D01*
X1386138Y1412048D01*
X1392823Y1417177D01*
X1397952Y1423862D01*
X1401176Y1431646D01*
X1402276Y1440000D01*
X1401176Y1448354D01*
X1397952Y1456138D01*
X1392823Y1462823D01*
X1386138Y1467952D01*
X1378354Y1471176D01*
X1370000Y1472276D01*
X1361646Y1471176D01*
X1353862Y1467952D01*
X1347177Y1462823D01*
X1342048Y1456138D01*
X1338824Y1448354D01*
X1337724Y1440000D01*
X1338251Y1435994D01*
X1334955Y1432235D01*
X1259449D01*
X1257932Y1437235D01*
X1259272Y1438130D01*
X1263647Y1444678D01*
X1265183Y1452402D01*
Y1509488D01*
X1263647Y1517212D01*
X1259272Y1523760D01*
X1252724Y1528135D01*
X1245000Y1529671D01*
D02*
G37*
G36*
X984559Y1677669D02*
X915441D01*
Y1622331D01*
X937765D01*
Y1589569D01*
X933862Y1587952D01*
X927177Y1582823D01*
X922048Y1576138D01*
X918824Y1568354D01*
X917724Y1560000D01*
X918824Y1551646D01*
X922048Y1543862D01*
X927177Y1537177D01*
X933862Y1532048D01*
X935265Y1531467D01*
Y1526791D01*
X930728Y1523760D01*
X926353Y1517212D01*
X924817Y1509488D01*
Y1452402D01*
X926353Y1444678D01*
X930728Y1438130D01*
X937276Y1433755D01*
X945000Y1432218D01*
X952724Y1433755D01*
X959272Y1438130D01*
X963647Y1444678D01*
X965183Y1452402D01*
Y1509488D01*
X963647Y1517212D01*
X959735Y1523066D01*
Y1529396D01*
X966138Y1532048D01*
X972823Y1537177D01*
X977952Y1543862D01*
X981176Y1551646D01*
X982276Y1560000D01*
X981176Y1568354D01*
X977952Y1576138D01*
X972823Y1582823D01*
X966138Y1587952D01*
X962235Y1589569D01*
Y1622331D01*
X984559D01*
Y1677669D01*
D02*
G37*
G36*
X1045000Y1529671D02*
X1037276Y1528135D01*
X1030728Y1523760D01*
X1026353Y1517212D01*
X1024817Y1509488D01*
Y1452402D01*
X1026353Y1444678D01*
X1030728Y1438130D01*
X1032765Y1436769D01*
Y1425000D01*
X1033696Y1420318D01*
X1036349Y1416349D01*
X1070260Y1382437D01*
X1068939Y1378145D01*
X1068406Y1377437D01*
X1059866D01*
X1007235Y1430068D01*
Y1436769D01*
X1009272Y1438130D01*
X1013647Y1444678D01*
X1015183Y1452402D01*
Y1509488D01*
X1013647Y1517212D01*
X1009272Y1523760D01*
X1002724Y1528135D01*
X995000Y1529671D01*
X987276Y1528135D01*
X980728Y1523760D01*
X976353Y1517212D01*
X974817Y1509488D01*
Y1452402D01*
X976353Y1444678D01*
X980728Y1438130D01*
X982765Y1436769D01*
Y1425000D01*
X983696Y1420318D01*
X986348Y1416349D01*
X1046147Y1356550D01*
X1050116Y1353898D01*
X1054798Y1352967D01*
X1759730D01*
X1825196Y1287501D01*
X1822535Y1281076D01*
X1821263Y1271417D01*
X1822535Y1261758D01*
X1826263Y1252758D01*
X1832194Y1245029D01*
X1839923Y1239098D01*
X1848924Y1235370D01*
X1858583Y1234098D01*
X1868242Y1235370D01*
X1877242Y1239098D01*
X1884971Y1245029D01*
X1890902Y1252758D01*
X1894630Y1261758D01*
X1895902Y1271417D01*
X1894630Y1281076D01*
X1890902Y1290077D01*
X1884971Y1297806D01*
X1877242Y1303737D01*
X1868242Y1307465D01*
X1858583Y1308737D01*
X1848924Y1307465D01*
X1842499Y1304804D01*
X1774538Y1372765D01*
X1775859Y1377057D01*
X1776392Y1377765D01*
X1834932D01*
X1925196Y1287501D01*
X1922535Y1281076D01*
X1921263Y1271417D01*
X1922535Y1261758D01*
X1926263Y1252758D01*
X1932194Y1245029D01*
X1939923Y1239098D01*
X1948924Y1235370D01*
X1958583Y1234098D01*
X1968242Y1235370D01*
X1977242Y1239098D01*
X1984971Y1245029D01*
X1990902Y1252758D01*
X1994630Y1261758D01*
X1995902Y1271417D01*
X1994630Y1281076D01*
X1990902Y1290077D01*
X1984971Y1297806D01*
X1977242Y1303737D01*
X1968242Y1307465D01*
X1958583Y1308737D01*
X1948924Y1307465D01*
X1942499Y1304804D01*
X1848651Y1398651D01*
X1844682Y1401304D01*
X1840000Y1402235D01*
X1085068D01*
X1057235Y1430068D01*
Y1436769D01*
X1059272Y1438130D01*
X1063647Y1444678D01*
X1065183Y1452402D01*
Y1509488D01*
X1063647Y1517212D01*
X1059272Y1523760D01*
X1052724Y1528135D01*
X1045000Y1529671D01*
D02*
G37*
G36*
X4275000Y1371670D02*
Y1355000D01*
X4291671D01*
X4290572Y1357651D01*
X4284962Y1364962D01*
X4277651Y1370572D01*
X4275000Y1371670D01*
D02*
G37*
G36*
X4245000D02*
X4242349Y1370572D01*
X4235038Y1364962D01*
X4229428Y1357651D01*
X4228329Y1355000D01*
X4245000D01*
Y1371670D01*
D02*
G37*
G36*
X3960000Y1397319D02*
X3950341Y1396048D01*
X3941340Y1392320D01*
X3933611Y1386389D01*
X3927680Y1378660D01*
X3923952Y1369659D01*
X3922681Y1360000D01*
X3923952Y1350341D01*
X3927680Y1341340D01*
X3933611Y1333611D01*
X3941340Y1327680D01*
X3950341Y1323952D01*
X3960000Y1322681D01*
X3969659Y1323952D01*
X3978660Y1327680D01*
X3986389Y1333611D01*
X3992320Y1341340D01*
X3992869Y1342667D01*
X4012820D01*
X4027744Y1327744D01*
X4033367Y1323986D01*
X4040000Y1322667D01*
X4095520D01*
Y1313866D01*
X4194165D01*
Y1367236D01*
X4159622D01*
X4158442Y1367471D01*
X4157262Y1367236D01*
X4095520D01*
Y1357333D01*
X4047180D01*
X4032256Y1372256D01*
X4026633Y1376014D01*
X4020000Y1377333D01*
X3992869D01*
X3992320Y1378660D01*
X3986389Y1386389D01*
X3978660Y1392320D01*
X3969659Y1396048D01*
X3960000Y1397319D01*
D02*
G37*
G36*
X4291671Y1325000D02*
X4228329D01*
X4229428Y1322349D01*
X4235038Y1315038D01*
X4238345Y1312500D01*
Y1307500D01*
X4235038Y1304962D01*
X4229428Y1297651D01*
X4228329Y1295000D01*
X4291671D01*
X4290572Y1297651D01*
X4284962Y1304962D01*
X4281655Y1307500D01*
Y1312500D01*
X4284962Y1315038D01*
X4290572Y1322349D01*
X4291671Y1325000D01*
D02*
G37*
G36*
X1473583Y1308500D02*
Y1286417D01*
X1495665D01*
X1493523Y1291590D01*
X1487111Y1299946D01*
X1478755Y1306357D01*
X1473583Y1308500D01*
D02*
G37*
G36*
X1443583D02*
X1438410Y1306357D01*
X1430054Y1299946D01*
X1423643Y1291590D01*
X1421500Y1286417D01*
X1443583D01*
Y1308500D01*
D02*
G37*
G36*
X4291671Y1265000D02*
X4228329D01*
X4229428Y1262349D01*
X4235038Y1255038D01*
X4238345Y1252500D01*
Y1247500D01*
X4235038Y1244962D01*
X4229428Y1237651D01*
X4228329Y1235000D01*
X4291671D01*
X4290572Y1237651D01*
X4284962Y1244962D01*
X4281655Y1247500D01*
Y1252500D01*
X4284962Y1255038D01*
X4290572Y1262349D01*
X4291671Y1265000D01*
D02*
G37*
G36*
X1495665Y1256417D02*
X1473583D01*
Y1234335D01*
X1478755Y1236477D01*
X1487111Y1242889D01*
X1493523Y1251245D01*
X1495665Y1256417D01*
D02*
G37*
G36*
X1443583D02*
X1421500D01*
X1423643Y1251245D01*
X1430054Y1242889D01*
X1438410Y1236477D01*
X1443583Y1234335D01*
Y1256417D01*
D02*
G37*
G36*
X3758583Y1308737D02*
X3748924Y1307465D01*
X3739923Y1303737D01*
X3732194Y1297806D01*
X3726263Y1290077D01*
X3722535Y1281076D01*
X3721263Y1271417D01*
X3722535Y1261758D01*
X3726263Y1252758D01*
X3732194Y1245029D01*
X3739923Y1239098D01*
X3748924Y1235370D01*
X3758583Y1234098D01*
X3768242Y1235370D01*
X3777242Y1239098D01*
X3784971Y1245029D01*
X3790902Y1252758D01*
X3794630Y1261758D01*
X3795902Y1271417D01*
X3794630Y1281076D01*
X3790902Y1290077D01*
X3784971Y1297806D01*
X3777242Y1303737D01*
X3768242Y1307465D01*
X3758583Y1308737D01*
D02*
G37*
G36*
X3658583D02*
X3648924Y1307465D01*
X3639923Y1303737D01*
X3632194Y1297806D01*
X3626263Y1290077D01*
X3622535Y1281076D01*
X3621263Y1271417D01*
X3622535Y1261758D01*
X3626263Y1252758D01*
X3632194Y1245029D01*
X3639923Y1239098D01*
X3648924Y1235370D01*
X3658583Y1234098D01*
X3668242Y1235370D01*
X3677242Y1239098D01*
X3684971Y1245029D01*
X3690902Y1252758D01*
X3694630Y1261758D01*
X3695902Y1271417D01*
X3694630Y1281076D01*
X3690902Y1290077D01*
X3684971Y1297806D01*
X3677242Y1303737D01*
X3668242Y1307465D01*
X3658583Y1308737D01*
D02*
G37*
G36*
X3558583D02*
X3548924Y1307465D01*
X3539923Y1303737D01*
X3532194Y1297806D01*
X3526263Y1290077D01*
X3522535Y1281076D01*
X3521263Y1271417D01*
X3522535Y1261758D01*
X3526263Y1252758D01*
X3532194Y1245029D01*
X3539923Y1239098D01*
X3548924Y1235370D01*
X3558583Y1234098D01*
X3568242Y1235370D01*
X3577242Y1239098D01*
X3584971Y1245029D01*
X3590902Y1252758D01*
X3594630Y1261758D01*
X3595902Y1271417D01*
X3594630Y1281076D01*
X3590902Y1290077D01*
X3584971Y1297806D01*
X3577242Y1303737D01*
X3568242Y1307465D01*
X3558583Y1308737D01*
D02*
G37*
G36*
X3458583D02*
X3448924Y1307465D01*
X3439923Y1303737D01*
X3432194Y1297806D01*
X3426263Y1290077D01*
X3422535Y1281076D01*
X3421263Y1271417D01*
X3422535Y1261758D01*
X3426263Y1252758D01*
X3432194Y1245029D01*
X3439923Y1239098D01*
X3448924Y1235370D01*
X3458583Y1234098D01*
X3468242Y1235370D01*
X3477242Y1239098D01*
X3484971Y1245029D01*
X3490902Y1252758D01*
X3494630Y1261758D01*
X3495902Y1271417D01*
X3494630Y1281076D01*
X3490902Y1290077D01*
X3484971Y1297806D01*
X3477242Y1303737D01*
X3468242Y1307465D01*
X3458583Y1308737D01*
D02*
G37*
G36*
X3358583D02*
X3348924Y1307465D01*
X3339923Y1303737D01*
X3332194Y1297806D01*
X3326263Y1290077D01*
X3322535Y1281076D01*
X3321263Y1271417D01*
X3322535Y1261758D01*
X3326263Y1252758D01*
X3332194Y1245029D01*
X3339923Y1239098D01*
X3348924Y1235370D01*
X3358583Y1234098D01*
X3368242Y1235370D01*
X3377242Y1239098D01*
X3384971Y1245029D01*
X3390902Y1252758D01*
X3394630Y1261758D01*
X3395902Y1271417D01*
X3394630Y1281076D01*
X3390902Y1290077D01*
X3384971Y1297806D01*
X3377242Y1303737D01*
X3368242Y1307465D01*
X3358583Y1308737D01*
D02*
G37*
G36*
X3258583D02*
X3248924Y1307465D01*
X3239923Y1303737D01*
X3232194Y1297806D01*
X3226263Y1290077D01*
X3222535Y1281076D01*
X3221263Y1271417D01*
X3222535Y1261758D01*
X3226263Y1252758D01*
X3232194Y1245029D01*
X3239923Y1239098D01*
X3248924Y1235370D01*
X3258583Y1234098D01*
X3268242Y1235370D01*
X3277242Y1239098D01*
X3284971Y1245029D01*
X3290902Y1252758D01*
X3294630Y1261758D01*
X3295902Y1271417D01*
X3294630Y1281076D01*
X3290902Y1290077D01*
X3284971Y1297806D01*
X3277242Y1303737D01*
X3268242Y1307465D01*
X3258583Y1308737D01*
D02*
G37*
G36*
X3158583D02*
X3148924Y1307465D01*
X3139923Y1303737D01*
X3132194Y1297806D01*
X3126263Y1290077D01*
X3122535Y1281076D01*
X3121263Y1271417D01*
X3122535Y1261758D01*
X3126263Y1252758D01*
X3132194Y1245029D01*
X3139923Y1239098D01*
X3148924Y1235370D01*
X3158583Y1234098D01*
X3168242Y1235370D01*
X3177242Y1239098D01*
X3184971Y1245029D01*
X3190902Y1252758D01*
X3194630Y1261758D01*
X3195902Y1271417D01*
X3194630Y1281076D01*
X3190902Y1290077D01*
X3184971Y1297806D01*
X3177242Y1303737D01*
X3168242Y1307465D01*
X3158583Y1308737D01*
D02*
G37*
G36*
X3058583D02*
X3048924Y1307465D01*
X3039923Y1303737D01*
X3032194Y1297806D01*
X3026263Y1290077D01*
X3022535Y1281076D01*
X3021263Y1271417D01*
X3022535Y1261758D01*
X3026263Y1252758D01*
X3032194Y1245029D01*
X3039923Y1239098D01*
X3048924Y1235370D01*
X3058583Y1234098D01*
X3068242Y1235370D01*
X3077242Y1239098D01*
X3084971Y1245029D01*
X3090902Y1252758D01*
X3094630Y1261758D01*
X3095902Y1271417D01*
X3094630Y1281076D01*
X3090902Y1290077D01*
X3084971Y1297806D01*
X3077242Y1303737D01*
X3068242Y1307465D01*
X3058583Y1308737D01*
D02*
G37*
G36*
X2858583D02*
X2848924Y1307465D01*
X2839923Y1303737D01*
X2832194Y1297806D01*
X2826263Y1290077D01*
X2822535Y1281076D01*
X2821263Y1271417D01*
X2822535Y1261758D01*
X2826263Y1252758D01*
X2832194Y1245029D01*
X2839923Y1239098D01*
X2848924Y1235370D01*
X2858583Y1234098D01*
X2868242Y1235370D01*
X2877242Y1239098D01*
X2884971Y1245029D01*
X2890902Y1252758D01*
X2894630Y1261758D01*
X2895902Y1271417D01*
X2894630Y1281076D01*
X2890902Y1290077D01*
X2884971Y1297806D01*
X2877242Y1303737D01*
X2868242Y1307465D01*
X2858583Y1308737D01*
D02*
G37*
G36*
X2458583D02*
X2448924Y1307465D01*
X2439923Y1303737D01*
X2432194Y1297806D01*
X2426263Y1290077D01*
X2422535Y1281076D01*
X2421263Y1271417D01*
X2422535Y1261758D01*
X2426263Y1252758D01*
X2432194Y1245029D01*
X2439923Y1239098D01*
X2448924Y1235370D01*
X2458583Y1234098D01*
X2468242Y1235370D01*
X2477242Y1239098D01*
X2484971Y1245029D01*
X2490902Y1252758D01*
X2494630Y1261758D01*
X2495902Y1271417D01*
X2494630Y1281076D01*
X2490902Y1290077D01*
X2484971Y1297806D01*
X2477242Y1303737D01*
X2468242Y1307465D01*
X2458583Y1308737D01*
D02*
G37*
G36*
X2358583D02*
X2348924Y1307465D01*
X2339923Y1303737D01*
X2332194Y1297806D01*
X2326263Y1290077D01*
X2322535Y1281076D01*
X2321263Y1271417D01*
X2322535Y1261758D01*
X2326263Y1252758D01*
X2332194Y1245029D01*
X2339923Y1239098D01*
X2348924Y1235370D01*
X2358583Y1234098D01*
X2368242Y1235370D01*
X2377242Y1239098D01*
X2384971Y1245029D01*
X2390902Y1252758D01*
X2394630Y1261758D01*
X2395902Y1271417D01*
X2394630Y1281076D01*
X2390902Y1290077D01*
X2384971Y1297806D01*
X2377242Y1303737D01*
X2368242Y1307465D01*
X2358583Y1308737D01*
D02*
G37*
G36*
X2258583D02*
X2248924Y1307465D01*
X2239923Y1303737D01*
X2232194Y1297806D01*
X2226263Y1290077D01*
X2222535Y1281076D01*
X2221263Y1271417D01*
X2222535Y1261758D01*
X2226263Y1252758D01*
X2232194Y1245029D01*
X2239923Y1239098D01*
X2248924Y1235370D01*
X2258583Y1234098D01*
X2268242Y1235370D01*
X2277242Y1239098D01*
X2284971Y1245029D01*
X2290902Y1252758D01*
X2294630Y1261758D01*
X2295902Y1271417D01*
X2294630Y1281076D01*
X2290902Y1290077D01*
X2284971Y1297806D01*
X2277242Y1303737D01*
X2268242Y1307465D01*
X2258583Y1308737D01*
D02*
G37*
G36*
X2158583D02*
X2148924Y1307465D01*
X2139923Y1303737D01*
X2132194Y1297806D01*
X2126263Y1290077D01*
X2122535Y1281076D01*
X2121263Y1271417D01*
X2122535Y1261758D01*
X2126263Y1252758D01*
X2132194Y1245029D01*
X2139923Y1239098D01*
X2148924Y1235370D01*
X2158583Y1234098D01*
X2168242Y1235370D01*
X2177242Y1239098D01*
X2184971Y1245029D01*
X2190902Y1252758D01*
X2194630Y1261758D01*
X2195902Y1271417D01*
X2194630Y1281076D01*
X2190902Y1290077D01*
X2184971Y1297806D01*
X2177242Y1303737D01*
X2168242Y1307465D01*
X2158583Y1308737D01*
D02*
G37*
G36*
X2058583D02*
X2048924Y1307465D01*
X2039923Y1303737D01*
X2032194Y1297806D01*
X2026263Y1290077D01*
X2022535Y1281076D01*
X2021263Y1271417D01*
X2022535Y1261758D01*
X2026263Y1252758D01*
X2032194Y1245029D01*
X2039923Y1239098D01*
X2048924Y1235370D01*
X2058583Y1234098D01*
X2068242Y1235370D01*
X2077242Y1239098D01*
X2084971Y1245029D01*
X2090902Y1252758D01*
X2094630Y1261758D01*
X2095902Y1271417D01*
X2094630Y1281076D01*
X2090902Y1290077D01*
X2084971Y1297806D01*
X2077242Y1303737D01*
X2068242Y1307465D01*
X2058583Y1308737D01*
D02*
G37*
G36*
X1758583D02*
X1748924Y1307465D01*
X1739923Y1303737D01*
X1732194Y1297806D01*
X1726263Y1290077D01*
X1722535Y1281076D01*
X1721263Y1271417D01*
X1722535Y1261758D01*
X1726263Y1252758D01*
X1732194Y1245029D01*
X1739923Y1239098D01*
X1748924Y1235370D01*
X1758583Y1234098D01*
X1768242Y1235370D01*
X1777242Y1239098D01*
X1784971Y1245029D01*
X1790902Y1252758D01*
X1794630Y1261758D01*
X1795902Y1271417D01*
X1794630Y1281076D01*
X1790902Y1290077D01*
X1784971Y1297806D01*
X1777242Y1303737D01*
X1768242Y1307465D01*
X1758583Y1308737D01*
D02*
G37*
G36*
X1658583D02*
X1648924Y1307465D01*
X1639923Y1303737D01*
X1632194Y1297806D01*
X1626263Y1290077D01*
X1622535Y1281076D01*
X1621263Y1271417D01*
X1622535Y1261758D01*
X1626263Y1252758D01*
X1632194Y1245029D01*
X1639923Y1239098D01*
X1648924Y1235370D01*
X1658583Y1234098D01*
X1668242Y1235370D01*
X1677242Y1239098D01*
X1684971Y1245029D01*
X1690902Y1252758D01*
X1694630Y1261758D01*
X1695902Y1271417D01*
X1694630Y1281076D01*
X1690902Y1290077D01*
X1684971Y1297806D01*
X1677242Y1303737D01*
X1668242Y1307465D01*
X1658583Y1308737D01*
D02*
G37*
G36*
X1558583D02*
X1548924Y1307465D01*
X1539923Y1303737D01*
X1532194Y1297806D01*
X1526263Y1290077D01*
X1522535Y1281076D01*
X1521263Y1271417D01*
X1522535Y1261758D01*
X1526263Y1252758D01*
X1532194Y1245029D01*
X1539923Y1239098D01*
X1548924Y1235370D01*
X1558583Y1234098D01*
X1568242Y1235370D01*
X1577242Y1239098D01*
X1584971Y1245029D01*
X1590902Y1252758D01*
X1594630Y1261758D01*
X1595902Y1271417D01*
X1594630Y1281076D01*
X1590902Y1290077D01*
X1584971Y1297806D01*
X1577242Y1303737D01*
X1568242Y1307465D01*
X1558583Y1308737D01*
D02*
G37*
G36*
X4194165Y1276685D02*
X4095520D01*
Y1264785D01*
X4070001D01*
X4064343Y1263659D01*
X4059547Y1260455D01*
X3173876Y374784D01*
X2847164D01*
X2841506Y373659D01*
X2836710Y370454D01*
X2772116Y305860D01*
X2768242Y307465D01*
X2758583Y308737D01*
X2748924Y307465D01*
X2739923Y303737D01*
X2732194Y297806D01*
X2726263Y290077D01*
X2722535Y281076D01*
X2721263Y271417D01*
X2722535Y261758D01*
X2726263Y252758D01*
X2732194Y245029D01*
X2739923Y239098D01*
X2746347Y236437D01*
Y123650D01*
X2732288Y109591D01*
X2727669Y111504D01*
Y124558D01*
X2672330D01*
Y55440D01*
X2727669D01*
Y77765D01*
X2730000D01*
X2734682Y78696D01*
X2738651Y81349D01*
X2767234Y109930D01*
X2769886Y113900D01*
X2770817Y118582D01*
Y236436D01*
X2777242Y239098D01*
X2784971Y245029D01*
X2790902Y252758D01*
X2794630Y261758D01*
X2795902Y271417D01*
X2794630Y281076D01*
X2793025Y284953D01*
X2853288Y345216D01*
X3180000D01*
X3185658Y346341D01*
X3190454Y349546D01*
X4076124Y1235217D01*
X4095520D01*
Y1223315D01*
X4194165D01*
Y1276685D01*
D02*
G37*
G36*
X3997000Y1297000D02*
X3923000D01*
Y1223000D01*
X3997000D01*
Y1297000D01*
D02*
G37*
G36*
X4424480Y1320976D02*
X4325835D01*
Y1179024D01*
X4424480D01*
Y1320976D01*
D02*
G37*
G36*
X4291671Y1205000D02*
X4228329D01*
X4229428Y1202349D01*
X4235038Y1195038D01*
X4238345Y1192500D01*
Y1187500D01*
X4235038Y1184962D01*
X4229428Y1177651D01*
X4228329Y1175000D01*
X4291671D01*
X4290572Y1177651D01*
X4284962Y1184962D01*
X4281655Y1187500D01*
Y1192500D01*
X4284962Y1195038D01*
X4290572Y1202349D01*
X4291671Y1205000D01*
D02*
G37*
G36*
X4197165Y1189134D02*
X4159842D01*
Y1174449D01*
X4197165D01*
Y1189134D01*
D02*
G37*
G36*
X4129842D02*
X4092520D01*
Y1174449D01*
X4129842D01*
Y1189134D01*
D02*
G37*
G36*
X4197165Y1144449D02*
X4159842D01*
Y1129764D01*
X4197165D01*
Y1144449D01*
D02*
G37*
G36*
X4129842D02*
X4092520D01*
Y1129764D01*
X4129842D01*
Y1144449D01*
D02*
G37*
G36*
X4291671Y1145000D02*
X4275000D01*
Y1128330D01*
X4277651Y1129428D01*
X4284962Y1135038D01*
X4290572Y1142349D01*
X4291671Y1145000D01*
D02*
G37*
G36*
X4245000D02*
X4228329D01*
X4229428Y1142349D01*
X4235038Y1135038D01*
X4242349Y1129428D01*
X4245000Y1128330D01*
Y1145000D01*
D02*
G37*
G36*
X3258583Y958737D02*
X3248924Y957465D01*
X3239923Y953737D01*
X3232194Y947806D01*
X3226263Y940077D01*
X3222535Y931076D01*
X3221263Y921417D01*
X3222535Y911758D01*
X3226263Y902758D01*
X3232194Y895029D01*
X3239923Y889098D01*
X3248924Y885370D01*
X3258583Y884098D01*
X3268242Y885370D01*
X3277242Y889098D01*
X3284971Y895029D01*
X3290902Y902758D01*
X3294630Y911758D01*
X3295902Y921417D01*
X3294630Y931076D01*
X3290902Y940077D01*
X3284971Y947806D01*
X3277242Y953737D01*
X3268242Y957465D01*
X3258583Y958737D01*
D02*
G37*
G36*
X3158583D02*
X3148924Y957465D01*
X3139923Y953737D01*
X3132194Y947806D01*
X3126263Y940077D01*
X3122535Y931076D01*
X3121263Y921417D01*
X3122535Y911758D01*
X3126263Y902758D01*
X3132194Y895029D01*
X3139923Y889098D01*
X3148924Y885370D01*
X3158583Y884098D01*
X3168242Y885370D01*
X3177242Y889098D01*
X3184971Y895029D01*
X3190902Y902758D01*
X3194630Y911758D01*
X3195902Y921417D01*
X3194630Y931076D01*
X3190902Y940077D01*
X3184971Y947806D01*
X3177242Y953737D01*
X3168242Y957465D01*
X3158583Y958737D01*
D02*
G37*
G36*
X3058583D02*
X3048924Y957465D01*
X3039923Y953737D01*
X3032194Y947806D01*
X3026263Y940077D01*
X3022535Y931076D01*
X3021263Y921417D01*
X3022535Y911758D01*
X3026263Y902758D01*
X3032194Y895029D01*
X3039923Y889098D01*
X3048924Y885370D01*
X3058583Y884098D01*
X3068242Y885370D01*
X3077242Y889098D01*
X3084971Y895029D01*
X3090902Y902758D01*
X3094630Y911758D01*
X3095902Y921417D01*
X3094630Y931076D01*
X3090902Y940077D01*
X3084971Y947806D01*
X3077242Y953737D01*
X3068242Y957465D01*
X3058583Y958737D01*
D02*
G37*
G36*
X2958583Y1308737D02*
X2948924Y1307465D01*
X2939923Y1303737D01*
X2932194Y1297806D01*
X2926263Y1290077D01*
X2922535Y1281076D01*
X2921263Y1271417D01*
X2922535Y1261758D01*
X2926263Y1252758D01*
X2932194Y1245029D01*
X2939923Y1239098D01*
X2946347Y1236437D01*
Y956398D01*
X2939923Y953737D01*
X2932194Y947806D01*
X2926263Y940077D01*
X2922535Y931076D01*
X2921263Y921417D01*
X2922535Y911758D01*
X2926263Y902758D01*
X2932194Y895029D01*
X2939923Y889098D01*
X2948924Y885370D01*
X2958583Y884098D01*
X2968242Y885370D01*
X2977242Y889098D01*
X2984971Y895029D01*
X2990902Y902758D01*
X2994630Y911758D01*
X2995902Y921417D01*
X2994630Y931076D01*
X2990902Y940077D01*
X2984971Y947806D01*
X2977242Y953737D01*
X2970817Y956398D01*
Y1236436D01*
X2977242Y1239098D01*
X2984971Y1245029D01*
X2990902Y1252758D01*
X2994630Y1261758D01*
X2995902Y1271417D01*
X2994630Y1281076D01*
X2990902Y1290077D01*
X2984971Y1297806D01*
X2977242Y1303737D01*
X2968242Y1307465D01*
X2958583Y1308737D01*
D02*
G37*
G36*
X2858583Y958737D02*
X2848924Y957465D01*
X2839923Y953737D01*
X2832194Y947806D01*
X2826263Y940077D01*
X2822535Y931076D01*
X2821263Y921417D01*
X2822535Y911758D01*
X2826263Y902758D01*
X2832194Y895029D01*
X2839923Y889098D01*
X2848924Y885370D01*
X2858583Y884098D01*
X2868242Y885370D01*
X2877242Y889098D01*
X2884971Y895029D01*
X2890902Y902758D01*
X2894630Y911758D01*
X2895902Y921417D01*
X2894630Y931076D01*
X2890902Y940077D01*
X2884971Y947806D01*
X2877242Y953737D01*
X2868242Y957465D01*
X2858583Y958737D01*
D02*
G37*
G36*
X2758583Y1308737D02*
X2748924Y1307465D01*
X2739923Y1303737D01*
X2732194Y1297806D01*
X2726263Y1290077D01*
X2722535Y1281076D01*
X2721263Y1271417D01*
X2722535Y1261758D01*
X2726263Y1252758D01*
X2732194Y1245029D01*
X2739923Y1239098D01*
X2746347Y1236437D01*
Y956398D01*
X2739923Y953737D01*
X2732194Y947806D01*
X2726263Y940077D01*
X2722535Y931076D01*
X2721263Y921417D01*
X2722535Y911758D01*
X2726263Y902758D01*
X2732194Y895029D01*
X2739923Y889098D01*
X2748924Y885370D01*
X2758583Y884098D01*
X2768242Y885370D01*
X2777242Y889098D01*
X2784971Y895029D01*
X2790902Y902758D01*
X2794630Y911758D01*
X2795902Y921417D01*
X2794630Y931076D01*
X2790902Y940077D01*
X2784971Y947806D01*
X2777242Y953737D01*
X2770817Y956398D01*
Y1236436D01*
X2777242Y1239098D01*
X2784971Y1245029D01*
X2790902Y1252758D01*
X2794630Y1261758D01*
X2795902Y1271417D01*
X2794630Y1281076D01*
X2790902Y1290077D01*
X2784971Y1297806D01*
X2777242Y1303737D01*
X2768242Y1307465D01*
X2758583Y1308737D01*
D02*
G37*
G36*
X2658583D02*
X2648924Y1307465D01*
X2639923Y1303737D01*
X2632194Y1297806D01*
X2626263Y1290077D01*
X2622535Y1281076D01*
X2621263Y1271417D01*
X2622535Y1261758D01*
X2626263Y1252758D01*
X2632194Y1245029D01*
X2639923Y1239098D01*
X2646347Y1236437D01*
Y956398D01*
X2639923Y953737D01*
X2632194Y947806D01*
X2626263Y940077D01*
X2622535Y931076D01*
X2621263Y921417D01*
X2622535Y911758D01*
X2626263Y902758D01*
X2632194Y895029D01*
X2639923Y889098D01*
X2648924Y885370D01*
X2658583Y884098D01*
X2668242Y885370D01*
X2677242Y889098D01*
X2684971Y895029D01*
X2690902Y902758D01*
X2694630Y911758D01*
X2695902Y921417D01*
X2694630Y931076D01*
X2690902Y940077D01*
X2684971Y947806D01*
X2677242Y953737D01*
X2670817Y956398D01*
Y1236436D01*
X2677242Y1239098D01*
X2684971Y1245029D01*
X2690902Y1252758D01*
X2694630Y1261758D01*
X2695902Y1271417D01*
X2694630Y1281076D01*
X2690902Y1290077D01*
X2684971Y1297806D01*
X2677242Y1303737D01*
X2668242Y1307465D01*
X2658583Y1308737D01*
D02*
G37*
G36*
X2558583D02*
X2548924Y1307465D01*
X2539923Y1303737D01*
X2532194Y1297806D01*
X2526263Y1290077D01*
X2522535Y1281076D01*
X2521263Y1271417D01*
X2522535Y1261758D01*
X2526263Y1252758D01*
X2532194Y1245029D01*
X2539923Y1239098D01*
X2546347Y1236437D01*
Y956398D01*
X2539923Y953737D01*
X2532194Y947806D01*
X2526263Y940077D01*
X2522535Y931076D01*
X2521263Y921417D01*
X2522535Y911758D01*
X2526263Y902758D01*
X2532194Y895029D01*
X2539923Y889098D01*
X2548924Y885370D01*
X2558583Y884098D01*
X2568242Y885370D01*
X2577242Y889098D01*
X2584971Y895029D01*
X2590902Y902758D01*
X2594630Y911758D01*
X2595902Y921417D01*
X2594630Y931076D01*
X2590902Y940077D01*
X2584971Y947806D01*
X2577242Y953737D01*
X2570817Y956398D01*
Y1236436D01*
X2577242Y1239098D01*
X2584971Y1245029D01*
X2590902Y1252758D01*
X2594630Y1261758D01*
X2595902Y1271417D01*
X2594630Y1281076D01*
X2590902Y1290077D01*
X2584971Y1297806D01*
X2577242Y1303737D01*
X2568242Y1307465D01*
X2558583Y1308737D01*
D02*
G37*
G36*
X2673583Y308500D02*
Y286417D01*
X2695665D01*
X2693523Y291590D01*
X2687111Y299946D01*
X2678755Y306357D01*
X2673583Y308500D01*
D02*
G37*
G36*
X2643583D02*
X2638410Y306357D01*
X2630054Y299946D01*
X2623643Y291590D01*
X2621500Y286417D01*
X2643583D01*
Y308500D01*
D02*
G37*
G36*
X2695665Y256417D02*
X2673583D01*
Y234335D01*
X2678755Y236477D01*
X2687111Y242889D01*
X2693523Y251245D01*
X2695665Y256417D01*
D02*
G37*
G36*
X2643583D02*
X2621500D01*
X2623643Y251245D01*
X2630054Y242889D01*
X2638410Y236477D01*
X2643583Y234335D01*
Y256417D01*
D02*
G37*
G36*
X3258583Y308737D02*
X3248924Y307465D01*
X3239923Y303737D01*
X3232194Y297806D01*
X3226263Y290077D01*
X3222535Y281076D01*
X3221263Y271417D01*
X3222535Y261758D01*
X3226263Y252758D01*
X3232194Y245029D01*
X3239923Y239098D01*
X3248924Y235370D01*
X3258583Y234098D01*
X3268242Y235370D01*
X3277242Y239098D01*
X3284971Y245029D01*
X3290902Y252758D01*
X3294630Y261758D01*
X3295902Y271417D01*
X3294630Y281076D01*
X3290902Y290077D01*
X3284971Y297806D01*
X3277242Y303737D01*
X3268242Y307465D01*
X3258583Y308737D01*
D02*
G37*
G36*
X3158583D02*
X3148924Y307465D01*
X3139923Y303737D01*
X3132194Y297806D01*
X3126263Y290077D01*
X3122535Y281076D01*
X3121263Y271417D01*
X3122535Y261758D01*
X3126263Y252758D01*
X3132194Y245029D01*
X3139923Y239098D01*
X3148924Y235370D01*
X3158583Y234098D01*
X3168242Y235370D01*
X3177242Y239098D01*
X3184971Y245029D01*
X3190902Y252758D01*
X3194630Y261758D01*
X3195902Y271417D01*
X3194630Y281076D01*
X3190902Y290077D01*
X3184971Y297806D01*
X3177242Y303737D01*
X3168242Y307465D01*
X3158583Y308737D01*
D02*
G37*
G36*
X3058583D02*
X3048924Y307465D01*
X3039923Y303737D01*
X3032194Y297806D01*
X3026263Y290077D01*
X3022535Y281076D01*
X3021263Y271417D01*
X3022535Y261758D01*
X3026263Y252758D01*
X3032194Y245029D01*
X3039923Y239098D01*
X3048924Y235370D01*
X3058583Y234098D01*
X3068242Y235370D01*
X3077242Y239098D01*
X3084971Y245029D01*
X3090902Y252758D01*
X3094630Y261758D01*
X3095902Y271417D01*
X3094630Y281076D01*
X3090902Y290077D01*
X3084971Y297806D01*
X3077242Y303737D01*
X3068242Y307465D01*
X3058583Y308737D01*
D02*
G37*
G36*
X2958583D02*
X2948924Y307465D01*
X2939923Y303737D01*
X2932194Y297806D01*
X2926263Y290077D01*
X2922535Y281076D01*
X2921263Y271417D01*
X2922535Y261758D01*
X2926263Y252758D01*
X2932194Y245029D01*
X2939923Y239098D01*
X2948924Y235370D01*
X2958583Y234098D01*
X2968242Y235370D01*
X2977242Y239098D01*
X2984971Y245029D01*
X2990902Y252758D01*
X2994630Y261758D01*
X2995902Y271417D01*
X2994630Y281076D01*
X2990902Y290077D01*
X2984971Y297806D01*
X2977242Y303737D01*
X2968242Y307465D01*
X2958583Y308737D01*
D02*
G37*
G36*
X2858583D02*
X2848924Y307465D01*
X2839923Y303737D01*
X2832194Y297806D01*
X2826263Y290077D01*
X2822535Y281076D01*
X2821263Y271417D01*
X2822535Y261758D01*
X2826263Y252758D01*
X2832194Y245029D01*
X2839923Y239098D01*
X2848924Y235370D01*
X2858583Y234098D01*
X2868242Y235370D01*
X2877242Y239098D01*
X2884971Y245029D01*
X2890902Y252758D01*
X2894630Y261758D01*
X2895902Y271417D01*
X2894630Y281076D01*
X2890902Y290077D01*
X2884971Y297806D01*
X2877242Y303737D01*
X2868242Y307465D01*
X2858583Y308737D01*
D02*
G37*
G36*
X2558583D02*
X2548924Y307465D01*
X2539923Y303737D01*
X2532194Y297806D01*
X2526263Y290077D01*
X2522535Y281076D01*
X2521263Y271417D01*
X2522535Y261758D01*
X2526263Y252758D01*
X2532194Y245029D01*
X2539923Y239098D01*
X2548924Y235370D01*
X2558583Y234098D01*
X2568242Y235370D01*
X2577242Y239098D01*
X2584971Y245029D01*
X2590902Y252758D01*
X2594630Y261758D01*
X2595902Y271417D01*
X2594630Y281076D01*
X2590902Y290077D01*
X2584971Y297806D01*
X2577242Y303737D01*
X2568242Y307465D01*
X2558583Y308737D01*
D02*
G37*
G36*
X2657834Y127558D02*
X2642165D01*
Y104999D01*
X2657834D01*
Y127558D01*
D02*
G37*
G36*
X2612165D02*
X2596495D01*
Y104999D01*
X2612165D01*
Y127558D01*
D02*
G37*
G36*
X2657834Y74999D02*
X2642165D01*
Y52440D01*
X2657834D01*
Y74999D01*
D02*
G37*
G36*
X2612165D02*
X2596495D01*
Y52440D01*
X2612165D01*
Y74999D01*
D02*
G37*
%LPD*%
G36*
X2650000Y3160000D02*
X2590000Y3070000D01*
X2580000Y3040000D01*
X2590000Y3000000D01*
X2623334Y2950000D01*
X2020000D01*
Y3040000D01*
X2140000Y3160000D01*
X2650000Y3160000D01*
D02*
G37*
G36*
X2000000Y3040000D02*
X2000000Y2950000D01*
X1363333Y2950000D01*
X1390000Y2990000D01*
X1410000Y3020000D01*
Y3030000D01*
X1316566Y3150000D01*
X1300000D01*
X1309314Y3159314D01*
X1308780Y3160000D01*
X1880000D01*
X2000000Y3040000D01*
D02*
G37*
G36*
X4355000Y2357000D02*
X4105000Y2247000D01*
X4105000Y2100000D01*
X4065000Y2100000D01*
X4065000Y2160669D01*
X4027834Y2357000D01*
Y2413000D01*
X4355000D01*
Y2357000D01*
D02*
G37*
G36*
X1560438Y1748654D02*
X1557606Y1744415D01*
X1553354Y1746176D01*
X1545000Y1747276D01*
X1536646Y1746176D01*
X1532743Y1744560D01*
X1446229Y1831074D01*
X1448824Y1835210D01*
X1449017Y1835357D01*
X1458583Y1834098D01*
X1468242Y1835370D01*
X1472117Y1836975D01*
X1560438Y1748654D01*
D02*
G37*
%LPC*%
G36*
X1195000Y1150840D02*
X1186106Y1149071D01*
X1178565Y1144033D01*
X1173527Y1136493D01*
X1172549Y1131574D01*
X1167451D01*
X1166473Y1136493D01*
X1161435Y1144033D01*
X1153894Y1149071D01*
X1145000Y1150840D01*
X1136106Y1149071D01*
X1128565Y1144033D01*
X1123527Y1136493D01*
X1122549Y1131574D01*
X1117451D01*
X1116473Y1136493D01*
X1111435Y1144033D01*
X1103894Y1149071D01*
X1095000Y1150840D01*
X1086106Y1149071D01*
X1078565Y1144033D01*
X1073527Y1136493D01*
X1072549Y1131574D01*
X1067451D01*
X1066473Y1136493D01*
X1061435Y1144033D01*
X1053894Y1149071D01*
X1045000Y1150840D01*
X1036106Y1149071D01*
X1028565Y1144033D01*
X1023527Y1136493D01*
X1022549Y1131574D01*
X1017451D01*
X1016473Y1136493D01*
X1011434Y1144033D01*
X1003894Y1149071D01*
X995000Y1150840D01*
X986106Y1149071D01*
X978566Y1144033D01*
X973527Y1136493D01*
X972549Y1131574D01*
X967451D01*
X966473Y1136493D01*
X961434Y1144033D01*
X953894Y1149071D01*
X945000Y1150840D01*
X936106Y1149071D01*
X928566Y1144033D01*
X923527Y1136493D01*
X922549Y1131574D01*
X917451D01*
X916473Y1136493D01*
X911434Y1144033D01*
X910000Y1144991D01*
Y1099055D01*
X895000D01*
Y1084055D01*
X871758D01*
Y1070512D01*
X873527Y1061618D01*
X878566Y1054077D01*
X879706Y1053315D01*
Y1008147D01*
X880870Y1002294D01*
X884186Y997332D01*
X1053288Y828230D01*
Y816417D01*
X1028583D01*
Y791417D01*
X1068583D01*
Y761417D01*
X1028583D01*
Y746712D01*
X679917D01*
X665532Y761096D01*
X667553Y765975D01*
X668928Y776417D01*
X667553Y786859D01*
X663523Y796590D01*
X657111Y804946D01*
X648755Y811357D01*
X639025Y815388D01*
X628583Y816763D01*
X618141Y815388D01*
X608410Y811357D01*
X600054Y804946D01*
X593643Y796590D01*
X589612Y786859D01*
X588237Y776417D01*
X589612Y765975D01*
X593643Y756245D01*
X600054Y747889D01*
X608410Y741477D01*
X618141Y737447D01*
X628583Y736072D01*
X639025Y737447D01*
X643904Y739468D01*
X662768Y720604D01*
X664643Y719351D01*
X664087Y713709D01*
X658410Y711357D01*
X650054Y704946D01*
X643643Y696590D01*
X639612Y686859D01*
X638237Y676417D01*
X639612Y665975D01*
X643643Y656245D01*
X650054Y647889D01*
X658410Y641477D01*
X668141Y637447D01*
X678583Y636072D01*
X688751Y637411D01*
X720581Y605581D01*
X727196Y601160D01*
X735000Y599608D01*
X1262164D01*
X1269968Y601160D01*
X1276583Y605581D01*
X1308413Y637411D01*
X1318583Y636072D01*
X1329025Y637447D01*
X1338755Y641477D01*
X1347111Y647889D01*
X1353523Y656245D01*
X1357553Y665975D01*
X1358928Y676417D01*
X1357553Y686859D01*
X1353523Y696590D01*
X1347111Y704946D01*
X1338755Y711357D01*
X1333876Y713378D01*
Y821418D01*
X1332712Y827271D01*
X1329396Y832232D01*
X1201542Y960087D01*
X1203456Y964706D01*
X1259331D01*
Y942442D01*
X1320669D01*
Y1017560D01*
X1259331D01*
Y995294D01*
X1166335D01*
X1112577Y1049051D01*
Y1055788D01*
X1116473Y1061618D01*
X1117451Y1066536D01*
X1122549D01*
X1123527Y1061618D01*
X1128565Y1054077D01*
X1136106Y1049039D01*
X1145000Y1047270D01*
X1153894Y1049039D01*
X1161435Y1054077D01*
X1166473Y1061618D01*
X1167451Y1066536D01*
X1172549D01*
X1173527Y1061618D01*
X1178565Y1054077D01*
X1186106Y1049039D01*
X1195000Y1047270D01*
X1203894Y1049039D01*
X1211435Y1054077D01*
X1216473Y1061618D01*
X1217451Y1066536D01*
X1222549D01*
X1223527Y1061618D01*
X1228565Y1054077D01*
X1230000Y1053119D01*
Y1099055D01*
Y1144991D01*
X1228565Y1144033D01*
X1223527Y1136493D01*
X1222549Y1131574D01*
X1217451D01*
X1216473Y1136493D01*
X1211435Y1144033D01*
X1203894Y1149071D01*
X1195000Y1150840D01*
D02*
G37*
G36*
X1260000Y1144991D02*
Y1114055D01*
X1268242D01*
Y1127598D01*
X1266473Y1136493D01*
X1261435Y1144033D01*
X1260000Y1144991D01*
D02*
G37*
G36*
X880000D02*
X878566Y1144033D01*
X873527Y1136493D01*
X871758Y1127598D01*
Y1114055D01*
X880000D01*
Y1144991D01*
D02*
G37*
G36*
X330000Y1180345D02*
X319558Y1178970D01*
X309827Y1174940D01*
X301472Y1168528D01*
X295060Y1160173D01*
X291029Y1150442D01*
X289655Y1140000D01*
X291029Y1129558D01*
X295060Y1119827D01*
X301472Y1111472D01*
X309827Y1105060D01*
X319558Y1101030D01*
X330000Y1099655D01*
X340442Y1101030D01*
X350173Y1105060D01*
X358528Y1111472D01*
X364940Y1119827D01*
X368971Y1129558D01*
X370345Y1140000D01*
X368971Y1150442D01*
X364940Y1160173D01*
X358528Y1168528D01*
X350173Y1174940D01*
X340442Y1178970D01*
X330000Y1180345D01*
D02*
G37*
G36*
X1268242Y1084055D02*
X1260000D01*
Y1053119D01*
X1261435Y1054077D01*
X1266473Y1061618D01*
X1268242Y1070512D01*
Y1084055D01*
D02*
G37*
G36*
X1393504Y1017560D02*
X1377834D01*
Y995001D01*
X1393504D01*
Y1017560D01*
D02*
G37*
G36*
X1347834D02*
X1332165D01*
Y995001D01*
X1347834D01*
Y1017560D01*
D02*
G37*
G36*
X430000Y1180345D02*
X419558Y1178970D01*
X409827Y1174940D01*
X401472Y1168528D01*
X395060Y1160173D01*
X391029Y1150442D01*
X389655Y1140000D01*
X391029Y1129558D01*
X395060Y1119827D01*
X401472Y1111472D01*
X409827Y1105060D01*
X414706Y1103039D01*
Y1053504D01*
X394410D01*
Y992165D01*
X465591D01*
Y1053504D01*
X445294D01*
Y1103039D01*
X450173Y1105060D01*
X458528Y1111472D01*
X464940Y1119827D01*
X468971Y1129558D01*
X470345Y1140000D01*
X468971Y1150442D01*
X464940Y1160173D01*
X458528Y1168528D01*
X450173Y1174940D01*
X440442Y1178970D01*
X430000Y1180345D01*
D02*
G37*
G36*
X1393504Y965001D02*
X1377834D01*
Y942442D01*
X1393504D01*
Y965001D01*
D02*
G37*
G36*
X1347834D02*
X1332165D01*
Y942442D01*
X1347834D01*
Y965001D01*
D02*
G37*
G36*
X570000Y1180000D02*
X490000D01*
Y1100000D01*
X513289D01*
Y813378D01*
X508410Y811357D01*
X500054Y804946D01*
X498611Y803064D01*
X493876Y804671D01*
Y841418D01*
X492712Y847271D01*
X489396Y852232D01*
X445294Y896335D01*
Y919331D01*
X465591D01*
Y980669D01*
X394410D01*
Y919331D01*
X414706D01*
Y890000D01*
X415870Y884147D01*
X419186Y879186D01*
X463288Y835083D01*
Y816417D01*
X443583D01*
Y776417D01*
Y736417D01*
X463288D01*
Y713378D01*
X458410Y711357D01*
X450054Y704946D01*
X443643Y696590D01*
X439612Y686859D01*
X438238Y676417D01*
X439612Y665975D01*
X443643Y656245D01*
X450054Y647889D01*
X458410Y641477D01*
X468141Y637447D01*
X478583Y636072D01*
X489025Y637447D01*
X498755Y641477D01*
X507111Y647889D01*
X513523Y656245D01*
X517553Y665975D01*
X518928Y676417D01*
X517553Y686859D01*
X513523Y696590D01*
X507111Y704946D01*
X498755Y711357D01*
X493876Y713378D01*
Y748163D01*
X498611Y749770D01*
X500054Y747889D01*
X508410Y741477D01*
X518141Y737447D01*
X528583Y736072D01*
X539025Y737447D01*
X548755Y741477D01*
X557111Y747889D01*
X563523Y756245D01*
X567553Y765975D01*
X568928Y776417D01*
X567553Y786859D01*
X563523Y796590D01*
X557111Y804946D01*
X548755Y811357D01*
X543877Y813378D01*
Y1100000D01*
X570000D01*
Y1180000D01*
D02*
G37*
G36*
X413583Y816417D02*
X388583D01*
Y791417D01*
X413583D01*
Y816417D01*
D02*
G37*
G36*
Y761417D02*
X388583D01*
Y736417D01*
X413583D01*
Y761417D01*
D02*
G37*
G36*
X578583Y716763D02*
X568141Y715388D01*
X558410Y711357D01*
X550054Y704946D01*
X543643Y696590D01*
X539612Y686859D01*
X538237Y676417D01*
X539612Y665975D01*
X543643Y656245D01*
X550054Y647889D01*
X558410Y641477D01*
X568141Y637447D01*
X578583Y636072D01*
X589025Y637447D01*
X598755Y641477D01*
X607111Y647889D01*
X613523Y656245D01*
X617553Y665975D01*
X618928Y676417D01*
X617553Y686859D01*
X613523Y696590D01*
X607111Y704946D01*
X598755Y711357D01*
X589025Y715388D01*
X578583Y716763D01*
D02*
G37*
G36*
X1393583Y500752D02*
X1379081Y499323D01*
X1365136Y495093D01*
X1352285Y488224D01*
X1341020Y478980D01*
X1331776Y467715D01*
X1324907Y454864D01*
X1320677Y440919D01*
X1319248Y426417D01*
X1320677Y411915D01*
X1324907Y397971D01*
X1331776Y385119D01*
X1341020Y373855D01*
X1352285Y364611D01*
X1365136Y357741D01*
X1379081Y353511D01*
X1393583Y352083D01*
X1408085Y353511D01*
X1422029Y357741D01*
X1434881Y364611D01*
X1446145Y373855D01*
X1455389Y385119D01*
X1462259Y397971D01*
X1466489Y411915D01*
X1467917Y426417D01*
X1466489Y440919D01*
X1462259Y454864D01*
X1455389Y467715D01*
X1446145Y478980D01*
X1434881Y488224D01*
X1422029Y495093D01*
X1408085Y499323D01*
X1393583Y500752D01*
D02*
G37*
G36*
X993583D02*
X979081Y499323D01*
X965136Y495093D01*
X952285Y488224D01*
X941020Y478980D01*
X931776Y467715D01*
X924907Y454864D01*
X920677Y440919D01*
X919248Y426417D01*
X920677Y411915D01*
X924907Y397971D01*
X931776Y385119D01*
X941020Y373855D01*
X952285Y364611D01*
X965136Y357741D01*
X979081Y353511D01*
X993583Y352083D01*
X1008085Y353511D01*
X1022029Y357741D01*
X1034881Y364611D01*
X1046145Y373855D01*
X1055389Y385119D01*
X1062259Y397971D01*
X1066489Y411915D01*
X1067917Y426417D01*
X1066489Y440919D01*
X1062259Y454864D01*
X1055389Y467715D01*
X1046145Y478980D01*
X1034881Y488224D01*
X1022029Y495093D01*
X1008085Y499323D01*
X993583Y500752D01*
D02*
G37*
G36*
X753583D02*
X739081Y499323D01*
X725136Y495093D01*
X712285Y488224D01*
X701020Y478980D01*
X691776Y467715D01*
X684907Y454864D01*
X680677Y440919D01*
X679248Y426417D01*
X680677Y411915D01*
X684907Y397971D01*
X691776Y385119D01*
X701020Y373855D01*
X712285Y364611D01*
X725136Y357741D01*
X739081Y353511D01*
X753583Y352083D01*
X768085Y353511D01*
X782029Y357741D01*
X794881Y364611D01*
X806145Y373855D01*
X815389Y385119D01*
X822259Y397971D01*
X826489Y411915D01*
X827917Y426417D01*
X826489Y440919D01*
X822259Y454864D01*
X815389Y467715D01*
X806145Y478980D01*
X794881Y488224D01*
X782029Y495093D01*
X768085Y499323D01*
X753583Y500752D01*
D02*
G37*
G36*
X353583D02*
X339081Y499323D01*
X325136Y495093D01*
X312285Y488224D01*
X301020Y478980D01*
X291776Y467715D01*
X284907Y454864D01*
X280677Y440919D01*
X279248Y426417D01*
X280677Y411915D01*
X284907Y397971D01*
X291776Y385119D01*
X301020Y373855D01*
X312285Y364611D01*
X325136Y357741D01*
X339081Y353511D01*
X353583Y352083D01*
X368085Y353511D01*
X382029Y357741D01*
X394881Y364611D01*
X406145Y373855D01*
X415389Y385119D01*
X422259Y397971D01*
X426489Y411915D01*
X427917Y426417D01*
X426489Y440919D01*
X422259Y454864D01*
X415389Y467715D01*
X406145Y478980D01*
X394881Y488224D01*
X382029Y495093D01*
X368085Y499323D01*
X353583Y500752D01*
D02*
G37*
%LPD*%
G36*
X973527Y1061618D02*
X978566Y1054077D01*
X982206Y1051645D01*
Y1010463D01*
X975038Y1004962D01*
X969428Y997651D01*
X965901Y989137D01*
X964698Y980000D01*
X965901Y970863D01*
X969428Y962349D01*
X965457Y959318D01*
X910294Y1014481D01*
Y1053315D01*
X911434Y1054077D01*
X916473Y1061618D01*
X917451Y1066536D01*
X922549D01*
X923527Y1061618D01*
X928566Y1054077D01*
X936106Y1049039D01*
X945000Y1047270D01*
X953894Y1049039D01*
X961434Y1054077D01*
X966473Y1061618D01*
X967451Y1066536D01*
X972549D01*
X973527Y1061618D01*
D02*
G37*
G36*
X1073527D02*
X1078565Y1054077D01*
X1081990Y1051789D01*
Y1042716D01*
X1083154Y1036864D01*
X1086469Y1031902D01*
X1149186Y969186D01*
X1303288Y815083D01*
Y804673D01*
X1298553Y803066D01*
X1297111Y804946D01*
X1288755Y811357D01*
X1279025Y815388D01*
X1268583Y816763D01*
X1258141Y815388D01*
X1248410Y811357D01*
X1240054Y804946D01*
X1233643Y796590D01*
X1229612Y786859D01*
X1228237Y776417D01*
X1229612Y765975D01*
X1231633Y761097D01*
X1217247Y746712D01*
X1202510D01*
X1200045Y751712D01*
X1203523Y756245D01*
X1207553Y765975D01*
X1208928Y776417D01*
X1207553Y786859D01*
X1203523Y796590D01*
X1197111Y804946D01*
X1188755Y811357D01*
X1179025Y815388D01*
X1168583Y816763D01*
X1158141Y815388D01*
X1153262Y813367D01*
X1060294Y906335D01*
Y1053315D01*
X1061435Y1054077D01*
X1066473Y1061618D01*
X1067451Y1066536D01*
X1072549D01*
X1073527Y1061618D01*
D02*
G37*
G36*
X1303288Y748161D02*
Y713378D01*
X1298410Y711357D01*
X1290054Y704946D01*
X1283643Y696590D01*
X1279612Y686859D01*
X1278237Y676417D01*
X1279576Y666250D01*
X1253717Y640392D01*
X1245554D01*
X1243857Y645392D01*
X1247111Y647889D01*
X1253523Y656245D01*
X1257553Y665975D01*
X1258928Y676417D01*
X1257553Y686859D01*
X1253523Y696590D01*
X1247111Y704946D01*
X1238755Y711357D01*
X1233078Y713709D01*
X1232522Y719351D01*
X1234396Y720604D01*
X1253261Y739468D01*
X1258141Y737447D01*
X1268583Y736072D01*
X1279025Y737447D01*
X1288755Y741477D01*
X1297111Y747889D01*
X1298553Y749769D01*
X1303288Y748161D01*
D02*
G37*
G36*
X1198132Y711654D02*
X1198106Y711124D01*
X1190054Y704946D01*
X1183643Y696590D01*
X1179612Y686859D01*
X1178237Y676417D01*
X1179612Y665975D01*
X1183643Y656245D01*
X1190054Y647889D01*
X1193309Y645392D01*
X1191611Y640392D01*
X1145554D01*
X1143857Y645392D01*
X1147111Y647889D01*
X1153523Y656245D01*
X1157553Y665975D01*
X1158928Y676417D01*
X1157553Y686859D01*
X1153523Y696590D01*
X1147111Y704946D01*
X1139059Y711124D01*
X1139033Y711654D01*
X1141573Y716124D01*
X1195592D01*
X1198132Y711654D01*
D02*
G37*
G36*
X1098132D02*
X1098106Y711124D01*
X1090054Y704946D01*
X1083643Y696590D01*
X1079612Y686859D01*
X1078237Y676417D01*
X1079612Y665975D01*
X1083643Y656245D01*
X1090054Y647889D01*
X1093309Y645392D01*
X1091611Y640392D01*
X743447D01*
X717589Y666249D01*
X718928Y676417D01*
X717553Y686859D01*
X713523Y696590D01*
X707111Y704946D01*
X699059Y711124D01*
X699033Y711654D01*
X701573Y716124D01*
X1095592D01*
X1098132Y711654D01*
D02*
G37*
D10*
X3836000Y2393000D02*
D03*
X4036787D02*
D03*
X4497787Y2386000D02*
D03*
X4297000D02*
D03*
D11*
X4074409Y2110001D02*
D03*
X4100000D02*
D03*
X4125590D02*
D03*
X4151181D02*
D03*
Y1936773D02*
D03*
X4125590D02*
D03*
X4100000D02*
D03*
X4074409D02*
D03*
D12*
X4144842Y1340551D02*
D03*
Y1250000D02*
D03*
Y1159449D02*
D03*
D13*
X4375158Y1250000D02*
D03*
D14*
X1835000Y2602835D02*
D03*
Y2530000D02*
D03*
X1730000Y2529999D02*
D03*
Y2602834D02*
D03*
X430001Y950000D02*
D03*
Y1022835D02*
D03*
D15*
X895000Y1099055D02*
D03*
X945000D02*
D03*
X995000D02*
D03*
X1045000D02*
D03*
X1095000D02*
D03*
X1145000D02*
D03*
X1195000D02*
D03*
X1245000D02*
D03*
X895000Y1480945D02*
D03*
X945000D02*
D03*
X995000D02*
D03*
X1045000D02*
D03*
X1095000D02*
D03*
X1145000D02*
D03*
X1195000D02*
D03*
X1245000D02*
D03*
D16*
X2085000Y2971220D02*
D03*
X2035000D02*
D03*
X1985000D02*
D03*
X1935000D02*
D03*
X2085000Y2748780D02*
D03*
X2035000D02*
D03*
X1985000D02*
D03*
X1935000D02*
D03*
D17*
X4080000Y1650000D02*
D03*
X4152835D02*
D03*
X3870000Y1650001D02*
D03*
X3942834D02*
D03*
X4257166Y1649999D02*
D03*
X4330001D02*
D03*
D18*
X4400000Y1779527D02*
D03*
Y2000000D02*
D03*
D19*
X950000Y1722835D02*
D03*
Y1650000D02*
D03*
X2090001Y2537166D02*
D03*
Y2610001D02*
D03*
X1990001Y2537165D02*
D03*
Y2610000D02*
D03*
D20*
X1290000Y980001D02*
D03*
X1362835D02*
D03*
X2627165Y89999D02*
D03*
X2699999D02*
D03*
X4232835Y2210001D02*
D03*
X4160000D02*
D03*
X4332835Y1569999D02*
D03*
X4260000D02*
D03*
X4332834Y1479999D02*
D03*
X4259999D02*
D03*
X4007166Y1800001D02*
D03*
X4080001D02*
D03*
D21*
X4284000Y2381000D02*
Y2394000D01*
X3960000Y1460000D02*
X4244331D01*
X4040000Y1340000D02*
X4124843D01*
X4020000Y1360000D02*
X4040000Y1340000D01*
X3960000Y1360000D02*
X4020000D01*
X4470000Y2580000D02*
Y2873465D01*
X4300000Y3043465D02*
X4470000Y2873465D01*
X678582Y676418D02*
X735000Y620000D01*
X1262164D01*
X1318582Y676418D01*
X4284000Y2394000D02*
X4470000Y2580000D01*
D22*
X1730000Y2602834D02*
Y2980000D01*
X1658583Y1871417D02*
Y2171417D01*
X1658582Y1761418D02*
Y1871417D01*
X1658583Y1871417D01*
X528583Y1138583D02*
X530000Y1140000D01*
X528583Y776417D02*
Y1138583D01*
X4290001Y1600000D02*
X4292835D01*
X4330001Y1645078D02*
Y1649999D01*
X1747165Y2567165D02*
X1812835D01*
X1730000Y2550000D02*
X1747165Y2567165D01*
X1730000Y2530000D02*
Y2550000D01*
X1812835Y2567165D02*
X1830000Y2550000D01*
Y2535000D02*
Y2550000D01*
Y2535000D02*
X1835000Y2530000D01*
X1833000Y2467000D02*
Y2529583D01*
X4150000Y2210000D02*
X4160000D01*
X4125590Y2185590D02*
X4150000Y2210000D01*
X4125590Y2110000D02*
Y2185590D01*
X4244331Y1460000D02*
X4260000Y1475669D01*
X1450000Y1880000D02*
X1458582Y1871418D01*
X1450000Y1880000D02*
Y1910000D01*
X1110000Y1420000D02*
X1350000D01*
X1095000Y1435000D02*
X1110000Y1420000D01*
X1095000Y1435000D02*
Y1480945D01*
X1080000Y1390000D02*
X1840000D01*
X1045000Y1425000D02*
X1080000Y1390000D01*
X1045000Y1425000D02*
Y1480945D01*
X3951417Y1877212D02*
X4149448Y2075244D01*
X3951417Y1710000D02*
Y1877212D01*
X4011417Y1650000D02*
X4080000D01*
X3942834D02*
X4011417D01*
X4149448Y2075244D02*
Y2108268D01*
X4151180Y2110000D01*
X3951417Y1710000D02*
X4011417Y1650000D01*
X4152835D02*
X4257166D01*
X4124843Y1332266D02*
X4130701Y1326409D01*
X4124843Y1332266D02*
Y1340000D01*
X4158442Y1355236D02*
X4158985Y1354693D01*
X3960000Y1360000D02*
X3964764Y1355236D01*
X4260000Y1475669D02*
Y1480000D01*
X1350000Y1420000D02*
X1370000Y1440000D01*
X1840000Y1390000D02*
X1958582Y1271418D01*
X1054798Y1365202D02*
X1764798D01*
X995000Y1425000D02*
X1054798Y1365202D01*
X995000Y1425000D02*
Y1480945D01*
X1764798Y1365202D02*
X1858582Y1271418D01*
X947500Y1488445D02*
X950000Y1485945D01*
X947500Y1557500D02*
X950000Y1560000D01*
X947500Y1488445D02*
Y1557500D01*
X1658582Y1761418D02*
X1800000Y1620000D01*
X950000Y1560000D02*
Y1650000D01*
X997500Y982500D02*
X1000000Y980000D01*
X997500Y982500D02*
Y1096555D01*
X995000Y1099055D02*
X997500Y1096555D01*
X1245000Y1099055D02*
X1247983Y1096072D01*
X1160000Y980000D02*
X1318582Y821418D01*
X1160000Y980000D02*
X1290000D01*
X1318582Y676418D02*
Y821418D01*
X1097284Y1042716D02*
X1160000Y980000D01*
X1097284Y1042716D02*
Y1096772D01*
X1095000Y1099055D02*
X1097284Y1096772D01*
X895000Y1099055D02*
X895394Y1099449D01*
X1244606D02*
X1245000Y1099055D01*
X895000Y1008147D02*
X1068582Y834565D01*
Y776418D02*
Y834565D01*
X895000Y1008147D02*
Y1099055D01*
X1045000Y900000D02*
X1168582Y776418D01*
X1045000Y900000D02*
Y1099055D01*
X1223582Y731418D02*
X1268582Y776418D01*
X673582Y731418D02*
X1223582D01*
X628582Y776418D02*
X673582Y731418D01*
X478582Y676418D02*
Y841418D01*
X430000Y890000D02*
X478582Y841418D01*
X430000Y890000D02*
Y950000D01*
Y1022834D02*
Y1140000D01*
X2157165Y2572835D02*
X2190000Y2540000D01*
X2097165Y2572835D02*
X2157165D01*
X2090000Y2580000D02*
X2097165Y2572835D01*
X990000Y2270000D02*
X1545000Y1715000D01*
X2558582Y1871418D02*
Y1881418D01*
X2513582Y1926418D02*
X2558582Y1881418D01*
X2513582Y1926418D02*
Y2180058D01*
X2613582Y1916418D02*
X2658582Y1871418D01*
X2613582Y1916418D02*
Y2180058D01*
X2463640Y2230000D02*
X2513582Y2180058D01*
X2280000Y2230000D02*
X2463640D01*
X2120000Y2390000D02*
X2280000Y2230000D01*
X1910000Y2390000D02*
X2120000D01*
X4144843Y1340551D02*
X4145394Y1340000D01*
X1833000Y2467000D02*
X1910000Y2390000D01*
X1458582Y2171418D02*
X1467222Y2180058D01*
X2292696Y2265029D02*
X2528611D01*
X2035000Y2522724D02*
X2292696Y2265029D01*
X2035000Y2522724D02*
Y2748780D01*
X2758582Y118582D02*
Y271418D01*
X2730000Y90000D02*
X2758582Y118582D01*
X2700000Y90000D02*
X2730000D01*
X4125590Y1819370D02*
Y1936772D01*
X4113110Y1806890D02*
X4125590Y1819370D01*
X4080000Y1806890D02*
X4113110D01*
X4270000Y1490000D02*
X4280000D01*
X4260000Y1480000D02*
X4270000Y1490000D01*
X2090000Y2580000D02*
Y2610000D01*
X2085000Y2615000D02*
X2090000Y2610000D01*
X4100000Y1936772D02*
X4100315Y1937087D01*
X4007166Y1800000D02*
X4034142D01*
X4040000Y1805858D02*
Y1834960D01*
X4034142Y1800000D02*
X4040000Y1805858D01*
X4007166Y1800000D02*
X4013024Y1805858D01*
X4040000Y1834960D02*
X4098268Y1893229D01*
Y1935040D01*
X4100000Y1936772D01*
X4154142Y2204142D02*
X4160000Y2210000D01*
X3158582Y1871418D02*
Y2171418D01*
X3601850Y3043150D02*
X3603582Y3044882D01*
X2678780Y3041418D02*
X2680512Y3043150D01*
X1558582Y1871418D02*
Y2171418D01*
X1858582Y1871418D02*
Y2171418D01*
X1958582Y1871418D02*
Y2171418D01*
X2058582Y1871418D02*
Y2171418D01*
X2158582Y1871418D02*
Y2171418D01*
X2258582Y1871418D02*
Y2171418D01*
X2358582Y1871418D02*
Y2171418D01*
X2758582Y1871418D02*
Y2171418D01*
X2858582Y1871418D02*
Y2171418D01*
X2958582Y1871418D02*
Y2171418D01*
X3058582Y1871418D02*
Y2171418D01*
X3258582Y1871418D02*
Y2171418D01*
X3358582Y1871418D02*
Y2171418D01*
X3458582Y1871418D02*
Y2171418D01*
X3558582Y1871418D02*
Y2171418D01*
X3658582Y1871418D02*
Y2171418D01*
X3758582Y1871418D02*
Y2171418D01*
X1758582Y1871418D02*
Y2171418D01*
X1700000Y3010000D02*
X1730000Y2980000D01*
X2528611Y2265029D02*
X2613582Y2180058D01*
X2085000Y2615000D02*
Y2748780D01*
X1985000Y2615000D02*
Y2748780D01*
Y2615000D02*
X1990000Y2610000D01*
X2958582Y921418D02*
Y1271418D01*
X2758582Y921418D02*
Y1271418D01*
X2658582Y921418D02*
Y1271418D01*
X2558582Y921418D02*
Y1271418D01*
D23*
X290000Y2370000D02*
X990000D01*
X4260000Y1569999D02*
X4290001Y1600000D01*
X4292835Y1502835D02*
Y1607913D01*
X4330001Y1645078D01*
X990000Y2370000D02*
X1450000Y1910000D01*
X2758582Y271418D02*
X2847164Y360000D01*
X3180000D01*
X1458582Y1871418D02*
X1760000Y1570000D01*
X4280000Y1490000D02*
X4292835Y1502835D01*
X1760000Y1570000D02*
X4260000D01*
X3180000Y360000D02*
X4070001Y1250001D01*
X4144843D01*
X1458582Y1871418D02*
Y2171418D01*
D24*
X4330000Y1650000D02*
X4380000D01*
X4400000Y1670000D01*
Y1779527D01*
X4100315Y1980315D02*
X4200000Y2080000D01*
X4380000D01*
X4400000Y2060000D01*
Y2000000D02*
Y2060000D01*
D25*
X4100315Y1937087D02*
Y1980315D01*
D26*
X2680512Y3043150D02*
X3601850D01*
D27*
X1458583Y1271417D02*
D03*
X1558583D02*
D03*
X1658583D02*
D03*
X1758583D02*
D03*
X1858583D02*
D03*
X1958583D02*
D03*
X2058583D02*
D03*
X2158583D02*
D03*
X2258583D02*
D03*
X2358583D02*
D03*
X2458583D02*
D03*
X2558583D02*
D03*
X2658583D02*
D03*
X2758583D02*
D03*
Y1871417D02*
D03*
X2658583D02*
D03*
X2558583D02*
D03*
X2458583D02*
D03*
X2358583D02*
D03*
X2258583D02*
D03*
X2158583D02*
D03*
X2058583D02*
D03*
X1958583D02*
D03*
X1858583D02*
D03*
X1758583D02*
D03*
X2958583Y1271417D02*
D03*
X3058583D02*
D03*
X3158583D02*
D03*
X3258583D02*
D03*
X3358583D02*
D03*
X3458583D02*
D03*
X3558583D02*
D03*
X3658583D02*
D03*
X3758583D02*
D03*
Y1871417D02*
D03*
X3658583D02*
D03*
X3558583D02*
D03*
X3458583D02*
D03*
X3358583D02*
D03*
X3258583D02*
D03*
X3158583D02*
D03*
X2858583Y1271417D02*
D03*
X1658583Y1871417D02*
D03*
X1558583D02*
D03*
X1458583D02*
D03*
X2858583D02*
D03*
X2958583D02*
D03*
X3058583D02*
D03*
X2658583Y271417D02*
D03*
X2558583D02*
D03*
X2658583Y921417D02*
D03*
X2558583D02*
D03*
X2858583Y271417D02*
D03*
X2758583D02*
D03*
X2858583Y921417D02*
D03*
X2758583D02*
D03*
X3058583Y271417D02*
D03*
X2958583D02*
D03*
X3058583Y921417D02*
D03*
X2958583D02*
D03*
X3158583D02*
D03*
X3258583D02*
D03*
X3158583Y271417D02*
D03*
X3258583D02*
D03*
X3960000Y1460000D02*
D03*
Y1360000D02*
D03*
X290000Y2470000D02*
D03*
Y2170000D02*
D03*
Y2270000D02*
D03*
Y2370000D02*
D03*
X430000Y2470000D02*
D03*
Y2170000D02*
D03*
Y2270000D02*
D03*
Y2370000D02*
D03*
X570000Y2470000D02*
D03*
Y2170000D02*
D03*
Y2270000D02*
D03*
Y2370000D02*
D03*
X710000Y2470000D02*
D03*
Y2170000D02*
D03*
Y2270000D02*
D03*
Y2370000D02*
D03*
X850000Y2470000D02*
D03*
Y2170000D02*
D03*
Y2270000D02*
D03*
Y2370000D02*
D03*
X990000Y2470000D02*
D03*
Y2170000D02*
D03*
Y2270000D02*
D03*
Y2370000D02*
D03*
X678583Y676417D02*
D03*
X578583D02*
D03*
X478583D02*
D03*
X628583Y776417D02*
D03*
X528583D02*
D03*
X753583Y426417D02*
D03*
X353583D02*
D03*
X1318583Y676417D02*
D03*
X1218583D02*
D03*
X1118583D02*
D03*
X1268583Y776417D02*
D03*
X1168583D02*
D03*
X1393583Y426417D02*
D03*
X993583D02*
D03*
X1558583Y2171417D02*
D03*
X1658583D02*
D03*
X1758583D02*
D03*
X1858583D02*
D03*
X2258583D02*
D03*
X2158583D02*
D03*
X2058583D02*
D03*
X1958583D02*
D03*
X2658583D02*
D03*
X2558583D02*
D03*
X2458583D02*
D03*
X2358583D02*
D03*
X3058583D02*
D03*
X2958583D02*
D03*
X2858583D02*
D03*
X2758583D02*
D03*
X3458583D02*
D03*
X3558583D02*
D03*
X3658583D02*
D03*
X3158583D02*
D03*
X3258583D02*
D03*
X3358583D02*
D03*
X1458583D02*
D03*
X330000Y1140000D02*
D03*
X430000D02*
D03*
D28*
X3960000Y1260000D02*
D03*
X290000Y2070000D02*
D03*
X430000D02*
D03*
X570000D02*
D03*
X710000D02*
D03*
X850000D02*
D03*
X990000D02*
D03*
D29*
X4300000Y3043465D02*
D03*
Y2760000D02*
D03*
X3603583Y3044882D02*
D03*
Y2761417D02*
D03*
X1308780Y3036417D02*
D03*
Y2752953D02*
D03*
X2678780Y3041417D02*
D03*
Y2757953D02*
D03*
D30*
X428583Y776417D02*
D03*
X1068583D02*
D03*
X3758583Y2171417D02*
D03*
X530000Y1140000D02*
D03*
D31*
X4620000Y3240000D02*
D03*
Y130000D02*
D03*
X150000D02*
D03*
X160000Y3240000D02*
D03*
D32*
X4260000Y1160000D02*
D03*
Y1220000D02*
D03*
Y1280000D02*
D03*
Y1340000D02*
D03*
X1370000Y1440000D02*
D03*
X950000Y1560000D02*
D03*
X1800000Y1620000D02*
D03*
X1000000Y980000D02*
D03*
X1545000Y1715000D02*
D03*
X2190000Y2540000D02*
D03*
%TF.MD5,a18cf46b46d0e849fa9c2b67245f43d9*%
M02*
