G04*
G04 #@! TF.GenerationSoftware,Altium Limited,Altium Designer,19.1.8 (144)*
G04*
G04 Layer_Color=16711935*
%FSLAX25Y25*%
%MOIN*%
G70*
G01*
G75*
%ADD52C,0.00394*%
D52*
X126094Y140417D02*
X125831Y141402D01*
X125110Y142122D01*
X124126Y142386D01*
X123142Y142122D01*
X122421Y141402D01*
X122158Y140417D01*
X122421Y139433D01*
X123142Y138713D01*
X124126Y138449D01*
X125110Y138713D01*
X125831Y139433D01*
X126094Y140417D01*
X209071Y290134D02*
X208807Y291118D01*
X208087Y291839D01*
X207102Y292102D01*
X206118Y291839D01*
X205398Y291118D01*
X205134Y290134D01*
X205398Y289150D01*
X206118Y288429D01*
X207102Y288165D01*
X208087Y288429D01*
X208807Y289150D01*
X209071Y290134D01*
X418716Y111811D02*
Y138189D01*
X433284Y111811D02*
Y138189D01*
X418716D02*
X433284D01*
X418716Y111811D02*
X433284D01*
X181020Y260874D02*
X185980D01*
X181020Y252409D02*
X185980D01*
Y260874D01*
X181020Y252409D02*
Y260874D01*
X86331Y114039D02*
Y143961D01*
X127669Y114039D02*
Y143961D01*
X86331Y114039D02*
X127669D01*
X86331Y143961D02*
X127669D01*
X191354Y293677D02*
X210646D01*
X191354Y278323D02*
X210646D01*
Y293677D01*
X191354Y278323D02*
Y293677D01*
X129874Y214520D02*
Y219480D01*
X121409Y214520D02*
Y219480D01*
X129874D01*
X121409Y214520D02*
X129874D01*
Y205520D02*
Y210480D01*
X121409Y205520D02*
Y210480D01*
X129874D01*
X121409Y205520D02*
X129874D01*
X170520Y252409D02*
X175480D01*
X170520Y260874D02*
X175480D01*
X170520Y252409D02*
Y260874D01*
X175480Y252409D02*
Y260874D01*
X40520Y94410D02*
X45480D01*
X40520Y102874D02*
X45480D01*
X40520Y94410D02*
Y102874D01*
X45480Y94410D02*
Y102874D01*
X407409Y162520D02*
Y167480D01*
X415874Y162520D02*
Y167480D01*
X407409D02*
X415874D01*
X407409Y162520D02*
X415874D01*
X386409Y162520D02*
Y167480D01*
X394874Y162520D02*
Y167480D01*
X386409D02*
X394874D01*
X386409Y162520D02*
X394874D01*
X425126Y162520D02*
Y167480D01*
X433591Y162520D02*
Y167480D01*
X425126D02*
X433591D01*
X425126Y162520D02*
X433591D01*
X97480Y164409D02*
Y172874D01*
X92520Y164409D02*
Y172874D01*
X97480D01*
X92520Y164409D02*
X97480D01*
X128409Y100480D02*
X136874D01*
X128409Y95520D02*
X136874D01*
X128409D02*
Y100480D01*
X136874Y95520D02*
Y100480D01*
X262126Y11480D02*
X270590D01*
X262126Y6520D02*
X270590D01*
X262126D02*
Y11480D01*
X270590Y6520D02*
Y11480D01*
X415410Y218520D02*
X423874D01*
X415410Y223480D02*
X423874D01*
Y218520D02*
Y223480D01*
X415410Y218520D02*
Y223480D01*
X425410Y154520D02*
X433874D01*
X425410Y159480D02*
X433874D01*
Y154520D02*
Y159480D01*
X425410Y154520D02*
Y159480D01*
X425409Y145520D02*
X433874D01*
X425409Y150480D02*
X433874D01*
Y145520D02*
Y150480D01*
X425409Y145520D02*
Y150480D01*
X400126Y182480D02*
X408591D01*
X400126Y177520D02*
X408591D01*
X400126D02*
Y182480D01*
X408591Y177520D02*
Y182480D01*
X206520Y253126D02*
Y261591D01*
X211480Y253126D02*
Y261591D01*
X206520Y253126D02*
X211480D01*
X206520Y261591D02*
X211480D01*
X196520Y253126D02*
Y261591D01*
X201480Y253126D02*
Y261591D01*
X196520Y253126D02*
X201480D01*
X196520Y261591D02*
X201480D01*
M02*
