G04*
G04 #@! TF.GenerationSoftware,Altium Limited,Altium Designer,19.1.8 (144)*
G04*
G04 Layer_Color=255*
%FSLAX25Y25*%
%MOIN*%
G70*
G01*
G75*
%ADD14R,0.12598X0.06299*%
%ADD15R,0.01772X0.05709*%
%ADD16R,0.08465X0.03937*%
%ADD17R,0.08465X0.12795*%
%ADD18R,0.05118X0.04134*%
%ADD19O,0.02559X0.08268*%
%ADD20R,0.02362X0.06890*%
%ADD21R,0.04134X0.05118*%
%ADD22R,0.12795X0.09843*%
%ADD23R,0.05512X0.04134*%
%ADD24R,0.04134X0.05512*%
%ADD46C,0.06000*%
%ADD47R,0.06000X0.06000*%
%ADD48C,0.23622*%
%ADD49R,0.06000X0.06000*%
D14*
X383600Y239300D02*
D03*
X403679D02*
D03*
X449779Y238600D02*
D03*
X429700D02*
D03*
D15*
X407441Y211000D02*
D03*
X410000D02*
D03*
X412559D02*
D03*
X415118D02*
D03*
Y193677D02*
D03*
X412559D02*
D03*
X410000D02*
D03*
X407441D02*
D03*
D16*
X414484Y134055D02*
D03*
Y125000D02*
D03*
Y115945D02*
D03*
D17*
X437516Y125000D02*
D03*
D18*
X183500Y260283D02*
D03*
Y253000D02*
D03*
X173000Y253000D02*
D03*
Y260283D02*
D03*
X43000Y95000D02*
D03*
Y102284D02*
D03*
D19*
X89500Y109906D02*
D03*
X94500D02*
D03*
X99500D02*
D03*
X104500D02*
D03*
X109500D02*
D03*
X114500D02*
D03*
X119500D02*
D03*
X124500D02*
D03*
X89500Y148094D02*
D03*
X94500D02*
D03*
X99500D02*
D03*
X104500D02*
D03*
X109500D02*
D03*
X114500D02*
D03*
X119500D02*
D03*
X124500D02*
D03*
D20*
X208500Y297122D02*
D03*
X203500D02*
D03*
X198500D02*
D03*
X193500D02*
D03*
X208500Y274878D02*
D03*
X203500D02*
D03*
X198500D02*
D03*
X193500D02*
D03*
D21*
X408000Y165000D02*
D03*
X415283D02*
D03*
X387000Y165000D02*
D03*
X394283D02*
D03*
X425717Y165000D02*
D03*
X433000D02*
D03*
D22*
X440000Y177953D02*
D03*
Y200000D02*
D03*
D23*
X95000Y172283D02*
D03*
Y165000D02*
D03*
X209000Y253717D02*
D03*
Y261000D02*
D03*
X199000Y253716D02*
D03*
Y261000D02*
D03*
D24*
X129000Y98000D02*
D03*
X136284D02*
D03*
X262717Y9000D02*
D03*
X270000D02*
D03*
X423283Y221000D02*
D03*
X416000D02*
D03*
X433284Y157000D02*
D03*
X426000D02*
D03*
X433283Y148000D02*
D03*
X426000D02*
D03*
X400717Y180000D02*
D03*
X408000D02*
D03*
D46*
X145858Y127142D02*
D03*
X155858D02*
D03*
X165858D02*
D03*
X175858D02*
D03*
X185858D02*
D03*
X195858D02*
D03*
X205858D02*
D03*
X215858D02*
D03*
X225858D02*
D03*
X235858D02*
D03*
X245858D02*
D03*
X255858D02*
D03*
X265858D02*
D03*
X275858D02*
D03*
Y187142D02*
D03*
X265858D02*
D03*
X255858D02*
D03*
X245858D02*
D03*
X235858D02*
D03*
X225858D02*
D03*
X215858D02*
D03*
X205858D02*
D03*
X195858D02*
D03*
X185858D02*
D03*
X175858D02*
D03*
X295858Y127142D02*
D03*
X305858D02*
D03*
X315858D02*
D03*
X325858D02*
D03*
X335858D02*
D03*
X345858D02*
D03*
X355858D02*
D03*
X365858D02*
D03*
X375858D02*
D03*
Y187142D02*
D03*
X365858D02*
D03*
X355858D02*
D03*
X345858D02*
D03*
X335858D02*
D03*
X325858D02*
D03*
X315858D02*
D03*
X285858Y127142D02*
D03*
X165858Y187142D02*
D03*
X155858D02*
D03*
X145858D02*
D03*
X285858D02*
D03*
X295858D02*
D03*
X305858D02*
D03*
X265858Y27142D02*
D03*
X255858D02*
D03*
X265858Y92142D02*
D03*
X255858D02*
D03*
X285858Y27142D02*
D03*
X275858D02*
D03*
X285858Y92142D02*
D03*
X275858D02*
D03*
X305858Y27142D02*
D03*
X295858D02*
D03*
X305858Y92142D02*
D03*
X295858D02*
D03*
X315858D02*
D03*
X325858D02*
D03*
X315858Y27142D02*
D03*
X325858D02*
D03*
X396000Y146000D02*
D03*
Y136000D02*
D03*
X29000Y247000D02*
D03*
Y217000D02*
D03*
Y227000D02*
D03*
Y237000D02*
D03*
X43000Y247000D02*
D03*
Y217000D02*
D03*
Y227000D02*
D03*
Y237000D02*
D03*
X57000Y247000D02*
D03*
Y217000D02*
D03*
Y227000D02*
D03*
Y237000D02*
D03*
X71000Y247000D02*
D03*
Y217000D02*
D03*
Y227000D02*
D03*
Y237000D02*
D03*
X85000Y247000D02*
D03*
Y217000D02*
D03*
Y227000D02*
D03*
Y237000D02*
D03*
X99000Y247000D02*
D03*
Y217000D02*
D03*
Y227000D02*
D03*
Y237000D02*
D03*
X67858Y67642D02*
D03*
X57858D02*
D03*
X47858D02*
D03*
X62858Y77642D02*
D03*
X52858D02*
D03*
X75358Y42642D02*
D03*
X35358D02*
D03*
X131858Y67642D02*
D03*
X121858D02*
D03*
X111858D02*
D03*
X126858Y77642D02*
D03*
X116858D02*
D03*
X139358Y42642D02*
D03*
X99358D02*
D03*
X155858Y217142D02*
D03*
X165858D02*
D03*
X175858D02*
D03*
X185858D02*
D03*
X225858D02*
D03*
X215858D02*
D03*
X205858D02*
D03*
X195858D02*
D03*
X265858D02*
D03*
X255858D02*
D03*
X245858D02*
D03*
X235858D02*
D03*
X305858D02*
D03*
X295858D02*
D03*
X285858D02*
D03*
X275858D02*
D03*
X345858D02*
D03*
X355858D02*
D03*
X365858D02*
D03*
X315858D02*
D03*
X325858D02*
D03*
X335858D02*
D03*
X145858D02*
D03*
X33000Y114000D02*
D03*
X43000D02*
D03*
X462000Y324000D02*
D03*
Y13000D02*
D03*
X15000D02*
D03*
X16000Y324000D02*
D03*
D47*
X396000Y126000D02*
D03*
X29000Y207000D02*
D03*
X43000D02*
D03*
X57000D02*
D03*
X71000D02*
D03*
X85000D02*
D03*
X99000D02*
D03*
D48*
X430000Y304346D02*
D03*
Y276000D02*
D03*
X360358Y304488D02*
D03*
Y276142D02*
D03*
X130878Y303642D02*
D03*
Y275295D02*
D03*
X267878Y304142D02*
D03*
Y275795D02*
D03*
D49*
X42858Y77642D02*
D03*
X106858D02*
D03*
X375858Y217142D02*
D03*
X53000Y114000D02*
D03*
M02*
