G04*
G04 #@! TF.GenerationSoftware,Altium Limited,Altium Designer,19.1.8 (144)*
G04*
G04 Layer_Physical_Order=1*
G04 Layer_Color=255*
%FSLAX25Y25*%
%MOIN*%
G70*
G01*
G75*
%ADD10C,0.01000*%
%ADD14R,0.12598X0.06299*%
%ADD15R,0.01772X0.05709*%
%ADD16R,0.08465X0.03937*%
%ADD17R,0.08465X0.12795*%
%ADD18R,0.05118X0.04134*%
%ADD19O,0.02559X0.08268*%
%ADD20R,0.02362X0.06890*%
%ADD21R,0.04134X0.05118*%
%ADD22R,0.12795X0.09843*%
%ADD23R,0.05512X0.04134*%
%ADD24R,0.04134X0.05512*%
%ADD41C,0.02000*%
%ADD42C,0.01500*%
%ADD43C,0.01800*%
%ADD44C,0.01700*%
%ADD45C,0.25000*%
%ADD46C,0.06000*%
%ADD47R,0.06000X0.06000*%
%ADD48C,0.23622*%
%ADD49R,0.06000X0.06000*%
%ADD50C,0.05000*%
G36*
X452000Y312000D02*
X472000D01*
Y26000D01*
X451000D01*
Y0D01*
X159000D01*
Y107000D01*
X132000Y134000D01*
X3000D01*
Y314000D01*
X29000D01*
Y336000D01*
X452000D01*
Y312000D01*
D02*
G37*
G36*
X151000Y105000D02*
Y-27D01*
X150646Y-380D01*
X26000Y-3D01*
Y24000D01*
X3000D01*
Y130000D01*
X126000D01*
X151000Y105000D01*
D02*
G37*
%LPC*%
G36*
X360185Y317556D02*
X268051D01*
X265980Y317393D01*
X263960Y316908D01*
X263491Y316714D01*
X214000Y316714D01*
X213727Y316659D01*
X213495Y316505D01*
X201495Y304505D01*
X201341Y304273D01*
X201286Y304000D01*
Y295000D01*
X201341Y294727D01*
X201495Y294495D01*
X201619Y294413D01*
Y292977D01*
X205381D01*
Y294286D01*
X206619D01*
Y292977D01*
X210381D01*
Y294286D01*
X259468D01*
X260268Y293603D01*
X262040Y292517D01*
X263960Y291722D01*
X265980Y291237D01*
X268051Y291074D01*
X360185D01*
X362256Y291237D01*
X364277Y291722D01*
X366196Y292517D01*
X367968Y293603D01*
X369548Y294952D01*
X370897Y296532D01*
X371983Y298304D01*
X372778Y300223D01*
X373263Y302244D01*
X373426Y304315D01*
X373263Y306386D01*
X372778Y308407D01*
X371983Y310326D01*
X370897Y312098D01*
X369548Y313678D01*
X367968Y315027D01*
X366196Y316113D01*
X364277Y316908D01*
X362256Y317393D01*
X360185Y317556D01*
D02*
G37*
G36*
X188000Y316714D02*
X130878D01*
X130784Y316695D01*
X130688Y316688D01*
X130649Y316668D01*
X130605Y316659D01*
X130525Y316606D01*
X130439Y316563D01*
X130410Y316529D01*
X130373Y316505D01*
X130320Y316425D01*
X130257Y316353D01*
X130243Y316310D01*
X130219Y316273D01*
X130207Y316217D01*
X130123Y316132D01*
X128915Y316037D01*
X127000Y315577D01*
X125180Y314824D01*
X123501Y313795D01*
X122004Y312516D01*
X120725Y311018D01*
X119696Y309339D01*
X118942Y307520D01*
X118483Y305605D01*
X118328Y303642D01*
X118483Y301678D01*
X118942Y299764D01*
X119696Y297944D01*
X120725Y296265D01*
X122004Y294768D01*
X123501Y293489D01*
X125180Y292460D01*
X127000Y291706D01*
X128915Y291247D01*
X130878Y291092D01*
X132841Y291247D01*
X134756Y291706D01*
X136575Y292460D01*
X138254Y293489D01*
X139188Y294286D01*
X171776Y294286D01*
Y263050D01*
X169741D01*
Y257517D01*
X173133D01*
X173324Y257054D01*
X172135Y255865D01*
X172069Y255767D01*
X169741D01*
Y250233D01*
X176259D01*
Y255493D01*
X180241D01*
Y250233D01*
X182077D01*
Y246700D01*
X182170Y246232D01*
X182435Y245835D01*
X190135Y238135D01*
X190532Y237870D01*
X191000Y237776D01*
X211493D01*
X227135Y222135D01*
X227532Y221870D01*
X228000Y221777D01*
X245857D01*
X246316Y221318D01*
X246082Y220844D01*
X245858Y220874D01*
X244892Y220746D01*
X243992Y220374D01*
X243219Y219781D01*
X242626Y219008D01*
X242253Y218108D01*
X242126Y217142D01*
X242253Y216176D01*
X242626Y215276D01*
X243219Y214503D01*
X243992Y213910D01*
X244892Y213537D01*
X245858Y213410D01*
X246824Y213537D01*
X247724Y213910D01*
X248497Y214503D01*
X249090Y215276D01*
X249463Y216176D01*
X249554Y216864D01*
X250071Y217131D01*
X250135Y217091D01*
Y192642D01*
X250228Y192174D01*
X250493Y191777D01*
X252902Y189367D01*
X252626Y189008D01*
X252254Y188108D01*
X252126Y187142D01*
X252254Y186176D01*
X252626Y185276D01*
X253219Y184503D01*
X253992Y183910D01*
X254892Y183537D01*
X255858Y183410D01*
X256824Y183537D01*
X257724Y183910D01*
X258497Y184503D01*
X259090Y185276D01*
X259463Y186176D01*
X259590Y187142D01*
X259463Y188108D01*
X259090Y189008D01*
X258497Y189781D01*
X257724Y190374D01*
X256824Y190746D01*
X255858Y190874D01*
X254973Y190757D01*
X252582Y193149D01*
Y214513D01*
X253082Y214682D01*
X253219Y214503D01*
X253992Y213910D01*
X254892Y213537D01*
X255858Y213410D01*
X256824Y213537D01*
X257724Y213910D01*
X258497Y214503D01*
X259090Y215276D01*
X259463Y216176D01*
X259554Y216864D01*
X260071Y217131D01*
X260135Y217091D01*
Y191642D01*
X260228Y191174D01*
X260493Y190777D01*
X262520Y188750D01*
X262253Y188108D01*
X262126Y187142D01*
X262253Y186176D01*
X262626Y185276D01*
X263219Y184503D01*
X263992Y183910D01*
X264892Y183537D01*
X265858Y183410D01*
X266824Y183537D01*
X267724Y183910D01*
X268497Y184503D01*
X269090Y185276D01*
X269463Y186176D01*
X269590Y187142D01*
X269463Y188108D01*
X269090Y189008D01*
X268497Y189781D01*
X267724Y190374D01*
X266824Y190746D01*
X265858Y190874D01*
X264892Y190746D01*
X264250Y190480D01*
X262582Y192149D01*
Y214513D01*
X263082Y214682D01*
X263219Y214503D01*
X263992Y213910D01*
X264892Y213537D01*
X265858Y213410D01*
X266824Y213537D01*
X267724Y213910D01*
X268497Y214503D01*
X269090Y215276D01*
X269463Y216176D01*
X269590Y217142D01*
X269463Y218108D01*
X269090Y219008D01*
X268497Y219781D01*
X267724Y220374D01*
X266824Y220746D01*
X265858Y220874D01*
X264892Y220746D01*
X263992Y220374D01*
X263219Y219781D01*
X262684Y219082D01*
X262565Y219028D01*
X262441Y219008D01*
X262086Y219009D01*
X253726Y227368D01*
X253329Y227633D01*
X252861Y227726D01*
X229776D01*
X207315Y250188D01*
X207500Y250635D01*
Y253717D01*
X209000D01*
Y255217D01*
X212756D01*
Y256060D01*
X215210D01*
X216044Y255226D01*
X215882Y254835D01*
X215772Y254000D01*
X215882Y253165D01*
X216205Y252386D01*
X216718Y251718D01*
X217386Y251205D01*
X218165Y250882D01*
X219000Y250772D01*
X219835Y250882D01*
X220614Y251205D01*
X221282Y251718D01*
X221795Y252386D01*
X222118Y253165D01*
X222228Y254000D01*
X222118Y254835D01*
X221795Y255614D01*
X221282Y256282D01*
X220614Y256795D01*
X219835Y257118D01*
X219000Y257228D01*
X218165Y257118D01*
X217774Y256956D01*
X216582Y258149D01*
X216185Y258414D01*
X215717Y258507D01*
X212456D01*
Y263767D01*
X209723D01*
Y270733D01*
X210381D01*
Y279023D01*
X206619D01*
Y270733D01*
X207277D01*
Y263767D01*
X205544D01*
Y258233D01*
X207776D01*
Y258000D01*
X207870Y257532D01*
X208035Y257283D01*
X207829Y256784D01*
X205244D01*
Y253491D01*
X204744Y253224D01*
X204724Y253237D01*
Y270733D01*
X205381D01*
Y279023D01*
X201619D01*
Y270733D01*
X202276D01*
Y263767D01*
X199723D01*
Y270733D01*
X200381D01*
Y279023D01*
X196619D01*
Y270733D01*
X197276D01*
Y263767D01*
X195544D01*
Y258233D01*
X202276D01*
Y256784D01*
X200500D01*
Y253716D01*
Y250650D01*
X202756D01*
Y250650D01*
X203206Y250836D01*
X228404Y225638D01*
X228801Y225373D01*
X229270Y225279D01*
X252354D01*
X256316Y221318D01*
X256082Y220844D01*
X255858Y220874D01*
X254892Y220746D01*
X253992Y220374D01*
X253219Y219781D01*
X252683Y219082D01*
X252565Y219028D01*
X252441Y219008D01*
X252085Y219009D01*
X247229Y223865D01*
X246832Y224130D01*
X246364Y224223D01*
X228507D01*
X212865Y239865D01*
X212468Y240130D01*
X212000Y240224D01*
X191507D01*
X184523Y247207D01*
Y250233D01*
X186759D01*
Y255767D01*
X183931D01*
X183865Y255865D01*
X182976Y256755D01*
X183167Y257217D01*
X187059D01*
Y258784D01*
X179941D01*
Y257940D01*
X176259D01*
Y263050D01*
X174223D01*
Y294286D01*
X191619Y294286D01*
Y292977D01*
X195381D01*
Y294286D01*
X196619D01*
Y292977D01*
X200381D01*
Y294413D01*
X200505Y294495D01*
X200659Y294727D01*
X200714Y295000D01*
X200714Y304000D01*
X200659Y304273D01*
X200505Y304505D01*
X188505Y316505D01*
X188273Y316659D01*
X188000Y316714D01*
D02*
G37*
G36*
X361858Y288874D02*
Y277642D01*
X373091D01*
X373051Y278152D01*
X372580Y280113D01*
X371808Y281976D01*
X370755Y283695D01*
X369445Y285228D01*
X367912Y286538D01*
X366192Y287592D01*
X364329Y288363D01*
X362369Y288834D01*
X361858Y288874D01*
D02*
G37*
G36*
X358858D02*
X358348Y288834D01*
X356387Y288363D01*
X354524Y287592D01*
X352805Y286538D01*
X351272Y285228D01*
X349962Y283695D01*
X348908Y281976D01*
X348137Y280113D01*
X347666Y278152D01*
X347626Y277642D01*
X358858D01*
Y288874D01*
D02*
G37*
G36*
X431500Y288733D02*
Y277500D01*
X442733D01*
X442692Y278010D01*
X442222Y279971D01*
X441450Y281834D01*
X440396Y283553D01*
X439087Y285087D01*
X437553Y286396D01*
X435834Y287450D01*
X433971Y288222D01*
X432010Y288692D01*
X431500Y288733D01*
D02*
G37*
G36*
X428500D02*
X427990Y288692D01*
X426029Y288222D01*
X424166Y287450D01*
X422447Y286396D01*
X420913Y285087D01*
X419604Y283553D01*
X418550Y281834D01*
X417778Y279971D01*
X417308Y278010D01*
X417267Y277500D01*
X428500D01*
Y288733D01*
D02*
G37*
G36*
X269378Y288528D02*
Y277295D01*
X280610D01*
X280570Y277805D01*
X280100Y279766D01*
X279328Y281629D01*
X278274Y283349D01*
X276965Y284882D01*
X275431Y286192D01*
X273712Y287245D01*
X271849Y288017D01*
X269888Y288488D01*
X269378Y288528D01*
D02*
G37*
G36*
X266378D02*
X265868Y288488D01*
X263907Y288017D01*
X262044Y287245D01*
X260325Y286192D01*
X258791Y284882D01*
X257482Y283349D01*
X256428Y281629D01*
X255656Y279766D01*
X255186Y277805D01*
X255145Y277295D01*
X266378D01*
Y288528D01*
D02*
G37*
G36*
X132378Y288028D02*
Y276795D01*
X143611D01*
X143570Y277306D01*
X143100Y279266D01*
X142328Y281129D01*
X141274Y282849D01*
X139965Y284382D01*
X138431Y285692D01*
X136712Y286745D01*
X134849Y287517D01*
X132888Y287988D01*
X132378Y288028D01*
D02*
G37*
G36*
X129378D02*
X128868Y287988D01*
X126907Y287517D01*
X125044Y286745D01*
X123325Y285692D01*
X121791Y284382D01*
X120482Y282849D01*
X119428Y281129D01*
X118656Y279266D01*
X118185Y277306D01*
X118145Y276795D01*
X129378D01*
Y288028D01*
D02*
G37*
G36*
X195681Y279323D02*
X195000D01*
Y276378D01*
X195681D01*
Y279323D01*
D02*
G37*
G36*
X192000D02*
X191319D01*
Y276378D01*
X192000D01*
Y279323D01*
D02*
G37*
G36*
X195681Y273378D02*
X195000D01*
Y270433D01*
X195681D01*
Y273378D01*
D02*
G37*
G36*
X192000D02*
X191319D01*
Y270433D01*
X192000D01*
Y273378D01*
D02*
G37*
G36*
X373091Y274642D02*
X361858D01*
Y263409D01*
X362369Y263449D01*
X364329Y263920D01*
X366192Y264692D01*
X367912Y265745D01*
X369445Y267055D01*
X370755Y268588D01*
X371808Y270308D01*
X372580Y272171D01*
X373051Y274131D01*
X373091Y274642D01*
D02*
G37*
G36*
X358858D02*
X347626D01*
X347666Y274131D01*
X348137Y272171D01*
X348908Y270308D01*
X349962Y268588D01*
X351272Y267055D01*
X352805Y265745D01*
X354524Y264692D01*
X356387Y263920D01*
X358348Y263449D01*
X358858Y263409D01*
Y274642D01*
D02*
G37*
G36*
X442733Y274500D02*
X431500D01*
Y263267D01*
X432010Y263308D01*
X433971Y263778D01*
X435834Y264550D01*
X437553Y265604D01*
X439087Y266913D01*
X440396Y268447D01*
X441450Y270166D01*
X442222Y272029D01*
X442692Y273990D01*
X442733Y274500D01*
D02*
G37*
G36*
X428500D02*
X417267D01*
X417308Y273990D01*
X417778Y272029D01*
X418550Y270166D01*
X419604Y268447D01*
X420913Y266913D01*
X422447Y265604D01*
X424166Y264550D01*
X426029Y263778D01*
X427990Y263308D01*
X428500Y263267D01*
Y274500D01*
D02*
G37*
G36*
X280610Y274295D02*
X269378D01*
Y263063D01*
X269888Y263103D01*
X271849Y263574D01*
X273712Y264345D01*
X275431Y265399D01*
X276965Y266708D01*
X278274Y268242D01*
X279328Y269961D01*
X280100Y271824D01*
X280570Y273785D01*
X280610Y274295D01*
D02*
G37*
G36*
X266378D02*
X255145D01*
X255186Y273785D01*
X255656Y271824D01*
X256428Y269961D01*
X257482Y268242D01*
X258791Y266708D01*
X260325Y265399D01*
X262044Y264345D01*
X263907Y263574D01*
X265868Y263103D01*
X266378Y263063D01*
Y274295D01*
D02*
G37*
G36*
X143611Y273795D02*
X132378D01*
Y262563D01*
X132888Y262603D01*
X134849Y263074D01*
X136712Y263845D01*
X138431Y264899D01*
X139965Y266209D01*
X141274Y267742D01*
X142328Y269461D01*
X143100Y271324D01*
X143570Y273285D01*
X143611Y273795D01*
D02*
G37*
G36*
X129378D02*
X118145D01*
X118185Y273285D01*
X118656Y271324D01*
X119428Y269461D01*
X120482Y267742D01*
X121791Y266209D01*
X123325Y264899D01*
X125044Y263845D01*
X126907Y263074D01*
X128868Y262603D01*
X129378Y262563D01*
Y273795D01*
D02*
G37*
G36*
X187059Y263350D02*
X185000D01*
Y261784D01*
X187059D01*
Y263350D01*
D02*
G37*
G36*
X182000D02*
X179941D01*
Y261784D01*
X182000D01*
Y263350D01*
D02*
G37*
G36*
X197500Y256784D02*
X195244D01*
Y255217D01*
X197500D01*
Y256784D01*
D02*
G37*
G36*
X212756Y252217D02*
X210500D01*
Y250650D01*
X212756D01*
Y252217D01*
D02*
G37*
G36*
X197500Y252217D02*
X195244D01*
Y250650D01*
X197500D01*
Y252217D01*
D02*
G37*
G36*
X99000Y250732D02*
X98034Y250605D01*
X97134Y250232D01*
X96361Y249639D01*
X95768Y248866D01*
X95395Y247966D01*
X95268Y247000D01*
X95395Y246034D01*
X95768Y245134D01*
X96361Y244361D01*
X97134Y243768D01*
X98034Y243395D01*
X99000Y243268D01*
X99966Y243395D01*
X100866Y243768D01*
X101639Y244361D01*
X102232Y245134D01*
X102605Y246034D01*
X102732Y247000D01*
X102605Y247966D01*
X102232Y248866D01*
X101639Y249639D01*
X100866Y250232D01*
X99966Y250605D01*
X99000Y250732D01*
D02*
G37*
G36*
X85000D02*
X84034Y250605D01*
X83134Y250232D01*
X82361Y249639D01*
X81768Y248866D01*
X81395Y247966D01*
X81268Y247000D01*
X81395Y246034D01*
X81768Y245134D01*
X82361Y244361D01*
X83134Y243768D01*
X84034Y243395D01*
X85000Y243268D01*
X85966Y243395D01*
X86866Y243768D01*
X87639Y244361D01*
X88232Y245134D01*
X88605Y246034D01*
X88732Y247000D01*
X88605Y247966D01*
X88232Y248866D01*
X87639Y249639D01*
X86866Y250232D01*
X85966Y250605D01*
X85000Y250732D01*
D02*
G37*
G36*
X71000D02*
X70034Y250605D01*
X69134Y250232D01*
X68361Y249639D01*
X67768Y248866D01*
X67395Y247966D01*
X67268Y247000D01*
X67395Y246034D01*
X67768Y245134D01*
X68361Y244361D01*
X69134Y243768D01*
X70034Y243395D01*
X71000Y243268D01*
X71966Y243395D01*
X72866Y243768D01*
X73639Y244361D01*
X74232Y245134D01*
X74605Y246034D01*
X74732Y247000D01*
X74605Y247966D01*
X74232Y248866D01*
X73639Y249639D01*
X72866Y250232D01*
X71966Y250605D01*
X71000Y250732D01*
D02*
G37*
G36*
X57000D02*
X56034Y250605D01*
X55134Y250232D01*
X54361Y249639D01*
X53768Y248866D01*
X53395Y247966D01*
X53268Y247000D01*
X53395Y246034D01*
X53768Y245134D01*
X54361Y244361D01*
X55134Y243768D01*
X56034Y243395D01*
X57000Y243268D01*
X57966Y243395D01*
X58866Y243768D01*
X59639Y244361D01*
X60232Y245134D01*
X60605Y246034D01*
X60732Y247000D01*
X60605Y247966D01*
X60232Y248866D01*
X59639Y249639D01*
X58866Y250232D01*
X57966Y250605D01*
X57000Y250732D01*
D02*
G37*
G36*
X43000D02*
X42034Y250605D01*
X41134Y250232D01*
X40361Y249639D01*
X39768Y248866D01*
X39395Y247966D01*
X39268Y247000D01*
X39395Y246034D01*
X39768Y245134D01*
X40361Y244361D01*
X41134Y243768D01*
X42034Y243395D01*
X43000Y243268D01*
X43966Y243395D01*
X44866Y243768D01*
X45639Y244361D01*
X46232Y245134D01*
X46605Y246034D01*
X46732Y247000D01*
X46605Y247966D01*
X46232Y248866D01*
X45639Y249639D01*
X44866Y250232D01*
X43966Y250605D01*
X43000Y250732D01*
D02*
G37*
G36*
X29000D02*
X28034Y250605D01*
X27134Y250232D01*
X26361Y249639D01*
X25768Y248866D01*
X25395Y247966D01*
X25268Y247000D01*
X25395Y246034D01*
X25768Y245134D01*
X26361Y244361D01*
X27134Y243768D01*
X28034Y243395D01*
X29000Y243268D01*
X29966Y243395D01*
X30866Y243768D01*
X31639Y244361D01*
X32232Y245134D01*
X32605Y246034D01*
X32732Y247000D01*
X32605Y247966D01*
X32232Y248866D01*
X31639Y249639D01*
X30866Y250232D01*
X29966Y250605D01*
X29000Y250732D01*
D02*
G37*
G36*
X430000Y316896D02*
X428037Y316742D01*
X426122Y316282D01*
X424302Y315528D01*
X422623Y314499D01*
X421126Y313220D01*
X419847Y311723D01*
X418818Y310044D01*
X418064Y308225D01*
X417605Y306310D01*
X417450Y304346D01*
X417605Y302383D01*
X418064Y300468D01*
X418818Y298649D01*
X419847Y296970D01*
X421126Y295473D01*
X422623Y294194D01*
X424302Y293165D01*
X426122Y292411D01*
X428037Y291951D01*
X430000Y291797D01*
X431963Y291951D01*
X433878Y292411D01*
X435698Y293165D01*
X437376Y294194D01*
X437552Y294343D01*
X445267Y286629D01*
Y258718D01*
X428998Y242450D01*
X422701D01*
Y242014D01*
X410678D01*
Y243150D01*
X396679D01*
Y235450D01*
X402104D01*
X405786Y216000D01*
X405786Y210000D01*
X405841Y209727D01*
X405855Y209705D01*
Y207446D01*
X412483D01*
X412674Y206984D01*
X394276Y188586D01*
X394011Y188189D01*
X393918Y187721D01*
Y171000D01*
X394011Y170532D01*
X394276Y170135D01*
X395690Y168721D01*
X395499Y168259D01*
X391516D01*
Y161741D01*
X397050D01*
Y163777D01*
X405233D01*
Y161741D01*
X410767D01*
Y168259D01*
X405233D01*
Y166224D01*
X401649D01*
X396365Y171507D01*
Y187214D01*
X405093Y195942D01*
X405555Y195751D01*
Y195177D01*
X407441D01*
Y192177D01*
X405555D01*
Y189823D01*
X407943D01*
X408135Y189361D01*
X403135Y184361D01*
X402870Y183964D01*
X402776Y183496D01*
Y183456D01*
X397950D01*
Y176544D01*
X403484D01*
Y178790D01*
X403882Y178870D01*
X404279Y179135D01*
X404733Y179589D01*
X405233Y179402D01*
Y176544D01*
X410767D01*
Y179465D01*
X411311D01*
X411779Y179559D01*
X412176Y179824D01*
X413424Y181072D01*
X413689Y181469D01*
X413783Y181937D01*
Y189823D01*
X417004D01*
Y192177D01*
X415118D01*
Y193677D01*
X414145D01*
Y197232D01*
X413618D01*
Y197532D01*
X413232D01*
Y197232D01*
X412246D01*
X412039Y197732D01*
X420676Y206369D01*
X437242D01*
X437449Y206109D01*
X437232Y205621D01*
X432902D01*
Y194379D01*
X447098D01*
Y205621D01*
X441631D01*
Y206000D01*
X441507Y206624D01*
X441153Y207154D01*
X439153Y209154D01*
X438624Y209507D01*
X438000Y209631D01*
X420000D01*
X420000Y209631D01*
X419376Y209507D01*
X418847Y209154D01*
X417204Y207511D01*
X416704Y207718D01*
Y214554D01*
X413783D01*
Y217544D01*
X418767D01*
Y224456D01*
X413233D01*
Y220963D01*
X411714Y219444D01*
X411629Y219449D01*
X411214Y219605D01*
Y224234D01*
X435114Y234750D01*
X436699D01*
Y242450D01*
X434554D01*
X434363Y242912D01*
X448226Y256774D01*
X448601Y257337D01*
X448733Y258000D01*
Y287347D01*
X448601Y288010D01*
X448226Y288572D01*
X440003Y296795D01*
X440153Y296970D01*
X441182Y298649D01*
X441935Y300468D01*
X442395Y302383D01*
X442550Y304346D01*
X442395Y306310D01*
X441935Y308225D01*
X441182Y310044D01*
X440153Y311723D01*
X438874Y313220D01*
X437376Y314499D01*
X435698Y315528D01*
X433878Y316282D01*
X431963Y316742D01*
X430000Y316896D01*
D02*
G37*
G36*
X390899Y243450D02*
X385100D01*
Y240800D01*
X390899D01*
Y243450D01*
D02*
G37*
G36*
X382100D02*
X376301D01*
Y240800D01*
X382100D01*
Y243450D01*
D02*
G37*
G36*
X457078Y242750D02*
X451279D01*
Y240100D01*
X457078D01*
Y242750D01*
D02*
G37*
G36*
X448279D02*
X442480D01*
Y240100D01*
X448279D01*
Y242750D01*
D02*
G37*
G36*
X99000Y240732D02*
X98034Y240605D01*
X97134Y240232D01*
X96361Y239639D01*
X95768Y238866D01*
X95608Y238478D01*
X88393D01*
X88232Y238866D01*
X87639Y239639D01*
X86866Y240232D01*
X85966Y240605D01*
X85000Y240732D01*
X84034Y240605D01*
X83134Y240232D01*
X82361Y239639D01*
X81768Y238866D01*
X81608Y238478D01*
X74392D01*
X74232Y238866D01*
X73639Y239639D01*
X72866Y240232D01*
X71966Y240605D01*
X71000Y240732D01*
X70034Y240605D01*
X69134Y240232D01*
X68361Y239639D01*
X67768Y238866D01*
X67607Y238478D01*
X60392D01*
X60232Y238866D01*
X59639Y239639D01*
X58866Y240232D01*
X57966Y240605D01*
X57000Y240732D01*
X56034Y240605D01*
X55134Y240232D01*
X54361Y239639D01*
X53768Y238866D01*
X53607Y238478D01*
X46393D01*
X46232Y238866D01*
X45639Y239639D01*
X44866Y240232D01*
X43966Y240605D01*
X43000Y240732D01*
X42034Y240605D01*
X41134Y240232D01*
X40361Y239639D01*
X39768Y238866D01*
X39608Y238478D01*
X32392D01*
X32232Y238866D01*
X31639Y239639D01*
X30866Y240232D01*
X29966Y240605D01*
X29000Y240732D01*
X28034Y240605D01*
X27134Y240232D01*
X26361Y239639D01*
X25768Y238866D01*
X25395Y237966D01*
X25268Y237000D01*
X25395Y236034D01*
X25768Y235134D01*
X26361Y234361D01*
X27134Y233768D01*
X28034Y233395D01*
X29000Y233268D01*
X29966Y233395D01*
X30866Y233768D01*
X31639Y234361D01*
X32232Y235134D01*
X32392Y235522D01*
X39608D01*
X39768Y235134D01*
X40361Y234361D01*
X41134Y233768D01*
X42034Y233395D01*
X43000Y233268D01*
X43966Y233395D01*
X44866Y233768D01*
X45639Y234361D01*
X46232Y235134D01*
X46393Y235522D01*
X53607D01*
X53768Y235134D01*
X54361Y234361D01*
X55134Y233768D01*
X56034Y233395D01*
X57000Y233268D01*
X57966Y233395D01*
X58866Y233768D01*
X59639Y234361D01*
X60232Y235134D01*
X60392Y235522D01*
X67607D01*
X67768Y235134D01*
X68361Y234361D01*
X69134Y233768D01*
X70034Y233395D01*
X71000Y233268D01*
X71966Y233395D01*
X72866Y233768D01*
X73639Y234361D01*
X74232Y235134D01*
X74392Y235522D01*
X81608D01*
X81768Y235134D01*
X82361Y234361D01*
X83134Y233768D01*
X84034Y233395D01*
X85000Y233268D01*
X85966Y233395D01*
X86866Y233768D01*
X87639Y234361D01*
X88232Y235134D01*
X88393Y235522D01*
X95608D01*
X95768Y235134D01*
X96361Y234361D01*
X97134Y233768D01*
X98034Y233395D01*
X99000Y233268D01*
X99966Y233395D01*
X100354Y233556D01*
X143466Y190444D01*
X143433Y189945D01*
X143219Y189781D01*
X142626Y189008D01*
X142253Y188108D01*
X142126Y187142D01*
X142252Y186185D01*
X142238Y186166D01*
X141824Y185906D01*
X102339Y225392D01*
X102605Y226034D01*
X102732Y227000D01*
X102605Y227966D01*
X102232Y228866D01*
X101639Y229639D01*
X100866Y230232D01*
X99966Y230605D01*
X99000Y230732D01*
X98034Y230605D01*
X97134Y230232D01*
X96361Y229639D01*
X95768Y228866D01*
X95395Y227966D01*
X95268Y227000D01*
X95395Y226034D01*
X95768Y225134D01*
X96361Y224361D01*
X97134Y223768D01*
X98034Y223395D01*
X99000Y223268D01*
X99966Y223395D01*
X100608Y223661D01*
X151544Y172726D01*
X151382Y172335D01*
X151272Y171500D01*
X151382Y170665D01*
X151705Y169886D01*
X152218Y169218D01*
X152886Y168705D01*
X153665Y168382D01*
X154500Y168272D01*
X155335Y168382D01*
X156114Y168705D01*
X156782Y169218D01*
X157295Y169886D01*
X157618Y170665D01*
X157728Y171500D01*
X157618Y172335D01*
X157441Y172761D01*
X157865Y173044D01*
X174955Y155955D01*
X175434Y155634D01*
X176000Y155522D01*
X423233D01*
Y153544D01*
X427805D01*
Y151456D01*
X423233D01*
Y147733D01*
X399287D01*
X399232Y147866D01*
X398639Y148639D01*
X397866Y149232D01*
X396966Y149605D01*
X396000Y149732D01*
X395034Y149605D01*
X394134Y149232D01*
X393361Y148639D01*
X392768Y147866D01*
X392395Y146966D01*
X392268Y146000D01*
X392395Y145034D01*
X392768Y144134D01*
X393361Y143361D01*
X394134Y142768D01*
X395034Y142395D01*
X396000Y142268D01*
X396966Y142395D01*
X397866Y142768D01*
X398639Y143361D01*
X399232Y144134D01*
X399287Y144267D01*
X424433D01*
X425096Y144399D01*
X425314Y144544D01*
X428767D01*
Y147768D01*
X429045Y147955D01*
X429754Y148664D01*
X430217Y148472D01*
Y144244D01*
X431783D01*
Y148000D01*
Y151756D01*
X430762D01*
Y153244D01*
X431783D01*
Y157000D01*
X433284D01*
Y158500D01*
X436350D01*
Y160756D01*
X431992D01*
X431801Y161218D01*
X432324Y161741D01*
X435767D01*
Y163369D01*
X438000D01*
X438624Y163493D01*
X439153Y163847D01*
X441153Y165847D01*
X441507Y166376D01*
X441631Y167000D01*
Y172332D01*
X447098D01*
Y183574D01*
X432902D01*
Y172332D01*
X438369D01*
Y167676D01*
X437324Y166631D01*
X435767D01*
Y168259D01*
X430233D01*
Y163832D01*
X428945Y162544D01*
X428483Y162735D01*
Y168259D01*
X422950D01*
Y166224D01*
X418050D01*
Y168259D01*
X412516D01*
Y161741D01*
X418050D01*
Y163777D01*
X422950D01*
Y161741D01*
X427619D01*
X427895Y161241D01*
X427831Y160922D01*
X427365Y160456D01*
X423233D01*
Y158478D01*
X181167D01*
X181067Y158978D01*
X181614Y159205D01*
X182282Y159718D01*
X182795Y160386D01*
X183118Y161165D01*
X183228Y162000D01*
X183118Y162835D01*
X182795Y163614D01*
X182282Y164282D01*
X181614Y164795D01*
X180835Y165118D01*
X180000Y165228D01*
X179165Y165118D01*
X178774Y164956D01*
X167082Y176649D01*
Y183644D01*
X167724Y183910D01*
X168497Y184503D01*
X169090Y185276D01*
X169463Y186176D01*
X169590Y187142D01*
X169463Y188108D01*
X169090Y189008D01*
X168497Y189781D01*
X167724Y190374D01*
X167082Y190640D01*
Y213644D01*
X167724Y213910D01*
X168497Y214503D01*
X169090Y215276D01*
X169463Y216176D01*
X169590Y217142D01*
X169463Y218108D01*
X169090Y219008D01*
X168497Y219781D01*
X167724Y220374D01*
X166824Y220746D01*
X165858Y220874D01*
X164892Y220746D01*
X163992Y220374D01*
X163219Y219781D01*
X162626Y219008D01*
X162253Y218108D01*
X162126Y217142D01*
X162253Y216176D01*
X162626Y215276D01*
X163219Y214503D01*
X163992Y213910D01*
X164635Y213644D01*
Y190640D01*
X163992Y190374D01*
X163219Y189781D01*
X162626Y189008D01*
X162253Y188108D01*
X162126Y187142D01*
X162253Y186176D01*
X162626Y185276D01*
X163219Y184503D01*
X163992Y183910D01*
X164635Y183644D01*
Y176142D01*
X164728Y175674D01*
X164993Y175277D01*
X177044Y163226D01*
X176882Y162835D01*
X176772Y162000D01*
X176882Y161165D01*
X177205Y160386D01*
X177718Y159718D01*
X178386Y159205D01*
X178933Y158978D01*
X178833Y158478D01*
X176612D01*
X149302Y185788D01*
X149463Y186176D01*
X149590Y187142D01*
X149463Y188108D01*
X149090Y189008D01*
X148497Y189781D01*
X147724Y190374D01*
X147337Y190534D01*
Y213749D01*
X147724Y213910D01*
X148497Y214503D01*
X149090Y215276D01*
X149463Y216176D01*
X149590Y217142D01*
X149463Y218108D01*
X149090Y219008D01*
X148497Y219781D01*
X147724Y220374D01*
X146824Y220746D01*
X145858Y220874D01*
X144892Y220746D01*
X143992Y220374D01*
X143219Y219781D01*
X142626Y219008D01*
X142253Y218108D01*
X142126Y217142D01*
X142253Y216176D01*
X142626Y215276D01*
X143219Y214503D01*
X143992Y213910D01*
X144380Y213749D01*
Y194364D01*
X143918Y194173D01*
X102444Y235647D01*
X102605Y236034D01*
X102732Y237000D01*
X102605Y237966D01*
X102232Y238866D01*
X101639Y239639D01*
X100866Y240232D01*
X99966Y240605D01*
X99000Y240732D01*
D02*
G37*
G36*
X390899Y237800D02*
X385100D01*
Y235150D01*
X390899D01*
Y237800D01*
D02*
G37*
G36*
X382100D02*
X376301D01*
Y235150D01*
X382100D01*
Y237800D01*
D02*
G37*
G36*
X457078Y237100D02*
X451279D01*
Y234450D01*
X457078D01*
Y237100D01*
D02*
G37*
G36*
X448279D02*
X442480D01*
Y234450D01*
X448279D01*
Y237100D01*
D02*
G37*
G36*
X85000Y230732D02*
X84034Y230605D01*
X83134Y230232D01*
X82361Y229639D01*
X81768Y228866D01*
X81395Y227966D01*
X81268Y227000D01*
X81395Y226034D01*
X81768Y225134D01*
X82361Y224361D01*
X83134Y223768D01*
X84034Y223395D01*
X85000Y223268D01*
X85966Y223395D01*
X86866Y223768D01*
X87639Y224361D01*
X88232Y225134D01*
X88605Y226034D01*
X88732Y227000D01*
X88605Y227966D01*
X88232Y228866D01*
X87639Y229639D01*
X86866Y230232D01*
X85966Y230605D01*
X85000Y230732D01*
D02*
G37*
G36*
X71000D02*
X70034Y230605D01*
X69134Y230232D01*
X68361Y229639D01*
X67768Y228866D01*
X67395Y227966D01*
X67268Y227000D01*
X67395Y226034D01*
X67768Y225134D01*
X68361Y224361D01*
X69134Y223768D01*
X70034Y223395D01*
X71000Y223268D01*
X71966Y223395D01*
X72866Y223768D01*
X73639Y224361D01*
X74232Y225134D01*
X74605Y226034D01*
X74732Y227000D01*
X74605Y227966D01*
X74232Y228866D01*
X73639Y229639D01*
X72866Y230232D01*
X71966Y230605D01*
X71000Y230732D01*
D02*
G37*
G36*
X57000D02*
X56034Y230605D01*
X55134Y230232D01*
X54361Y229639D01*
X53768Y228866D01*
X53395Y227966D01*
X53268Y227000D01*
X53395Y226034D01*
X53768Y225134D01*
X54361Y224361D01*
X55134Y223768D01*
X56034Y223395D01*
X57000Y223268D01*
X57966Y223395D01*
X58866Y223768D01*
X59639Y224361D01*
X60232Y225134D01*
X60605Y226034D01*
X60732Y227000D01*
X60605Y227966D01*
X60232Y228866D01*
X59639Y229639D01*
X58866Y230232D01*
X57966Y230605D01*
X57000Y230732D01*
D02*
G37*
G36*
X43000D02*
X42034Y230605D01*
X41134Y230232D01*
X40361Y229639D01*
X39768Y228866D01*
X39395Y227966D01*
X39268Y227000D01*
X39395Y226034D01*
X39768Y225134D01*
X40361Y224361D01*
X41134Y223768D01*
X42034Y223395D01*
X43000Y223268D01*
X43966Y223395D01*
X44866Y223768D01*
X45639Y224361D01*
X46232Y225134D01*
X46605Y226034D01*
X46732Y227000D01*
X46605Y227966D01*
X46232Y228866D01*
X45639Y229639D01*
X44866Y230232D01*
X43966Y230605D01*
X43000Y230732D01*
D02*
G37*
G36*
X29000D02*
X28034Y230605D01*
X27134Y230232D01*
X26361Y229639D01*
X25768Y228866D01*
X25395Y227966D01*
X25268Y227000D01*
X25395Y226034D01*
X25768Y225134D01*
X26361Y224361D01*
X27134Y223768D01*
X28034Y223395D01*
X29000Y223268D01*
X29966Y223395D01*
X30866Y223768D01*
X31639Y224361D01*
X32232Y225134D01*
X32605Y226034D01*
X32732Y227000D01*
X32605Y227966D01*
X32232Y228866D01*
X31639Y229639D01*
X30866Y230232D01*
X29966Y230605D01*
X29000Y230732D01*
D02*
G37*
G36*
X426350Y224756D02*
X424784D01*
Y222500D01*
X426350D01*
Y224756D01*
D02*
G37*
G36*
X421783D02*
X420217D01*
Y222500D01*
X421783D01*
Y224756D01*
D02*
G37*
G36*
X287358Y220850D02*
Y218642D01*
X289566D01*
X289352Y219159D01*
X288711Y219995D01*
X287876Y220636D01*
X287358Y220850D01*
D02*
G37*
G36*
X284358D02*
X283841Y220636D01*
X283005Y219995D01*
X282364Y219159D01*
X282150Y218642D01*
X284358D01*
Y220850D01*
D02*
G37*
G36*
X157358D02*
Y218642D01*
X159566D01*
X159352Y219159D01*
X158711Y219995D01*
X157876Y220636D01*
X157358Y220850D01*
D02*
G37*
G36*
X154358D02*
X153841Y220636D01*
X153005Y219995D01*
X152364Y219159D01*
X152150Y218642D01*
X154358D01*
Y220850D01*
D02*
G37*
G36*
X426350Y219500D02*
X424784D01*
Y217244D01*
X426350D01*
Y219500D01*
D02*
G37*
G36*
X421783D02*
X420217D01*
Y217244D01*
X421783D01*
Y219500D01*
D02*
G37*
G36*
X99000Y220732D02*
X98034Y220605D01*
X97134Y220232D01*
X96361Y219639D01*
X95768Y218866D01*
X95395Y217966D01*
X95268Y217000D01*
X95395Y216034D01*
X95768Y215134D01*
X96361Y214361D01*
X97134Y213768D01*
X98034Y213395D01*
X99000Y213268D01*
X99966Y213395D01*
X100866Y213768D01*
X101639Y214361D01*
X102232Y215134D01*
X102605Y216034D01*
X102732Y217000D01*
X102605Y217966D01*
X102232Y218866D01*
X101639Y219639D01*
X100866Y220232D01*
X99966Y220605D01*
X99000Y220732D01*
D02*
G37*
G36*
X85000D02*
X84034Y220605D01*
X83134Y220232D01*
X82361Y219639D01*
X81768Y218866D01*
X81395Y217966D01*
X81268Y217000D01*
X81395Y216034D01*
X81768Y215134D01*
X82361Y214361D01*
X83134Y213768D01*
X84034Y213395D01*
X85000Y213268D01*
X85966Y213395D01*
X86866Y213768D01*
X87639Y214361D01*
X88232Y215134D01*
X88605Y216034D01*
X88732Y217000D01*
X88605Y217966D01*
X88232Y218866D01*
X87639Y219639D01*
X86866Y220232D01*
X85966Y220605D01*
X85000Y220732D01*
D02*
G37*
G36*
X71000D02*
X70034Y220605D01*
X69134Y220232D01*
X68361Y219639D01*
X67768Y218866D01*
X67395Y217966D01*
X67268Y217000D01*
X67395Y216034D01*
X67768Y215134D01*
X68361Y214361D01*
X69134Y213768D01*
X70034Y213395D01*
X71000Y213268D01*
X71966Y213395D01*
X72866Y213768D01*
X73639Y214361D01*
X74232Y215134D01*
X74605Y216034D01*
X74732Y217000D01*
X74605Y217966D01*
X74232Y218866D01*
X73639Y219639D01*
X72866Y220232D01*
X71966Y220605D01*
X71000Y220732D01*
D02*
G37*
G36*
X57000D02*
X56034Y220605D01*
X55134Y220232D01*
X54361Y219639D01*
X53768Y218866D01*
X53395Y217966D01*
X53268Y217000D01*
X53395Y216034D01*
X53768Y215134D01*
X54361Y214361D01*
X55134Y213768D01*
X56034Y213395D01*
X57000Y213268D01*
X57966Y213395D01*
X58866Y213768D01*
X59639Y214361D01*
X60232Y215134D01*
X60605Y216034D01*
X60732Y217000D01*
X60605Y217966D01*
X60232Y218866D01*
X59639Y219639D01*
X58866Y220232D01*
X57966Y220605D01*
X57000Y220732D01*
D02*
G37*
G36*
X43000D02*
X42034Y220605D01*
X41134Y220232D01*
X40361Y219639D01*
X39768Y218866D01*
X39395Y217966D01*
X39268Y217000D01*
X39395Y216034D01*
X39768Y215134D01*
X40361Y214361D01*
X41134Y213768D01*
X42034Y213395D01*
X43000Y213268D01*
X43966Y213395D01*
X44866Y213768D01*
X45639Y214361D01*
X46232Y215134D01*
X46605Y216034D01*
X46732Y217000D01*
X46605Y217966D01*
X46232Y218866D01*
X45639Y219639D01*
X44866Y220232D01*
X43966Y220605D01*
X43000Y220732D01*
D02*
G37*
G36*
X29000D02*
X28034Y220605D01*
X27134Y220232D01*
X26361Y219639D01*
X25768Y218866D01*
X25395Y217966D01*
X25268Y217000D01*
X25395Y216034D01*
X25768Y215134D01*
X26361Y214361D01*
X27134Y213768D01*
X28034Y213395D01*
X29000Y213268D01*
X29966Y213395D01*
X30866Y213768D01*
X31639Y214361D01*
X32232Y215134D01*
X32605Y216034D01*
X32732Y217000D01*
X32605Y217966D01*
X32232Y218866D01*
X31639Y219639D01*
X30866Y220232D01*
X29966Y220605D01*
X29000Y220732D01*
D02*
G37*
G36*
X103000Y211000D02*
X100500D01*
Y208500D01*
X103000D01*
Y211000D01*
D02*
G37*
G36*
X89000D02*
X86500D01*
Y208500D01*
X89000D01*
Y211000D01*
D02*
G37*
G36*
X75000D02*
X72500D01*
Y208500D01*
X75000D01*
Y211000D01*
D02*
G37*
G36*
X61000D02*
X58500D01*
Y208500D01*
X61000D01*
Y211000D01*
D02*
G37*
G36*
X47000D02*
X44500D01*
Y208500D01*
X47000D01*
Y211000D01*
D02*
G37*
G36*
X33000D02*
X30500D01*
Y208500D01*
X33000D01*
Y211000D01*
D02*
G37*
G36*
X97500D02*
X95000D01*
Y208500D01*
X97500D01*
Y211000D01*
D02*
G37*
G36*
X83500D02*
X81000D01*
Y208500D01*
X83500D01*
Y211000D01*
D02*
G37*
G36*
X69500D02*
X67000D01*
Y208500D01*
X69500D01*
Y211000D01*
D02*
G37*
G36*
X55500D02*
X53000D01*
Y208500D01*
X55500D01*
Y211000D01*
D02*
G37*
G36*
X41500D02*
X39000D01*
Y208500D01*
X41500D01*
Y211000D01*
D02*
G37*
G36*
X27500D02*
X25000D01*
Y208500D01*
X27500D01*
Y211000D01*
D02*
G37*
G36*
X103000Y205500D02*
X100500D01*
Y203000D01*
X103000D01*
Y205500D01*
D02*
G37*
G36*
X97500D02*
X95000D01*
Y203000D01*
X97500D01*
Y205500D01*
D02*
G37*
G36*
X89000D02*
X86500D01*
Y203000D01*
X89000D01*
Y205500D01*
D02*
G37*
G36*
X83500D02*
X81000D01*
Y203000D01*
X83500D01*
Y205500D01*
D02*
G37*
G36*
X75000D02*
X72500D01*
Y203000D01*
X75000D01*
Y205500D01*
D02*
G37*
G36*
X69500D02*
X67000D01*
Y203000D01*
X69500D01*
Y205500D01*
D02*
G37*
G36*
X61000D02*
X58500D01*
Y203000D01*
X61000D01*
Y205500D01*
D02*
G37*
G36*
X55500D02*
X53000D01*
Y203000D01*
X55500D01*
Y205500D01*
D02*
G37*
G36*
X47000D02*
X44500D01*
Y203000D01*
X47000D01*
Y205500D01*
D02*
G37*
G36*
X41500D02*
X39000D01*
Y203000D01*
X41500D01*
Y205500D01*
D02*
G37*
G36*
X33000D02*
X30500D01*
Y203000D01*
X33000D01*
Y205500D01*
D02*
G37*
G36*
X27500D02*
X25000D01*
Y203000D01*
X27500D01*
Y205500D01*
D02*
G37*
G36*
X417004Y197532D02*
X416618D01*
Y195177D01*
X417004D01*
Y197532D01*
D02*
G37*
G36*
X159566Y215642D02*
X152150D01*
X152364Y215125D01*
X153005Y214289D01*
X153841Y213648D01*
X154635Y213319D01*
Y190964D01*
X153841Y190636D01*
X153005Y189995D01*
X152364Y189159D01*
X152150Y188642D01*
X155858D01*
X159566D01*
X159352Y189159D01*
X158711Y189995D01*
X157876Y190636D01*
X157082Y190964D01*
Y213319D01*
X157876Y213648D01*
X158711Y214289D01*
X159352Y215125D01*
X159566Y215642D01*
D02*
G37*
G36*
X289566D02*
X282150D01*
X282364Y215125D01*
X283005Y214289D01*
X283841Y213648D01*
X284635Y213319D01*
Y190964D01*
X283841Y190636D01*
X283005Y189995D01*
X282364Y189159D01*
X282150Y188642D01*
X285858D01*
Y187142D01*
D01*
Y188642D01*
X289566D01*
X289352Y189159D01*
X288711Y189995D01*
X287876Y190636D01*
X287082Y190964D01*
Y213319D01*
X287876Y213648D01*
X288711Y214289D01*
X289352Y215125D01*
X289566Y215642D01*
D02*
G37*
G36*
X289566Y185642D02*
X287358D01*
Y183433D01*
X287876Y183648D01*
X288711Y184289D01*
X289352Y185125D01*
X289566Y185642D01*
D02*
G37*
G36*
X159566D02*
X157358D01*
Y183433D01*
X157876Y183648D01*
X158711Y184289D01*
X159352Y185125D01*
X159566Y185642D01*
D02*
G37*
G36*
X154358D02*
X152150D01*
X152364Y185125D01*
X153005Y184289D01*
X153841Y183648D01*
X154358Y183433D01*
Y185642D01*
D02*
G37*
G36*
X284358D02*
X282150D01*
X282364Y185125D01*
X283005Y184289D01*
X283841Y183648D01*
X284358Y183433D01*
Y185642D01*
D02*
G37*
G36*
X379558Y220842D02*
X372158D01*
Y213442D01*
X374635D01*
Y190640D01*
X373992Y190374D01*
X373219Y189781D01*
X372626Y189008D01*
X372253Y188108D01*
X372126Y187142D01*
X372253Y186176D01*
X372626Y185276D01*
X373219Y184503D01*
X373992Y183910D01*
X374892Y183537D01*
X375858Y183410D01*
X376824Y183537D01*
X377724Y183910D01*
X378497Y184503D01*
X379090Y185276D01*
X379463Y186176D01*
X379590Y187142D01*
X379463Y188108D01*
X379090Y189008D01*
X378497Y189781D01*
X377724Y190374D01*
X377082Y190640D01*
Y213442D01*
X379558D01*
Y220842D01*
D02*
G37*
G36*
X365858Y220874D02*
X364892Y220746D01*
X363992Y220374D01*
X363219Y219781D01*
X362626Y219008D01*
X362253Y218108D01*
X362126Y217142D01*
X362253Y216176D01*
X362626Y215276D01*
X363219Y214503D01*
X363992Y213910D01*
X364635Y213644D01*
Y190640D01*
X363992Y190374D01*
X363219Y189781D01*
X362626Y189008D01*
X362253Y188108D01*
X362126Y187142D01*
X362253Y186176D01*
X362626Y185276D01*
X363219Y184503D01*
X363992Y183910D01*
X364892Y183537D01*
X365858Y183410D01*
X366824Y183537D01*
X367724Y183910D01*
X368497Y184503D01*
X369090Y185276D01*
X369463Y186176D01*
X369590Y187142D01*
X369463Y188108D01*
X369090Y189008D01*
X368497Y189781D01*
X367724Y190374D01*
X367082Y190640D01*
Y213644D01*
X367724Y213910D01*
X368497Y214503D01*
X369090Y215276D01*
X369463Y216176D01*
X369590Y217142D01*
X369463Y218108D01*
X369090Y219008D01*
X368497Y219781D01*
X367724Y220374D01*
X366824Y220746D01*
X365858Y220874D01*
D02*
G37*
G36*
X355858D02*
X354892Y220746D01*
X353992Y220374D01*
X353219Y219781D01*
X352626Y219008D01*
X352254Y218108D01*
X352126Y217142D01*
X352254Y216176D01*
X352626Y215276D01*
X353219Y214503D01*
X353992Y213910D01*
X354635Y213644D01*
Y190640D01*
X353992Y190374D01*
X353219Y189781D01*
X352626Y189008D01*
X352254Y188108D01*
X352126Y187142D01*
X352254Y186176D01*
X352626Y185276D01*
X353219Y184503D01*
X353992Y183910D01*
X354892Y183537D01*
X355858Y183410D01*
X356824Y183537D01*
X357724Y183910D01*
X358497Y184503D01*
X359090Y185276D01*
X359463Y186176D01*
X359590Y187142D01*
X359463Y188108D01*
X359090Y189008D01*
X358497Y189781D01*
X357724Y190374D01*
X357082Y190640D01*
Y213644D01*
X357724Y213910D01*
X358497Y214503D01*
X359090Y215276D01*
X359463Y216176D01*
X359590Y217142D01*
X359463Y218108D01*
X359090Y219008D01*
X358497Y219781D01*
X357724Y220374D01*
X356824Y220746D01*
X355858Y220874D01*
D02*
G37*
G36*
X345858D02*
X344892Y220746D01*
X343992Y220374D01*
X343219Y219781D01*
X342626Y219008D01*
X342253Y218108D01*
X342126Y217142D01*
X342253Y216176D01*
X342626Y215276D01*
X343219Y214503D01*
X343992Y213910D01*
X344635Y213644D01*
Y190640D01*
X343992Y190374D01*
X343219Y189781D01*
X342626Y189008D01*
X342253Y188108D01*
X342126Y187142D01*
X342253Y186176D01*
X342626Y185276D01*
X343219Y184503D01*
X343992Y183910D01*
X344892Y183537D01*
X345858Y183410D01*
X346824Y183537D01*
X347724Y183910D01*
X348497Y184503D01*
X349090Y185276D01*
X349463Y186176D01*
X349590Y187142D01*
X349463Y188108D01*
X349090Y189008D01*
X348497Y189781D01*
X347724Y190374D01*
X347082Y190640D01*
Y213644D01*
X347724Y213910D01*
X348497Y214503D01*
X349090Y215276D01*
X349463Y216176D01*
X349590Y217142D01*
X349463Y218108D01*
X349090Y219008D01*
X348497Y219781D01*
X347724Y220374D01*
X346824Y220746D01*
X345858Y220874D01*
D02*
G37*
G36*
X335858D02*
X334892Y220746D01*
X333992Y220374D01*
X333219Y219781D01*
X332626Y219008D01*
X332254Y218108D01*
X332126Y217142D01*
X332254Y216176D01*
X332626Y215276D01*
X333219Y214503D01*
X333992Y213910D01*
X334635Y213644D01*
Y190640D01*
X333992Y190374D01*
X333219Y189781D01*
X332626Y189008D01*
X332254Y188108D01*
X332126Y187142D01*
X332254Y186176D01*
X332626Y185276D01*
X333219Y184503D01*
X333992Y183910D01*
X334892Y183537D01*
X335858Y183410D01*
X336824Y183537D01*
X337724Y183910D01*
X338497Y184503D01*
X339090Y185276D01*
X339463Y186176D01*
X339590Y187142D01*
X339463Y188108D01*
X339090Y189008D01*
X338497Y189781D01*
X337724Y190374D01*
X337082Y190640D01*
Y213644D01*
X337724Y213910D01*
X338497Y214503D01*
X339090Y215276D01*
X339463Y216176D01*
X339590Y217142D01*
X339463Y218108D01*
X339090Y219008D01*
X338497Y219781D01*
X337724Y220374D01*
X336824Y220746D01*
X335858Y220874D01*
D02*
G37*
G36*
X325858D02*
X324892Y220746D01*
X323992Y220374D01*
X323219Y219781D01*
X322626Y219008D01*
X322253Y218108D01*
X322126Y217142D01*
X322253Y216176D01*
X322626Y215276D01*
X323219Y214503D01*
X323992Y213910D01*
X324635Y213644D01*
Y190640D01*
X323992Y190374D01*
X323219Y189781D01*
X322626Y189008D01*
X322253Y188108D01*
X322126Y187142D01*
X322253Y186176D01*
X322626Y185276D01*
X323219Y184503D01*
X323992Y183910D01*
X324892Y183537D01*
X325858Y183410D01*
X326824Y183537D01*
X327724Y183910D01*
X328497Y184503D01*
X329090Y185276D01*
X329463Y186176D01*
X329590Y187142D01*
X329463Y188108D01*
X329090Y189008D01*
X328497Y189781D01*
X327724Y190374D01*
X327082Y190640D01*
Y213644D01*
X327724Y213910D01*
X328497Y214503D01*
X329090Y215276D01*
X329463Y216176D01*
X329590Y217142D01*
X329463Y218108D01*
X329090Y219008D01*
X328497Y219781D01*
X327724Y220374D01*
X326824Y220746D01*
X325858Y220874D01*
D02*
G37*
G36*
X315858D02*
X314892Y220746D01*
X313992Y220374D01*
X313219Y219781D01*
X312626Y219008D01*
X312253Y218108D01*
X312126Y217142D01*
X312253Y216176D01*
X312626Y215276D01*
X313219Y214503D01*
X313992Y213910D01*
X314635Y213644D01*
Y190640D01*
X313992Y190374D01*
X313219Y189781D01*
X312626Y189008D01*
X312253Y188108D01*
X312126Y187142D01*
X312253Y186176D01*
X312626Y185276D01*
X313219Y184503D01*
X313992Y183910D01*
X314892Y183537D01*
X315858Y183410D01*
X316824Y183537D01*
X317724Y183910D01*
X318497Y184503D01*
X319090Y185276D01*
X319463Y186176D01*
X319590Y187142D01*
X319463Y188108D01*
X319090Y189008D01*
X318497Y189781D01*
X317724Y190374D01*
X317082Y190640D01*
Y213644D01*
X317724Y213910D01*
X318497Y214503D01*
X319090Y215276D01*
X319463Y216176D01*
X319590Y217142D01*
X319463Y218108D01*
X319090Y219008D01*
X318497Y219781D01*
X317724Y220374D01*
X316824Y220746D01*
X315858Y220874D01*
D02*
G37*
G36*
X305858D02*
X304892Y220746D01*
X303992Y220374D01*
X303219Y219781D01*
X302626Y219008D01*
X302254Y218108D01*
X302126Y217142D01*
X302254Y216176D01*
X302626Y215276D01*
X303219Y214503D01*
X303992Y213910D01*
X304635Y213644D01*
Y190640D01*
X303992Y190374D01*
X303219Y189781D01*
X302626Y189008D01*
X302254Y188108D01*
X302126Y187142D01*
X302254Y186176D01*
X302626Y185276D01*
X303219Y184503D01*
X303992Y183910D01*
X304892Y183537D01*
X305858Y183410D01*
X306824Y183537D01*
X307724Y183910D01*
X308497Y184503D01*
X309090Y185276D01*
X309463Y186176D01*
X309590Y187142D01*
X309463Y188108D01*
X309090Y189008D01*
X308497Y189781D01*
X307724Y190374D01*
X307082Y190640D01*
Y213644D01*
X307724Y213910D01*
X308497Y214503D01*
X309090Y215276D01*
X309463Y216176D01*
X309590Y217142D01*
X309463Y218108D01*
X309090Y219008D01*
X308497Y219781D01*
X307724Y220374D01*
X306824Y220746D01*
X305858Y220874D01*
D02*
G37*
G36*
X295858D02*
X294892Y220746D01*
X293992Y220374D01*
X293219Y219781D01*
X292626Y219008D01*
X292253Y218108D01*
X292126Y217142D01*
X292253Y216176D01*
X292626Y215276D01*
X293219Y214503D01*
X293992Y213910D01*
X294635Y213644D01*
Y190640D01*
X293992Y190374D01*
X293219Y189781D01*
X292626Y189008D01*
X292253Y188108D01*
X292126Y187142D01*
X292253Y186176D01*
X292626Y185276D01*
X293219Y184503D01*
X293992Y183910D01*
X294892Y183537D01*
X295858Y183410D01*
X296824Y183537D01*
X297724Y183910D01*
X298497Y184503D01*
X299090Y185276D01*
X299463Y186176D01*
X299590Y187142D01*
X299463Y188108D01*
X299090Y189008D01*
X298497Y189781D01*
X297724Y190374D01*
X297082Y190640D01*
Y213644D01*
X297724Y213910D01*
X298497Y214503D01*
X299090Y215276D01*
X299463Y216176D01*
X299590Y217142D01*
X299463Y218108D01*
X299090Y219008D01*
X298497Y219781D01*
X297724Y220374D01*
X296824Y220746D01*
X295858Y220874D01*
D02*
G37*
G36*
X275858D02*
X274892Y220746D01*
X273992Y220374D01*
X273219Y219781D01*
X272626Y219008D01*
X272253Y218108D01*
X272126Y217142D01*
X272253Y216176D01*
X272626Y215276D01*
X273219Y214503D01*
X273992Y213910D01*
X274635Y213644D01*
Y190640D01*
X273992Y190374D01*
X273219Y189781D01*
X272626Y189008D01*
X272253Y188108D01*
X272126Y187142D01*
X272253Y186176D01*
X272626Y185276D01*
X273219Y184503D01*
X273992Y183910D01*
X274892Y183537D01*
X275858Y183410D01*
X276824Y183537D01*
X277724Y183910D01*
X278497Y184503D01*
X279090Y185276D01*
X279463Y186176D01*
X279590Y187142D01*
X279463Y188108D01*
X279090Y189008D01*
X278497Y189781D01*
X277724Y190374D01*
X277082Y190640D01*
Y213644D01*
X277724Y213910D01*
X278497Y214503D01*
X279090Y215276D01*
X279463Y216176D01*
X279590Y217142D01*
X279463Y218108D01*
X279090Y219008D01*
X278497Y219781D01*
X277724Y220374D01*
X276824Y220746D01*
X275858Y220874D01*
D02*
G37*
G36*
X245858Y190874D02*
X244892Y190746D01*
X243992Y190374D01*
X243219Y189781D01*
X242626Y189008D01*
X242253Y188108D01*
X242126Y187142D01*
X242253Y186176D01*
X242626Y185276D01*
X243219Y184503D01*
X243992Y183910D01*
X244892Y183537D01*
X245858Y183410D01*
X246824Y183537D01*
X247724Y183910D01*
X248497Y184503D01*
X249090Y185276D01*
X249463Y186176D01*
X249590Y187142D01*
X249463Y188108D01*
X249090Y189008D01*
X248497Y189781D01*
X247724Y190374D01*
X246824Y190746D01*
X245858Y190874D01*
D02*
G37*
G36*
X235858Y220874D02*
X234892Y220746D01*
X233992Y220374D01*
X233219Y219781D01*
X232626Y219008D01*
X232254Y218108D01*
X232126Y217142D01*
X232254Y216176D01*
X232626Y215276D01*
X233219Y214503D01*
X233992Y213910D01*
X234635Y213644D01*
Y190640D01*
X233992Y190374D01*
X233219Y189781D01*
X232626Y189008D01*
X232254Y188108D01*
X232126Y187142D01*
X232254Y186176D01*
X232626Y185276D01*
X233219Y184503D01*
X233992Y183910D01*
X234892Y183537D01*
X235858Y183410D01*
X236824Y183537D01*
X237724Y183910D01*
X238497Y184503D01*
X239090Y185276D01*
X239463Y186176D01*
X239590Y187142D01*
X239463Y188108D01*
X239090Y189008D01*
X238497Y189781D01*
X237724Y190374D01*
X237082Y190640D01*
Y213644D01*
X237724Y213910D01*
X238497Y214503D01*
X239090Y215276D01*
X239463Y216176D01*
X239590Y217142D01*
X239463Y218108D01*
X239090Y219008D01*
X238497Y219781D01*
X237724Y220374D01*
X236824Y220746D01*
X235858Y220874D01*
D02*
G37*
G36*
X225858D02*
X224892Y220746D01*
X223992Y220374D01*
X223219Y219781D01*
X222626Y219008D01*
X222253Y218108D01*
X222126Y217142D01*
X222253Y216176D01*
X222626Y215276D01*
X223219Y214503D01*
X223992Y213910D01*
X224635Y213644D01*
Y190640D01*
X223992Y190374D01*
X223219Y189781D01*
X222626Y189008D01*
X222253Y188108D01*
X222126Y187142D01*
X222253Y186176D01*
X222626Y185276D01*
X223219Y184503D01*
X223992Y183910D01*
X224892Y183537D01*
X225858Y183410D01*
X226824Y183537D01*
X227724Y183910D01*
X228497Y184503D01*
X229090Y185276D01*
X229463Y186176D01*
X229590Y187142D01*
X229463Y188108D01*
X229090Y189008D01*
X228497Y189781D01*
X227724Y190374D01*
X227082Y190640D01*
Y213644D01*
X227724Y213910D01*
X228497Y214503D01*
X229090Y215276D01*
X229463Y216176D01*
X229590Y217142D01*
X229463Y218108D01*
X229090Y219008D01*
X228497Y219781D01*
X227724Y220374D01*
X226824Y220746D01*
X225858Y220874D01*
D02*
G37*
G36*
X215858D02*
X214892Y220746D01*
X213992Y220374D01*
X213219Y219781D01*
X212626Y219008D01*
X212253Y218108D01*
X212126Y217142D01*
X212253Y216176D01*
X212626Y215276D01*
X213219Y214503D01*
X213992Y213910D01*
X214635Y213644D01*
Y190640D01*
X213992Y190374D01*
X213219Y189781D01*
X212626Y189008D01*
X212253Y188108D01*
X212126Y187142D01*
X212253Y186176D01*
X212626Y185276D01*
X213219Y184503D01*
X213992Y183910D01*
X214892Y183537D01*
X215858Y183410D01*
X216824Y183537D01*
X217724Y183910D01*
X218497Y184503D01*
X219090Y185276D01*
X219463Y186176D01*
X219590Y187142D01*
X219463Y188108D01*
X219090Y189008D01*
X218497Y189781D01*
X217724Y190374D01*
X217082Y190640D01*
Y213644D01*
X217724Y213910D01*
X218497Y214503D01*
X219090Y215276D01*
X219463Y216176D01*
X219590Y217142D01*
X219463Y218108D01*
X219090Y219008D01*
X218497Y219781D01*
X217724Y220374D01*
X216824Y220746D01*
X215858Y220874D01*
D02*
G37*
G36*
X205858D02*
X204892Y220746D01*
X203992Y220374D01*
X203219Y219781D01*
X202626Y219008D01*
X202254Y218108D01*
X202126Y217142D01*
X202254Y216176D01*
X202626Y215276D01*
X203219Y214503D01*
X203992Y213910D01*
X204635Y213644D01*
Y190640D01*
X203992Y190374D01*
X203219Y189781D01*
X202626Y189008D01*
X202254Y188108D01*
X202126Y187142D01*
X202254Y186176D01*
X202626Y185276D01*
X203219Y184503D01*
X203992Y183910D01*
X204892Y183537D01*
X205858Y183410D01*
X206824Y183537D01*
X207724Y183910D01*
X208497Y184503D01*
X209090Y185276D01*
X209463Y186176D01*
X209590Y187142D01*
X209463Y188108D01*
X209090Y189008D01*
X208497Y189781D01*
X207724Y190374D01*
X207082Y190640D01*
Y213644D01*
X207724Y213910D01*
X208497Y214503D01*
X209090Y215276D01*
X209463Y216176D01*
X209590Y217142D01*
X209463Y218108D01*
X209090Y219008D01*
X208497Y219781D01*
X207724Y220374D01*
X206824Y220746D01*
X205858Y220874D01*
D02*
G37*
G36*
X195858D02*
X194892Y220746D01*
X193992Y220374D01*
X193219Y219781D01*
X192626Y219008D01*
X192253Y218108D01*
X192126Y217142D01*
X192253Y216176D01*
X192626Y215276D01*
X193219Y214503D01*
X193992Y213910D01*
X194635Y213644D01*
Y190640D01*
X193992Y190374D01*
X193219Y189781D01*
X192626Y189008D01*
X192253Y188108D01*
X192126Y187142D01*
X192253Y186176D01*
X192626Y185276D01*
X193219Y184503D01*
X193992Y183910D01*
X194892Y183537D01*
X195858Y183410D01*
X196824Y183537D01*
X197724Y183910D01*
X198497Y184503D01*
X199090Y185276D01*
X199463Y186176D01*
X199590Y187142D01*
X199463Y188108D01*
X199090Y189008D01*
X198497Y189781D01*
X197724Y190374D01*
X197082Y190640D01*
Y213644D01*
X197724Y213910D01*
X198497Y214503D01*
X199090Y215276D01*
X199463Y216176D01*
X199590Y217142D01*
X199463Y218108D01*
X199090Y219008D01*
X198497Y219781D01*
X197724Y220374D01*
X196824Y220746D01*
X195858Y220874D01*
D02*
G37*
G36*
X185858D02*
X184892Y220746D01*
X183992Y220374D01*
X183219Y219781D01*
X182626Y219008D01*
X182254Y218108D01*
X182126Y217142D01*
X182254Y216176D01*
X182626Y215276D01*
X183219Y214503D01*
X183992Y213910D01*
X184635Y213644D01*
Y190640D01*
X183992Y190374D01*
X183219Y189781D01*
X182626Y189008D01*
X182254Y188108D01*
X182126Y187142D01*
X182254Y186176D01*
X182626Y185276D01*
X183219Y184503D01*
X183992Y183910D01*
X184892Y183537D01*
X185858Y183410D01*
X186824Y183537D01*
X187724Y183910D01*
X188497Y184503D01*
X189090Y185276D01*
X189463Y186176D01*
X189590Y187142D01*
X189463Y188108D01*
X189090Y189008D01*
X188497Y189781D01*
X187724Y190374D01*
X187082Y190640D01*
Y213644D01*
X187724Y213910D01*
X188497Y214503D01*
X189090Y215276D01*
X189463Y216176D01*
X189590Y217142D01*
X189463Y218108D01*
X189090Y219008D01*
X188497Y219781D01*
X187724Y220374D01*
X186824Y220746D01*
X185858Y220874D01*
D02*
G37*
G36*
X175858D02*
X174892Y220746D01*
X173992Y220374D01*
X173219Y219781D01*
X172626Y219008D01*
X172254Y218108D01*
X172126Y217142D01*
X172254Y216176D01*
X172626Y215276D01*
X173219Y214503D01*
X173992Y213910D01*
X174635Y213644D01*
Y190640D01*
X173992Y190374D01*
X173219Y189781D01*
X172626Y189008D01*
X172254Y188108D01*
X172126Y187142D01*
X172254Y186176D01*
X172626Y185276D01*
X173219Y184503D01*
X173992Y183910D01*
X174892Y183537D01*
X175858Y183410D01*
X176824Y183537D01*
X177724Y183910D01*
X178497Y184503D01*
X179090Y185276D01*
X179463Y186176D01*
X179590Y187142D01*
X179463Y188108D01*
X179090Y189008D01*
X178497Y189781D01*
X177724Y190374D01*
X177082Y190640D01*
Y213644D01*
X177724Y213910D01*
X178497Y214503D01*
X179090Y215276D01*
X179463Y216176D01*
X179590Y217142D01*
X179463Y218108D01*
X179090Y219008D01*
X178497Y219781D01*
X177724Y220374D01*
X176824Y220746D01*
X175858Y220874D01*
D02*
G37*
G36*
X98756Y175350D02*
X96500D01*
Y173783D01*
X98756D01*
Y175350D01*
D02*
G37*
G36*
X93500D02*
X91244D01*
Y173783D01*
X93500D01*
Y175350D01*
D02*
G37*
G36*
X98756Y170783D02*
X96500D01*
Y169217D01*
X98756D01*
Y170783D01*
D02*
G37*
G36*
X93500D02*
X91244D01*
Y169217D01*
X93500D01*
Y170783D01*
D02*
G37*
G36*
X390067Y168559D02*
X388500D01*
Y166500D01*
X390067D01*
Y168559D01*
D02*
G37*
G36*
X385500D02*
X383933D01*
Y166500D01*
X385500D01*
Y168559D01*
D02*
G37*
G36*
X390067Y163500D02*
X388500D01*
Y161441D01*
X390067D01*
Y163500D01*
D02*
G37*
G36*
X385500D02*
X383933D01*
Y161441D01*
X385500D01*
Y163500D01*
D02*
G37*
G36*
X436350Y155500D02*
X434784D01*
Y153244D01*
X436350D01*
Y155500D01*
D02*
G37*
G36*
X121000Y152688D02*
Y149594D01*
X121824D01*
Y150949D01*
X121647Y151838D01*
X121143Y152592D01*
X121000Y152688D01*
D02*
G37*
G36*
X113000D02*
X112856Y152592D01*
X112353Y151838D01*
X112176Y150949D01*
Y149594D01*
X113000D01*
Y152688D01*
D02*
G37*
G36*
X91000D02*
Y149594D01*
X91824D01*
Y150949D01*
X91647Y151838D01*
X91143Y152592D01*
X91000Y152688D01*
D02*
G37*
G36*
X88000D02*
X87857Y152592D01*
X87353Y151838D01*
X87176Y150949D01*
Y149594D01*
X88000D01*
Y152688D01*
D02*
G37*
G36*
X436350Y151756D02*
X434783D01*
Y149500D01*
X436350D01*
Y151756D01*
D02*
G37*
G36*
Y146500D02*
X434783D01*
Y144244D01*
X436350D01*
Y146500D01*
D02*
G37*
G36*
X91824Y146595D02*
X91000D01*
Y143501D01*
X91143Y143597D01*
X91647Y144351D01*
X91824Y145240D01*
Y146595D01*
D02*
G37*
G36*
X88000D02*
X87176D01*
Y145240D01*
X87353Y144351D01*
X87857Y143597D01*
X88000Y143501D01*
Y146595D01*
D02*
G37*
G36*
X124500Y152967D02*
X123728Y152813D01*
X123073Y152376D01*
X122635Y151721D01*
X122482Y150949D01*
Y145240D01*
X122635Y144468D01*
X123073Y143813D01*
X123207Y143723D01*
X123055Y143224D01*
X121416D01*
X121228Y143723D01*
X121647Y144351D01*
X121824Y145240D01*
Y146595D01*
X119500D01*
Y148094D01*
X118000D01*
Y152688D01*
X117857Y152592D01*
X117353Y151838D01*
X117255Y151346D01*
X116745D01*
X116647Y151838D01*
X116144Y152592D01*
X116000Y152688D01*
Y148094D01*
X114500D01*
Y146595D01*
X112176D01*
Y145240D01*
X112353Y144351D01*
X112772Y143723D01*
X112584Y143224D01*
X111507D01*
X110926Y143804D01*
X110927Y143813D01*
X111365Y144468D01*
X111518Y145240D01*
Y150949D01*
X111365Y151721D01*
X110927Y152376D01*
X110272Y152813D01*
X109500Y152967D01*
X108728Y152813D01*
X108073Y152376D01*
X107635Y151721D01*
X107482Y150949D01*
Y145240D01*
X107635Y144468D01*
X108073Y143813D01*
X108276Y143677D01*
Y143500D01*
X108370Y143032D01*
X108635Y142635D01*
X110135Y141135D01*
X110532Y140870D01*
X111000Y140777D01*
X135000D01*
X135468Y140870D01*
X135747Y141056D01*
X136165Y140882D01*
X137000Y140772D01*
X137835Y140882D01*
X138614Y141205D01*
X139282Y141718D01*
X139795Y142386D01*
X140118Y143165D01*
X140228Y144000D01*
X140118Y144835D01*
X139795Y145614D01*
X139282Y146282D01*
X138614Y146795D01*
X137835Y147118D01*
X137000Y147228D01*
X136165Y147118D01*
X135386Y146795D01*
X134718Y146282D01*
X134205Y145614D01*
X133882Y144835D01*
X133772Y144000D01*
X133825Y143599D01*
X133495Y143224D01*
X125945D01*
X125793Y143723D01*
X125927Y143813D01*
X126365Y144468D01*
X126518Y145240D01*
Y150949D01*
X126365Y151721D01*
X125927Y152376D01*
X125272Y152813D01*
X124500Y152967D01*
D02*
G37*
G36*
X98456Y167767D02*
X91544D01*
Y162233D01*
X93777D01*
Y158957D01*
X93386Y158795D01*
X92718Y158282D01*
X92205Y157614D01*
X91882Y156835D01*
X91772Y156000D01*
X91882Y155165D01*
X92205Y154386D01*
X92718Y153718D01*
X93386Y153205D01*
X93527Y153147D01*
Y152679D01*
X93073Y152376D01*
X92635Y151721D01*
X92482Y150949D01*
Y145240D01*
X92635Y144468D01*
X93073Y143813D01*
X93728Y143376D01*
X94500Y143222D01*
X95272Y143376D01*
X95927Y143813D01*
X96365Y144468D01*
X96518Y145240D01*
Y150949D01*
X96365Y151721D01*
X95973Y152307D01*
Y152940D01*
X96614Y153205D01*
X97282Y153718D01*
X97795Y154386D01*
X98118Y155165D01*
X98228Y156000D01*
X98118Y156835D01*
X97795Y157614D01*
X97282Y158282D01*
X96614Y158795D01*
X96223Y158957D01*
Y162233D01*
X98456D01*
Y167767D01*
D02*
G37*
G36*
X104500Y152967D02*
X103728Y152813D01*
X103073Y152376D01*
X102635Y151721D01*
X102482Y150949D01*
Y145240D01*
X102635Y144468D01*
X103073Y143813D01*
X103277Y143677D01*
Y142500D01*
X103370Y142032D01*
X103635Y141635D01*
X107026Y138244D01*
X106894Y137814D01*
X106841Y137744D01*
X105987D01*
X100724Y143007D01*
Y143677D01*
X100927Y143813D01*
X101365Y144468D01*
X101518Y145240D01*
Y150949D01*
X101365Y151721D01*
X100927Y152376D01*
X100272Y152813D01*
X99500Y152967D01*
X98728Y152813D01*
X98073Y152376D01*
X97635Y151721D01*
X97482Y150949D01*
Y145240D01*
X97635Y144468D01*
X98073Y143813D01*
X98277Y143677D01*
Y142500D01*
X98370Y142032D01*
X98635Y141635D01*
X104615Y135655D01*
X105012Y135390D01*
X105480Y135297D01*
X175973D01*
X182520Y128750D01*
X182254Y128108D01*
X182126Y127142D01*
X182254Y126176D01*
X182626Y125276D01*
X183219Y124503D01*
X183992Y123910D01*
X184892Y123537D01*
X185858Y123410D01*
X186824Y123537D01*
X187724Y123910D01*
X188497Y124503D01*
X189090Y125276D01*
X189463Y126176D01*
X189590Y127142D01*
X189463Y128108D01*
X189090Y129008D01*
X188497Y129781D01*
X187724Y130374D01*
X186824Y130746D01*
X185858Y130874D01*
X184892Y130746D01*
X184250Y130480D01*
X177454Y137276D01*
X177586Y137706D01*
X177639Y137777D01*
X183493D01*
X192520Y128750D01*
X192253Y128108D01*
X192126Y127142D01*
X192253Y126176D01*
X192626Y125276D01*
X193219Y124503D01*
X193992Y123910D01*
X194892Y123537D01*
X195858Y123410D01*
X196824Y123537D01*
X197724Y123910D01*
X198497Y124503D01*
X199090Y125276D01*
X199463Y126176D01*
X199590Y127142D01*
X199463Y128108D01*
X199090Y129008D01*
X198497Y129781D01*
X197724Y130374D01*
X196824Y130746D01*
X195858Y130874D01*
X194892Y130746D01*
X194250Y130480D01*
X184865Y139865D01*
X184468Y140130D01*
X184000Y140224D01*
X108507D01*
X105724Y143007D01*
Y143677D01*
X105927Y143813D01*
X106365Y144468D01*
X106518Y145240D01*
Y150949D01*
X106365Y151721D01*
X105927Y152376D01*
X105272Y152813D01*
X104500Y152967D01*
D02*
G37*
G36*
X427500Y137167D02*
Y135500D01*
X429167D01*
X429057Y135765D01*
X428496Y136496D01*
X427765Y137057D01*
X427500Y137167D01*
D02*
G37*
G36*
X424500D02*
X424235Y137057D01*
X423504Y136496D01*
X422943Y135765D01*
X422833Y135500D01*
X424500D01*
Y137167D01*
D02*
G37*
G36*
X396000Y139732D02*
X395034Y139605D01*
X394134Y139232D01*
X393361Y138639D01*
X392768Y137866D01*
X392395Y136966D01*
X392268Y136000D01*
X392395Y135034D01*
X392768Y134134D01*
X393361Y133361D01*
X394134Y132768D01*
X395034Y132395D01*
X396000Y132268D01*
X396966Y132395D01*
X397866Y132768D01*
X398639Y133361D01*
X399232Y134134D01*
X399287Y134267D01*
X401282D01*
X402774Y132774D01*
X403337Y132399D01*
X404000Y132267D01*
X409552D01*
Y131387D01*
X419417D01*
Y136724D01*
X415962D01*
X415844Y136747D01*
X415726Y136724D01*
X409552D01*
Y135733D01*
X404718D01*
X403226Y137226D01*
X402663Y137601D01*
X402000Y137733D01*
X399287D01*
X399232Y137866D01*
X398639Y138639D01*
X397866Y139232D01*
X396966Y139605D01*
X396000Y139732D01*
D02*
G37*
G36*
X429167Y132500D02*
X422833D01*
X422943Y132235D01*
X423504Y131504D01*
X423835Y131250D01*
Y130750D01*
X423504Y130496D01*
X422943Y129765D01*
X422833Y129500D01*
X429167D01*
X429057Y129765D01*
X428496Y130496D01*
X428165Y130750D01*
Y131250D01*
X428496Y131504D01*
X429057Y132235D01*
X429167Y132500D01*
D02*
G37*
G36*
X147358Y130850D02*
Y128642D01*
X149566D01*
X149352Y129159D01*
X148711Y129995D01*
X147875Y130636D01*
X147358Y130850D01*
D02*
G37*
G36*
X144358D02*
X143841Y130636D01*
X143005Y129995D01*
X142364Y129159D01*
X142150Y128642D01*
X144358D01*
Y130850D01*
D02*
G37*
G36*
X429167Y126500D02*
X422833D01*
X422943Y126235D01*
X423504Y125504D01*
X423835Y125250D01*
Y124750D01*
X423504Y124496D01*
X422943Y123765D01*
X422833Y123500D01*
X429167D01*
X429057Y123765D01*
X428496Y124496D01*
X428165Y124750D01*
Y125250D01*
X428496Y125504D01*
X429057Y126235D01*
X429167Y126500D01*
D02*
G37*
G36*
X149566Y125642D02*
X147358D01*
Y123433D01*
X147875Y123648D01*
X148711Y124289D01*
X149352Y125125D01*
X149566Y125642D01*
D02*
G37*
G36*
X144358D02*
X142150D01*
X142364Y125125D01*
X143005Y124289D01*
X143841Y123648D01*
X144358Y123433D01*
Y125642D01*
D02*
G37*
G36*
X375858Y130874D02*
X374892Y130746D01*
X373992Y130374D01*
X373219Y129781D01*
X372626Y129008D01*
X372253Y128108D01*
X372126Y127142D01*
X372253Y126176D01*
X372626Y125276D01*
X373219Y124503D01*
X373992Y123910D01*
X374892Y123537D01*
X375858Y123410D01*
X376824Y123537D01*
X377724Y123910D01*
X378497Y124503D01*
X379090Y125276D01*
X379463Y126176D01*
X379590Y127142D01*
X379463Y128108D01*
X379090Y129008D01*
X378497Y129781D01*
X377724Y130374D01*
X376824Y130746D01*
X375858Y130874D01*
D02*
G37*
G36*
X365858D02*
X364892Y130746D01*
X363992Y130374D01*
X363219Y129781D01*
X362626Y129008D01*
X362253Y128108D01*
X362126Y127142D01*
X362253Y126176D01*
X362626Y125276D01*
X363219Y124503D01*
X363992Y123910D01*
X364892Y123537D01*
X365858Y123410D01*
X366824Y123537D01*
X367724Y123910D01*
X368497Y124503D01*
X369090Y125276D01*
X369463Y126176D01*
X369590Y127142D01*
X369463Y128108D01*
X369090Y129008D01*
X368497Y129781D01*
X367724Y130374D01*
X366824Y130746D01*
X365858Y130874D01*
D02*
G37*
G36*
X355858D02*
X354892Y130746D01*
X353992Y130374D01*
X353219Y129781D01*
X352626Y129008D01*
X352254Y128108D01*
X352126Y127142D01*
X352254Y126176D01*
X352626Y125276D01*
X353219Y124503D01*
X353992Y123910D01*
X354892Y123537D01*
X355858Y123410D01*
X356824Y123537D01*
X357724Y123910D01*
X358497Y124503D01*
X359090Y125276D01*
X359463Y126176D01*
X359590Y127142D01*
X359463Y128108D01*
X359090Y129008D01*
X358497Y129781D01*
X357724Y130374D01*
X356824Y130746D01*
X355858Y130874D01*
D02*
G37*
G36*
X345858D02*
X344892Y130746D01*
X343992Y130374D01*
X343219Y129781D01*
X342626Y129008D01*
X342253Y128108D01*
X342126Y127142D01*
X342253Y126176D01*
X342626Y125276D01*
X343219Y124503D01*
X343992Y123910D01*
X344892Y123537D01*
X345858Y123410D01*
X346824Y123537D01*
X347724Y123910D01*
X348497Y124503D01*
X349090Y125276D01*
X349463Y126176D01*
X349590Y127142D01*
X349463Y128108D01*
X349090Y129008D01*
X348497Y129781D01*
X347724Y130374D01*
X346824Y130746D01*
X345858Y130874D01*
D02*
G37*
G36*
X335858D02*
X334892Y130746D01*
X333992Y130374D01*
X333219Y129781D01*
X332626Y129008D01*
X332254Y128108D01*
X332126Y127142D01*
X332254Y126176D01*
X332626Y125276D01*
X333219Y124503D01*
X333992Y123910D01*
X334892Y123537D01*
X335858Y123410D01*
X336824Y123537D01*
X337724Y123910D01*
X338497Y124503D01*
X339090Y125276D01*
X339463Y126176D01*
X339590Y127142D01*
X339463Y128108D01*
X339090Y129008D01*
X338497Y129781D01*
X337724Y130374D01*
X336824Y130746D01*
X335858Y130874D01*
D02*
G37*
G36*
X325858D02*
X324892Y130746D01*
X323992Y130374D01*
X323219Y129781D01*
X322626Y129008D01*
X322253Y128108D01*
X322126Y127142D01*
X322253Y126176D01*
X322626Y125276D01*
X323219Y124503D01*
X323992Y123910D01*
X324892Y123537D01*
X325858Y123410D01*
X326824Y123537D01*
X327724Y123910D01*
X328497Y124503D01*
X329090Y125276D01*
X329463Y126176D01*
X329590Y127142D01*
X329463Y128108D01*
X329090Y129008D01*
X328497Y129781D01*
X327724Y130374D01*
X326824Y130746D01*
X325858Y130874D01*
D02*
G37*
G36*
X315858D02*
X314892Y130746D01*
X313992Y130374D01*
X313219Y129781D01*
X312626Y129008D01*
X312253Y128108D01*
X312126Y127142D01*
X312253Y126176D01*
X312626Y125276D01*
X313219Y124503D01*
X313992Y123910D01*
X314892Y123537D01*
X315858Y123410D01*
X316824Y123537D01*
X317724Y123910D01*
X318497Y124503D01*
X319090Y125276D01*
X319463Y126176D01*
X319590Y127142D01*
X319463Y128108D01*
X319090Y129008D01*
X318497Y129781D01*
X317724Y130374D01*
X316824Y130746D01*
X315858Y130874D01*
D02*
G37*
G36*
X305858D02*
X304892Y130746D01*
X303992Y130374D01*
X303219Y129781D01*
X302626Y129008D01*
X302254Y128108D01*
X302126Y127142D01*
X302254Y126176D01*
X302626Y125276D01*
X303219Y124503D01*
X303992Y123910D01*
X304892Y123537D01*
X305858Y123410D01*
X306824Y123537D01*
X307724Y123910D01*
X308497Y124503D01*
X309090Y125276D01*
X309463Y126176D01*
X309590Y127142D01*
X309463Y128108D01*
X309090Y129008D01*
X308497Y129781D01*
X307724Y130374D01*
X306824Y130746D01*
X305858Y130874D01*
D02*
G37*
G36*
X285858D02*
X284892Y130746D01*
X283992Y130374D01*
X283219Y129781D01*
X282626Y129008D01*
X282254Y128108D01*
X282126Y127142D01*
X282254Y126176D01*
X282626Y125276D01*
X283219Y124503D01*
X283992Y123910D01*
X284892Y123537D01*
X285858Y123410D01*
X286824Y123537D01*
X287724Y123910D01*
X288497Y124503D01*
X289090Y125276D01*
X289463Y126176D01*
X289590Y127142D01*
X289463Y128108D01*
X289090Y129008D01*
X288497Y129781D01*
X287724Y130374D01*
X286824Y130746D01*
X285858Y130874D01*
D02*
G37*
G36*
X245858D02*
X244892Y130746D01*
X243992Y130374D01*
X243219Y129781D01*
X242626Y129008D01*
X242253Y128108D01*
X242126Y127142D01*
X242253Y126176D01*
X242626Y125276D01*
X243219Y124503D01*
X243992Y123910D01*
X244892Y123537D01*
X245858Y123410D01*
X246824Y123537D01*
X247724Y123910D01*
X248497Y124503D01*
X249090Y125276D01*
X249463Y126176D01*
X249590Y127142D01*
X249463Y128108D01*
X249090Y129008D01*
X248497Y129781D01*
X247724Y130374D01*
X246824Y130746D01*
X245858Y130874D01*
D02*
G37*
G36*
X235858D02*
X234892Y130746D01*
X233992Y130374D01*
X233219Y129781D01*
X232626Y129008D01*
X232254Y128108D01*
X232126Y127142D01*
X232254Y126176D01*
X232626Y125276D01*
X233219Y124503D01*
X233992Y123910D01*
X234892Y123537D01*
X235858Y123410D01*
X236824Y123537D01*
X237724Y123910D01*
X238497Y124503D01*
X239090Y125276D01*
X239463Y126176D01*
X239590Y127142D01*
X239463Y128108D01*
X239090Y129008D01*
X238497Y129781D01*
X237724Y130374D01*
X236824Y130746D01*
X235858Y130874D01*
D02*
G37*
G36*
X225858D02*
X224892Y130746D01*
X223992Y130374D01*
X223219Y129781D01*
X222626Y129008D01*
X222253Y128108D01*
X222126Y127142D01*
X222253Y126176D01*
X222626Y125276D01*
X223219Y124503D01*
X223992Y123910D01*
X224892Y123537D01*
X225858Y123410D01*
X226824Y123537D01*
X227724Y123910D01*
X228497Y124503D01*
X229090Y125276D01*
X229463Y126176D01*
X229590Y127142D01*
X229463Y128108D01*
X229090Y129008D01*
X228497Y129781D01*
X227724Y130374D01*
X226824Y130746D01*
X225858Y130874D01*
D02*
G37*
G36*
X215858D02*
X214892Y130746D01*
X213992Y130374D01*
X213219Y129781D01*
X212626Y129008D01*
X212253Y128108D01*
X212126Y127142D01*
X212253Y126176D01*
X212626Y125276D01*
X213219Y124503D01*
X213992Y123910D01*
X214892Y123537D01*
X215858Y123410D01*
X216824Y123537D01*
X217724Y123910D01*
X218497Y124503D01*
X219090Y125276D01*
X219463Y126176D01*
X219590Y127142D01*
X219463Y128108D01*
X219090Y129008D01*
X218497Y129781D01*
X217724Y130374D01*
X216824Y130746D01*
X215858Y130874D01*
D02*
G37*
G36*
X205858D02*
X204892Y130746D01*
X203992Y130374D01*
X203219Y129781D01*
X202626Y129008D01*
X202254Y128108D01*
X202126Y127142D01*
X202254Y126176D01*
X202626Y125276D01*
X203219Y124503D01*
X203992Y123910D01*
X204892Y123537D01*
X205858Y123410D01*
X206824Y123537D01*
X207724Y123910D01*
X208497Y124503D01*
X209090Y125276D01*
X209463Y126176D01*
X209590Y127142D01*
X209463Y128108D01*
X209090Y129008D01*
X208497Y129781D01*
X207724Y130374D01*
X206824Y130746D01*
X205858Y130874D01*
D02*
G37*
G36*
X175858D02*
X174892Y130746D01*
X173992Y130374D01*
X173219Y129781D01*
X172626Y129008D01*
X172254Y128108D01*
X172126Y127142D01*
X172254Y126176D01*
X172626Y125276D01*
X173219Y124503D01*
X173992Y123910D01*
X174892Y123537D01*
X175858Y123410D01*
X176824Y123537D01*
X177724Y123910D01*
X178497Y124503D01*
X179090Y125276D01*
X179463Y126176D01*
X179590Y127142D01*
X179463Y128108D01*
X179090Y129008D01*
X178497Y129781D01*
X177724Y130374D01*
X176824Y130746D01*
X175858Y130874D01*
D02*
G37*
G36*
X165858D02*
X164892Y130746D01*
X163992Y130374D01*
X163219Y129781D01*
X162626Y129008D01*
X162253Y128108D01*
X162126Y127142D01*
X162253Y126176D01*
X162626Y125276D01*
X163219Y124503D01*
X163992Y123910D01*
X164892Y123537D01*
X165858Y123410D01*
X166824Y123537D01*
X167724Y123910D01*
X168497Y124503D01*
X169090Y125276D01*
X169463Y126176D01*
X169590Y127142D01*
X169463Y128108D01*
X169090Y129008D01*
X168497Y129781D01*
X167724Y130374D01*
X166824Y130746D01*
X165858Y130874D01*
D02*
G37*
G36*
X155858D02*
X154892Y130746D01*
X153992Y130374D01*
X153219Y129781D01*
X152626Y129008D01*
X152253Y128108D01*
X152126Y127142D01*
X152253Y126176D01*
X152626Y125276D01*
X153219Y124503D01*
X153992Y123910D01*
X154892Y123537D01*
X155858Y123410D01*
X156824Y123537D01*
X157724Y123910D01*
X158497Y124503D01*
X159090Y125276D01*
X159463Y126176D01*
X159590Y127142D01*
X159463Y128108D01*
X159090Y129008D01*
X158497Y129781D01*
X157724Y130374D01*
X156824Y130746D01*
X155858Y130874D01*
D02*
G37*
G36*
X419417Y127668D02*
X409552D01*
Y126479D01*
X407000D01*
X406434Y126366D01*
X405955Y126046D01*
X317388Y37478D01*
X284716D01*
X284151Y37366D01*
X283671Y37045D01*
X277212Y30586D01*
X276824Y30746D01*
X275858Y30874D01*
X274892Y30746D01*
X273992Y30374D01*
X273219Y29781D01*
X272626Y29008D01*
X272253Y28108D01*
X272126Y27142D01*
X272253Y26176D01*
X272626Y25276D01*
X273219Y24503D01*
X273992Y23910D01*
X274635Y23644D01*
Y12365D01*
X273229Y10959D01*
X272767Y11150D01*
Y12456D01*
X267233D01*
Y5544D01*
X272767D01*
Y7777D01*
X273000D01*
X273468Y7870D01*
X273865Y8135D01*
X276723Y10993D01*
X276989Y11390D01*
X277082Y11858D01*
Y23644D01*
X277724Y23910D01*
X278497Y24503D01*
X279090Y25276D01*
X279463Y26176D01*
X279590Y27142D01*
X279463Y28108D01*
X279303Y28495D01*
X285329Y34522D01*
X318000D01*
X318566Y34634D01*
X319045Y34955D01*
X407612Y123522D01*
X409552D01*
Y122332D01*
X419417D01*
Y127668D01*
D02*
G37*
G36*
X399700Y129700D02*
X392300D01*
Y122300D01*
X399700D01*
Y129700D01*
D02*
G37*
G36*
X442448Y132098D02*
X432584D01*
Y117902D01*
X442448D01*
Y132098D01*
D02*
G37*
G36*
X429167Y120500D02*
X422833D01*
X422943Y120235D01*
X423504Y119504D01*
X423835Y119250D01*
Y118750D01*
X423504Y118496D01*
X422943Y117765D01*
X422833Y117500D01*
X429167D01*
X429057Y117765D01*
X428496Y118496D01*
X428165Y118750D01*
Y119250D01*
X428496Y119504D01*
X429057Y120235D01*
X429167Y120500D01*
D02*
G37*
G36*
X419717Y118913D02*
X415984D01*
Y117445D01*
X419717D01*
Y118913D01*
D02*
G37*
G36*
X412984D02*
X409252D01*
Y117445D01*
X412984D01*
Y118913D01*
D02*
G37*
G36*
X419717Y114445D02*
X415984D01*
Y112976D01*
X419717D01*
Y114445D01*
D02*
G37*
G36*
X412984D02*
X409252D01*
Y112976D01*
X412984D01*
Y114445D01*
D02*
G37*
G36*
X429167Y114500D02*
X427500D01*
Y112833D01*
X427765Y112943D01*
X428496Y113504D01*
X429057Y114235D01*
X429167Y114500D01*
D02*
G37*
G36*
X424500D02*
X422833D01*
X422943Y114235D01*
X423504Y113504D01*
X424235Y112943D01*
X424500Y112833D01*
Y114500D01*
D02*
G37*
G36*
X325858Y95874D02*
X324892Y95746D01*
X323992Y95374D01*
X323219Y94781D01*
X322626Y94008D01*
X322253Y93108D01*
X322126Y92142D01*
X322253Y91176D01*
X322626Y90276D01*
X323219Y89503D01*
X323992Y88910D01*
X324892Y88537D01*
X325858Y88410D01*
X326824Y88537D01*
X327724Y88910D01*
X328497Y89503D01*
X329090Y90276D01*
X329463Y91176D01*
X329590Y92142D01*
X329463Y93108D01*
X329090Y94008D01*
X328497Y94781D01*
X327724Y95374D01*
X326824Y95746D01*
X325858Y95874D01*
D02*
G37*
G36*
X315858D02*
X314892Y95746D01*
X313992Y95374D01*
X313219Y94781D01*
X312626Y94008D01*
X312253Y93108D01*
X312126Y92142D01*
X312253Y91176D01*
X312626Y90276D01*
X313219Y89503D01*
X313992Y88910D01*
X314892Y88537D01*
X315858Y88410D01*
X316824Y88537D01*
X317724Y88910D01*
X318497Y89503D01*
X319090Y90276D01*
X319463Y91176D01*
X319590Y92142D01*
X319463Y93108D01*
X319090Y94008D01*
X318497Y94781D01*
X317724Y95374D01*
X316824Y95746D01*
X315858Y95874D01*
D02*
G37*
G36*
X305858D02*
X304892Y95746D01*
X303992Y95374D01*
X303219Y94781D01*
X302626Y94008D01*
X302254Y93108D01*
X302126Y92142D01*
X302254Y91176D01*
X302626Y90276D01*
X303219Y89503D01*
X303992Y88910D01*
X304892Y88537D01*
X305858Y88410D01*
X306824Y88537D01*
X307724Y88910D01*
X308497Y89503D01*
X309090Y90276D01*
X309463Y91176D01*
X309590Y92142D01*
X309463Y93108D01*
X309090Y94008D01*
X308497Y94781D01*
X307724Y95374D01*
X306824Y95746D01*
X305858Y95874D01*
D02*
G37*
G36*
X295858Y130874D02*
X294892Y130746D01*
X293992Y130374D01*
X293219Y129781D01*
X292626Y129008D01*
X292253Y128108D01*
X292126Y127142D01*
X292253Y126176D01*
X292626Y125276D01*
X293219Y124503D01*
X293992Y123910D01*
X294635Y123644D01*
Y95640D01*
X293992Y95374D01*
X293219Y94781D01*
X292626Y94008D01*
X292253Y93108D01*
X292126Y92142D01*
X292253Y91176D01*
X292626Y90276D01*
X293219Y89503D01*
X293992Y88910D01*
X294892Y88537D01*
X295858Y88410D01*
X296824Y88537D01*
X297724Y88910D01*
X298497Y89503D01*
X299090Y90276D01*
X299463Y91176D01*
X299590Y92142D01*
X299463Y93108D01*
X299090Y94008D01*
X298497Y94781D01*
X297724Y95374D01*
X297082Y95640D01*
Y123644D01*
X297724Y123910D01*
X298497Y124503D01*
X299090Y125276D01*
X299463Y126176D01*
X299590Y127142D01*
X299463Y128108D01*
X299090Y129008D01*
X298497Y129781D01*
X297724Y130374D01*
X296824Y130746D01*
X295858Y130874D01*
D02*
G37*
G36*
X285858Y95874D02*
X284892Y95746D01*
X283992Y95374D01*
X283219Y94781D01*
X282626Y94008D01*
X282254Y93108D01*
X282126Y92142D01*
X282254Y91176D01*
X282626Y90276D01*
X283219Y89503D01*
X283992Y88910D01*
X284892Y88537D01*
X285858Y88410D01*
X286824Y88537D01*
X287724Y88910D01*
X288497Y89503D01*
X289090Y90276D01*
X289463Y91176D01*
X289590Y92142D01*
X289463Y93108D01*
X289090Y94008D01*
X288497Y94781D01*
X287724Y95374D01*
X286824Y95746D01*
X285858Y95874D01*
D02*
G37*
G36*
X275858Y130874D02*
X274892Y130746D01*
X273992Y130374D01*
X273219Y129781D01*
X272626Y129008D01*
X272253Y128108D01*
X272126Y127142D01*
X272253Y126176D01*
X272626Y125276D01*
X273219Y124503D01*
X273992Y123910D01*
X274635Y123644D01*
Y95640D01*
X273992Y95374D01*
X273219Y94781D01*
X272626Y94008D01*
X272253Y93108D01*
X272126Y92142D01*
X272253Y91176D01*
X272626Y90276D01*
X273219Y89503D01*
X273992Y88910D01*
X274892Y88537D01*
X275858Y88410D01*
X276824Y88537D01*
X277724Y88910D01*
X278497Y89503D01*
X279090Y90276D01*
X279463Y91176D01*
X279590Y92142D01*
X279463Y93108D01*
X279090Y94008D01*
X278497Y94781D01*
X277724Y95374D01*
X277082Y95640D01*
Y123644D01*
X277724Y123910D01*
X278497Y124503D01*
X279090Y125276D01*
X279463Y126176D01*
X279590Y127142D01*
X279463Y128108D01*
X279090Y129008D01*
X278497Y129781D01*
X277724Y130374D01*
X276824Y130746D01*
X275858Y130874D01*
D02*
G37*
G36*
X265858D02*
X264892Y130746D01*
X263992Y130374D01*
X263219Y129781D01*
X262626Y129008D01*
X262253Y128108D01*
X262126Y127142D01*
X262253Y126176D01*
X262626Y125276D01*
X263219Y124503D01*
X263992Y123910D01*
X264635Y123644D01*
Y95640D01*
X263992Y95374D01*
X263219Y94781D01*
X262626Y94008D01*
X262253Y93108D01*
X262126Y92142D01*
X262253Y91176D01*
X262626Y90276D01*
X263219Y89503D01*
X263992Y88910D01*
X264892Y88537D01*
X265858Y88410D01*
X266824Y88537D01*
X267724Y88910D01*
X268497Y89503D01*
X269090Y90276D01*
X269463Y91176D01*
X269590Y92142D01*
X269463Y93108D01*
X269090Y94008D01*
X268497Y94781D01*
X267724Y95374D01*
X267082Y95640D01*
Y123644D01*
X267724Y123910D01*
X268497Y124503D01*
X269090Y125276D01*
X269463Y126176D01*
X269590Y127142D01*
X269463Y128108D01*
X269090Y129008D01*
X268497Y129781D01*
X267724Y130374D01*
X266824Y130746D01*
X265858Y130874D01*
D02*
G37*
G36*
X255858D02*
X254892Y130746D01*
X253992Y130374D01*
X253219Y129781D01*
X252626Y129008D01*
X252254Y128108D01*
X252126Y127142D01*
X252254Y126176D01*
X252626Y125276D01*
X253219Y124503D01*
X253992Y123910D01*
X254635Y123644D01*
Y95640D01*
X253992Y95374D01*
X253219Y94781D01*
X252626Y94008D01*
X252254Y93108D01*
X252126Y92142D01*
X252254Y91176D01*
X252626Y90276D01*
X253219Y89503D01*
X253992Y88910D01*
X254892Y88537D01*
X255858Y88410D01*
X256824Y88537D01*
X257724Y88910D01*
X258497Y89503D01*
X259090Y90276D01*
X259463Y91176D01*
X259590Y92142D01*
X259463Y93108D01*
X259090Y94008D01*
X258497Y94781D01*
X257724Y95374D01*
X257082Y95640D01*
Y123644D01*
X257724Y123910D01*
X258497Y124503D01*
X259090Y125276D01*
X259463Y126176D01*
X259590Y127142D01*
X259463Y128108D01*
X259090Y129008D01*
X258497Y129781D01*
X257724Y130374D01*
X256824Y130746D01*
X255858Y130874D01*
D02*
G37*
G36*
X267358Y30850D02*
Y28642D01*
X269566D01*
X269352Y29159D01*
X268711Y29995D01*
X267876Y30636D01*
X267358Y30850D01*
D02*
G37*
G36*
X264358D02*
X263841Y30636D01*
X263005Y29995D01*
X262364Y29159D01*
X262150Y28642D01*
X264358D01*
Y30850D01*
D02*
G37*
G36*
X269566Y25642D02*
X267358D01*
Y23434D01*
X267876Y23648D01*
X268711Y24289D01*
X269352Y25124D01*
X269566Y25642D01*
D02*
G37*
G36*
X264358D02*
X262150D01*
X262364Y25124D01*
X263005Y24289D01*
X263841Y23648D01*
X264358Y23434D01*
Y25642D01*
D02*
G37*
G36*
X325858Y30874D02*
X324892Y30746D01*
X323992Y30374D01*
X323219Y29781D01*
X322626Y29008D01*
X322253Y28108D01*
X322126Y27142D01*
X322253Y26176D01*
X322626Y25276D01*
X323219Y24503D01*
X323992Y23910D01*
X324892Y23537D01*
X325858Y23410D01*
X326824Y23537D01*
X327724Y23910D01*
X328497Y24503D01*
X329090Y25276D01*
X329463Y26176D01*
X329590Y27142D01*
X329463Y28108D01*
X329090Y29008D01*
X328497Y29781D01*
X327724Y30374D01*
X326824Y30746D01*
X325858Y30874D01*
D02*
G37*
G36*
X315858D02*
X314892Y30746D01*
X313992Y30374D01*
X313219Y29781D01*
X312626Y29008D01*
X312253Y28108D01*
X312126Y27142D01*
X312253Y26176D01*
X312626Y25276D01*
X313219Y24503D01*
X313992Y23910D01*
X314892Y23537D01*
X315858Y23410D01*
X316824Y23537D01*
X317724Y23910D01*
X318497Y24503D01*
X319090Y25276D01*
X319463Y26176D01*
X319590Y27142D01*
X319463Y28108D01*
X319090Y29008D01*
X318497Y29781D01*
X317724Y30374D01*
X316824Y30746D01*
X315858Y30874D01*
D02*
G37*
G36*
X305858D02*
X304892Y30746D01*
X303992Y30374D01*
X303219Y29781D01*
X302626Y29008D01*
X302254Y28108D01*
X302126Y27142D01*
X302254Y26176D01*
X302626Y25276D01*
X303219Y24503D01*
X303992Y23910D01*
X304892Y23537D01*
X305858Y23410D01*
X306824Y23537D01*
X307724Y23910D01*
X308497Y24503D01*
X309090Y25276D01*
X309463Y26176D01*
X309590Y27142D01*
X309463Y28108D01*
X309090Y29008D01*
X308497Y29781D01*
X307724Y30374D01*
X306824Y30746D01*
X305858Y30874D01*
D02*
G37*
G36*
X295858D02*
X294892Y30746D01*
X293992Y30374D01*
X293219Y29781D01*
X292626Y29008D01*
X292253Y28108D01*
X292126Y27142D01*
X292253Y26176D01*
X292626Y25276D01*
X293219Y24503D01*
X293992Y23910D01*
X294892Y23537D01*
X295858Y23410D01*
X296824Y23537D01*
X297724Y23910D01*
X298497Y24503D01*
X299090Y25276D01*
X299463Y26176D01*
X299590Y27142D01*
X299463Y28108D01*
X299090Y29008D01*
X298497Y29781D01*
X297724Y30374D01*
X296824Y30746D01*
X295858Y30874D01*
D02*
G37*
G36*
X285858D02*
X284892Y30746D01*
X283992Y30374D01*
X283219Y29781D01*
X282626Y29008D01*
X282254Y28108D01*
X282126Y27142D01*
X282254Y26176D01*
X282626Y25276D01*
X283219Y24503D01*
X283992Y23910D01*
X284892Y23537D01*
X285858Y23410D01*
X286824Y23537D01*
X287724Y23910D01*
X288497Y24503D01*
X289090Y25276D01*
X289463Y26176D01*
X289590Y27142D01*
X289463Y28108D01*
X289090Y29008D01*
X288497Y29781D01*
X287724Y30374D01*
X286824Y30746D01*
X285858Y30874D01*
D02*
G37*
G36*
X255858D02*
X254892Y30746D01*
X253992Y30374D01*
X253219Y29781D01*
X252626Y29008D01*
X252254Y28108D01*
X252126Y27142D01*
X252254Y26176D01*
X252626Y25276D01*
X253219Y24503D01*
X253992Y23910D01*
X254892Y23537D01*
X255858Y23410D01*
X256824Y23537D01*
X257724Y23910D01*
X258497Y24503D01*
X259090Y25276D01*
X259463Y26176D01*
X259590Y27142D01*
X259463Y28108D01*
X259090Y29008D01*
X258497Y29781D01*
X257724Y30374D01*
X256824Y30746D01*
X255858Y30874D01*
D02*
G37*
G36*
X265783Y12756D02*
X264216D01*
Y10500D01*
X265783D01*
Y12756D01*
D02*
G37*
G36*
X261216D02*
X259649D01*
Y10500D01*
X261216D01*
Y12756D01*
D02*
G37*
G36*
X265783Y7500D02*
X264216D01*
Y5244D01*
X265783D01*
Y7500D01*
D02*
G37*
G36*
X261216D02*
X259649D01*
Y5244D01*
X261216D01*
Y7500D01*
D02*
G37*
%LPD*%
G36*
X265000Y316000D02*
X259000Y307000D01*
X258000Y304000D01*
X259000Y300000D01*
X262333Y295000D01*
X202000D01*
Y304000D01*
X214000Y316000D01*
X265000Y316000D01*
D02*
G37*
G36*
X200000Y304000D02*
X200000Y295000D01*
X136333Y295000D01*
X139000Y299000D01*
X141000Y302000D01*
Y303000D01*
X131657Y315000D01*
X130000D01*
X130931Y315931D01*
X130878Y316000D01*
X188000D01*
X200000Y304000D01*
D02*
G37*
G36*
X435500Y235700D02*
X410500Y224700D01*
X410500Y210000D01*
X406500Y210000D01*
X406500Y216067D01*
X402783Y235700D01*
Y241300D01*
X435500D01*
Y235700D01*
D02*
G37*
G36*
X156044Y174865D02*
X155761Y174442D01*
X155335Y174618D01*
X154500Y174728D01*
X153665Y174618D01*
X153274Y174456D01*
X144623Y183107D01*
X144882Y183521D01*
X144902Y183536D01*
X145858Y183410D01*
X146824Y183537D01*
X147212Y183697D01*
X156044Y174865D01*
D02*
G37*
%LPC*%
G36*
X119500Y115084D02*
X118611Y114907D01*
X117857Y114403D01*
X117353Y113649D01*
X117255Y113157D01*
X116745D01*
X116647Y113649D01*
X116144Y114403D01*
X115389Y114907D01*
X114500Y115084D01*
X113611Y114907D01*
X112856Y114403D01*
X112353Y113649D01*
X112255Y113157D01*
X111745D01*
X111647Y113649D01*
X111144Y114403D01*
X110389Y114907D01*
X109500Y115084D01*
X108611Y114907D01*
X107857Y114403D01*
X107353Y113649D01*
X107255Y113157D01*
X106745D01*
X106647Y113649D01*
X106143Y114403D01*
X105389Y114907D01*
X104500Y115084D01*
X103611Y114907D01*
X102857Y114403D01*
X102353Y113649D01*
X102255Y113157D01*
X101745D01*
X101647Y113649D01*
X101143Y114403D01*
X100389Y114907D01*
X99500Y115084D01*
X98611Y114907D01*
X97857Y114403D01*
X97353Y113649D01*
X97255Y113157D01*
X96745D01*
X96647Y113649D01*
X96143Y114403D01*
X95389Y114907D01*
X94500Y115084D01*
X93611Y114907D01*
X92857Y114403D01*
X92353Y113649D01*
X92255Y113157D01*
X91745D01*
X91647Y113649D01*
X91143Y114403D01*
X91000Y114499D01*
Y109906D01*
X89500D01*
Y108405D01*
X87176D01*
Y107051D01*
X87353Y106162D01*
X87857Y105408D01*
X87971Y105332D01*
Y100815D01*
X88087Y100229D01*
X88419Y99733D01*
X105329Y82823D01*
Y81642D01*
X102858D01*
Y79142D01*
X106858D01*
Y76142D01*
X102858D01*
Y74671D01*
X67992D01*
X66553Y76110D01*
X66755Y76597D01*
X66893Y77642D01*
X66755Y78686D01*
X66352Y79659D01*
X65711Y80495D01*
X64876Y81136D01*
X63902Y81539D01*
X62858Y81676D01*
X61814Y81539D01*
X60841Y81136D01*
X60005Y80495D01*
X59364Y79659D01*
X58961Y78686D01*
X58824Y77642D01*
X58961Y76597D01*
X59364Y75625D01*
X60005Y74789D01*
X60841Y74148D01*
X61814Y73745D01*
X62858Y73607D01*
X63902Y73745D01*
X64390Y73947D01*
X66277Y72060D01*
X66464Y71935D01*
X66409Y71371D01*
X65841Y71136D01*
X65005Y70495D01*
X64364Y69659D01*
X63961Y68686D01*
X63824Y67642D01*
X63961Y66597D01*
X64364Y65624D01*
X65005Y64789D01*
X65841Y64148D01*
X66814Y63745D01*
X67858Y63607D01*
X68875Y63741D01*
X72058Y60558D01*
X72720Y60116D01*
X73500Y59961D01*
X126216D01*
X126997Y60116D01*
X127658Y60558D01*
X130841Y63741D01*
X131858Y63607D01*
X132903Y63745D01*
X133876Y64148D01*
X134711Y64789D01*
X135352Y65624D01*
X135755Y66597D01*
X135893Y67642D01*
X135755Y68686D01*
X135352Y69659D01*
X134711Y70495D01*
X133876Y71136D01*
X133388Y71338D01*
Y82142D01*
X133271Y82727D01*
X132940Y83223D01*
X120154Y96009D01*
X120346Y96471D01*
X125933D01*
Y94244D01*
X132067D01*
Y101756D01*
X125933D01*
Y99529D01*
X116633D01*
X111258Y104905D01*
Y105579D01*
X111647Y106162D01*
X111745Y106654D01*
X112255D01*
X112353Y106162D01*
X112856Y105408D01*
X113611Y104904D01*
X114500Y104727D01*
X115389Y104904D01*
X116144Y105408D01*
X116647Y106162D01*
X116745Y106654D01*
X117255D01*
X117353Y106162D01*
X117857Y105408D01*
X118611Y104904D01*
X119500Y104727D01*
X120389Y104904D01*
X121143Y105408D01*
X121647Y106162D01*
X121745Y106654D01*
X122255D01*
X122353Y106162D01*
X122856Y105408D01*
X123000Y105312D01*
Y109906D01*
Y114499D01*
X122856Y114403D01*
X122353Y113649D01*
X122255Y113157D01*
X121745D01*
X121647Y113649D01*
X121143Y114403D01*
X120389Y114907D01*
X119500Y115084D01*
D02*
G37*
G36*
X126000Y114499D02*
Y111406D01*
X126824D01*
Y112760D01*
X126647Y113649D01*
X126144Y114403D01*
X126000Y114499D01*
D02*
G37*
G36*
X88000D02*
X87857Y114403D01*
X87353Y113649D01*
X87176Y112760D01*
Y111406D01*
X88000D01*
Y114499D01*
D02*
G37*
G36*
X33000Y118035D02*
X31956Y117897D01*
X30983Y117494D01*
X30147Y116853D01*
X29506Y116017D01*
X29103Y115044D01*
X28965Y114000D01*
X29103Y112956D01*
X29506Y111983D01*
X30147Y111147D01*
X30983Y110506D01*
X31956Y110103D01*
X33000Y109966D01*
X34044Y110103D01*
X35017Y110506D01*
X35853Y111147D01*
X36494Y111983D01*
X36897Y112956D01*
X37034Y114000D01*
X36897Y115044D01*
X36494Y116017D01*
X35853Y116853D01*
X35017Y117494D01*
X34044Y117897D01*
X33000Y118035D01*
D02*
G37*
G36*
X126824Y108405D02*
X126000D01*
Y105312D01*
X126144Y105408D01*
X126647Y106162D01*
X126824Y107051D01*
Y108405D01*
D02*
G37*
G36*
X139350Y101756D02*
X137783D01*
Y99500D01*
X139350D01*
Y101756D01*
D02*
G37*
G36*
X134783D02*
X133217D01*
Y99500D01*
X134783D01*
Y101756D01*
D02*
G37*
G36*
X43000Y118035D02*
X41956Y117897D01*
X40983Y117494D01*
X40147Y116853D01*
X39506Y116017D01*
X39103Y115044D01*
X38965Y114000D01*
X39103Y112956D01*
X39506Y111983D01*
X40147Y111147D01*
X40983Y110506D01*
X41471Y110304D01*
Y105350D01*
X39441D01*
Y99217D01*
X46559D01*
Y105350D01*
X44529D01*
Y110304D01*
X45017Y110506D01*
X45853Y111147D01*
X46494Y111983D01*
X46897Y112956D01*
X47034Y114000D01*
X46897Y115044D01*
X46494Y116017D01*
X45853Y116853D01*
X45017Y117494D01*
X44044Y117897D01*
X43000Y118035D01*
D02*
G37*
G36*
X139350Y96500D02*
X137783D01*
Y94244D01*
X139350D01*
Y96500D01*
D02*
G37*
G36*
X134783D02*
X133217D01*
Y94244D01*
X134783D01*
Y96500D01*
D02*
G37*
G36*
X57000Y118000D02*
X49000D01*
Y110000D01*
X51329D01*
Y81338D01*
X50841Y81136D01*
X50005Y80495D01*
X49861Y80306D01*
X49388Y80467D01*
Y84142D01*
X49271Y84727D01*
X48940Y85223D01*
X44529Y89634D01*
Y91933D01*
X46559D01*
Y98067D01*
X39441D01*
Y91933D01*
X41471D01*
Y89000D01*
X41587Y88415D01*
X41919Y87919D01*
X46329Y83508D01*
Y81642D01*
X44358D01*
Y77642D01*
Y73642D01*
X46329D01*
Y71338D01*
X45841Y71136D01*
X45005Y70495D01*
X44364Y69659D01*
X43961Y68686D01*
X43824Y67642D01*
X43961Y66597D01*
X44364Y65624D01*
X45005Y64789D01*
X45841Y64148D01*
X46814Y63745D01*
X47858Y63607D01*
X48902Y63745D01*
X49876Y64148D01*
X50711Y64789D01*
X51352Y65624D01*
X51755Y66597D01*
X51893Y67642D01*
X51755Y68686D01*
X51352Y69659D01*
X50711Y70495D01*
X49876Y71136D01*
X49388Y71338D01*
Y74816D01*
X49861Y74977D01*
X50005Y74789D01*
X50841Y74148D01*
X51814Y73745D01*
X52858Y73607D01*
X53903Y73745D01*
X54875Y74148D01*
X55711Y74789D01*
X56352Y75625D01*
X56755Y76597D01*
X56893Y77642D01*
X56755Y78686D01*
X56352Y79659D01*
X55711Y80495D01*
X54875Y81136D01*
X54388Y81338D01*
Y110000D01*
X57000D01*
Y118000D01*
D02*
G37*
G36*
X41358Y81642D02*
X38858D01*
Y79142D01*
X41358D01*
Y81642D01*
D02*
G37*
G36*
Y76142D02*
X38858D01*
Y73642D01*
X41358D01*
Y76142D01*
D02*
G37*
G36*
X57858Y71676D02*
X56814Y71539D01*
X55841Y71136D01*
X55005Y70495D01*
X54364Y69659D01*
X53961Y68686D01*
X53824Y67642D01*
X53961Y66597D01*
X54364Y65624D01*
X55005Y64789D01*
X55841Y64148D01*
X56814Y63745D01*
X57858Y63607D01*
X58903Y63745D01*
X59876Y64148D01*
X60711Y64789D01*
X61352Y65624D01*
X61755Y66597D01*
X61893Y67642D01*
X61755Y68686D01*
X61352Y69659D01*
X60711Y70495D01*
X59876Y71136D01*
X58903Y71539D01*
X57858Y71676D01*
D02*
G37*
G36*
X139358Y50075D02*
X137908Y49932D01*
X136514Y49509D01*
X135229Y48822D01*
X134102Y47898D01*
X133178Y46771D01*
X132491Y45486D01*
X132068Y44092D01*
X131925Y42642D01*
X132068Y41192D01*
X132491Y39797D01*
X133178Y38512D01*
X134102Y37385D01*
X135229Y36461D01*
X136514Y35774D01*
X137908Y35351D01*
X139358Y35208D01*
X140808Y35351D01*
X142203Y35774D01*
X143488Y36461D01*
X144615Y37385D01*
X145539Y38512D01*
X146226Y39797D01*
X146649Y41192D01*
X146792Y42642D01*
X146649Y44092D01*
X146226Y45486D01*
X145539Y46771D01*
X144615Y47898D01*
X143488Y48822D01*
X142203Y49509D01*
X140808Y49932D01*
X139358Y50075D01*
D02*
G37*
G36*
X99358D02*
X97908Y49932D01*
X96514Y49509D01*
X95228Y48822D01*
X94102Y47898D01*
X93178Y46771D01*
X92491Y45486D01*
X92068Y44092D01*
X91925Y42642D01*
X92068Y41192D01*
X92491Y39797D01*
X93178Y38512D01*
X94102Y37385D01*
X95228Y36461D01*
X96514Y35774D01*
X97908Y35351D01*
X99358Y35208D01*
X100809Y35351D01*
X102203Y35774D01*
X103488Y36461D01*
X104614Y37385D01*
X105539Y38512D01*
X106226Y39797D01*
X106649Y41192D01*
X106792Y42642D01*
X106649Y44092D01*
X106226Y45486D01*
X105539Y46771D01*
X104614Y47898D01*
X103488Y48822D01*
X102203Y49509D01*
X100809Y49932D01*
X99358Y50075D01*
D02*
G37*
G36*
X75358D02*
X73908Y49932D01*
X72514Y49509D01*
X71228Y48822D01*
X70102Y47898D01*
X69178Y46771D01*
X68491Y45486D01*
X68068Y44092D01*
X67925Y42642D01*
X68068Y41192D01*
X68491Y39797D01*
X69178Y38512D01*
X70102Y37385D01*
X71228Y36461D01*
X72514Y35774D01*
X73908Y35351D01*
X75358Y35208D01*
X76809Y35351D01*
X78203Y35774D01*
X79488Y36461D01*
X80615Y37385D01*
X81539Y38512D01*
X82226Y39797D01*
X82649Y41192D01*
X82792Y42642D01*
X82649Y44092D01*
X82226Y45486D01*
X81539Y46771D01*
X80615Y47898D01*
X79488Y48822D01*
X78203Y49509D01*
X76809Y49932D01*
X75358Y50075D01*
D02*
G37*
G36*
X35358D02*
X33908Y49932D01*
X32514Y49509D01*
X31229Y48822D01*
X30102Y47898D01*
X29178Y46771D01*
X28491Y45486D01*
X28068Y44092D01*
X27925Y42642D01*
X28068Y41192D01*
X28491Y39797D01*
X29178Y38512D01*
X30102Y37385D01*
X31229Y36461D01*
X32514Y35774D01*
X33908Y35351D01*
X35358Y35208D01*
X36808Y35351D01*
X38203Y35774D01*
X39488Y36461D01*
X40615Y37385D01*
X41539Y38512D01*
X42226Y39797D01*
X42649Y41192D01*
X42792Y42642D01*
X42649Y44092D01*
X42226Y45486D01*
X41539Y46771D01*
X40615Y47898D01*
X39488Y48822D01*
X38203Y49509D01*
X36808Y49932D01*
X35358Y50075D01*
D02*
G37*
%LPD*%
G36*
X97353Y106162D02*
X97857Y105408D01*
X98221Y105165D01*
Y101046D01*
X97504Y100496D01*
X96943Y99765D01*
X96590Y98914D01*
X96470Y98000D01*
X96590Y97086D01*
X96943Y96235D01*
X96546Y95932D01*
X91029Y101448D01*
Y105332D01*
X91143Y105408D01*
X91647Y106162D01*
X91745Y106654D01*
X92255D01*
X92353Y106162D01*
X92857Y105408D01*
X93611Y104904D01*
X94500Y104727D01*
X95389Y104904D01*
X96143Y105408D01*
X96647Y106162D01*
X96745Y106654D01*
X97255D01*
X97353Y106162D01*
D02*
G37*
G36*
X107353D02*
X107857Y105408D01*
X108199Y105179D01*
Y104272D01*
X108315Y103686D01*
X108647Y103190D01*
X114919Y96919D01*
X130329Y81508D01*
Y80467D01*
X129855Y80307D01*
X129711Y80495D01*
X128876Y81136D01*
X127902Y81539D01*
X126858Y81676D01*
X125814Y81539D01*
X124841Y81136D01*
X124005Y80495D01*
X123364Y79659D01*
X122961Y78686D01*
X122824Y77642D01*
X122961Y76597D01*
X123163Y76110D01*
X121725Y74671D01*
X120251D01*
X120004Y75171D01*
X120352Y75625D01*
X120755Y76597D01*
X120893Y77642D01*
X120755Y78686D01*
X120352Y79659D01*
X119711Y80495D01*
X118876Y81136D01*
X117903Y81539D01*
X116858Y81676D01*
X115814Y81539D01*
X115326Y81337D01*
X106029Y90633D01*
Y105332D01*
X106143Y105408D01*
X106647Y106162D01*
X106745Y106654D01*
X107255D01*
X107353Y106162D01*
D02*
G37*
G36*
X130329Y74816D02*
Y71338D01*
X129841Y71136D01*
X129005Y70495D01*
X128364Y69659D01*
X127961Y68686D01*
X127824Y67642D01*
X127958Y66625D01*
X125372Y64039D01*
X124555D01*
X124386Y64539D01*
X124711Y64789D01*
X125352Y65624D01*
X125755Y66597D01*
X125893Y67642D01*
X125755Y68686D01*
X125352Y69659D01*
X124711Y70495D01*
X123875Y71136D01*
X123308Y71371D01*
X123252Y71935D01*
X123440Y72060D01*
X125326Y73947D01*
X125814Y73745D01*
X126858Y73607D01*
X127902Y73745D01*
X128876Y74148D01*
X129711Y74789D01*
X129855Y74977D01*
X130329Y74816D01*
D02*
G37*
G36*
X119813Y71165D02*
X119811Y71112D01*
X119005Y70495D01*
X118364Y69659D01*
X117961Y68686D01*
X117824Y67642D01*
X117961Y66597D01*
X118364Y65624D01*
X119005Y64789D01*
X119331Y64539D01*
X119161Y64039D01*
X114555D01*
X114386Y64539D01*
X114711Y64789D01*
X115352Y65624D01*
X115755Y66597D01*
X115893Y67642D01*
X115755Y68686D01*
X115352Y69659D01*
X114711Y70495D01*
X113906Y71112D01*
X113903Y71165D01*
X114157Y71612D01*
X119559D01*
X119813Y71165D01*
D02*
G37*
G36*
X109813D02*
X109811Y71112D01*
X109005Y70495D01*
X108364Y69659D01*
X107961Y68686D01*
X107824Y67642D01*
X107961Y66597D01*
X108364Y65624D01*
X109005Y64789D01*
X109331Y64539D01*
X109161Y64039D01*
X74345D01*
X71759Y66625D01*
X71893Y67642D01*
X71755Y68686D01*
X71352Y69659D01*
X70711Y70495D01*
X69906Y71112D01*
X69903Y71165D01*
X70157Y71612D01*
X109559D01*
X109813Y71165D01*
D02*
G37*
D10*
X173000Y260283D02*
Y298000D01*
X165858Y187142D02*
Y217142D01*
X165858Y176142D02*
Y187142D01*
X165858Y187142D01*
X52858Y113858D02*
X53000Y114000D01*
X52858Y77642D02*
Y113858D01*
X429000Y160000D02*
X429284D01*
X433000Y164508D02*
Y165000D01*
X174716Y256716D02*
X181283D01*
X173000Y255000D02*
X174716Y256716D01*
X173000Y253000D02*
Y255000D01*
X181283Y256716D02*
X183000Y255000D01*
Y253500D02*
Y255000D01*
Y253500D02*
X183500Y253000D01*
X183300Y246700D02*
Y252958D01*
X415000Y221000D02*
X416000D01*
X412559Y218559D02*
X415000Y221000D01*
X412559Y211000D02*
Y218559D01*
X424433Y146000D02*
X426000Y147567D01*
X145000Y188000D02*
X145858Y187142D01*
X145000Y188000D02*
Y191000D01*
X111000Y142000D02*
X135000D01*
X109500Y143500D02*
X111000Y142000D01*
X109500Y143500D02*
Y148094D01*
X108000Y139000D02*
X184000D01*
X104500Y142500D02*
X108000Y139000D01*
X104500Y142500D02*
Y148094D01*
X395142Y187721D02*
X414945Y207524D01*
X395142Y171000D02*
Y187721D01*
X401142Y165000D02*
X408000D01*
X394283D02*
X401142D01*
X414945Y207524D02*
Y210827D01*
X415118Y211000D01*
X395142Y171000D02*
X401142Y165000D01*
X415283D02*
X425717D01*
X412484Y133227D02*
X413070Y132641D01*
X412484Y133227D02*
Y134000D01*
X415844Y135524D02*
X415899Y135469D01*
X396000Y136000D02*
X396476Y135524D01*
X426000Y147567D02*
Y148000D01*
X135000Y142000D02*
X137000Y144000D01*
X184000Y139000D02*
X195858Y127142D01*
X105480Y136520D02*
X176480D01*
X99500Y142500D02*
X105480Y136520D01*
X99500Y142500D02*
Y148094D01*
X176480Y136520D02*
X185858Y127142D01*
X94750Y148845D02*
X95000Y148594D01*
X94750Y155750D02*
X95000Y156000D01*
X94750Y148845D02*
Y155750D01*
X165858Y176142D02*
X180000Y162000D01*
X95000Y156000D02*
Y165000D01*
X99750Y98250D02*
X100000Y98000D01*
X99750Y98250D02*
Y109655D01*
X99500Y109906D02*
X99750Y109655D01*
X124500Y109906D02*
X124798Y109607D01*
X116000Y98000D02*
X131858Y82142D01*
X116000Y98000D02*
X129000D01*
X131858Y67642D02*
Y82142D01*
X109728Y104272D02*
X116000Y98000D01*
X109728Y104272D02*
Y109677D01*
X109500Y109906D02*
X109728Y109677D01*
X89500Y109906D02*
X89539Y109945D01*
X124461D02*
X124500Y109906D01*
X89500Y100815D02*
X106858Y83456D01*
Y77642D02*
Y83456D01*
X89500Y100815D02*
Y109906D01*
X104500Y90000D02*
X116858Y77642D01*
X104500Y90000D02*
Y109906D01*
X122358Y73142D02*
X126858Y77642D01*
X67358Y73142D02*
X122358D01*
X62858Y77642D02*
X67358Y73142D01*
X47858Y67642D02*
Y84142D01*
X43000Y89000D02*
X47858Y84142D01*
X43000Y89000D02*
Y95000D01*
Y102283D02*
Y114000D01*
X215717Y257283D02*
X219000Y254000D01*
X209717Y257283D02*
X215717D01*
X209000Y258000D02*
X209717Y257283D01*
X99000Y227000D02*
X154500Y171500D01*
X255858Y187142D02*
Y188142D01*
X251358Y192642D02*
X255858Y188142D01*
X251358Y192642D02*
Y218006D01*
X261358Y191642D02*
X265858Y187142D01*
X261358Y191642D02*
Y218006D01*
X246364Y223000D02*
X251358Y218006D01*
X228000Y223000D02*
X246364D01*
X212000Y239000D02*
X228000Y223000D01*
X191000Y239000D02*
X212000D01*
X414484Y134055D02*
X414539Y134000D01*
X183300Y246700D02*
X191000Y239000D01*
X145858Y217142D02*
X146722Y218006D01*
X229270Y226503D02*
X252861D01*
X203500Y252272D02*
X229270Y226503D01*
X203500Y252272D02*
Y274878D01*
X275858Y11858D02*
Y27142D01*
X273000Y9000D02*
X275858Y11858D01*
X270000Y9000D02*
X273000D01*
X412559Y181937D02*
Y193677D01*
X411311Y180689D02*
X412559Y181937D01*
X408000Y180689D02*
X411311D01*
X427000Y149000D02*
X428000D01*
X426000Y148000D02*
X427000Y149000D01*
X209000Y258000D02*
Y261000D01*
X208500Y261500D02*
X209000Y261000D01*
X410000Y193677D02*
X410032Y193709D01*
X400717Y180000D02*
X403414D01*
X404000Y180586D02*
Y183496D01*
X403414Y180000D02*
X404000Y180586D01*
X400717Y180000D02*
X401302Y180586D01*
X404000Y183496D02*
X409827Y189323D01*
Y193504D01*
X410000Y193677D01*
X415414Y220414D02*
X416000Y221000D01*
X315858Y187142D02*
Y217142D01*
X360185Y304315D02*
X360358Y304488D01*
X267878Y304142D02*
X268051Y304315D01*
X155858Y187142D02*
Y217142D01*
X185858Y187142D02*
Y217142D01*
X195858Y187142D02*
Y217142D01*
X205858Y187142D02*
Y217142D01*
X215858Y187142D02*
Y217142D01*
X225858Y187142D02*
Y217142D01*
X235858Y187142D02*
Y217142D01*
X275858Y187142D02*
Y217142D01*
X285858Y187142D02*
Y217142D01*
X295858Y187142D02*
Y217142D01*
X305858Y187142D02*
Y217142D01*
X325858Y187142D02*
Y217142D01*
X335858Y187142D02*
Y217142D01*
X345858Y187142D02*
Y217142D01*
X355858Y187142D02*
Y217142D01*
X365858Y187142D02*
Y217142D01*
X375858Y187142D02*
Y217142D01*
X175858Y187142D02*
Y217142D01*
X170000Y301000D02*
X173000Y298000D01*
X252861Y226503D02*
X261358Y218006D01*
X208500Y261500D02*
Y274878D01*
X198500Y261500D02*
Y274878D01*
Y261500D02*
X199000Y261000D01*
X295858Y92142D02*
Y127142D01*
X275858Y92142D02*
Y127142D01*
X265858Y92142D02*
Y127142D01*
X255858Y92142D02*
Y127142D01*
D14*
X383600Y239300D02*
D03*
X403679D02*
D03*
X449779Y238600D02*
D03*
X429700D02*
D03*
D15*
X407441Y211000D02*
D03*
X410000D02*
D03*
X412559D02*
D03*
X415118D02*
D03*
Y193677D02*
D03*
X412559D02*
D03*
X410000D02*
D03*
X407441D02*
D03*
D16*
X414484Y134055D02*
D03*
Y125000D02*
D03*
Y115945D02*
D03*
D17*
X437516Y125000D02*
D03*
D18*
X183500Y260283D02*
D03*
Y253000D02*
D03*
X173000Y253000D02*
D03*
Y260283D02*
D03*
X43000Y95000D02*
D03*
Y102284D02*
D03*
D19*
X89500Y109906D02*
D03*
X94500D02*
D03*
X99500D02*
D03*
X104500D02*
D03*
X109500D02*
D03*
X114500D02*
D03*
X119500D02*
D03*
X124500D02*
D03*
X89500Y148094D02*
D03*
X94500D02*
D03*
X99500D02*
D03*
X104500D02*
D03*
X109500D02*
D03*
X114500D02*
D03*
X119500D02*
D03*
X124500D02*
D03*
D20*
X208500Y297122D02*
D03*
X203500D02*
D03*
X198500D02*
D03*
X193500D02*
D03*
X208500Y274878D02*
D03*
X203500D02*
D03*
X198500D02*
D03*
X193500D02*
D03*
D21*
X408000Y165000D02*
D03*
X415283D02*
D03*
X387000Y165000D02*
D03*
X394283D02*
D03*
X425717Y165000D02*
D03*
X433000D02*
D03*
D22*
X440000Y177953D02*
D03*
Y200000D02*
D03*
D23*
X95000Y172283D02*
D03*
Y165000D02*
D03*
X209000Y253717D02*
D03*
Y261000D02*
D03*
X199000Y253716D02*
D03*
Y261000D02*
D03*
D24*
X129000Y98000D02*
D03*
X136284D02*
D03*
X262717Y9000D02*
D03*
X270000D02*
D03*
X423283Y221000D02*
D03*
X416000D02*
D03*
X433284Y157000D02*
D03*
X426000D02*
D03*
X433283Y148000D02*
D03*
X426000D02*
D03*
X400717Y180000D02*
D03*
X408000D02*
D03*
D41*
X428400Y238100D02*
Y239400D01*
X396000Y146000D02*
X424433D01*
X404000Y134000D02*
X412484D01*
X402000Y136000D02*
X404000Y134000D01*
X396000Y136000D02*
X402000D01*
X447000Y258000D02*
Y287347D01*
X430000Y304346D02*
X447000Y287347D01*
X67858Y67642D02*
X73500Y62000D01*
X126216D01*
X131858Y67642D01*
X428400Y239400D02*
X447000Y258000D01*
D42*
X29000Y237000D02*
X99000D01*
X426000Y157000D02*
X429000Y160000D01*
X429284Y150284D02*
Y160791D01*
X433000Y164508D01*
X99000Y237000D02*
X145000Y191000D01*
X275858Y27142D02*
X284716Y36000D01*
X318000D01*
X145858Y187142D02*
X176000Y157000D01*
X428000Y149000D02*
X429284Y150284D01*
X176000Y157000D02*
X426000D01*
X318000Y36000D02*
X407000Y125000D01*
X414484D01*
X145858Y187142D02*
Y217142D01*
D43*
X433000Y165000D02*
X438000D01*
X440000Y167000D01*
Y177953D01*
X410032Y198031D02*
X420000Y208000D01*
X438000D01*
X440000Y206000D01*
Y200000D02*
Y206000D01*
D44*
X410032Y193709D02*
Y198031D01*
D45*
X268051Y304315D02*
X360185D01*
D46*
X145858Y127142D02*
D03*
X155858D02*
D03*
X165858D02*
D03*
X175858D02*
D03*
X185858D02*
D03*
X195858D02*
D03*
X205858D02*
D03*
X215858D02*
D03*
X225858D02*
D03*
X235858D02*
D03*
X245858D02*
D03*
X255858D02*
D03*
X265858D02*
D03*
X275858D02*
D03*
Y187142D02*
D03*
X265858D02*
D03*
X255858D02*
D03*
X245858D02*
D03*
X235858D02*
D03*
X225858D02*
D03*
X215858D02*
D03*
X205858D02*
D03*
X195858D02*
D03*
X185858D02*
D03*
X175858D02*
D03*
X295858Y127142D02*
D03*
X305858D02*
D03*
X315858D02*
D03*
X325858D02*
D03*
X335858D02*
D03*
X345858D02*
D03*
X355858D02*
D03*
X365858D02*
D03*
X375858D02*
D03*
Y187142D02*
D03*
X365858D02*
D03*
X355858D02*
D03*
X345858D02*
D03*
X335858D02*
D03*
X325858D02*
D03*
X315858D02*
D03*
X285858Y127142D02*
D03*
X165858Y187142D02*
D03*
X155858D02*
D03*
X145858D02*
D03*
X285858D02*
D03*
X295858D02*
D03*
X305858D02*
D03*
X265858Y27142D02*
D03*
X255858D02*
D03*
X265858Y92142D02*
D03*
X255858D02*
D03*
X285858Y27142D02*
D03*
X275858D02*
D03*
X285858Y92142D02*
D03*
X275858D02*
D03*
X305858Y27142D02*
D03*
X295858D02*
D03*
X305858Y92142D02*
D03*
X295858D02*
D03*
X315858D02*
D03*
X325858D02*
D03*
X315858Y27142D02*
D03*
X325858D02*
D03*
X396000Y146000D02*
D03*
Y136000D02*
D03*
X29000Y247000D02*
D03*
Y217000D02*
D03*
Y227000D02*
D03*
Y237000D02*
D03*
X43000Y247000D02*
D03*
Y217000D02*
D03*
Y227000D02*
D03*
Y237000D02*
D03*
X57000Y247000D02*
D03*
Y217000D02*
D03*
Y227000D02*
D03*
Y237000D02*
D03*
X71000Y247000D02*
D03*
Y217000D02*
D03*
Y227000D02*
D03*
Y237000D02*
D03*
X85000Y247000D02*
D03*
Y217000D02*
D03*
Y227000D02*
D03*
Y237000D02*
D03*
X99000Y247000D02*
D03*
Y217000D02*
D03*
Y227000D02*
D03*
Y237000D02*
D03*
X67858Y67642D02*
D03*
X57858D02*
D03*
X47858D02*
D03*
X62858Y77642D02*
D03*
X52858D02*
D03*
X75358Y42642D02*
D03*
X35358D02*
D03*
X131858Y67642D02*
D03*
X121858D02*
D03*
X111858D02*
D03*
X126858Y77642D02*
D03*
X116858D02*
D03*
X139358Y42642D02*
D03*
X99358D02*
D03*
X155858Y217142D02*
D03*
X165858D02*
D03*
X175858D02*
D03*
X185858D02*
D03*
X225858D02*
D03*
X215858D02*
D03*
X205858D02*
D03*
X195858D02*
D03*
X265858D02*
D03*
X255858D02*
D03*
X245858D02*
D03*
X235858D02*
D03*
X305858D02*
D03*
X295858D02*
D03*
X285858D02*
D03*
X275858D02*
D03*
X345858D02*
D03*
X355858D02*
D03*
X365858D02*
D03*
X315858D02*
D03*
X325858D02*
D03*
X335858D02*
D03*
X145858D02*
D03*
X33000Y114000D02*
D03*
X43000D02*
D03*
X462000Y324000D02*
D03*
Y13000D02*
D03*
X15000D02*
D03*
X16000Y324000D02*
D03*
D47*
X396000Y126000D02*
D03*
X29000Y207000D02*
D03*
X43000D02*
D03*
X57000D02*
D03*
X71000D02*
D03*
X85000D02*
D03*
X99000D02*
D03*
D48*
X430000Y304346D02*
D03*
Y276000D02*
D03*
X360358Y304488D02*
D03*
Y276142D02*
D03*
X130878Y303642D02*
D03*
Y275295D02*
D03*
X267878Y304142D02*
D03*
Y275795D02*
D03*
D49*
X42858Y77642D02*
D03*
X106858D02*
D03*
X375858Y217142D02*
D03*
X53000Y114000D02*
D03*
D50*
X426000Y116000D02*
D03*
Y122000D02*
D03*
Y128000D02*
D03*
Y134000D02*
D03*
X137000Y144000D02*
D03*
X95000Y156000D02*
D03*
X180000Y162000D02*
D03*
X100000Y98000D02*
D03*
X154500Y171500D02*
D03*
X219000Y254000D02*
D03*
M02*
