G04*
G04 #@! TF.GenerationSoftware,Altium Limited,Altium Designer,19.1.8 (144)*
G04*
G04 Layer_Color=12632256*
%FSLAX25Y25*%
%MOIN*%
G70*
G01*
G75*
%ADD43C,0.06000*%
%ADD44R,0.06000X0.06000*%
%ADD45C,0.23622*%
%ADD46R,0.06000X0.06000*%
D43*
X145858Y127142D02*
D03*
X155858D02*
D03*
X165858D02*
D03*
X175858D02*
D03*
X185858D02*
D03*
X195858D02*
D03*
X205858D02*
D03*
X215858D02*
D03*
X225858D02*
D03*
X235858D02*
D03*
X245858D02*
D03*
X255858D02*
D03*
X265858D02*
D03*
X275858D02*
D03*
Y187142D02*
D03*
X265858D02*
D03*
X255858D02*
D03*
X245858D02*
D03*
X235858D02*
D03*
X225858D02*
D03*
X215858D02*
D03*
X205858D02*
D03*
X195858D02*
D03*
X185858D02*
D03*
X175858D02*
D03*
X295858Y127142D02*
D03*
X305858D02*
D03*
X315858D02*
D03*
X325858D02*
D03*
X335858D02*
D03*
X345858D02*
D03*
X355858D02*
D03*
X365858D02*
D03*
X375858D02*
D03*
Y187142D02*
D03*
X365858D02*
D03*
X355858D02*
D03*
X345858D02*
D03*
X335858D02*
D03*
X325858D02*
D03*
X315858D02*
D03*
X285858Y127142D02*
D03*
X165858Y187142D02*
D03*
X155858D02*
D03*
X145858D02*
D03*
X285858D02*
D03*
X295858D02*
D03*
X305858D02*
D03*
X265858Y27142D02*
D03*
X255858D02*
D03*
X265858Y92142D02*
D03*
X255858D02*
D03*
X285858Y27142D02*
D03*
X275858D02*
D03*
X285858Y92142D02*
D03*
X275858D02*
D03*
X305858Y27142D02*
D03*
X295858D02*
D03*
X305858Y92142D02*
D03*
X295858D02*
D03*
X315858D02*
D03*
X325858D02*
D03*
X315858Y27142D02*
D03*
X325858D02*
D03*
X396000Y146000D02*
D03*
Y136000D02*
D03*
X29000Y247000D02*
D03*
Y217000D02*
D03*
Y227000D02*
D03*
Y237000D02*
D03*
X43000Y247000D02*
D03*
Y217000D02*
D03*
Y227000D02*
D03*
Y237000D02*
D03*
X57000Y247000D02*
D03*
Y217000D02*
D03*
Y227000D02*
D03*
Y237000D02*
D03*
X71000Y247000D02*
D03*
Y217000D02*
D03*
Y227000D02*
D03*
Y237000D02*
D03*
X85000Y247000D02*
D03*
Y217000D02*
D03*
Y227000D02*
D03*
Y237000D02*
D03*
X99000Y247000D02*
D03*
Y217000D02*
D03*
Y227000D02*
D03*
Y237000D02*
D03*
X67858Y67642D02*
D03*
X57858D02*
D03*
X47858D02*
D03*
X62858Y77642D02*
D03*
X52858D02*
D03*
X75358Y42642D02*
D03*
X35358D02*
D03*
X131858Y67642D02*
D03*
X121858D02*
D03*
X111858D02*
D03*
X126858Y77642D02*
D03*
X116858D02*
D03*
X139358Y42642D02*
D03*
X99358D02*
D03*
X155858Y217142D02*
D03*
X165858D02*
D03*
X175858D02*
D03*
X185858D02*
D03*
X225858D02*
D03*
X215858D02*
D03*
X205858D02*
D03*
X195858D02*
D03*
X265858D02*
D03*
X255858D02*
D03*
X245858D02*
D03*
X235858D02*
D03*
X305858D02*
D03*
X295858D02*
D03*
X285858D02*
D03*
X275858D02*
D03*
X345858D02*
D03*
X355858D02*
D03*
X365858D02*
D03*
X315858D02*
D03*
X325858D02*
D03*
X335858D02*
D03*
X145858D02*
D03*
X43000Y114000D02*
D03*
X53000D02*
D03*
X462000Y324000D02*
D03*
Y13000D02*
D03*
X15000D02*
D03*
X16000Y324000D02*
D03*
D44*
X396000Y126000D02*
D03*
X29000Y207000D02*
D03*
X43000D02*
D03*
X57000D02*
D03*
X71000D02*
D03*
X85000D02*
D03*
X99000D02*
D03*
D45*
X430000Y276000D02*
D03*
Y304346D02*
D03*
X360358Y276142D02*
D03*
Y304488D02*
D03*
X130878Y275295D02*
D03*
Y303642D02*
D03*
X267878Y275795D02*
D03*
Y304142D02*
D03*
D46*
X42858Y77642D02*
D03*
X106858D02*
D03*
X375858Y217142D02*
D03*
X63000Y114000D02*
D03*
M02*
