%TF.GenerationSoftware,Altium Limited,Altium Designer,19.1.8 (144)*%
G04 Layer_Color=8388736*
%FSLAX26Y26*%
%MOIN*%
%TF.FileFunction,Soldermask,Top*%
%TF.Part,Single*%
G01*
G75*
%TA.AperFunction,SMDPad,CuDef*%
%ADD35R,0.049339X0.059181*%
%TA.AperFunction,ComponentPad*%
%ADD36C,0.068000*%
%ADD37R,0.068000X0.068000*%
%ADD38C,0.244220*%
%ADD39R,0.068000X0.068000*%
%TA.AperFunction,WasherPad*%
%ADD40C,0.068000*%
%TA.AperFunction,ViaPad*%
%ADD41C,0.058000*%
%TA.AperFunction,SMDPad,CuDef*%
%ADD45R,0.133984X0.070992*%
%ADD46R,0.021654X0.061024*%
%ADD47R,0.092646X0.047370*%
%ADD48R,0.092646X0.135953*%
%ADD49R,0.059181X0.049339*%
%ADD50O,0.033591X0.090677*%
%ADD51R,0.031622X0.076898*%
%ADD52R,0.135953X0.106425*%
%ADD53R,0.063118X0.049339*%
%ADD54R,0.049339X0.063118*%
D35*
X4080000Y1650000D02*
D03*
X4152835D02*
D03*
X3870000Y1650001D02*
D03*
X3942834D02*
D03*
X4257166Y1649999D02*
D03*
X4330001D02*
D03*
D36*
X1458583Y1271417D02*
D03*
X1558583D02*
D03*
X1658583D02*
D03*
X1758583D02*
D03*
X1858583D02*
D03*
X1958583D02*
D03*
X2058583D02*
D03*
X2158583D02*
D03*
X2258583D02*
D03*
X2358583D02*
D03*
X2458583D02*
D03*
X2558583D02*
D03*
X2658583D02*
D03*
X2758583D02*
D03*
Y1871417D02*
D03*
X2658583D02*
D03*
X2558583D02*
D03*
X2458583D02*
D03*
X2358583D02*
D03*
X2258583D02*
D03*
X2158583D02*
D03*
X2058583D02*
D03*
X1958583D02*
D03*
X1858583D02*
D03*
X1758583D02*
D03*
X2958583Y1271417D02*
D03*
X3058583D02*
D03*
X3158583D02*
D03*
X3258583D02*
D03*
X3358583D02*
D03*
X3458583D02*
D03*
X3558583D02*
D03*
X3658583D02*
D03*
X3758583D02*
D03*
Y1871417D02*
D03*
X3658583D02*
D03*
X3558583D02*
D03*
X3458583D02*
D03*
X3358583D02*
D03*
X3258583D02*
D03*
X3158583D02*
D03*
X2858583Y1271417D02*
D03*
X1658583Y1871417D02*
D03*
X1558583D02*
D03*
X1458583D02*
D03*
X2858583D02*
D03*
X2958583D02*
D03*
X3058583D02*
D03*
X2658583Y271417D02*
D03*
X2558583D02*
D03*
X2658583Y921417D02*
D03*
X2558583D02*
D03*
X2858583Y271417D02*
D03*
X2758583D02*
D03*
X2858583Y921417D02*
D03*
X2758583D02*
D03*
X3058583Y271417D02*
D03*
X2958583D02*
D03*
X3058583Y921417D02*
D03*
X2958583D02*
D03*
X3158583D02*
D03*
X3258583D02*
D03*
X3158583Y271417D02*
D03*
X3258583D02*
D03*
X3960000Y1460000D02*
D03*
Y1360000D02*
D03*
X290000Y2470000D02*
D03*
Y2170000D02*
D03*
Y2270000D02*
D03*
Y2370000D02*
D03*
X430000Y2470000D02*
D03*
Y2170000D02*
D03*
Y2270000D02*
D03*
Y2370000D02*
D03*
X570000Y2470000D02*
D03*
Y2170000D02*
D03*
Y2270000D02*
D03*
Y2370000D02*
D03*
X710000Y2470000D02*
D03*
Y2170000D02*
D03*
Y2270000D02*
D03*
Y2370000D02*
D03*
X850000Y2470000D02*
D03*
Y2170000D02*
D03*
Y2270000D02*
D03*
Y2370000D02*
D03*
X990000Y2470000D02*
D03*
Y2170000D02*
D03*
Y2270000D02*
D03*
Y2370000D02*
D03*
X678583Y676417D02*
D03*
X578583D02*
D03*
X478583D02*
D03*
X628583Y776417D02*
D03*
X528583D02*
D03*
X753583Y426417D02*
D03*
X353583D02*
D03*
X1318583Y676417D02*
D03*
X1218583D02*
D03*
X1118583D02*
D03*
X1268583Y776417D02*
D03*
X1168583D02*
D03*
X1393583Y426417D02*
D03*
X993583D02*
D03*
X1558583Y2171417D02*
D03*
X1658583D02*
D03*
X1758583D02*
D03*
X1858583D02*
D03*
X2258583D02*
D03*
X2158583D02*
D03*
X2058583D02*
D03*
X1958583D02*
D03*
X2658583D02*
D03*
X2558583D02*
D03*
X2458583D02*
D03*
X2358583D02*
D03*
X3058583D02*
D03*
X2958583D02*
D03*
X2858583D02*
D03*
X2758583D02*
D03*
X3458583D02*
D03*
X3558583D02*
D03*
X3658583D02*
D03*
X3158583D02*
D03*
X3258583D02*
D03*
X3358583D02*
D03*
X1458583D02*
D03*
X330000Y1140000D02*
D03*
X430000D02*
D03*
D37*
X3960000Y1260000D02*
D03*
X290000Y2070000D02*
D03*
X430000D02*
D03*
X570000D02*
D03*
X710000D02*
D03*
X850000D02*
D03*
X990000D02*
D03*
D38*
X4300000Y3043465D02*
D03*
Y2760000D02*
D03*
X3603583Y3044882D02*
D03*
Y2761417D02*
D03*
X1308780Y3036417D02*
D03*
Y2752953D02*
D03*
X2678780Y3041417D02*
D03*
Y2757953D02*
D03*
D39*
X428583Y776417D02*
D03*
X1068583D02*
D03*
X3758583Y2171417D02*
D03*
X530000Y1140000D02*
D03*
D40*
X4620000Y3240000D02*
D03*
Y130000D02*
D03*
X150000D02*
D03*
X160000Y3240000D02*
D03*
D41*
X4260000Y1160000D02*
D03*
Y1220000D02*
D03*
Y1280000D02*
D03*
Y1340000D02*
D03*
X1370000Y1440000D02*
D03*
X950000Y1560000D02*
D03*
X1800000Y1620000D02*
D03*
X1000000Y980000D02*
D03*
X1545000Y1715000D02*
D03*
X2190000Y2540000D02*
D03*
D45*
X3836000Y2393000D02*
D03*
X4036787D02*
D03*
X4497787Y2386000D02*
D03*
X4297000D02*
D03*
D46*
X4074409Y2110001D02*
D03*
X4100000D02*
D03*
X4125590D02*
D03*
X4151181D02*
D03*
Y1936773D02*
D03*
X4125590D02*
D03*
X4100000D02*
D03*
X4074409D02*
D03*
D47*
X4144842Y1340551D02*
D03*
Y1250000D02*
D03*
Y1159449D02*
D03*
D48*
X4375158Y1250000D02*
D03*
D49*
X1835000Y2602835D02*
D03*
Y2530000D02*
D03*
X1730000Y2529999D02*
D03*
Y2602834D02*
D03*
X430001Y950000D02*
D03*
Y1022835D02*
D03*
D50*
X895000Y1099055D02*
D03*
X945000D02*
D03*
X995000D02*
D03*
X1045000D02*
D03*
X1095000D02*
D03*
X1145000D02*
D03*
X1195000D02*
D03*
X1245000D02*
D03*
X895000Y1480945D02*
D03*
X945000D02*
D03*
X995000D02*
D03*
X1045000D02*
D03*
X1095000D02*
D03*
X1145000D02*
D03*
X1195000D02*
D03*
X1245000D02*
D03*
D51*
X2085000Y2971220D02*
D03*
X2035000D02*
D03*
X1985000D02*
D03*
X1935000D02*
D03*
X2085000Y2748780D02*
D03*
X2035000D02*
D03*
X1985000D02*
D03*
X1935000D02*
D03*
D52*
X4400000Y1779527D02*
D03*
Y2000000D02*
D03*
D53*
X950000Y1722835D02*
D03*
Y1650000D02*
D03*
X2090001Y2537166D02*
D03*
Y2610001D02*
D03*
X1990001Y2537165D02*
D03*
Y2610000D02*
D03*
D54*
X1290000Y980001D02*
D03*
X1362835D02*
D03*
X2627165Y89999D02*
D03*
X2699999D02*
D03*
X4232835Y2210001D02*
D03*
X4160000D02*
D03*
X4332835Y1569999D02*
D03*
X4260000D02*
D03*
X4332834Y1479999D02*
D03*
X4259999D02*
D03*
X4007166Y1800001D02*
D03*
X4080001D02*
D03*
%TF.MD5,360386b97b2432acbff9e92928e7bdb0*%
M02*
