%TF.GenerationSoftware,Altium Limited,Altium Designer,19.1.8 (144)*%
G04 Layer_Physical_Order=2*
G04 Layer_Color=16711680*
%FSLAX26Y26*%
%MOIN*%
%TF.FileFunction,Copper,L2,Bot,Signal*%
%TF.Part,Single*%
G01*
G75*
%TA.AperFunction,SMDPad,CuDef*%
%ADD17R,0.041339X0.051181*%
%TA.AperFunction,Conductor*%
%ADD22C,0.010000*%
%ADD23C,0.015000*%
%TA.AperFunction,ComponentPad*%
%ADD27C,0.060000*%
%ADD28R,0.060000X0.060000*%
%ADD29C,0.236220*%
%ADD30R,0.060000X0.060000*%
%TA.AperFunction,WasherPad*%
%ADD31C,0.060000*%
%TA.AperFunction,ViaPad*%
%ADD32C,0.050000*%
%TA.AperFunction,Conductor*%
%ADD33C,0.012000*%
G36*
X4520000Y3120000D02*
X4720000D01*
Y260000D01*
X4510000D01*
Y0D01*
X1590000D01*
Y1070000D01*
X1320000Y1340000D01*
X30000D01*
Y3140000D01*
X290000D01*
Y3360000D01*
X4520000D01*
Y3120000D01*
D02*
G37*
G36*
X1260000Y1300000D02*
X1510000Y1050000D01*
X1510000Y0D01*
X260000Y-0D01*
X260000Y240000D01*
X30000Y240000D01*
X30000Y1300000D01*
X1260000Y1300000D01*
D02*
G37*
%LPC*%
G36*
X3603583Y3170379D02*
X3583951Y3168834D01*
X3564802Y3164237D01*
X3546608Y3156701D01*
X3529817Y3146411D01*
X3514843Y3133622D01*
X3502053Y3118647D01*
X3491764Y3101856D01*
X3484228Y3083663D01*
X3479631Y3064514D01*
X3478086Y3044882D01*
X3479631Y3025250D01*
X3484228Y3006101D01*
X3491764Y2987907D01*
X3502053Y2971117D01*
X3514843Y2956142D01*
X3529817Y2943353D01*
X3546608Y2933063D01*
X3564802Y2925527D01*
X3583951Y2920930D01*
X3603583Y2919385D01*
X3623215Y2920930D01*
X3642363Y2925527D01*
X3660557Y2933063D01*
X3677348Y2943353D01*
X3692323Y2956142D01*
X3705112Y2971117D01*
X3715401Y2987907D01*
X3722938Y3006101D01*
X3727535Y3025250D01*
X3729080Y3044882D01*
X3727535Y3064514D01*
X3722938Y3083663D01*
X3715401Y3101856D01*
X3705112Y3118647D01*
X3692323Y3133622D01*
X3677348Y3146411D01*
X3660557Y3156701D01*
X3642363Y3164237D01*
X3623215Y3168834D01*
X3603583Y3170379D01*
D02*
G37*
G36*
X4300000Y3168962D02*
X4280368Y3167417D01*
X4261219Y3162819D01*
X4243025Y3155283D01*
X4226235Y3144994D01*
X4211260Y3132204D01*
X4198471Y3117230D01*
X4188181Y3100439D01*
X4180645Y3082245D01*
X4176048Y3063097D01*
X4174503Y3043465D01*
X4176048Y3023832D01*
X4180645Y3004684D01*
X4188181Y2986490D01*
X4198471Y2969699D01*
X4211260Y2954725D01*
X4226235Y2941935D01*
X4243025Y2931646D01*
X4261219Y2924110D01*
X4280368Y2919513D01*
X4300000Y2917968D01*
X4319632Y2919513D01*
X4338781Y2924110D01*
X4356975Y2931646D01*
X4373765Y2941935D01*
X4388740Y2954725D01*
X4401529Y2969699D01*
X4411819Y2986490D01*
X4419355Y3004684D01*
X4423952Y3023832D01*
X4425497Y3043465D01*
X4423952Y3063097D01*
X4419355Y3082245D01*
X4411819Y3100439D01*
X4401529Y3117230D01*
X4388740Y3132204D01*
X4373765Y3144994D01*
X4356975Y3155283D01*
X4338781Y3162819D01*
X4319632Y3167417D01*
X4300000Y3168962D01*
D02*
G37*
G36*
X2678780Y3166914D02*
X2659148Y3165369D01*
X2639999Y3160772D01*
X2621805Y3153236D01*
X2605014Y3142947D01*
X2590040Y3130157D01*
X2577250Y3115183D01*
X2566961Y3098392D01*
X2559425Y3080198D01*
X2554828Y3061049D01*
X2553282Y3041417D01*
X2554828Y3021785D01*
X2559425Y3002637D01*
X2566961Y2984443D01*
X2577250Y2967652D01*
X2590040Y2952677D01*
X2605014Y2939888D01*
X2621805Y2929599D01*
X2639999Y2922062D01*
X2659148Y2917465D01*
X2678780Y2915920D01*
X2698412Y2917465D01*
X2717560Y2922062D01*
X2735754Y2929599D01*
X2752545Y2939888D01*
X2767519Y2952677D01*
X2780309Y2967652D01*
X2790598Y2984443D01*
X2798134Y3002637D01*
X2802732Y3021785D01*
X2804277Y3041417D01*
X2802732Y3061049D01*
X2798134Y3080198D01*
X2790598Y3098392D01*
X2780309Y3115183D01*
X2767519Y3130157D01*
X2752545Y3142947D01*
X2735754Y3153236D01*
X2717560Y3160772D01*
X2698412Y3165369D01*
X2678780Y3166914D01*
D02*
G37*
G36*
X1308780Y3161914D02*
X1289148Y3160369D01*
X1269999Y3155772D01*
X1251805Y3148236D01*
X1235014Y3137947D01*
X1220040Y3125157D01*
X1207250Y3110183D01*
X1196961Y3093392D01*
X1189425Y3075198D01*
X1184828Y3056049D01*
X1183283Y3036417D01*
X1184828Y3016785D01*
X1189425Y2997637D01*
X1196961Y2979443D01*
X1207250Y2962652D01*
X1220040Y2947677D01*
X1235014Y2934888D01*
X1251805Y2924599D01*
X1269999Y2917062D01*
X1289148Y2912465D01*
X1308780Y2910920D01*
X1328412Y2912465D01*
X1347560Y2917062D01*
X1365754Y2924599D01*
X1382545Y2934888D01*
X1397520Y2947677D01*
X1410309Y2962652D01*
X1420598Y2979443D01*
X1428134Y2997637D01*
X1432732Y3016785D01*
X1434277Y3036417D01*
X1432732Y3056049D01*
X1428134Y3075198D01*
X1420598Y3093392D01*
X1410309Y3110183D01*
X1397520Y3125157D01*
X1382545Y3137947D01*
X1365754Y3148236D01*
X1347560Y3155772D01*
X1328412Y3160369D01*
X1308780Y3161914D01*
D02*
G37*
G36*
X3618583Y2888743D02*
Y2776417D01*
X3730909D01*
X3730507Y2781520D01*
X3725800Y2801128D01*
X3718083Y2819758D01*
X3707546Y2836951D01*
X3694450Y2852285D01*
X3679117Y2865381D01*
X3661923Y2875917D01*
X3643293Y2883634D01*
X3623686Y2888341D01*
X3618583Y2888743D01*
D02*
G37*
G36*
X3588583D02*
X3583480Y2888341D01*
X3563872Y2883634D01*
X3545242Y2875917D01*
X3528049Y2865381D01*
X3512715Y2852285D01*
X3499619Y2836951D01*
X3489083Y2819758D01*
X3481366Y2801128D01*
X3476659Y2781520D01*
X3476257Y2776417D01*
X3588583D01*
Y2888743D01*
D02*
G37*
G36*
X4315000Y2887326D02*
Y2775000D01*
X4427326D01*
X4426924Y2780103D01*
X4422217Y2799711D01*
X4414500Y2818341D01*
X4403964Y2835534D01*
X4390868Y2850868D01*
X4375534Y2863964D01*
X4358341Y2874500D01*
X4339711Y2882217D01*
X4320103Y2886924D01*
X4315000Y2887326D01*
D02*
G37*
G36*
X4285000D02*
X4279897Y2886924D01*
X4260289Y2882217D01*
X4241659Y2874500D01*
X4224466Y2863964D01*
X4209132Y2850868D01*
X4196036Y2835534D01*
X4185500Y2818341D01*
X4177783Y2799711D01*
X4173076Y2780103D01*
X4172674Y2775000D01*
X4285000D01*
Y2887326D01*
D02*
G37*
G36*
X2693780Y2885278D02*
Y2772953D01*
X2806105D01*
X2805704Y2778055D01*
X2800996Y2797663D01*
X2793280Y2816293D01*
X2782743Y2833487D01*
X2769647Y2848820D01*
X2754314Y2861916D01*
X2737120Y2872453D01*
X2718490Y2880169D01*
X2698882Y2884877D01*
X2693780Y2885278D01*
D02*
G37*
G36*
X2663780D02*
X2658677Y2884877D01*
X2639069Y2880169D01*
X2620439Y2872453D01*
X2603245Y2861916D01*
X2587912Y2848820D01*
X2574816Y2833487D01*
X2564280Y2816293D01*
X2556563Y2797663D01*
X2551855Y2778055D01*
X2551454Y2772953D01*
X2663780D01*
Y2885278D01*
D02*
G37*
G36*
X1323780Y2880278D02*
Y2767953D01*
X1436105D01*
X1435704Y2773055D01*
X1430996Y2792663D01*
X1423280Y2811293D01*
X1412743Y2828487D01*
X1399647Y2843820D01*
X1384314Y2856916D01*
X1367120Y2867453D01*
X1348490Y2875169D01*
X1328882Y2879877D01*
X1323780Y2880278D01*
D02*
G37*
G36*
X1293780D02*
X1288677Y2879877D01*
X1269069Y2875169D01*
X1250439Y2867453D01*
X1233245Y2856916D01*
X1217912Y2843820D01*
X1204816Y2828487D01*
X1194280Y2811293D01*
X1186563Y2792663D01*
X1181855Y2773055D01*
X1181454Y2767953D01*
X1293780D01*
Y2880278D01*
D02*
G37*
G36*
X3730909Y2746417D02*
X3618583D01*
Y2634091D01*
X3623686Y2634493D01*
X3643293Y2639200D01*
X3661923Y2646917D01*
X3679117Y2657454D01*
X3694450Y2670550D01*
X3707546Y2685883D01*
X3718083Y2703077D01*
X3725800Y2721707D01*
X3730507Y2741314D01*
X3730909Y2746417D01*
D02*
G37*
G36*
X3588583D02*
X3476257D01*
X3476659Y2741314D01*
X3481366Y2721707D01*
X3489083Y2703077D01*
X3499619Y2685883D01*
X3512715Y2670550D01*
X3528049Y2657454D01*
X3545242Y2646917D01*
X3563872Y2639200D01*
X3583480Y2634493D01*
X3588583Y2634091D01*
Y2746417D01*
D02*
G37*
G36*
X4427326Y2745000D02*
X4315000D01*
Y2632674D01*
X4320103Y2633076D01*
X4339711Y2637783D01*
X4358341Y2645500D01*
X4375534Y2656036D01*
X4390868Y2669132D01*
X4403964Y2684466D01*
X4414500Y2701659D01*
X4422217Y2720289D01*
X4426924Y2739897D01*
X4427326Y2745000D01*
D02*
G37*
G36*
X4285000D02*
X4172674D01*
X4173076Y2739897D01*
X4177783Y2720289D01*
X4185500Y2701659D01*
X4196036Y2684466D01*
X4209132Y2669132D01*
X4224466Y2656036D01*
X4241659Y2645500D01*
X4260289Y2637783D01*
X4279897Y2633076D01*
X4285000Y2632674D01*
Y2745000D01*
D02*
G37*
G36*
X2806105Y2742953D02*
X2693780D01*
Y2630627D01*
X2698882Y2631028D01*
X2718490Y2635736D01*
X2737120Y2643453D01*
X2754314Y2653989D01*
X2769647Y2667085D01*
X2782743Y2682419D01*
X2793280Y2699612D01*
X2800996Y2718242D01*
X2805704Y2737850D01*
X2806105Y2742953D01*
D02*
G37*
G36*
X2663780D02*
X2551454D01*
X2551855Y2737850D01*
X2556563Y2718242D01*
X2564280Y2699612D01*
X2574816Y2682419D01*
X2587912Y2667085D01*
X2603245Y2653989D01*
X2620439Y2643453D01*
X2639069Y2635736D01*
X2658677Y2631028D01*
X2663780Y2630627D01*
Y2742953D01*
D02*
G37*
G36*
X1436105Y2737953D02*
X1323780D01*
Y2625627D01*
X1328882Y2626028D01*
X1348490Y2630736D01*
X1367120Y2638453D01*
X1384314Y2648989D01*
X1399647Y2662085D01*
X1412743Y2677419D01*
X1423280Y2694612D01*
X1430996Y2713242D01*
X1435704Y2732850D01*
X1436105Y2737953D01*
D02*
G37*
G36*
X1293780D02*
X1181454D01*
X1181855Y2732850D01*
X1186563Y2713242D01*
X1194280Y2694612D01*
X1204816Y2677419D01*
X1217912Y2662085D01*
X1233245Y2648989D01*
X1250439Y2638453D01*
X1269069Y2630736D01*
X1288677Y2626028D01*
X1293780Y2625627D01*
Y2737953D01*
D02*
G37*
G36*
X990000Y2507319D02*
X980341Y2506048D01*
X971340Y2502320D01*
X963611Y2496389D01*
X957681Y2488660D01*
X956075Y2484784D01*
X883925D01*
X882319Y2488660D01*
X876389Y2496389D01*
X868660Y2502320D01*
X859659Y2506048D01*
X850000Y2507319D01*
X840341Y2506048D01*
X831340Y2502320D01*
X823611Y2496389D01*
X817681Y2488660D01*
X816075Y2484784D01*
X743925D01*
X742319Y2488660D01*
X736389Y2496389D01*
X728660Y2502320D01*
X719659Y2506048D01*
X710000Y2507319D01*
X700341Y2506048D01*
X691340Y2502320D01*
X683611Y2496389D01*
X677681Y2488660D01*
X676075Y2484784D01*
X603925D01*
X602319Y2488660D01*
X596389Y2496389D01*
X588660Y2502320D01*
X579659Y2506048D01*
X570000Y2507319D01*
X560341Y2506048D01*
X551340Y2502320D01*
X543611Y2496389D01*
X537681Y2488660D01*
X536075Y2484784D01*
X463925D01*
X462320Y2488660D01*
X456389Y2496389D01*
X448660Y2502320D01*
X439659Y2506048D01*
X430000Y2507319D01*
X420341Y2506048D01*
X411340Y2502320D01*
X403611Y2496389D01*
X397680Y2488660D01*
X396075Y2484784D01*
X323925D01*
X322320Y2488660D01*
X316389Y2496389D01*
X308660Y2502320D01*
X299659Y2506048D01*
X290000Y2507319D01*
X280341Y2506048D01*
X271340Y2502320D01*
X263611Y2496389D01*
X257680Y2488660D01*
X253952Y2479659D01*
X252681Y2470000D01*
X253952Y2460341D01*
X257680Y2451340D01*
X263611Y2443611D01*
X271340Y2437680D01*
X280341Y2433952D01*
X290000Y2432681D01*
X299659Y2433952D01*
X308660Y2437680D01*
X316389Y2443611D01*
X322320Y2451340D01*
X323925Y2455216D01*
X396075D01*
X397680Y2451340D01*
X403611Y2443611D01*
X411340Y2437680D01*
X420341Y2433952D01*
X430000Y2432681D01*
X439659Y2433952D01*
X448660Y2437680D01*
X456389Y2443611D01*
X462320Y2451340D01*
X463925Y2455216D01*
X536075D01*
X537681Y2451340D01*
X543611Y2443611D01*
X551340Y2437680D01*
X560341Y2433952D01*
X570000Y2432681D01*
X579659Y2433952D01*
X588660Y2437680D01*
X596389Y2443611D01*
X602319Y2451340D01*
X603925Y2455216D01*
X676075D01*
X677681Y2451340D01*
X683611Y2443611D01*
X691340Y2437680D01*
X700341Y2433952D01*
X710000Y2432681D01*
X719659Y2433952D01*
X728660Y2437680D01*
X736389Y2443611D01*
X742319Y2451340D01*
X743925Y2455216D01*
X816075D01*
X817681Y2451340D01*
X823611Y2443611D01*
X831340Y2437680D01*
X840341Y2433952D01*
X850000Y2432681D01*
X859659Y2433952D01*
X868660Y2437680D01*
X876389Y2443611D01*
X882319Y2451340D01*
X883925Y2455216D01*
X956075D01*
X957681Y2451340D01*
X963611Y2443611D01*
X971340Y2437680D01*
X980341Y2433952D01*
X990000Y2432681D01*
X999659Y2433952D01*
X1008660Y2437680D01*
X1016389Y2443611D01*
X1022319Y2451340D01*
X1023925Y2455216D01*
X1133876D01*
X1345216Y2243876D01*
Y2184784D01*
X1320504D01*
Y2202590D01*
X1265165D01*
Y2137410D01*
X1320504D01*
Y2155216D01*
X1353876D01*
X1409689Y2099403D01*
X1407775Y2094784D01*
X1320504D01*
Y2112590D01*
X1265165D01*
Y2047409D01*
X1320504D01*
Y2065216D01*
X1443876D01*
X1624140Y1884952D01*
X1622535Y1881076D01*
X1621263Y1871417D01*
X1622535Y1861758D01*
X1626263Y1852758D01*
X1632194Y1845029D01*
X1639923Y1839098D01*
X1648924Y1835370D01*
X1658583Y1834098D01*
X1668242Y1835370D01*
X1677242Y1839098D01*
X1684971Y1845029D01*
X1690902Y1852758D01*
X1694630Y1861758D01*
X1695902Y1871417D01*
X1694630Y1881076D01*
X1690902Y1890077D01*
X1684971Y1897806D01*
X1677242Y1903737D01*
X1670818Y1906398D01*
Y2136437D01*
X1677242Y2139098D01*
X1684971Y2145029D01*
X1690902Y2152758D01*
X1694630Y2161758D01*
X1695902Y2171417D01*
X1694630Y2181076D01*
X1690902Y2190077D01*
X1684971Y2197806D01*
X1677242Y2203737D01*
X1668242Y2207465D01*
X1658583Y2208737D01*
X1648924Y2207465D01*
X1639923Y2203737D01*
X1632194Y2197806D01*
X1626263Y2190077D01*
X1622535Y2181076D01*
X1621263Y2171417D01*
X1622535Y2161758D01*
X1626263Y2152758D01*
X1632194Y2145029D01*
X1639923Y2139098D01*
X1646348Y2136437D01*
Y1911631D01*
X1641348Y1909560D01*
X1460454Y2090454D01*
X1460454Y2090454D01*
X1374784Y2176124D01*
Y2250000D01*
X1373659Y2255658D01*
X1370454Y2260454D01*
X1150454Y2480454D01*
X1145658Y2483659D01*
X1140000Y2484784D01*
X1023925D01*
X1022319Y2488660D01*
X1016389Y2496389D01*
X1008660Y2502320D01*
X999659Y2506048D01*
X990000Y2507319D01*
D02*
G37*
G36*
Y2407319D02*
X980341Y2406048D01*
X971340Y2402320D01*
X963611Y2396389D01*
X957681Y2388660D01*
X953952Y2379659D01*
X952681Y2370000D01*
X953952Y2360341D01*
X957681Y2351340D01*
X963611Y2343611D01*
X971340Y2337680D01*
X980341Y2333952D01*
X990000Y2332681D01*
X999659Y2333952D01*
X1008660Y2337680D01*
X1016389Y2343611D01*
X1022319Y2351340D01*
X1026048Y2360341D01*
X1027319Y2370000D01*
X1026048Y2379659D01*
X1022319Y2388660D01*
X1016389Y2396389D01*
X1008660Y2402320D01*
X999659Y2406048D01*
X990000Y2407319D01*
D02*
G37*
G36*
X850000D02*
X840341Y2406048D01*
X831340Y2402320D01*
X823611Y2396389D01*
X817681Y2388660D01*
X813952Y2379659D01*
X812681Y2370000D01*
X813952Y2360341D01*
X817681Y2351340D01*
X823611Y2343611D01*
X831340Y2337680D01*
X840341Y2333952D01*
X850000Y2332681D01*
X859659Y2333952D01*
X868660Y2337680D01*
X876389Y2343611D01*
X882319Y2351340D01*
X886048Y2360341D01*
X887319Y2370000D01*
X886048Y2379659D01*
X882319Y2388660D01*
X876389Y2396389D01*
X868660Y2402320D01*
X859659Y2406048D01*
X850000Y2407319D01*
D02*
G37*
G36*
X710000D02*
X700341Y2406048D01*
X691340Y2402320D01*
X683611Y2396389D01*
X677681Y2388660D01*
X673952Y2379659D01*
X672681Y2370000D01*
X673952Y2360341D01*
X677681Y2351340D01*
X683611Y2343611D01*
X691340Y2337680D01*
X700341Y2333952D01*
X710000Y2332681D01*
X719659Y2333952D01*
X728660Y2337680D01*
X736389Y2343611D01*
X742319Y2351340D01*
X746048Y2360341D01*
X747319Y2370000D01*
X746048Y2379659D01*
X742319Y2388660D01*
X736389Y2396389D01*
X728660Y2402320D01*
X719659Y2406048D01*
X710000Y2407319D01*
D02*
G37*
G36*
X570000D02*
X560341Y2406048D01*
X551340Y2402320D01*
X543611Y2396389D01*
X537681Y2388660D01*
X533952Y2379659D01*
X532681Y2370000D01*
X533952Y2360341D01*
X537681Y2351340D01*
X543611Y2343611D01*
X551340Y2337680D01*
X560341Y2333952D01*
X570000Y2332681D01*
X579659Y2333952D01*
X588660Y2337680D01*
X596389Y2343611D01*
X602319Y2351340D01*
X606048Y2360341D01*
X607319Y2370000D01*
X606048Y2379659D01*
X602319Y2388660D01*
X596389Y2396389D01*
X588660Y2402320D01*
X579659Y2406048D01*
X570000Y2407319D01*
D02*
G37*
G36*
X430000D02*
X420341Y2406048D01*
X411340Y2402320D01*
X403611Y2396389D01*
X397680Y2388660D01*
X393952Y2379659D01*
X392681Y2370000D01*
X393952Y2360341D01*
X397680Y2351340D01*
X403611Y2343611D01*
X411340Y2337680D01*
X420341Y2333952D01*
X430000Y2332681D01*
X439659Y2333952D01*
X448660Y2337680D01*
X456389Y2343611D01*
X462320Y2351340D01*
X466048Y2360341D01*
X467319Y2370000D01*
X466048Y2379659D01*
X462320Y2388660D01*
X456389Y2396389D01*
X448660Y2402320D01*
X439659Y2406048D01*
X430000Y2407319D01*
D02*
G37*
G36*
X290000D02*
X280341Y2406048D01*
X271340Y2402320D01*
X263611Y2396389D01*
X257680Y2388660D01*
X253952Y2379659D01*
X252681Y2370000D01*
X253952Y2360341D01*
X257680Y2351340D01*
X263611Y2343611D01*
X271340Y2337680D01*
X280341Y2333952D01*
X290000Y2332681D01*
X299659Y2333952D01*
X308660Y2337680D01*
X316389Y2343611D01*
X322320Y2351340D01*
X326048Y2360341D01*
X327319Y2370000D01*
X326048Y2379659D01*
X322320Y2388660D01*
X316389Y2396389D01*
X308660Y2402320D01*
X299659Y2406048D01*
X290000Y2407319D01*
D02*
G37*
G36*
X990000Y2307319D02*
X980341Y2306048D01*
X971340Y2302320D01*
X963611Y2296389D01*
X957681Y2288660D01*
X955019Y2282235D01*
X884981D01*
X882319Y2288660D01*
X876389Y2296389D01*
X868660Y2302320D01*
X859659Y2306048D01*
X850000Y2307319D01*
X840341Y2306048D01*
X831340Y2302320D01*
X823611Y2296389D01*
X817681Y2288660D01*
X815019Y2282235D01*
X744981D01*
X742319Y2288660D01*
X736389Y2296389D01*
X728660Y2302320D01*
X719659Y2306048D01*
X710000Y2307319D01*
X700341Y2306048D01*
X691340Y2302320D01*
X683611Y2296389D01*
X677681Y2288660D01*
X675019Y2282235D01*
X604981D01*
X602319Y2288660D01*
X596389Y2296389D01*
X588660Y2302320D01*
X579659Y2306048D01*
X570000Y2307319D01*
X560341Y2306048D01*
X551340Y2302320D01*
X543611Y2296389D01*
X537681Y2288660D01*
X535019Y2282235D01*
X464981D01*
X462320Y2288660D01*
X456389Y2296389D01*
X448660Y2302320D01*
X439659Y2306048D01*
X430000Y2307319D01*
X420341Y2306048D01*
X411340Y2302320D01*
X403611Y2296389D01*
X397680Y2288660D01*
X395019Y2282235D01*
X324981D01*
X322320Y2288660D01*
X316389Y2296389D01*
X308660Y2302320D01*
X299659Y2306048D01*
X290000Y2307319D01*
X280341Y2306048D01*
X271340Y2302320D01*
X263611Y2296389D01*
X257680Y2288660D01*
X253952Y2279659D01*
X252681Y2270000D01*
X253952Y2260341D01*
X257680Y2251340D01*
X263611Y2243611D01*
X271340Y2237680D01*
X280341Y2233952D01*
X290000Y2232681D01*
X299659Y2233952D01*
X308660Y2237680D01*
X316389Y2243611D01*
X322320Y2251340D01*
X324981Y2257765D01*
X395019D01*
X397680Y2251340D01*
X403611Y2243611D01*
X411340Y2237680D01*
X420341Y2233952D01*
X430000Y2232681D01*
X439659Y2233952D01*
X448660Y2237680D01*
X456389Y2243611D01*
X462320Y2251340D01*
X464981Y2257765D01*
X535019D01*
X537681Y2251340D01*
X543611Y2243611D01*
X551340Y2237680D01*
X560341Y2233952D01*
X570000Y2232681D01*
X579659Y2233952D01*
X588660Y2237680D01*
X596389Y2243611D01*
X602319Y2251340D01*
X604981Y2257765D01*
X675019D01*
X677681Y2251340D01*
X683611Y2243611D01*
X691340Y2237680D01*
X700341Y2233952D01*
X710000Y2232681D01*
X719659Y2233952D01*
X728660Y2237680D01*
X736389Y2243611D01*
X742319Y2251340D01*
X744981Y2257765D01*
X815019D01*
X817681Y2251340D01*
X823611Y2243611D01*
X831340Y2237680D01*
X840341Y2233952D01*
X850000Y2232681D01*
X859659Y2233952D01*
X868660Y2237680D01*
X876389Y2243611D01*
X882319Y2251340D01*
X884981Y2257765D01*
X955019D01*
X957681Y2251340D01*
X963611Y2243611D01*
X971340Y2237680D01*
X980341Y2233952D01*
X990000Y2232681D01*
X999659Y2233952D01*
X1006083Y2236613D01*
X1081349Y2161348D01*
X1085318Y2158696D01*
X1090000Y2157765D01*
X1192331D01*
Y2137410D01*
X1247669D01*
Y2202590D01*
X1192331D01*
Y2182235D01*
X1095068D01*
X1023386Y2253916D01*
X1026048Y2260341D01*
X1027319Y2270000D01*
X1026048Y2279659D01*
X1022319Y2288660D01*
X1016389Y2296389D01*
X1008660Y2302320D01*
X999659Y2306048D01*
X990000Y2307319D01*
D02*
G37*
G36*
X2190000Y2572276D02*
X2181646Y2571176D01*
X2173862Y2567952D01*
X2167177Y2562823D01*
X2162048Y2556138D01*
X2158824Y2548354D01*
X2157724Y2540000D01*
X2158824Y2531646D01*
X2162048Y2523862D01*
X2167177Y2517177D01*
X2173862Y2512048D01*
X2177765Y2510431D01*
Y2395068D01*
X2084932Y2302235D01*
X1580000D01*
X1575318Y2301304D01*
X1571349Y2298651D01*
X1476671Y2203974D01*
X1468242Y2207465D01*
X1458583Y2208737D01*
X1448924Y2207465D01*
X1439923Y2203737D01*
X1432194Y2197806D01*
X1426263Y2190077D01*
X1422535Y2181076D01*
X1421263Y2171417D01*
X1422535Y2161758D01*
X1426263Y2152758D01*
X1432194Y2145029D01*
X1439923Y2139098D01*
X1448924Y2135370D01*
X1458583Y2134098D01*
X1468242Y2135370D01*
X1477242Y2139098D01*
X1484971Y2145029D01*
X1490902Y2152758D01*
X1494630Y2161758D01*
X1495902Y2171417D01*
X1494630Y2181076D01*
X1492800Y2185497D01*
X1585068Y2277765D01*
X2090000D01*
X2094682Y2278696D01*
X2098651Y2281349D01*
X2198652Y2381349D01*
X2201304Y2385318D01*
X2202235Y2390000D01*
Y2510431D01*
X2206138Y2512048D01*
X2212823Y2517177D01*
X2217952Y2523862D01*
X2221176Y2531646D01*
X2222276Y2540000D01*
X2221176Y2548354D01*
X2217952Y2556138D01*
X2212823Y2562823D01*
X2206138Y2567952D01*
X2198354Y2571176D01*
X2190000Y2572276D01*
D02*
G37*
G36*
X2873583Y2208500D02*
Y2186417D01*
X2895665D01*
X2893523Y2191590D01*
X2887111Y2199946D01*
X2878755Y2206357D01*
X2873583Y2208500D01*
D02*
G37*
G36*
X2843583D02*
X2838410Y2206357D01*
X2830054Y2199946D01*
X2823643Y2191590D01*
X2821500Y2186417D01*
X2843583D01*
Y2208500D01*
D02*
G37*
G36*
X1573583D02*
Y2186417D01*
X1595665D01*
X1593523Y2191590D01*
X1587111Y2199946D01*
X1578755Y2206357D01*
X1573583Y2208500D01*
D02*
G37*
G36*
X1543583D02*
X1538410Y2206357D01*
X1530054Y2199946D01*
X1523643Y2191590D01*
X1521500Y2186417D01*
X1543583D01*
Y2208500D01*
D02*
G37*
G36*
X990000Y2207319D02*
X980341Y2206048D01*
X971340Y2202320D01*
X963611Y2196389D01*
X957681Y2188660D01*
X955019Y2182235D01*
X884981D01*
X882319Y2188660D01*
X876389Y2196389D01*
X868660Y2202320D01*
X859659Y2206048D01*
X850000Y2207319D01*
X840341Y2206048D01*
X831340Y2202320D01*
X823611Y2196389D01*
X817681Y2188660D01*
X815019Y2182235D01*
X744981D01*
X742319Y2188660D01*
X736389Y2196389D01*
X728660Y2202320D01*
X719659Y2206048D01*
X710000Y2207319D01*
X700341Y2206048D01*
X691340Y2202320D01*
X683611Y2196389D01*
X677681Y2188660D01*
X675019Y2182235D01*
X604981D01*
X602319Y2188660D01*
X596389Y2196389D01*
X588660Y2202320D01*
X579659Y2206048D01*
X570000Y2207319D01*
X560341Y2206048D01*
X551340Y2202320D01*
X543611Y2196389D01*
X537681Y2188660D01*
X535019Y2182235D01*
X464981D01*
X462320Y2188660D01*
X456389Y2196389D01*
X448660Y2202320D01*
X439659Y2206048D01*
X430000Y2207319D01*
X420341Y2206048D01*
X411340Y2202320D01*
X403611Y2196389D01*
X397680Y2188660D01*
X395019Y2182235D01*
X324981D01*
X322320Y2188660D01*
X316389Y2196389D01*
X308660Y2202320D01*
X299659Y2206048D01*
X290000Y2207319D01*
X280341Y2206048D01*
X271340Y2202320D01*
X263611Y2196389D01*
X257680Y2188660D01*
X253952Y2179659D01*
X252681Y2170000D01*
X253952Y2160341D01*
X257680Y2151340D01*
X263611Y2143611D01*
X271340Y2137680D01*
X280341Y2133952D01*
X290000Y2132681D01*
X299659Y2133952D01*
X308660Y2137680D01*
X316389Y2143611D01*
X322320Y2151340D01*
X324981Y2157765D01*
X395019D01*
X397680Y2151340D01*
X403611Y2143611D01*
X411340Y2137680D01*
X420341Y2133952D01*
X430000Y2132681D01*
X439659Y2133952D01*
X448660Y2137680D01*
X456389Y2143611D01*
X462320Y2151340D01*
X464981Y2157765D01*
X535019D01*
X537681Y2151340D01*
X543611Y2143611D01*
X551340Y2137680D01*
X560341Y2133952D01*
X570000Y2132681D01*
X579659Y2133952D01*
X588660Y2137680D01*
X596389Y2143611D01*
X602319Y2151340D01*
X604981Y2157765D01*
X675019D01*
X677681Y2151340D01*
X683611Y2143611D01*
X691340Y2137680D01*
X700341Y2133952D01*
X710000Y2132681D01*
X719659Y2133952D01*
X728660Y2137680D01*
X736389Y2143611D01*
X742319Y2151340D01*
X744981Y2157765D01*
X815019D01*
X817681Y2151340D01*
X823611Y2143611D01*
X831340Y2137680D01*
X840341Y2133952D01*
X850000Y2132681D01*
X859659Y2133952D01*
X868660Y2137680D01*
X876389Y2143611D01*
X882319Y2151340D01*
X884981Y2157765D01*
X955019D01*
X957681Y2151340D01*
X963611Y2143611D01*
X971340Y2137680D01*
X980341Y2133952D01*
X990000Y2132681D01*
X999659Y2133952D01*
X1006083Y2136613D01*
X1027697Y2115000D01*
X1025626Y2110000D01*
X1005000D01*
Y2085000D01*
X1030000D01*
Y2105626D01*
X1035000Y2107697D01*
X1071349Y2071349D01*
X1481349Y1661348D01*
X1485318Y1658696D01*
X1490000Y1657765D01*
X2057164D01*
X2061846Y1658696D01*
X2065816Y1661349D01*
X2242498Y1838031D01*
X2248924Y1835370D01*
X2258583Y1834098D01*
X2268242Y1835370D01*
X2277242Y1839098D01*
X2284971Y1845029D01*
X2290902Y1852758D01*
X2294630Y1861758D01*
X2295902Y1871417D01*
X2294630Y1881076D01*
X2290902Y1890077D01*
X2284971Y1897806D01*
X2277242Y1903737D01*
X2268242Y1907465D01*
X2258583Y1908737D01*
X2248924Y1907465D01*
X2239923Y1903737D01*
X2232194Y1897806D01*
X2226263Y1890077D01*
X2222535Y1881076D01*
X2221263Y1871417D01*
X2222535Y1861758D01*
X2225196Y1855335D01*
X2052096Y1682235D01*
X1563351D01*
X1561345Y1686722D01*
X1561382Y1687235D01*
X1567823Y1692177D01*
X1572952Y1698862D01*
X1574832Y1703401D01*
X2012426Y1712768D01*
X2014630Y1713255D01*
X2016846Y1713696D01*
X2016957Y1713770D01*
X2017087Y1713799D01*
X2018938Y1715094D01*
X2020815Y1716349D01*
X2142498Y1838031D01*
X2148924Y1835370D01*
X2158583Y1834098D01*
X2168242Y1835370D01*
X2177242Y1839098D01*
X2184971Y1845029D01*
X2190902Y1852758D01*
X2194630Y1861758D01*
X2195902Y1871417D01*
X2194630Y1881076D01*
X2190902Y1890077D01*
X2184971Y1897806D01*
X2177242Y1903737D01*
X2168242Y1907465D01*
X2158583Y1908737D01*
X2148924Y1907465D01*
X2139923Y1903737D01*
X2132194Y1897806D01*
X2126263Y1890077D01*
X2122535Y1881076D01*
X2121263Y1871417D01*
X2122535Y1861758D01*
X2125196Y1855335D01*
X2006988Y1737127D01*
X1574307Y1727865D01*
X1572952Y1731138D01*
X1567823Y1737823D01*
X1561138Y1742952D01*
X1553354Y1746176D01*
X1545000Y1747276D01*
X1536646Y1746176D01*
X1528862Y1742952D01*
X1522177Y1737823D01*
X1517048Y1731138D01*
X1513824Y1723354D01*
X1512724Y1715000D01*
X1513824Y1706646D01*
X1517048Y1698862D01*
X1522177Y1692177D01*
X1528618Y1687235D01*
X1528655Y1686722D01*
X1526649Y1682235D01*
X1495068D01*
X1114158Y2063146D01*
X1116071Y2067765D01*
X1192331D01*
Y2047409D01*
X1247669D01*
Y2112590D01*
X1192331D01*
Y2092235D01*
X1085068D01*
X1023386Y2153916D01*
X1026048Y2160341D01*
X1027319Y2170000D01*
X1026048Y2179659D01*
X1022319Y2188660D01*
X1016389Y2196389D01*
X1008660Y2202320D01*
X999659Y2206048D01*
X990000Y2207319D01*
D02*
G37*
G36*
X3795583Y2208417D02*
X3721583D01*
Y2134417D01*
X3795583D01*
Y2208417D01*
D02*
G37*
G36*
X2895665Y2156417D02*
X2873583D01*
Y2134335D01*
X2878755Y2136477D01*
X2887111Y2142889D01*
X2893523Y2151245D01*
X2895665Y2156417D01*
D02*
G37*
G36*
X2843583D02*
X2821500D01*
X2823643Y2151245D01*
X2830054Y2142889D01*
X2838410Y2136477D01*
X2843583Y2134335D01*
Y2156417D01*
D02*
G37*
G36*
X1595665D02*
X1573583D01*
Y2134335D01*
X1578755Y2136477D01*
X1587111Y2142889D01*
X1593523Y2151245D01*
X1595665Y2156417D01*
D02*
G37*
G36*
X1543583D02*
X1521500D01*
X1523643Y2151245D01*
X1530054Y2142889D01*
X1538410Y2136477D01*
X1543583Y2134335D01*
Y2156417D01*
D02*
G37*
G36*
X3658583Y2208737D02*
X3648924Y2207465D01*
X3639923Y2203737D01*
X3632194Y2197806D01*
X3626263Y2190077D01*
X3622535Y2181076D01*
X3621263Y2171417D01*
X3622535Y2161758D01*
X3626263Y2152758D01*
X3632194Y2145029D01*
X3639923Y2139098D01*
X3648924Y2135370D01*
X3658583Y2134098D01*
X3668242Y2135370D01*
X3677242Y2139098D01*
X3684971Y2145029D01*
X3690902Y2152758D01*
X3694630Y2161758D01*
X3695902Y2171417D01*
X3694630Y2181076D01*
X3690902Y2190077D01*
X3684971Y2197806D01*
X3677242Y2203737D01*
X3668242Y2207465D01*
X3658583Y2208737D01*
D02*
G37*
G36*
X3558583D02*
X3548924Y2207465D01*
X3539923Y2203737D01*
X3532194Y2197806D01*
X3526263Y2190077D01*
X3522535Y2181076D01*
X3521263Y2171417D01*
X3522535Y2161758D01*
X3526263Y2152758D01*
X3532194Y2145029D01*
X3539923Y2139098D01*
X3548924Y2135370D01*
X3558583Y2134098D01*
X3568242Y2135370D01*
X3577242Y2139098D01*
X3584971Y2145029D01*
X3590902Y2152758D01*
X3594630Y2161758D01*
X3595902Y2171417D01*
X3594630Y2181076D01*
X3590902Y2190077D01*
X3584971Y2197806D01*
X3577242Y2203737D01*
X3568242Y2207465D01*
X3558583Y2208737D01*
D02*
G37*
G36*
X3458583D02*
X3448924Y2207465D01*
X3439923Y2203737D01*
X3432194Y2197806D01*
X3426263Y2190077D01*
X3422535Y2181076D01*
X3421263Y2171417D01*
X3422535Y2161758D01*
X3426263Y2152758D01*
X3432194Y2145029D01*
X3439923Y2139098D01*
X3448924Y2135370D01*
X3458583Y2134098D01*
X3468242Y2135370D01*
X3477242Y2139098D01*
X3484971Y2145029D01*
X3490902Y2152758D01*
X3494630Y2161758D01*
X3495902Y2171417D01*
X3494630Y2181076D01*
X3490902Y2190077D01*
X3484971Y2197806D01*
X3477242Y2203737D01*
X3468242Y2207465D01*
X3458583Y2208737D01*
D02*
G37*
G36*
X3358583D02*
X3348924Y2207465D01*
X3339923Y2203737D01*
X3332194Y2197806D01*
X3326263Y2190077D01*
X3322535Y2181076D01*
X3321263Y2171417D01*
X3322535Y2161758D01*
X3326263Y2152758D01*
X3332194Y2145029D01*
X3339923Y2139098D01*
X3348924Y2135370D01*
X3358583Y2134098D01*
X3368242Y2135370D01*
X3377242Y2139098D01*
X3384971Y2145029D01*
X3390902Y2152758D01*
X3394630Y2161758D01*
X3395902Y2171417D01*
X3394630Y2181076D01*
X3390902Y2190077D01*
X3384971Y2197806D01*
X3377242Y2203737D01*
X3368242Y2207465D01*
X3358583Y2208737D01*
D02*
G37*
G36*
X3258583D02*
X3248924Y2207465D01*
X3239923Y2203737D01*
X3232194Y2197806D01*
X3226263Y2190077D01*
X3222535Y2181076D01*
X3221263Y2171417D01*
X3222535Y2161758D01*
X3226263Y2152758D01*
X3232194Y2145029D01*
X3239923Y2139098D01*
X3248924Y2135370D01*
X3258583Y2134098D01*
X3268242Y2135370D01*
X3277242Y2139098D01*
X3284971Y2145029D01*
X3290902Y2152758D01*
X3294630Y2161758D01*
X3295902Y2171417D01*
X3294630Y2181076D01*
X3290902Y2190077D01*
X3284971Y2197806D01*
X3277242Y2203737D01*
X3268242Y2207465D01*
X3258583Y2208737D01*
D02*
G37*
G36*
X3158583D02*
X3148924Y2207465D01*
X3139923Y2203737D01*
X3132194Y2197806D01*
X3126263Y2190077D01*
X3122535Y2181076D01*
X3121263Y2171417D01*
X3122535Y2161758D01*
X3126263Y2152758D01*
X3132194Y2145029D01*
X3139923Y2139098D01*
X3148924Y2135370D01*
X3158583Y2134098D01*
X3168242Y2135370D01*
X3177242Y2139098D01*
X3184971Y2145029D01*
X3190902Y2152758D01*
X3194630Y2161758D01*
X3195902Y2171417D01*
X3194630Y2181076D01*
X3190902Y2190077D01*
X3184971Y2197806D01*
X3177242Y2203737D01*
X3168242Y2207465D01*
X3158583Y2208737D01*
D02*
G37*
G36*
X3058583D02*
X3048924Y2207465D01*
X3039923Y2203737D01*
X3032194Y2197806D01*
X3026263Y2190077D01*
X3022535Y2181076D01*
X3021263Y2171417D01*
X3022535Y2161758D01*
X3026263Y2152758D01*
X3032194Y2145029D01*
X3039923Y2139098D01*
X3048924Y2135370D01*
X3058583Y2134098D01*
X3068242Y2135370D01*
X3077242Y2139098D01*
X3084971Y2145029D01*
X3090902Y2152758D01*
X3094630Y2161758D01*
X3095902Y2171417D01*
X3094630Y2181076D01*
X3090902Y2190077D01*
X3084971Y2197806D01*
X3077242Y2203737D01*
X3068242Y2207465D01*
X3058583Y2208737D01*
D02*
G37*
G36*
X2958583D02*
X2948924Y2207465D01*
X2939923Y2203737D01*
X2932194Y2197806D01*
X2926263Y2190077D01*
X2922535Y2181076D01*
X2921263Y2171417D01*
X2922535Y2161758D01*
X2926263Y2152758D01*
X2932194Y2145029D01*
X2939923Y2139098D01*
X2948924Y2135370D01*
X2958583Y2134098D01*
X2968242Y2135370D01*
X2977242Y2139098D01*
X2984971Y2145029D01*
X2990902Y2152758D01*
X2994630Y2161758D01*
X2995902Y2171417D01*
X2994630Y2181076D01*
X2990902Y2190077D01*
X2984971Y2197806D01*
X2977242Y2203737D01*
X2968242Y2207465D01*
X2958583Y2208737D01*
D02*
G37*
G36*
X2758583D02*
X2748924Y2207465D01*
X2739923Y2203737D01*
X2732194Y2197806D01*
X2726263Y2190077D01*
X2722535Y2181076D01*
X2721263Y2171417D01*
X2722535Y2161758D01*
X2726263Y2152758D01*
X2732194Y2145029D01*
X2739923Y2139098D01*
X2748924Y2135370D01*
X2758583Y2134098D01*
X2768242Y2135370D01*
X2777242Y2139098D01*
X2784971Y2145029D01*
X2790902Y2152758D01*
X2794630Y2161758D01*
X2795902Y2171417D01*
X2794630Y2181076D01*
X2790902Y2190077D01*
X2784971Y2197806D01*
X2777242Y2203737D01*
X2768242Y2207465D01*
X2758583Y2208737D01*
D02*
G37*
G36*
X2658583D02*
X2648924Y2207465D01*
X2639923Y2203737D01*
X2632194Y2197806D01*
X2626263Y2190077D01*
X2622535Y2181076D01*
X2621263Y2171417D01*
X2622535Y2161758D01*
X2626263Y2152758D01*
X2632194Y2145029D01*
X2639923Y2139098D01*
X2648924Y2135370D01*
X2658583Y2134098D01*
X2668242Y2135370D01*
X2677242Y2139098D01*
X2684971Y2145029D01*
X2690902Y2152758D01*
X2694630Y2161758D01*
X2695902Y2171417D01*
X2694630Y2181076D01*
X2690902Y2190077D01*
X2684971Y2197806D01*
X2677242Y2203737D01*
X2668242Y2207465D01*
X2658583Y2208737D01*
D02*
G37*
G36*
X2558583D02*
X2548924Y2207465D01*
X2539923Y2203737D01*
X2532194Y2197806D01*
X2526263Y2190077D01*
X2522535Y2181076D01*
X2521263Y2171417D01*
X2522535Y2161758D01*
X2526263Y2152758D01*
X2532194Y2145029D01*
X2539923Y2139098D01*
X2548924Y2135370D01*
X2558583Y2134098D01*
X2568242Y2135370D01*
X2577242Y2139098D01*
X2584971Y2145029D01*
X2590902Y2152758D01*
X2594630Y2161758D01*
X2595902Y2171417D01*
X2594630Y2181076D01*
X2590902Y2190077D01*
X2584971Y2197806D01*
X2577242Y2203737D01*
X2568242Y2207465D01*
X2558583Y2208737D01*
D02*
G37*
G36*
X2458583D02*
X2448924Y2207465D01*
X2439923Y2203737D01*
X2432194Y2197806D01*
X2426263Y2190077D01*
X2422535Y2181076D01*
X2421263Y2171417D01*
X2422535Y2161758D01*
X2426263Y2152758D01*
X2432194Y2145029D01*
X2439923Y2139098D01*
X2448924Y2135370D01*
X2458583Y2134098D01*
X2468242Y2135370D01*
X2477242Y2139098D01*
X2484971Y2145029D01*
X2490902Y2152758D01*
X2494630Y2161758D01*
X2495902Y2171417D01*
X2494630Y2181076D01*
X2490902Y2190077D01*
X2484971Y2197806D01*
X2477242Y2203737D01*
X2468242Y2207465D01*
X2458583Y2208737D01*
D02*
G37*
G36*
X2358583D02*
X2348924Y2207465D01*
X2339923Y2203737D01*
X2332194Y2197806D01*
X2326263Y2190077D01*
X2322535Y2181076D01*
X2321263Y2171417D01*
X2322535Y2161758D01*
X2326263Y2152758D01*
X2332194Y2145029D01*
X2339923Y2139098D01*
X2348924Y2135370D01*
X2358583Y2134098D01*
X2368242Y2135370D01*
X2377242Y2139098D01*
X2384971Y2145029D01*
X2390902Y2152758D01*
X2394630Y2161758D01*
X2395902Y2171417D01*
X2394630Y2181076D01*
X2390902Y2190077D01*
X2384971Y2197806D01*
X2377242Y2203737D01*
X2368242Y2207465D01*
X2358583Y2208737D01*
D02*
G37*
G36*
X2258583D02*
X2248924Y2207465D01*
X2239923Y2203737D01*
X2232194Y2197806D01*
X2226263Y2190077D01*
X2222535Y2181076D01*
X2221263Y2171417D01*
X2222535Y2161758D01*
X2226263Y2152758D01*
X2232194Y2145029D01*
X2239923Y2139098D01*
X2248924Y2135370D01*
X2258583Y2134098D01*
X2268242Y2135370D01*
X2277242Y2139098D01*
X2284971Y2145029D01*
X2290902Y2152758D01*
X2294630Y2161758D01*
X2295902Y2171417D01*
X2294630Y2181076D01*
X2290902Y2190077D01*
X2284971Y2197806D01*
X2277242Y2203737D01*
X2268242Y2207465D01*
X2258583Y2208737D01*
D02*
G37*
G36*
X2158583D02*
X2148924Y2207465D01*
X2139923Y2203737D01*
X2132194Y2197806D01*
X2126263Y2190077D01*
X2122535Y2181076D01*
X2121263Y2171417D01*
X2122535Y2161758D01*
X2126263Y2152758D01*
X2132194Y2145029D01*
X2139923Y2139098D01*
X2148924Y2135370D01*
X2158583Y2134098D01*
X2168242Y2135370D01*
X2177242Y2139098D01*
X2184971Y2145029D01*
X2190902Y2152758D01*
X2194630Y2161758D01*
X2195902Y2171417D01*
X2194630Y2181076D01*
X2190902Y2190077D01*
X2184971Y2197806D01*
X2177242Y2203737D01*
X2168242Y2207465D01*
X2158583Y2208737D01*
D02*
G37*
G36*
X2058583D02*
X2048924Y2207465D01*
X2039923Y2203737D01*
X2032194Y2197806D01*
X2026263Y2190077D01*
X2022535Y2181076D01*
X2021263Y2171417D01*
X2022535Y2161758D01*
X2026263Y2152758D01*
X2032194Y2145029D01*
X2039923Y2139098D01*
X2048924Y2135370D01*
X2058583Y2134098D01*
X2068242Y2135370D01*
X2077242Y2139098D01*
X2084971Y2145029D01*
X2090902Y2152758D01*
X2094630Y2161758D01*
X2095902Y2171417D01*
X2094630Y2181076D01*
X2090902Y2190077D01*
X2084971Y2197806D01*
X2077242Y2203737D01*
X2068242Y2207465D01*
X2058583Y2208737D01*
D02*
G37*
G36*
X1958583D02*
X1948924Y2207465D01*
X1939923Y2203737D01*
X1932194Y2197806D01*
X1926263Y2190077D01*
X1922535Y2181076D01*
X1921263Y2171417D01*
X1922535Y2161758D01*
X1926263Y2152758D01*
X1932194Y2145029D01*
X1939923Y2139098D01*
X1948924Y2135370D01*
X1958583Y2134098D01*
X1968242Y2135370D01*
X1977242Y2139098D01*
X1984971Y2145029D01*
X1990902Y2152758D01*
X1994630Y2161758D01*
X1995902Y2171417D01*
X1994630Y2181076D01*
X1990902Y2190077D01*
X1984971Y2197806D01*
X1977242Y2203737D01*
X1968242Y2207465D01*
X1958583Y2208737D01*
D02*
G37*
G36*
X1858583D02*
X1848924Y2207465D01*
X1839923Y2203737D01*
X1832194Y2197806D01*
X1826263Y2190077D01*
X1822535Y2181076D01*
X1821263Y2171417D01*
X1822535Y2161758D01*
X1826263Y2152758D01*
X1832194Y2145029D01*
X1839923Y2139098D01*
X1848924Y2135370D01*
X1858583Y2134098D01*
X1868242Y2135370D01*
X1877242Y2139098D01*
X1884971Y2145029D01*
X1890902Y2152758D01*
X1894630Y2161758D01*
X1895902Y2171417D01*
X1894630Y2181076D01*
X1890902Y2190077D01*
X1884971Y2197806D01*
X1877242Y2203737D01*
X1868242Y2207465D01*
X1858583Y2208737D01*
D02*
G37*
G36*
X1758583D02*
X1748924Y2207465D01*
X1739923Y2203737D01*
X1732194Y2197806D01*
X1726263Y2190077D01*
X1722535Y2181076D01*
X1721263Y2171417D01*
X1722535Y2161758D01*
X1726263Y2152758D01*
X1732194Y2145029D01*
X1739923Y2139098D01*
X1748924Y2135370D01*
X1758583Y2134098D01*
X1768242Y2135370D01*
X1777242Y2139098D01*
X1784971Y2145029D01*
X1790902Y2152758D01*
X1794630Y2161758D01*
X1795902Y2171417D01*
X1794630Y2181076D01*
X1790902Y2190077D01*
X1784971Y2197806D01*
X1777242Y2203737D01*
X1768242Y2207465D01*
X1758583Y2208737D01*
D02*
G37*
G36*
X890000Y2110000D02*
X865000D01*
Y2085000D01*
X890000D01*
Y2110000D01*
D02*
G37*
G36*
X750000D02*
X725000D01*
Y2085000D01*
X750000D01*
Y2110000D01*
D02*
G37*
G36*
X610000D02*
X585000D01*
Y2085000D01*
X610000D01*
Y2110000D01*
D02*
G37*
G36*
X470000D02*
X445000D01*
Y2085000D01*
X470000D01*
Y2110000D01*
D02*
G37*
G36*
X330000D02*
X305000D01*
Y2085000D01*
X330000D01*
Y2110000D01*
D02*
G37*
G36*
X975000D02*
X950000D01*
Y2085000D01*
X975000D01*
Y2110000D01*
D02*
G37*
G36*
X835000D02*
X810000D01*
Y2085000D01*
X835000D01*
Y2110000D01*
D02*
G37*
G36*
X695000D02*
X670000D01*
Y2085000D01*
X695000D01*
Y2110000D01*
D02*
G37*
G36*
X555000D02*
X530000D01*
Y2085000D01*
X555000D01*
Y2110000D01*
D02*
G37*
G36*
X415000D02*
X390000D01*
Y2085000D01*
X415000D01*
Y2110000D01*
D02*
G37*
G36*
X275000D02*
X250000D01*
Y2085000D01*
X275000D01*
Y2110000D01*
D02*
G37*
G36*
X1030000Y2055000D02*
X1005000D01*
Y2030000D01*
X1030000D01*
Y2055000D01*
D02*
G37*
G36*
X975000D02*
X950000D01*
Y2030000D01*
X975000D01*
Y2055000D01*
D02*
G37*
G36*
X890000D02*
X865000D01*
Y2030000D01*
X890000D01*
Y2055000D01*
D02*
G37*
G36*
X835000D02*
X810000D01*
Y2030000D01*
X835000D01*
Y2055000D01*
D02*
G37*
G36*
X750000D02*
X725000D01*
Y2030000D01*
X750000D01*
Y2055000D01*
D02*
G37*
G36*
X695000D02*
X670000D01*
Y2030000D01*
X695000D01*
Y2055000D01*
D02*
G37*
G36*
X610000D02*
X585000D01*
Y2030000D01*
X610000D01*
Y2055000D01*
D02*
G37*
G36*
X555000D02*
X530000D01*
Y2030000D01*
X555000D01*
Y2055000D01*
D02*
G37*
G36*
X470000D02*
X445000D01*
Y2030000D01*
X470000D01*
Y2055000D01*
D02*
G37*
G36*
X415000D02*
X390000D01*
Y2030000D01*
X415000D01*
Y2055000D01*
D02*
G37*
G36*
X330000D02*
X305000D01*
Y2030000D01*
X330000D01*
Y2055000D01*
D02*
G37*
G36*
X275000D02*
X250000D01*
Y2030000D01*
X275000D01*
Y2055000D01*
D02*
G37*
G36*
X2873583Y1908500D02*
Y1886417D01*
X2895665D01*
X2893523Y1891590D01*
X2887111Y1899946D01*
X2878755Y1906357D01*
X2873583Y1908500D01*
D02*
G37*
G36*
X1573583D02*
Y1886417D01*
X1595665D01*
X1593523Y1891590D01*
X1587111Y1899946D01*
X1578755Y1906357D01*
X1573583Y1908500D01*
D02*
G37*
G36*
X2843583D02*
X2838410Y1906357D01*
X2830054Y1899946D01*
X2823643Y1891590D01*
X2821500Y1886417D01*
X2843583D01*
Y1908500D01*
D02*
G37*
G36*
X1543583D02*
X1538410Y1906357D01*
X1530054Y1899946D01*
X1523643Y1891590D01*
X1521500Y1886417D01*
X1543583D01*
Y1908500D01*
D02*
G37*
G36*
X2895665Y1856417D02*
X2873583D01*
Y1834335D01*
X2878755Y1836477D01*
X2887111Y1842889D01*
X2893523Y1851245D01*
X2895665Y1856417D01*
D02*
G37*
G36*
X1595665D02*
X1573583D01*
Y1834335D01*
X1578755Y1836477D01*
X1587111Y1842889D01*
X1593523Y1851245D01*
X1595665Y1856417D01*
D02*
G37*
G36*
X1543583D02*
X1521500D01*
X1523643Y1851245D01*
X1530054Y1842889D01*
X1538410Y1836477D01*
X1543583Y1834335D01*
Y1856417D01*
D02*
G37*
G36*
X2843583D02*
X2821500D01*
X2823643Y1851245D01*
X2830054Y1842889D01*
X2838410Y1836477D01*
X2843583Y1834335D01*
Y1856417D01*
D02*
G37*
G36*
X3758583Y1908737D02*
X3748924Y1907465D01*
X3739923Y1903737D01*
X3732194Y1897806D01*
X3726263Y1890077D01*
X3722535Y1881076D01*
X3721263Y1871417D01*
X3722535Y1861758D01*
X3726263Y1852758D01*
X3732194Y1845029D01*
X3739923Y1839098D01*
X3748924Y1835370D01*
X3758583Y1834098D01*
X3768242Y1835370D01*
X3777242Y1839098D01*
X3784971Y1845029D01*
X3790902Y1852758D01*
X3794630Y1861758D01*
X3795902Y1871417D01*
X3794630Y1881076D01*
X3790902Y1890077D01*
X3784971Y1897806D01*
X3777242Y1903737D01*
X3768242Y1907465D01*
X3758583Y1908737D01*
D02*
G37*
G36*
X3658583D02*
X3648924Y1907465D01*
X3639923Y1903737D01*
X3632194Y1897806D01*
X3626263Y1890077D01*
X3622535Y1881076D01*
X3621263Y1871417D01*
X3622535Y1861758D01*
X3626263Y1852758D01*
X3632194Y1845029D01*
X3639923Y1839098D01*
X3648924Y1835370D01*
X3658583Y1834098D01*
X3668242Y1835370D01*
X3677242Y1839098D01*
X3684971Y1845029D01*
X3690902Y1852758D01*
X3694630Y1861758D01*
X3695902Y1871417D01*
X3694630Y1881076D01*
X3690902Y1890077D01*
X3684971Y1897806D01*
X3677242Y1903737D01*
X3668242Y1907465D01*
X3658583Y1908737D01*
D02*
G37*
G36*
X3558583D02*
X3548924Y1907465D01*
X3539923Y1903737D01*
X3532194Y1897806D01*
X3526263Y1890077D01*
X3522535Y1881076D01*
X3521263Y1871417D01*
X3522535Y1861758D01*
X3526263Y1852758D01*
X3532194Y1845029D01*
X3539923Y1839098D01*
X3548924Y1835370D01*
X3558583Y1834098D01*
X3568242Y1835370D01*
X3577242Y1839098D01*
X3584971Y1845029D01*
X3590902Y1852758D01*
X3594630Y1861758D01*
X3595902Y1871417D01*
X3594630Y1881076D01*
X3590902Y1890077D01*
X3584971Y1897806D01*
X3577242Y1903737D01*
X3568242Y1907465D01*
X3558583Y1908737D01*
D02*
G37*
G36*
X3458583D02*
X3448924Y1907465D01*
X3439923Y1903737D01*
X3432194Y1897806D01*
X3426263Y1890077D01*
X3422535Y1881076D01*
X3421263Y1871417D01*
X3422535Y1861758D01*
X3426263Y1852758D01*
X3432194Y1845029D01*
X3439923Y1839098D01*
X3448924Y1835370D01*
X3458583Y1834098D01*
X3468242Y1835370D01*
X3477242Y1839098D01*
X3484971Y1845029D01*
X3490902Y1852758D01*
X3494630Y1861758D01*
X3495902Y1871417D01*
X3494630Y1881076D01*
X3490902Y1890077D01*
X3484971Y1897806D01*
X3477242Y1903737D01*
X3468242Y1907465D01*
X3458583Y1908737D01*
D02*
G37*
G36*
X3358583D02*
X3348924Y1907465D01*
X3339923Y1903737D01*
X3332194Y1897806D01*
X3326263Y1890077D01*
X3322535Y1881076D01*
X3321263Y1871417D01*
X3322535Y1861758D01*
X3326263Y1852758D01*
X3332194Y1845029D01*
X3339923Y1839098D01*
X3348924Y1835370D01*
X3358583Y1834098D01*
X3368242Y1835370D01*
X3377242Y1839098D01*
X3384971Y1845029D01*
X3390902Y1852758D01*
X3394630Y1861758D01*
X3395902Y1871417D01*
X3394630Y1881076D01*
X3390902Y1890077D01*
X3384971Y1897806D01*
X3377242Y1903737D01*
X3368242Y1907465D01*
X3358583Y1908737D01*
D02*
G37*
G36*
X3258583D02*
X3248924Y1907465D01*
X3239923Y1903737D01*
X3232194Y1897806D01*
X3226263Y1890077D01*
X3222535Y1881076D01*
X3221263Y1871417D01*
X3222535Y1861758D01*
X3226263Y1852758D01*
X3232194Y1845029D01*
X3239923Y1839098D01*
X3248924Y1835370D01*
X3258583Y1834098D01*
X3268242Y1835370D01*
X3277242Y1839098D01*
X3284971Y1845029D01*
X3290902Y1852758D01*
X3294630Y1861758D01*
X3295902Y1871417D01*
X3294630Y1881076D01*
X3290902Y1890077D01*
X3284971Y1897806D01*
X3277242Y1903737D01*
X3268242Y1907465D01*
X3258583Y1908737D01*
D02*
G37*
G36*
X3158583D02*
X3148924Y1907465D01*
X3139923Y1903737D01*
X3132194Y1897806D01*
X3126263Y1890077D01*
X3122535Y1881076D01*
X3121263Y1871417D01*
X3122535Y1861758D01*
X3126263Y1852758D01*
X3132194Y1845029D01*
X3139923Y1839098D01*
X3148924Y1835370D01*
X3158583Y1834098D01*
X3168242Y1835370D01*
X3177242Y1839098D01*
X3184971Y1845029D01*
X3190902Y1852758D01*
X3194630Y1861758D01*
X3195902Y1871417D01*
X3194630Y1881076D01*
X3190902Y1890077D01*
X3184971Y1897806D01*
X3177242Y1903737D01*
X3168242Y1907465D01*
X3158583Y1908737D01*
D02*
G37*
G36*
X3058583D02*
X3048924Y1907465D01*
X3039923Y1903737D01*
X3032194Y1897806D01*
X3026263Y1890077D01*
X3022535Y1881076D01*
X3021263Y1871417D01*
X3022535Y1861758D01*
X3026263Y1852758D01*
X3032194Y1845029D01*
X3039923Y1839098D01*
X3048924Y1835370D01*
X3058583Y1834098D01*
X3068242Y1835370D01*
X3077242Y1839098D01*
X3084971Y1845029D01*
X3090902Y1852758D01*
X3094630Y1861758D01*
X3095902Y1871417D01*
X3094630Y1881076D01*
X3090902Y1890077D01*
X3084971Y1897806D01*
X3077242Y1903737D01*
X3068242Y1907465D01*
X3058583Y1908737D01*
D02*
G37*
G36*
X2958583D02*
X2948924Y1907465D01*
X2939923Y1903737D01*
X2932194Y1897806D01*
X2926263Y1890077D01*
X2922535Y1881076D01*
X2921263Y1871417D01*
X2922535Y1861758D01*
X2926263Y1852758D01*
X2932194Y1845029D01*
X2939923Y1839098D01*
X2948924Y1835370D01*
X2958583Y1834098D01*
X2968242Y1835370D01*
X2977242Y1839098D01*
X2984971Y1845029D01*
X2990902Y1852758D01*
X2994630Y1861758D01*
X2995902Y1871417D01*
X2994630Y1881076D01*
X2990902Y1890077D01*
X2984971Y1897806D01*
X2977242Y1903737D01*
X2968242Y1907465D01*
X2958583Y1908737D01*
D02*
G37*
G36*
X2758583D02*
X2748924Y1907465D01*
X2739923Y1903737D01*
X2732194Y1897806D01*
X2726263Y1890077D01*
X2722535Y1881076D01*
X2721263Y1871417D01*
X2722535Y1861758D01*
X2726263Y1852758D01*
X2732194Y1845029D01*
X2739923Y1839098D01*
X2748924Y1835370D01*
X2758583Y1834098D01*
X2768242Y1835370D01*
X2777242Y1839098D01*
X2784971Y1845029D01*
X2790902Y1852758D01*
X2794630Y1861758D01*
X2795902Y1871417D01*
X2794630Y1881076D01*
X2790902Y1890077D01*
X2784971Y1897806D01*
X2777242Y1903737D01*
X2768242Y1907465D01*
X2758583Y1908737D01*
D02*
G37*
G36*
X2658583D02*
X2648924Y1907465D01*
X2639923Y1903737D01*
X2632194Y1897806D01*
X2626263Y1890077D01*
X2622535Y1881076D01*
X2621263Y1871417D01*
X2622535Y1861758D01*
X2626263Y1852758D01*
X2632194Y1845029D01*
X2639923Y1839098D01*
X2648924Y1835370D01*
X2658583Y1834098D01*
X2668242Y1835370D01*
X2677242Y1839098D01*
X2684971Y1845029D01*
X2690902Y1852758D01*
X2694630Y1861758D01*
X2695902Y1871417D01*
X2694630Y1881076D01*
X2690902Y1890077D01*
X2684971Y1897806D01*
X2677242Y1903737D01*
X2668242Y1907465D01*
X2658583Y1908737D01*
D02*
G37*
G36*
X2558583D02*
X2548924Y1907465D01*
X2539923Y1903737D01*
X2532194Y1897806D01*
X2526263Y1890077D01*
X2522535Y1881076D01*
X2521263Y1871417D01*
X2522535Y1861758D01*
X2526263Y1852758D01*
X2532194Y1845029D01*
X2539923Y1839098D01*
X2548924Y1835370D01*
X2558583Y1834098D01*
X2568242Y1835370D01*
X2577242Y1839098D01*
X2584971Y1845029D01*
X2590902Y1852758D01*
X2594630Y1861758D01*
X2595902Y1871417D01*
X2594630Y1881076D01*
X2590902Y1890077D01*
X2584971Y1897806D01*
X2577242Y1903737D01*
X2568242Y1907465D01*
X2558583Y1908737D01*
D02*
G37*
G36*
X2458583D02*
X2448924Y1907465D01*
X2439923Y1903737D01*
X2432194Y1897806D01*
X2426263Y1890077D01*
X2422535Y1881076D01*
X2421263Y1871417D01*
X2422535Y1861758D01*
X2425196Y1855335D01*
X2022096Y1452235D01*
X1399569D01*
X1397952Y1456138D01*
X1392823Y1462823D01*
X1386138Y1467952D01*
X1378354Y1471176D01*
X1370000Y1472276D01*
X1361646Y1471176D01*
X1353862Y1467952D01*
X1347177Y1462823D01*
X1342048Y1456138D01*
X1338824Y1448354D01*
X1337724Y1440000D01*
X1338824Y1431646D01*
X1342048Y1423862D01*
X1347177Y1417177D01*
X1353862Y1412048D01*
X1361646Y1408824D01*
X1370000Y1407724D01*
X1378354Y1408824D01*
X1386138Y1412048D01*
X1392823Y1417177D01*
X1397952Y1423862D01*
X1399569Y1427765D01*
X2027164D01*
X2031846Y1428696D01*
X2035815Y1431349D01*
X2442498Y1838031D01*
X2448924Y1835370D01*
X2458583Y1834098D01*
X2468242Y1835370D01*
X2477242Y1839098D01*
X2484971Y1845029D01*
X2490902Y1852758D01*
X2494630Y1861758D01*
X2495902Y1871417D01*
X2494630Y1881076D01*
X2490902Y1890077D01*
X2484971Y1897806D01*
X2477242Y1903737D01*
X2468242Y1907465D01*
X2458583Y1908737D01*
D02*
G37*
G36*
X2358583D02*
X2348924Y1907465D01*
X2339923Y1903737D01*
X2332194Y1897806D01*
X2326263Y1890077D01*
X2322535Y1881076D01*
X2321263Y1871417D01*
X2322535Y1861758D01*
X2326263Y1852758D01*
X2332194Y1845029D01*
X2339923Y1839098D01*
X2348924Y1835370D01*
X2358583Y1834098D01*
X2368242Y1835370D01*
X2377242Y1839098D01*
X2384971Y1845029D01*
X2390902Y1852758D01*
X2394630Y1861758D01*
X2395902Y1871417D01*
X2394630Y1881076D01*
X2390902Y1890077D01*
X2384971Y1897806D01*
X2377242Y1903737D01*
X2368242Y1907465D01*
X2358583Y1908737D01*
D02*
G37*
G36*
X2058583D02*
X2048924Y1907465D01*
X2039923Y1903737D01*
X2032194Y1897806D01*
X2026263Y1890077D01*
X2022535Y1881076D01*
X2021263Y1871417D01*
X2022535Y1861758D01*
X2026263Y1852758D01*
X2032194Y1845029D01*
X2039923Y1839098D01*
X2048924Y1835370D01*
X2058583Y1834098D01*
X2068242Y1835370D01*
X2077242Y1839098D01*
X2084971Y1845029D01*
X2090902Y1852758D01*
X2094630Y1861758D01*
X2095902Y1871417D01*
X2094630Y1881076D01*
X2090902Y1890077D01*
X2084971Y1897806D01*
X2077242Y1903737D01*
X2068242Y1907465D01*
X2058583Y1908737D01*
D02*
G37*
G36*
X1958583D02*
X1948924Y1907465D01*
X1939923Y1903737D01*
X1932194Y1897806D01*
X1926263Y1890077D01*
X1922535Y1881076D01*
X1921263Y1871417D01*
X1922535Y1861758D01*
X1926263Y1852758D01*
X1932194Y1845029D01*
X1939923Y1839098D01*
X1948924Y1835370D01*
X1958583Y1834098D01*
X1968242Y1835370D01*
X1977242Y1839098D01*
X1984971Y1845029D01*
X1990902Y1852758D01*
X1994630Y1861758D01*
X1995902Y1871417D01*
X1994630Y1881076D01*
X1990902Y1890077D01*
X1984971Y1897806D01*
X1977242Y1903737D01*
X1968242Y1907465D01*
X1958583Y1908737D01*
D02*
G37*
G36*
X1858583D02*
X1848924Y1907465D01*
X1839923Y1903737D01*
X1832194Y1897806D01*
X1826263Y1890077D01*
X1822535Y1881076D01*
X1821263Y1871417D01*
X1822535Y1861758D01*
X1826263Y1852758D01*
X1832194Y1845029D01*
X1839923Y1839098D01*
X1848924Y1835370D01*
X1858583Y1834098D01*
X1868242Y1835370D01*
X1877242Y1839098D01*
X1884971Y1845029D01*
X1890902Y1852758D01*
X1894630Y1861758D01*
X1895902Y1871417D01*
X1894630Y1881076D01*
X1890902Y1890077D01*
X1884971Y1897806D01*
X1877242Y1903737D01*
X1868242Y1907465D01*
X1858583Y1908737D01*
D02*
G37*
G36*
X1758583D02*
X1748924Y1907465D01*
X1739923Y1903737D01*
X1732194Y1897806D01*
X1726263Y1890077D01*
X1722535Y1881076D01*
X1721263Y1871417D01*
X1722535Y1861758D01*
X1726263Y1852758D01*
X1732194Y1845029D01*
X1739923Y1839098D01*
X1748924Y1835370D01*
X1758583Y1834098D01*
X1768242Y1835370D01*
X1777242Y1839098D01*
X1784971Y1845029D01*
X1790902Y1852758D01*
X1794630Y1861758D01*
X1795902Y1871417D01*
X1794630Y1881076D01*
X1790902Y1890077D01*
X1784971Y1897806D01*
X1777242Y1903737D01*
X1768242Y1907465D01*
X1758583Y1908737D01*
D02*
G37*
G36*
X1458583D02*
X1448924Y1907465D01*
X1439923Y1903737D01*
X1432194Y1897806D01*
X1426263Y1890077D01*
X1422535Y1881076D01*
X1421263Y1871417D01*
X1422535Y1861758D01*
X1426263Y1852758D01*
X1432194Y1845029D01*
X1439923Y1839098D01*
X1448924Y1835370D01*
X1458583Y1834098D01*
X1468242Y1835370D01*
X1477242Y1839098D01*
X1484971Y1845029D01*
X1490902Y1852758D01*
X1494630Y1861758D01*
X1495902Y1871417D01*
X1494630Y1881076D01*
X1490902Y1890077D01*
X1484971Y1897806D01*
X1477242Y1903737D01*
X1468242Y1907465D01*
X1458583Y1908737D01*
D02*
G37*
G36*
X1800000Y1652276D02*
X1791646Y1651176D01*
X1783862Y1647952D01*
X1777177Y1642823D01*
X1772048Y1636138D01*
X1768824Y1628354D01*
X1767724Y1620000D01*
X1768824Y1611646D01*
X1770440Y1607743D01*
X1734932Y1572235D01*
X979569D01*
X977952Y1576138D01*
X972823Y1582823D01*
X966138Y1587952D01*
X958354Y1591176D01*
X950000Y1592276D01*
X941646Y1591176D01*
X933862Y1587952D01*
X927177Y1582823D01*
X922048Y1576138D01*
X918824Y1568354D01*
X917724Y1560000D01*
X918824Y1551646D01*
X922048Y1543862D01*
X927177Y1537177D01*
X933862Y1532048D01*
X941646Y1528824D01*
X950000Y1527724D01*
X958354Y1528824D01*
X966138Y1532048D01*
X972823Y1537177D01*
X977952Y1543862D01*
X979569Y1547765D01*
X1740000D01*
X1744682Y1548696D01*
X1748651Y1551349D01*
X1787743Y1590440D01*
X1791646Y1588824D01*
X1800000Y1587724D01*
X1808354Y1588824D01*
X1816138Y1592048D01*
X1822823Y1597177D01*
X1827952Y1603862D01*
X1831176Y1611646D01*
X1832276Y1620000D01*
X1831176Y1628354D01*
X1827952Y1636138D01*
X1822823Y1642823D01*
X1816138Y1647952D01*
X1808354Y1651176D01*
X1800000Y1652276D01*
D02*
G37*
G36*
X3960000Y1497319D02*
X3950341Y1496048D01*
X3941340Y1492320D01*
X3933611Y1486389D01*
X3927680Y1478660D01*
X3923952Y1469659D01*
X3922681Y1460000D01*
X3923952Y1450341D01*
X3927680Y1441340D01*
X3933611Y1433611D01*
X3941340Y1427680D01*
X3950341Y1423952D01*
X3960000Y1422681D01*
X3969659Y1423952D01*
X3978660Y1427680D01*
X3986389Y1433611D01*
X3992320Y1441340D01*
X3996048Y1450341D01*
X3997319Y1460000D01*
X3996048Y1469659D01*
X3992320Y1478660D01*
X3986389Y1486389D01*
X3978660Y1492320D01*
X3969659Y1496048D01*
X3960000Y1497319D01*
D02*
G37*
G36*
X4275000Y1371670D02*
Y1355000D01*
X4291671D01*
X4290572Y1357651D01*
X4284962Y1364962D01*
X4277651Y1370572D01*
X4275000Y1371670D01*
D02*
G37*
G36*
X4245000D02*
X4242349Y1370572D01*
X4235038Y1364962D01*
X4229428Y1357651D01*
X4228329Y1355000D01*
X4245000D01*
Y1371670D01*
D02*
G37*
G36*
X3960000Y1397319D02*
X3950341Y1396048D01*
X3941340Y1392320D01*
X3933611Y1386389D01*
X3927680Y1378660D01*
X3923952Y1369659D01*
X3922681Y1360000D01*
X3923952Y1350341D01*
X3927680Y1341340D01*
X3933611Y1333611D01*
X3941340Y1327680D01*
X3950341Y1323952D01*
X3960000Y1322681D01*
X3969659Y1323952D01*
X3978660Y1327680D01*
X3986389Y1333611D01*
X3992320Y1341340D01*
X3996048Y1350341D01*
X3997319Y1360000D01*
X3996048Y1369659D01*
X3992320Y1378660D01*
X3986389Y1386389D01*
X3978660Y1392320D01*
X3969659Y1396048D01*
X3960000Y1397319D01*
D02*
G37*
G36*
X4291671Y1325000D02*
X4228329D01*
X4229428Y1322349D01*
X4235038Y1315038D01*
X4238345Y1312500D01*
Y1307500D01*
X4235038Y1304962D01*
X4229428Y1297651D01*
X4228329Y1295000D01*
X4291671D01*
X4290572Y1297651D01*
X4284962Y1304962D01*
X4281655Y1307500D01*
Y1312500D01*
X4284962Y1315038D01*
X4290572Y1322349D01*
X4291671Y1325000D01*
D02*
G37*
G36*
X1473583Y1308500D02*
Y1286417D01*
X1495665D01*
X1493523Y1291590D01*
X1487111Y1299946D01*
X1478755Y1306357D01*
X1473583Y1308500D01*
D02*
G37*
G36*
X1443583D02*
X1438410Y1306357D01*
X1430054Y1299946D01*
X1423643Y1291590D01*
X1421500Y1286417D01*
X1443583D01*
Y1308500D01*
D02*
G37*
G36*
X4291671Y1265000D02*
X4228329D01*
X4229428Y1262349D01*
X4235038Y1255038D01*
X4238345Y1252500D01*
Y1247500D01*
X4235038Y1244962D01*
X4229428Y1237651D01*
X4228329Y1235000D01*
X4291671D01*
X4290572Y1237651D01*
X4284962Y1244962D01*
X4281655Y1247500D01*
Y1252500D01*
X4284962Y1255038D01*
X4290572Y1262349D01*
X4291671Y1265000D01*
D02*
G37*
G36*
X1495665Y1256417D02*
X1473583D01*
Y1234335D01*
X1478755Y1236477D01*
X1487111Y1242889D01*
X1493523Y1251245D01*
X1495665Y1256417D01*
D02*
G37*
G36*
X1443583D02*
X1421500D01*
X1423643Y1251245D01*
X1430054Y1242889D01*
X1438410Y1236477D01*
X1443583Y1234335D01*
Y1256417D01*
D02*
G37*
G36*
X3758583Y1308737D02*
X3748924Y1307465D01*
X3739923Y1303737D01*
X3732194Y1297806D01*
X3726263Y1290077D01*
X3722535Y1281076D01*
X3721263Y1271417D01*
X3722535Y1261758D01*
X3726263Y1252758D01*
X3732194Y1245029D01*
X3739923Y1239098D01*
X3748924Y1235370D01*
X3758583Y1234098D01*
X3768242Y1235370D01*
X3777242Y1239098D01*
X3784971Y1245029D01*
X3790902Y1252758D01*
X3794630Y1261758D01*
X3795902Y1271417D01*
X3794630Y1281076D01*
X3790902Y1290077D01*
X3784971Y1297806D01*
X3777242Y1303737D01*
X3768242Y1307465D01*
X3758583Y1308737D01*
D02*
G37*
G36*
X3658583D02*
X3648924Y1307465D01*
X3639923Y1303737D01*
X3632194Y1297806D01*
X3626263Y1290077D01*
X3622535Y1281076D01*
X3621263Y1271417D01*
X3622535Y1261758D01*
X3626263Y1252758D01*
X3632194Y1245029D01*
X3639923Y1239098D01*
X3648924Y1235370D01*
X3658583Y1234098D01*
X3668242Y1235370D01*
X3677242Y1239098D01*
X3684971Y1245029D01*
X3690902Y1252758D01*
X3694630Y1261758D01*
X3695902Y1271417D01*
X3694630Y1281076D01*
X3690902Y1290077D01*
X3684971Y1297806D01*
X3677242Y1303737D01*
X3668242Y1307465D01*
X3658583Y1308737D01*
D02*
G37*
G36*
X3558583D02*
X3548924Y1307465D01*
X3539923Y1303737D01*
X3532194Y1297806D01*
X3526263Y1290077D01*
X3522535Y1281076D01*
X3521263Y1271417D01*
X3522535Y1261758D01*
X3526263Y1252758D01*
X3532194Y1245029D01*
X3539923Y1239098D01*
X3548924Y1235370D01*
X3558583Y1234098D01*
X3568242Y1235370D01*
X3577242Y1239098D01*
X3584971Y1245029D01*
X3590902Y1252758D01*
X3594630Y1261758D01*
X3595902Y1271417D01*
X3594630Y1281076D01*
X3590902Y1290077D01*
X3584971Y1297806D01*
X3577242Y1303737D01*
X3568242Y1307465D01*
X3558583Y1308737D01*
D02*
G37*
G36*
X3458583D02*
X3448924Y1307465D01*
X3439923Y1303737D01*
X3432194Y1297806D01*
X3426263Y1290077D01*
X3422535Y1281076D01*
X3421263Y1271417D01*
X3422535Y1261758D01*
X3426263Y1252758D01*
X3432194Y1245029D01*
X3439923Y1239098D01*
X3448924Y1235370D01*
X3458583Y1234098D01*
X3468242Y1235370D01*
X3477242Y1239098D01*
X3484971Y1245029D01*
X3490902Y1252758D01*
X3494630Y1261758D01*
X3495902Y1271417D01*
X3494630Y1281076D01*
X3490902Y1290077D01*
X3484971Y1297806D01*
X3477242Y1303737D01*
X3468242Y1307465D01*
X3458583Y1308737D01*
D02*
G37*
G36*
X3358583D02*
X3348924Y1307465D01*
X3339923Y1303737D01*
X3332194Y1297806D01*
X3326263Y1290077D01*
X3322535Y1281076D01*
X3321263Y1271417D01*
X3322535Y1261758D01*
X3323097Y1260400D01*
X3204932Y1142235D01*
X3020000D01*
X3015318Y1141304D01*
X3011349Y1138651D01*
X2849930Y977234D01*
X2847278Y973264D01*
X2846347Y968582D01*
Y956398D01*
X2839923Y953737D01*
X2832194Y947806D01*
X2826263Y940077D01*
X2822535Y931076D01*
X2821263Y921417D01*
X2822535Y911758D01*
X2826263Y902758D01*
X2832194Y895029D01*
X2839923Y889098D01*
X2848924Y885370D01*
X2858583Y884098D01*
X2868242Y885370D01*
X2877242Y889098D01*
X2884971Y895029D01*
X2890902Y902758D01*
X2894630Y911758D01*
X2895902Y921417D01*
X2894630Y931076D01*
X2890902Y940077D01*
X2884971Y947806D01*
X2877242Y953737D01*
X2870817Y956398D01*
Y963514D01*
X3025068Y1117765D01*
X3210000D01*
X3214682Y1118696D01*
X3218651Y1121349D01*
X3337930Y1240627D01*
X3339923Y1239098D01*
X3348924Y1235370D01*
X3358583Y1234098D01*
X3368242Y1235370D01*
X3377242Y1239098D01*
X3384971Y1245029D01*
X3390902Y1252758D01*
X3394630Y1261758D01*
X3395902Y1271417D01*
X3394630Y1281076D01*
X3390902Y1290077D01*
X3384971Y1297806D01*
X3377242Y1303737D01*
X3368242Y1307465D01*
X3358583Y1308737D01*
D02*
G37*
G36*
X3258583D02*
X3248924Y1307465D01*
X3239923Y1303737D01*
X3232194Y1297806D01*
X3226263Y1290077D01*
X3222535Y1281076D01*
X3221263Y1271417D01*
X3222535Y1261758D01*
X3226263Y1252758D01*
X3232194Y1245029D01*
X3239923Y1239098D01*
X3248924Y1235370D01*
X3258583Y1234098D01*
X3268242Y1235370D01*
X3277242Y1239098D01*
X3284971Y1245029D01*
X3290902Y1252758D01*
X3294630Y1261758D01*
X3295902Y1271417D01*
X3294630Y1281076D01*
X3290902Y1290077D01*
X3284971Y1297806D01*
X3277242Y1303737D01*
X3268242Y1307465D01*
X3258583Y1308737D01*
D02*
G37*
G36*
X3158583D02*
X3148924Y1307465D01*
X3139923Y1303737D01*
X3132194Y1297806D01*
X3126263Y1290077D01*
X3122535Y1281076D01*
X3121263Y1271417D01*
X3122535Y1261758D01*
X3126263Y1252758D01*
X3132194Y1245029D01*
X3139923Y1239098D01*
X3148924Y1235370D01*
X3158583Y1234098D01*
X3168242Y1235370D01*
X3177242Y1239098D01*
X3184971Y1245029D01*
X3190902Y1252758D01*
X3194630Y1261758D01*
X3195902Y1271417D01*
X3194630Y1281076D01*
X3190902Y1290077D01*
X3184971Y1297806D01*
X3177242Y1303737D01*
X3168242Y1307465D01*
X3158583Y1308737D01*
D02*
G37*
G36*
X3058583D02*
X3048924Y1307465D01*
X3039923Y1303737D01*
X3032194Y1297806D01*
X3026263Y1290077D01*
X3022535Y1281076D01*
X3021263Y1271417D01*
X3022535Y1261758D01*
X3026263Y1252758D01*
X3032194Y1245029D01*
X3039923Y1239098D01*
X3048924Y1235370D01*
X3058583Y1234098D01*
X3068242Y1235370D01*
X3077242Y1239098D01*
X3084971Y1245029D01*
X3090902Y1252758D01*
X3094630Y1261758D01*
X3095902Y1271417D01*
X3094630Y1281076D01*
X3090902Y1290077D01*
X3084971Y1297806D01*
X3077242Y1303737D01*
X3068242Y1307465D01*
X3058583Y1308737D01*
D02*
G37*
G36*
X2958583D02*
X2948924Y1307465D01*
X2939923Y1303737D01*
X2932194Y1297806D01*
X2926263Y1290077D01*
X2922535Y1281076D01*
X2921263Y1271417D01*
X2922535Y1261758D01*
X2926263Y1252758D01*
X2932194Y1245029D01*
X2939923Y1239098D01*
X2948924Y1235370D01*
X2958583Y1234098D01*
X2968242Y1235370D01*
X2977242Y1239098D01*
X2984971Y1245029D01*
X2990902Y1252758D01*
X2994630Y1261758D01*
X2995902Y1271417D01*
X2994630Y1281076D01*
X2990902Y1290077D01*
X2984971Y1297806D01*
X2977242Y1303737D01*
X2968242Y1307465D01*
X2958583Y1308737D01*
D02*
G37*
G36*
X2858583D02*
X2848924Y1307465D01*
X2839923Y1303737D01*
X2832194Y1297806D01*
X2826263Y1290077D01*
X2822535Y1281076D01*
X2821263Y1271417D01*
X2822535Y1261758D01*
X2826263Y1252758D01*
X2832194Y1245029D01*
X2839923Y1239098D01*
X2848924Y1235370D01*
X2858583Y1234098D01*
X2868242Y1235370D01*
X2877242Y1239098D01*
X2884971Y1245029D01*
X2890902Y1252758D01*
X2894630Y1261758D01*
X2895902Y1271417D01*
X2894630Y1281076D01*
X2890902Y1290077D01*
X2884971Y1297806D01*
X2877242Y1303737D01*
X2868242Y1307465D01*
X2858583Y1308737D01*
D02*
G37*
G36*
X2758583D02*
X2748924Y1307465D01*
X2739923Y1303737D01*
X2732194Y1297806D01*
X2726263Y1290077D01*
X2722535Y1281076D01*
X2721263Y1271417D01*
X2722535Y1261758D01*
X2726263Y1252758D01*
X2732194Y1245029D01*
X2739923Y1239098D01*
X2748924Y1235370D01*
X2758583Y1234098D01*
X2768242Y1235370D01*
X2777242Y1239098D01*
X2784971Y1245029D01*
X2790902Y1252758D01*
X2794630Y1261758D01*
X2795902Y1271417D01*
X2794630Y1281076D01*
X2790902Y1290077D01*
X2784971Y1297806D01*
X2777242Y1303737D01*
X2768242Y1307465D01*
X2758583Y1308737D01*
D02*
G37*
G36*
X2658583D02*
X2648924Y1307465D01*
X2639923Y1303737D01*
X2632194Y1297806D01*
X2626263Y1290077D01*
X2622535Y1281076D01*
X2621263Y1271417D01*
X2622535Y1261758D01*
X2626263Y1252758D01*
X2632194Y1245029D01*
X2639923Y1239098D01*
X2648924Y1235370D01*
X2658583Y1234098D01*
X2668242Y1235370D01*
X2677242Y1239098D01*
X2684971Y1245029D01*
X2690902Y1252758D01*
X2694630Y1261758D01*
X2695902Y1271417D01*
X2694630Y1281076D01*
X2690902Y1290077D01*
X2684971Y1297806D01*
X2677242Y1303737D01*
X2668242Y1307465D01*
X2658583Y1308737D01*
D02*
G37*
G36*
X2558583D02*
X2548924Y1307465D01*
X2539923Y1303737D01*
X2532194Y1297806D01*
X2526263Y1290077D01*
X2522535Y1281076D01*
X2521263Y1271417D01*
X2522535Y1261758D01*
X2526263Y1252758D01*
X2532194Y1245029D01*
X2539923Y1239098D01*
X2548924Y1235370D01*
X2558583Y1234098D01*
X2568242Y1235370D01*
X2577242Y1239098D01*
X2584971Y1245029D01*
X2590902Y1252758D01*
X2594630Y1261758D01*
X2595902Y1271417D01*
X2594630Y1281076D01*
X2590902Y1290077D01*
X2584971Y1297806D01*
X2577242Y1303737D01*
X2568242Y1307465D01*
X2558583Y1308737D01*
D02*
G37*
G36*
X2458583D02*
X2448924Y1307465D01*
X2439923Y1303737D01*
X2432194Y1297806D01*
X2426263Y1290077D01*
X2422535Y1281076D01*
X2421263Y1271417D01*
X2422535Y1261758D01*
X2426263Y1252758D01*
X2432194Y1245029D01*
X2439923Y1239098D01*
X2448924Y1235370D01*
X2458583Y1234098D01*
X2468242Y1235370D01*
X2477242Y1239098D01*
X2484971Y1245029D01*
X2490902Y1252758D01*
X2494630Y1261758D01*
X2495902Y1271417D01*
X2494630Y1281076D01*
X2490902Y1290077D01*
X2484971Y1297806D01*
X2477242Y1303737D01*
X2468242Y1307465D01*
X2458583Y1308737D01*
D02*
G37*
G36*
X2358583D02*
X2348924Y1307465D01*
X2339923Y1303737D01*
X2332194Y1297806D01*
X2326263Y1290077D01*
X2322535Y1281076D01*
X2321263Y1271417D01*
X2322535Y1261758D01*
X2326263Y1252758D01*
X2332194Y1245029D01*
X2339923Y1239098D01*
X2348924Y1235370D01*
X2358583Y1234098D01*
X2368242Y1235370D01*
X2377242Y1239098D01*
X2384971Y1245029D01*
X2390902Y1252758D01*
X2394630Y1261758D01*
X2395902Y1271417D01*
X2394630Y1281076D01*
X2390902Y1290077D01*
X2384971Y1297806D01*
X2377242Y1303737D01*
X2368242Y1307465D01*
X2358583Y1308737D01*
D02*
G37*
G36*
X2258583D02*
X2248924Y1307465D01*
X2239923Y1303737D01*
X2232194Y1297806D01*
X2226263Y1290077D01*
X2222535Y1281076D01*
X2221263Y1271417D01*
X2222535Y1261758D01*
X2226263Y1252758D01*
X2232194Y1245029D01*
X2239923Y1239098D01*
X2248924Y1235370D01*
X2258583Y1234098D01*
X2268242Y1235370D01*
X2277242Y1239098D01*
X2284971Y1245029D01*
X2290902Y1252758D01*
X2294630Y1261758D01*
X2295902Y1271417D01*
X2294630Y1281076D01*
X2290902Y1290077D01*
X2284971Y1297806D01*
X2277242Y1303737D01*
X2268242Y1307465D01*
X2258583Y1308737D01*
D02*
G37*
G36*
X2158583D02*
X2148924Y1307465D01*
X2139923Y1303737D01*
X2132194Y1297806D01*
X2126263Y1290077D01*
X2122535Y1281076D01*
X2121263Y1271417D01*
X2122535Y1261758D01*
X2126263Y1252758D01*
X2132194Y1245029D01*
X2139923Y1239098D01*
X2148924Y1235370D01*
X2158583Y1234098D01*
X2168242Y1235370D01*
X2177242Y1239098D01*
X2184971Y1245029D01*
X2190902Y1252758D01*
X2194630Y1261758D01*
X2195902Y1271417D01*
X2194630Y1281076D01*
X2190902Y1290077D01*
X2184971Y1297806D01*
X2177242Y1303737D01*
X2168242Y1307465D01*
X2158583Y1308737D01*
D02*
G37*
G36*
X2058583D02*
X2048924Y1307465D01*
X2039923Y1303737D01*
X2032194Y1297806D01*
X2026263Y1290077D01*
X2022535Y1281076D01*
X2021263Y1271417D01*
X2022535Y1261758D01*
X2026263Y1252758D01*
X2032194Y1245029D01*
X2039923Y1239098D01*
X2048924Y1235370D01*
X2058583Y1234098D01*
X2068242Y1235370D01*
X2077242Y1239098D01*
X2084971Y1245029D01*
X2090902Y1252758D01*
X2094630Y1261758D01*
X2095902Y1271417D01*
X2094630Y1281076D01*
X2090902Y1290077D01*
X2084971Y1297806D01*
X2077242Y1303737D01*
X2068242Y1307465D01*
X2058583Y1308737D01*
D02*
G37*
G36*
X1958583D02*
X1948924Y1307465D01*
X1939923Y1303737D01*
X1932194Y1297806D01*
X1926263Y1290077D01*
X1922535Y1281076D01*
X1921263Y1271417D01*
X1922535Y1261758D01*
X1926263Y1252758D01*
X1932194Y1245029D01*
X1939923Y1239098D01*
X1948924Y1235370D01*
X1958583Y1234098D01*
X1968242Y1235370D01*
X1977242Y1239098D01*
X1984971Y1245029D01*
X1990902Y1252758D01*
X1994630Y1261758D01*
X1995902Y1271417D01*
X1994630Y1281076D01*
X1990902Y1290077D01*
X1984971Y1297806D01*
X1977242Y1303737D01*
X1968242Y1307465D01*
X1958583Y1308737D01*
D02*
G37*
G36*
X1858583D02*
X1848924Y1307465D01*
X1839923Y1303737D01*
X1832194Y1297806D01*
X1826263Y1290077D01*
X1822535Y1281076D01*
X1821263Y1271417D01*
X1822535Y1261758D01*
X1826263Y1252758D01*
X1832194Y1245029D01*
X1839923Y1239098D01*
X1848924Y1235370D01*
X1858583Y1234098D01*
X1868242Y1235370D01*
X1877242Y1239098D01*
X1884971Y1245029D01*
X1890902Y1252758D01*
X1894630Y1261758D01*
X1895902Y1271417D01*
X1894630Y1281076D01*
X1890902Y1290077D01*
X1884971Y1297806D01*
X1877242Y1303737D01*
X1868242Y1307465D01*
X1858583Y1308737D01*
D02*
G37*
G36*
X1758583D02*
X1748924Y1307465D01*
X1739923Y1303737D01*
X1732194Y1297806D01*
X1726263Y1290077D01*
X1722535Y1281076D01*
X1721263Y1271417D01*
X1722535Y1261758D01*
X1726263Y1252758D01*
X1732194Y1245029D01*
X1739923Y1239098D01*
X1748924Y1235370D01*
X1758583Y1234098D01*
X1768242Y1235370D01*
X1777242Y1239098D01*
X1784971Y1245029D01*
X1790902Y1252758D01*
X1794630Y1261758D01*
X1795902Y1271417D01*
X1794630Y1281076D01*
X1790902Y1290077D01*
X1784971Y1297806D01*
X1777242Y1303737D01*
X1768242Y1307465D01*
X1758583Y1308737D01*
D02*
G37*
G36*
X1658583D02*
X1648924Y1307465D01*
X1639923Y1303737D01*
X1632194Y1297806D01*
X1626263Y1290077D01*
X1622535Y1281076D01*
X1621263Y1271417D01*
X1622535Y1261758D01*
X1626263Y1252758D01*
X1632194Y1245029D01*
X1639923Y1239098D01*
X1648924Y1235370D01*
X1658583Y1234098D01*
X1668242Y1235370D01*
X1677242Y1239098D01*
X1684971Y1245029D01*
X1690902Y1252758D01*
X1694630Y1261758D01*
X1695902Y1271417D01*
X1694630Y1281076D01*
X1690902Y1290077D01*
X1684971Y1297806D01*
X1677242Y1303737D01*
X1668242Y1307465D01*
X1658583Y1308737D01*
D02*
G37*
G36*
X1558583D02*
X1548924Y1307465D01*
X1539923Y1303737D01*
X1532194Y1297806D01*
X1526263Y1290077D01*
X1522535Y1281076D01*
X1521263Y1271417D01*
X1522535Y1261758D01*
X1526263Y1252758D01*
X1532194Y1245029D01*
X1539923Y1239098D01*
X1548924Y1235370D01*
X1558583Y1234098D01*
X1568242Y1235370D01*
X1577242Y1239098D01*
X1584971Y1245029D01*
X1590902Y1252758D01*
X1594630Y1261758D01*
X1595902Y1271417D01*
X1594630Y1281076D01*
X1590902Y1290077D01*
X1584971Y1297806D01*
X1577242Y1303737D01*
X1568242Y1307465D01*
X1558583Y1308737D01*
D02*
G37*
G36*
X3997000Y1297000D02*
X3923000D01*
Y1223000D01*
X3997000D01*
Y1297000D01*
D02*
G37*
G36*
X4291671Y1205000D02*
X4228329D01*
X4229428Y1202349D01*
X4235038Y1195038D01*
X4238345Y1192500D01*
Y1187500D01*
X4235038Y1184962D01*
X4229428Y1177651D01*
X4228329Y1175000D01*
X4291671D01*
X4290572Y1177651D01*
X4284962Y1184962D01*
X4281655Y1187500D01*
Y1192500D01*
X4284962Y1195038D01*
X4290572Y1202349D01*
X4291671Y1205000D01*
D02*
G37*
G36*
Y1145000D02*
X4275000D01*
Y1128330D01*
X4277651Y1129428D01*
X4284962Y1135038D01*
X4290572Y1142349D01*
X4291671Y1145000D01*
D02*
G37*
G36*
X4245000D02*
X4228329D01*
X4229428Y1142349D01*
X4235038Y1135038D01*
X4242349Y1129428D01*
X4245000Y1128330D01*
Y1145000D01*
D02*
G37*
G36*
X3258583Y958737D02*
X3248924Y957465D01*
X3239923Y953737D01*
X3232194Y947806D01*
X3226263Y940077D01*
X3222535Y931076D01*
X3221263Y921417D01*
X3222535Y911758D01*
X3226263Y902758D01*
X3232194Y895029D01*
X3239923Y889098D01*
X3248924Y885370D01*
X3258583Y884098D01*
X3268242Y885370D01*
X3277242Y889098D01*
X3284971Y895029D01*
X3290902Y902758D01*
X3294630Y911758D01*
X3295902Y921417D01*
X3294630Y931076D01*
X3290902Y940077D01*
X3284971Y947806D01*
X3277242Y953737D01*
X3268242Y957465D01*
X3258583Y958737D01*
D02*
G37*
G36*
X3158583D02*
X3148924Y957465D01*
X3139923Y953737D01*
X3132194Y947806D01*
X3126263Y940077D01*
X3122535Y931076D01*
X3121263Y921417D01*
X3122535Y911758D01*
X3126263Y902758D01*
X3132194Y895029D01*
X3139923Y889098D01*
X3148924Y885370D01*
X3158583Y884098D01*
X3168242Y885370D01*
X3177242Y889098D01*
X3184971Y895029D01*
X3190902Y902758D01*
X3194630Y911758D01*
X3195902Y921417D01*
X3194630Y931076D01*
X3190902Y940077D01*
X3184971Y947806D01*
X3177242Y953737D01*
X3168242Y957465D01*
X3158583Y958737D01*
D02*
G37*
G36*
X3058583D02*
X3048924Y957465D01*
X3039923Y953737D01*
X3032194Y947806D01*
X3026263Y940077D01*
X3022535Y931076D01*
X3021263Y921417D01*
X3022535Y911758D01*
X3026263Y902758D01*
X3032194Y895029D01*
X3039923Y889098D01*
X3048924Y885370D01*
X3058583Y884098D01*
X3068242Y885370D01*
X3077242Y889098D01*
X3084971Y895029D01*
X3090902Y902758D01*
X3094630Y911758D01*
X3095902Y921417D01*
X3094630Y931076D01*
X3090902Y940077D01*
X3084971Y947806D01*
X3077242Y953737D01*
X3068242Y957465D01*
X3058583Y958737D01*
D02*
G37*
G36*
X2958583D02*
X2948924Y957465D01*
X2939923Y953737D01*
X2932194Y947806D01*
X2926263Y940077D01*
X2922535Y931076D01*
X2921263Y921417D01*
X2922535Y911758D01*
X2926263Y902758D01*
X2932194Y895029D01*
X2939923Y889098D01*
X2948924Y885370D01*
X2958583Y884098D01*
X2968242Y885370D01*
X2977242Y889098D01*
X2984971Y895029D01*
X2990902Y902758D01*
X2994630Y911758D01*
X2995902Y921417D01*
X2994630Y931076D01*
X2990902Y940077D01*
X2984971Y947806D01*
X2977242Y953737D01*
X2968242Y957465D01*
X2958583Y958737D01*
D02*
G37*
G36*
X2758583D02*
X2748924Y957465D01*
X2739923Y953737D01*
X2732194Y947806D01*
X2726263Y940077D01*
X2722535Y931076D01*
X2721263Y921417D01*
X2722535Y911758D01*
X2726263Y902758D01*
X2732194Y895029D01*
X2739923Y889098D01*
X2748924Y885370D01*
X2758583Y884098D01*
X2768242Y885370D01*
X2777242Y889098D01*
X2784971Y895029D01*
X2790902Y902758D01*
X2794630Y911758D01*
X2795902Y921417D01*
X2794630Y931076D01*
X2790902Y940077D01*
X2784971Y947806D01*
X2777242Y953737D01*
X2768242Y957465D01*
X2758583Y958737D01*
D02*
G37*
G36*
X2658583D02*
X2648924Y957465D01*
X2639923Y953737D01*
X2632194Y947806D01*
X2626263Y940077D01*
X2622535Y931076D01*
X2621263Y921417D01*
X2622535Y911758D01*
X2626263Y902758D01*
X2632194Y895029D01*
X2639923Y889098D01*
X2648924Y885370D01*
X2658583Y884098D01*
X2668242Y885370D01*
X2677242Y889098D01*
X2684971Y895029D01*
X2690902Y902758D01*
X2694630Y911758D01*
X2695902Y921417D01*
X2694630Y931076D01*
X2690902Y940077D01*
X2684971Y947806D01*
X2677242Y953737D01*
X2668242Y957465D01*
X2658583Y958737D01*
D02*
G37*
G36*
X2558583D02*
X2548924Y957465D01*
X2539923Y953737D01*
X2532194Y947806D01*
X2526263Y940077D01*
X2522535Y931076D01*
X2521263Y921417D01*
X2522535Y911758D01*
X2526263Y902758D01*
X2532194Y895029D01*
X2539923Y889098D01*
X2548924Y885370D01*
X2558583Y884098D01*
X2568242Y885370D01*
X2577242Y889098D01*
X2584971Y895029D01*
X2590902Y902758D01*
X2594630Y911758D01*
X2595902Y921417D01*
X2594630Y931076D01*
X2590902Y940077D01*
X2584971Y947806D01*
X2577242Y953737D01*
X2568242Y957465D01*
X2558583Y958737D01*
D02*
G37*
G36*
X2673583Y308500D02*
Y286417D01*
X2695665D01*
X2693523Y291590D01*
X2687111Y299946D01*
X2678755Y306357D01*
X2673583Y308500D01*
D02*
G37*
G36*
X2643583D02*
X2638410Y306357D01*
X2630054Y299946D01*
X2623643Y291590D01*
X2621500Y286417D01*
X2643583D01*
Y308500D01*
D02*
G37*
G36*
X2695665Y256417D02*
X2673583D01*
Y234335D01*
X2678755Y236477D01*
X2687111Y242889D01*
X2693523Y251245D01*
X2695665Y256417D01*
D02*
G37*
G36*
X2643583D02*
X2621500D01*
X2623643Y251245D01*
X2630054Y242889D01*
X2638410Y236477D01*
X2643583Y234335D01*
Y256417D01*
D02*
G37*
G36*
X3258583Y308737D02*
X3248924Y307465D01*
X3239923Y303737D01*
X3232194Y297806D01*
X3226263Y290077D01*
X3222535Y281076D01*
X3221263Y271417D01*
X3222535Y261758D01*
X3226263Y252758D01*
X3232194Y245029D01*
X3239923Y239098D01*
X3248924Y235370D01*
X3258583Y234098D01*
X3268242Y235370D01*
X3277242Y239098D01*
X3284971Y245029D01*
X3290902Y252758D01*
X3294630Y261758D01*
X3295902Y271417D01*
X3294630Y281076D01*
X3290902Y290077D01*
X3284971Y297806D01*
X3277242Y303737D01*
X3268242Y307465D01*
X3258583Y308737D01*
D02*
G37*
G36*
X3158583D02*
X3148924Y307465D01*
X3139923Y303737D01*
X3132194Y297806D01*
X3126263Y290077D01*
X3122535Y281076D01*
X3121263Y271417D01*
X3122535Y261758D01*
X3126263Y252758D01*
X3132194Y245029D01*
X3139923Y239098D01*
X3148924Y235370D01*
X3158583Y234098D01*
X3168242Y235370D01*
X3177242Y239098D01*
X3184971Y245029D01*
X3190902Y252758D01*
X3194630Y261758D01*
X3195902Y271417D01*
X3194630Y281076D01*
X3190902Y290077D01*
X3184971Y297806D01*
X3177242Y303737D01*
X3168242Y307465D01*
X3158583Y308737D01*
D02*
G37*
G36*
X3058583D02*
X3048924Y307465D01*
X3039923Y303737D01*
X3032194Y297806D01*
X3026263Y290077D01*
X3022535Y281076D01*
X3021263Y271417D01*
X3022535Y261758D01*
X3026263Y252758D01*
X3032194Y245029D01*
X3039923Y239098D01*
X3048924Y235370D01*
X3058583Y234098D01*
X3068242Y235370D01*
X3077242Y239098D01*
X3084971Y245029D01*
X3090902Y252758D01*
X3094630Y261758D01*
X3095902Y271417D01*
X3094630Y281076D01*
X3090902Y290077D01*
X3084971Y297806D01*
X3077242Y303737D01*
X3068242Y307465D01*
X3058583Y308737D01*
D02*
G37*
G36*
X2958583D02*
X2948924Y307465D01*
X2939923Y303737D01*
X2932194Y297806D01*
X2926263Y290077D01*
X2922535Y281076D01*
X2921263Y271417D01*
X2922535Y261758D01*
X2926263Y252758D01*
X2932194Y245029D01*
X2939923Y239098D01*
X2948924Y235370D01*
X2958583Y234098D01*
X2968242Y235370D01*
X2977242Y239098D01*
X2984971Y245029D01*
X2990902Y252758D01*
X2994630Y261758D01*
X2995902Y271417D01*
X2994630Y281076D01*
X2990902Y290077D01*
X2984971Y297806D01*
X2977242Y303737D01*
X2968242Y307465D01*
X2958583Y308737D01*
D02*
G37*
G36*
X2858583D02*
X2848924Y307465D01*
X2839923Y303737D01*
X2832194Y297806D01*
X2826263Y290077D01*
X2822535Y281076D01*
X2821263Y271417D01*
X2822535Y261758D01*
X2826263Y252758D01*
X2832194Y245029D01*
X2839923Y239098D01*
X2848924Y235370D01*
X2858583Y234098D01*
X2868242Y235370D01*
X2877242Y239098D01*
X2884971Y245029D01*
X2890902Y252758D01*
X2894630Y261758D01*
X2895902Y271417D01*
X2894630Y281076D01*
X2890902Y290077D01*
X2884971Y297806D01*
X2877242Y303737D01*
X2868242Y307465D01*
X2858583Y308737D01*
D02*
G37*
G36*
X2758583D02*
X2748924Y307465D01*
X2739923Y303737D01*
X2732194Y297806D01*
X2726263Y290077D01*
X2722535Y281076D01*
X2721263Y271417D01*
X2722535Y261758D01*
X2726263Y252758D01*
X2732194Y245029D01*
X2739923Y239098D01*
X2748924Y235370D01*
X2758583Y234098D01*
X2768242Y235370D01*
X2777242Y239098D01*
X2784971Y245029D01*
X2790902Y252758D01*
X2794630Y261758D01*
X2795902Y271417D01*
X2794630Y281076D01*
X2790902Y290077D01*
X2784971Y297806D01*
X2777242Y303737D01*
X2768242Y307465D01*
X2758583Y308737D01*
D02*
G37*
G36*
X2558583D02*
X2548924Y307465D01*
X2539923Y303737D01*
X2532194Y297806D01*
X2526263Y290077D01*
X2522535Y281076D01*
X2521263Y271417D01*
X2522535Y261758D01*
X2526263Y252758D01*
X2532194Y245029D01*
X2539923Y239098D01*
X2548924Y235370D01*
X2558583Y234098D01*
X2568242Y235370D01*
X2577242Y239098D01*
X2584971Y245029D01*
X2590902Y252758D01*
X2594630Y261758D01*
X2595902Y271417D01*
X2594630Y281076D01*
X2590902Y290077D01*
X2584971Y297806D01*
X2577242Y303737D01*
X2568242Y307465D01*
X2558583Y308737D01*
D02*
G37*
G36*
X567000Y1177000D02*
X493000D01*
Y1103000D01*
X567000D01*
Y1177000D01*
D02*
G37*
G36*
X430000Y1177319D02*
X420341Y1176048D01*
X411340Y1172320D01*
X403611Y1166389D01*
X397680Y1158660D01*
X393952Y1149659D01*
X392681Y1140000D01*
X393952Y1130341D01*
X397680Y1121340D01*
X403611Y1113611D01*
X411340Y1107680D01*
X420341Y1103952D01*
X430000Y1102681D01*
X439659Y1103952D01*
X448660Y1107680D01*
X456389Y1113611D01*
X462320Y1121340D01*
X466048Y1130341D01*
X467319Y1140000D01*
X466048Y1149659D01*
X462320Y1158660D01*
X456389Y1166389D01*
X448660Y1172320D01*
X439659Y1176048D01*
X430000Y1177319D01*
D02*
G37*
G36*
X330000D02*
X320341Y1176048D01*
X311340Y1172320D01*
X303611Y1166389D01*
X297680Y1158660D01*
X293952Y1149659D01*
X292681Y1140000D01*
X293952Y1130341D01*
X297680Y1121340D01*
X303611Y1113611D01*
X311340Y1107680D01*
X320341Y1103952D01*
X330000Y1102681D01*
X339659Y1103952D01*
X348660Y1107680D01*
X356389Y1113611D01*
X362320Y1121340D01*
X366048Y1130341D01*
X367319Y1140000D01*
X366048Y1149659D01*
X362320Y1158660D01*
X356389Y1166389D01*
X348660Y1172320D01*
X339659Y1176048D01*
X330000Y1177319D01*
D02*
G37*
G36*
X1000000Y1012276D02*
X991646Y1011176D01*
X983862Y1007952D01*
X977177Y1002823D01*
X972048Y996138D01*
X968824Y988354D01*
X967724Y980000D01*
X968824Y971646D01*
X972048Y963862D01*
X977177Y957177D01*
X983862Y952048D01*
X991646Y948824D01*
X1000000Y947724D01*
X1008354Y948824D01*
X1016138Y952048D01*
X1022823Y957177D01*
X1027952Y963862D01*
X1029569Y967765D01*
X1123572D01*
X1273159Y818177D01*
X1270824Y813442D01*
X1268583Y813737D01*
X1258924Y812465D01*
X1249923Y808737D01*
X1242194Y802806D01*
X1236263Y795077D01*
X1232535Y786076D01*
X1231263Y776417D01*
X1232535Y766758D01*
X1236263Y757758D01*
X1242194Y750029D01*
X1249923Y744098D01*
X1258924Y740370D01*
X1268583Y739098D01*
X1270822Y739393D01*
X1273158Y734657D01*
X1261349Y722848D01*
X1258696Y718879D01*
X1257765Y714196D01*
Y691575D01*
X1252765Y690580D01*
X1250902Y695077D01*
X1244971Y702806D01*
X1237242Y708737D01*
X1228242Y712465D01*
X1218583Y713737D01*
X1208924Y712465D01*
X1202499Y709804D01*
X1177124Y735179D01*
X1177857Y738586D01*
X1178781Y740593D01*
X1187242Y744098D01*
X1194971Y750029D01*
X1200902Y757758D01*
X1204630Y766758D01*
X1205902Y776417D01*
X1204630Y786076D01*
X1200902Y795077D01*
X1194971Y802806D01*
X1187242Y808737D01*
X1178242Y812465D01*
X1168583Y813737D01*
X1158924Y812465D01*
X1152499Y809804D01*
X1123651Y838652D01*
X1119682Y841304D01*
X1115000Y842235D01*
X582164D01*
X577482Y841304D01*
X573513Y838652D01*
X544665Y809804D01*
X538242Y812465D01*
X528583Y813737D01*
X518924Y812465D01*
X509923Y808737D01*
X502194Y802806D01*
X496263Y795077D01*
X492535Y786076D01*
X491263Y776417D01*
X492535Y766758D01*
X496263Y757758D01*
X502194Y750029D01*
X507112Y746255D01*
X505415Y741255D01*
X482490D01*
X468583Y755162D01*
Y761417D01*
X443583D01*
Y736417D01*
X449838D01*
X467627Y718628D01*
X469240Y717550D01*
X469050Y714495D01*
X468261Y712191D01*
X459923Y708737D01*
X452194Y702806D01*
X446263Y695077D01*
X442535Y686076D01*
X441263Y676417D01*
X442535Y666758D01*
X446263Y657758D01*
X452194Y650029D01*
X459923Y644098D01*
X468924Y640370D01*
X478583Y639098D01*
X488242Y640370D01*
X497242Y644098D01*
X504971Y650029D01*
X509203Y655543D01*
X518514D01*
X592709Y581348D01*
X596678Y578696D01*
X601360Y577765D01*
X1032164D01*
X1036846Y578696D01*
X1040815Y581348D01*
X1102498Y643031D01*
X1108924Y640370D01*
X1118583Y639098D01*
X1128242Y640370D01*
X1137242Y644098D01*
X1143668Y649029D01*
X1169930Y622766D01*
X1173900Y620114D01*
X1178582Y619183D01*
X1241418D01*
X1246100Y620114D01*
X1250070Y622766D01*
X1278652Y651348D01*
X1281304Y655318D01*
X1281485Y656228D01*
X1284224Y657105D01*
X1286759Y657112D01*
X1292194Y650029D01*
X1299923Y644098D01*
X1308924Y640370D01*
X1318583Y639098D01*
X1328242Y640370D01*
X1337242Y644098D01*
X1344971Y650029D01*
X1350902Y657758D01*
X1354630Y666758D01*
X1355902Y676417D01*
X1354630Y686076D01*
X1350902Y695077D01*
X1344971Y702806D01*
X1337242Y708737D01*
X1328242Y712465D01*
X1318583Y713737D01*
X1308924Y712465D01*
X1299923Y708737D01*
X1292194Y702806D01*
X1287235Y696344D01*
X1282235Y697892D01*
Y709129D01*
X1322234Y749127D01*
X1324886Y753096D01*
X1325817Y757778D01*
Y795058D01*
X1324886Y799740D01*
X1322234Y803709D01*
X1137291Y988652D01*
X1133322Y991304D01*
X1128640Y992235D01*
X1029569D01*
X1027952Y996138D01*
X1022823Y1002823D01*
X1016138Y1007952D01*
X1008354Y1011176D01*
X1000000Y1012276D01*
D02*
G37*
G36*
X468583Y816417D02*
X443583D01*
Y791417D01*
X468583D01*
Y816417D01*
D02*
G37*
G36*
X413583D02*
X388583D01*
Y791417D01*
X413583D01*
Y816417D01*
D02*
G37*
G36*
Y761417D02*
X388583D01*
Y736417D01*
X413583D01*
Y761417D01*
D02*
G37*
G36*
X1393583Y497737D02*
X1379669Y496367D01*
X1366290Y492308D01*
X1353959Y485717D01*
X1343152Y476848D01*
X1334283Y466041D01*
X1327692Y453710D01*
X1323633Y440331D01*
X1322263Y426417D01*
X1323633Y412503D01*
X1327692Y399124D01*
X1334283Y386794D01*
X1343152Y375987D01*
X1353959Y367117D01*
X1366290Y360526D01*
X1379669Y356468D01*
X1393583Y355098D01*
X1407496Y356468D01*
X1420876Y360526D01*
X1433206Y367117D01*
X1444013Y375987D01*
X1452883Y386794D01*
X1459474Y399124D01*
X1463532Y412503D01*
X1464902Y426417D01*
X1463532Y440331D01*
X1459474Y453710D01*
X1452883Y466041D01*
X1444013Y476848D01*
X1433206Y485717D01*
X1420876Y492308D01*
X1407496Y496367D01*
X1393583Y497737D01*
D02*
G37*
G36*
X993583D02*
X979669Y496367D01*
X966290Y492308D01*
X953960Y485717D01*
X943152Y476848D01*
X934283Y466041D01*
X927692Y453710D01*
X923633Y440331D01*
X922263Y426417D01*
X923633Y412503D01*
X927692Y399124D01*
X934283Y386794D01*
X943152Y375987D01*
X953960Y367117D01*
X966290Y360526D01*
X979669Y356468D01*
X993583Y355098D01*
X1007496Y356468D01*
X1020876Y360526D01*
X1033206Y367117D01*
X1044013Y375987D01*
X1052883Y386794D01*
X1059474Y399124D01*
X1063532Y412503D01*
X1064902Y426417D01*
X1063532Y440331D01*
X1059474Y453710D01*
X1052883Y466041D01*
X1044013Y476848D01*
X1033206Y485717D01*
X1020876Y492308D01*
X1007496Y496367D01*
X993583Y497737D01*
D02*
G37*
G36*
X753583D02*
X739669Y496367D01*
X726290Y492308D01*
X713960Y485717D01*
X703152Y476848D01*
X694283Y466041D01*
X687692Y453710D01*
X683633Y440331D01*
X682263Y426417D01*
X683633Y412503D01*
X687692Y399124D01*
X694283Y386794D01*
X703152Y375987D01*
X713960Y367117D01*
X726290Y360526D01*
X739669Y356468D01*
X753583Y355098D01*
X767496Y356468D01*
X780876Y360526D01*
X793206Y367117D01*
X804013Y375987D01*
X812883Y386794D01*
X819474Y399124D01*
X823532Y412503D01*
X824903Y426417D01*
X823532Y440331D01*
X819474Y453710D01*
X812883Y466041D01*
X804013Y476848D01*
X793206Y485717D01*
X780876Y492308D01*
X767496Y496367D01*
X753583Y497737D01*
D02*
G37*
G36*
X353583D02*
X339669Y496367D01*
X326290Y492308D01*
X313959Y485717D01*
X303152Y476848D01*
X294283Y466041D01*
X287692Y453710D01*
X283633Y440331D01*
X282263Y426417D01*
X283633Y412503D01*
X287692Y399124D01*
X294283Y386794D01*
X303152Y375987D01*
X313959Y367117D01*
X326290Y360526D01*
X339669Y356468D01*
X353583Y355098D01*
X367497Y356468D01*
X380876Y360526D01*
X393206Y367117D01*
X404013Y375987D01*
X412883Y386794D01*
X419474Y399124D01*
X423532Y412503D01*
X424902Y426417D01*
X423532Y440331D01*
X419474Y453710D01*
X412883Y466041D01*
X404013Y476848D01*
X393206Y485717D01*
X380876Y492308D01*
X367497Y496367D01*
X353583Y497737D01*
D02*
G37*
%LPD*%
G36*
X621202Y812765D02*
X618924Y812465D01*
X609923Y808737D01*
X602194Y802806D01*
X596263Y795077D01*
X592535Y786076D01*
X591263Y776417D01*
X592535Y766758D01*
X596263Y757758D01*
X602194Y750029D01*
X607112Y746255D01*
X605415Y741255D01*
X551751D01*
X550053Y746255D01*
X554971Y750029D01*
X560902Y757758D01*
X564630Y766758D01*
X565902Y776417D01*
X564630Y786076D01*
X561969Y792502D01*
X587232Y817765D01*
X620874D01*
X621202Y812765D01*
D02*
G37*
G36*
X1028583Y816417D02*
Y791417D01*
X1068583D01*
Y776417D01*
X1083583D01*
Y734000D01*
X1084495Y731798D01*
X994932Y642235D01*
X703028D01*
X701331Y647235D01*
X704971Y650029D01*
X710902Y657758D01*
X714630Y666758D01*
X715902Y676417D01*
X714630Y686076D01*
X710902Y695077D01*
X704971Y702806D01*
X697242Y708737D01*
X694808Y709745D01*
X695802Y714745D01*
X1020164D01*
X1025236Y715754D01*
X1029536Y718628D01*
X1047326Y736417D01*
X1053583D01*
Y761417D01*
X1028583D01*
Y755164D01*
X1014674Y741255D01*
X651751D01*
X650053Y746255D01*
X654971Y750029D01*
X660902Y757758D01*
X664630Y766758D01*
X665902Y776417D01*
X664630Y786076D01*
X660902Y795077D01*
X654971Y802806D01*
X647242Y808737D01*
X638242Y812465D01*
X635964Y812765D01*
X636291Y817765D01*
X1024141D01*
X1028583Y816417D01*
D02*
G37*
G36*
X662358Y709745D02*
X659923Y708737D01*
X652194Y702806D01*
X646263Y695077D01*
X642535Y686076D01*
X641263Y676417D01*
X642535Y666758D01*
X646263Y657758D01*
X652194Y650029D01*
X655834Y647235D01*
X654137Y642235D01*
X630068D01*
X611969Y660334D01*
X614630Y666758D01*
X615902Y676417D01*
X614630Y686076D01*
X610902Y695077D01*
X604971Y702806D01*
X597242Y708737D01*
X594808Y709745D01*
X595802Y714745D01*
X661363D01*
X662358Y709745D01*
D02*
G37*
G36*
X1084009Y689635D02*
X1082535Y686076D01*
X1081263Y676417D01*
X1082535Y666758D01*
X1085196Y660335D01*
X1027096Y602235D01*
X606428D01*
X574006Y634657D01*
X576341Y639393D01*
X578583Y639098D01*
X588242Y640370D01*
X594666Y643031D01*
X616348Y621348D01*
X620318Y618696D01*
X625000Y617765D01*
X1000000D01*
X1004682Y618696D01*
X1008652Y621348D01*
X1079770Y692467D01*
X1084009Y689635D01*
D02*
G37*
D17*
X1292835Y2170000D02*
D03*
X1220000D02*
D03*
X1292835Y2080000D02*
D03*
X1220000D02*
D03*
D22*
X1658583Y1871417D02*
Y2171417D01*
X850000Y2170000D02*
X990000D01*
X710000D02*
X850000D01*
X710000Y2270000D02*
X850000D01*
X570000D02*
X710000D01*
X430000D02*
X570000D01*
X290000D02*
X430000D01*
X290000Y2170000D02*
X430000D01*
X570000D01*
X710000D01*
X850000Y2270000D02*
X990000D01*
X528583Y776419D02*
X582164Y830000D01*
X528582Y776418D02*
X528583Y776419D01*
Y776417D02*
Y776419D01*
Y1138583D02*
X530000Y1140000D01*
X1080000Y2080000D02*
X1490000Y1670000D01*
X990000Y2170000D02*
X1080000Y2080000D01*
X1490000Y1670000D02*
X2057164D01*
X2258582Y1871418D01*
X2027164Y1440000D02*
X2458582Y1871418D01*
X1370000Y1440000D02*
X2027164D01*
X950000Y1560000D02*
X1740000D01*
X1800000Y1620000D01*
X1270000Y660000D02*
Y714196D01*
X1313582Y757778D02*
Y795058D01*
X1270000Y714196D02*
X1313582Y757778D01*
X1000000Y980000D02*
X1128640D01*
X1313582Y795058D01*
X1100000Y730000D02*
X1165000D01*
X1000000Y630000D02*
X1100000Y730000D01*
X625000Y630000D02*
X1000000D01*
X1165000Y730000D02*
X1218582Y676418D01*
X1127222Y667778D02*
X1142222D01*
X1118582Y676418D02*
X1127222Y667778D01*
X578582Y676418D02*
X625000Y630000D01*
X582164Y830000D02*
X1115000D01*
X1168582Y776418D01*
X1032164Y590000D02*
X1118582Y676418D01*
X601360Y590000D02*
X1032164D01*
X523582Y667778D02*
X601360Y590000D01*
X1241418Y631418D02*
X1270000Y660000D01*
X1178582Y631418D02*
X1241418D01*
X1142222Y667778D02*
X1178582Y631418D01*
X990000Y2270000D02*
X1090000Y2170000D01*
X2012164Y1725000D02*
X2158582Y1871418D01*
X1545000Y1715000D02*
X2012164Y1725000D01*
X1461418Y2171418D02*
X1580000Y2290000D01*
X1458582Y2171418D02*
X1461418D01*
X1580000Y2290000D02*
X2090000D01*
X2190000Y2390000D02*
Y2540000D01*
X2090000Y2290000D02*
X2190000Y2390000D01*
X1080000Y2080000D02*
X1220000D01*
X1090000Y2170000D02*
X1220000D01*
X487222Y667778D02*
X523582D01*
X478582Y676418D02*
X487222Y667778D01*
X3210000Y1130000D02*
X3351418Y1271418D01*
X3358582D01*
X3020000Y1130000D02*
X3210000D01*
X2858582Y968582D02*
X3020000Y1130000D01*
X2858582Y921418D02*
Y968582D01*
D23*
X710000Y2470000D02*
X850000D01*
X570000D02*
X710000D01*
X430000D02*
X570000D01*
X290000D02*
X430000D01*
X850000D02*
X990000D01*
X1360000Y2170000D02*
Y2250000D01*
Y2170000D02*
X1450000Y2080000D01*
X1292835Y2170000D02*
X1360000D01*
X1300000Y2080000D02*
X1450000D01*
X1658583Y1871417D01*
X1140000Y2470000D02*
X1360000Y2250000D01*
X990000Y2470000D02*
X1140000D01*
D27*
X1458583Y1271417D02*
D03*
X1558583D02*
D03*
X1658583D02*
D03*
X1758583D02*
D03*
X1858583D02*
D03*
X1958583D02*
D03*
X2058583D02*
D03*
X2158583D02*
D03*
X2258583D02*
D03*
X2358583D02*
D03*
X2458583D02*
D03*
X2558583D02*
D03*
X2658583D02*
D03*
X2758583D02*
D03*
Y1871417D02*
D03*
X2658583D02*
D03*
X2558583D02*
D03*
X2458583D02*
D03*
X2358583D02*
D03*
X2258583D02*
D03*
X2158583D02*
D03*
X2058583D02*
D03*
X1958583D02*
D03*
X1858583D02*
D03*
X1758583D02*
D03*
X2958583Y1271417D02*
D03*
X3058583D02*
D03*
X3158583D02*
D03*
X3258583D02*
D03*
X3358583D02*
D03*
X3458583D02*
D03*
X3558583D02*
D03*
X3658583D02*
D03*
X3758583D02*
D03*
Y1871417D02*
D03*
X3658583D02*
D03*
X3558583D02*
D03*
X3458583D02*
D03*
X3358583D02*
D03*
X3258583D02*
D03*
X3158583D02*
D03*
X2858583Y1271417D02*
D03*
X1658583Y1871417D02*
D03*
X1558583D02*
D03*
X1458583D02*
D03*
X2858583D02*
D03*
X2958583D02*
D03*
X3058583D02*
D03*
X2658583Y271417D02*
D03*
X2558583D02*
D03*
X2658583Y921417D02*
D03*
X2558583D02*
D03*
X2858583Y271417D02*
D03*
X2758583D02*
D03*
X2858583Y921417D02*
D03*
X2758583D02*
D03*
X3058583Y271417D02*
D03*
X2958583D02*
D03*
X3058583Y921417D02*
D03*
X2958583D02*
D03*
X3158583D02*
D03*
X3258583D02*
D03*
X3158583Y271417D02*
D03*
X3258583D02*
D03*
X3960000Y1460000D02*
D03*
Y1360000D02*
D03*
X290000Y2470000D02*
D03*
Y2170000D02*
D03*
Y2270000D02*
D03*
Y2370000D02*
D03*
X430000Y2470000D02*
D03*
Y2170000D02*
D03*
Y2270000D02*
D03*
Y2370000D02*
D03*
X570000Y2470000D02*
D03*
Y2170000D02*
D03*
Y2270000D02*
D03*
Y2370000D02*
D03*
X710000Y2470000D02*
D03*
Y2170000D02*
D03*
Y2270000D02*
D03*
Y2370000D02*
D03*
X850000Y2470000D02*
D03*
Y2170000D02*
D03*
Y2270000D02*
D03*
Y2370000D02*
D03*
X990000Y2470000D02*
D03*
Y2170000D02*
D03*
Y2270000D02*
D03*
Y2370000D02*
D03*
X678583Y676417D02*
D03*
X578583D02*
D03*
X478583D02*
D03*
X628583Y776417D02*
D03*
X528583D02*
D03*
X753583Y426417D02*
D03*
X353583D02*
D03*
X1318583Y676417D02*
D03*
X1218583D02*
D03*
X1118583D02*
D03*
X1268583Y776417D02*
D03*
X1168583D02*
D03*
X1393583Y426417D02*
D03*
X993583D02*
D03*
X1558583Y2171417D02*
D03*
X1658583D02*
D03*
X1758583D02*
D03*
X1858583D02*
D03*
X2258583D02*
D03*
X2158583D02*
D03*
X2058583D02*
D03*
X1958583D02*
D03*
X2658583D02*
D03*
X2558583D02*
D03*
X2458583D02*
D03*
X2358583D02*
D03*
X3058583D02*
D03*
X2958583D02*
D03*
X2858583D02*
D03*
X2758583D02*
D03*
X3458583D02*
D03*
X3558583D02*
D03*
X3658583D02*
D03*
X3158583D02*
D03*
X3258583D02*
D03*
X3358583D02*
D03*
X1458583D02*
D03*
X330000Y1140000D02*
D03*
X430000D02*
D03*
D28*
X3960000Y1260000D02*
D03*
X290000Y2070000D02*
D03*
X430000D02*
D03*
X570000D02*
D03*
X710000D02*
D03*
X850000D02*
D03*
X990000D02*
D03*
D29*
X4300000Y3043465D02*
D03*
Y2760000D02*
D03*
X3603583Y3044882D02*
D03*
Y2761417D02*
D03*
X1308780Y3036417D02*
D03*
Y2752953D02*
D03*
X2678780Y3041417D02*
D03*
Y2757953D02*
D03*
D30*
X428583Y776417D02*
D03*
X1068583D02*
D03*
X3758583Y2171417D02*
D03*
X530000Y1140000D02*
D03*
D31*
X4620000Y3240000D02*
D03*
Y130000D02*
D03*
X150000D02*
D03*
X160000Y3240000D02*
D03*
D32*
X4260000Y1160000D02*
D03*
Y1220000D02*
D03*
Y1280000D02*
D03*
Y1340000D02*
D03*
X1370000Y1440000D02*
D03*
X950000Y1560000D02*
D03*
X1800000Y1620000D02*
D03*
X1000000Y980000D02*
D03*
X1545000Y1715000D02*
D03*
X2190000Y2540000D02*
D03*
D33*
X1020164Y728000D02*
X1068582Y776418D01*
X477000Y728000D02*
X1020164D01*
X428582Y776418D02*
X477000Y728000D01*
%TF.MD5,6d1fae5b2b1cfd7650c60a492987e1aa*%
M02*
