G04*
G04 #@! TF.GenerationSoftware,Altium Limited,Altium Designer,19.1.8 (144)*
G04*
G04 Layer_Physical_Order=2*
G04 Layer_Color=16711680*
%FSLAX25Y25*%
%MOIN*%
G70*
G01*
G75*
%ADD10C,0.01000*%
%ADD21R,0.04134X0.05118*%
%ADD42C,0.01500*%
%ADD46C,0.06000*%
%ADD47R,0.06000X0.06000*%
%ADD48C,0.23622*%
%ADD49R,0.06000X0.06000*%
%ADD50C,0.05000*%
%ADD51C,0.01200*%
G36*
X452000Y312000D02*
X472000D01*
Y26000D01*
X451000D01*
Y0D01*
X159000D01*
Y107000D01*
X132000Y134000D01*
X3000D01*
Y314000D01*
X29000D01*
Y336000D01*
X452000D01*
Y312000D01*
D02*
G37*
G36*
X126000Y130000D02*
X151000Y105000D01*
X151000Y0D01*
X26000Y-0D01*
X26000Y24000D01*
X3000Y24000D01*
X3000Y130000D01*
X126000Y130000D01*
D02*
G37*
%LPC*%
G36*
X360358Y317038D02*
X358395Y316883D01*
X356480Y316424D01*
X354661Y315670D01*
X352982Y314641D01*
X351484Y313362D01*
X350205Y311865D01*
X349176Y310186D01*
X348423Y308366D01*
X347963Y306451D01*
X347809Y304488D01*
X347963Y302525D01*
X348423Y300610D01*
X349176Y298791D01*
X350205Y297112D01*
X351484Y295614D01*
X352982Y294335D01*
X354661Y293306D01*
X356480Y292553D01*
X358395Y292093D01*
X360358Y291938D01*
X362321Y292093D01*
X364236Y292553D01*
X366056Y293306D01*
X367735Y294335D01*
X369232Y295614D01*
X370511Y297112D01*
X371540Y298791D01*
X372294Y300610D01*
X372754Y302525D01*
X372908Y304488D01*
X372754Y306451D01*
X372294Y308366D01*
X371540Y310186D01*
X370511Y311865D01*
X369232Y313362D01*
X367735Y314641D01*
X366056Y315670D01*
X364236Y316424D01*
X362321Y316883D01*
X360358Y317038D01*
D02*
G37*
G36*
X430000Y316896D02*
X428037Y316742D01*
X426122Y316282D01*
X424302Y315528D01*
X422623Y314499D01*
X421126Y313220D01*
X419847Y311723D01*
X418818Y310044D01*
X418064Y308225D01*
X417605Y306310D01*
X417450Y304346D01*
X417605Y302383D01*
X418064Y300468D01*
X418818Y298649D01*
X419847Y296970D01*
X421126Y295473D01*
X422623Y294194D01*
X424302Y293165D01*
X426122Y292411D01*
X428037Y291951D01*
X430000Y291797D01*
X431963Y291951D01*
X433878Y292411D01*
X435698Y293165D01*
X437376Y294194D01*
X438874Y295473D01*
X440153Y296970D01*
X441182Y298649D01*
X441935Y300468D01*
X442395Y302383D01*
X442550Y304346D01*
X442395Y306310D01*
X441935Y308225D01*
X441182Y310044D01*
X440153Y311723D01*
X438874Y313220D01*
X437376Y314499D01*
X435698Y315528D01*
X433878Y316282D01*
X431963Y316742D01*
X430000Y316896D01*
D02*
G37*
G36*
X267878Y316691D02*
X265915Y316537D01*
X264000Y316077D01*
X262180Y315324D01*
X260501Y314295D01*
X259004Y313016D01*
X257725Y311518D01*
X256696Y309839D01*
X255943Y308020D01*
X255483Y306105D01*
X255328Y304142D01*
X255483Y302179D01*
X255943Y300264D01*
X256696Y298444D01*
X257725Y296765D01*
X259004Y295268D01*
X260501Y293989D01*
X262180Y292960D01*
X264000Y292206D01*
X265915Y291746D01*
X267878Y291592D01*
X269841Y291746D01*
X271756Y292206D01*
X273575Y292960D01*
X275255Y293989D01*
X276752Y295268D01*
X278031Y296765D01*
X279060Y298444D01*
X279813Y300264D01*
X280273Y302179D01*
X280428Y304142D01*
X280273Y306105D01*
X279813Y308020D01*
X279060Y309839D01*
X278031Y311518D01*
X276752Y313016D01*
X275255Y314295D01*
X273575Y315324D01*
X271756Y316077D01*
X269841Y316537D01*
X267878Y316691D01*
D02*
G37*
G36*
X130878Y316191D02*
X128915Y316037D01*
X127000Y315577D01*
X125180Y314824D01*
X123501Y313795D01*
X122004Y312516D01*
X120725Y311018D01*
X119696Y309339D01*
X118942Y307520D01*
X118483Y305605D01*
X118328Y303642D01*
X118483Y301678D01*
X118942Y299764D01*
X119696Y297944D01*
X120725Y296265D01*
X122004Y294768D01*
X123501Y293489D01*
X125180Y292460D01*
X127000Y291706D01*
X128915Y291247D01*
X130878Y291092D01*
X132841Y291247D01*
X134756Y291706D01*
X136575Y292460D01*
X138254Y293489D01*
X139752Y294768D01*
X141031Y296265D01*
X142060Y297944D01*
X142813Y299764D01*
X143273Y301678D01*
X143428Y303642D01*
X143273Y305605D01*
X142813Y307520D01*
X142060Y309339D01*
X141031Y311018D01*
X139752Y312516D01*
X138254Y313795D01*
X136575Y314824D01*
X134756Y315577D01*
X132841Y316037D01*
X130878Y316191D01*
D02*
G37*
G36*
X361858Y288874D02*
Y277642D01*
X373091D01*
X373051Y278152D01*
X372580Y280113D01*
X371808Y281976D01*
X370755Y283695D01*
X369445Y285228D01*
X367912Y286538D01*
X366192Y287592D01*
X364329Y288363D01*
X362369Y288834D01*
X361858Y288874D01*
D02*
G37*
G36*
X358858D02*
X358348Y288834D01*
X356387Y288363D01*
X354524Y287592D01*
X352805Y286538D01*
X351272Y285228D01*
X349962Y283695D01*
X348908Y281976D01*
X348137Y280113D01*
X347666Y278152D01*
X347626Y277642D01*
X358858D01*
Y288874D01*
D02*
G37*
G36*
X431500Y288733D02*
Y277500D01*
X442733D01*
X442692Y278010D01*
X442222Y279971D01*
X441450Y281834D01*
X440396Y283553D01*
X439087Y285087D01*
X437553Y286396D01*
X435834Y287450D01*
X433971Y288222D01*
X432010Y288692D01*
X431500Y288733D01*
D02*
G37*
G36*
X428500D02*
X427990Y288692D01*
X426029Y288222D01*
X424166Y287450D01*
X422447Y286396D01*
X420913Y285087D01*
X419604Y283553D01*
X418550Y281834D01*
X417778Y279971D01*
X417308Y278010D01*
X417267Y277500D01*
X428500D01*
Y288733D01*
D02*
G37*
G36*
X269378Y288528D02*
Y277295D01*
X280610D01*
X280570Y277805D01*
X280100Y279766D01*
X279328Y281629D01*
X278274Y283349D01*
X276965Y284882D01*
X275431Y286192D01*
X273712Y287245D01*
X271849Y288017D01*
X269888Y288488D01*
X269378Y288528D01*
D02*
G37*
G36*
X266378D02*
X265868Y288488D01*
X263907Y288017D01*
X262044Y287245D01*
X260325Y286192D01*
X258791Y284882D01*
X257482Y283349D01*
X256428Y281629D01*
X255656Y279766D01*
X255186Y277805D01*
X255145Y277295D01*
X266378D01*
Y288528D01*
D02*
G37*
G36*
X132378Y288028D02*
Y276795D01*
X143611D01*
X143570Y277306D01*
X143100Y279266D01*
X142328Y281129D01*
X141274Y282849D01*
X139965Y284382D01*
X138431Y285692D01*
X136712Y286745D01*
X134849Y287517D01*
X132888Y287988D01*
X132378Y288028D01*
D02*
G37*
G36*
X129378D02*
X128868Y287988D01*
X126907Y287517D01*
X125044Y286745D01*
X123325Y285692D01*
X121791Y284382D01*
X120482Y282849D01*
X119428Y281129D01*
X118656Y279266D01*
X118185Y277306D01*
X118145Y276795D01*
X129378D01*
Y288028D01*
D02*
G37*
G36*
X373091Y274642D02*
X361858D01*
Y263409D01*
X362369Y263449D01*
X364329Y263920D01*
X366192Y264692D01*
X367912Y265745D01*
X369445Y267055D01*
X370755Y268588D01*
X371808Y270308D01*
X372580Y272171D01*
X373051Y274131D01*
X373091Y274642D01*
D02*
G37*
G36*
X358858D02*
X347626D01*
X347666Y274131D01*
X348137Y272171D01*
X348908Y270308D01*
X349962Y268588D01*
X351272Y267055D01*
X352805Y265745D01*
X354524Y264692D01*
X356387Y263920D01*
X358348Y263449D01*
X358858Y263409D01*
Y274642D01*
D02*
G37*
G36*
X442733Y274500D02*
X431500D01*
Y263267D01*
X432010Y263308D01*
X433971Y263778D01*
X435834Y264550D01*
X437553Y265604D01*
X439087Y266913D01*
X440396Y268447D01*
X441450Y270166D01*
X442222Y272029D01*
X442692Y273990D01*
X442733Y274500D01*
D02*
G37*
G36*
X428500D02*
X417267D01*
X417308Y273990D01*
X417778Y272029D01*
X418550Y270166D01*
X419604Y268447D01*
X420913Y266913D01*
X422447Y265604D01*
X424166Y264550D01*
X426029Y263778D01*
X427990Y263308D01*
X428500Y263267D01*
Y274500D01*
D02*
G37*
G36*
X280610Y274295D02*
X269378D01*
Y263063D01*
X269888Y263103D01*
X271849Y263574D01*
X273712Y264345D01*
X275431Y265399D01*
X276965Y266708D01*
X278274Y268242D01*
X279328Y269961D01*
X280100Y271824D01*
X280570Y273785D01*
X280610Y274295D01*
D02*
G37*
G36*
X266378D02*
X255145D01*
X255186Y273785D01*
X255656Y271824D01*
X256428Y269961D01*
X257482Y268242D01*
X258791Y266708D01*
X260325Y265399D01*
X262044Y264345D01*
X263907Y263574D01*
X265868Y263103D01*
X266378Y263063D01*
Y274295D01*
D02*
G37*
G36*
X143611Y273795D02*
X132378D01*
Y262563D01*
X132888Y262603D01*
X134849Y263074D01*
X136712Y263845D01*
X138431Y264899D01*
X139965Y266209D01*
X141274Y267742D01*
X142328Y269461D01*
X143100Y271324D01*
X143570Y273285D01*
X143611Y273795D01*
D02*
G37*
G36*
X129378D02*
X118145D01*
X118185Y273285D01*
X118656Y271324D01*
X119428Y269461D01*
X120482Y267742D01*
X121791Y266209D01*
X123325Y264899D01*
X125044Y263845D01*
X126907Y263074D01*
X128868Y262603D01*
X129378Y262563D01*
Y273795D01*
D02*
G37*
G36*
X99000Y250732D02*
X98034Y250605D01*
X97134Y250232D01*
X96361Y249639D01*
X95768Y248866D01*
X95608Y248478D01*
X88393D01*
X88232Y248866D01*
X87639Y249639D01*
X86866Y250232D01*
X85966Y250605D01*
X85000Y250732D01*
X84034Y250605D01*
X83134Y250232D01*
X82361Y249639D01*
X81768Y248866D01*
X81608Y248478D01*
X74392D01*
X74232Y248866D01*
X73639Y249639D01*
X72866Y250232D01*
X71966Y250605D01*
X71000Y250732D01*
X70034Y250605D01*
X69134Y250232D01*
X68361Y249639D01*
X67768Y248866D01*
X67607Y248478D01*
X60392D01*
X60232Y248866D01*
X59639Y249639D01*
X58866Y250232D01*
X57966Y250605D01*
X57000Y250732D01*
X56034Y250605D01*
X55134Y250232D01*
X54361Y249639D01*
X53768Y248866D01*
X53607Y248478D01*
X46393D01*
X46232Y248866D01*
X45639Y249639D01*
X44866Y250232D01*
X43966Y250605D01*
X43000Y250732D01*
X42034Y250605D01*
X41134Y250232D01*
X40361Y249639D01*
X39768Y248866D01*
X39608Y248478D01*
X32392D01*
X32232Y248866D01*
X31639Y249639D01*
X30866Y250232D01*
X29966Y250605D01*
X29000Y250732D01*
X28034Y250605D01*
X27134Y250232D01*
X26361Y249639D01*
X25768Y248866D01*
X25395Y247966D01*
X25268Y247000D01*
X25395Y246034D01*
X25768Y245134D01*
X26361Y244361D01*
X27134Y243768D01*
X28034Y243395D01*
X29000Y243268D01*
X29966Y243395D01*
X30866Y243768D01*
X31639Y244361D01*
X32232Y245134D01*
X32392Y245522D01*
X39608D01*
X39768Y245134D01*
X40361Y244361D01*
X41134Y243768D01*
X42034Y243395D01*
X43000Y243268D01*
X43966Y243395D01*
X44866Y243768D01*
X45639Y244361D01*
X46232Y245134D01*
X46393Y245522D01*
X53607D01*
X53768Y245134D01*
X54361Y244361D01*
X55134Y243768D01*
X56034Y243395D01*
X57000Y243268D01*
X57966Y243395D01*
X58866Y243768D01*
X59639Y244361D01*
X60232Y245134D01*
X60392Y245522D01*
X67607D01*
X67768Y245134D01*
X68361Y244361D01*
X69134Y243768D01*
X70034Y243395D01*
X71000Y243268D01*
X71966Y243395D01*
X72866Y243768D01*
X73639Y244361D01*
X74232Y245134D01*
X74392Y245522D01*
X81608D01*
X81768Y245134D01*
X82361Y244361D01*
X83134Y243768D01*
X84034Y243395D01*
X85000Y243268D01*
X85966Y243395D01*
X86866Y243768D01*
X87639Y244361D01*
X88232Y245134D01*
X88393Y245522D01*
X95608D01*
X95768Y245134D01*
X96361Y244361D01*
X97134Y243768D01*
X98034Y243395D01*
X99000Y243268D01*
X99966Y243395D01*
X100866Y243768D01*
X101639Y244361D01*
X102232Y245134D01*
X102392Y245522D01*
X113388D01*
X134522Y224388D01*
Y218478D01*
X132050D01*
Y220259D01*
X126516D01*
Y213741D01*
X132050D01*
Y215522D01*
X135388D01*
X140969Y209940D01*
X140778Y209478D01*
X132050D01*
Y211259D01*
X126516D01*
Y204741D01*
X132050D01*
Y206522D01*
X144388D01*
X162414Y188495D01*
X162253Y188108D01*
X162126Y187142D01*
X162253Y186176D01*
X162626Y185276D01*
X163219Y184503D01*
X163992Y183910D01*
X164892Y183537D01*
X165858Y183410D01*
X166824Y183537D01*
X167724Y183910D01*
X168497Y184503D01*
X169090Y185276D01*
X169463Y186176D01*
X169590Y187142D01*
X169463Y188108D01*
X169090Y189008D01*
X168497Y189781D01*
X167724Y190374D01*
X167082Y190640D01*
Y213644D01*
X167724Y213910D01*
X168497Y214503D01*
X169090Y215276D01*
X169463Y216176D01*
X169590Y217142D01*
X169463Y218108D01*
X169090Y219008D01*
X168497Y219781D01*
X167724Y220374D01*
X166824Y220746D01*
X165858Y220874D01*
X164892Y220746D01*
X163992Y220374D01*
X163219Y219781D01*
X162626Y219008D01*
X162253Y218108D01*
X162126Y217142D01*
X162253Y216176D01*
X162626Y215276D01*
X163219Y214503D01*
X163992Y213910D01*
X164635Y213644D01*
Y191163D01*
X164135Y190956D01*
X146045Y209045D01*
X146045Y209045D01*
X137478Y217612D01*
Y225000D01*
X137366Y225566D01*
X137045Y226045D01*
X115045Y248045D01*
X114566Y248366D01*
X114000Y248478D01*
X102392D01*
X102232Y248866D01*
X101639Y249639D01*
X100866Y250232D01*
X99966Y250605D01*
X99000Y250732D01*
D02*
G37*
G36*
Y240732D02*
X98034Y240605D01*
X97134Y240232D01*
X96361Y239639D01*
X95768Y238866D01*
X95395Y237966D01*
X95268Y237000D01*
X95395Y236034D01*
X95768Y235134D01*
X96361Y234361D01*
X97134Y233768D01*
X98034Y233395D01*
X99000Y233268D01*
X99966Y233395D01*
X100866Y233768D01*
X101639Y234361D01*
X102232Y235134D01*
X102605Y236034D01*
X102732Y237000D01*
X102605Y237966D01*
X102232Y238866D01*
X101639Y239639D01*
X100866Y240232D01*
X99966Y240605D01*
X99000Y240732D01*
D02*
G37*
G36*
X85000D02*
X84034Y240605D01*
X83134Y240232D01*
X82361Y239639D01*
X81768Y238866D01*
X81395Y237966D01*
X81268Y237000D01*
X81395Y236034D01*
X81768Y235134D01*
X82361Y234361D01*
X83134Y233768D01*
X84034Y233395D01*
X85000Y233268D01*
X85966Y233395D01*
X86866Y233768D01*
X87639Y234361D01*
X88232Y235134D01*
X88605Y236034D01*
X88732Y237000D01*
X88605Y237966D01*
X88232Y238866D01*
X87639Y239639D01*
X86866Y240232D01*
X85966Y240605D01*
X85000Y240732D01*
D02*
G37*
G36*
X71000D02*
X70034Y240605D01*
X69134Y240232D01*
X68361Y239639D01*
X67768Y238866D01*
X67395Y237966D01*
X67268Y237000D01*
X67395Y236034D01*
X67768Y235134D01*
X68361Y234361D01*
X69134Y233768D01*
X70034Y233395D01*
X71000Y233268D01*
X71966Y233395D01*
X72866Y233768D01*
X73639Y234361D01*
X74232Y235134D01*
X74605Y236034D01*
X74732Y237000D01*
X74605Y237966D01*
X74232Y238866D01*
X73639Y239639D01*
X72866Y240232D01*
X71966Y240605D01*
X71000Y240732D01*
D02*
G37*
G36*
X57000D02*
X56034Y240605D01*
X55134Y240232D01*
X54361Y239639D01*
X53768Y238866D01*
X53395Y237966D01*
X53268Y237000D01*
X53395Y236034D01*
X53768Y235134D01*
X54361Y234361D01*
X55134Y233768D01*
X56034Y233395D01*
X57000Y233268D01*
X57966Y233395D01*
X58866Y233768D01*
X59639Y234361D01*
X60232Y235134D01*
X60605Y236034D01*
X60732Y237000D01*
X60605Y237966D01*
X60232Y238866D01*
X59639Y239639D01*
X58866Y240232D01*
X57966Y240605D01*
X57000Y240732D01*
D02*
G37*
G36*
X43000D02*
X42034Y240605D01*
X41134Y240232D01*
X40361Y239639D01*
X39768Y238866D01*
X39395Y237966D01*
X39268Y237000D01*
X39395Y236034D01*
X39768Y235134D01*
X40361Y234361D01*
X41134Y233768D01*
X42034Y233395D01*
X43000Y233268D01*
X43966Y233395D01*
X44866Y233768D01*
X45639Y234361D01*
X46232Y235134D01*
X46605Y236034D01*
X46732Y237000D01*
X46605Y237966D01*
X46232Y238866D01*
X45639Y239639D01*
X44866Y240232D01*
X43966Y240605D01*
X43000Y240732D01*
D02*
G37*
G36*
X29000D02*
X28034Y240605D01*
X27134Y240232D01*
X26361Y239639D01*
X25768Y238866D01*
X25395Y237966D01*
X25268Y237000D01*
X25395Y236034D01*
X25768Y235134D01*
X26361Y234361D01*
X27134Y233768D01*
X28034Y233395D01*
X29000Y233268D01*
X29966Y233395D01*
X30866Y233768D01*
X31639Y234361D01*
X32232Y235134D01*
X32605Y236034D01*
X32732Y237000D01*
X32605Y237966D01*
X32232Y238866D01*
X31639Y239639D01*
X30866Y240232D01*
X29966Y240605D01*
X29000Y240732D01*
D02*
G37*
G36*
X99000Y230732D02*
X98034Y230605D01*
X97134Y230232D01*
X96361Y229639D01*
X95768Y228866D01*
X95502Y228223D01*
X88498D01*
X88232Y228866D01*
X87639Y229639D01*
X86866Y230232D01*
X85966Y230605D01*
X85000Y230732D01*
X84034Y230605D01*
X83134Y230232D01*
X82361Y229639D01*
X81768Y228866D01*
X81502Y228223D01*
X74498D01*
X74232Y228866D01*
X73639Y229639D01*
X72866Y230232D01*
X71966Y230605D01*
X71000Y230732D01*
X70034Y230605D01*
X69134Y230232D01*
X68361Y229639D01*
X67768Y228866D01*
X67502Y228223D01*
X60498D01*
X60232Y228866D01*
X59639Y229639D01*
X58866Y230232D01*
X57966Y230605D01*
X57000Y230732D01*
X56034Y230605D01*
X55134Y230232D01*
X54361Y229639D01*
X53768Y228866D01*
X53502Y228223D01*
X46498D01*
X46232Y228866D01*
X45639Y229639D01*
X44866Y230232D01*
X43966Y230605D01*
X43000Y230732D01*
X42034Y230605D01*
X41134Y230232D01*
X40361Y229639D01*
X39768Y228866D01*
X39502Y228223D01*
X32498D01*
X32232Y228866D01*
X31639Y229639D01*
X30866Y230232D01*
X29966Y230605D01*
X29000Y230732D01*
X28034Y230605D01*
X27134Y230232D01*
X26361Y229639D01*
X25768Y228866D01*
X25395Y227966D01*
X25268Y227000D01*
X25395Y226034D01*
X25768Y225134D01*
X26361Y224361D01*
X27134Y223768D01*
X28034Y223395D01*
X29000Y223268D01*
X29966Y223395D01*
X30866Y223768D01*
X31639Y224361D01*
X32232Y225134D01*
X32498Y225777D01*
X39502D01*
X39768Y225134D01*
X40361Y224361D01*
X41134Y223768D01*
X42034Y223395D01*
X43000Y223268D01*
X43966Y223395D01*
X44866Y223768D01*
X45639Y224361D01*
X46232Y225134D01*
X46498Y225777D01*
X53502D01*
X53768Y225134D01*
X54361Y224361D01*
X55134Y223768D01*
X56034Y223395D01*
X57000Y223268D01*
X57966Y223395D01*
X58866Y223768D01*
X59639Y224361D01*
X60232Y225134D01*
X60498Y225777D01*
X67502D01*
X67768Y225134D01*
X68361Y224361D01*
X69134Y223768D01*
X70034Y223395D01*
X71000Y223268D01*
X71966Y223395D01*
X72866Y223768D01*
X73639Y224361D01*
X74232Y225134D01*
X74498Y225777D01*
X81502D01*
X81768Y225134D01*
X82361Y224361D01*
X83134Y223768D01*
X84034Y223395D01*
X85000Y223268D01*
X85966Y223395D01*
X86866Y223768D01*
X87639Y224361D01*
X88232Y225134D01*
X88498Y225777D01*
X95502D01*
X95768Y225134D01*
X96361Y224361D01*
X97134Y223768D01*
X98034Y223395D01*
X99000Y223268D01*
X99966Y223395D01*
X100608Y223661D01*
X108135Y216135D01*
X108532Y215870D01*
X109000Y215776D01*
X119233D01*
Y213741D01*
X124767D01*
Y220259D01*
X119233D01*
Y218224D01*
X109507D01*
X102339Y225392D01*
X102605Y226034D01*
X102732Y227000D01*
X102605Y227966D01*
X102232Y228866D01*
X101639Y229639D01*
X100866Y230232D01*
X99966Y230605D01*
X99000Y230732D01*
D02*
G37*
G36*
X219000Y257228D02*
X218165Y257118D01*
X217386Y256795D01*
X216718Y256282D01*
X216205Y255614D01*
X215882Y254835D01*
X215772Y254000D01*
X215882Y253165D01*
X216205Y252386D01*
X216718Y251718D01*
X217386Y251205D01*
X217776Y251043D01*
Y239507D01*
X208493Y230223D01*
X158000D01*
X157532Y230130D01*
X157135Y229865D01*
X147667Y220397D01*
X146824Y220746D01*
X145858Y220874D01*
X144892Y220746D01*
X143992Y220374D01*
X143219Y219781D01*
X142626Y219008D01*
X142253Y218108D01*
X142126Y217142D01*
X142253Y216176D01*
X142626Y215276D01*
X143219Y214503D01*
X143992Y213910D01*
X144892Y213537D01*
X145858Y213410D01*
X146824Y213537D01*
X147724Y213910D01*
X148497Y214503D01*
X149090Y215276D01*
X149463Y216176D01*
X149590Y217142D01*
X149463Y218108D01*
X149280Y218550D01*
X158507Y227777D01*
X209000D01*
X209468Y227870D01*
X209865Y228135D01*
X219865Y238135D01*
X220130Y238532D01*
X220223Y239000D01*
Y251043D01*
X220614Y251205D01*
X221282Y251718D01*
X221795Y252386D01*
X222118Y253165D01*
X222228Y254000D01*
X222118Y254835D01*
X221795Y255614D01*
X221282Y256282D01*
X220614Y256795D01*
X219835Y257118D01*
X219000Y257228D01*
D02*
G37*
G36*
X287358Y220850D02*
Y218642D01*
X289566D01*
X289352Y219159D01*
X288711Y219995D01*
X287876Y220636D01*
X287358Y220850D01*
D02*
G37*
G36*
X284358D02*
X283841Y220636D01*
X283005Y219995D01*
X282364Y219159D01*
X282150Y218642D01*
X284358D01*
Y220850D01*
D02*
G37*
G36*
X157358D02*
Y218642D01*
X159566D01*
X159352Y219159D01*
X158711Y219995D01*
X157876Y220636D01*
X157358Y220850D01*
D02*
G37*
G36*
X154358D02*
X153841Y220636D01*
X153005Y219995D01*
X152364Y219159D01*
X152150Y218642D01*
X154358D01*
Y220850D01*
D02*
G37*
G36*
X99000Y220732D02*
X98034Y220605D01*
X97134Y220232D01*
X96361Y219639D01*
X95768Y218866D01*
X95502Y218224D01*
X88498D01*
X88232Y218866D01*
X87639Y219639D01*
X86866Y220232D01*
X85966Y220605D01*
X85000Y220732D01*
X84034Y220605D01*
X83134Y220232D01*
X82361Y219639D01*
X81768Y218866D01*
X81502Y218224D01*
X74498D01*
X74232Y218866D01*
X73639Y219639D01*
X72866Y220232D01*
X71966Y220605D01*
X71000Y220732D01*
X70034Y220605D01*
X69134Y220232D01*
X68361Y219639D01*
X67768Y218866D01*
X67502Y218224D01*
X60498D01*
X60232Y218866D01*
X59639Y219639D01*
X58866Y220232D01*
X57966Y220605D01*
X57000Y220732D01*
X56034Y220605D01*
X55134Y220232D01*
X54361Y219639D01*
X53768Y218866D01*
X53502Y218224D01*
X46498D01*
X46232Y218866D01*
X45639Y219639D01*
X44866Y220232D01*
X43966Y220605D01*
X43000Y220732D01*
X42034Y220605D01*
X41134Y220232D01*
X40361Y219639D01*
X39768Y218866D01*
X39502Y218224D01*
X32498D01*
X32232Y218866D01*
X31639Y219639D01*
X30866Y220232D01*
X29966Y220605D01*
X29000Y220732D01*
X28034Y220605D01*
X27134Y220232D01*
X26361Y219639D01*
X25768Y218866D01*
X25395Y217966D01*
X25268Y217000D01*
X25395Y216034D01*
X25768Y215134D01*
X26361Y214361D01*
X27134Y213768D01*
X28034Y213395D01*
X29000Y213268D01*
X29966Y213395D01*
X30866Y213768D01*
X31639Y214361D01*
X32232Y215134D01*
X32498Y215776D01*
X39502D01*
X39768Y215134D01*
X40361Y214361D01*
X41134Y213768D01*
X42034Y213395D01*
X43000Y213268D01*
X43966Y213395D01*
X44866Y213768D01*
X45639Y214361D01*
X46232Y215134D01*
X46498Y215776D01*
X53502D01*
X53768Y215134D01*
X54361Y214361D01*
X55134Y213768D01*
X56034Y213395D01*
X57000Y213268D01*
X57966Y213395D01*
X58866Y213768D01*
X59639Y214361D01*
X60232Y215134D01*
X60498Y215776D01*
X67502D01*
X67768Y215134D01*
X68361Y214361D01*
X69134Y213768D01*
X70034Y213395D01*
X71000Y213268D01*
X71966Y213395D01*
X72866Y213768D01*
X73639Y214361D01*
X74232Y215134D01*
X74498Y215776D01*
X81502D01*
X81768Y215134D01*
X82361Y214361D01*
X83134Y213768D01*
X84034Y213395D01*
X85000Y213268D01*
X85966Y213395D01*
X86866Y213768D01*
X87639Y214361D01*
X88232Y215134D01*
X88498Y215776D01*
X95502D01*
X95768Y215134D01*
X96361Y214361D01*
X97134Y213768D01*
X98034Y213395D01*
X99000Y213268D01*
X99966Y213395D01*
X100608Y213661D01*
X102770Y211500D01*
X102563Y211000D01*
X100500D01*
Y208500D01*
X103000D01*
Y210563D01*
X103500Y210770D01*
X107135Y207135D01*
X148135Y166135D01*
X148532Y165870D01*
X149000Y165777D01*
X205716D01*
X206185Y165870D01*
X206582Y166135D01*
X224250Y183803D01*
X224892Y183537D01*
X225858Y183410D01*
X226824Y183537D01*
X227724Y183910D01*
X228497Y184503D01*
X229090Y185276D01*
X229463Y186176D01*
X229590Y187142D01*
X229463Y188108D01*
X229090Y189008D01*
X228497Y189781D01*
X227724Y190374D01*
X226824Y190746D01*
X225858Y190874D01*
X224892Y190746D01*
X223992Y190374D01*
X223219Y189781D01*
X222626Y189008D01*
X222253Y188108D01*
X222126Y187142D01*
X222253Y186176D01*
X222520Y185533D01*
X205210Y168224D01*
X156335D01*
X156134Y168672D01*
X156138Y168723D01*
X156782Y169218D01*
X157295Y169886D01*
X157483Y170340D01*
X201243Y171277D01*
X201463Y171326D01*
X201685Y171370D01*
X201696Y171377D01*
X201709Y171380D01*
X201894Y171509D01*
X202081Y171635D01*
X214250Y183803D01*
X214892Y183537D01*
X215858Y183410D01*
X216824Y183537D01*
X217724Y183910D01*
X218497Y184503D01*
X219090Y185276D01*
X219463Y186176D01*
X219590Y187142D01*
X219463Y188108D01*
X219090Y189008D01*
X218497Y189781D01*
X217724Y190374D01*
X216824Y190746D01*
X215858Y190874D01*
X214892Y190746D01*
X213992Y190374D01*
X213219Y189781D01*
X212626Y189008D01*
X212253Y188108D01*
X212126Y187142D01*
X212253Y186176D01*
X212520Y185533D01*
X200699Y173713D01*
X157431Y172786D01*
X157295Y173114D01*
X156782Y173782D01*
X156114Y174295D01*
X155335Y174618D01*
X154500Y174728D01*
X153665Y174618D01*
X152886Y174295D01*
X152218Y173782D01*
X151705Y173114D01*
X151382Y172335D01*
X151272Y171500D01*
X151382Y170665D01*
X151705Y169886D01*
X152218Y169218D01*
X152862Y168723D01*
X152866Y168672D01*
X152665Y168224D01*
X149507D01*
X111416Y206315D01*
X111607Y206776D01*
X119233D01*
Y204741D01*
X124767D01*
Y211259D01*
X119233D01*
Y209224D01*
X108507D01*
X102339Y215392D01*
X102605Y216034D01*
X102732Y217000D01*
X102605Y217966D01*
X102232Y218866D01*
X101639Y219639D01*
X100866Y220232D01*
X99966Y220605D01*
X99000Y220732D01*
D02*
G37*
G36*
X379558Y220842D02*
X372158D01*
Y213442D01*
X379558D01*
Y220842D01*
D02*
G37*
G36*
X289566Y215642D02*
X287358D01*
Y213434D01*
X287876Y213648D01*
X288711Y214289D01*
X289352Y215125D01*
X289566Y215642D01*
D02*
G37*
G36*
X284358D02*
X282150D01*
X282364Y215125D01*
X283005Y214289D01*
X283841Y213648D01*
X284358Y213434D01*
Y215642D01*
D02*
G37*
G36*
X159566D02*
X157358D01*
Y213434D01*
X157876Y213648D01*
X158711Y214289D01*
X159352Y215125D01*
X159566Y215642D01*
D02*
G37*
G36*
X154358D02*
X152150D01*
X152364Y215125D01*
X153005Y214289D01*
X153841Y213648D01*
X154358Y213434D01*
Y215642D01*
D02*
G37*
G36*
X365858Y220874D02*
X364892Y220746D01*
X363992Y220374D01*
X363219Y219781D01*
X362626Y219008D01*
X362253Y218108D01*
X362126Y217142D01*
X362253Y216176D01*
X362626Y215276D01*
X363219Y214503D01*
X363992Y213910D01*
X364892Y213537D01*
X365858Y213410D01*
X366824Y213537D01*
X367724Y213910D01*
X368497Y214503D01*
X369090Y215276D01*
X369463Y216176D01*
X369590Y217142D01*
X369463Y218108D01*
X369090Y219008D01*
X368497Y219781D01*
X367724Y220374D01*
X366824Y220746D01*
X365858Y220874D01*
D02*
G37*
G36*
X355858D02*
X354892Y220746D01*
X353992Y220374D01*
X353219Y219781D01*
X352626Y219008D01*
X352254Y218108D01*
X352126Y217142D01*
X352254Y216176D01*
X352626Y215276D01*
X353219Y214503D01*
X353992Y213910D01*
X354892Y213537D01*
X355858Y213410D01*
X356824Y213537D01*
X357724Y213910D01*
X358497Y214503D01*
X359090Y215276D01*
X359463Y216176D01*
X359590Y217142D01*
X359463Y218108D01*
X359090Y219008D01*
X358497Y219781D01*
X357724Y220374D01*
X356824Y220746D01*
X355858Y220874D01*
D02*
G37*
G36*
X345858D02*
X344892Y220746D01*
X343992Y220374D01*
X343219Y219781D01*
X342626Y219008D01*
X342253Y218108D01*
X342126Y217142D01*
X342253Y216176D01*
X342626Y215276D01*
X343219Y214503D01*
X343992Y213910D01*
X344892Y213537D01*
X345858Y213410D01*
X346824Y213537D01*
X347724Y213910D01*
X348497Y214503D01*
X349090Y215276D01*
X349463Y216176D01*
X349590Y217142D01*
X349463Y218108D01*
X349090Y219008D01*
X348497Y219781D01*
X347724Y220374D01*
X346824Y220746D01*
X345858Y220874D01*
D02*
G37*
G36*
X335858D02*
X334892Y220746D01*
X333992Y220374D01*
X333219Y219781D01*
X332626Y219008D01*
X332254Y218108D01*
X332126Y217142D01*
X332254Y216176D01*
X332626Y215276D01*
X333219Y214503D01*
X333992Y213910D01*
X334892Y213537D01*
X335858Y213410D01*
X336824Y213537D01*
X337724Y213910D01*
X338497Y214503D01*
X339090Y215276D01*
X339463Y216176D01*
X339590Y217142D01*
X339463Y218108D01*
X339090Y219008D01*
X338497Y219781D01*
X337724Y220374D01*
X336824Y220746D01*
X335858Y220874D01*
D02*
G37*
G36*
X325858D02*
X324892Y220746D01*
X323992Y220374D01*
X323219Y219781D01*
X322626Y219008D01*
X322253Y218108D01*
X322126Y217142D01*
X322253Y216176D01*
X322626Y215276D01*
X323219Y214503D01*
X323992Y213910D01*
X324892Y213537D01*
X325858Y213410D01*
X326824Y213537D01*
X327724Y213910D01*
X328497Y214503D01*
X329090Y215276D01*
X329463Y216176D01*
X329590Y217142D01*
X329463Y218108D01*
X329090Y219008D01*
X328497Y219781D01*
X327724Y220374D01*
X326824Y220746D01*
X325858Y220874D01*
D02*
G37*
G36*
X315858D02*
X314892Y220746D01*
X313992Y220374D01*
X313219Y219781D01*
X312626Y219008D01*
X312253Y218108D01*
X312126Y217142D01*
X312253Y216176D01*
X312626Y215276D01*
X313219Y214503D01*
X313992Y213910D01*
X314892Y213537D01*
X315858Y213410D01*
X316824Y213537D01*
X317724Y213910D01*
X318497Y214503D01*
X319090Y215276D01*
X319463Y216176D01*
X319590Y217142D01*
X319463Y218108D01*
X319090Y219008D01*
X318497Y219781D01*
X317724Y220374D01*
X316824Y220746D01*
X315858Y220874D01*
D02*
G37*
G36*
X305858D02*
X304892Y220746D01*
X303992Y220374D01*
X303219Y219781D01*
X302626Y219008D01*
X302254Y218108D01*
X302126Y217142D01*
X302254Y216176D01*
X302626Y215276D01*
X303219Y214503D01*
X303992Y213910D01*
X304892Y213537D01*
X305858Y213410D01*
X306824Y213537D01*
X307724Y213910D01*
X308497Y214503D01*
X309090Y215276D01*
X309463Y216176D01*
X309590Y217142D01*
X309463Y218108D01*
X309090Y219008D01*
X308497Y219781D01*
X307724Y220374D01*
X306824Y220746D01*
X305858Y220874D01*
D02*
G37*
G36*
X295858D02*
X294892Y220746D01*
X293992Y220374D01*
X293219Y219781D01*
X292626Y219008D01*
X292253Y218108D01*
X292126Y217142D01*
X292253Y216176D01*
X292626Y215276D01*
X293219Y214503D01*
X293992Y213910D01*
X294892Y213537D01*
X295858Y213410D01*
X296824Y213537D01*
X297724Y213910D01*
X298497Y214503D01*
X299090Y215276D01*
X299463Y216176D01*
X299590Y217142D01*
X299463Y218108D01*
X299090Y219008D01*
X298497Y219781D01*
X297724Y220374D01*
X296824Y220746D01*
X295858Y220874D01*
D02*
G37*
G36*
X275858D02*
X274892Y220746D01*
X273992Y220374D01*
X273219Y219781D01*
X272626Y219008D01*
X272253Y218108D01*
X272126Y217142D01*
X272253Y216176D01*
X272626Y215276D01*
X273219Y214503D01*
X273992Y213910D01*
X274892Y213537D01*
X275858Y213410D01*
X276824Y213537D01*
X277724Y213910D01*
X278497Y214503D01*
X279090Y215276D01*
X279463Y216176D01*
X279590Y217142D01*
X279463Y218108D01*
X279090Y219008D01*
X278497Y219781D01*
X277724Y220374D01*
X276824Y220746D01*
X275858Y220874D01*
D02*
G37*
G36*
X265858D02*
X264892Y220746D01*
X263992Y220374D01*
X263219Y219781D01*
X262626Y219008D01*
X262253Y218108D01*
X262126Y217142D01*
X262253Y216176D01*
X262626Y215276D01*
X263219Y214503D01*
X263992Y213910D01*
X264892Y213537D01*
X265858Y213410D01*
X266824Y213537D01*
X267724Y213910D01*
X268497Y214503D01*
X269090Y215276D01*
X269463Y216176D01*
X269590Y217142D01*
X269463Y218108D01*
X269090Y219008D01*
X268497Y219781D01*
X267724Y220374D01*
X266824Y220746D01*
X265858Y220874D01*
D02*
G37*
G36*
X255858D02*
X254892Y220746D01*
X253992Y220374D01*
X253219Y219781D01*
X252626Y219008D01*
X252254Y218108D01*
X252126Y217142D01*
X252254Y216176D01*
X252626Y215276D01*
X253219Y214503D01*
X253992Y213910D01*
X254892Y213537D01*
X255858Y213410D01*
X256824Y213537D01*
X257724Y213910D01*
X258497Y214503D01*
X259090Y215276D01*
X259463Y216176D01*
X259590Y217142D01*
X259463Y218108D01*
X259090Y219008D01*
X258497Y219781D01*
X257724Y220374D01*
X256824Y220746D01*
X255858Y220874D01*
D02*
G37*
G36*
X245858D02*
X244892Y220746D01*
X243992Y220374D01*
X243219Y219781D01*
X242626Y219008D01*
X242253Y218108D01*
X242126Y217142D01*
X242253Y216176D01*
X242626Y215276D01*
X243219Y214503D01*
X243992Y213910D01*
X244892Y213537D01*
X245858Y213410D01*
X246824Y213537D01*
X247724Y213910D01*
X248497Y214503D01*
X249090Y215276D01*
X249463Y216176D01*
X249590Y217142D01*
X249463Y218108D01*
X249090Y219008D01*
X248497Y219781D01*
X247724Y220374D01*
X246824Y220746D01*
X245858Y220874D01*
D02*
G37*
G36*
X235858D02*
X234892Y220746D01*
X233992Y220374D01*
X233219Y219781D01*
X232626Y219008D01*
X232254Y218108D01*
X232126Y217142D01*
X232254Y216176D01*
X232626Y215276D01*
X233219Y214503D01*
X233992Y213910D01*
X234892Y213537D01*
X235858Y213410D01*
X236824Y213537D01*
X237724Y213910D01*
X238497Y214503D01*
X239090Y215276D01*
X239463Y216176D01*
X239590Y217142D01*
X239463Y218108D01*
X239090Y219008D01*
X238497Y219781D01*
X237724Y220374D01*
X236824Y220746D01*
X235858Y220874D01*
D02*
G37*
G36*
X225858D02*
X224892Y220746D01*
X223992Y220374D01*
X223219Y219781D01*
X222626Y219008D01*
X222253Y218108D01*
X222126Y217142D01*
X222253Y216176D01*
X222626Y215276D01*
X223219Y214503D01*
X223992Y213910D01*
X224892Y213537D01*
X225858Y213410D01*
X226824Y213537D01*
X227724Y213910D01*
X228497Y214503D01*
X229090Y215276D01*
X229463Y216176D01*
X229590Y217142D01*
X229463Y218108D01*
X229090Y219008D01*
X228497Y219781D01*
X227724Y220374D01*
X226824Y220746D01*
X225858Y220874D01*
D02*
G37*
G36*
X215858D02*
X214892Y220746D01*
X213992Y220374D01*
X213219Y219781D01*
X212626Y219008D01*
X212253Y218108D01*
X212126Y217142D01*
X212253Y216176D01*
X212626Y215276D01*
X213219Y214503D01*
X213992Y213910D01*
X214892Y213537D01*
X215858Y213410D01*
X216824Y213537D01*
X217724Y213910D01*
X218497Y214503D01*
X219090Y215276D01*
X219463Y216176D01*
X219590Y217142D01*
X219463Y218108D01*
X219090Y219008D01*
X218497Y219781D01*
X217724Y220374D01*
X216824Y220746D01*
X215858Y220874D01*
D02*
G37*
G36*
X205858D02*
X204892Y220746D01*
X203992Y220374D01*
X203219Y219781D01*
X202626Y219008D01*
X202254Y218108D01*
X202126Y217142D01*
X202254Y216176D01*
X202626Y215276D01*
X203219Y214503D01*
X203992Y213910D01*
X204892Y213537D01*
X205858Y213410D01*
X206824Y213537D01*
X207724Y213910D01*
X208497Y214503D01*
X209090Y215276D01*
X209463Y216176D01*
X209590Y217142D01*
X209463Y218108D01*
X209090Y219008D01*
X208497Y219781D01*
X207724Y220374D01*
X206824Y220746D01*
X205858Y220874D01*
D02*
G37*
G36*
X195858D02*
X194892Y220746D01*
X193992Y220374D01*
X193219Y219781D01*
X192626Y219008D01*
X192253Y218108D01*
X192126Y217142D01*
X192253Y216176D01*
X192626Y215276D01*
X193219Y214503D01*
X193992Y213910D01*
X194892Y213537D01*
X195858Y213410D01*
X196824Y213537D01*
X197724Y213910D01*
X198497Y214503D01*
X199090Y215276D01*
X199463Y216176D01*
X199590Y217142D01*
X199463Y218108D01*
X199090Y219008D01*
X198497Y219781D01*
X197724Y220374D01*
X196824Y220746D01*
X195858Y220874D01*
D02*
G37*
G36*
X185858D02*
X184892Y220746D01*
X183992Y220374D01*
X183219Y219781D01*
X182626Y219008D01*
X182254Y218108D01*
X182126Y217142D01*
X182254Y216176D01*
X182626Y215276D01*
X183219Y214503D01*
X183992Y213910D01*
X184892Y213537D01*
X185858Y213410D01*
X186824Y213537D01*
X187724Y213910D01*
X188497Y214503D01*
X189090Y215276D01*
X189463Y216176D01*
X189590Y217142D01*
X189463Y218108D01*
X189090Y219008D01*
X188497Y219781D01*
X187724Y220374D01*
X186824Y220746D01*
X185858Y220874D01*
D02*
G37*
G36*
X175858D02*
X174892Y220746D01*
X173992Y220374D01*
X173219Y219781D01*
X172626Y219008D01*
X172254Y218108D01*
X172126Y217142D01*
X172254Y216176D01*
X172626Y215276D01*
X173219Y214503D01*
X173992Y213910D01*
X174892Y213537D01*
X175858Y213410D01*
X176824Y213537D01*
X177724Y213910D01*
X178497Y214503D01*
X179090Y215276D01*
X179463Y216176D01*
X179590Y217142D01*
X179463Y218108D01*
X179090Y219008D01*
X178497Y219781D01*
X177724Y220374D01*
X176824Y220746D01*
X175858Y220874D01*
D02*
G37*
G36*
X89000Y211000D02*
X86500D01*
Y208500D01*
X89000D01*
Y211000D01*
D02*
G37*
G36*
X75000D02*
X72500D01*
Y208500D01*
X75000D01*
Y211000D01*
D02*
G37*
G36*
X61000D02*
X58500D01*
Y208500D01*
X61000D01*
Y211000D01*
D02*
G37*
G36*
X47000D02*
X44500D01*
Y208500D01*
X47000D01*
Y211000D01*
D02*
G37*
G36*
X33000D02*
X30500D01*
Y208500D01*
X33000D01*
Y211000D01*
D02*
G37*
G36*
X97500D02*
X95000D01*
Y208500D01*
X97500D01*
Y211000D01*
D02*
G37*
G36*
X83500D02*
X81000D01*
Y208500D01*
X83500D01*
Y211000D01*
D02*
G37*
G36*
X69500D02*
X67000D01*
Y208500D01*
X69500D01*
Y211000D01*
D02*
G37*
G36*
X55500D02*
X53000D01*
Y208500D01*
X55500D01*
Y211000D01*
D02*
G37*
G36*
X41500D02*
X39000D01*
Y208500D01*
X41500D01*
Y211000D01*
D02*
G37*
G36*
X27500D02*
X25000D01*
Y208500D01*
X27500D01*
Y211000D01*
D02*
G37*
G36*
X103000Y205500D02*
X100500D01*
Y203000D01*
X103000D01*
Y205500D01*
D02*
G37*
G36*
X97500D02*
X95000D01*
Y203000D01*
X97500D01*
Y205500D01*
D02*
G37*
G36*
X89000D02*
X86500D01*
Y203000D01*
X89000D01*
Y205500D01*
D02*
G37*
G36*
X83500D02*
X81000D01*
Y203000D01*
X83500D01*
Y205500D01*
D02*
G37*
G36*
X75000D02*
X72500D01*
Y203000D01*
X75000D01*
Y205500D01*
D02*
G37*
G36*
X69500D02*
X67000D01*
Y203000D01*
X69500D01*
Y205500D01*
D02*
G37*
G36*
X61000D02*
X58500D01*
Y203000D01*
X61000D01*
Y205500D01*
D02*
G37*
G36*
X55500D02*
X53000D01*
Y203000D01*
X55500D01*
Y205500D01*
D02*
G37*
G36*
X47000D02*
X44500D01*
Y203000D01*
X47000D01*
Y205500D01*
D02*
G37*
G36*
X41500D02*
X39000D01*
Y203000D01*
X41500D01*
Y205500D01*
D02*
G37*
G36*
X33000D02*
X30500D01*
Y203000D01*
X33000D01*
Y205500D01*
D02*
G37*
G36*
X27500D02*
X25000D01*
Y203000D01*
X27500D01*
Y205500D01*
D02*
G37*
G36*
X287358Y190850D02*
Y188642D01*
X289566D01*
X289352Y189159D01*
X288711Y189995D01*
X287876Y190636D01*
X287358Y190850D01*
D02*
G37*
G36*
X157358D02*
Y188642D01*
X159566D01*
X159352Y189159D01*
X158711Y189995D01*
X157876Y190636D01*
X157358Y190850D01*
D02*
G37*
G36*
X284358D02*
X283841Y190636D01*
X283005Y189995D01*
X282364Y189159D01*
X282150Y188642D01*
X284358D01*
Y190850D01*
D02*
G37*
G36*
X154358D02*
X153841Y190636D01*
X153005Y189995D01*
X152364Y189159D01*
X152150Y188642D01*
X154358D01*
Y190850D01*
D02*
G37*
G36*
X289566Y185642D02*
X287358D01*
Y183433D01*
X287876Y183648D01*
X288711Y184289D01*
X289352Y185125D01*
X289566Y185642D01*
D02*
G37*
G36*
X159566D02*
X157358D01*
Y183433D01*
X157876Y183648D01*
X158711Y184289D01*
X159352Y185125D01*
X159566Y185642D01*
D02*
G37*
G36*
X154358D02*
X152150D01*
X152364Y185125D01*
X153005Y184289D01*
X153841Y183648D01*
X154358Y183433D01*
Y185642D01*
D02*
G37*
G36*
X284358D02*
X282150D01*
X282364Y185125D01*
X283005Y184289D01*
X283841Y183648D01*
X284358Y183433D01*
Y185642D01*
D02*
G37*
G36*
X375858Y190874D02*
X374892Y190746D01*
X373992Y190374D01*
X373219Y189781D01*
X372626Y189008D01*
X372253Y188108D01*
X372126Y187142D01*
X372253Y186176D01*
X372626Y185276D01*
X373219Y184503D01*
X373992Y183910D01*
X374892Y183537D01*
X375858Y183410D01*
X376824Y183537D01*
X377724Y183910D01*
X378497Y184503D01*
X379090Y185276D01*
X379463Y186176D01*
X379590Y187142D01*
X379463Y188108D01*
X379090Y189008D01*
X378497Y189781D01*
X377724Y190374D01*
X376824Y190746D01*
X375858Y190874D01*
D02*
G37*
G36*
X365858D02*
X364892Y190746D01*
X363992Y190374D01*
X363219Y189781D01*
X362626Y189008D01*
X362253Y188108D01*
X362126Y187142D01*
X362253Y186176D01*
X362626Y185276D01*
X363219Y184503D01*
X363992Y183910D01*
X364892Y183537D01*
X365858Y183410D01*
X366824Y183537D01*
X367724Y183910D01*
X368497Y184503D01*
X369090Y185276D01*
X369463Y186176D01*
X369590Y187142D01*
X369463Y188108D01*
X369090Y189008D01*
X368497Y189781D01*
X367724Y190374D01*
X366824Y190746D01*
X365858Y190874D01*
D02*
G37*
G36*
X355858D02*
X354892Y190746D01*
X353992Y190374D01*
X353219Y189781D01*
X352626Y189008D01*
X352254Y188108D01*
X352126Y187142D01*
X352254Y186176D01*
X352626Y185276D01*
X353219Y184503D01*
X353992Y183910D01*
X354892Y183537D01*
X355858Y183410D01*
X356824Y183537D01*
X357724Y183910D01*
X358497Y184503D01*
X359090Y185276D01*
X359463Y186176D01*
X359590Y187142D01*
X359463Y188108D01*
X359090Y189008D01*
X358497Y189781D01*
X357724Y190374D01*
X356824Y190746D01*
X355858Y190874D01*
D02*
G37*
G36*
X345858D02*
X344892Y190746D01*
X343992Y190374D01*
X343219Y189781D01*
X342626Y189008D01*
X342253Y188108D01*
X342126Y187142D01*
X342253Y186176D01*
X342626Y185276D01*
X343219Y184503D01*
X343992Y183910D01*
X344892Y183537D01*
X345858Y183410D01*
X346824Y183537D01*
X347724Y183910D01*
X348497Y184503D01*
X349090Y185276D01*
X349463Y186176D01*
X349590Y187142D01*
X349463Y188108D01*
X349090Y189008D01*
X348497Y189781D01*
X347724Y190374D01*
X346824Y190746D01*
X345858Y190874D01*
D02*
G37*
G36*
X335858D02*
X334892Y190746D01*
X333992Y190374D01*
X333219Y189781D01*
X332626Y189008D01*
X332254Y188108D01*
X332126Y187142D01*
X332254Y186176D01*
X332626Y185276D01*
X333219Y184503D01*
X333992Y183910D01*
X334892Y183537D01*
X335858Y183410D01*
X336824Y183537D01*
X337724Y183910D01*
X338497Y184503D01*
X339090Y185276D01*
X339463Y186176D01*
X339590Y187142D01*
X339463Y188108D01*
X339090Y189008D01*
X338497Y189781D01*
X337724Y190374D01*
X336824Y190746D01*
X335858Y190874D01*
D02*
G37*
G36*
X325858D02*
X324892Y190746D01*
X323992Y190374D01*
X323219Y189781D01*
X322626Y189008D01*
X322253Y188108D01*
X322126Y187142D01*
X322253Y186176D01*
X322626Y185276D01*
X323219Y184503D01*
X323992Y183910D01*
X324892Y183537D01*
X325858Y183410D01*
X326824Y183537D01*
X327724Y183910D01*
X328497Y184503D01*
X329090Y185276D01*
X329463Y186176D01*
X329590Y187142D01*
X329463Y188108D01*
X329090Y189008D01*
X328497Y189781D01*
X327724Y190374D01*
X326824Y190746D01*
X325858Y190874D01*
D02*
G37*
G36*
X315858D02*
X314892Y190746D01*
X313992Y190374D01*
X313219Y189781D01*
X312626Y189008D01*
X312253Y188108D01*
X312126Y187142D01*
X312253Y186176D01*
X312626Y185276D01*
X313219Y184503D01*
X313992Y183910D01*
X314892Y183537D01*
X315858Y183410D01*
X316824Y183537D01*
X317724Y183910D01*
X318497Y184503D01*
X319090Y185276D01*
X319463Y186176D01*
X319590Y187142D01*
X319463Y188108D01*
X319090Y189008D01*
X318497Y189781D01*
X317724Y190374D01*
X316824Y190746D01*
X315858Y190874D01*
D02*
G37*
G36*
X305858D02*
X304892Y190746D01*
X303992Y190374D01*
X303219Y189781D01*
X302626Y189008D01*
X302254Y188108D01*
X302126Y187142D01*
X302254Y186176D01*
X302626Y185276D01*
X303219Y184503D01*
X303992Y183910D01*
X304892Y183537D01*
X305858Y183410D01*
X306824Y183537D01*
X307724Y183910D01*
X308497Y184503D01*
X309090Y185276D01*
X309463Y186176D01*
X309590Y187142D01*
X309463Y188108D01*
X309090Y189008D01*
X308497Y189781D01*
X307724Y190374D01*
X306824Y190746D01*
X305858Y190874D01*
D02*
G37*
G36*
X295858D02*
X294892Y190746D01*
X293992Y190374D01*
X293219Y189781D01*
X292626Y189008D01*
X292253Y188108D01*
X292126Y187142D01*
X292253Y186176D01*
X292626Y185276D01*
X293219Y184503D01*
X293992Y183910D01*
X294892Y183537D01*
X295858Y183410D01*
X296824Y183537D01*
X297724Y183910D01*
X298497Y184503D01*
X299090Y185276D01*
X299463Y186176D01*
X299590Y187142D01*
X299463Y188108D01*
X299090Y189008D01*
X298497Y189781D01*
X297724Y190374D01*
X296824Y190746D01*
X295858Y190874D01*
D02*
G37*
G36*
X275858D02*
X274892Y190746D01*
X273992Y190374D01*
X273219Y189781D01*
X272626Y189008D01*
X272253Y188108D01*
X272126Y187142D01*
X272253Y186176D01*
X272626Y185276D01*
X273219Y184503D01*
X273992Y183910D01*
X274892Y183537D01*
X275858Y183410D01*
X276824Y183537D01*
X277724Y183910D01*
X278497Y184503D01*
X279090Y185276D01*
X279463Y186176D01*
X279590Y187142D01*
X279463Y188108D01*
X279090Y189008D01*
X278497Y189781D01*
X277724Y190374D01*
X276824Y190746D01*
X275858Y190874D01*
D02*
G37*
G36*
X265858D02*
X264892Y190746D01*
X263992Y190374D01*
X263219Y189781D01*
X262626Y189008D01*
X262253Y188108D01*
X262126Y187142D01*
X262253Y186176D01*
X262626Y185276D01*
X263219Y184503D01*
X263992Y183910D01*
X264892Y183537D01*
X265858Y183410D01*
X266824Y183537D01*
X267724Y183910D01*
X268497Y184503D01*
X269090Y185276D01*
X269463Y186176D01*
X269590Y187142D01*
X269463Y188108D01*
X269090Y189008D01*
X268497Y189781D01*
X267724Y190374D01*
X266824Y190746D01*
X265858Y190874D01*
D02*
G37*
G36*
X255858D02*
X254892Y190746D01*
X253992Y190374D01*
X253219Y189781D01*
X252626Y189008D01*
X252254Y188108D01*
X252126Y187142D01*
X252254Y186176D01*
X252626Y185276D01*
X253219Y184503D01*
X253992Y183910D01*
X254892Y183537D01*
X255858Y183410D01*
X256824Y183537D01*
X257724Y183910D01*
X258497Y184503D01*
X259090Y185276D01*
X259463Y186176D01*
X259590Y187142D01*
X259463Y188108D01*
X259090Y189008D01*
X258497Y189781D01*
X257724Y190374D01*
X256824Y190746D01*
X255858Y190874D01*
D02*
G37*
G36*
X245858D02*
X244892Y190746D01*
X243992Y190374D01*
X243219Y189781D01*
X242626Y189008D01*
X242253Y188108D01*
X242126Y187142D01*
X242253Y186176D01*
X242520Y185533D01*
X202210Y145223D01*
X139957D01*
X139795Y145614D01*
X139282Y146282D01*
X138614Y146795D01*
X137835Y147118D01*
X137000Y147228D01*
X136165Y147118D01*
X135386Y146795D01*
X134718Y146282D01*
X134205Y145614D01*
X133882Y144835D01*
X133772Y144000D01*
X133882Y143165D01*
X134205Y142386D01*
X134718Y141718D01*
X135386Y141205D01*
X136165Y140882D01*
X137000Y140772D01*
X137835Y140882D01*
X138614Y141205D01*
X139282Y141718D01*
X139795Y142386D01*
X139957Y142777D01*
X202716D01*
X203185Y142870D01*
X203582Y143135D01*
X244250Y183803D01*
X244892Y183537D01*
X245858Y183410D01*
X246824Y183537D01*
X247724Y183910D01*
X248497Y184503D01*
X249090Y185276D01*
X249463Y186176D01*
X249590Y187142D01*
X249463Y188108D01*
X249090Y189008D01*
X248497Y189781D01*
X247724Y190374D01*
X246824Y190746D01*
X245858Y190874D01*
D02*
G37*
G36*
X235858D02*
X234892Y190746D01*
X233992Y190374D01*
X233219Y189781D01*
X232626Y189008D01*
X232254Y188108D01*
X232126Y187142D01*
X232254Y186176D01*
X232626Y185276D01*
X233219Y184503D01*
X233992Y183910D01*
X234892Y183537D01*
X235858Y183410D01*
X236824Y183537D01*
X237724Y183910D01*
X238497Y184503D01*
X239090Y185276D01*
X239463Y186176D01*
X239590Y187142D01*
X239463Y188108D01*
X239090Y189008D01*
X238497Y189781D01*
X237724Y190374D01*
X236824Y190746D01*
X235858Y190874D01*
D02*
G37*
G36*
X205858D02*
X204892Y190746D01*
X203992Y190374D01*
X203219Y189781D01*
X202626Y189008D01*
X202254Y188108D01*
X202126Y187142D01*
X202254Y186176D01*
X202626Y185276D01*
X203219Y184503D01*
X203992Y183910D01*
X204892Y183537D01*
X205858Y183410D01*
X206824Y183537D01*
X207724Y183910D01*
X208497Y184503D01*
X209090Y185276D01*
X209463Y186176D01*
X209590Y187142D01*
X209463Y188108D01*
X209090Y189008D01*
X208497Y189781D01*
X207724Y190374D01*
X206824Y190746D01*
X205858Y190874D01*
D02*
G37*
G36*
X195858D02*
X194892Y190746D01*
X193992Y190374D01*
X193219Y189781D01*
X192626Y189008D01*
X192253Y188108D01*
X192126Y187142D01*
X192253Y186176D01*
X192626Y185276D01*
X193219Y184503D01*
X193992Y183910D01*
X194892Y183537D01*
X195858Y183410D01*
X196824Y183537D01*
X197724Y183910D01*
X198497Y184503D01*
X199090Y185276D01*
X199463Y186176D01*
X199590Y187142D01*
X199463Y188108D01*
X199090Y189008D01*
X198497Y189781D01*
X197724Y190374D01*
X196824Y190746D01*
X195858Y190874D01*
D02*
G37*
G36*
X185858D02*
X184892Y190746D01*
X183992Y190374D01*
X183219Y189781D01*
X182626Y189008D01*
X182254Y188108D01*
X182126Y187142D01*
X182254Y186176D01*
X182626Y185276D01*
X183219Y184503D01*
X183992Y183910D01*
X184892Y183537D01*
X185858Y183410D01*
X186824Y183537D01*
X187724Y183910D01*
X188497Y184503D01*
X189090Y185276D01*
X189463Y186176D01*
X189590Y187142D01*
X189463Y188108D01*
X189090Y189008D01*
X188497Y189781D01*
X187724Y190374D01*
X186824Y190746D01*
X185858Y190874D01*
D02*
G37*
G36*
X175858D02*
X174892Y190746D01*
X173992Y190374D01*
X173219Y189781D01*
X172626Y189008D01*
X172254Y188108D01*
X172126Y187142D01*
X172254Y186176D01*
X172626Y185276D01*
X173219Y184503D01*
X173992Y183910D01*
X174892Y183537D01*
X175858Y183410D01*
X176824Y183537D01*
X177724Y183910D01*
X178497Y184503D01*
X179090Y185276D01*
X179463Y186176D01*
X179590Y187142D01*
X179463Y188108D01*
X179090Y189008D01*
X178497Y189781D01*
X177724Y190374D01*
X176824Y190746D01*
X175858Y190874D01*
D02*
G37*
G36*
X145858D02*
X144892Y190746D01*
X143992Y190374D01*
X143219Y189781D01*
X142626Y189008D01*
X142253Y188108D01*
X142126Y187142D01*
X142253Y186176D01*
X142626Y185276D01*
X143219Y184503D01*
X143992Y183910D01*
X144892Y183537D01*
X145858Y183410D01*
X146824Y183537D01*
X147724Y183910D01*
X148497Y184503D01*
X149090Y185276D01*
X149463Y186176D01*
X149590Y187142D01*
X149463Y188108D01*
X149090Y189008D01*
X148497Y189781D01*
X147724Y190374D01*
X146824Y190746D01*
X145858Y190874D01*
D02*
G37*
G36*
X180000Y165228D02*
X179165Y165118D01*
X178386Y164795D01*
X177718Y164282D01*
X177205Y163614D01*
X176882Y162835D01*
X176772Y162000D01*
X176882Y161165D01*
X177044Y160774D01*
X173493Y157223D01*
X97957D01*
X97795Y157614D01*
X97282Y158282D01*
X96614Y158795D01*
X95835Y159118D01*
X95000Y159228D01*
X94165Y159118D01*
X93386Y158795D01*
X92718Y158282D01*
X92205Y157614D01*
X91882Y156835D01*
X91772Y156000D01*
X91882Y155165D01*
X92205Y154386D01*
X92718Y153718D01*
X93386Y153205D01*
X94165Y152882D01*
X95000Y152772D01*
X95835Y152882D01*
X96614Y153205D01*
X97282Y153718D01*
X97795Y154386D01*
X97957Y154777D01*
X174000D01*
X174468Y154870D01*
X174865Y155135D01*
X178774Y159044D01*
X179165Y158882D01*
X180000Y158772D01*
X180835Y158882D01*
X181614Y159205D01*
X182282Y159718D01*
X182795Y160386D01*
X183118Y161165D01*
X183228Y162000D01*
X183118Y162835D01*
X182795Y163614D01*
X182282Y164282D01*
X181614Y164795D01*
X180835Y165118D01*
X180000Y165228D01*
D02*
G37*
G36*
X396000Y149732D02*
X395034Y149605D01*
X394134Y149232D01*
X393361Y148639D01*
X392768Y147866D01*
X392395Y146966D01*
X392268Y146000D01*
X392395Y145034D01*
X392768Y144134D01*
X393361Y143361D01*
X394134Y142768D01*
X395034Y142395D01*
X396000Y142268D01*
X396966Y142395D01*
X397866Y142768D01*
X398639Y143361D01*
X399232Y144134D01*
X399605Y145034D01*
X399732Y146000D01*
X399605Y146966D01*
X399232Y147866D01*
X398639Y148639D01*
X397866Y149232D01*
X396966Y149605D01*
X396000Y149732D01*
D02*
G37*
G36*
X427500Y137167D02*
Y135500D01*
X429167D01*
X429057Y135765D01*
X428496Y136496D01*
X427765Y137057D01*
X427500Y137167D01*
D02*
G37*
G36*
X424500D02*
X424235Y137057D01*
X423504Y136496D01*
X422943Y135765D01*
X422833Y135500D01*
X424500D01*
Y137167D01*
D02*
G37*
G36*
X396000Y139732D02*
X395034Y139605D01*
X394134Y139232D01*
X393361Y138639D01*
X392768Y137866D01*
X392395Y136966D01*
X392268Y136000D01*
X392395Y135034D01*
X392768Y134134D01*
X393361Y133361D01*
X394134Y132768D01*
X395034Y132395D01*
X396000Y132268D01*
X396966Y132395D01*
X397866Y132768D01*
X398639Y133361D01*
X399232Y134134D01*
X399605Y135034D01*
X399732Y136000D01*
X399605Y136966D01*
X399232Y137866D01*
X398639Y138639D01*
X397866Y139232D01*
X396966Y139605D01*
X396000Y139732D01*
D02*
G37*
G36*
X429167Y132500D02*
X422833D01*
X422943Y132235D01*
X423504Y131504D01*
X423835Y131250D01*
Y130750D01*
X423504Y130496D01*
X422943Y129765D01*
X422833Y129500D01*
X429167D01*
X429057Y129765D01*
X428496Y130496D01*
X428165Y130750D01*
Y131250D01*
X428496Y131504D01*
X429057Y132235D01*
X429167Y132500D01*
D02*
G37*
G36*
X147358Y130850D02*
Y128642D01*
X149566D01*
X149352Y129159D01*
X148711Y129995D01*
X147875Y130636D01*
X147358Y130850D01*
D02*
G37*
G36*
X144358D02*
X143841Y130636D01*
X143005Y129995D01*
X142364Y129159D01*
X142150Y128642D01*
X144358D01*
Y130850D01*
D02*
G37*
G36*
X429167Y126500D02*
X422833D01*
X422943Y126235D01*
X423504Y125504D01*
X423835Y125250D01*
Y124750D01*
X423504Y124496D01*
X422943Y123765D01*
X422833Y123500D01*
X429167D01*
X429057Y123765D01*
X428496Y124496D01*
X428165Y124750D01*
Y125250D01*
X428496Y125504D01*
X429057Y126235D01*
X429167Y126500D01*
D02*
G37*
G36*
X149566Y125642D02*
X147358D01*
Y123433D01*
X147875Y123648D01*
X148711Y124289D01*
X149352Y125125D01*
X149566Y125642D01*
D02*
G37*
G36*
X144358D02*
X142150D01*
X142364Y125125D01*
X143005Y124289D01*
X143841Y123648D01*
X144358Y123433D01*
Y125642D01*
D02*
G37*
G36*
X375858Y130874D02*
X374892Y130746D01*
X373992Y130374D01*
X373219Y129781D01*
X372626Y129008D01*
X372253Y128108D01*
X372126Y127142D01*
X372253Y126176D01*
X372626Y125276D01*
X373219Y124503D01*
X373992Y123910D01*
X374892Y123537D01*
X375858Y123410D01*
X376824Y123537D01*
X377724Y123910D01*
X378497Y124503D01*
X379090Y125276D01*
X379463Y126176D01*
X379590Y127142D01*
X379463Y128108D01*
X379090Y129008D01*
X378497Y129781D01*
X377724Y130374D01*
X376824Y130746D01*
X375858Y130874D01*
D02*
G37*
G36*
X365858D02*
X364892Y130746D01*
X363992Y130374D01*
X363219Y129781D01*
X362626Y129008D01*
X362253Y128108D01*
X362126Y127142D01*
X362253Y126176D01*
X362626Y125276D01*
X363219Y124503D01*
X363992Y123910D01*
X364892Y123537D01*
X365858Y123410D01*
X366824Y123537D01*
X367724Y123910D01*
X368497Y124503D01*
X369090Y125276D01*
X369463Y126176D01*
X369590Y127142D01*
X369463Y128108D01*
X369090Y129008D01*
X368497Y129781D01*
X367724Y130374D01*
X366824Y130746D01*
X365858Y130874D01*
D02*
G37*
G36*
X355858D02*
X354892Y130746D01*
X353992Y130374D01*
X353219Y129781D01*
X352626Y129008D01*
X352254Y128108D01*
X352126Y127142D01*
X352254Y126176D01*
X352626Y125276D01*
X353219Y124503D01*
X353992Y123910D01*
X354892Y123537D01*
X355858Y123410D01*
X356824Y123537D01*
X357724Y123910D01*
X358497Y124503D01*
X359090Y125276D01*
X359463Y126176D01*
X359590Y127142D01*
X359463Y128108D01*
X359090Y129008D01*
X358497Y129781D01*
X357724Y130374D01*
X356824Y130746D01*
X355858Y130874D01*
D02*
G37*
G36*
X345858D02*
X344892Y130746D01*
X343992Y130374D01*
X343219Y129781D01*
X342626Y129008D01*
X342253Y128108D01*
X342126Y127142D01*
X342253Y126176D01*
X342626Y125276D01*
X343219Y124503D01*
X343992Y123910D01*
X344892Y123537D01*
X345858Y123410D01*
X346824Y123537D01*
X347724Y123910D01*
X348497Y124503D01*
X349090Y125276D01*
X349463Y126176D01*
X349590Y127142D01*
X349463Y128108D01*
X349090Y129008D01*
X348497Y129781D01*
X347724Y130374D01*
X346824Y130746D01*
X345858Y130874D01*
D02*
G37*
G36*
X335858D02*
X334892Y130746D01*
X333992Y130374D01*
X333219Y129781D01*
X332626Y129008D01*
X332254Y128108D01*
X332126Y127142D01*
X332254Y126176D01*
X332310Y126040D01*
X320493Y114224D01*
X302000D01*
X301532Y114130D01*
X301135Y113865D01*
X284993Y97723D01*
X284728Y97326D01*
X284635Y96858D01*
Y95640D01*
X283992Y95374D01*
X283219Y94781D01*
X282626Y94008D01*
X282254Y93108D01*
X282126Y92142D01*
X282254Y91176D01*
X282626Y90276D01*
X283219Y89503D01*
X283992Y88910D01*
X284892Y88537D01*
X285858Y88410D01*
X286824Y88537D01*
X287724Y88910D01*
X288497Y89503D01*
X289090Y90276D01*
X289463Y91176D01*
X289590Y92142D01*
X289463Y93108D01*
X289090Y94008D01*
X288497Y94781D01*
X287724Y95374D01*
X287082Y95640D01*
Y96351D01*
X302507Y111776D01*
X321000D01*
X321468Y111870D01*
X321865Y112135D01*
X333793Y124063D01*
X333992Y123910D01*
X334892Y123537D01*
X335858Y123410D01*
X336824Y123537D01*
X337724Y123910D01*
X338497Y124503D01*
X339090Y125276D01*
X339463Y126176D01*
X339590Y127142D01*
X339463Y128108D01*
X339090Y129008D01*
X338497Y129781D01*
X337724Y130374D01*
X336824Y130746D01*
X335858Y130874D01*
D02*
G37*
G36*
X325858D02*
X324892Y130746D01*
X323992Y130374D01*
X323219Y129781D01*
X322626Y129008D01*
X322253Y128108D01*
X322126Y127142D01*
X322253Y126176D01*
X322626Y125276D01*
X323219Y124503D01*
X323992Y123910D01*
X324892Y123537D01*
X325858Y123410D01*
X326824Y123537D01*
X327724Y123910D01*
X328497Y124503D01*
X329090Y125276D01*
X329463Y126176D01*
X329590Y127142D01*
X329463Y128108D01*
X329090Y129008D01*
X328497Y129781D01*
X327724Y130374D01*
X326824Y130746D01*
X325858Y130874D01*
D02*
G37*
G36*
X315858D02*
X314892Y130746D01*
X313992Y130374D01*
X313219Y129781D01*
X312626Y129008D01*
X312253Y128108D01*
X312126Y127142D01*
X312253Y126176D01*
X312626Y125276D01*
X313219Y124503D01*
X313992Y123910D01*
X314892Y123537D01*
X315858Y123410D01*
X316824Y123537D01*
X317724Y123910D01*
X318497Y124503D01*
X319090Y125276D01*
X319463Y126176D01*
X319590Y127142D01*
X319463Y128108D01*
X319090Y129008D01*
X318497Y129781D01*
X317724Y130374D01*
X316824Y130746D01*
X315858Y130874D01*
D02*
G37*
G36*
X305858D02*
X304892Y130746D01*
X303992Y130374D01*
X303219Y129781D01*
X302626Y129008D01*
X302254Y128108D01*
X302126Y127142D01*
X302254Y126176D01*
X302626Y125276D01*
X303219Y124503D01*
X303992Y123910D01*
X304892Y123537D01*
X305858Y123410D01*
X306824Y123537D01*
X307724Y123910D01*
X308497Y124503D01*
X309090Y125276D01*
X309463Y126176D01*
X309590Y127142D01*
X309463Y128108D01*
X309090Y129008D01*
X308497Y129781D01*
X307724Y130374D01*
X306824Y130746D01*
X305858Y130874D01*
D02*
G37*
G36*
X295858D02*
X294892Y130746D01*
X293992Y130374D01*
X293219Y129781D01*
X292626Y129008D01*
X292253Y128108D01*
X292126Y127142D01*
X292253Y126176D01*
X292626Y125276D01*
X293219Y124503D01*
X293992Y123910D01*
X294892Y123537D01*
X295858Y123410D01*
X296824Y123537D01*
X297724Y123910D01*
X298497Y124503D01*
X299090Y125276D01*
X299463Y126176D01*
X299590Y127142D01*
X299463Y128108D01*
X299090Y129008D01*
X298497Y129781D01*
X297724Y130374D01*
X296824Y130746D01*
X295858Y130874D01*
D02*
G37*
G36*
X285858D02*
X284892Y130746D01*
X283992Y130374D01*
X283219Y129781D01*
X282626Y129008D01*
X282254Y128108D01*
X282126Y127142D01*
X282254Y126176D01*
X282626Y125276D01*
X283219Y124503D01*
X283992Y123910D01*
X284892Y123537D01*
X285858Y123410D01*
X286824Y123537D01*
X287724Y123910D01*
X288497Y124503D01*
X289090Y125276D01*
X289463Y126176D01*
X289590Y127142D01*
X289463Y128108D01*
X289090Y129008D01*
X288497Y129781D01*
X287724Y130374D01*
X286824Y130746D01*
X285858Y130874D01*
D02*
G37*
G36*
X275858D02*
X274892Y130746D01*
X273992Y130374D01*
X273219Y129781D01*
X272626Y129008D01*
X272253Y128108D01*
X272126Y127142D01*
X272253Y126176D01*
X272626Y125276D01*
X273219Y124503D01*
X273992Y123910D01*
X274892Y123537D01*
X275858Y123410D01*
X276824Y123537D01*
X277724Y123910D01*
X278497Y124503D01*
X279090Y125276D01*
X279463Y126176D01*
X279590Y127142D01*
X279463Y128108D01*
X279090Y129008D01*
X278497Y129781D01*
X277724Y130374D01*
X276824Y130746D01*
X275858Y130874D01*
D02*
G37*
G36*
X265858D02*
X264892Y130746D01*
X263992Y130374D01*
X263219Y129781D01*
X262626Y129008D01*
X262253Y128108D01*
X262126Y127142D01*
X262253Y126176D01*
X262626Y125276D01*
X263219Y124503D01*
X263992Y123910D01*
X264892Y123537D01*
X265858Y123410D01*
X266824Y123537D01*
X267724Y123910D01*
X268497Y124503D01*
X269090Y125276D01*
X269463Y126176D01*
X269590Y127142D01*
X269463Y128108D01*
X269090Y129008D01*
X268497Y129781D01*
X267724Y130374D01*
X266824Y130746D01*
X265858Y130874D01*
D02*
G37*
G36*
X255858D02*
X254892Y130746D01*
X253992Y130374D01*
X253219Y129781D01*
X252626Y129008D01*
X252254Y128108D01*
X252126Y127142D01*
X252254Y126176D01*
X252626Y125276D01*
X253219Y124503D01*
X253992Y123910D01*
X254892Y123537D01*
X255858Y123410D01*
X256824Y123537D01*
X257724Y123910D01*
X258497Y124503D01*
X259090Y125276D01*
X259463Y126176D01*
X259590Y127142D01*
X259463Y128108D01*
X259090Y129008D01*
X258497Y129781D01*
X257724Y130374D01*
X256824Y130746D01*
X255858Y130874D01*
D02*
G37*
G36*
X245858D02*
X244892Y130746D01*
X243992Y130374D01*
X243219Y129781D01*
X242626Y129008D01*
X242253Y128108D01*
X242126Y127142D01*
X242253Y126176D01*
X242626Y125276D01*
X243219Y124503D01*
X243992Y123910D01*
X244892Y123537D01*
X245858Y123410D01*
X246824Y123537D01*
X247724Y123910D01*
X248497Y124503D01*
X249090Y125276D01*
X249463Y126176D01*
X249590Y127142D01*
X249463Y128108D01*
X249090Y129008D01*
X248497Y129781D01*
X247724Y130374D01*
X246824Y130746D01*
X245858Y130874D01*
D02*
G37*
G36*
X235858D02*
X234892Y130746D01*
X233992Y130374D01*
X233219Y129781D01*
X232626Y129008D01*
X232254Y128108D01*
X232126Y127142D01*
X232254Y126176D01*
X232626Y125276D01*
X233219Y124503D01*
X233992Y123910D01*
X234892Y123537D01*
X235858Y123410D01*
X236824Y123537D01*
X237724Y123910D01*
X238497Y124503D01*
X239090Y125276D01*
X239463Y126176D01*
X239590Y127142D01*
X239463Y128108D01*
X239090Y129008D01*
X238497Y129781D01*
X237724Y130374D01*
X236824Y130746D01*
X235858Y130874D01*
D02*
G37*
G36*
X225858D02*
X224892Y130746D01*
X223992Y130374D01*
X223219Y129781D01*
X222626Y129008D01*
X222253Y128108D01*
X222126Y127142D01*
X222253Y126176D01*
X222626Y125276D01*
X223219Y124503D01*
X223992Y123910D01*
X224892Y123537D01*
X225858Y123410D01*
X226824Y123537D01*
X227724Y123910D01*
X228497Y124503D01*
X229090Y125276D01*
X229463Y126176D01*
X229590Y127142D01*
X229463Y128108D01*
X229090Y129008D01*
X228497Y129781D01*
X227724Y130374D01*
X226824Y130746D01*
X225858Y130874D01*
D02*
G37*
G36*
X215858D02*
X214892Y130746D01*
X213992Y130374D01*
X213219Y129781D01*
X212626Y129008D01*
X212253Y128108D01*
X212126Y127142D01*
X212253Y126176D01*
X212626Y125276D01*
X213219Y124503D01*
X213992Y123910D01*
X214892Y123537D01*
X215858Y123410D01*
X216824Y123537D01*
X217724Y123910D01*
X218497Y124503D01*
X219090Y125276D01*
X219463Y126176D01*
X219590Y127142D01*
X219463Y128108D01*
X219090Y129008D01*
X218497Y129781D01*
X217724Y130374D01*
X216824Y130746D01*
X215858Y130874D01*
D02*
G37*
G36*
X205858D02*
X204892Y130746D01*
X203992Y130374D01*
X203219Y129781D01*
X202626Y129008D01*
X202254Y128108D01*
X202126Y127142D01*
X202254Y126176D01*
X202626Y125276D01*
X203219Y124503D01*
X203992Y123910D01*
X204892Y123537D01*
X205858Y123410D01*
X206824Y123537D01*
X207724Y123910D01*
X208497Y124503D01*
X209090Y125276D01*
X209463Y126176D01*
X209590Y127142D01*
X209463Y128108D01*
X209090Y129008D01*
X208497Y129781D01*
X207724Y130374D01*
X206824Y130746D01*
X205858Y130874D01*
D02*
G37*
G36*
X195858D02*
X194892Y130746D01*
X193992Y130374D01*
X193219Y129781D01*
X192626Y129008D01*
X192253Y128108D01*
X192126Y127142D01*
X192253Y126176D01*
X192626Y125276D01*
X193219Y124503D01*
X193992Y123910D01*
X194892Y123537D01*
X195858Y123410D01*
X196824Y123537D01*
X197724Y123910D01*
X198497Y124503D01*
X199090Y125276D01*
X199463Y126176D01*
X199590Y127142D01*
X199463Y128108D01*
X199090Y129008D01*
X198497Y129781D01*
X197724Y130374D01*
X196824Y130746D01*
X195858Y130874D01*
D02*
G37*
G36*
X185858D02*
X184892Y130746D01*
X183992Y130374D01*
X183219Y129781D01*
X182626Y129008D01*
X182254Y128108D01*
X182126Y127142D01*
X182254Y126176D01*
X182626Y125276D01*
X183219Y124503D01*
X183992Y123910D01*
X184892Y123537D01*
X185858Y123410D01*
X186824Y123537D01*
X187724Y123910D01*
X188497Y124503D01*
X189090Y125276D01*
X189463Y126176D01*
X189590Y127142D01*
X189463Y128108D01*
X189090Y129008D01*
X188497Y129781D01*
X187724Y130374D01*
X186824Y130746D01*
X185858Y130874D01*
D02*
G37*
G36*
X175858D02*
X174892Y130746D01*
X173992Y130374D01*
X173219Y129781D01*
X172626Y129008D01*
X172254Y128108D01*
X172126Y127142D01*
X172254Y126176D01*
X172626Y125276D01*
X173219Y124503D01*
X173992Y123910D01*
X174892Y123537D01*
X175858Y123410D01*
X176824Y123537D01*
X177724Y123910D01*
X178497Y124503D01*
X179090Y125276D01*
X179463Y126176D01*
X179590Y127142D01*
X179463Y128108D01*
X179090Y129008D01*
X178497Y129781D01*
X177724Y130374D01*
X176824Y130746D01*
X175858Y130874D01*
D02*
G37*
G36*
X165858D02*
X164892Y130746D01*
X163992Y130374D01*
X163219Y129781D01*
X162626Y129008D01*
X162253Y128108D01*
X162126Y127142D01*
X162253Y126176D01*
X162626Y125276D01*
X163219Y124503D01*
X163992Y123910D01*
X164892Y123537D01*
X165858Y123410D01*
X166824Y123537D01*
X167724Y123910D01*
X168497Y124503D01*
X169090Y125276D01*
X169463Y126176D01*
X169590Y127142D01*
X169463Y128108D01*
X169090Y129008D01*
X168497Y129781D01*
X167724Y130374D01*
X166824Y130746D01*
X165858Y130874D01*
D02*
G37*
G36*
X155858D02*
X154892Y130746D01*
X153992Y130374D01*
X153219Y129781D01*
X152626Y129008D01*
X152253Y128108D01*
X152126Y127142D01*
X152253Y126176D01*
X152626Y125276D01*
X153219Y124503D01*
X153992Y123910D01*
X154892Y123537D01*
X155858Y123410D01*
X156824Y123537D01*
X157724Y123910D01*
X158497Y124503D01*
X159090Y125276D01*
X159463Y126176D01*
X159590Y127142D01*
X159463Y128108D01*
X159090Y129008D01*
X158497Y129781D01*
X157724Y130374D01*
X156824Y130746D01*
X155858Y130874D01*
D02*
G37*
G36*
X399700Y129700D02*
X392300D01*
Y122300D01*
X399700D01*
Y129700D01*
D02*
G37*
G36*
X429167Y120500D02*
X422833D01*
X422943Y120235D01*
X423504Y119504D01*
X423835Y119250D01*
Y118750D01*
X423504Y118496D01*
X422943Y117765D01*
X422833Y117500D01*
X429167D01*
X429057Y117765D01*
X428496Y118496D01*
X428165Y118750D01*
Y119250D01*
X428496Y119504D01*
X429057Y120235D01*
X429167Y120500D01*
D02*
G37*
G36*
Y114500D02*
X427500D01*
Y112833D01*
X427765Y112943D01*
X428496Y113504D01*
X429057Y114235D01*
X429167Y114500D01*
D02*
G37*
G36*
X424500D02*
X422833D01*
X422943Y114235D01*
X423504Y113504D01*
X424235Y112943D01*
X424500Y112833D01*
Y114500D01*
D02*
G37*
G36*
X325858Y95874D02*
X324892Y95746D01*
X323992Y95374D01*
X323219Y94781D01*
X322626Y94008D01*
X322253Y93108D01*
X322126Y92142D01*
X322253Y91176D01*
X322626Y90276D01*
X323219Y89503D01*
X323992Y88910D01*
X324892Y88537D01*
X325858Y88410D01*
X326824Y88537D01*
X327724Y88910D01*
X328497Y89503D01*
X329090Y90276D01*
X329463Y91176D01*
X329590Y92142D01*
X329463Y93108D01*
X329090Y94008D01*
X328497Y94781D01*
X327724Y95374D01*
X326824Y95746D01*
X325858Y95874D01*
D02*
G37*
G36*
X315858D02*
X314892Y95746D01*
X313992Y95374D01*
X313219Y94781D01*
X312626Y94008D01*
X312253Y93108D01*
X312126Y92142D01*
X312253Y91176D01*
X312626Y90276D01*
X313219Y89503D01*
X313992Y88910D01*
X314892Y88537D01*
X315858Y88410D01*
X316824Y88537D01*
X317724Y88910D01*
X318497Y89503D01*
X319090Y90276D01*
X319463Y91176D01*
X319590Y92142D01*
X319463Y93108D01*
X319090Y94008D01*
X318497Y94781D01*
X317724Y95374D01*
X316824Y95746D01*
X315858Y95874D01*
D02*
G37*
G36*
X305858D02*
X304892Y95746D01*
X303992Y95374D01*
X303219Y94781D01*
X302626Y94008D01*
X302254Y93108D01*
X302126Y92142D01*
X302254Y91176D01*
X302626Y90276D01*
X303219Y89503D01*
X303992Y88910D01*
X304892Y88537D01*
X305858Y88410D01*
X306824Y88537D01*
X307724Y88910D01*
X308497Y89503D01*
X309090Y90276D01*
X309463Y91176D01*
X309590Y92142D01*
X309463Y93108D01*
X309090Y94008D01*
X308497Y94781D01*
X307724Y95374D01*
X306824Y95746D01*
X305858Y95874D01*
D02*
G37*
G36*
X295858D02*
X294892Y95746D01*
X293992Y95374D01*
X293219Y94781D01*
X292626Y94008D01*
X292253Y93108D01*
X292126Y92142D01*
X292253Y91176D01*
X292626Y90276D01*
X293219Y89503D01*
X293992Y88910D01*
X294892Y88537D01*
X295858Y88410D01*
X296824Y88537D01*
X297724Y88910D01*
X298497Y89503D01*
X299090Y90276D01*
X299463Y91176D01*
X299590Y92142D01*
X299463Y93108D01*
X299090Y94008D01*
X298497Y94781D01*
X297724Y95374D01*
X296824Y95746D01*
X295858Y95874D01*
D02*
G37*
G36*
X275858D02*
X274892Y95746D01*
X273992Y95374D01*
X273219Y94781D01*
X272626Y94008D01*
X272253Y93108D01*
X272126Y92142D01*
X272253Y91176D01*
X272626Y90276D01*
X273219Y89503D01*
X273992Y88910D01*
X274892Y88537D01*
X275858Y88410D01*
X276824Y88537D01*
X277724Y88910D01*
X278497Y89503D01*
X279090Y90276D01*
X279463Y91176D01*
X279590Y92142D01*
X279463Y93108D01*
X279090Y94008D01*
X278497Y94781D01*
X277724Y95374D01*
X276824Y95746D01*
X275858Y95874D01*
D02*
G37*
G36*
X265858D02*
X264892Y95746D01*
X263992Y95374D01*
X263219Y94781D01*
X262626Y94008D01*
X262253Y93108D01*
X262126Y92142D01*
X262253Y91176D01*
X262626Y90276D01*
X263219Y89503D01*
X263992Y88910D01*
X264892Y88537D01*
X265858Y88410D01*
X266824Y88537D01*
X267724Y88910D01*
X268497Y89503D01*
X269090Y90276D01*
X269463Y91176D01*
X269590Y92142D01*
X269463Y93108D01*
X269090Y94008D01*
X268497Y94781D01*
X267724Y95374D01*
X266824Y95746D01*
X265858Y95874D01*
D02*
G37*
G36*
X255858D02*
X254892Y95746D01*
X253992Y95374D01*
X253219Y94781D01*
X252626Y94008D01*
X252254Y93108D01*
X252126Y92142D01*
X252254Y91176D01*
X252626Y90276D01*
X253219Y89503D01*
X253992Y88910D01*
X254892Y88537D01*
X255858Y88410D01*
X256824Y88537D01*
X257724Y88910D01*
X258497Y89503D01*
X259090Y90276D01*
X259463Y91176D01*
X259590Y92142D01*
X259463Y93108D01*
X259090Y94008D01*
X258497Y94781D01*
X257724Y95374D01*
X256824Y95746D01*
X255858Y95874D01*
D02*
G37*
G36*
X267358Y30850D02*
Y28642D01*
X269566D01*
X269352Y29159D01*
X268711Y29995D01*
X267876Y30636D01*
X267358Y30850D01*
D02*
G37*
G36*
X264358D02*
X263841Y30636D01*
X263005Y29995D01*
X262364Y29159D01*
X262150Y28642D01*
X264358D01*
Y30850D01*
D02*
G37*
G36*
X269566Y25642D02*
X267358D01*
Y23434D01*
X267876Y23648D01*
X268711Y24289D01*
X269352Y25124D01*
X269566Y25642D01*
D02*
G37*
G36*
X264358D02*
X262150D01*
X262364Y25124D01*
X263005Y24289D01*
X263841Y23648D01*
X264358Y23434D01*
Y25642D01*
D02*
G37*
G36*
X325858Y30874D02*
X324892Y30746D01*
X323992Y30374D01*
X323219Y29781D01*
X322626Y29008D01*
X322253Y28108D01*
X322126Y27142D01*
X322253Y26176D01*
X322626Y25276D01*
X323219Y24503D01*
X323992Y23910D01*
X324892Y23537D01*
X325858Y23410D01*
X326824Y23537D01*
X327724Y23910D01*
X328497Y24503D01*
X329090Y25276D01*
X329463Y26176D01*
X329590Y27142D01*
X329463Y28108D01*
X329090Y29008D01*
X328497Y29781D01*
X327724Y30374D01*
X326824Y30746D01*
X325858Y30874D01*
D02*
G37*
G36*
X315858D02*
X314892Y30746D01*
X313992Y30374D01*
X313219Y29781D01*
X312626Y29008D01*
X312253Y28108D01*
X312126Y27142D01*
X312253Y26176D01*
X312626Y25276D01*
X313219Y24503D01*
X313992Y23910D01*
X314892Y23537D01*
X315858Y23410D01*
X316824Y23537D01*
X317724Y23910D01*
X318497Y24503D01*
X319090Y25276D01*
X319463Y26176D01*
X319590Y27142D01*
X319463Y28108D01*
X319090Y29008D01*
X318497Y29781D01*
X317724Y30374D01*
X316824Y30746D01*
X315858Y30874D01*
D02*
G37*
G36*
X305858D02*
X304892Y30746D01*
X303992Y30374D01*
X303219Y29781D01*
X302626Y29008D01*
X302254Y28108D01*
X302126Y27142D01*
X302254Y26176D01*
X302626Y25276D01*
X303219Y24503D01*
X303992Y23910D01*
X304892Y23537D01*
X305858Y23410D01*
X306824Y23537D01*
X307724Y23910D01*
X308497Y24503D01*
X309090Y25276D01*
X309463Y26176D01*
X309590Y27142D01*
X309463Y28108D01*
X309090Y29008D01*
X308497Y29781D01*
X307724Y30374D01*
X306824Y30746D01*
X305858Y30874D01*
D02*
G37*
G36*
X295858D02*
X294892Y30746D01*
X293992Y30374D01*
X293219Y29781D01*
X292626Y29008D01*
X292253Y28108D01*
X292126Y27142D01*
X292253Y26176D01*
X292626Y25276D01*
X293219Y24503D01*
X293992Y23910D01*
X294892Y23537D01*
X295858Y23410D01*
X296824Y23537D01*
X297724Y23910D01*
X298497Y24503D01*
X299090Y25276D01*
X299463Y26176D01*
X299590Y27142D01*
X299463Y28108D01*
X299090Y29008D01*
X298497Y29781D01*
X297724Y30374D01*
X296824Y30746D01*
X295858Y30874D01*
D02*
G37*
G36*
X285858D02*
X284892Y30746D01*
X283992Y30374D01*
X283219Y29781D01*
X282626Y29008D01*
X282254Y28108D01*
X282126Y27142D01*
X282254Y26176D01*
X282626Y25276D01*
X283219Y24503D01*
X283992Y23910D01*
X284892Y23537D01*
X285858Y23410D01*
X286824Y23537D01*
X287724Y23910D01*
X288497Y24503D01*
X289090Y25276D01*
X289463Y26176D01*
X289590Y27142D01*
X289463Y28108D01*
X289090Y29008D01*
X288497Y29781D01*
X287724Y30374D01*
X286824Y30746D01*
X285858Y30874D01*
D02*
G37*
G36*
X275858D02*
X274892Y30746D01*
X273992Y30374D01*
X273219Y29781D01*
X272626Y29008D01*
X272253Y28108D01*
X272126Y27142D01*
X272253Y26176D01*
X272626Y25276D01*
X273219Y24503D01*
X273992Y23910D01*
X274892Y23537D01*
X275858Y23410D01*
X276824Y23537D01*
X277724Y23910D01*
X278497Y24503D01*
X279090Y25276D01*
X279463Y26176D01*
X279590Y27142D01*
X279463Y28108D01*
X279090Y29008D01*
X278497Y29781D01*
X277724Y30374D01*
X276824Y30746D01*
X275858Y30874D01*
D02*
G37*
G36*
X255858D02*
X254892Y30746D01*
X253992Y30374D01*
X253219Y29781D01*
X252626Y29008D01*
X252254Y28108D01*
X252126Y27142D01*
X252254Y26176D01*
X252626Y25276D01*
X253219Y24503D01*
X253992Y23910D01*
X254892Y23537D01*
X255858Y23410D01*
X256824Y23537D01*
X257724Y23910D01*
X258497Y24503D01*
X259090Y25276D01*
X259463Y26176D01*
X259590Y27142D01*
X259463Y28108D01*
X259090Y29008D01*
X258497Y29781D01*
X257724Y30374D01*
X256824Y30746D01*
X255858Y30874D01*
D02*
G37*
G36*
X56700Y117700D02*
X49300D01*
Y110300D01*
X56700D01*
Y117700D01*
D02*
G37*
G36*
X43000Y117732D02*
X42034Y117605D01*
X41134Y117232D01*
X40361Y116639D01*
X39768Y115866D01*
X39395Y114966D01*
X39268Y114000D01*
X39395Y113034D01*
X39768Y112134D01*
X40361Y111361D01*
X41134Y110768D01*
X42034Y110395D01*
X43000Y110268D01*
X43966Y110395D01*
X44866Y110768D01*
X45639Y111361D01*
X46232Y112134D01*
X46605Y113034D01*
X46732Y114000D01*
X46605Y114966D01*
X46232Y115866D01*
X45639Y116639D01*
X44866Y117232D01*
X43966Y117605D01*
X43000Y117732D01*
D02*
G37*
G36*
X33000D02*
X32034Y117605D01*
X31134Y117232D01*
X30361Y116639D01*
X29768Y115866D01*
X29395Y114966D01*
X29268Y114000D01*
X29395Y113034D01*
X29768Y112134D01*
X30361Y111361D01*
X31134Y110768D01*
X32034Y110395D01*
X33000Y110268D01*
X33966Y110395D01*
X34866Y110768D01*
X35639Y111361D01*
X36232Y112134D01*
X36605Y113034D01*
X36732Y114000D01*
X36605Y114966D01*
X36232Y115866D01*
X35639Y116639D01*
X34866Y117232D01*
X33966Y117605D01*
X33000Y117732D01*
D02*
G37*
G36*
X100000Y101228D02*
X99165Y101118D01*
X98386Y100795D01*
X97718Y100282D01*
X97205Y99614D01*
X96882Y98835D01*
X96772Y98000D01*
X96882Y97165D01*
X97205Y96386D01*
X97718Y95718D01*
X98386Y95205D01*
X99165Y94882D01*
X100000Y94772D01*
X100835Y94882D01*
X101614Y95205D01*
X102282Y95718D01*
X102795Y96386D01*
X102957Y96776D01*
X112357D01*
X127316Y81818D01*
X127082Y81344D01*
X126858Y81374D01*
X125892Y81247D01*
X124992Y80874D01*
X124219Y80281D01*
X123626Y79508D01*
X123254Y78608D01*
X123126Y77642D01*
X123254Y76676D01*
X123626Y75776D01*
X124219Y75003D01*
X124992Y74410D01*
X125892Y74037D01*
X126858Y73910D01*
X127082Y73939D01*
X127316Y73466D01*
X126135Y72285D01*
X125870Y71888D01*
X125777Y71420D01*
Y69157D01*
X125277Y69058D01*
X125090Y69508D01*
X124497Y70281D01*
X123724Y70874D01*
X122824Y71246D01*
X121858Y71374D01*
X120892Y71246D01*
X120250Y70980D01*
X117712Y73518D01*
X117786Y73859D01*
X117878Y74059D01*
X118724Y74410D01*
X119497Y75003D01*
X120090Y75776D01*
X120463Y76676D01*
X120590Y77642D01*
X120463Y78608D01*
X120090Y79508D01*
X119497Y80281D01*
X118724Y80874D01*
X117824Y81247D01*
X116858Y81374D01*
X115892Y81247D01*
X115250Y80980D01*
X112365Y83865D01*
X111968Y84130D01*
X111500Y84224D01*
X58216D01*
X57748Y84130D01*
X57351Y83865D01*
X54466Y80980D01*
X53824Y81247D01*
X52858Y81374D01*
X51892Y81247D01*
X50992Y80874D01*
X50219Y80281D01*
X49626Y79508D01*
X49253Y78608D01*
X49126Y77642D01*
X49253Y76676D01*
X49626Y75776D01*
X50219Y75003D01*
X50711Y74625D01*
X50542Y74125D01*
X48249D01*
X46858Y75516D01*
Y76142D01*
X44358D01*
Y73642D01*
X44984D01*
X46763Y71863D01*
X46924Y71755D01*
X46905Y71450D01*
X46826Y71219D01*
X45992Y70874D01*
X45219Y70281D01*
X44626Y69508D01*
X44254Y68608D01*
X44126Y67642D01*
X44254Y66676D01*
X44626Y65776D01*
X45219Y65003D01*
X45992Y64410D01*
X46892Y64037D01*
X47858Y63910D01*
X48824Y64037D01*
X49724Y64410D01*
X50497Y65003D01*
X50920Y65554D01*
X51851D01*
X59271Y58135D01*
X59668Y57870D01*
X60136Y57776D01*
X103216D01*
X103685Y57870D01*
X104081Y58135D01*
X110250Y64303D01*
X110892Y64037D01*
X111858Y63910D01*
X112824Y64037D01*
X113724Y64410D01*
X114367Y64903D01*
X116993Y62277D01*
X117390Y62011D01*
X117858Y61918D01*
X124142D01*
X124610Y62011D01*
X125007Y62277D01*
X127865Y65135D01*
X128130Y65532D01*
X128148Y65623D01*
X128422Y65711D01*
X128676Y65711D01*
X129219Y65003D01*
X129992Y64410D01*
X130892Y64037D01*
X131858Y63910D01*
X132824Y64037D01*
X133724Y64410D01*
X134497Y65003D01*
X135090Y65776D01*
X135463Y66676D01*
X135590Y67642D01*
X135463Y68608D01*
X135090Y69508D01*
X134497Y70281D01*
X133724Y70874D01*
X132824Y71246D01*
X131858Y71374D01*
X130892Y71246D01*
X129992Y70874D01*
X129219Y70281D01*
X128724Y69634D01*
X128224Y69789D01*
Y70913D01*
X132223Y74913D01*
X132489Y75310D01*
X132582Y75778D01*
Y79506D01*
X132489Y79974D01*
X132223Y80371D01*
X113729Y98865D01*
X113332Y99130D01*
X112864Y99224D01*
X102957D01*
X102795Y99614D01*
X102282Y100282D01*
X101614Y100795D01*
X100835Y101118D01*
X100000Y101228D01*
D02*
G37*
G36*
X46858Y81642D02*
X44358D01*
Y79142D01*
X46858D01*
Y81642D01*
D02*
G37*
G36*
X41358D02*
X38858D01*
Y79142D01*
X41358D01*
Y81642D01*
D02*
G37*
G36*
Y76142D02*
X38858D01*
Y73642D01*
X41358D01*
Y76142D01*
D02*
G37*
G36*
X139358Y49774D02*
X137967Y49637D01*
X136629Y49231D01*
X135396Y48572D01*
X134315Y47685D01*
X133428Y46604D01*
X132769Y45371D01*
X132363Y44033D01*
X132226Y42642D01*
X132363Y41250D01*
X132769Y39912D01*
X133428Y38679D01*
X134315Y37599D01*
X135396Y36712D01*
X136629Y36053D01*
X137967Y35647D01*
X139358Y35510D01*
X140750Y35647D01*
X142088Y36053D01*
X143321Y36712D01*
X144401Y37599D01*
X145288Y38679D01*
X145947Y39912D01*
X146353Y41250D01*
X146490Y42642D01*
X146353Y44033D01*
X145947Y45371D01*
X145288Y46604D01*
X144401Y47685D01*
X143321Y48572D01*
X142088Y49231D01*
X140750Y49637D01*
X139358Y49774D01*
D02*
G37*
G36*
X99358D02*
X97967Y49637D01*
X96629Y49231D01*
X95396Y48572D01*
X94315Y47685D01*
X93428Y46604D01*
X92769Y45371D01*
X92363Y44033D01*
X92226Y42642D01*
X92363Y41250D01*
X92769Y39912D01*
X93428Y38679D01*
X94315Y37599D01*
X95396Y36712D01*
X96629Y36053D01*
X97967Y35647D01*
X99358Y35510D01*
X100750Y35647D01*
X102088Y36053D01*
X103321Y36712D01*
X104401Y37599D01*
X105288Y38679D01*
X105947Y39912D01*
X106353Y41250D01*
X106490Y42642D01*
X106353Y44033D01*
X105947Y45371D01*
X105288Y46604D01*
X104401Y47685D01*
X103321Y48572D01*
X102088Y49231D01*
X100750Y49637D01*
X99358Y49774D01*
D02*
G37*
G36*
X75358D02*
X73967Y49637D01*
X72629Y49231D01*
X71396Y48572D01*
X70315Y47685D01*
X69428Y46604D01*
X68769Y45371D01*
X68363Y44033D01*
X68226Y42642D01*
X68363Y41250D01*
X68769Y39912D01*
X69428Y38679D01*
X70315Y37599D01*
X71396Y36712D01*
X72629Y36053D01*
X73967Y35647D01*
X75358Y35510D01*
X76750Y35647D01*
X78088Y36053D01*
X79321Y36712D01*
X80401Y37599D01*
X81288Y38679D01*
X81947Y39912D01*
X82353Y41250D01*
X82490Y42642D01*
X82353Y44033D01*
X81947Y45371D01*
X81288Y46604D01*
X80401Y47685D01*
X79321Y48572D01*
X78088Y49231D01*
X76750Y49637D01*
X75358Y49774D01*
D02*
G37*
G36*
X35358D02*
X33967Y49637D01*
X32629Y49231D01*
X31396Y48572D01*
X30315Y47685D01*
X29428Y46604D01*
X28769Y45371D01*
X28363Y44033D01*
X28226Y42642D01*
X28363Y41250D01*
X28769Y39912D01*
X29428Y38679D01*
X30315Y37599D01*
X31396Y36712D01*
X32629Y36053D01*
X33967Y35647D01*
X35358Y35510D01*
X36750Y35647D01*
X38088Y36053D01*
X39321Y36712D01*
X40401Y37599D01*
X41288Y38679D01*
X41947Y39912D01*
X42353Y41250D01*
X42490Y42642D01*
X42353Y44033D01*
X41947Y45371D01*
X41288Y46604D01*
X40401Y47685D01*
X39321Y48572D01*
X38088Y49231D01*
X36750Y49637D01*
X35358Y49774D01*
D02*
G37*
%LPD*%
G36*
X62120Y81277D02*
X61892Y81247D01*
X60992Y80874D01*
X60219Y80281D01*
X59626Y79508D01*
X59254Y78608D01*
X59126Y77642D01*
X59254Y76676D01*
X59626Y75776D01*
X60219Y75003D01*
X60711Y74625D01*
X60541Y74125D01*
X55175D01*
X55005Y74625D01*
X55497Y75003D01*
X56090Y75776D01*
X56463Y76676D01*
X56590Y77642D01*
X56463Y78608D01*
X56197Y79250D01*
X58723Y81776D01*
X62087D01*
X62120Y81277D01*
D02*
G37*
G36*
X102858Y81642D02*
Y79142D01*
X106858D01*
Y77642D01*
X108358D01*
Y73400D01*
X108449Y73180D01*
X99493Y64223D01*
X70303D01*
X70133Y64723D01*
X70497Y65003D01*
X71090Y65776D01*
X71463Y66676D01*
X71590Y67642D01*
X71463Y68608D01*
X71090Y69508D01*
X70497Y70281D01*
X69724Y70874D01*
X69481Y70974D01*
X69580Y71474D01*
X102016D01*
X102524Y71575D01*
X102954Y71863D01*
X104733Y73642D01*
X105358D01*
Y76142D01*
X102858D01*
Y75516D01*
X101467Y74125D01*
X65175D01*
X65005Y74625D01*
X65497Y75003D01*
X66090Y75776D01*
X66463Y76676D01*
X66590Y77642D01*
X66463Y78608D01*
X66090Y79508D01*
X65497Y80281D01*
X64724Y80874D01*
X63824Y81247D01*
X63596Y81277D01*
X63629Y81776D01*
X102414D01*
X102858Y81642D01*
D02*
G37*
G36*
X66236Y70974D02*
X65992Y70874D01*
X65219Y70281D01*
X64626Y69508D01*
X64253Y68608D01*
X64126Y67642D01*
X64253Y66676D01*
X64626Y65776D01*
X65219Y65003D01*
X65583Y64723D01*
X65414Y64223D01*
X63007D01*
X61197Y66033D01*
X61463Y66676D01*
X61590Y67642D01*
X61463Y68608D01*
X61090Y69508D01*
X60497Y70281D01*
X59724Y70874D01*
X59481Y70974D01*
X59580Y71474D01*
X66136D01*
X66236Y70974D01*
D02*
G37*
G36*
X108401Y68963D02*
X108254Y68608D01*
X108126Y67642D01*
X108254Y66676D01*
X108520Y66034D01*
X102710Y60224D01*
X60643D01*
X57401Y63466D01*
X57634Y63939D01*
X57858Y63910D01*
X58824Y64037D01*
X59467Y64303D01*
X61635Y62135D01*
X62032Y61870D01*
X62500Y61777D01*
X100000D01*
X100468Y61870D01*
X100865Y62135D01*
X107977Y69247D01*
X108401Y68963D01*
D02*
G37*
D10*
X165858Y187142D02*
Y217142D01*
X85000Y217000D02*
X99000D01*
X71000D02*
X85000D01*
X71000Y227000D02*
X85000D01*
X57000D02*
X71000D01*
X43000D02*
X57000D01*
X29000D02*
X43000D01*
X29000Y217000D02*
X43000D01*
X57000D01*
X71000D01*
X85000Y227000D02*
X99000D01*
X52858Y77642D02*
X58216Y83000D01*
X52858Y77642D02*
X52858Y77642D01*
Y77642D02*
Y77642D01*
Y113858D02*
X53000Y114000D01*
X108000Y208000D02*
X149000Y167000D01*
X99000Y217000D02*
X108000Y208000D01*
X149000Y167000D02*
X205716D01*
X225858Y187142D01*
X202716Y144000D02*
X245858Y187142D01*
X137000Y144000D02*
X202716D01*
X95000Y156000D02*
X174000D01*
X180000Y162000D01*
X127000Y66000D02*
Y71420D01*
X131358Y75778D02*
Y79506D01*
X127000Y71420D02*
X131358Y75778D01*
X100000Y98000D02*
X112864D01*
X131358Y79506D01*
X110000Y73000D02*
X116500D01*
X100000Y63000D02*
X110000Y73000D01*
X62500Y63000D02*
X100000D01*
X116500Y73000D02*
X121858Y67642D01*
X112722Y66778D02*
X114222D01*
X111858Y67642D02*
X112722Y66778D01*
X57858Y67642D02*
X62500Y63000D01*
X58216Y83000D02*
X111500D01*
X116858Y77642D01*
X103216Y59000D02*
X111858Y67642D01*
X60136Y59000D02*
X103216D01*
X52358Y66778D02*
X60136Y59000D01*
X124142Y63142D02*
X127000Y66000D01*
X117858Y63142D02*
X124142D01*
X114222Y66778D02*
X117858Y63142D01*
X99000Y227000D02*
X109000Y217000D01*
X201216Y172500D02*
X215858Y187142D01*
X154500Y171500D02*
X201216Y172500D01*
X146142Y217142D02*
X158000Y229000D01*
X145858Y217142D02*
X146142D01*
X158000Y229000D02*
X209000D01*
X219000Y239000D02*
Y254000D01*
X209000Y229000D02*
X219000Y239000D01*
X108000Y208000D02*
X122000D01*
X109000Y217000D02*
X122000D01*
X48722Y66778D02*
X52358D01*
X47858Y67642D02*
X48722Y66778D01*
X321000Y113000D02*
X335142Y127142D01*
X335858D01*
X302000Y113000D02*
X321000D01*
X285858Y96858D02*
X302000Y113000D01*
X285858Y92142D02*
Y96858D01*
D21*
X129283Y217000D02*
D03*
X122000D02*
D03*
X129283Y208000D02*
D03*
X122000D02*
D03*
D42*
X71000Y247000D02*
X85000D01*
X57000D02*
X71000D01*
X43000D02*
X57000D01*
X29000D02*
X43000D01*
X85000D02*
X99000D01*
X136000Y217000D02*
Y225000D01*
Y217000D02*
X145000Y208000D01*
X129283Y217000D02*
X136000D01*
X130000Y208000D02*
X145000D01*
X165858Y187142D01*
X114000Y247000D02*
X136000Y225000D01*
X99000Y247000D02*
X114000D01*
D46*
X145858Y127142D02*
D03*
X155858D02*
D03*
X165858D02*
D03*
X175858D02*
D03*
X185858D02*
D03*
X195858D02*
D03*
X205858D02*
D03*
X215858D02*
D03*
X225858D02*
D03*
X235858D02*
D03*
X245858D02*
D03*
X255858D02*
D03*
X265858D02*
D03*
X275858D02*
D03*
Y187142D02*
D03*
X265858D02*
D03*
X255858D02*
D03*
X245858D02*
D03*
X235858D02*
D03*
X225858D02*
D03*
X215858D02*
D03*
X205858D02*
D03*
X195858D02*
D03*
X185858D02*
D03*
X175858D02*
D03*
X295858Y127142D02*
D03*
X305858D02*
D03*
X315858D02*
D03*
X325858D02*
D03*
X335858D02*
D03*
X345858D02*
D03*
X355858D02*
D03*
X365858D02*
D03*
X375858D02*
D03*
Y187142D02*
D03*
X365858D02*
D03*
X355858D02*
D03*
X345858D02*
D03*
X335858D02*
D03*
X325858D02*
D03*
X315858D02*
D03*
X285858Y127142D02*
D03*
X165858Y187142D02*
D03*
X155858D02*
D03*
X145858D02*
D03*
X285858D02*
D03*
X295858D02*
D03*
X305858D02*
D03*
X265858Y27142D02*
D03*
X255858D02*
D03*
X265858Y92142D02*
D03*
X255858D02*
D03*
X285858Y27142D02*
D03*
X275858D02*
D03*
X285858Y92142D02*
D03*
X275858D02*
D03*
X305858Y27142D02*
D03*
X295858D02*
D03*
X305858Y92142D02*
D03*
X295858D02*
D03*
X315858D02*
D03*
X325858D02*
D03*
X315858Y27142D02*
D03*
X325858D02*
D03*
X396000Y146000D02*
D03*
Y136000D02*
D03*
X29000Y247000D02*
D03*
Y217000D02*
D03*
Y227000D02*
D03*
Y237000D02*
D03*
X43000Y247000D02*
D03*
Y217000D02*
D03*
Y227000D02*
D03*
Y237000D02*
D03*
X57000Y247000D02*
D03*
Y217000D02*
D03*
Y227000D02*
D03*
Y237000D02*
D03*
X71000Y247000D02*
D03*
Y217000D02*
D03*
Y227000D02*
D03*
Y237000D02*
D03*
X85000Y247000D02*
D03*
Y217000D02*
D03*
Y227000D02*
D03*
Y237000D02*
D03*
X99000Y247000D02*
D03*
Y217000D02*
D03*
Y227000D02*
D03*
Y237000D02*
D03*
X67858Y67642D02*
D03*
X57858D02*
D03*
X47858D02*
D03*
X62858Y77642D02*
D03*
X52858D02*
D03*
X75358Y42642D02*
D03*
X35358D02*
D03*
X131858Y67642D02*
D03*
X121858D02*
D03*
X111858D02*
D03*
X126858Y77642D02*
D03*
X116858D02*
D03*
X139358Y42642D02*
D03*
X99358D02*
D03*
X155858Y217142D02*
D03*
X165858D02*
D03*
X175858D02*
D03*
X185858D02*
D03*
X225858D02*
D03*
X215858D02*
D03*
X205858D02*
D03*
X195858D02*
D03*
X265858D02*
D03*
X255858D02*
D03*
X245858D02*
D03*
X235858D02*
D03*
X305858D02*
D03*
X295858D02*
D03*
X285858D02*
D03*
X275858D02*
D03*
X345858D02*
D03*
X355858D02*
D03*
X365858D02*
D03*
X315858D02*
D03*
X325858D02*
D03*
X335858D02*
D03*
X145858D02*
D03*
X33000Y114000D02*
D03*
X43000D02*
D03*
X462000Y324000D02*
D03*
Y13000D02*
D03*
X15000D02*
D03*
X16000Y324000D02*
D03*
D47*
X396000Y126000D02*
D03*
X29000Y207000D02*
D03*
X43000D02*
D03*
X57000D02*
D03*
X71000D02*
D03*
X85000D02*
D03*
X99000D02*
D03*
D48*
X430000Y304346D02*
D03*
Y276000D02*
D03*
X360358Y304488D02*
D03*
Y276142D02*
D03*
X130878Y303642D02*
D03*
Y275295D02*
D03*
X267878Y304142D02*
D03*
Y275795D02*
D03*
D49*
X42858Y77642D02*
D03*
X106858D02*
D03*
X375858Y217142D02*
D03*
X53000Y114000D02*
D03*
D50*
X426000Y116000D02*
D03*
Y122000D02*
D03*
Y128000D02*
D03*
Y134000D02*
D03*
X137000Y144000D02*
D03*
X95000Y156000D02*
D03*
X180000Y162000D02*
D03*
X100000Y98000D02*
D03*
X154500Y171500D02*
D03*
X219000Y254000D02*
D03*
D51*
X102016Y72800D02*
X106858Y77642D01*
X47700Y72800D02*
X102016D01*
X42858Y77642D02*
X47700Y72800D01*
M02*
