%TF.GenerationSoftware,Altium Limited,Altium Designer,19.1.8 (144)*%
G04 Layer_Color=32768*
%FSLAX26Y26*%
%MOIN*%
%TF.FileFunction,Other,Mechanical_3*%
%TF.Part,Single*%
G01*
G75*
%TA.AperFunction,NonConductor*%
%ADD34C,0.010000*%
D34*
X3808441Y2515047D02*
X4005291D01*
X3808441Y2263079D02*
Y2515047D01*
X4009228Y2263079D02*
X4064346Y2318197D01*
X3808441Y2263079D02*
X4009228D01*
X4005291Y2515047D02*
X4064346Y2455992D01*
Y2318197D02*
Y2455992D01*
X4328496Y2263953D02*
X4525346D01*
Y2515921D01*
X4269441Y2460803D02*
X4324559Y2515921D01*
X4324559D02*
X4525346D01*
X4269441Y2323008D02*
X4328496Y2263953D01*
X4269441Y2323008D02*
Y2460803D01*
X4186409Y2144001D02*
Y2152001D01*
X4039409D02*
X4186409D01*
X4039409Y1897001D02*
Y2152001D01*
Y1897001D02*
X4040409Y1898001D01*
X4186409D01*
Y2145001D01*
X3378583Y161417D02*
Y1011417D01*
X2308583D02*
X3378583D01*
X2308583Y161417D02*
Y1011417D01*
Y161417D02*
X3378583D01*
X4010000Y1209994D02*
Y1510000D01*
X3910000Y1209994D02*
X4010000D01*
X3910000D02*
Y1510000D01*
X4010000D01*
X340000Y2420000D02*
Y2520000D01*
X240000D02*
X340000D01*
X240000Y2420000D02*
Y2520000D01*
Y2019994D02*
Y2420000D01*
Y2019994D02*
X340000D01*
Y2420000D01*
X480000D02*
Y2520000D01*
X380000D02*
X480000D01*
X380000Y2420000D02*
Y2520000D01*
Y2019994D02*
Y2420000D01*
Y2019994D02*
X480000D01*
Y2420000D01*
X620000D02*
Y2520000D01*
X520000D02*
X620000D01*
X520000Y2420000D02*
Y2520000D01*
Y2019994D02*
Y2420000D01*
Y2019994D02*
X620000D01*
Y2420000D01*
X760000D02*
Y2520000D01*
X660000D02*
X760000D01*
X660000Y2420000D02*
Y2520000D01*
Y2019994D02*
Y2420000D01*
Y2019994D02*
X760000D01*
Y2420000D01*
X900000D02*
Y2520000D01*
X800000D02*
X900000D01*
X800000Y2420000D02*
Y2520000D01*
Y2019994D02*
Y2420000D01*
Y2019994D02*
X900000D01*
Y2420000D01*
X1040000D02*
Y2520000D01*
X940000D02*
X1040000D01*
X940000Y2420000D02*
Y2520000D01*
Y2019994D02*
Y2420000D01*
Y2019994D02*
X1040000D01*
Y2420000D01*
X4100000Y3210000D02*
X4500000D01*
X280000Y1190000D02*
X580006D01*
Y1090000D02*
Y1190000D01*
X280000Y1090000D02*
X580006D01*
X280000D02*
Y1190000D01*
X3403583Y3211417D02*
X3803583D01*
X1108780Y3202953D02*
X1508780D01*
X2478780Y3207953D02*
X2878780D01*
X4250394Y1724409D02*
X4577165D01*
Y2051181D01*
X4250394D02*
X4577165D01*
X4250394Y1724409D02*
Y2051181D01*
%TF.MD5,e5f081665ae378f58200295b0463d6c5*%
M02*
