G04*
G04 #@! TF.GenerationSoftware,Altium Limited,Altium Designer,20.0.12 (288)*
G04*
G04 Layer_Color=8388736*
%FSLAX25Y25*%
%MOIN*%
G70*
G01*
G75*
%ADD28R,0.02165X0.06102*%
%ADD29R,0.04737X0.03162*%
%ADD30R,0.13398X0.07099*%
%ADD31R,0.04934X0.06312*%
%ADD32R,0.06312X0.04934*%
%ADD33R,0.04934X0.05918*%
%ADD34R,0.05918X0.04934*%
%ADD35O,0.03359X0.07296*%
%ADD36R,0.03162X0.07690*%
%ADD37R,0.10642X0.13595*%
%ADD38R,0.05721X0.05131*%
%ADD39R,0.05131X0.05721*%
%ADD40R,0.04343X0.03950*%
%ADD41C,0.06706*%
%ADD42R,0.06706X0.06706*%
%ADD43R,0.06706X0.06706*%
%ADD44C,0.25997*%
%ADD45C,0.06800*%
%ADD46R,0.06800X0.06800*%
D28*
X430118Y168110D02*
D03*
X432677D02*
D03*
X435236D02*
D03*
X437795D02*
D03*
Y185433D02*
D03*
X435236D02*
D03*
X432677D02*
D03*
X430118D02*
D03*
D29*
X81791Y105315D02*
D03*
Y97835D02*
D03*
X70965D02*
D03*
Y101575D02*
D03*
Y105315D02*
D03*
X82972Y178937D02*
D03*
Y171457D02*
D03*
X72146D02*
D03*
Y175197D02*
D03*
Y178937D02*
D03*
D30*
X383465Y239370D02*
D03*
X403543D02*
D03*
X450000D02*
D03*
X429921D02*
D03*
D31*
X72146Y90354D02*
D03*
X79429D02*
D03*
X72146Y164370D02*
D03*
X79429D02*
D03*
X270000Y9000D02*
D03*
X262717D02*
D03*
X437500Y156299D02*
D03*
X430217D02*
D03*
D32*
X417323Y100492D02*
D03*
Y93209D02*
D03*
X145669Y236319D02*
D03*
Y229035D02*
D03*
X130905Y105610D02*
D03*
Y112894D02*
D03*
X447638Y177264D02*
D03*
Y169980D02*
D03*
X452165Y110728D02*
D03*
Y103445D02*
D03*
X463551Y110909D02*
D03*
Y103626D02*
D03*
X209000Y261000D02*
D03*
Y253717D02*
D03*
X199000Y261000D02*
D03*
Y253716D02*
D03*
D33*
X79429Y72638D02*
D03*
X72146D02*
D03*
X79429Y81496D02*
D03*
X72146D02*
D03*
X48622Y101969D02*
D03*
X55905D02*
D03*
X63681Y129921D02*
D03*
X70965D02*
D03*
X72146Y146653D02*
D03*
X79429D02*
D03*
Y155512D02*
D03*
X72146D02*
D03*
X34744Y167323D02*
D03*
X42028D02*
D03*
X156201Y73819D02*
D03*
X148917D02*
D03*
X368602Y59449D02*
D03*
X361319D02*
D03*
X368996Y46850D02*
D03*
X361713D02*
D03*
X368602Y33858D02*
D03*
X361319D02*
D03*
X430413Y109843D02*
D03*
X423130D02*
D03*
X429724Y200787D02*
D03*
X437008D02*
D03*
X453642Y201181D02*
D03*
X446358D02*
D03*
Y192520D02*
D03*
X453642D02*
D03*
D34*
X121063Y145374D02*
D03*
Y138091D02*
D03*
X62205Y166634D02*
D03*
Y159350D02*
D03*
X121063Y127657D02*
D03*
Y120374D02*
D03*
X183858Y103642D02*
D03*
Y96358D02*
D03*
X198425Y103642D02*
D03*
Y96358D02*
D03*
X183500Y260283D02*
D03*
Y253000D02*
D03*
X173000Y253000D02*
D03*
Y260283D02*
D03*
X25591Y48819D02*
D03*
Y56102D02*
D03*
X439764Y102657D02*
D03*
Y109941D02*
D03*
D35*
X140374Y96752D02*
D03*
X135374D02*
D03*
X130374D02*
D03*
X125374D02*
D03*
X140374Y74508D02*
D03*
X135374D02*
D03*
X130374D02*
D03*
X125374D02*
D03*
D36*
X193500Y274878D02*
D03*
X198500D02*
D03*
X203500D02*
D03*
X208500D02*
D03*
X193500Y297122D02*
D03*
X198500D02*
D03*
X203500D02*
D03*
X208500D02*
D03*
D37*
X452362Y132677D02*
D03*
X430315D02*
D03*
D38*
X378543Y59449D02*
D03*
X387795D02*
D03*
X378543Y46850D02*
D03*
X387795D02*
D03*
X378543Y33858D02*
D03*
X387795D02*
D03*
D39*
X183858Y85827D02*
D03*
Y76575D02*
D03*
X198425Y85827D02*
D03*
Y76575D02*
D03*
X439764Y82480D02*
D03*
Y73228D02*
D03*
D40*
X405905Y112205D02*
D03*
Y121260D02*
D03*
D41*
X265800Y27200D02*
D03*
X255800D02*
D03*
X265800Y92200D02*
D03*
X255800D02*
D03*
X285800Y27200D02*
D03*
X275800D02*
D03*
X285800Y92200D02*
D03*
X275800D02*
D03*
X305800Y27200D02*
D03*
X295800D02*
D03*
X305800Y92200D02*
D03*
X295800D02*
D03*
X315800D02*
D03*
X325800D02*
D03*
X315800Y27200D02*
D03*
X325800D02*
D03*
X145858Y127142D02*
D03*
X155858D02*
D03*
X165858D02*
D03*
X175858D02*
D03*
X185858D02*
D03*
X195858D02*
D03*
X205858D02*
D03*
X215858D02*
D03*
X225858D02*
D03*
X235858D02*
D03*
X245858D02*
D03*
X255858D02*
D03*
X265858D02*
D03*
X275858D02*
D03*
Y187142D02*
D03*
X265858D02*
D03*
X255858D02*
D03*
X245858D02*
D03*
X235858D02*
D03*
X225858D02*
D03*
X215858D02*
D03*
X205858D02*
D03*
X195858D02*
D03*
X185858D02*
D03*
X175858D02*
D03*
X295858Y127142D02*
D03*
X305858D02*
D03*
X315858D02*
D03*
X325858D02*
D03*
X335858D02*
D03*
X345858D02*
D03*
X355858D02*
D03*
X365858D02*
D03*
X375858D02*
D03*
Y187142D02*
D03*
X365858D02*
D03*
X355858D02*
D03*
X345858D02*
D03*
X335858D02*
D03*
X325858D02*
D03*
X315858D02*
D03*
X285858Y127142D02*
D03*
X165858Y187142D02*
D03*
X155858D02*
D03*
X145858D02*
D03*
X285858D02*
D03*
X295858D02*
D03*
X305858D02*
D03*
X17717Y100394D02*
D03*
Y110236D02*
D03*
Y157480D02*
D03*
Y167323D02*
D03*
X29000Y247000D02*
D03*
Y217000D02*
D03*
Y227000D02*
D03*
Y237000D02*
D03*
X43000Y247000D02*
D03*
Y217000D02*
D03*
Y227000D02*
D03*
Y237000D02*
D03*
X57000Y247000D02*
D03*
Y217000D02*
D03*
Y227000D02*
D03*
Y237000D02*
D03*
X71000Y247000D02*
D03*
Y217000D02*
D03*
Y227000D02*
D03*
Y237000D02*
D03*
X85000Y247000D02*
D03*
Y217000D02*
D03*
Y227000D02*
D03*
Y237000D02*
D03*
X99000Y247000D02*
D03*
Y217000D02*
D03*
Y227000D02*
D03*
Y237000D02*
D03*
X11811Y69055D02*
D03*
Y59055D02*
D03*
X155858Y217142D02*
D03*
X165858D02*
D03*
X175858D02*
D03*
X185858D02*
D03*
X225858D02*
D03*
X215858D02*
D03*
X205858D02*
D03*
X195858D02*
D03*
X265858D02*
D03*
X255858D02*
D03*
X245858D02*
D03*
X235858D02*
D03*
X305858D02*
D03*
X295858D02*
D03*
X285858D02*
D03*
X275858D02*
D03*
X345858D02*
D03*
X355858D02*
D03*
X365858D02*
D03*
X315858D02*
D03*
X325858D02*
D03*
X335858D02*
D03*
X145858D02*
D03*
D42*
X29000Y207000D02*
D03*
X43000D02*
D03*
X57000D02*
D03*
X71000D02*
D03*
X85000D02*
D03*
X99000D02*
D03*
X11811Y49055D02*
D03*
D43*
X375858Y217142D02*
D03*
D44*
X322047Y303937D02*
D03*
Y275590D02*
D03*
X417323Y273622D02*
D03*
Y301969D02*
D03*
X130878Y303642D02*
D03*
Y275295D02*
D03*
X267717Y303937D02*
D03*
Y275590D02*
D03*
D45*
X46398Y19783D02*
D03*
X86398D02*
D03*
X63898Y54783D02*
D03*
X73898D02*
D03*
X58898Y44783D02*
D03*
X68898D02*
D03*
X78898D02*
D03*
X115295Y19783D02*
D03*
X155295D02*
D03*
X132795Y54783D02*
D03*
X142795D02*
D03*
X127795Y44783D02*
D03*
X137795D02*
D03*
X147795D02*
D03*
X15748Y15748D02*
D03*
X462598Y322835D02*
D03*
X460630Y13780D02*
D03*
X13780Y322835D02*
D03*
D46*
X53898Y54783D02*
D03*
X122795D02*
D03*
M02*
