G04*
G04 #@! TF.GenerationSoftware,Altium Limited,Altium Designer,19.1.8 (144)*
G04*
G04 Layer_Color=32768*
%FSLAX25Y25*%
%MOIN*%
G70*
G01*
G75*
%ADD10C,0.01000*%
D10*
X380844Y251505D02*
X400529D01*
X380844Y226308D02*
Y251505D01*
X400923Y226308D02*
X406435Y231820D01*
X380844Y226308D02*
X400923D01*
X400529Y251505D02*
X406435Y245599D01*
Y231820D02*
Y245599D01*
X432850Y226395D02*
X452535D01*
Y251592D01*
X426944Y246080D02*
X432456Y251592D01*
X432456D02*
X452535D01*
X426944Y232301D02*
X432850Y226395D01*
X426944Y232301D02*
Y246080D01*
X418641Y214400D02*
Y215200D01*
X403941D02*
X418641D01*
X403941Y189700D02*
Y215200D01*
Y189700D02*
X404041Y189800D01*
X418641D01*
Y214500D01*
X337858Y16142D02*
Y101142D01*
X230858D02*
X337858D01*
X230858Y16142D02*
Y101142D01*
Y16142D02*
X337858D01*
X401000Y120999D02*
Y151000D01*
X391000Y120999D02*
X401000D01*
X391000D02*
Y151000D01*
X401000D01*
X34000Y242000D02*
Y252000D01*
X24000D02*
X34000D01*
X24000Y242000D02*
Y252000D01*
Y201999D02*
Y242000D01*
Y201999D02*
X34000D01*
Y242000D01*
X48000D02*
Y252000D01*
X38000D02*
X48000D01*
X38000Y242000D02*
Y252000D01*
Y201999D02*
Y242000D01*
Y201999D02*
X48000D01*
Y242000D01*
X62000D02*
Y252000D01*
X52000D02*
X62000D01*
X52000Y242000D02*
Y252000D01*
Y201999D02*
Y242000D01*
Y201999D02*
X62000D01*
Y242000D01*
X76000D02*
Y252000D01*
X66000D02*
X76000D01*
X66000Y242000D02*
Y252000D01*
Y201999D02*
Y242000D01*
Y201999D02*
X76000D01*
Y242000D01*
X90000D02*
Y252000D01*
X80000D02*
X90000D01*
X80000Y242000D02*
Y252000D01*
Y201999D02*
Y242000D01*
Y201999D02*
X90000D01*
Y242000D01*
X104000D02*
Y252000D01*
X94000D02*
X104000D01*
X94000Y242000D02*
Y252000D01*
Y201999D02*
Y242000D01*
Y201999D02*
X104000D01*
Y242000D01*
X410000Y321000D02*
X450000D01*
X28000Y119000D02*
X58001D01*
Y109000D02*
Y119000D01*
X28000Y109000D02*
X58001D01*
X28000D02*
Y119000D01*
X340358Y321142D02*
X380358D01*
X110878Y320295D02*
X150878D01*
X247878Y320795D02*
X287878D01*
X425039Y172441D02*
X457717D01*
Y205118D01*
X425039D02*
X457717D01*
X425039Y172441D02*
Y205118D01*
M02*
