G04*
G04 #@! TF.GenerationSoftware,Altium Limited,Altium Designer,19.1.8 (144)*
G04*
G04 Layer_Color=8421504*
%FSLAX25Y25*%
%MOIN*%
G70*
G01*
G75*
%ADD14R,0.12598X0.06299*%
%ADD15R,0.01772X0.05709*%
%ADD16R,0.08465X0.03937*%
%ADD17R,0.08465X0.12795*%
%ADD18R,0.05118X0.04134*%
%ADD19O,0.02559X0.08268*%
%ADD20R,0.02362X0.06890*%
%ADD21R,0.04134X0.05118*%
%ADD22R,0.12795X0.09843*%
%ADD23R,0.05512X0.04134*%
%ADD24R,0.04134X0.05512*%
D14*
X383600Y239300D02*
D03*
X403679D02*
D03*
X449779Y238600D02*
D03*
X429700D02*
D03*
D15*
X407441Y211000D02*
D03*
X410000D02*
D03*
X412559D02*
D03*
X415118D02*
D03*
Y193677D02*
D03*
X412559D02*
D03*
X410000D02*
D03*
X407441D02*
D03*
D16*
X414484Y134055D02*
D03*
Y125000D02*
D03*
Y115945D02*
D03*
D17*
X437516Y125000D02*
D03*
D18*
X183500Y260283D02*
D03*
Y253000D02*
D03*
X173000Y253000D02*
D03*
Y260283D02*
D03*
X43000Y95000D02*
D03*
Y102284D02*
D03*
D19*
X89500Y109906D02*
D03*
X94500D02*
D03*
X99500D02*
D03*
X104500D02*
D03*
X109500D02*
D03*
X114500D02*
D03*
X119500D02*
D03*
X124500D02*
D03*
X89500Y148094D02*
D03*
X94500D02*
D03*
X99500D02*
D03*
X104500D02*
D03*
X109500D02*
D03*
X114500D02*
D03*
X119500D02*
D03*
X124500D02*
D03*
D20*
X208500Y297122D02*
D03*
X203500D02*
D03*
X198500D02*
D03*
X193500D02*
D03*
X208500Y274878D02*
D03*
X203500D02*
D03*
X198500D02*
D03*
X193500D02*
D03*
D21*
X408000Y165000D02*
D03*
X415283D02*
D03*
X387000Y165000D02*
D03*
X394283D02*
D03*
X425717Y165000D02*
D03*
X433000D02*
D03*
D22*
X440000Y177953D02*
D03*
Y200000D02*
D03*
D23*
X95000Y172283D02*
D03*
Y165000D02*
D03*
X209000Y253717D02*
D03*
Y261000D02*
D03*
X199000Y253716D02*
D03*
Y261000D02*
D03*
D24*
X129000Y98000D02*
D03*
X136284D02*
D03*
X262717Y9000D02*
D03*
X270000D02*
D03*
X423283Y221000D02*
D03*
X416000D02*
D03*
X433284Y157000D02*
D03*
X426000D02*
D03*
X433283Y148000D02*
D03*
X426000D02*
D03*
X400717Y180000D02*
D03*
X408000D02*
D03*
M02*
