M48
;Layer_Color=9474304
;FILE_FORMAT=2:5
INCH,TZ
;TYPE=PLATED
T1F00S00C0.02800
T2F00S00C0.03000
T3F00S00C0.03504
T4F00S00C0.03543
T5F00S00C0.04000
T6F00S00C0.04016
T7F00S00C0.17717
;TYPE=NON_PLATED
T8F00S00C0.12795
T9F00S00C0.14000
%
T01
X100000Y98000
X95000Y156000
X137000Y144000
X154500Y171500
X180000Y162000
X219000Y254000
T02
X29000Y207000
X43000
X57000
X71000
X85000
X99000
Y217000
Y227000
Y237000
Y247000
X85000
Y237000
Y227000
Y217000
X71000
Y227000
Y237000
Y247000
X57000
Y237000
Y227000
Y217000
X43000
Y227000
Y237000
Y247000
X29000
Y237000
Y227000
Y217000
T03
X47858Y67642
X57858
X67858
X62858Y77642
X52858
X42858
X106858
X116858
X126858
X131858Y67642
X121858
X111858
T04
X255858Y27142
X265858
X275858
X285858
X295858
X305858
X315858
X325858
Y92142
X315858
X305858
X295858
X285858
X275858
X265858
X255858
T05
X145858Y127142
X155858
X165858
X175858
X185858
X195858
X205858
X215858
X225858
X235858
Y187142
X225858
X215858
X205858
X195858
X185858
X175858
X165858
X155858
X145858
X245858
X255858
X265858
X275858
X285858
X295858
X305858
X315858
X325858
X335858
X345858
X355858
X365858
X375858
Y127142
X365858
X355858
X345858
X335858
X325858
X315858
X305858
X295858
X285858
X275858
X265858
X255858
X245858
X165858Y217142
T06
X43000Y114000
X53000
X63000
X396000Y126000
Y136000
Y146000
X375858Y217142
X365858
X355858
X345858
X335858
X325858
X315858
X305858
X295858
X285858
X275858
X265858
X255858
X245858
X235858
X225858
X215858
X205858
X195858
X185858
X175858
X155858
X145858
T07
X430000Y276000
Y304346
X360358Y304488
Y276142
X267878Y275795
Y304142
X130878Y303642
Y275295
T08
X99358Y42642
X139358
X75358
X35358
T09
X462000Y13000
X15000
X462000Y324000
X16000
M30
