%TF.GenerationSoftware,Altium Limited,Altium Designer,19.1.8 (144)*%
G04 Layer_Color=32768*
%FSLAX26Y26*%
%MOIN*%
%TF.FileFunction,Other,Mechanical_15*%
%TF.Part,Single*%
G01*
G75*
%TA.AperFunction,NonConductor*%
%ADD34C,0.010000*%
%ADD55C,0.003937*%
%ADD56C,0.001968*%
D34*
X268583Y-8583D02*
Y431417D01*
Y-8583D02*
X833583D01*
Y856417D01*
X268583D02*
X833583D01*
X268583Y426417D02*
Y856417D01*
X908583Y-8583D02*
Y431417D01*
Y-8583D02*
X1473583D01*
Y856417D01*
X908583D02*
X1473583D01*
X908583Y426417D02*
Y856417D01*
D55*
X4240315Y1250000D02*
X4279685D01*
X4260000Y1230315D02*
Y1269685D01*
X1835000Y2546732D02*
Y2586102D01*
X1815315Y2566417D02*
X1854685D01*
X1050315Y1290000D02*
X1089685D01*
X1070000Y1270315D02*
Y1309685D01*
X2010000Y2840315D02*
Y2879685D01*
X1990315Y2860000D02*
X2029685D01*
X1236732Y2170000D02*
X1276102D01*
X1256417Y2150315D02*
Y2189685D01*
X1236732Y2080000D02*
X1276102D01*
X1256417Y2060315D02*
Y2099685D01*
X1730000Y2546732D02*
Y2586102D01*
X1710315Y2566417D02*
X1749685D01*
X430001Y966732D02*
Y1006102D01*
X410316Y986417D02*
X449686D01*
X4096732Y1650000D02*
X4136102D01*
X4116417Y1630315D02*
Y1669685D01*
X3886732Y1650001D02*
X3926102D01*
X3906417Y1630316D02*
Y1669686D01*
X4273898Y1649999D02*
X4313269D01*
X4293583Y1630314D02*
Y1669684D01*
X930315Y1686417D02*
X969685D01*
X950000Y1666732D02*
Y1706102D01*
X1326417Y960316D02*
Y999686D01*
X1306732Y980001D02*
X1346102D01*
X2663582Y70314D02*
Y109684D01*
X2643897Y89999D02*
X2683267D01*
X4196417Y2190316D02*
Y2229686D01*
X4176732Y2210001D02*
X4216102D01*
X4296417Y1550314D02*
Y1589684D01*
X4276732Y1569999D02*
X4316102D01*
X4296417Y1460314D02*
Y1499684D01*
X4276732Y1479999D02*
X4316102D01*
X4043584Y1780316D02*
Y1819686D01*
X4023899Y1800001D02*
X4063269D01*
X2070316Y2573583D02*
X2109686D01*
X2090001Y2553898D02*
Y2593268D01*
X1970316Y2573583D02*
X2009686D01*
X1990001Y2553898D02*
Y2593268D01*
D56*
X4092677Y1108268D02*
Y1391732D01*
X4427323Y1108268D02*
Y1391732D01*
X4092677D02*
X4427323D01*
X4092677Y1108268D02*
X4427323D01*
X1799567Y2633346D02*
X1870433D01*
X1799567Y2499488D02*
X1870433D01*
Y2633346D01*
X1799567Y2499488D02*
Y2633346D01*
X843622Y1039016D02*
Y1540984D01*
X1296378Y1039016D02*
Y1540984D01*
X843622Y1039016D02*
X1296378D01*
X843622Y1540984D02*
X1296378D01*
X1903701Y3015512D02*
X2116299D01*
X1903701Y2704488D02*
X2116299D01*
Y3015512D01*
X1903701Y2704488D02*
Y3015512D01*
X1323346Y2134567D02*
Y2205433D01*
X1189488Y2134567D02*
Y2205433D01*
X1323346D01*
X1189488Y2134567D02*
X1323346D01*
Y2044567D02*
Y2115433D01*
X1189488Y2044567D02*
Y2115433D01*
X1323346D01*
X1189488Y2044567D02*
X1323346D01*
X1694567Y2499488D02*
X1765433D01*
X1694567Y2633346D02*
X1765433D01*
X1694567Y2499488D02*
Y2633346D01*
X1765433Y2499488D02*
Y2633346D01*
X394568Y919488D02*
X465434D01*
X394568Y1053347D02*
X465434D01*
X394568Y919488D02*
Y1053347D01*
X465434Y919488D02*
Y1053347D01*
X4049488Y1614567D02*
Y1685433D01*
X4183346Y1614567D02*
Y1685433D01*
X4049488D02*
X4183346D01*
X4049488Y1614567D02*
X4183346D01*
X3839488Y1614568D02*
Y1685434D01*
X3973346Y1614568D02*
Y1685434D01*
X3839488D02*
X3973346D01*
X3839488Y1614568D02*
X3973346D01*
X4226654Y1614566D02*
Y1685432D01*
X4360513Y1614566D02*
Y1685432D01*
X4226654D02*
X4360513D01*
X4226654Y1614566D02*
X4360513D01*
X987402Y1619488D02*
Y1753347D01*
X912598Y1619488D02*
Y1753347D01*
X987402D01*
X912598Y1619488D02*
X987402D01*
X1259488Y1017402D02*
X1393346D01*
X1259488Y942599D02*
X1393346D01*
X1259488D02*
Y1017402D01*
X1393346Y942599D02*
Y1017402D01*
X2596653Y127401D02*
X2730511D01*
X2596653Y52598D02*
X2730511D01*
X2596653D02*
Y127401D01*
X2730511Y52598D02*
Y127401D01*
X4129488Y2172599D02*
X4263346D01*
X4129488Y2247402D02*
X4263346D01*
Y2172599D02*
Y2247402D01*
X4129488Y2172599D02*
Y2247402D01*
X4229488Y1532598D02*
X4363347D01*
X4229488Y1607401D02*
X4363347D01*
Y1532598D02*
Y1607401D01*
X4229488Y1532598D02*
Y1607401D01*
X4229488Y1442598D02*
X4363346D01*
X4229488Y1517401D02*
X4363346D01*
Y1442598D02*
Y1517401D01*
X4229488Y1442598D02*
Y1517401D01*
X3976655Y1837402D02*
X4110513D01*
X3976655Y1762599D02*
X4110513D01*
X3976655D02*
Y1837402D01*
X4110513Y1762599D02*
Y1837402D01*
X2052599Y2506654D02*
Y2640512D01*
X2127402Y2506654D02*
Y2640512D01*
X2052599Y2506654D02*
X2127402D01*
X2052599Y2640512D02*
X2127402D01*
X1952599Y2506653D02*
Y2640512D01*
X2027402Y2506653D02*
Y2640512D01*
X1952599Y2506653D02*
X2027402D01*
X1952599Y2640512D02*
X2027402D01*
%TF.MD5,bb4c00dd1ee130ab2d2391c96ad39453*%
M02*
