G04*
G04 #@! TF.GenerationSoftware,Altium Limited,Altium Designer,19.1.8 (144)*
G04*
G04 Layer_Physical_Order=1*
G04 Layer_Color=255*
%FSLAX25Y25*%
%MOIN*%
G70*
G01*
G75*
%ADD12C,0.01000*%
%ADD14O,0.02559X0.08268*%
%ADD15R,0.01772X0.05709*%
%ADD16R,0.08465X0.12795*%
%ADD17R,0.08465X0.03937*%
%ADD18R,0.02362X0.06890*%
%ADD19R,0.05118X0.04134*%
%ADD20R,0.04134X0.05118*%
%ADD21R,0.12795X0.09843*%
%ADD22R,0.05512X0.04134*%
%ADD23R,0.04134X0.05512*%
%ADD39C,0.01500*%
%ADD40C,0.02000*%
%ADD41C,0.01800*%
%ADD42C,0.17000*%
%ADD43C,0.06000*%
%ADD44R,0.06000X0.06000*%
%ADD45C,0.23622*%
%ADD46R,0.06000X0.06000*%
%ADD47C,0.05000*%
G36*
X452000Y312000D02*
X472000D01*
Y26000D01*
X451000D01*
Y0D01*
X159000D01*
Y107000D01*
X132000Y134000D01*
X3000D01*
Y314000D01*
X29000D01*
Y336000D01*
X452000D01*
Y312000D01*
D02*
G37*
G36*
X151000Y105000D02*
Y-27D01*
X150646Y-380D01*
X26000Y-3D01*
Y24000D01*
X3000D01*
Y130000D01*
X126000D01*
X151000Y105000D01*
D02*
G37*
%LPC*%
G36*
X360358Y317339D02*
X358348Y317181D01*
X356387Y316710D01*
X354524Y315938D01*
X352805Y314885D01*
X351606Y313861D01*
X276224D01*
X275431Y314538D01*
X273712Y315592D01*
X271849Y316364D01*
X269888Y316834D01*
X267878Y316992D01*
X265868Y316834D01*
X263907Y316364D01*
X262044Y315592D01*
X260325Y314538D01*
X259717Y314020D01*
X211000Y314020D01*
X210610Y313942D01*
X210279Y313721D01*
X201305Y304747D01*
X201261Y304721D01*
X200739D01*
X200695Y304747D01*
X191721Y313721D01*
X191390Y313942D01*
X191000Y314020D01*
X138453Y314020D01*
X138431Y314038D01*
X136712Y315092D01*
X134849Y315863D01*
X132888Y316334D01*
X130878Y316492D01*
X128868Y316334D01*
X126907Y315863D01*
X125044Y315092D01*
X123325Y314038D01*
X121791Y312729D01*
X120482Y311195D01*
X119428Y309476D01*
X118656Y307613D01*
X118186Y305652D01*
X118027Y303642D01*
X118186Y301631D01*
X118656Y299671D01*
X119428Y297808D01*
X120482Y296088D01*
X121791Y294555D01*
X123325Y293245D01*
X125044Y292192D01*
X126907Y291420D01*
X128868Y290949D01*
X130878Y290791D01*
X132888Y290949D01*
X134849Y291420D01*
X136712Y292192D01*
X138431Y293245D01*
X139292Y293980D01*
X171471Y293980D01*
Y263350D01*
X169441D01*
Y257217D01*
X171407D01*
X171675Y256716D01*
X171587Y256585D01*
X171484Y256067D01*
X169441D01*
Y249933D01*
X176559D01*
Y255187D01*
X178441D01*
Y249933D01*
X180471D01*
Y248000D01*
X180587Y247415D01*
X180919Y246919D01*
X189919Y237919D01*
X190415Y237587D01*
X191000Y237471D01*
X211367D01*
X226919Y221919D01*
X227415Y221587D01*
X228000Y221471D01*
X234550D01*
X234649Y220971D01*
X233841Y220636D01*
X233005Y219995D01*
X232364Y219159D01*
X231961Y218186D01*
X231824Y217142D01*
X231961Y216098D01*
X232364Y215125D01*
X233005Y214289D01*
X233841Y213648D01*
X234329Y213446D01*
Y190838D01*
X233841Y190636D01*
X233005Y189995D01*
X232364Y189159D01*
X231961Y188186D01*
X231824Y187142D01*
X231961Y186098D01*
X232364Y185125D01*
X233005Y184289D01*
X233841Y183648D01*
X234814Y183245D01*
X235858Y183107D01*
X236902Y183245D01*
X237876Y183648D01*
X238711Y184289D01*
X239352Y185125D01*
X239755Y186098D01*
X239893Y187142D01*
X239755Y188186D01*
X239352Y189159D01*
X238711Y189995D01*
X237876Y190636D01*
X237388Y190838D01*
Y213446D01*
X237876Y213648D01*
X238711Y214289D01*
X239352Y215125D01*
X239755Y216098D01*
X239893Y217142D01*
X239755Y218186D01*
X239352Y219159D01*
X238711Y219995D01*
X237876Y220636D01*
X237067Y220971D01*
X237167Y221471D01*
X244550D01*
X244649Y220971D01*
X243841Y220636D01*
X243005Y219995D01*
X242364Y219159D01*
X241961Y218186D01*
X241824Y217142D01*
X241961Y216098D01*
X242364Y215125D01*
X243005Y214289D01*
X243841Y213648D01*
X244814Y213245D01*
X245858Y213107D01*
X246902Y213245D01*
X247875Y213648D01*
X248711Y214289D01*
X249329Y215094D01*
X249382Y215097D01*
X249829Y214842D01*
Y192642D01*
X249945Y192057D01*
X250277Y191560D01*
X252501Y189337D01*
X252364Y189159D01*
X251961Y188186D01*
X251824Y187142D01*
X251961Y186098D01*
X252364Y185125D01*
X253005Y184289D01*
X253841Y183648D01*
X254814Y183245D01*
X255858Y183107D01*
X256902Y183245D01*
X257875Y183648D01*
X258711Y184289D01*
X259352Y185125D01*
X259755Y186098D01*
X259893Y187142D01*
X259755Y188186D01*
X259352Y189159D01*
X258711Y189995D01*
X257875Y190636D01*
X256902Y191039D01*
X255858Y191176D01*
X255088Y191075D01*
X252888Y193275D01*
Y213749D01*
X253388Y213996D01*
X253841Y213648D01*
X254814Y213245D01*
X255858Y213107D01*
X256902Y213245D01*
X257875Y213648D01*
X258711Y214289D01*
X259329Y215094D01*
X259382Y215097D01*
X259829Y214842D01*
Y191642D01*
X259945Y191057D01*
X260277Y190560D01*
X262163Y188674D01*
X261961Y188186D01*
X261824Y187142D01*
X261961Y186098D01*
X262364Y185125D01*
X263005Y184289D01*
X263841Y183648D01*
X264814Y183245D01*
X265858Y183107D01*
X266902Y183245D01*
X267876Y183648D01*
X268711Y184289D01*
X269352Y185125D01*
X269755Y186098D01*
X269893Y187142D01*
X269755Y188186D01*
X269352Y189159D01*
X268711Y189995D01*
X267876Y190636D01*
X266902Y191039D01*
X265858Y191176D01*
X264814Y191039D01*
X264326Y190837D01*
X262888Y192275D01*
Y213749D01*
X263388Y213996D01*
X263841Y213648D01*
X264814Y213245D01*
X265858Y213107D01*
X266902Y213245D01*
X267876Y213648D01*
X268711Y214289D01*
X269352Y215125D01*
X269755Y216098D01*
X269893Y217142D01*
X269755Y218186D01*
X269352Y219159D01*
X268711Y219995D01*
X267876Y220636D01*
X266902Y221039D01*
X265858Y221176D01*
X264814Y221039D01*
X263841Y220636D01*
X263005Y219995D01*
X262597Y219462D01*
X262098Y219429D01*
X253942Y227584D01*
X253446Y227916D01*
X252861Y228032D01*
X229903D01*
X207748Y250188D01*
X207939Y250650D01*
X212756D01*
Y252217D01*
X209000D01*
Y255217D01*
X212756D01*
Y255754D01*
X215083D01*
X215688Y255149D01*
X215590Y254914D01*
X215470Y254000D01*
X215590Y253086D01*
X215943Y252235D01*
X216504Y251504D01*
X217235Y250943D01*
X218086Y250590D01*
X219000Y250470D01*
X219914Y250590D01*
X220765Y250943D01*
X221496Y251504D01*
X222057Y252235D01*
X222410Y253086D01*
X222530Y254000D01*
X222410Y254914D01*
X222057Y255765D01*
X221496Y256496D01*
X220765Y257057D01*
X219914Y257410D01*
X219000Y257530D01*
X218086Y257410D01*
X217851Y257312D01*
X216798Y258365D01*
X216302Y258697D01*
X215717Y258813D01*
X212756D01*
Y264067D01*
X210029D01*
Y270433D01*
X210681D01*
Y279323D01*
X206319D01*
Y270433D01*
X206971D01*
Y264067D01*
X205244D01*
X205029Y264478D01*
Y270433D01*
X205681D01*
Y279323D01*
X201319D01*
Y270433D01*
X201971D01*
Y264067D01*
X200029D01*
Y270433D01*
X200681D01*
Y279323D01*
X196319D01*
Y270433D01*
X196971D01*
Y264067D01*
X195244D01*
Y257933D01*
X201971D01*
Y256784D01*
X200500D01*
Y253717D01*
Y250650D01*
X202756D01*
X202756Y250650D01*
Y250650D01*
X203169Y250440D01*
X212753Y240856D01*
X212466Y240437D01*
X212000Y240529D01*
X191633D01*
X183529Y248634D01*
Y249933D01*
X185559D01*
Y256067D01*
X183232D01*
X183129Y256585D01*
X183042Y256716D01*
X183309Y257217D01*
X185559D01*
Y258783D01*
X178441D01*
Y258246D01*
X176559D01*
Y263350D01*
X174529D01*
Y293980D01*
X191319D01*
Y292677D01*
X195681D01*
Y293980D01*
X196319D01*
Y292677D01*
X200681D01*
Y293726D01*
X201181Y293936D01*
X201319Y293802D01*
Y292677D01*
X205681D01*
Y293980D01*
X206319D01*
Y292677D01*
X210681D01*
Y293980D01*
X260049D01*
X260325Y293745D01*
X262044Y292692D01*
X263907Y291920D01*
X265868Y291449D01*
X267878Y291291D01*
X269888Y291449D01*
X271849Y291920D01*
X273712Y292692D01*
X275431Y293745D01*
X276630Y294769D01*
X352012D01*
X352805Y294092D01*
X354524Y293038D01*
X356387Y292267D01*
X358348Y291796D01*
X360358Y291638D01*
X362368Y291796D01*
X364329Y292267D01*
X366192Y293038D01*
X367912Y294092D01*
X369445Y295401D01*
X370755Y296935D01*
X371808Y298654D01*
X372580Y300517D01*
X373051Y302478D01*
X373209Y304488D01*
X373051Y306499D01*
X372580Y308459D01*
X371808Y310322D01*
X370755Y312042D01*
X369445Y313575D01*
X367912Y314885D01*
X366192Y315938D01*
X364329Y316710D01*
X362368Y317181D01*
X360358Y317339D01*
D02*
G37*
G36*
X361858Y288874D02*
Y277642D01*
X373091D01*
X373051Y278152D01*
X372580Y280113D01*
X371808Y281976D01*
X370755Y283695D01*
X369445Y285229D01*
X367912Y286538D01*
X366192Y287592D01*
X364329Y288364D01*
X362368Y288834D01*
X361858Y288874D01*
D02*
G37*
G36*
X358858D02*
X358348Y288834D01*
X356387Y288364D01*
X354524Y287592D01*
X352805Y286538D01*
X351271Y285229D01*
X349962Y283695D01*
X348908Y281976D01*
X348136Y280113D01*
X347666Y278152D01*
X347626Y277642D01*
X358858D01*
Y288874D01*
D02*
G37*
G36*
X431500Y288733D02*
Y277500D01*
X442733D01*
X442692Y278010D01*
X442222Y279971D01*
X441450Y281834D01*
X440396Y283553D01*
X439087Y285087D01*
X437553Y286396D01*
X435834Y287450D01*
X433971Y288222D01*
X432010Y288692D01*
X431500Y288733D01*
D02*
G37*
G36*
X428500D02*
X427990Y288692D01*
X426029Y288222D01*
X424166Y287450D01*
X422447Y286396D01*
X420913Y285087D01*
X419604Y283553D01*
X418550Y281834D01*
X417778Y279971D01*
X417308Y278010D01*
X417267Y277500D01*
X428500D01*
Y288733D01*
D02*
G37*
G36*
X269378Y288528D02*
Y277295D01*
X280611D01*
X280570Y277805D01*
X280100Y279766D01*
X279328Y281629D01*
X278274Y283349D01*
X276965Y284882D01*
X275431Y286192D01*
X273712Y287245D01*
X271849Y288017D01*
X269888Y288488D01*
X269378Y288528D01*
D02*
G37*
G36*
X266378D02*
X265868Y288488D01*
X263907Y288017D01*
X262044Y287245D01*
X260325Y286192D01*
X258791Y284882D01*
X257482Y283349D01*
X256428Y281629D01*
X255656Y279766D01*
X255186Y277805D01*
X255145Y277295D01*
X266378D01*
Y288528D01*
D02*
G37*
G36*
X132378Y288028D02*
Y276795D01*
X143611D01*
X143570Y277306D01*
X143100Y279266D01*
X142328Y281129D01*
X141274Y282849D01*
X139965Y284382D01*
X138431Y285692D01*
X136712Y286745D01*
X134849Y287517D01*
X132888Y287988D01*
X132378Y288028D01*
D02*
G37*
G36*
X129378D02*
X128868Y287988D01*
X126907Y287517D01*
X125044Y286745D01*
X123325Y285692D01*
X121791Y284382D01*
X120482Y282849D01*
X119428Y281129D01*
X118656Y279266D01*
X118186Y277306D01*
X118145Y276795D01*
X129378D01*
Y288028D01*
D02*
G37*
G36*
X195681Y279323D02*
X195000D01*
Y276378D01*
X195681D01*
Y279323D01*
D02*
G37*
G36*
X192000D02*
X191319D01*
Y276378D01*
X192000D01*
Y279323D01*
D02*
G37*
G36*
X195681Y273378D02*
X195000D01*
Y270433D01*
X195681D01*
Y273378D01*
D02*
G37*
G36*
X192000D02*
X191319D01*
Y270433D01*
X192000D01*
Y273378D01*
D02*
G37*
G36*
X373091Y274642D02*
X361858D01*
Y263409D01*
X362368Y263449D01*
X364329Y263920D01*
X366192Y264692D01*
X367912Y265745D01*
X369445Y267055D01*
X370755Y268588D01*
X371808Y270308D01*
X372580Y272171D01*
X373051Y274131D01*
X373091Y274642D01*
D02*
G37*
G36*
X358858D02*
X347626D01*
X347666Y274131D01*
X348136Y272171D01*
X348908Y270308D01*
X349962Y268588D01*
X351271Y267055D01*
X352805Y265745D01*
X354524Y264692D01*
X356387Y263920D01*
X358348Y263449D01*
X358858Y263409D01*
Y274642D01*
D02*
G37*
G36*
X442733Y274500D02*
X431500D01*
Y263267D01*
X432010Y263308D01*
X433971Y263778D01*
X435834Y264550D01*
X437553Y265604D01*
X439087Y266913D01*
X440396Y268447D01*
X441450Y270166D01*
X442222Y272029D01*
X442692Y273990D01*
X442733Y274500D01*
D02*
G37*
G36*
X428500D02*
X417267D01*
X417308Y273990D01*
X417778Y272029D01*
X418550Y270166D01*
X419604Y268447D01*
X420913Y266913D01*
X422447Y265604D01*
X424166Y264550D01*
X426029Y263778D01*
X427990Y263308D01*
X428500Y263267D01*
Y274500D01*
D02*
G37*
G36*
X280611Y274295D02*
X269378D01*
Y263063D01*
X269888Y263103D01*
X271849Y263574D01*
X273712Y264345D01*
X275431Y265399D01*
X276965Y266708D01*
X278274Y268242D01*
X279328Y269961D01*
X280100Y271824D01*
X280570Y273785D01*
X280611Y274295D01*
D02*
G37*
G36*
X266378D02*
X255145D01*
X255186Y273785D01*
X255656Y271824D01*
X256428Y269961D01*
X257482Y268242D01*
X258791Y266708D01*
X260325Y265399D01*
X262044Y264345D01*
X263907Y263574D01*
X265868Y263103D01*
X266378Y263063D01*
Y274295D01*
D02*
G37*
G36*
X143611Y273795D02*
X132378D01*
Y262563D01*
X132888Y262603D01*
X134849Y263073D01*
X136712Y263845D01*
X138431Y264899D01*
X139965Y266208D01*
X141274Y267742D01*
X142328Y269461D01*
X143100Y271324D01*
X143570Y273285D01*
X143611Y273795D01*
D02*
G37*
G36*
X129378D02*
X118145D01*
X118186Y273285D01*
X118656Y271324D01*
X119428Y269461D01*
X120482Y267742D01*
X121791Y266208D01*
X123325Y264899D01*
X125044Y263845D01*
X126907Y263073D01*
X128868Y262603D01*
X129378Y262563D01*
Y273795D01*
D02*
G37*
G36*
X185559Y263350D02*
X183500D01*
Y261783D01*
X185559D01*
Y263350D01*
D02*
G37*
G36*
X180500D02*
X178441D01*
Y261783D01*
X180500D01*
Y263350D01*
D02*
G37*
G36*
X197500Y256784D02*
X195244D01*
Y255217D01*
X197500D01*
Y256784D01*
D02*
G37*
G36*
Y252217D02*
X195244D01*
Y250650D01*
X197500D01*
Y252217D01*
D02*
G37*
G36*
X99000Y251034D02*
X97956Y250897D01*
X96983Y250494D01*
X96147Y249853D01*
X95506Y249017D01*
X95103Y248044D01*
X94965Y247000D01*
X95103Y245956D01*
X95506Y244983D01*
X96147Y244147D01*
X96983Y243506D01*
X97956Y243103D01*
X99000Y242966D01*
X100044Y243103D01*
X101017Y243506D01*
X101853Y244147D01*
X102494Y244983D01*
X102897Y245956D01*
X103034Y247000D01*
X102897Y248044D01*
X102494Y249017D01*
X101853Y249853D01*
X101017Y250494D01*
X100044Y250897D01*
X99000Y251034D01*
D02*
G37*
G36*
X85000D02*
X83956Y250897D01*
X82983Y250494D01*
X82147Y249853D01*
X81506Y249017D01*
X81103Y248044D01*
X80966Y247000D01*
X81103Y245956D01*
X81506Y244983D01*
X82147Y244147D01*
X82983Y243506D01*
X83956Y243103D01*
X85000Y242966D01*
X86044Y243103D01*
X87017Y243506D01*
X87853Y244147D01*
X88494Y244983D01*
X88897Y245956D01*
X89034Y247000D01*
X88897Y248044D01*
X88494Y249017D01*
X87853Y249853D01*
X87017Y250494D01*
X86044Y250897D01*
X85000Y251034D01*
D02*
G37*
G36*
X71000D02*
X69956Y250897D01*
X68983Y250494D01*
X68147Y249853D01*
X67506Y249017D01*
X67103Y248044D01*
X66966Y247000D01*
X67103Y245956D01*
X67506Y244983D01*
X68147Y244147D01*
X68983Y243506D01*
X69956Y243103D01*
X71000Y242966D01*
X72044Y243103D01*
X73017Y243506D01*
X73853Y244147D01*
X74494Y244983D01*
X74897Y245956D01*
X75034Y247000D01*
X74897Y248044D01*
X74494Y249017D01*
X73853Y249853D01*
X73017Y250494D01*
X72044Y250897D01*
X71000Y251034D01*
D02*
G37*
G36*
X57000D02*
X55956Y250897D01*
X54983Y250494D01*
X54147Y249853D01*
X53506Y249017D01*
X53103Y248044D01*
X52965Y247000D01*
X53103Y245956D01*
X53506Y244983D01*
X54147Y244147D01*
X54983Y243506D01*
X55956Y243103D01*
X57000Y242966D01*
X58044Y243103D01*
X59017Y243506D01*
X59853Y244147D01*
X60494Y244983D01*
X60897Y245956D01*
X61035Y247000D01*
X60897Y248044D01*
X60494Y249017D01*
X59853Y249853D01*
X59017Y250494D01*
X58044Y250897D01*
X57000Y251034D01*
D02*
G37*
G36*
X43000D02*
X41956Y250897D01*
X40983Y250494D01*
X40147Y249853D01*
X39506Y249017D01*
X39103Y248044D01*
X38965Y247000D01*
X39103Y245956D01*
X39506Y244983D01*
X40147Y244147D01*
X40983Y243506D01*
X41956Y243103D01*
X43000Y242966D01*
X44044Y243103D01*
X45017Y243506D01*
X45853Y244147D01*
X46494Y244983D01*
X46897Y245956D01*
X47034Y247000D01*
X46897Y248044D01*
X46494Y249017D01*
X45853Y249853D01*
X45017Y250494D01*
X44044Y250897D01*
X43000Y251034D01*
D02*
G37*
G36*
X29000D02*
X27956Y250897D01*
X26983Y250494D01*
X26147Y249853D01*
X25506Y249017D01*
X25103Y248044D01*
X24965Y247000D01*
X25103Y245956D01*
X25506Y244983D01*
X26147Y244147D01*
X26983Y243506D01*
X27956Y243103D01*
X29000Y242966D01*
X30044Y243103D01*
X31017Y243506D01*
X31853Y244147D01*
X32494Y244983D01*
X32897Y245956D01*
X33035Y247000D01*
X32897Y248044D01*
X32494Y249017D01*
X31853Y249853D01*
X31017Y250494D01*
X30044Y250897D01*
X29000Y251034D01*
D02*
G37*
G36*
X99000Y241035D02*
X97956Y240897D01*
X96983Y240494D01*
X96147Y239853D01*
X95506Y239017D01*
X95410Y238784D01*
X88591D01*
X88494Y239017D01*
X87853Y239853D01*
X87017Y240494D01*
X86044Y240897D01*
X85000Y241035D01*
X83956Y240897D01*
X82983Y240494D01*
X82147Y239853D01*
X81506Y239017D01*
X81410Y238784D01*
X74590D01*
X74494Y239017D01*
X73853Y239853D01*
X73017Y240494D01*
X72044Y240897D01*
X71000Y241035D01*
X69956Y240897D01*
X68983Y240494D01*
X68147Y239853D01*
X67506Y239017D01*
X67409Y238784D01*
X60590D01*
X60494Y239017D01*
X59853Y239853D01*
X59017Y240494D01*
X58044Y240897D01*
X57000Y241035D01*
X55956Y240897D01*
X54983Y240494D01*
X54147Y239853D01*
X53506Y239017D01*
X53409Y238784D01*
X46591D01*
X46494Y239017D01*
X45853Y239853D01*
X45017Y240494D01*
X44044Y240897D01*
X43000Y241035D01*
X41956Y240897D01*
X40983Y240494D01*
X40147Y239853D01*
X39506Y239017D01*
X39410Y238784D01*
X32590D01*
X32494Y239017D01*
X31853Y239853D01*
X31017Y240494D01*
X30044Y240897D01*
X29000Y241035D01*
X27956Y240897D01*
X26983Y240494D01*
X26147Y239853D01*
X25506Y239017D01*
X25103Y238044D01*
X24965Y237000D01*
X25103Y235956D01*
X25506Y234983D01*
X26147Y234147D01*
X26983Y233506D01*
X27956Y233103D01*
X29000Y232965D01*
X30044Y233103D01*
X31017Y233506D01*
X31853Y234147D01*
X32494Y234983D01*
X32590Y235216D01*
X39410D01*
X39506Y234983D01*
X40147Y234147D01*
X40983Y233506D01*
X41956Y233103D01*
X43000Y232965D01*
X44044Y233103D01*
X45017Y233506D01*
X45853Y234147D01*
X46494Y234983D01*
X46591Y235216D01*
X53409D01*
X53506Y234983D01*
X54147Y234147D01*
X54983Y233506D01*
X55956Y233103D01*
X57000Y232965D01*
X58044Y233103D01*
X59017Y233506D01*
X59853Y234147D01*
X60494Y234983D01*
X60590Y235216D01*
X67409D01*
X67506Y234983D01*
X68147Y234147D01*
X68983Y233506D01*
X69956Y233103D01*
X71000Y232965D01*
X72044Y233103D01*
X73017Y233506D01*
X73853Y234147D01*
X74494Y234983D01*
X74590Y235216D01*
X81410D01*
X81506Y234983D01*
X82147Y234147D01*
X82983Y233506D01*
X83956Y233103D01*
X85000Y232965D01*
X86044Y233103D01*
X87017Y233506D01*
X87853Y234147D01*
X88494Y234983D01*
X88591Y235216D01*
X95410D01*
X95506Y234983D01*
X96147Y234147D01*
X96983Y233506D01*
X97956Y233103D01*
X99000Y232965D01*
X100044Y233103D01*
X100277Y233199D01*
X143035Y190442D01*
X143005Y189995D01*
X142364Y189159D01*
X141961Y188186D01*
X141824Y187142D01*
X141844Y186989D01*
X141395Y186767D01*
X102695Y225468D01*
X102897Y225956D01*
X103034Y227000D01*
X102897Y228044D01*
X102494Y229017D01*
X101853Y229853D01*
X101017Y230494D01*
X100044Y230897D01*
X99000Y231034D01*
X97956Y230897D01*
X96983Y230494D01*
X96147Y229853D01*
X95506Y229017D01*
X95103Y228044D01*
X94965Y227000D01*
X95103Y225956D01*
X95506Y224983D01*
X96147Y224147D01*
X96983Y223506D01*
X97956Y223103D01*
X99000Y222966D01*
X100044Y223103D01*
X100532Y223305D01*
X151188Y172649D01*
X151090Y172414D01*
X150970Y171500D01*
X151090Y170586D01*
X151443Y169735D01*
X152004Y169004D01*
X152735Y168443D01*
X153586Y168090D01*
X154500Y167970D01*
X155414Y168090D01*
X156265Y168443D01*
X156996Y169004D01*
X157557Y169735D01*
X157910Y170586D01*
X158030Y171500D01*
X157994Y171776D01*
X158467Y172009D01*
X174738Y155738D01*
X174738Y155738D01*
X175317Y155351D01*
X176000Y155216D01*
X422933D01*
Y153244D01*
X427499D01*
Y151756D01*
X422933D01*
Y147529D01*
X399696D01*
X399494Y148017D01*
X398853Y148853D01*
X398017Y149494D01*
X397044Y149897D01*
X396000Y150034D01*
X394956Y149897D01*
X393983Y149494D01*
X393147Y148853D01*
X392506Y148017D01*
X392103Y147044D01*
X391966Y146000D01*
X392103Y144956D01*
X392506Y143983D01*
X393147Y143147D01*
X393983Y142506D01*
X394956Y142103D01*
X396000Y141965D01*
X397044Y142103D01*
X398017Y142506D01*
X398853Y143147D01*
X399494Y143983D01*
X399696Y144471D01*
X422933D01*
Y144244D01*
X429067D01*
Y147608D01*
X429262Y147738D01*
X429754Y148231D01*
X430217Y148040D01*
Y144244D01*
X431783D01*
Y148000D01*
Y151756D01*
X431068D01*
Y153244D01*
X431783D01*
Y157000D01*
Y160756D01*
X431068D01*
Y161441D01*
X436067D01*
Y163063D01*
X438000D01*
X438741Y163210D01*
X439370Y163630D01*
X441370Y165630D01*
X441790Y166259D01*
X441937Y167000D01*
Y172031D01*
X447398D01*
Y183874D01*
X432602D01*
Y172031D01*
X438063D01*
Y167802D01*
X437198Y166937D01*
X436067D01*
Y168559D01*
X429933D01*
Y166715D01*
X429601Y166648D01*
X429284Y166437D01*
X428784Y166704D01*
Y168559D01*
X422650D01*
Y166529D01*
X418350D01*
Y168559D01*
X412217D01*
Y161441D01*
X418350D01*
Y163471D01*
X422650D01*
Y161441D01*
X427499D01*
Y160756D01*
X422933D01*
Y158784D01*
X182380D01*
X182210Y159284D01*
X182496Y159504D01*
X183057Y160235D01*
X183410Y161086D01*
X183530Y162000D01*
X183410Y162914D01*
X183057Y163765D01*
X182496Y164496D01*
X181765Y165057D01*
X180914Y165410D01*
X180000Y165530D01*
X179086Y165410D01*
X178851Y165312D01*
X167388Y176775D01*
Y183446D01*
X167876Y183648D01*
X168711Y184289D01*
X169352Y185125D01*
X169755Y186098D01*
X169893Y187142D01*
X169755Y188186D01*
X169352Y189159D01*
X168711Y189995D01*
X167876Y190636D01*
X166902Y191039D01*
X165858Y191176D01*
X164814Y191039D01*
X163841Y190636D01*
X163005Y189995D01*
X162364Y189159D01*
X161961Y188186D01*
X161824Y187142D01*
X161961Y186098D01*
X162364Y185125D01*
X163005Y184289D01*
X163841Y183648D01*
X164329Y183446D01*
Y176142D01*
X164445Y175557D01*
X164777Y175060D01*
X176688Y163149D01*
X176590Y162914D01*
X176470Y162000D01*
X176590Y161086D01*
X176943Y160235D01*
X177504Y159504D01*
X177790Y159284D01*
X177620Y158784D01*
X176739D01*
X149659Y185865D01*
X149755Y186098D01*
X149893Y187142D01*
X149755Y188186D01*
X149352Y189159D01*
X148711Y189995D01*
X147875Y190636D01*
X147643Y190732D01*
Y213551D01*
X147875Y213648D01*
X148711Y214289D01*
X149352Y215125D01*
X149755Y216098D01*
X149893Y217142D01*
X149755Y218186D01*
X149352Y219159D01*
X148711Y219995D01*
X147875Y220636D01*
X146902Y221039D01*
X145858Y221176D01*
X144814Y221039D01*
X143841Y220636D01*
X143005Y219995D01*
X142364Y219159D01*
X141961Y218186D01*
X141824Y217142D01*
X141961Y216098D01*
X142364Y215125D01*
X143005Y214289D01*
X143841Y213648D01*
X144074Y213551D01*
Y195103D01*
X143612Y194911D01*
X102801Y235723D01*
X102897Y235956D01*
X103034Y237000D01*
X102897Y238044D01*
X102494Y239017D01*
X101853Y239853D01*
X101017Y240494D01*
X100044Y240897D01*
X99000Y241035D01*
D02*
G37*
G36*
X430000Y317197D02*
X427990Y317039D01*
X426029Y316568D01*
X424166Y315796D01*
X422447Y314743D01*
X420913Y313433D01*
X419604Y311900D01*
X418550Y310180D01*
X417778Y308317D01*
X417308Y306357D01*
X417149Y304346D01*
X417308Y302336D01*
X417778Y300375D01*
X418550Y298512D01*
X419604Y296793D01*
X420913Y295260D01*
X422447Y293950D01*
X424166Y292897D01*
X426029Y292125D01*
X427990Y291654D01*
X430000Y291496D01*
X432010Y291654D01*
X433971Y292125D01*
X435834Y292897D01*
X437528Y293934D01*
X444961Y286502D01*
Y258845D01*
X420155Y234039D01*
X414000D01*
X413902Y234020D01*
X405067D01*
Y234756D01*
X398933D01*
Y227244D01*
X401764D01*
Y224756D01*
X398933D01*
Y217244D01*
X403881D01*
X405771Y215354D01*
X405563Y214854D01*
X405555D01*
Y207146D01*
X411750D01*
X411941Y206684D01*
X394060Y188803D01*
X393729Y188306D01*
X393612Y187721D01*
Y171000D01*
X393729Y170415D01*
X394060Y169919D01*
X394958Y169021D01*
X394766Y168559D01*
X391216D01*
Y161441D01*
X397350D01*
Y163471D01*
X404933D01*
Y161441D01*
X411067D01*
Y168559D01*
X404933D01*
Y166529D01*
X401775D01*
X396671Y171634D01*
Y187088D01*
X405093Y195510D01*
X405555Y195318D01*
Y195177D01*
X407441D01*
Y192177D01*
X405555D01*
Y189823D01*
X407511D01*
X407702Y189361D01*
X402919Y184578D01*
X402587Y184081D01*
X402522Y183756D01*
X397650D01*
Y176244D01*
X403784D01*
Y178544D01*
X404000Y178587D01*
X404433Y178877D01*
X404903Y178750D01*
X404933Y178737D01*
Y176244D01*
X411067D01*
Y179160D01*
X411311D01*
X411896Y179276D01*
X412393Y179607D01*
X413640Y180856D01*
X413972Y181352D01*
X414088Y181937D01*
Y189823D01*
X417004D01*
Y192177D01*
X415118D01*
Y193677D01*
X414445D01*
Y197531D01*
X412924D01*
X412733Y197994D01*
X420802Y206063D01*
X432161D01*
X432602Y205921D01*
Y194079D01*
X447398D01*
Y205921D01*
X441937D01*
Y206000D01*
X441790Y206741D01*
X441370Y207370D01*
X439370Y209370D01*
X438741Y209790D01*
X438000Y209937D01*
X420000D01*
X419259Y209790D01*
X418630Y209370D01*
X417466Y208205D01*
X417004Y208397D01*
Y214854D01*
X414088D01*
Y217244D01*
X419067D01*
Y224756D01*
X412933D01*
Y222487D01*
X412560Y222413D01*
X412063Y222081D01*
X411520Y221538D01*
X411343Y221559D01*
X411020Y221710D01*
Y223673D01*
X415511Y229961D01*
X421000D01*
X421780Y230116D01*
X422442Y230558D01*
X448442Y256558D01*
X448884Y257220D01*
X449039Y258000D01*
Y287347D01*
X448884Y288127D01*
X448442Y288788D01*
X440412Y296818D01*
X441450Y298512D01*
X442222Y300375D01*
X442692Y302336D01*
X442851Y304346D01*
X442692Y306357D01*
X442222Y308317D01*
X441450Y310180D01*
X440396Y311900D01*
X439087Y313433D01*
X437553Y314743D01*
X435834Y315796D01*
X433971Y316568D01*
X432010Y317039D01*
X430000Y317197D01*
D02*
G37*
G36*
X397783Y234756D02*
X396217D01*
Y232500D01*
X397783D01*
Y234756D01*
D02*
G37*
G36*
X393217D02*
X391650D01*
Y232500D01*
X393217D01*
Y234756D01*
D02*
G37*
G36*
X397783Y229500D02*
X396217D01*
Y227244D01*
X397783D01*
Y229500D01*
D02*
G37*
G36*
X393217D02*
X391650D01*
Y227244D01*
X393217D01*
Y229500D01*
D02*
G37*
G36*
X85000Y231034D02*
X83956Y230897D01*
X82983Y230494D01*
X82147Y229853D01*
X81506Y229017D01*
X81103Y228044D01*
X80966Y227000D01*
X81103Y225956D01*
X81506Y224983D01*
X82147Y224147D01*
X82983Y223506D01*
X83956Y223103D01*
X85000Y222966D01*
X86044Y223103D01*
X87017Y223506D01*
X87853Y224147D01*
X88494Y224983D01*
X88897Y225956D01*
X89034Y227000D01*
X88897Y228044D01*
X88494Y229017D01*
X87853Y229853D01*
X87017Y230494D01*
X86044Y230897D01*
X85000Y231034D01*
D02*
G37*
G36*
X71000D02*
X69956Y230897D01*
X68983Y230494D01*
X68147Y229853D01*
X67506Y229017D01*
X67103Y228044D01*
X66966Y227000D01*
X67103Y225956D01*
X67506Y224983D01*
X68147Y224147D01*
X68983Y223506D01*
X69956Y223103D01*
X71000Y222966D01*
X72044Y223103D01*
X73017Y223506D01*
X73853Y224147D01*
X74494Y224983D01*
X74897Y225956D01*
X75034Y227000D01*
X74897Y228044D01*
X74494Y229017D01*
X73853Y229853D01*
X73017Y230494D01*
X72044Y230897D01*
X71000Y231034D01*
D02*
G37*
G36*
X57000D02*
X55956Y230897D01*
X54983Y230494D01*
X54147Y229853D01*
X53506Y229017D01*
X53103Y228044D01*
X52965Y227000D01*
X53103Y225956D01*
X53506Y224983D01*
X54147Y224147D01*
X54983Y223506D01*
X55956Y223103D01*
X57000Y222966D01*
X58044Y223103D01*
X59017Y223506D01*
X59853Y224147D01*
X60494Y224983D01*
X60897Y225956D01*
X61035Y227000D01*
X60897Y228044D01*
X60494Y229017D01*
X59853Y229853D01*
X59017Y230494D01*
X58044Y230897D01*
X57000Y231034D01*
D02*
G37*
G36*
X43000D02*
X41956Y230897D01*
X40983Y230494D01*
X40147Y229853D01*
X39506Y229017D01*
X39103Y228044D01*
X38965Y227000D01*
X39103Y225956D01*
X39506Y224983D01*
X40147Y224147D01*
X40983Y223506D01*
X41956Y223103D01*
X43000Y222966D01*
X44044Y223103D01*
X45017Y223506D01*
X45853Y224147D01*
X46494Y224983D01*
X46897Y225956D01*
X47034Y227000D01*
X46897Y228044D01*
X46494Y229017D01*
X45853Y229853D01*
X45017Y230494D01*
X44044Y230897D01*
X43000Y231034D01*
D02*
G37*
G36*
X29000D02*
X27956Y230897D01*
X26983Y230494D01*
X26147Y229853D01*
X25506Y229017D01*
X25103Y228044D01*
X24965Y227000D01*
X25103Y225956D01*
X25506Y224983D01*
X26147Y224147D01*
X26983Y223506D01*
X27956Y223103D01*
X29000Y222966D01*
X30044Y223103D01*
X31017Y223506D01*
X31853Y224147D01*
X32494Y224983D01*
X32897Y225956D01*
X33035Y227000D01*
X32897Y228044D01*
X32494Y229017D01*
X31853Y229853D01*
X31017Y230494D01*
X30044Y230897D01*
X29000Y231034D01*
D02*
G37*
G36*
X426350Y224756D02*
X424783D01*
Y222500D01*
X426350D01*
Y224756D01*
D02*
G37*
G36*
X397783D02*
X396217D01*
Y222500D01*
X397783D01*
Y224756D01*
D02*
G37*
G36*
X393217D02*
X391650D01*
Y222500D01*
X393217D01*
Y224756D01*
D02*
G37*
G36*
X421783D02*
X420217D01*
Y222500D01*
X421783D01*
Y224756D01*
D02*
G37*
G36*
X287358Y220850D02*
Y218642D01*
X289566D01*
X289352Y219159D01*
X288711Y219995D01*
X287876Y220636D01*
X287358Y220850D01*
D02*
G37*
G36*
X284358D02*
X283841Y220636D01*
X283005Y219995D01*
X282364Y219159D01*
X282150Y218642D01*
X284358D01*
Y220850D01*
D02*
G37*
G36*
X157358D02*
Y218642D01*
X159566D01*
X159352Y219159D01*
X158711Y219995D01*
X157876Y220636D01*
X157358Y220850D01*
D02*
G37*
G36*
X154358D02*
X153841Y220636D01*
X153005Y219995D01*
X152364Y219159D01*
X152150Y218642D01*
X154358D01*
Y220850D01*
D02*
G37*
G36*
X426350Y219500D02*
X424783D01*
Y217244D01*
X426350D01*
Y219500D01*
D02*
G37*
G36*
X421783D02*
X420217D01*
Y217244D01*
X421783D01*
Y219500D01*
D02*
G37*
G36*
X397783D02*
X396217D01*
Y217244D01*
X397783D01*
Y219500D01*
D02*
G37*
G36*
X393217D02*
X391650D01*
Y217244D01*
X393217D01*
Y219500D01*
D02*
G37*
G36*
X165858Y221176D02*
X164814Y221039D01*
X163841Y220636D01*
X163005Y219995D01*
X162364Y219159D01*
X161961Y218186D01*
X161824Y217142D01*
X161961Y216098D01*
X162364Y215125D01*
X163005Y214289D01*
X163841Y213648D01*
X164814Y213245D01*
X165858Y213107D01*
X166902Y213245D01*
X167876Y213648D01*
X168711Y214289D01*
X169352Y215125D01*
X169755Y216098D01*
X169893Y217142D01*
X169755Y218186D01*
X169352Y219159D01*
X168711Y219995D01*
X167876Y220636D01*
X166902Y221039D01*
X165858Y221176D01*
D02*
G37*
G36*
X99000Y221035D02*
X97956Y220897D01*
X96983Y220494D01*
X96147Y219853D01*
X95506Y219017D01*
X95103Y218044D01*
X94965Y217000D01*
X95103Y215956D01*
X95506Y214983D01*
X96147Y214147D01*
X96983Y213506D01*
X97956Y213103D01*
X99000Y212965D01*
X100044Y213103D01*
X101017Y213506D01*
X101853Y214147D01*
X102494Y214983D01*
X102897Y215956D01*
X103034Y217000D01*
X102897Y218044D01*
X102494Y219017D01*
X101853Y219853D01*
X101017Y220494D01*
X100044Y220897D01*
X99000Y221035D01*
D02*
G37*
G36*
X85000D02*
X83956Y220897D01*
X82983Y220494D01*
X82147Y219853D01*
X81506Y219017D01*
X81103Y218044D01*
X80966Y217000D01*
X81103Y215956D01*
X81506Y214983D01*
X82147Y214147D01*
X82983Y213506D01*
X83956Y213103D01*
X85000Y212965D01*
X86044Y213103D01*
X87017Y213506D01*
X87853Y214147D01*
X88494Y214983D01*
X88897Y215956D01*
X89034Y217000D01*
X88897Y218044D01*
X88494Y219017D01*
X87853Y219853D01*
X87017Y220494D01*
X86044Y220897D01*
X85000Y221035D01*
D02*
G37*
G36*
X71000D02*
X69956Y220897D01*
X68983Y220494D01*
X68147Y219853D01*
X67506Y219017D01*
X67103Y218044D01*
X66966Y217000D01*
X67103Y215956D01*
X67506Y214983D01*
X68147Y214147D01*
X68983Y213506D01*
X69956Y213103D01*
X71000Y212965D01*
X72044Y213103D01*
X73017Y213506D01*
X73853Y214147D01*
X74494Y214983D01*
X74897Y215956D01*
X75034Y217000D01*
X74897Y218044D01*
X74494Y219017D01*
X73853Y219853D01*
X73017Y220494D01*
X72044Y220897D01*
X71000Y221035D01*
D02*
G37*
G36*
X57000D02*
X55956Y220897D01*
X54983Y220494D01*
X54147Y219853D01*
X53506Y219017D01*
X53103Y218044D01*
X52965Y217000D01*
X53103Y215956D01*
X53506Y214983D01*
X54147Y214147D01*
X54983Y213506D01*
X55956Y213103D01*
X57000Y212965D01*
X58044Y213103D01*
X59017Y213506D01*
X59853Y214147D01*
X60494Y214983D01*
X60897Y215956D01*
X61035Y217000D01*
X60897Y218044D01*
X60494Y219017D01*
X59853Y219853D01*
X59017Y220494D01*
X58044Y220897D01*
X57000Y221035D01*
D02*
G37*
G36*
X43000D02*
X41956Y220897D01*
X40983Y220494D01*
X40147Y219853D01*
X39506Y219017D01*
X39103Y218044D01*
X38965Y217000D01*
X39103Y215956D01*
X39506Y214983D01*
X40147Y214147D01*
X40983Y213506D01*
X41956Y213103D01*
X43000Y212965D01*
X44044Y213103D01*
X45017Y213506D01*
X45853Y214147D01*
X46494Y214983D01*
X46897Y215956D01*
X47034Y217000D01*
X46897Y218044D01*
X46494Y219017D01*
X45853Y219853D01*
X45017Y220494D01*
X44044Y220897D01*
X43000Y221035D01*
D02*
G37*
G36*
X29000D02*
X27956Y220897D01*
X26983Y220494D01*
X26147Y219853D01*
X25506Y219017D01*
X25103Y218044D01*
X24965Y217000D01*
X25103Y215956D01*
X25506Y214983D01*
X26147Y214147D01*
X26983Y213506D01*
X27956Y213103D01*
X29000Y212965D01*
X30044Y213103D01*
X31017Y213506D01*
X31853Y214147D01*
X32494Y214983D01*
X32897Y215956D01*
X33035Y217000D01*
X32897Y218044D01*
X32494Y219017D01*
X31853Y219853D01*
X31017Y220494D01*
X30044Y220897D01*
X29000Y221035D01*
D02*
G37*
G36*
X103000Y211000D02*
X100500D01*
Y208500D01*
X103000D01*
Y211000D01*
D02*
G37*
G36*
X97500D02*
X95000D01*
Y208500D01*
X97500D01*
Y211000D01*
D02*
G37*
G36*
X89000D02*
X86500D01*
Y208500D01*
X89000D01*
Y211000D01*
D02*
G37*
G36*
X83500D02*
X81000D01*
Y208500D01*
X83500D01*
Y211000D01*
D02*
G37*
G36*
X75000D02*
X72500D01*
Y208500D01*
X75000D01*
Y211000D01*
D02*
G37*
G36*
X69500D02*
X67000D01*
Y208500D01*
X69500D01*
Y211000D01*
D02*
G37*
G36*
X61000D02*
X58500D01*
Y208500D01*
X61000D01*
Y211000D01*
D02*
G37*
G36*
X55500D02*
X53000D01*
Y208500D01*
X55500D01*
Y211000D01*
D02*
G37*
G36*
X47000D02*
X44500D01*
Y208500D01*
X47000D01*
Y211000D01*
D02*
G37*
G36*
X41500D02*
X39000D01*
Y208500D01*
X41500D01*
Y211000D01*
D02*
G37*
G36*
X33000D02*
X30500D01*
Y208500D01*
X33000D01*
Y211000D01*
D02*
G37*
G36*
X27500D02*
X25000D01*
Y208500D01*
X27500D01*
Y211000D01*
D02*
G37*
G36*
X103000Y205500D02*
X100500D01*
Y203000D01*
X103000D01*
Y205500D01*
D02*
G37*
G36*
X97500D02*
X95000D01*
Y203000D01*
X97500D01*
Y205500D01*
D02*
G37*
G36*
X89000D02*
X86500D01*
Y203000D01*
X89000D01*
Y205500D01*
D02*
G37*
G36*
X83500D02*
X81000D01*
Y203000D01*
X83500D01*
Y205500D01*
D02*
G37*
G36*
X75000D02*
X72500D01*
Y203000D01*
X75000D01*
Y205500D01*
D02*
G37*
G36*
X69500D02*
X67000D01*
Y203000D01*
X69500D01*
Y205500D01*
D02*
G37*
G36*
X61000D02*
X58500D01*
Y203000D01*
X61000D01*
Y205500D01*
D02*
G37*
G36*
X55500D02*
X53000D01*
Y203000D01*
X55500D01*
Y205500D01*
D02*
G37*
G36*
X47000D02*
X44500D01*
Y203000D01*
X47000D01*
Y205500D01*
D02*
G37*
G36*
X41500D02*
X39000D01*
Y203000D01*
X41500D01*
Y205500D01*
D02*
G37*
G36*
X33000D02*
X30500D01*
Y203000D01*
X33000D01*
Y205500D01*
D02*
G37*
G36*
X27500D02*
X25000D01*
Y203000D01*
X27500D01*
Y205500D01*
D02*
G37*
G36*
X417004Y197531D02*
X416618D01*
Y195177D01*
X417004D01*
Y197531D01*
D02*
G37*
G36*
X289566Y215642D02*
X282150D01*
X282364Y215125D01*
X283005Y214289D01*
X283841Y213648D01*
X284329Y213446D01*
Y190838D01*
X283841Y190636D01*
X283005Y189995D01*
X282364Y189159D01*
X282150Y188642D01*
X285858D01*
X289566D01*
X289352Y189159D01*
X288711Y189995D01*
X287876Y190636D01*
X287388Y190838D01*
Y213446D01*
X287876Y213648D01*
X288711Y214289D01*
X289352Y215125D01*
X289566Y215642D01*
D02*
G37*
G36*
X159566D02*
X152150D01*
X152364Y215125D01*
X153005Y214289D01*
X153841Y213648D01*
X154329Y213446D01*
Y190838D01*
X153841Y190636D01*
X153005Y189995D01*
X152364Y189159D01*
X152150Y188642D01*
X155858D01*
X159566D01*
X159352Y189159D01*
X158711Y189995D01*
X157876Y190636D01*
X157388Y190838D01*
Y213446D01*
X157876Y213648D01*
X158711Y214289D01*
X159352Y215125D01*
X159566Y215642D01*
D02*
G37*
G36*
X289566Y185642D02*
X287358D01*
Y183433D01*
X287876Y183648D01*
X288711Y184289D01*
X289352Y185125D01*
X289566Y185642D01*
D02*
G37*
G36*
X159566D02*
X157358D01*
Y183433D01*
X157876Y183648D01*
X158711Y184289D01*
X159352Y185125D01*
X159566Y185642D01*
D02*
G37*
G36*
X284358D02*
X282150D01*
X282364Y185125D01*
X283005Y184289D01*
X283841Y183648D01*
X284358Y183433D01*
Y185642D01*
D02*
G37*
G36*
X154358D02*
X152150D01*
X152364Y185125D01*
X153005Y184289D01*
X153841Y183648D01*
X154358Y183433D01*
Y185642D01*
D02*
G37*
G36*
X379858Y221142D02*
X371858D01*
Y213142D01*
X374329D01*
Y190838D01*
X373841Y190636D01*
X373005Y189995D01*
X372364Y189159D01*
X371961Y188186D01*
X371824Y187142D01*
X371961Y186098D01*
X372364Y185125D01*
X373005Y184289D01*
X373841Y183648D01*
X374814Y183245D01*
X375858Y183107D01*
X376902Y183245D01*
X377875Y183648D01*
X378711Y184289D01*
X379352Y185125D01*
X379755Y186098D01*
X379893Y187142D01*
X379755Y188186D01*
X379352Y189159D01*
X378711Y189995D01*
X377875Y190636D01*
X377388Y190838D01*
Y213142D01*
X379858D01*
Y221142D01*
D02*
G37*
G36*
X365858Y221176D02*
X364814Y221039D01*
X363841Y220636D01*
X363005Y219995D01*
X362364Y219159D01*
X361961Y218186D01*
X361824Y217142D01*
X361961Y216098D01*
X362364Y215125D01*
X363005Y214289D01*
X363841Y213648D01*
X364329Y213446D01*
Y190838D01*
X363841Y190636D01*
X363005Y189995D01*
X362364Y189159D01*
X361961Y188186D01*
X361824Y187142D01*
X361961Y186098D01*
X362364Y185125D01*
X363005Y184289D01*
X363841Y183648D01*
X364814Y183245D01*
X365858Y183107D01*
X366902Y183245D01*
X367876Y183648D01*
X368711Y184289D01*
X369352Y185125D01*
X369755Y186098D01*
X369893Y187142D01*
X369755Y188186D01*
X369352Y189159D01*
X368711Y189995D01*
X367876Y190636D01*
X367388Y190838D01*
Y213446D01*
X367876Y213648D01*
X368711Y214289D01*
X369352Y215125D01*
X369755Y216098D01*
X369893Y217142D01*
X369755Y218186D01*
X369352Y219159D01*
X368711Y219995D01*
X367876Y220636D01*
X366902Y221039D01*
X365858Y221176D01*
D02*
G37*
G36*
X355858D02*
X354814Y221039D01*
X353841Y220636D01*
X353005Y219995D01*
X352364Y219159D01*
X351961Y218186D01*
X351824Y217142D01*
X351961Y216098D01*
X352364Y215125D01*
X353005Y214289D01*
X353841Y213648D01*
X354329Y213446D01*
Y190838D01*
X353841Y190636D01*
X353005Y189995D01*
X352364Y189159D01*
X351961Y188186D01*
X351824Y187142D01*
X351961Y186098D01*
X352364Y185125D01*
X353005Y184289D01*
X353841Y183648D01*
X354814Y183245D01*
X355858Y183107D01*
X356902Y183245D01*
X357875Y183648D01*
X358711Y184289D01*
X359352Y185125D01*
X359755Y186098D01*
X359893Y187142D01*
X359755Y188186D01*
X359352Y189159D01*
X358711Y189995D01*
X357875Y190636D01*
X357388Y190838D01*
Y213446D01*
X357875Y213648D01*
X358711Y214289D01*
X359352Y215125D01*
X359755Y216098D01*
X359893Y217142D01*
X359755Y218186D01*
X359352Y219159D01*
X358711Y219995D01*
X357875Y220636D01*
X356902Y221039D01*
X355858Y221176D01*
D02*
G37*
G36*
X345858D02*
X344814Y221039D01*
X343841Y220636D01*
X343005Y219995D01*
X342364Y219159D01*
X341961Y218186D01*
X341824Y217142D01*
X341961Y216098D01*
X342364Y215125D01*
X343005Y214289D01*
X343841Y213648D01*
X344329Y213446D01*
Y190838D01*
X343841Y190636D01*
X343005Y189995D01*
X342364Y189159D01*
X341961Y188186D01*
X341824Y187142D01*
X341961Y186098D01*
X342364Y185125D01*
X343005Y184289D01*
X343841Y183648D01*
X344814Y183245D01*
X345858Y183107D01*
X346902Y183245D01*
X347875Y183648D01*
X348711Y184289D01*
X349352Y185125D01*
X349755Y186098D01*
X349893Y187142D01*
X349755Y188186D01*
X349352Y189159D01*
X348711Y189995D01*
X347875Y190636D01*
X347388Y190838D01*
Y213446D01*
X347875Y213648D01*
X348711Y214289D01*
X349352Y215125D01*
X349755Y216098D01*
X349893Y217142D01*
X349755Y218186D01*
X349352Y219159D01*
X348711Y219995D01*
X347875Y220636D01*
X346902Y221039D01*
X345858Y221176D01*
D02*
G37*
G36*
X335858D02*
X334814Y221039D01*
X333841Y220636D01*
X333005Y219995D01*
X332364Y219159D01*
X331961Y218186D01*
X331824Y217142D01*
X331961Y216098D01*
X332364Y215125D01*
X333005Y214289D01*
X333841Y213648D01*
X334329Y213446D01*
Y190838D01*
X333841Y190636D01*
X333005Y189995D01*
X332364Y189159D01*
X331961Y188186D01*
X331824Y187142D01*
X331961Y186098D01*
X332364Y185125D01*
X333005Y184289D01*
X333841Y183648D01*
X334814Y183245D01*
X335858Y183107D01*
X336902Y183245D01*
X337876Y183648D01*
X338711Y184289D01*
X339352Y185125D01*
X339755Y186098D01*
X339893Y187142D01*
X339755Y188186D01*
X339352Y189159D01*
X338711Y189995D01*
X337876Y190636D01*
X337388Y190838D01*
Y213446D01*
X337876Y213648D01*
X338711Y214289D01*
X339352Y215125D01*
X339755Y216098D01*
X339893Y217142D01*
X339755Y218186D01*
X339352Y219159D01*
X338711Y219995D01*
X337876Y220636D01*
X336902Y221039D01*
X335858Y221176D01*
D02*
G37*
G36*
X325858D02*
X324814Y221039D01*
X323841Y220636D01*
X323005Y219995D01*
X322364Y219159D01*
X321961Y218186D01*
X321824Y217142D01*
X321961Y216098D01*
X322364Y215125D01*
X323005Y214289D01*
X323841Y213648D01*
X324329Y213446D01*
Y190838D01*
X323841Y190636D01*
X323005Y189995D01*
X322364Y189159D01*
X321961Y188186D01*
X321824Y187142D01*
X321961Y186098D01*
X322364Y185125D01*
X323005Y184289D01*
X323841Y183648D01*
X324814Y183245D01*
X325858Y183107D01*
X326902Y183245D01*
X327875Y183648D01*
X328711Y184289D01*
X329352Y185125D01*
X329755Y186098D01*
X329893Y187142D01*
X329755Y188186D01*
X329352Y189159D01*
X328711Y189995D01*
X327875Y190636D01*
X327388Y190838D01*
Y213446D01*
X327875Y213648D01*
X328711Y214289D01*
X329352Y215125D01*
X329755Y216098D01*
X329893Y217142D01*
X329755Y218186D01*
X329352Y219159D01*
X328711Y219995D01*
X327875Y220636D01*
X326902Y221039D01*
X325858Y221176D01*
D02*
G37*
G36*
X315858D02*
X314814Y221039D01*
X313841Y220636D01*
X313005Y219995D01*
X312364Y219159D01*
X311961Y218186D01*
X311824Y217142D01*
X311961Y216098D01*
X312364Y215125D01*
X313005Y214289D01*
X313841Y213648D01*
X314329Y213446D01*
Y190838D01*
X313841Y190636D01*
X313005Y189995D01*
X312364Y189159D01*
X311961Y188186D01*
X311824Y187142D01*
X311961Y186098D01*
X312364Y185125D01*
X313005Y184289D01*
X313841Y183648D01*
X314814Y183245D01*
X315858Y183107D01*
X316902Y183245D01*
X317876Y183648D01*
X318711Y184289D01*
X319352Y185125D01*
X319755Y186098D01*
X319893Y187142D01*
X319755Y188186D01*
X319352Y189159D01*
X318711Y189995D01*
X317876Y190636D01*
X317388Y190838D01*
Y213446D01*
X317876Y213648D01*
X318711Y214289D01*
X319352Y215125D01*
X319755Y216098D01*
X319893Y217142D01*
X319755Y218186D01*
X319352Y219159D01*
X318711Y219995D01*
X317876Y220636D01*
X316902Y221039D01*
X315858Y221176D01*
D02*
G37*
G36*
X305858D02*
X304814Y221039D01*
X303841Y220636D01*
X303005Y219995D01*
X302364Y219159D01*
X301961Y218186D01*
X301824Y217142D01*
X301961Y216098D01*
X302364Y215125D01*
X303005Y214289D01*
X303841Y213648D01*
X304329Y213446D01*
Y190838D01*
X303841Y190636D01*
X303005Y189995D01*
X302364Y189159D01*
X301961Y188186D01*
X301824Y187142D01*
X301961Y186098D01*
X302364Y185125D01*
X303005Y184289D01*
X303841Y183648D01*
X304814Y183245D01*
X305858Y183107D01*
X306902Y183245D01*
X307875Y183648D01*
X308711Y184289D01*
X309352Y185125D01*
X309755Y186098D01*
X309893Y187142D01*
X309755Y188186D01*
X309352Y189159D01*
X308711Y189995D01*
X307875Y190636D01*
X307388Y190838D01*
Y213446D01*
X307875Y213648D01*
X308711Y214289D01*
X309352Y215125D01*
X309755Y216098D01*
X309893Y217142D01*
X309755Y218186D01*
X309352Y219159D01*
X308711Y219995D01*
X307875Y220636D01*
X306902Y221039D01*
X305858Y221176D01*
D02*
G37*
G36*
X295858D02*
X294814Y221039D01*
X293841Y220636D01*
X293005Y219995D01*
X292364Y219159D01*
X291961Y218186D01*
X291824Y217142D01*
X291961Y216098D01*
X292364Y215125D01*
X293005Y214289D01*
X293841Y213648D01*
X294329Y213446D01*
Y190838D01*
X293841Y190636D01*
X293005Y189995D01*
X292364Y189159D01*
X291961Y188186D01*
X291824Y187142D01*
X291961Y186098D01*
X292364Y185125D01*
X293005Y184289D01*
X293841Y183648D01*
X294814Y183245D01*
X295858Y183107D01*
X296902Y183245D01*
X297875Y183648D01*
X298711Y184289D01*
X299352Y185125D01*
X299755Y186098D01*
X299893Y187142D01*
X299755Y188186D01*
X299352Y189159D01*
X298711Y189995D01*
X297875Y190636D01*
X297388Y190838D01*
Y213446D01*
X297875Y213648D01*
X298711Y214289D01*
X299352Y215125D01*
X299755Y216098D01*
X299893Y217142D01*
X299755Y218186D01*
X299352Y219159D01*
X298711Y219995D01*
X297875Y220636D01*
X296902Y221039D01*
X295858Y221176D01*
D02*
G37*
G36*
X275858D02*
X274814Y221039D01*
X273841Y220636D01*
X273005Y219995D01*
X272364Y219159D01*
X271961Y218186D01*
X271824Y217142D01*
X271961Y216098D01*
X272364Y215125D01*
X273005Y214289D01*
X273841Y213648D01*
X274329Y213446D01*
Y190838D01*
X273841Y190636D01*
X273005Y189995D01*
X272364Y189159D01*
X271961Y188186D01*
X271824Y187142D01*
X271961Y186098D01*
X272364Y185125D01*
X273005Y184289D01*
X273841Y183648D01*
X274814Y183245D01*
X275858Y183107D01*
X276902Y183245D01*
X277875Y183648D01*
X278711Y184289D01*
X279352Y185125D01*
X279755Y186098D01*
X279893Y187142D01*
X279755Y188186D01*
X279352Y189159D01*
X278711Y189995D01*
X277875Y190636D01*
X277388Y190838D01*
Y213446D01*
X277875Y213648D01*
X278711Y214289D01*
X279352Y215125D01*
X279755Y216098D01*
X279893Y217142D01*
X279755Y218186D01*
X279352Y219159D01*
X278711Y219995D01*
X277875Y220636D01*
X276902Y221039D01*
X275858Y221176D01*
D02*
G37*
G36*
X245858Y191176D02*
X244814Y191039D01*
X243841Y190636D01*
X243005Y189995D01*
X242364Y189159D01*
X241961Y188186D01*
X241824Y187142D01*
X241961Y186098D01*
X242364Y185125D01*
X243005Y184289D01*
X243841Y183648D01*
X244814Y183245D01*
X245858Y183107D01*
X246902Y183245D01*
X247875Y183648D01*
X248711Y184289D01*
X249352Y185125D01*
X249755Y186098D01*
X249893Y187142D01*
X249755Y188186D01*
X249352Y189159D01*
X248711Y189995D01*
X247875Y190636D01*
X246902Y191039D01*
X245858Y191176D01*
D02*
G37*
G36*
X225858Y221176D02*
X224814Y221039D01*
X223841Y220636D01*
X223005Y219995D01*
X222364Y219159D01*
X221961Y218186D01*
X221824Y217142D01*
X221961Y216098D01*
X222364Y215125D01*
X223005Y214289D01*
X223841Y213648D01*
X224329Y213446D01*
Y190838D01*
X223841Y190636D01*
X223005Y189995D01*
X222364Y189159D01*
X221961Y188186D01*
X221824Y187142D01*
X221961Y186098D01*
X222364Y185125D01*
X223005Y184289D01*
X223841Y183648D01*
X224814Y183245D01*
X225858Y183107D01*
X226902Y183245D01*
X227875Y183648D01*
X228711Y184289D01*
X229352Y185125D01*
X229755Y186098D01*
X229893Y187142D01*
X229755Y188186D01*
X229352Y189159D01*
X228711Y189995D01*
X227875Y190636D01*
X227388Y190838D01*
Y213446D01*
X227875Y213648D01*
X228711Y214289D01*
X229352Y215125D01*
X229755Y216098D01*
X229893Y217142D01*
X229755Y218186D01*
X229352Y219159D01*
X228711Y219995D01*
X227875Y220636D01*
X226902Y221039D01*
X225858Y221176D01*
D02*
G37*
G36*
X215858D02*
X214814Y221039D01*
X213841Y220636D01*
X213005Y219995D01*
X212364Y219159D01*
X211961Y218186D01*
X211824Y217142D01*
X211961Y216098D01*
X212364Y215125D01*
X213005Y214289D01*
X213841Y213648D01*
X214329Y213446D01*
Y190838D01*
X213841Y190636D01*
X213005Y189995D01*
X212364Y189159D01*
X211961Y188186D01*
X211824Y187142D01*
X211961Y186098D01*
X212364Y185125D01*
X213005Y184289D01*
X213841Y183648D01*
X214814Y183245D01*
X215858Y183107D01*
X216902Y183245D01*
X217876Y183648D01*
X218711Y184289D01*
X219352Y185125D01*
X219755Y186098D01*
X219893Y187142D01*
X219755Y188186D01*
X219352Y189159D01*
X218711Y189995D01*
X217876Y190636D01*
X217388Y190838D01*
Y213446D01*
X217876Y213648D01*
X218711Y214289D01*
X219352Y215125D01*
X219755Y216098D01*
X219893Y217142D01*
X219755Y218186D01*
X219352Y219159D01*
X218711Y219995D01*
X217876Y220636D01*
X216902Y221039D01*
X215858Y221176D01*
D02*
G37*
G36*
X205858D02*
X204814Y221039D01*
X203841Y220636D01*
X203005Y219995D01*
X202364Y219159D01*
X201961Y218186D01*
X201824Y217142D01*
X201961Y216098D01*
X202364Y215125D01*
X203005Y214289D01*
X203841Y213648D01*
X204329Y213446D01*
Y190838D01*
X203841Y190636D01*
X203005Y189995D01*
X202364Y189159D01*
X201961Y188186D01*
X201824Y187142D01*
X201961Y186098D01*
X202364Y185125D01*
X203005Y184289D01*
X203841Y183648D01*
X204814Y183245D01*
X205858Y183107D01*
X206902Y183245D01*
X207875Y183648D01*
X208711Y184289D01*
X209352Y185125D01*
X209755Y186098D01*
X209893Y187142D01*
X209755Y188186D01*
X209352Y189159D01*
X208711Y189995D01*
X207875Y190636D01*
X207388Y190838D01*
Y213446D01*
X207875Y213648D01*
X208711Y214289D01*
X209352Y215125D01*
X209755Y216098D01*
X209893Y217142D01*
X209755Y218186D01*
X209352Y219159D01*
X208711Y219995D01*
X207875Y220636D01*
X206902Y221039D01*
X205858Y221176D01*
D02*
G37*
G36*
X195858D02*
X194814Y221039D01*
X193841Y220636D01*
X193005Y219995D01*
X192364Y219159D01*
X191961Y218186D01*
X191824Y217142D01*
X191961Y216098D01*
X192364Y215125D01*
X193005Y214289D01*
X193841Y213648D01*
X194329Y213446D01*
Y190838D01*
X193841Y190636D01*
X193005Y189995D01*
X192364Y189159D01*
X191961Y188186D01*
X191824Y187142D01*
X191961Y186098D01*
X192364Y185125D01*
X193005Y184289D01*
X193841Y183648D01*
X194814Y183245D01*
X195858Y183107D01*
X196902Y183245D01*
X197875Y183648D01*
X198711Y184289D01*
X199352Y185125D01*
X199755Y186098D01*
X199893Y187142D01*
X199755Y188186D01*
X199352Y189159D01*
X198711Y189995D01*
X197875Y190636D01*
X197388Y190838D01*
Y213446D01*
X197875Y213648D01*
X198711Y214289D01*
X199352Y215125D01*
X199755Y216098D01*
X199893Y217142D01*
X199755Y218186D01*
X199352Y219159D01*
X198711Y219995D01*
X197875Y220636D01*
X196902Y221039D01*
X195858Y221176D01*
D02*
G37*
G36*
X185858D02*
X184814Y221039D01*
X183841Y220636D01*
X183005Y219995D01*
X182364Y219159D01*
X181961Y218186D01*
X181824Y217142D01*
X181961Y216098D01*
X182364Y215125D01*
X183005Y214289D01*
X183841Y213648D01*
X184329Y213446D01*
Y190838D01*
X183841Y190636D01*
X183005Y189995D01*
X182364Y189159D01*
X181961Y188186D01*
X181824Y187142D01*
X181961Y186098D01*
X182364Y185125D01*
X183005Y184289D01*
X183841Y183648D01*
X184814Y183245D01*
X185858Y183107D01*
X186902Y183245D01*
X187875Y183648D01*
X188711Y184289D01*
X189352Y185125D01*
X189755Y186098D01*
X189893Y187142D01*
X189755Y188186D01*
X189352Y189159D01*
X188711Y189995D01*
X187875Y190636D01*
X187388Y190838D01*
Y213446D01*
X187875Y213648D01*
X188711Y214289D01*
X189352Y215125D01*
X189755Y216098D01*
X189893Y217142D01*
X189755Y218186D01*
X189352Y219159D01*
X188711Y219995D01*
X187875Y220636D01*
X186902Y221039D01*
X185858Y221176D01*
D02*
G37*
G36*
X175858D02*
X174814Y221039D01*
X173841Y220636D01*
X173005Y219995D01*
X172364Y219159D01*
X171961Y218186D01*
X171824Y217142D01*
X171961Y216098D01*
X172364Y215125D01*
X173005Y214289D01*
X173841Y213648D01*
X174329Y213446D01*
Y190838D01*
X173841Y190636D01*
X173005Y189995D01*
X172364Y189159D01*
X171961Y188186D01*
X171824Y187142D01*
X171961Y186098D01*
X172364Y185125D01*
X173005Y184289D01*
X173841Y183648D01*
X174814Y183245D01*
X175858Y183107D01*
X176902Y183245D01*
X177875Y183648D01*
X178711Y184289D01*
X179352Y185125D01*
X179755Y186098D01*
X179893Y187142D01*
X179755Y188186D01*
X179352Y189159D01*
X178711Y189995D01*
X177875Y190636D01*
X177388Y190838D01*
Y213446D01*
X177875Y213648D01*
X178711Y214289D01*
X179352Y215125D01*
X179755Y216098D01*
X179893Y217142D01*
X179755Y218186D01*
X179352Y219159D01*
X178711Y219995D01*
X177875Y220636D01*
X176902Y221039D01*
X175858Y221176D01*
D02*
G37*
G36*
X98756Y175350D02*
X96500D01*
Y173783D01*
X98756D01*
Y175350D01*
D02*
G37*
G36*
X93500D02*
X91244D01*
Y173783D01*
X93500D01*
Y175350D01*
D02*
G37*
G36*
X98756Y170783D02*
X96500D01*
Y169217D01*
X98756D01*
Y170783D01*
D02*
G37*
G36*
X93500D02*
X91244D01*
Y169217D01*
X93500D01*
Y170783D01*
D02*
G37*
G36*
X390067Y168559D02*
X388500D01*
Y166500D01*
X390067D01*
Y168559D01*
D02*
G37*
G36*
X385500D02*
X383933D01*
Y166500D01*
X385500D01*
Y168559D01*
D02*
G37*
G36*
X390067Y163500D02*
X388500D01*
Y161441D01*
X390067D01*
Y163500D01*
D02*
G37*
G36*
X385500D02*
X383933D01*
Y161441D01*
X385500D01*
Y163500D01*
D02*
G37*
G36*
X436350Y160756D02*
X434783D01*
Y158500D01*
X436350D01*
Y160756D01*
D02*
G37*
G36*
Y155500D02*
X434783D01*
Y153244D01*
X436350D01*
Y155500D01*
D02*
G37*
G36*
X98756Y168067D02*
X91244D01*
Y161933D01*
X93471D01*
Y159155D01*
X93235Y159057D01*
X92504Y158496D01*
X91943Y157765D01*
X91590Y156914D01*
X91470Y156000D01*
X91590Y155086D01*
X91943Y154235D01*
X92504Y153504D01*
X92884Y153212D01*
X92864Y152597D01*
X92857Y152592D01*
X92353Y151838D01*
X92255Y151346D01*
X91745D01*
X91647Y151838D01*
X91143Y152592D01*
X91000Y152688D01*
Y148094D01*
Y143501D01*
X91143Y143597D01*
X91647Y144351D01*
X91745Y144843D01*
X92255D01*
X92353Y144351D01*
X92857Y143597D01*
X93611Y143093D01*
X94500Y142916D01*
X95389Y143093D01*
X96143Y143597D01*
X96647Y144351D01*
X96745Y144843D01*
X97255D01*
X97353Y144351D01*
X97857Y143597D01*
X97971Y143520D01*
Y142500D01*
X98087Y141915D01*
X98419Y141419D01*
X104398Y135439D01*
X104895Y135107D01*
X105480Y134991D01*
X175846D01*
X182163Y128674D01*
X181961Y128186D01*
X181824Y127142D01*
X181961Y126098D01*
X182364Y125125D01*
X183005Y124289D01*
X183841Y123648D01*
X184814Y123245D01*
X185858Y123107D01*
X186902Y123245D01*
X187875Y123648D01*
X188711Y124289D01*
X189352Y125125D01*
X189755Y126098D01*
X189893Y127142D01*
X189755Y128186D01*
X189352Y129159D01*
X188711Y129995D01*
X187875Y130636D01*
X186902Y131039D01*
X185858Y131176D01*
X184814Y131039D01*
X184326Y130837D01*
X178154Y137009D01*
X178346Y137471D01*
X183367D01*
X192163Y128674D01*
X191961Y128186D01*
X191824Y127142D01*
X191961Y126098D01*
X192364Y125125D01*
X193005Y124289D01*
X193841Y123648D01*
X194814Y123245D01*
X195858Y123107D01*
X196902Y123245D01*
X197875Y123648D01*
X198711Y124289D01*
X199352Y125125D01*
X199755Y126098D01*
X199893Y127142D01*
X199755Y128186D01*
X199352Y129159D01*
X198711Y129995D01*
X197875Y130636D01*
X196902Y131039D01*
X195858Y131176D01*
X194814Y131039D01*
X194326Y130837D01*
X185081Y140081D01*
X184585Y140413D01*
X184000Y140529D01*
X139007D01*
X138878Y141029D01*
X139496Y141504D01*
X140057Y142235D01*
X140410Y143086D01*
X140530Y144000D01*
X140410Y144914D01*
X140057Y145765D01*
X139496Y146496D01*
X138765Y147057D01*
X137914Y147410D01*
X137000Y147530D01*
X136086Y147410D01*
X135235Y147057D01*
X134504Y146496D01*
X133943Y145765D01*
X133590Y144914D01*
X133470Y144000D01*
X133482Y143905D01*
X133153Y143529D01*
X126700D01*
X126433Y144029D01*
X126647Y144351D01*
X126824Y145240D01*
Y150949D01*
X126647Y151838D01*
X126144Y152592D01*
X125389Y153096D01*
X124500Y153273D01*
X123611Y153096D01*
X122856Y152592D01*
X122353Y151838D01*
X122255Y151346D01*
X121745D01*
X121647Y151838D01*
X121143Y152592D01*
X121000Y152688D01*
Y148094D01*
X118000D01*
Y152688D01*
X117857Y152592D01*
X117353Y151838D01*
X117255Y151346D01*
X116745D01*
X116647Y151838D01*
X116144Y152592D01*
X116000Y152688D01*
Y148094D01*
X113000D01*
Y152688D01*
X112856Y152592D01*
X112353Y151838D01*
X112255Y151346D01*
X111745D01*
X111647Y151838D01*
X111144Y152592D01*
X110389Y153096D01*
X109500Y153273D01*
X108611Y153096D01*
X107857Y152592D01*
X107353Y151838D01*
X107255Y151346D01*
X106745D01*
X106647Y151838D01*
X106143Y152592D01*
X105389Y153096D01*
X104500Y153273D01*
X103611Y153096D01*
X102857Y152592D01*
X102353Y151838D01*
X102255Y151346D01*
X101745D01*
X101647Y151838D01*
X101143Y152592D01*
X100389Y153096D01*
X99500Y153273D01*
X98611Y153096D01*
X97857Y152592D01*
X97353Y151838D01*
X97255Y151346D01*
X96745D01*
X96647Y151838D01*
X96352Y152280D01*
X96467Y152819D01*
X96765Y152943D01*
X97496Y153504D01*
X98057Y154235D01*
X98410Y155086D01*
X98530Y156000D01*
X98410Y156914D01*
X98057Y157765D01*
X97496Y158496D01*
X96765Y159057D01*
X96529Y159155D01*
Y161933D01*
X98756D01*
Y168067D01*
D02*
G37*
G36*
X88000Y152688D02*
X87857Y152592D01*
X87353Y151838D01*
X87176Y150949D01*
Y149594D01*
X88000D01*
Y152688D01*
D02*
G37*
G36*
X436350Y151756D02*
X434783D01*
Y149500D01*
X436350D01*
Y151756D01*
D02*
G37*
G36*
Y146500D02*
X434783D01*
Y144244D01*
X436350D01*
Y146500D01*
D02*
G37*
G36*
X88000Y146595D02*
X87176D01*
Y145240D01*
X87353Y144351D01*
X87857Y143597D01*
X88000Y143501D01*
Y146595D01*
D02*
G37*
G36*
X396000Y140034D02*
X394956Y139897D01*
X393983Y139494D01*
X393147Y138853D01*
X392506Y138017D01*
X392103Y137044D01*
X391966Y136000D01*
X392103Y134956D01*
X392506Y133983D01*
X393147Y133147D01*
X393983Y132506D01*
X394956Y132103D01*
X396000Y131965D01*
X397044Y132103D01*
X398017Y132506D01*
X398853Y133147D01*
X399494Y133983D01*
X399696Y134471D01*
X401367D01*
X402919Y132919D01*
X403415Y132587D01*
X404000Y132471D01*
X409252D01*
Y131087D01*
X419717D01*
Y137024D01*
X415992D01*
X415844Y137053D01*
X415696Y137024D01*
X409252D01*
Y135529D01*
X404634D01*
X403081Y137081D01*
X402585Y137413D01*
X402000Y137529D01*
X399696D01*
X399494Y138017D01*
X398853Y138853D01*
X398017Y139494D01*
X397044Y139897D01*
X396000Y140034D01*
D02*
G37*
G36*
X147358Y130850D02*
Y128642D01*
X149566D01*
X149352Y129159D01*
X148711Y129995D01*
X147875Y130636D01*
X147358Y130850D01*
D02*
G37*
G36*
X144358D02*
X143841Y130636D01*
X143005Y129995D01*
X142364Y129159D01*
X142150Y128642D01*
X144358D01*
Y130850D01*
D02*
G37*
G36*
X419717Y127969D02*
X409252D01*
Y126784D01*
X407000D01*
X407000Y126784D01*
X406317Y126648D01*
X405738Y126262D01*
X405738Y126262D01*
X317261Y37784D01*
X284716D01*
X284716Y37784D01*
X284034Y37648D01*
X283455Y37262D01*
X283455Y37262D01*
X277135Y30942D01*
X276902Y31039D01*
X275858Y31176D01*
X274814Y31039D01*
X273841Y30636D01*
X273005Y29995D01*
X272364Y29159D01*
X271961Y28186D01*
X271824Y27142D01*
X271961Y26098D01*
X272364Y25124D01*
X273005Y24289D01*
X273841Y23648D01*
X274329Y23446D01*
Y12492D01*
X273529Y11692D01*
X273067Y11883D01*
Y12756D01*
X266933D01*
Y5244D01*
X273067D01*
Y7484D01*
X273585Y7587D01*
X274081Y7919D01*
X276940Y10777D01*
X277271Y11273D01*
X277388Y11858D01*
Y23446D01*
X277875Y23648D01*
X278711Y24289D01*
X279352Y25124D01*
X279755Y26098D01*
X279893Y27142D01*
X279755Y28186D01*
X279659Y28419D01*
X285455Y34216D01*
X318000D01*
X318683Y34352D01*
X319262Y34738D01*
X407739Y123216D01*
X409252D01*
Y122032D01*
X419717D01*
Y127969D01*
D02*
G37*
G36*
X149566Y125642D02*
X147358D01*
Y123433D01*
X147875Y123648D01*
X148711Y124289D01*
X149352Y125125D01*
X149566Y125642D01*
D02*
G37*
G36*
X144358D02*
X142150D01*
X142364Y125125D01*
X143005Y124289D01*
X143841Y123648D01*
X144358Y123433D01*
Y125642D01*
D02*
G37*
G36*
X375858Y131176D02*
X374814Y131039D01*
X373841Y130636D01*
X373005Y129995D01*
X372364Y129159D01*
X371961Y128186D01*
X371824Y127142D01*
X371961Y126098D01*
X372364Y125125D01*
X373005Y124289D01*
X373841Y123648D01*
X374814Y123245D01*
X375858Y123107D01*
X376902Y123245D01*
X377875Y123648D01*
X378711Y124289D01*
X379352Y125125D01*
X379755Y126098D01*
X379893Y127142D01*
X379755Y128186D01*
X379352Y129159D01*
X378711Y129995D01*
X377875Y130636D01*
X376902Y131039D01*
X375858Y131176D01*
D02*
G37*
G36*
X365858D02*
X364814Y131039D01*
X363841Y130636D01*
X363005Y129995D01*
X362364Y129159D01*
X361961Y128186D01*
X361824Y127142D01*
X361961Y126098D01*
X362364Y125125D01*
X363005Y124289D01*
X363841Y123648D01*
X364814Y123245D01*
X365858Y123107D01*
X366902Y123245D01*
X367876Y123648D01*
X368711Y124289D01*
X369352Y125125D01*
X369755Y126098D01*
X369893Y127142D01*
X369755Y128186D01*
X369352Y129159D01*
X368711Y129995D01*
X367876Y130636D01*
X366902Y131039D01*
X365858Y131176D01*
D02*
G37*
G36*
X355858D02*
X354814Y131039D01*
X353841Y130636D01*
X353005Y129995D01*
X352364Y129159D01*
X351961Y128186D01*
X351824Y127142D01*
X351961Y126098D01*
X352364Y125125D01*
X353005Y124289D01*
X353841Y123648D01*
X354814Y123245D01*
X355858Y123107D01*
X356902Y123245D01*
X357875Y123648D01*
X358711Y124289D01*
X359352Y125125D01*
X359755Y126098D01*
X359893Y127142D01*
X359755Y128186D01*
X359352Y129159D01*
X358711Y129995D01*
X357875Y130636D01*
X356902Y131039D01*
X355858Y131176D01*
D02*
G37*
G36*
X345858D02*
X344814Y131039D01*
X343841Y130636D01*
X343005Y129995D01*
X342364Y129159D01*
X341961Y128186D01*
X341824Y127142D01*
X341961Y126098D01*
X342364Y125125D01*
X343005Y124289D01*
X343841Y123648D01*
X344814Y123245D01*
X345858Y123107D01*
X346902Y123245D01*
X347875Y123648D01*
X348711Y124289D01*
X349352Y125125D01*
X349755Y126098D01*
X349893Y127142D01*
X349755Y128186D01*
X349352Y129159D01*
X348711Y129995D01*
X347875Y130636D01*
X346902Y131039D01*
X345858Y131176D01*
D02*
G37*
G36*
X335858D02*
X334814Y131039D01*
X333841Y130636D01*
X333005Y129995D01*
X332364Y129159D01*
X331961Y128186D01*
X331824Y127142D01*
X331961Y126098D01*
X332364Y125125D01*
X333005Y124289D01*
X333841Y123648D01*
X334814Y123245D01*
X335858Y123107D01*
X336902Y123245D01*
X337876Y123648D01*
X338711Y124289D01*
X339352Y125125D01*
X339755Y126098D01*
X339893Y127142D01*
X339755Y128186D01*
X339352Y129159D01*
X338711Y129995D01*
X337876Y130636D01*
X336902Y131039D01*
X335858Y131176D01*
D02*
G37*
G36*
X325858D02*
X324814Y131039D01*
X323841Y130636D01*
X323005Y129995D01*
X322364Y129159D01*
X321961Y128186D01*
X321824Y127142D01*
X321961Y126098D01*
X322364Y125125D01*
X323005Y124289D01*
X323841Y123648D01*
X324814Y123245D01*
X325858Y123107D01*
X326902Y123245D01*
X327875Y123648D01*
X328711Y124289D01*
X329352Y125125D01*
X329755Y126098D01*
X329893Y127142D01*
X329755Y128186D01*
X329352Y129159D01*
X328711Y129995D01*
X327875Y130636D01*
X326902Y131039D01*
X325858Y131176D01*
D02*
G37*
G36*
X315858D02*
X314814Y131039D01*
X313841Y130636D01*
X313005Y129995D01*
X312364Y129159D01*
X311961Y128186D01*
X311824Y127142D01*
X311961Y126098D01*
X312364Y125125D01*
X313005Y124289D01*
X313841Y123648D01*
X314814Y123245D01*
X315858Y123107D01*
X316902Y123245D01*
X317876Y123648D01*
X318711Y124289D01*
X319352Y125125D01*
X319755Y126098D01*
X319893Y127142D01*
X319755Y128186D01*
X319352Y129159D01*
X318711Y129995D01*
X317876Y130636D01*
X316902Y131039D01*
X315858Y131176D01*
D02*
G37*
G36*
X305858D02*
X304814Y131039D01*
X303841Y130636D01*
X303005Y129995D01*
X302364Y129159D01*
X301961Y128186D01*
X301824Y127142D01*
X301961Y126098D01*
X302364Y125125D01*
X303005Y124289D01*
X303841Y123648D01*
X304814Y123245D01*
X305858Y123107D01*
X306902Y123245D01*
X307875Y123648D01*
X308711Y124289D01*
X309352Y125125D01*
X309755Y126098D01*
X309893Y127142D01*
X309755Y128186D01*
X309352Y129159D01*
X308711Y129995D01*
X307875Y130636D01*
X306902Y131039D01*
X305858Y131176D01*
D02*
G37*
G36*
X285858D02*
X284814Y131039D01*
X283841Y130636D01*
X283005Y129995D01*
X282364Y129159D01*
X281961Y128186D01*
X281824Y127142D01*
X281961Y126098D01*
X282364Y125125D01*
X283005Y124289D01*
X283841Y123648D01*
X284814Y123245D01*
X285858Y123107D01*
X286902Y123245D01*
X287876Y123648D01*
X288711Y124289D01*
X289352Y125125D01*
X289755Y126098D01*
X289893Y127142D01*
X289755Y128186D01*
X289352Y129159D01*
X288711Y129995D01*
X287876Y130636D01*
X286902Y131039D01*
X285858Y131176D01*
D02*
G37*
G36*
X245858D02*
X244814Y131039D01*
X243841Y130636D01*
X243005Y129995D01*
X242364Y129159D01*
X241961Y128186D01*
X241824Y127142D01*
X241961Y126098D01*
X242364Y125125D01*
X243005Y124289D01*
X243841Y123648D01*
X244814Y123245D01*
X245858Y123107D01*
X246902Y123245D01*
X247875Y123648D01*
X248711Y124289D01*
X249352Y125125D01*
X249755Y126098D01*
X249893Y127142D01*
X249755Y128186D01*
X249352Y129159D01*
X248711Y129995D01*
X247875Y130636D01*
X246902Y131039D01*
X245858Y131176D01*
D02*
G37*
G36*
X235858D02*
X234814Y131039D01*
X233841Y130636D01*
X233005Y129995D01*
X232364Y129159D01*
X231961Y128186D01*
X231824Y127142D01*
X231961Y126098D01*
X232364Y125125D01*
X233005Y124289D01*
X233841Y123648D01*
X234814Y123245D01*
X235858Y123107D01*
X236902Y123245D01*
X237876Y123648D01*
X238711Y124289D01*
X239352Y125125D01*
X239755Y126098D01*
X239893Y127142D01*
X239755Y128186D01*
X239352Y129159D01*
X238711Y129995D01*
X237876Y130636D01*
X236902Y131039D01*
X235858Y131176D01*
D02*
G37*
G36*
X225858D02*
X224814Y131039D01*
X223841Y130636D01*
X223005Y129995D01*
X222364Y129159D01*
X221961Y128186D01*
X221824Y127142D01*
X221961Y126098D01*
X222364Y125125D01*
X223005Y124289D01*
X223841Y123648D01*
X224814Y123245D01*
X225858Y123107D01*
X226902Y123245D01*
X227875Y123648D01*
X228711Y124289D01*
X229352Y125125D01*
X229755Y126098D01*
X229893Y127142D01*
X229755Y128186D01*
X229352Y129159D01*
X228711Y129995D01*
X227875Y130636D01*
X226902Y131039D01*
X225858Y131176D01*
D02*
G37*
G36*
X215858D02*
X214814Y131039D01*
X213841Y130636D01*
X213005Y129995D01*
X212364Y129159D01*
X211961Y128186D01*
X211824Y127142D01*
X211961Y126098D01*
X212364Y125125D01*
X213005Y124289D01*
X213841Y123648D01*
X214814Y123245D01*
X215858Y123107D01*
X216902Y123245D01*
X217876Y123648D01*
X218711Y124289D01*
X219352Y125125D01*
X219755Y126098D01*
X219893Y127142D01*
X219755Y128186D01*
X219352Y129159D01*
X218711Y129995D01*
X217876Y130636D01*
X216902Y131039D01*
X215858Y131176D01*
D02*
G37*
G36*
X205858D02*
X204814Y131039D01*
X203841Y130636D01*
X203005Y129995D01*
X202364Y129159D01*
X201961Y128186D01*
X201824Y127142D01*
X201961Y126098D01*
X202364Y125125D01*
X203005Y124289D01*
X203841Y123648D01*
X204814Y123245D01*
X205858Y123107D01*
X206902Y123245D01*
X207875Y123648D01*
X208711Y124289D01*
X209352Y125125D01*
X209755Y126098D01*
X209893Y127142D01*
X209755Y128186D01*
X209352Y129159D01*
X208711Y129995D01*
X207875Y130636D01*
X206902Y131039D01*
X205858Y131176D01*
D02*
G37*
G36*
X175858D02*
X174814Y131039D01*
X173841Y130636D01*
X173005Y129995D01*
X172364Y129159D01*
X171961Y128186D01*
X171824Y127142D01*
X171961Y126098D01*
X172364Y125125D01*
X173005Y124289D01*
X173841Y123648D01*
X174814Y123245D01*
X175858Y123107D01*
X176902Y123245D01*
X177875Y123648D01*
X178711Y124289D01*
X179352Y125125D01*
X179755Y126098D01*
X179893Y127142D01*
X179755Y128186D01*
X179352Y129159D01*
X178711Y129995D01*
X177875Y130636D01*
X176902Y131039D01*
X175858Y131176D01*
D02*
G37*
G36*
X165858D02*
X164814Y131039D01*
X163841Y130636D01*
X163005Y129995D01*
X162364Y129159D01*
X161961Y128186D01*
X161824Y127142D01*
X161961Y126098D01*
X162364Y125125D01*
X163005Y124289D01*
X163841Y123648D01*
X164814Y123245D01*
X165858Y123107D01*
X166902Y123245D01*
X167876Y123648D01*
X168711Y124289D01*
X169352Y125125D01*
X169755Y126098D01*
X169893Y127142D01*
X169755Y128186D01*
X169352Y129159D01*
X168711Y129995D01*
X167876Y130636D01*
X166902Y131039D01*
X165858Y131176D01*
D02*
G37*
G36*
X155858D02*
X154814Y131039D01*
X153841Y130636D01*
X153005Y129995D01*
X152364Y129159D01*
X151961Y128186D01*
X151824Y127142D01*
X151961Y126098D01*
X152364Y125125D01*
X153005Y124289D01*
X153841Y123648D01*
X154814Y123245D01*
X155858Y123107D01*
X156902Y123245D01*
X157876Y123648D01*
X158711Y124289D01*
X159352Y125125D01*
X159755Y126098D01*
X159893Y127142D01*
X159755Y128186D01*
X159352Y129159D01*
X158711Y129995D01*
X157876Y130636D01*
X156902Y131039D01*
X155858Y131176D01*
D02*
G37*
G36*
X400000Y130000D02*
X392000D01*
Y122000D01*
X400000D01*
Y130000D01*
D02*
G37*
G36*
X442748Y132398D02*
X432283D01*
Y117602D01*
X442748D01*
Y132398D01*
D02*
G37*
G36*
X419717Y118913D02*
X415984D01*
Y117445D01*
X419717D01*
Y118913D01*
D02*
G37*
G36*
X412984D02*
X409252D01*
Y117445D01*
X412984D01*
Y118913D01*
D02*
G37*
G36*
X419717Y114445D02*
X415984D01*
Y112976D01*
X419717D01*
Y114445D01*
D02*
G37*
G36*
X412984D02*
X409252D01*
Y112976D01*
X412984D01*
Y114445D01*
D02*
G37*
G36*
X325858Y96176D02*
X324814Y96039D01*
X323841Y95636D01*
X323005Y94995D01*
X322364Y94159D01*
X321961Y93186D01*
X321824Y92142D01*
X321961Y91098D01*
X322364Y90124D01*
X323005Y89289D01*
X323841Y88648D01*
X324814Y88245D01*
X325858Y88107D01*
X326902Y88245D01*
X327875Y88648D01*
X328711Y89289D01*
X329352Y90124D01*
X329755Y91098D01*
X329893Y92142D01*
X329755Y93186D01*
X329352Y94159D01*
X328711Y94995D01*
X327875Y95636D01*
X326902Y96039D01*
X325858Y96176D01*
D02*
G37*
G36*
X315858D02*
X314814Y96039D01*
X313841Y95636D01*
X313005Y94995D01*
X312364Y94159D01*
X311961Y93186D01*
X311824Y92142D01*
X311961Y91098D01*
X312364Y90124D01*
X313005Y89289D01*
X313841Y88648D01*
X314814Y88245D01*
X315858Y88107D01*
X316902Y88245D01*
X317876Y88648D01*
X318711Y89289D01*
X319352Y90124D01*
X319755Y91098D01*
X319893Y92142D01*
X319755Y93186D01*
X319352Y94159D01*
X318711Y94995D01*
X317876Y95636D01*
X316902Y96039D01*
X315858Y96176D01*
D02*
G37*
G36*
X305858D02*
X304814Y96039D01*
X303841Y95636D01*
X303005Y94995D01*
X302364Y94159D01*
X301961Y93186D01*
X301824Y92142D01*
X301961Y91098D01*
X302364Y90124D01*
X303005Y89289D01*
X303841Y88648D01*
X304814Y88245D01*
X305858Y88107D01*
X306902Y88245D01*
X307875Y88648D01*
X308711Y89289D01*
X309352Y90124D01*
X309755Y91098D01*
X309893Y92142D01*
X309755Y93186D01*
X309352Y94159D01*
X308711Y94995D01*
X307875Y95636D01*
X306902Y96039D01*
X305858Y96176D01*
D02*
G37*
G36*
X295858Y131176D02*
X294814Y131039D01*
X293841Y130636D01*
X293005Y129995D01*
X292364Y129159D01*
X291961Y128186D01*
X291824Y127142D01*
X291961Y126098D01*
X292364Y125125D01*
X293005Y124289D01*
X293841Y123648D01*
X294329Y123446D01*
Y95838D01*
X293841Y95636D01*
X293005Y94995D01*
X292364Y94159D01*
X291961Y93186D01*
X291824Y92142D01*
X291961Y91098D01*
X292364Y90124D01*
X293005Y89289D01*
X293841Y88648D01*
X294814Y88245D01*
X295858Y88107D01*
X296902Y88245D01*
X297875Y88648D01*
X298711Y89289D01*
X299352Y90124D01*
X299755Y91098D01*
X299893Y92142D01*
X299755Y93186D01*
X299352Y94159D01*
X298711Y94995D01*
X297875Y95636D01*
X297388Y95838D01*
Y123446D01*
X297875Y123648D01*
X298711Y124289D01*
X299352Y125125D01*
X299755Y126098D01*
X299893Y127142D01*
X299755Y128186D01*
X299352Y129159D01*
X298711Y129995D01*
X297875Y130636D01*
X296902Y131039D01*
X295858Y131176D01*
D02*
G37*
G36*
X285858Y96176D02*
X284814Y96039D01*
X283841Y95636D01*
X283005Y94995D01*
X282364Y94159D01*
X281961Y93186D01*
X281824Y92142D01*
X281961Y91098D01*
X282364Y90124D01*
X283005Y89289D01*
X283841Y88648D01*
X284814Y88245D01*
X285858Y88107D01*
X286902Y88245D01*
X287876Y88648D01*
X288711Y89289D01*
X289352Y90124D01*
X289755Y91098D01*
X289893Y92142D01*
X289755Y93186D01*
X289352Y94159D01*
X288711Y94995D01*
X287876Y95636D01*
X286902Y96039D01*
X285858Y96176D01*
D02*
G37*
G36*
X275858Y131176D02*
X274814Y131039D01*
X273841Y130636D01*
X273005Y129995D01*
X272364Y129159D01*
X271961Y128186D01*
X271824Y127142D01*
X271961Y126098D01*
X272364Y125125D01*
X273005Y124289D01*
X273841Y123648D01*
X274329Y123446D01*
Y95838D01*
X273841Y95636D01*
X273005Y94995D01*
X272364Y94159D01*
X271961Y93186D01*
X271824Y92142D01*
X271961Y91098D01*
X272364Y90124D01*
X273005Y89289D01*
X273841Y88648D01*
X274814Y88245D01*
X275858Y88107D01*
X276902Y88245D01*
X277875Y88648D01*
X278711Y89289D01*
X279352Y90124D01*
X279755Y91098D01*
X279893Y92142D01*
X279755Y93186D01*
X279352Y94159D01*
X278711Y94995D01*
X277875Y95636D01*
X277388Y95838D01*
Y123446D01*
X277875Y123648D01*
X278711Y124289D01*
X279352Y125125D01*
X279755Y126098D01*
X279893Y127142D01*
X279755Y128186D01*
X279352Y129159D01*
X278711Y129995D01*
X277875Y130636D01*
X276902Y131039D01*
X275858Y131176D01*
D02*
G37*
G36*
X265858D02*
X264814Y131039D01*
X263841Y130636D01*
X263005Y129995D01*
X262364Y129159D01*
X261961Y128186D01*
X261824Y127142D01*
X261961Y126098D01*
X262364Y125125D01*
X263005Y124289D01*
X263841Y123648D01*
X264329Y123446D01*
Y95838D01*
X263841Y95636D01*
X263005Y94995D01*
X262364Y94159D01*
X261961Y93186D01*
X261824Y92142D01*
X261961Y91098D01*
X262364Y90124D01*
X263005Y89289D01*
X263841Y88648D01*
X264814Y88245D01*
X265858Y88107D01*
X266902Y88245D01*
X267876Y88648D01*
X268711Y89289D01*
X269352Y90124D01*
X269755Y91098D01*
X269893Y92142D01*
X269755Y93186D01*
X269352Y94159D01*
X268711Y94995D01*
X267876Y95636D01*
X267388Y95838D01*
Y123446D01*
X267876Y123648D01*
X268711Y124289D01*
X269352Y125125D01*
X269755Y126098D01*
X269893Y127142D01*
X269755Y128186D01*
X269352Y129159D01*
X268711Y129995D01*
X267876Y130636D01*
X266902Y131039D01*
X265858Y131176D01*
D02*
G37*
G36*
X255858D02*
X254814Y131039D01*
X253841Y130636D01*
X253005Y129995D01*
X252364Y129159D01*
X251961Y128186D01*
X251824Y127142D01*
X251961Y126098D01*
X252364Y125125D01*
X253005Y124289D01*
X253841Y123648D01*
X254329Y123446D01*
Y95838D01*
X253841Y95636D01*
X253005Y94995D01*
X252364Y94159D01*
X251961Y93186D01*
X251824Y92142D01*
X251961Y91098D01*
X252364Y90124D01*
X253005Y89289D01*
X253841Y88648D01*
X254814Y88245D01*
X255858Y88107D01*
X256902Y88245D01*
X257875Y88648D01*
X258711Y89289D01*
X259352Y90124D01*
X259755Y91098D01*
X259893Y92142D01*
X259755Y93186D01*
X259352Y94159D01*
X258711Y94995D01*
X257875Y95636D01*
X257388Y95838D01*
Y123446D01*
X257875Y123648D01*
X258711Y124289D01*
X259352Y125125D01*
X259755Y126098D01*
X259893Y127142D01*
X259755Y128186D01*
X259352Y129159D01*
X258711Y129995D01*
X257875Y130636D01*
X256902Y131039D01*
X255858Y131176D01*
D02*
G37*
G36*
X267358Y30850D02*
Y28642D01*
X269566D01*
X269352Y29159D01*
X268711Y29995D01*
X267876Y30636D01*
X267358Y30850D01*
D02*
G37*
G36*
X264358D02*
X263841Y30636D01*
X263005Y29995D01*
X262364Y29159D01*
X262150Y28642D01*
X264358D01*
Y30850D01*
D02*
G37*
G36*
X269566Y25642D02*
X267358D01*
Y23434D01*
X267876Y23648D01*
X268711Y24289D01*
X269352Y25124D01*
X269566Y25642D01*
D02*
G37*
G36*
X264358D02*
X262150D01*
X262364Y25124D01*
X263005Y24289D01*
X263841Y23648D01*
X264358Y23434D01*
Y25642D01*
D02*
G37*
G36*
X325858Y31176D02*
X324814Y31039D01*
X323841Y30636D01*
X323005Y29995D01*
X322364Y29159D01*
X321961Y28186D01*
X321824Y27142D01*
X321961Y26098D01*
X322364Y25124D01*
X323005Y24289D01*
X323841Y23648D01*
X324814Y23245D01*
X325858Y23107D01*
X326902Y23245D01*
X327875Y23648D01*
X328711Y24289D01*
X329352Y25124D01*
X329755Y26098D01*
X329893Y27142D01*
X329755Y28186D01*
X329352Y29159D01*
X328711Y29995D01*
X327875Y30636D01*
X326902Y31039D01*
X325858Y31176D01*
D02*
G37*
G36*
X315858D02*
X314814Y31039D01*
X313841Y30636D01*
X313005Y29995D01*
X312364Y29159D01*
X311961Y28186D01*
X311824Y27142D01*
X311961Y26098D01*
X312364Y25124D01*
X313005Y24289D01*
X313841Y23648D01*
X314814Y23245D01*
X315858Y23107D01*
X316902Y23245D01*
X317876Y23648D01*
X318711Y24289D01*
X319352Y25124D01*
X319755Y26098D01*
X319893Y27142D01*
X319755Y28186D01*
X319352Y29159D01*
X318711Y29995D01*
X317876Y30636D01*
X316902Y31039D01*
X315858Y31176D01*
D02*
G37*
G36*
X305858D02*
X304814Y31039D01*
X303841Y30636D01*
X303005Y29995D01*
X302364Y29159D01*
X301961Y28186D01*
X301824Y27142D01*
X301961Y26098D01*
X302364Y25124D01*
X303005Y24289D01*
X303841Y23648D01*
X304814Y23245D01*
X305858Y23107D01*
X306902Y23245D01*
X307875Y23648D01*
X308711Y24289D01*
X309352Y25124D01*
X309755Y26098D01*
X309893Y27142D01*
X309755Y28186D01*
X309352Y29159D01*
X308711Y29995D01*
X307875Y30636D01*
X306902Y31039D01*
X305858Y31176D01*
D02*
G37*
G36*
X295858D02*
X294814Y31039D01*
X293841Y30636D01*
X293005Y29995D01*
X292364Y29159D01*
X291961Y28186D01*
X291824Y27142D01*
X291961Y26098D01*
X292364Y25124D01*
X293005Y24289D01*
X293841Y23648D01*
X294814Y23245D01*
X295858Y23107D01*
X296902Y23245D01*
X297875Y23648D01*
X298711Y24289D01*
X299352Y25124D01*
X299755Y26098D01*
X299893Y27142D01*
X299755Y28186D01*
X299352Y29159D01*
X298711Y29995D01*
X297875Y30636D01*
X296902Y31039D01*
X295858Y31176D01*
D02*
G37*
G36*
X285858D02*
X284814Y31039D01*
X283841Y30636D01*
X283005Y29995D01*
X282364Y29159D01*
X281961Y28186D01*
X281824Y27142D01*
X281961Y26098D01*
X282364Y25124D01*
X283005Y24289D01*
X283841Y23648D01*
X284814Y23245D01*
X285858Y23107D01*
X286902Y23245D01*
X287876Y23648D01*
X288711Y24289D01*
X289352Y25124D01*
X289755Y26098D01*
X289893Y27142D01*
X289755Y28186D01*
X289352Y29159D01*
X288711Y29995D01*
X287876Y30636D01*
X286902Y31039D01*
X285858Y31176D01*
D02*
G37*
G36*
X255858D02*
X254814Y31039D01*
X253841Y30636D01*
X253005Y29995D01*
X252364Y29159D01*
X251961Y28186D01*
X251824Y27142D01*
X251961Y26098D01*
X252364Y25124D01*
X253005Y24289D01*
X253841Y23648D01*
X254814Y23245D01*
X255858Y23107D01*
X256902Y23245D01*
X257875Y23648D01*
X258711Y24289D01*
X259352Y25124D01*
X259755Y26098D01*
X259893Y27142D01*
X259755Y28186D01*
X259352Y29159D01*
X258711Y29995D01*
X257875Y30636D01*
X256902Y31039D01*
X255858Y31176D01*
D02*
G37*
G36*
X265783Y12756D02*
X264216D01*
Y10500D01*
X265783D01*
Y12756D01*
D02*
G37*
G36*
X261216D02*
X259649D01*
Y10500D01*
X261216D01*
Y12756D01*
D02*
G37*
G36*
X265783Y7500D02*
X264216D01*
Y5244D01*
X265783D01*
Y7500D01*
D02*
G37*
G36*
X261216D02*
X259649D01*
Y5244D01*
X261216D01*
Y7500D01*
D02*
G37*
%LPD*%
G36*
X263000Y313000D02*
X259000Y307000D01*
X258000Y304000D01*
X259000Y300000D01*
X262333Y295000D01*
X202000D01*
Y304000D01*
X211000Y313000D01*
X263000Y313000D01*
D02*
G37*
G36*
X191000Y313000D02*
X200000Y304000D01*
X200000Y295000D01*
X139000Y295000D01*
X139000Y299000D01*
X141000Y302000D01*
Y303000D01*
X138143Y313000D01*
X191000Y313000D01*
D02*
G37*
G36*
X255560Y221641D02*
X255381Y221113D01*
X254814Y221039D01*
X253841Y220636D01*
X253005Y219995D01*
X252597Y219462D01*
X252098Y219429D01*
X247445Y224081D01*
X246949Y224413D01*
X246645Y224474D01*
X246694Y224974D01*
X252228D01*
X255560Y221641D01*
D02*
G37*
G36*
X415000Y231000D02*
X410000Y224000D01*
X410000Y210000D01*
X407000Y210000D01*
X407000Y215567D01*
X402783Y219783D01*
X402783Y233000D01*
X415000D01*
Y231000D01*
D02*
G37*
%LPC*%
G36*
X119500Y115084D02*
X118611Y114907D01*
X117857Y114403D01*
X117353Y113649D01*
X117255Y113157D01*
X116745D01*
X116647Y113649D01*
X116144Y114403D01*
X115389Y114907D01*
X114500Y115084D01*
X113611Y114907D01*
X112856Y114403D01*
X112353Y113649D01*
X112255Y113157D01*
X111745D01*
X111647Y113649D01*
X111144Y114403D01*
X110389Y114907D01*
X109500Y115084D01*
X108611Y114907D01*
X107857Y114403D01*
X107353Y113649D01*
X107255Y113157D01*
X106745D01*
X106647Y113649D01*
X106143Y114403D01*
X105389Y114907D01*
X104500Y115084D01*
X103611Y114907D01*
X102857Y114403D01*
X102353Y113649D01*
X102255Y113157D01*
X101745D01*
X101647Y113649D01*
X101143Y114403D01*
X100389Y114907D01*
X99500Y115084D01*
X98611Y114907D01*
X97857Y114403D01*
X97353Y113649D01*
X97255Y113157D01*
X96745D01*
X96647Y113649D01*
X96143Y114403D01*
X95389Y114907D01*
X94500Y115084D01*
X93611Y114907D01*
X92857Y114403D01*
X92353Y113649D01*
X92255Y113157D01*
X91745D01*
X91647Y113649D01*
X91143Y114403D01*
X91000Y114499D01*
Y109906D01*
X89500D01*
Y108405D01*
X87176D01*
Y107051D01*
X87353Y106162D01*
X87857Y105408D01*
X87971Y105332D01*
Y100815D01*
X88087Y100229D01*
X88419Y99733D01*
X105329Y82823D01*
Y81642D01*
X102858D01*
Y79142D01*
X106858D01*
Y76142D01*
X102858D01*
Y74671D01*
X67992D01*
X66553Y76110D01*
X66755Y76598D01*
X66893Y77642D01*
X66755Y78686D01*
X66352Y79659D01*
X65711Y80495D01*
X64876Y81136D01*
X63902Y81539D01*
X62858Y81676D01*
X61814Y81539D01*
X60841Y81136D01*
X60005Y80495D01*
X59364Y79659D01*
X58961Y78686D01*
X58824Y77642D01*
X58961Y76598D01*
X59364Y75625D01*
X60005Y74789D01*
X60841Y74148D01*
X61814Y73745D01*
X62858Y73607D01*
X63902Y73745D01*
X64390Y73947D01*
X66277Y72060D01*
X66464Y71935D01*
X66409Y71371D01*
X65841Y71136D01*
X65005Y70495D01*
X64364Y69659D01*
X63961Y68686D01*
X63824Y67642D01*
X63961Y66598D01*
X64364Y65624D01*
X65005Y64789D01*
X65841Y64148D01*
X66814Y63745D01*
X67858Y63607D01*
X68875Y63741D01*
X72058Y60558D01*
X72720Y60116D01*
X73500Y59961D01*
X126216D01*
X126997Y60116D01*
X127658Y60558D01*
X130841Y63741D01*
X131858Y63607D01*
X132902Y63745D01*
X133876Y64148D01*
X134711Y64789D01*
X135352Y65624D01*
X135755Y66598D01*
X135893Y67642D01*
X135755Y68686D01*
X135352Y69659D01*
X134711Y70495D01*
X133876Y71136D01*
X133388Y71338D01*
Y82142D01*
X133271Y82727D01*
X132940Y83223D01*
X120154Y96009D01*
X120346Y96471D01*
X125933D01*
Y94244D01*
X132067D01*
Y101756D01*
X125933D01*
Y99529D01*
X116633D01*
X111258Y104905D01*
Y105579D01*
X111647Y106162D01*
X111745Y106654D01*
X112255D01*
X112353Y106162D01*
X112856Y105408D01*
X113611Y104904D01*
X114500Y104727D01*
X115389Y104904D01*
X116144Y105408D01*
X116647Y106162D01*
X116745Y106654D01*
X117255D01*
X117353Y106162D01*
X117857Y105408D01*
X118611Y104904D01*
X119500Y104727D01*
X120389Y104904D01*
X121143Y105408D01*
X121647Y106162D01*
X121745Y106654D01*
X122255D01*
X122353Y106162D01*
X122856Y105408D01*
X123000Y105312D01*
Y109906D01*
Y114499D01*
X122856Y114403D01*
X122353Y113649D01*
X122255Y113157D01*
X121745D01*
X121647Y113649D01*
X121143Y114403D01*
X120389Y114907D01*
X119500Y115084D01*
D02*
G37*
G36*
X126000Y114499D02*
Y111406D01*
X126824D01*
Y112760D01*
X126647Y113649D01*
X126144Y114403D01*
X126000Y114499D01*
D02*
G37*
G36*
X88000D02*
X87857Y114403D01*
X87353Y113649D01*
X87176Y112760D01*
Y111406D01*
X88000D01*
Y114499D01*
D02*
G37*
G36*
X67000Y118000D02*
X59000D01*
Y110000D01*
X67000D01*
Y118000D01*
D02*
G37*
G36*
X53000Y118035D02*
X51956Y117897D01*
X50983Y117494D01*
X50147Y116853D01*
X49506Y116017D01*
X49103Y115044D01*
X48965Y114000D01*
X49103Y112956D01*
X49506Y111983D01*
X50147Y111147D01*
X50983Y110506D01*
X51956Y110103D01*
X53000Y109966D01*
X54044Y110103D01*
X55017Y110506D01*
X55853Y111147D01*
X56494Y111983D01*
X56897Y112956D01*
X57034Y114000D01*
X56897Y115044D01*
X56494Y116017D01*
X55853Y116853D01*
X55017Y117494D01*
X54044Y117897D01*
X53000Y118035D01*
D02*
G37*
G36*
X126824Y108405D02*
X126000D01*
Y105312D01*
X126144Y105408D01*
X126647Y106162D01*
X126824Y107051D01*
Y108405D01*
D02*
G37*
G36*
X139350Y101756D02*
X137783D01*
Y99500D01*
X139350D01*
Y101756D01*
D02*
G37*
G36*
X134783D02*
X133217D01*
Y99500D01*
X134783D01*
Y101756D01*
D02*
G37*
G36*
X43000Y118035D02*
X41956Y117897D01*
X40983Y117494D01*
X40147Y116853D01*
X39506Y116017D01*
X39103Y115044D01*
X38965Y114000D01*
X39103Y112956D01*
X39506Y111983D01*
X40147Y111147D01*
X40983Y110506D01*
X41471Y110304D01*
Y105350D01*
X39441D01*
Y99217D01*
X46559D01*
Y105350D01*
X44529D01*
Y110304D01*
X45017Y110506D01*
X45853Y111147D01*
X46494Y111983D01*
X46897Y112956D01*
X47034Y114000D01*
X46897Y115044D01*
X46494Y116017D01*
X45853Y116853D01*
X45017Y117494D01*
X44044Y117897D01*
X43000Y118035D01*
D02*
G37*
G36*
X139350Y96500D02*
X137783D01*
Y94244D01*
X139350D01*
Y96500D01*
D02*
G37*
G36*
X134783D02*
X133217D01*
Y94244D01*
X134783D01*
Y96500D01*
D02*
G37*
G36*
X41358Y81642D02*
X38858D01*
Y79142D01*
X41358D01*
Y81642D01*
D02*
G37*
G36*
Y76142D02*
X38858D01*
Y73642D01*
X41358D01*
Y76142D01*
D02*
G37*
G36*
X46559Y98067D02*
X39441D01*
Y91933D01*
X41471D01*
Y89000D01*
X41587Y88415D01*
X41919Y87919D01*
X46329Y83508D01*
Y81642D01*
X44358D01*
Y77642D01*
Y73642D01*
X46329D01*
Y71338D01*
X45841Y71136D01*
X45005Y70495D01*
X44364Y69659D01*
X43961Y68686D01*
X43824Y67642D01*
X43961Y66598D01*
X44364Y65624D01*
X45005Y64789D01*
X45841Y64148D01*
X46814Y63745D01*
X47858Y63607D01*
X48902Y63745D01*
X49876Y64148D01*
X50711Y64789D01*
X51352Y65624D01*
X51755Y66598D01*
X51893Y67642D01*
X51755Y68686D01*
X51352Y69659D01*
X50711Y70495D01*
X49876Y71136D01*
X49388Y71338D01*
Y74816D01*
X49861Y74977D01*
X50005Y74789D01*
X50841Y74148D01*
X51814Y73745D01*
X52858Y73607D01*
X53902Y73745D01*
X54875Y74148D01*
X55711Y74789D01*
X56352Y75625D01*
X56755Y76598D01*
X56893Y77642D01*
X56755Y78686D01*
X56352Y79659D01*
X55711Y80495D01*
X54875Y81136D01*
X53902Y81539D01*
X52858Y81676D01*
X51814Y81539D01*
X50841Y81136D01*
X50005Y80495D01*
X49861Y80307D01*
X49388Y80467D01*
Y84142D01*
X49271Y84727D01*
X48940Y85223D01*
X44529Y89634D01*
Y91933D01*
X46559D01*
Y98067D01*
D02*
G37*
G36*
X57858Y71676D02*
X56814Y71539D01*
X55841Y71136D01*
X55005Y70495D01*
X54364Y69659D01*
X53961Y68686D01*
X53824Y67642D01*
X53961Y66598D01*
X54364Y65624D01*
X55005Y64789D01*
X55841Y64148D01*
X56814Y63745D01*
X57858Y63607D01*
X58902Y63745D01*
X59876Y64148D01*
X60711Y64789D01*
X61352Y65624D01*
X61755Y66598D01*
X61893Y67642D01*
X61755Y68686D01*
X61352Y69659D01*
X60711Y70495D01*
X59876Y71136D01*
X58902Y71539D01*
X57858Y71676D01*
D02*
G37*
G36*
X139358Y50075D02*
X137908Y49932D01*
X136514Y49509D01*
X135228Y48823D01*
X134102Y47898D01*
X133177Y46772D01*
X132491Y45487D01*
X132068Y44092D01*
X131925Y42642D01*
X132068Y41192D01*
X132491Y39797D01*
X133177Y38512D01*
X134102Y37386D01*
X135228Y36461D01*
X136514Y35774D01*
X137908Y35351D01*
X139358Y35208D01*
X140808Y35351D01*
X142203Y35774D01*
X143488Y36461D01*
X144614Y37386D01*
X145539Y38512D01*
X146226Y39797D01*
X146649Y41192D01*
X146792Y42642D01*
X146649Y44092D01*
X146226Y45487D01*
X145539Y46772D01*
X144614Y47898D01*
X143488Y48823D01*
X142203Y49509D01*
X140808Y49932D01*
X139358Y50075D01*
D02*
G37*
G36*
X99358D02*
X97908Y49932D01*
X96513Y49509D01*
X95228Y48823D01*
X94102Y47898D01*
X93177Y46772D01*
X92491Y45487D01*
X92068Y44092D01*
X91925Y42642D01*
X92068Y41192D01*
X92491Y39797D01*
X93177Y38512D01*
X94102Y37386D01*
X95228Y36461D01*
X96513Y35774D01*
X97908Y35351D01*
X99358Y35208D01*
X100808Y35351D01*
X102203Y35774D01*
X103488Y36461D01*
X104614Y37386D01*
X105539Y38512D01*
X106226Y39797D01*
X106649Y41192D01*
X106792Y42642D01*
X106649Y44092D01*
X106226Y45487D01*
X105539Y46772D01*
X104614Y47898D01*
X103488Y48823D01*
X102203Y49509D01*
X100808Y49932D01*
X99358Y50075D01*
D02*
G37*
G36*
X75358D02*
X73908Y49932D01*
X72514Y49509D01*
X71228Y48823D01*
X70102Y47898D01*
X69178Y46772D01*
X68491Y45487D01*
X68068Y44092D01*
X67925Y42642D01*
X68068Y41192D01*
X68491Y39797D01*
X69178Y38512D01*
X70102Y37386D01*
X71228Y36461D01*
X72514Y35774D01*
X73908Y35351D01*
X75358Y35208D01*
X76808Y35351D01*
X78203Y35774D01*
X79488Y36461D01*
X80614Y37386D01*
X81539Y38512D01*
X82226Y39797D01*
X82649Y41192D01*
X82792Y42642D01*
X82649Y44092D01*
X82226Y45487D01*
X81539Y46772D01*
X80614Y47898D01*
X79488Y48823D01*
X78203Y49509D01*
X76808Y49932D01*
X75358Y50075D01*
D02*
G37*
G36*
X35358D02*
X33908Y49932D01*
X32513Y49509D01*
X31228Y48823D01*
X30102Y47898D01*
X29177Y46772D01*
X28491Y45487D01*
X28068Y44092D01*
X27925Y42642D01*
X28068Y41192D01*
X28491Y39797D01*
X29177Y38512D01*
X30102Y37386D01*
X31228Y36461D01*
X32513Y35774D01*
X33908Y35351D01*
X35358Y35208D01*
X36808Y35351D01*
X38203Y35774D01*
X39488Y36461D01*
X40614Y37386D01*
X41539Y38512D01*
X42226Y39797D01*
X42649Y41192D01*
X42792Y42642D01*
X42649Y44092D01*
X42226Y45487D01*
X41539Y46772D01*
X40614Y47898D01*
X39488Y48823D01*
X38203Y49509D01*
X36808Y49932D01*
X35358Y50075D01*
D02*
G37*
%LPD*%
G36*
X97353Y106162D02*
X97857Y105408D01*
X98221Y105165D01*
Y101046D01*
X97504Y100496D01*
X96943Y99765D01*
X96590Y98914D01*
X96470Y98000D01*
X96590Y97086D01*
X96943Y96235D01*
X96546Y95932D01*
X91029Y101448D01*
Y105332D01*
X91143Y105408D01*
X91647Y106162D01*
X91745Y106654D01*
X92255D01*
X92353Y106162D01*
X92857Y105408D01*
X93611Y104904D01*
X94500Y104727D01*
X95389Y104904D01*
X96143Y105408D01*
X96647Y106162D01*
X96745Y106654D01*
X97255D01*
X97353Y106162D01*
D02*
G37*
G36*
X107353D02*
X107857Y105408D01*
X108199Y105179D01*
Y104272D01*
X108315Y103686D01*
X108647Y103190D01*
X114919Y96919D01*
X130329Y81508D01*
Y80467D01*
X129855Y80307D01*
X129711Y80495D01*
X128876Y81136D01*
X127902Y81539D01*
X126858Y81676D01*
X125814Y81539D01*
X124841Y81136D01*
X124005Y80495D01*
X123364Y79659D01*
X122961Y78686D01*
X122824Y77642D01*
X122961Y76598D01*
X123163Y76110D01*
X121725Y74671D01*
X120251D01*
X120004Y75171D01*
X120352Y75625D01*
X120755Y76598D01*
X120893Y77642D01*
X120755Y78686D01*
X120352Y79659D01*
X119711Y80495D01*
X118876Y81136D01*
X117902Y81539D01*
X116858Y81676D01*
X115814Y81539D01*
X115326Y81337D01*
X106029Y90633D01*
Y105332D01*
X106143Y105408D01*
X106647Y106162D01*
X106745Y106654D01*
X107255D01*
X107353Y106162D01*
D02*
G37*
G36*
X130329Y74816D02*
Y71338D01*
X129841Y71136D01*
X129005Y70495D01*
X128364Y69659D01*
X127961Y68686D01*
X127824Y67642D01*
X127957Y66625D01*
X125372Y64039D01*
X124555D01*
X124385Y64539D01*
X124711Y64789D01*
X125352Y65624D01*
X125755Y66598D01*
X125893Y67642D01*
X125755Y68686D01*
X125352Y69659D01*
X124711Y70495D01*
X123875Y71136D01*
X123308Y71371D01*
X123252Y71935D01*
X123440Y72060D01*
X125326Y73947D01*
X125814Y73745D01*
X126858Y73607D01*
X127902Y73745D01*
X128876Y74148D01*
X129711Y74789D01*
X129855Y74977D01*
X130329Y74816D01*
D02*
G37*
G36*
X119813Y71165D02*
X119810Y71112D01*
X119005Y70495D01*
X118364Y69659D01*
X117961Y68686D01*
X117824Y67642D01*
X117961Y66598D01*
X118364Y65624D01*
X119005Y64789D01*
X119331Y64539D01*
X119161Y64039D01*
X114555D01*
X114385Y64539D01*
X114711Y64789D01*
X115352Y65624D01*
X115755Y66598D01*
X115893Y67642D01*
X115755Y68686D01*
X115352Y69659D01*
X114711Y70495D01*
X113906Y71112D01*
X113903Y71165D01*
X114158Y71612D01*
X119558D01*
X119813Y71165D01*
D02*
G37*
G36*
X109813D02*
X109810Y71112D01*
X109005Y70495D01*
X108364Y69659D01*
X107961Y68686D01*
X107824Y67642D01*
X107961Y66598D01*
X108364Y65624D01*
X109005Y64789D01*
X109331Y64539D01*
X109161Y64039D01*
X74345D01*
X71759Y66625D01*
X71893Y67642D01*
X71755Y68686D01*
X71352Y69659D01*
X70711Y70495D01*
X69906Y71112D01*
X69903Y71165D01*
X70158Y71612D01*
X109558D01*
X109813Y71165D01*
D02*
G37*
D12*
X111000Y142000D02*
X135000D01*
X109500Y143500D02*
X111000Y142000D01*
X109500Y143500D02*
Y148094D01*
X108000Y139000D02*
X184000D01*
X104500Y142500D02*
X108000Y139000D01*
X104500Y142500D02*
Y148094D01*
X395142Y187721D02*
X414945Y207524D01*
X395142Y171000D02*
Y187721D01*
X401142Y165000D02*
X408000D01*
X394283D02*
X401142D01*
X414945Y207524D02*
Y210827D01*
X415118Y211000D01*
X395142Y171000D02*
X401142Y165000D01*
X415283D02*
X425717D01*
X145000Y188000D02*
Y191000D01*
X412484Y133227D02*
X413070Y132641D01*
X404000Y134000D02*
X412484D01*
Y133227D02*
Y134000D01*
X402000Y136000D02*
X404000Y134000D01*
X396000Y136000D02*
X402000D01*
X415844Y135524D02*
X415899Y135469D01*
X396000Y136000D02*
X396476Y135524D01*
X396000Y146000D02*
X424433D01*
X426000Y147567D01*
Y148000D01*
X135000Y142000D02*
X137000Y144000D01*
X184000Y139000D02*
X195858Y127142D01*
X105480Y136520D02*
X176480D01*
X99500Y142500D02*
X105480Y136520D01*
X99500Y142500D02*
Y148094D01*
X176480Y136520D02*
X185858Y127142D01*
X94750Y148845D02*
X95000Y148594D01*
X94750Y155750D02*
X95000Y156000D01*
X94750Y148845D02*
Y155750D01*
X165858Y176142D02*
Y187142D01*
Y176142D02*
X180000Y162000D01*
X95000Y156000D02*
Y165000D01*
X99750Y98250D02*
X100000Y98000D01*
X99750Y98250D02*
Y109655D01*
X99500Y109906D02*
X99750Y109655D01*
X124500Y109906D02*
X124798Y109607D01*
X116000Y98000D02*
X131858Y82142D01*
X116000Y98000D02*
X129000D01*
X131858Y67642D02*
Y82142D01*
X109728Y104272D02*
X116000Y98000D01*
X109728Y104272D02*
Y109677D01*
X109500Y109906D02*
X109728Y109677D01*
X89500Y109906D02*
X89539Y109945D01*
X124461D02*
X124500Y109906D01*
X89500Y100815D02*
X106858Y83456D01*
Y77642D02*
Y83456D01*
X89500Y100815D02*
Y109906D01*
X104500Y90000D02*
X116858Y77642D01*
X104500Y90000D02*
Y109906D01*
X145000Y188000D02*
X145858Y187142D01*
X122358Y73142D02*
X126858Y77642D01*
X67358Y73142D02*
X122358D01*
X62858Y77642D02*
X67358Y73142D01*
X47858Y67642D02*
Y84142D01*
X43000Y89000D02*
X47858Y84142D01*
X43000Y89000D02*
Y95000D01*
Y102283D02*
Y114000D01*
X215717Y257283D02*
X219000Y254000D01*
X209717Y257283D02*
X215717D01*
X209000Y258000D02*
X209717Y257283D01*
X99000Y227000D02*
X154500Y171500D01*
X255858Y187142D02*
Y188142D01*
X251358Y192642D02*
X255858Y188142D01*
X251358Y192642D02*
Y218006D01*
X261358Y191642D02*
X265858Y187142D01*
X261358Y191642D02*
Y218006D01*
X246364Y223000D02*
X251358Y218006D01*
X228000Y223000D02*
X246364D01*
X212000Y239000D02*
X228000Y223000D01*
X191000Y239000D02*
X212000D01*
X414484Y134055D02*
X414539Y134000D01*
X181717Y253284D02*
Y256000D01*
Y253284D02*
X182000Y253000D01*
X181000Y256716D02*
X181717Y256000D01*
X173716Y256716D02*
X181000D01*
X173000Y256000D02*
X173716Y256716D01*
X173000Y253000D02*
Y256000D01*
X182000Y248000D02*
Y253000D01*
Y248000D02*
X191000Y239000D01*
X145858Y217142D02*
X146722Y218006D01*
X229270Y226503D02*
X252861D01*
X203500Y252272D02*
X229270Y226503D01*
X203500Y252272D02*
Y274878D01*
X275858Y11858D02*
Y27142D01*
X273000Y9000D02*
X275858Y11858D01*
X270000Y9000D02*
X273000D01*
X402000Y221000D02*
Y221689D01*
X412559Y181937D02*
Y193677D01*
X411311Y180689D02*
X412559Y181937D01*
X408000Y180689D02*
X411311D01*
X427000Y149000D02*
X428000D01*
X426000Y148000D02*
X427000Y149000D01*
X402000Y230567D02*
X403567Y229000D01*
X402000Y230567D02*
Y231000D01*
X209000Y258000D02*
Y261000D01*
X208500Y261500D02*
X209000Y261000D01*
X410000Y193677D02*
X410032Y193709D01*
X426000Y157000D02*
X428000D01*
X400717Y180000D02*
X403414D01*
X404000Y180586D02*
Y183496D01*
X403414Y180000D02*
X404000Y180586D01*
X400717Y180000D02*
X401302Y180586D01*
X404000Y183496D02*
X409827Y189323D01*
Y193504D01*
X410000Y193677D01*
X412559Y211000D02*
Y220414D01*
X413145Y221000D01*
X416000D01*
X415414Y220414D02*
X416000Y221000D01*
X402000Y220567D02*
X403567Y219000D01*
X402000Y220567D02*
Y221000D01*
X315858Y187142D02*
Y217142D01*
X360185Y304315D02*
X360358Y304488D01*
X267878Y304142D02*
X268051Y304315D01*
X155858Y187142D02*
Y217142D01*
X185858Y187142D02*
Y217142D01*
X195858Y187142D02*
Y217142D01*
X205858Y187142D02*
Y217142D01*
X215858Y187142D02*
Y217142D01*
X225858Y187142D02*
Y217142D01*
X235858Y187142D02*
Y217142D01*
X275858Y187142D02*
Y217142D01*
X285858Y187142D02*
Y217142D01*
X295858Y187142D02*
Y217142D01*
X305858Y187142D02*
Y217142D01*
X325858Y187142D02*
Y217142D01*
X335858Y187142D02*
Y217142D01*
X345858Y187142D02*
Y217142D01*
X355858Y187142D02*
Y217142D01*
X365858Y187142D02*
Y217142D01*
X375858Y187142D02*
Y217142D01*
X175858Y187142D02*
Y217142D01*
X170000Y301000D02*
X173000Y298000D01*
Y260283D02*
Y298000D01*
X252861Y226503D02*
X261358Y218006D01*
X208500Y261500D02*
Y274878D01*
X198500Y261500D02*
Y274878D01*
Y261500D02*
X199000Y261000D01*
X295858Y92142D02*
Y127142D01*
X275858Y92142D02*
Y127142D01*
X265858Y92142D02*
Y127142D01*
X255858Y92142D02*
Y127142D01*
D14*
X89500Y109906D02*
D03*
X94500D02*
D03*
X99500D02*
D03*
X104500D02*
D03*
X109500D02*
D03*
X114500D02*
D03*
X119500D02*
D03*
X124500D02*
D03*
X89500Y148094D02*
D03*
X94500D02*
D03*
X99500D02*
D03*
X104500D02*
D03*
X109500D02*
D03*
X114500D02*
D03*
X119500D02*
D03*
X124500D02*
D03*
D15*
X407441Y211000D02*
D03*
X410000D02*
D03*
X412559D02*
D03*
X415118D02*
D03*
Y193677D02*
D03*
X412559D02*
D03*
X410000D02*
D03*
X407441D02*
D03*
D16*
X437516Y125000D02*
D03*
D17*
X414484Y115945D02*
D03*
Y125000D02*
D03*
Y134055D02*
D03*
D18*
X193500Y274878D02*
D03*
X198500D02*
D03*
X203500D02*
D03*
X208500D02*
D03*
X193500Y297122D02*
D03*
X198500D02*
D03*
X203500D02*
D03*
X208500D02*
D03*
D19*
X182000Y260283D02*
D03*
Y253000D02*
D03*
X173000Y253000D02*
D03*
Y260283D02*
D03*
X43000Y95000D02*
D03*
Y102284D02*
D03*
D20*
X408000Y165000D02*
D03*
X415283D02*
D03*
X387000Y165000D02*
D03*
X394283D02*
D03*
X425717Y165000D02*
D03*
X433000D02*
D03*
D21*
X440000Y177953D02*
D03*
Y200000D02*
D03*
D22*
X95000Y172283D02*
D03*
Y165000D02*
D03*
X209000Y253717D02*
D03*
Y261000D02*
D03*
X199000Y253716D02*
D03*
Y261000D02*
D03*
D23*
X129000Y98000D02*
D03*
X136284D02*
D03*
X262717Y9000D02*
D03*
X270000D02*
D03*
X423283Y221000D02*
D03*
X416000D02*
D03*
X433284Y157000D02*
D03*
X426000D02*
D03*
X433283Y148000D02*
D03*
X426000D02*
D03*
X400717Y180000D02*
D03*
X408000D02*
D03*
X402000Y231000D02*
D03*
X394717D02*
D03*
X394717Y221000D02*
D03*
X402000D02*
D03*
D39*
X99000Y237000D02*
X145000Y191000D01*
X85000Y237000D02*
X99000D01*
X71000D02*
X85000D01*
X57000D02*
X71000D01*
X43000D02*
X57000D01*
X29000D02*
X43000D01*
X275858Y27142D02*
X284716Y36000D01*
X304716D01*
X145858Y187142D02*
X176000Y157000D01*
X429284Y150284D02*
Y158283D01*
X428000Y149000D02*
X429284Y150284D01*
X428000Y157000D02*
X429284Y158283D01*
Y164000D01*
X430283Y165000D01*
X433000D01*
X176000Y157000D02*
X426000D01*
X304716Y36000D02*
X318000D01*
X407000Y125000D01*
X414484D01*
X145858Y187142D02*
Y217142D01*
D40*
X447000Y258000D02*
Y287347D01*
X430000Y304346D02*
X447000Y287347D01*
X67858Y67642D02*
X73500Y62000D01*
X126216D01*
X131858Y67642D01*
X421000Y232000D02*
X447000Y258000D01*
X414000Y232000D02*
X421000D01*
X413000Y231000D02*
X414000Y232000D01*
D41*
X433000Y165000D02*
X438000D01*
X440000Y167000D01*
Y177953D01*
X410032Y193709D02*
Y198031D01*
X420000Y208000D01*
X438000D01*
X440000Y206000D01*
Y200000D02*
Y206000D01*
D42*
X268051Y304315D02*
X360185D01*
D43*
X145858Y127142D02*
D03*
X155858D02*
D03*
X165858D02*
D03*
X175858D02*
D03*
X185858D02*
D03*
X195858D02*
D03*
X205858D02*
D03*
X215858D02*
D03*
X225858D02*
D03*
X235858D02*
D03*
X245858D02*
D03*
X255858D02*
D03*
X265858D02*
D03*
X275858D02*
D03*
Y187142D02*
D03*
X265858D02*
D03*
X255858D02*
D03*
X245858D02*
D03*
X235858D02*
D03*
X225858D02*
D03*
X215858D02*
D03*
X205858D02*
D03*
X195858D02*
D03*
X185858D02*
D03*
X175858D02*
D03*
X295858Y127142D02*
D03*
X305858D02*
D03*
X315858D02*
D03*
X325858D02*
D03*
X335858D02*
D03*
X345858D02*
D03*
X355858D02*
D03*
X365858D02*
D03*
X375858D02*
D03*
Y187142D02*
D03*
X365858D02*
D03*
X355858D02*
D03*
X345858D02*
D03*
X335858D02*
D03*
X325858D02*
D03*
X315858D02*
D03*
X285858Y127142D02*
D03*
X165858Y187142D02*
D03*
X155858D02*
D03*
X145858D02*
D03*
X285858D02*
D03*
X295858D02*
D03*
X305858D02*
D03*
X265858Y27142D02*
D03*
X255858D02*
D03*
X265858Y92142D02*
D03*
X255858D02*
D03*
X285858Y27142D02*
D03*
X275858D02*
D03*
X285858Y92142D02*
D03*
X275858D02*
D03*
X305858Y27142D02*
D03*
X295858D02*
D03*
X305858Y92142D02*
D03*
X295858D02*
D03*
X315858D02*
D03*
X325858D02*
D03*
X315858Y27142D02*
D03*
X325858D02*
D03*
X396000Y146000D02*
D03*
Y136000D02*
D03*
X29000Y247000D02*
D03*
Y217000D02*
D03*
Y227000D02*
D03*
Y237000D02*
D03*
X43000Y247000D02*
D03*
Y217000D02*
D03*
Y227000D02*
D03*
Y237000D02*
D03*
X57000Y247000D02*
D03*
Y217000D02*
D03*
Y227000D02*
D03*
Y237000D02*
D03*
X71000Y247000D02*
D03*
Y217000D02*
D03*
Y227000D02*
D03*
Y237000D02*
D03*
X85000Y247000D02*
D03*
Y217000D02*
D03*
Y227000D02*
D03*
Y237000D02*
D03*
X99000Y247000D02*
D03*
Y217000D02*
D03*
Y227000D02*
D03*
Y237000D02*
D03*
X67858Y67642D02*
D03*
X57858D02*
D03*
X47858D02*
D03*
X62858Y77642D02*
D03*
X52858D02*
D03*
X75358Y42642D02*
D03*
X35358D02*
D03*
X131858Y67642D02*
D03*
X121858D02*
D03*
X111858D02*
D03*
X126858Y77642D02*
D03*
X116858D02*
D03*
X139358Y42642D02*
D03*
X99358D02*
D03*
X155858Y217142D02*
D03*
X165858D02*
D03*
X175858D02*
D03*
X185858D02*
D03*
X225858D02*
D03*
X215858D02*
D03*
X205858D02*
D03*
X195858D02*
D03*
X265858D02*
D03*
X255858D02*
D03*
X245858D02*
D03*
X235858D02*
D03*
X305858D02*
D03*
X295858D02*
D03*
X285858D02*
D03*
X275858D02*
D03*
X345858D02*
D03*
X355858D02*
D03*
X365858D02*
D03*
X315858D02*
D03*
X325858D02*
D03*
X335858D02*
D03*
X145858D02*
D03*
X43000Y114000D02*
D03*
X53000D02*
D03*
X462000Y324000D02*
D03*
Y13000D02*
D03*
X15000D02*
D03*
X16000Y324000D02*
D03*
D44*
X396000Y126000D02*
D03*
X29000Y207000D02*
D03*
X43000D02*
D03*
X57000D02*
D03*
X71000D02*
D03*
X85000D02*
D03*
X99000D02*
D03*
D45*
X430000Y276000D02*
D03*
Y304346D02*
D03*
X360358Y276142D02*
D03*
Y304488D02*
D03*
X130878Y275295D02*
D03*
Y303642D02*
D03*
X267878Y275795D02*
D03*
Y304142D02*
D03*
D46*
X42858Y77642D02*
D03*
X106858D02*
D03*
X375858Y217142D02*
D03*
X63000Y114000D02*
D03*
D47*
X137000Y144000D02*
D03*
X95000Y156000D02*
D03*
X180000Y162000D02*
D03*
X100000Y98000D02*
D03*
X154500Y171500D02*
D03*
X219000Y254000D02*
D03*
M02*
