%TF.GenerationSoftware,Altium Limited,Altium Designer,19.1.8 (144)*%
G04 Layer_Color=65535*
%FSLAX26Y26*%
%MOIN*%
%TF.FileFunction,Legend,Top*%
%TF.Part,Single*%
G01*
G75*
%TA.AperFunction,NonConductor*%
%ADD34C,0.010000*%
%ADD42C,0.009842*%
%ADD43C,0.023622*%
%ADD44C,0.007874*%
G36*
X4059082Y693986D02*
X4076618D01*
Y691063D01*
X4094155D01*
Y688140D01*
X4111691D01*
Y685218D01*
X4129227D01*
Y682295D01*
X4146763D01*
Y679372D01*
X4129227D01*
Y676449D01*
X4111691D01*
Y673527D01*
X4094155D01*
Y670604D01*
X4076618D01*
Y667681D01*
X4059082D01*
Y664759D01*
X4053237D01*
Y667681D01*
X4035700D01*
Y670604D01*
X4018164D01*
Y673527D01*
X4000628D01*
Y676449D01*
X3983091D01*
Y679372D01*
X3965555D01*
Y682295D01*
X3983091D01*
Y685218D01*
X4000628D01*
Y688140D01*
X4018164D01*
Y691063D01*
X4035700D01*
Y693986D01*
X4053237D01*
Y696909D01*
X4059082D01*
Y693986D01*
D02*
G37*
G36*
X4219831Y626763D02*
X4216908D01*
Y623841D01*
X4213986D01*
Y620918D01*
X4211063D01*
Y617995D01*
X4208140D01*
Y615072D01*
X4205218D01*
Y612150D01*
Y609227D01*
X4202295D01*
Y606304D01*
X4199372D01*
Y603382D01*
X4196449D01*
Y600459D01*
X4193527D01*
Y597536D01*
X4190604D01*
Y594614D01*
Y591691D01*
X4187681D01*
Y588768D01*
X4184759D01*
Y585845D01*
X4181836D01*
Y582923D01*
X4178913D01*
Y580000D01*
X4175990D01*
Y577077D01*
Y574154D01*
X4173068D01*
Y571232D01*
X4170145D01*
Y568309D01*
X4167222D01*
Y565386D01*
X4164300D01*
Y562464D01*
X4161377D01*
Y559541D01*
Y556618D01*
X4158454D01*
Y553696D01*
X4155532D01*
Y550773D01*
X4152609D01*
Y547850D01*
Y544927D01*
Y542005D01*
X4149686D01*
Y539082D01*
Y536159D01*
X4146763D01*
Y533236D01*
Y530314D01*
Y527391D01*
X4143841D01*
Y524468D01*
Y521546D01*
X4140918D01*
Y518623D01*
Y515700D01*
Y512778D01*
X4137995D01*
Y509855D01*
Y506932D01*
X4135073D01*
Y504009D01*
Y501087D01*
Y498164D01*
X4132150D01*
Y495241D01*
Y492318D01*
X4129227D01*
Y489396D01*
Y486473D01*
Y483550D01*
X4126304D01*
Y480628D01*
Y477705D01*
X4123382D01*
Y474782D01*
Y471860D01*
Y468937D01*
X4120459D01*
Y466014D01*
Y463091D01*
X4117536D01*
Y460169D01*
Y457246D01*
Y454323D01*
X4114614D01*
Y451401D01*
Y448478D01*
X4111691D01*
Y445555D01*
Y442632D01*
Y439710D01*
X4108768D01*
Y436787D01*
Y433864D01*
X4105845D01*
Y430942D01*
Y428019D01*
Y425096D01*
X4102923D01*
Y428019D01*
Y430942D01*
Y433864D01*
Y436787D01*
Y439710D01*
Y442632D01*
X4105845D01*
Y445555D01*
Y448478D01*
Y451401D01*
Y454323D01*
Y457246D01*
Y460169D01*
X4108768D01*
Y463091D01*
Y466014D01*
Y468937D01*
Y471860D01*
Y474782D01*
Y477705D01*
X4111691D01*
Y480628D01*
Y483550D01*
Y486473D01*
Y489396D01*
Y492318D01*
X4114614D01*
Y495241D01*
Y498164D01*
Y501087D01*
Y504009D01*
Y506932D01*
Y509855D01*
X4117536D01*
Y512778D01*
Y515700D01*
Y518623D01*
Y521546D01*
Y524468D01*
Y527391D01*
X4120459D01*
Y530314D01*
Y533236D01*
Y536159D01*
Y539082D01*
Y542005D01*
Y544927D01*
X4123382D01*
Y547850D01*
Y550773D01*
Y553696D01*
Y556618D01*
Y559541D01*
Y562464D01*
X4126304D01*
Y565386D01*
Y568309D01*
Y571232D01*
Y574154D01*
X4132150D01*
Y577077D01*
X4135073D01*
Y580000D01*
X4140918D01*
Y582923D01*
X4143841D01*
Y585845D01*
X4149686D01*
Y588768D01*
X4152609D01*
Y591691D01*
X4158454D01*
Y594614D01*
X4164300D01*
Y597536D01*
X4167222D01*
Y600459D01*
X4173068D01*
Y603382D01*
X4175990D01*
Y606304D01*
X4181836D01*
Y609227D01*
X4184759D01*
Y612150D01*
X4190604D01*
Y615072D01*
X4196449D01*
Y617995D01*
X4199372D01*
Y620918D01*
X4205218D01*
Y623841D01*
X4208140D01*
Y626763D01*
X4213986D01*
Y629686D01*
X4219831D01*
Y626763D01*
D02*
G37*
G36*
X3898333D02*
X3904178D01*
Y623841D01*
X3907101D01*
Y620918D01*
X3912946D01*
Y617995D01*
X3915869D01*
Y615072D01*
X3921714D01*
Y612150D01*
X3924637D01*
Y609227D01*
X3930483D01*
Y606304D01*
X3936328D01*
Y603382D01*
X3939251D01*
Y600459D01*
X3945096D01*
Y597536D01*
X3948019D01*
Y594614D01*
X3953864D01*
Y591691D01*
X3956787D01*
Y588768D01*
X3962632D01*
Y585845D01*
X3968478D01*
Y582923D01*
X3971401D01*
Y580000D01*
X3977246D01*
Y577077D01*
X3980169D01*
Y574154D01*
X3986014D01*
Y571232D01*
Y568309D01*
Y565386D01*
Y562464D01*
X3988937D01*
Y559541D01*
Y556618D01*
Y553696D01*
Y550773D01*
Y547850D01*
Y544927D01*
X3991860D01*
Y542005D01*
Y539082D01*
Y536159D01*
Y533236D01*
Y530314D01*
Y527391D01*
X3994782D01*
Y524468D01*
Y521546D01*
Y518623D01*
Y515700D01*
Y512778D01*
Y509855D01*
X3997705D01*
Y506932D01*
Y504009D01*
Y501087D01*
Y498164D01*
Y495241D01*
Y492318D01*
X4000628D01*
Y489396D01*
Y486473D01*
Y483550D01*
Y480628D01*
Y477705D01*
Y474782D01*
X4003550D01*
Y471860D01*
Y468937D01*
Y466014D01*
Y463091D01*
Y460169D01*
Y457246D01*
X4006473D01*
Y454323D01*
Y451401D01*
Y448478D01*
Y445555D01*
Y442632D01*
Y439710D01*
X4009396D01*
Y436787D01*
Y433864D01*
Y430942D01*
Y428019D01*
Y425096D01*
X4006473D01*
Y428019D01*
Y430942D01*
X4003550D01*
Y433864D01*
Y436787D01*
Y439710D01*
X4000628D01*
Y442632D01*
Y445555D01*
X3997705D01*
Y448478D01*
Y451401D01*
Y454323D01*
X3994782D01*
Y457246D01*
Y460169D01*
X3991860D01*
Y463091D01*
Y466014D01*
Y468937D01*
X3988937D01*
Y471860D01*
Y474782D01*
X3986014D01*
Y477705D01*
Y480628D01*
Y483550D01*
X3983091D01*
Y486473D01*
Y489396D01*
X3980169D01*
Y492318D01*
Y495241D01*
Y498164D01*
X3977246D01*
Y501087D01*
Y504009D01*
X3974323D01*
Y506932D01*
Y509855D01*
Y512778D01*
X3971401D01*
Y515700D01*
Y518623D01*
X3968478D01*
Y521546D01*
Y524468D01*
Y527391D01*
X3965555D01*
Y530314D01*
Y533236D01*
X3962632D01*
Y536159D01*
Y539082D01*
Y542005D01*
X3959710D01*
Y544927D01*
Y547850D01*
X3956787D01*
Y550773D01*
Y553696D01*
X3953864D01*
Y556618D01*
X3950941D01*
Y559541D01*
Y562464D01*
X3948019D01*
Y565386D01*
X3945096D01*
Y568309D01*
X3942173D01*
Y571232D01*
X3939251D01*
Y574154D01*
X3936328D01*
Y577077D01*
Y580000D01*
X3933405D01*
Y582923D01*
X3930483D01*
Y585845D01*
X3927560D01*
Y588768D01*
X3924637D01*
Y591691D01*
X3921714D01*
Y594614D01*
Y597536D01*
X3918792D01*
Y600459D01*
X3915869D01*
Y603382D01*
X3912946D01*
Y606304D01*
X3910023D01*
Y609227D01*
X3907101D01*
Y612150D01*
Y615072D01*
X3904178D01*
Y617995D01*
X3901255D01*
Y620918D01*
X3898333D01*
Y623841D01*
X3895410D01*
Y626763D01*
X3892487D01*
Y629686D01*
X3898333D01*
Y626763D01*
D02*
G37*
G36*
X4211063Y661836D02*
X4205218D01*
Y658913D01*
X4202295D01*
Y655990D01*
X4196449D01*
Y653068D01*
X4193527D01*
Y650145D01*
X4187681D01*
Y647222D01*
X4184759D01*
Y644300D01*
X4178913D01*
Y641377D01*
X4175990D01*
Y638454D01*
X4170145D01*
Y635532D01*
X4167222D01*
Y632609D01*
X4161377D01*
Y629686D01*
X4155532D01*
Y626763D01*
X4152609D01*
Y623841D01*
X4146763D01*
Y620918D01*
X4143841D01*
Y617995D01*
X4137995D01*
Y615072D01*
X4135073D01*
Y612150D01*
X4129227D01*
Y609227D01*
X4126304D01*
Y606304D01*
X4120459D01*
Y603382D01*
X4117536D01*
Y600459D01*
X4111691D01*
Y597536D01*
X4108768D01*
Y594614D01*
X4102923D01*
Y591691D01*
Y588768D01*
Y585845D01*
X4100000D01*
Y582923D01*
Y580000D01*
Y577077D01*
Y574154D01*
Y571232D01*
Y568309D01*
X4097077D01*
Y565386D01*
Y562464D01*
Y559541D01*
Y556618D01*
Y553696D01*
Y550773D01*
Y547850D01*
X4094155D01*
Y544927D01*
Y542005D01*
Y539082D01*
Y536159D01*
Y533236D01*
Y530314D01*
X4091232D01*
Y527391D01*
Y524468D01*
Y521546D01*
Y518623D01*
Y515700D01*
Y512778D01*
X4088309D01*
Y509855D01*
Y506932D01*
Y504009D01*
Y501087D01*
Y498164D01*
Y495241D01*
Y492318D01*
X4085386D01*
Y489396D01*
Y486473D01*
Y483550D01*
Y480628D01*
Y477705D01*
Y474782D01*
X4082464D01*
Y471860D01*
Y468937D01*
Y466014D01*
Y463091D01*
Y460169D01*
Y457246D01*
Y454323D01*
X4079541D01*
Y451401D01*
Y448478D01*
Y445555D01*
Y442632D01*
Y439710D01*
Y436787D01*
X4076618D01*
Y433864D01*
Y430942D01*
Y428019D01*
Y425096D01*
Y422173D01*
Y419251D01*
X4073696D01*
Y416328D01*
Y413405D01*
Y410483D01*
Y407560D01*
Y404637D01*
Y401714D01*
Y398792D01*
X4070773D01*
Y395869D01*
Y392946D01*
Y390024D01*
Y387101D01*
Y384178D01*
Y381255D01*
X4067850D01*
Y384178D01*
Y387101D01*
Y390024D01*
Y392946D01*
Y395869D01*
Y398792D01*
Y401714D01*
Y404637D01*
Y407560D01*
Y410483D01*
Y413405D01*
Y416328D01*
Y419251D01*
Y422173D01*
Y425096D01*
Y428019D01*
Y430942D01*
Y433864D01*
Y436787D01*
Y439710D01*
Y442632D01*
Y445555D01*
Y448478D01*
Y451401D01*
Y454323D01*
Y457246D01*
Y460169D01*
Y463091D01*
Y466014D01*
Y468937D01*
Y471860D01*
Y474782D01*
Y477705D01*
Y480628D01*
Y483550D01*
Y486473D01*
Y489396D01*
Y492318D01*
Y495241D01*
Y498164D01*
Y501087D01*
Y504009D01*
Y506932D01*
Y509855D01*
Y512778D01*
Y515700D01*
Y518623D01*
Y521546D01*
Y524468D01*
Y527391D01*
Y530314D01*
Y533236D01*
Y536159D01*
Y539082D01*
Y542005D01*
Y544927D01*
Y547850D01*
Y550773D01*
Y553696D01*
Y556618D01*
Y559541D01*
Y562464D01*
Y565386D01*
Y568309D01*
Y571232D01*
Y574154D01*
Y577077D01*
Y580000D01*
Y582923D01*
Y585845D01*
Y588768D01*
Y591691D01*
Y594614D01*
Y597536D01*
Y600459D01*
Y603382D01*
Y606304D01*
Y609227D01*
Y612150D01*
Y615072D01*
Y617995D01*
Y620918D01*
Y623841D01*
Y626763D01*
Y629686D01*
Y632609D01*
Y635532D01*
Y638454D01*
Y641377D01*
X4070773D01*
Y644300D01*
X4088309D01*
Y647222D01*
X4105845D01*
Y650145D01*
X4123382D01*
Y653068D01*
X4140918D01*
Y655990D01*
X4158454D01*
Y658913D01*
X4178913D01*
Y661836D01*
X4196449D01*
Y664759D01*
X4211063D01*
Y661836D01*
D02*
G37*
G36*
X3915869D02*
X3933405D01*
Y658913D01*
X3950941D01*
Y655990D01*
X3971401D01*
Y653068D01*
X3988937D01*
Y650145D01*
X4006473D01*
Y647222D01*
X4024009D01*
Y644300D01*
X4041546D01*
Y641377D01*
X4044468D01*
Y638454D01*
Y635532D01*
Y632609D01*
Y629686D01*
Y626763D01*
Y623841D01*
Y620918D01*
Y617995D01*
Y615072D01*
Y612150D01*
Y609227D01*
Y606304D01*
Y603382D01*
Y600459D01*
Y597536D01*
Y594614D01*
Y591691D01*
Y588768D01*
Y585845D01*
Y582923D01*
Y580000D01*
Y577077D01*
Y574154D01*
Y571232D01*
Y568309D01*
Y565386D01*
Y562464D01*
Y559541D01*
Y556618D01*
Y553696D01*
Y550773D01*
Y547850D01*
Y544927D01*
Y542005D01*
Y539082D01*
Y536159D01*
Y533236D01*
Y530314D01*
Y527391D01*
Y524468D01*
Y521546D01*
Y518623D01*
Y515700D01*
Y512778D01*
Y509855D01*
Y506932D01*
Y504009D01*
Y501087D01*
Y498164D01*
Y495241D01*
Y492318D01*
Y489396D01*
Y486473D01*
Y483550D01*
Y480628D01*
Y477705D01*
Y474782D01*
Y471860D01*
Y468937D01*
Y466014D01*
Y463091D01*
Y460169D01*
Y457246D01*
Y454323D01*
Y451401D01*
Y448478D01*
Y445555D01*
Y442632D01*
Y439710D01*
Y436787D01*
Y433864D01*
Y430942D01*
Y428019D01*
Y425096D01*
Y422173D01*
Y419251D01*
Y416328D01*
Y413405D01*
Y410483D01*
Y407560D01*
Y404637D01*
Y401714D01*
Y398792D01*
Y395869D01*
Y392946D01*
Y390024D01*
Y387101D01*
Y384178D01*
Y381255D01*
Y378333D01*
X4041546D01*
Y381255D01*
Y384178D01*
Y387101D01*
Y390024D01*
Y392946D01*
Y395869D01*
Y398792D01*
X4038623D01*
Y401714D01*
Y404637D01*
Y407560D01*
Y410483D01*
Y413405D01*
Y416328D01*
X4035700D01*
Y419251D01*
Y422173D01*
Y425096D01*
Y428019D01*
Y430942D01*
Y433864D01*
Y436787D01*
X4032778D01*
Y439710D01*
Y442632D01*
Y445555D01*
Y448478D01*
Y451401D01*
Y454323D01*
X4029855D01*
Y457246D01*
Y460169D01*
Y463091D01*
Y466014D01*
Y468937D01*
Y471860D01*
X4026932D01*
Y474782D01*
Y477705D01*
Y480628D01*
Y483550D01*
Y486473D01*
Y489396D01*
Y492318D01*
X4024009D01*
Y495241D01*
Y498164D01*
Y501087D01*
Y504009D01*
Y506932D01*
Y509855D01*
X4021087D01*
Y512778D01*
Y515700D01*
Y518623D01*
Y521546D01*
Y524468D01*
Y527391D01*
Y530314D01*
X4018164D01*
Y533236D01*
Y536159D01*
Y539082D01*
Y542005D01*
Y544927D01*
Y547850D01*
X4015241D01*
Y550773D01*
Y553696D01*
Y556618D01*
Y559541D01*
Y562464D01*
Y565386D01*
X4012318D01*
Y568309D01*
Y571232D01*
Y574154D01*
Y577077D01*
Y580000D01*
Y582923D01*
Y585845D01*
X4009396D01*
Y588768D01*
Y591691D01*
Y594614D01*
X4003550D01*
Y597536D01*
X4000628D01*
Y600459D01*
X3994782D01*
Y603382D01*
X3991860D01*
Y606304D01*
X3986014D01*
Y609227D01*
X3983091D01*
Y612150D01*
X3977246D01*
Y615072D01*
X3974323D01*
Y617995D01*
X3968478D01*
Y620918D01*
X3962632D01*
Y623841D01*
X3959710D01*
Y626763D01*
X3953864D01*
Y629686D01*
X3950941D01*
Y632609D01*
X3945096D01*
Y635532D01*
X3942173D01*
Y638454D01*
X3936328D01*
Y641377D01*
X3933405D01*
Y644300D01*
X3927560D01*
Y647222D01*
X3924637D01*
Y650145D01*
X3918792D01*
Y653068D01*
X3915869D01*
Y655990D01*
X3910023D01*
Y658913D01*
X3907101D01*
Y661836D01*
X3901255D01*
Y664759D01*
X3915869D01*
Y661836D01*
D02*
G37*
G36*
X4139034Y361727D02*
X4139774D01*
X4141532Y361542D01*
X4143474Y361264D01*
X4145509Y360802D01*
X4147729Y360247D01*
X4149857Y359507D01*
X4149949D01*
X4150134Y359414D01*
X4150412Y359322D01*
X4150782Y359137D01*
X4151799Y358582D01*
X4153094Y357935D01*
X4154482Y357010D01*
X4155962Y355899D01*
X4157349Y354697D01*
X4158644Y353217D01*
X4158829Y353032D01*
X4159199Y352477D01*
X4159754Y351644D01*
X4160494Y350442D01*
X4161234Y348962D01*
X4162067Y347112D01*
X4162899Y345077D01*
X4163547Y342764D01*
X4155869Y340729D01*
Y340822D01*
X4155777Y340914D01*
X4155684Y341192D01*
X4155592Y341562D01*
X4155314Y342394D01*
X4154944Y343505D01*
X4154389Y344800D01*
X4153742Y346002D01*
X4153094Y347297D01*
X4152262Y348407D01*
X4152169Y348500D01*
X4151892Y348870D01*
X4151337Y349332D01*
X4150689Y349979D01*
X4149857Y350719D01*
X4148747Y351459D01*
X4147544Y352200D01*
X4146157Y352847D01*
X4145972Y352940D01*
X4145509Y353125D01*
X4144677Y353402D01*
X4143567Y353772D01*
X4142272Y354050D01*
X4140792Y354327D01*
X4139127Y354512D01*
X4137369Y354604D01*
X4136352D01*
X4135889Y354512D01*
X4135334D01*
X4133947Y354420D01*
X4132374Y354142D01*
X4130617Y353865D01*
X4128952Y353402D01*
X4127287Y352755D01*
X4127102Y352662D01*
X4126547Y352477D01*
X4125807Y352014D01*
X4124882Y351552D01*
X4123772Y350812D01*
X4122569Y350072D01*
X4121459Y349147D01*
X4120442Y348130D01*
X4120349Y348037D01*
X4119979Y347667D01*
X4119517Y347019D01*
X4118962Y346279D01*
X4118314Y345354D01*
X4117667Y344245D01*
X4117019Y343042D01*
X4116372Y341747D01*
Y341654D01*
X4116279Y341469D01*
X4116187Y341192D01*
X4116002Y340729D01*
X4115817Y340175D01*
X4115632Y339527D01*
X4115354Y338787D01*
X4115169Y337954D01*
X4114707Y336012D01*
X4114337Y333792D01*
X4114059Y331479D01*
X4113967Y328889D01*
Y328797D01*
Y328519D01*
Y328057D01*
X4114059Y327502D01*
Y326762D01*
X4114152Y325837D01*
X4114244Y324912D01*
X4114337Y323894D01*
X4114707Y321582D01*
X4115169Y319177D01*
X4115909Y316772D01*
X4116834Y314459D01*
Y314367D01*
X4117019Y314182D01*
X4117112Y313904D01*
X4117389Y313534D01*
X4118037Y312517D01*
X4119054Y311222D01*
X4120257Y309834D01*
X4121737Y308447D01*
X4123494Y307152D01*
X4125437Y305950D01*
X4125529D01*
X4125714Y305857D01*
X4125992Y305672D01*
X4126454Y305487D01*
X4126917Y305302D01*
X4127564Y305117D01*
X4129044Y304562D01*
X4130894Y304099D01*
X4132929Y303637D01*
X4135149Y303267D01*
X4137462Y303175D01*
X4138387D01*
X4138942Y303267D01*
X4139497D01*
X4140884Y303452D01*
X4142549Y303637D01*
X4144307Y304007D01*
X4146249Y304562D01*
X4148192Y305209D01*
X4148284D01*
X4148469Y305302D01*
X4148654Y305394D01*
X4149024Y305579D01*
X4150042Y306042D01*
X4151152Y306597D01*
X4152447Y307245D01*
X4153834Y307985D01*
X4155129Y308817D01*
X4156239Y309742D01*
Y321767D01*
X4137369D01*
Y329352D01*
X4164564D01*
Y305579D01*
X4164472Y305487D01*
X4164287Y305394D01*
X4163917Y305117D01*
X4163454Y304747D01*
X4162899Y304377D01*
X4162252Y303914D01*
X4161419Y303360D01*
X4160587Y302805D01*
X4158644Y301602D01*
X4156424Y300307D01*
X4154112Y299104D01*
X4151614Y298087D01*
X4151522D01*
X4151337Y297995D01*
X4150967Y297902D01*
X4150504Y297717D01*
X4149857Y297532D01*
X4149117Y297255D01*
X4148284Y297070D01*
X4147452Y296885D01*
X4145417Y296422D01*
X4143104Y295959D01*
X4140607Y295682D01*
X4138017Y295589D01*
X4137092D01*
X4136444Y295682D01*
X4135612D01*
X4134594Y295774D01*
X4133484Y295959D01*
X4132282Y296052D01*
X4129599Y296607D01*
X4126732Y297255D01*
X4123772Y298272D01*
X4122292Y298827D01*
X4120812Y299567D01*
X4120719Y299659D01*
X4120442Y299752D01*
X4120072Y300029D01*
X4119517Y300307D01*
X4118869Y300769D01*
X4118222Y301232D01*
X4116464Y302527D01*
X4114614Y304192D01*
X4112672Y306227D01*
X4110822Y308539D01*
X4109157Y311222D01*
Y311315D01*
X4108972Y311592D01*
X4108787Y311962D01*
X4108509Y312610D01*
X4108232Y313257D01*
X4107954Y314182D01*
X4107584Y315107D01*
X4107214Y316217D01*
X4106844Y317420D01*
X4106474Y318807D01*
X4106197Y320195D01*
X4105919Y321675D01*
X4105457Y324912D01*
X4105272Y328334D01*
Y328427D01*
Y328797D01*
Y329260D01*
X4105364Y329907D01*
Y330740D01*
X4105457Y331757D01*
X4105642Y332774D01*
X4105734Y333977D01*
X4106012Y335272D01*
X4106197Y336659D01*
X4106937Y339620D01*
X4107862Y342672D01*
X4109157Y345724D01*
X4109249Y345817D01*
X4109342Y346094D01*
X4109527Y346464D01*
X4109897Y347019D01*
X4110267Y347760D01*
X4110729Y348500D01*
X4112024Y350257D01*
X4113597Y352292D01*
X4115539Y354235D01*
X4117759Y356177D01*
X4119054Y357010D01*
X4120349Y357842D01*
X4120442Y357935D01*
X4120719Y358027D01*
X4121089Y358212D01*
X4121644Y358490D01*
X4122384Y358767D01*
X4123217Y359137D01*
X4124142Y359507D01*
X4125252Y359877D01*
X4126454Y360247D01*
X4127749Y360524D01*
X4129137Y360894D01*
X4130617Y361172D01*
X4133854Y361635D01*
X4135519Y361820D01*
X4138479D01*
X4139034Y361727D01*
D02*
G37*
G36*
X4008702Y296700D02*
X3999914D01*
X3966429Y346927D01*
Y296700D01*
X3958289D01*
Y360709D01*
X3966984D01*
X4000562Y310389D01*
Y360709D01*
X4008702D01*
Y296700D01*
D02*
G37*
G36*
X4049957D02*
X4041077D01*
X4016287Y360709D01*
X4025537D01*
X4042187Y314182D01*
Y314089D01*
X4042279Y313904D01*
X4042372Y313627D01*
X4042557Y313257D01*
X4042649Y312702D01*
X4042834Y312147D01*
X4043297Y310760D01*
X4043852Y309187D01*
X4044407Y307430D01*
X4045517Y303729D01*
Y303822D01*
X4045609Y304007D01*
X4045702Y304284D01*
X4045794Y304654D01*
X4046072Y305672D01*
X4046534Y307060D01*
X4046997Y308632D01*
X4047552Y310389D01*
X4048199Y312240D01*
X4048939Y314182D01*
X4066329Y360709D01*
X4074932D01*
X4049957Y296700D01*
D02*
G37*
G36*
X4185192Y304284D02*
X4216734D01*
Y296700D01*
X4176682D01*
Y360709D01*
X4185192D01*
Y304284D01*
D02*
G37*
G36*
X3920087Y360617D02*
X3921937Y360524D01*
X3923787Y360339D01*
X3925637Y360062D01*
X3927209Y359784D01*
X3927302D01*
X3927487Y359692D01*
X3927764D01*
X3928134Y359507D01*
X3929152Y359229D01*
X3930447Y358767D01*
X3931927Y358120D01*
X3933499Y357287D01*
X3935072Y356362D01*
X3936552Y355159D01*
X3936644Y355067D01*
X3936737Y354974D01*
X3937014Y354697D01*
X3937384Y354420D01*
X3938309Y353495D01*
X3939419Y352200D01*
X3940622Y350627D01*
X3941917Y348777D01*
X3943119Y346649D01*
X3944137Y344245D01*
Y344152D01*
X3944229Y343967D01*
X3944414Y343597D01*
X3944507Y343042D01*
X3944784Y342394D01*
X3944969Y341654D01*
X3945154Y340822D01*
X3945432Y339805D01*
X3945709Y338787D01*
X3945894Y337584D01*
X3946357Y334995D01*
X3946634Y332127D01*
X3946727Y328982D01*
Y328889D01*
Y328704D01*
Y328242D01*
Y327779D01*
X3946634Y327132D01*
Y326392D01*
X3946542Y324635D01*
X3946264Y322599D01*
X3945987Y320472D01*
X3945524Y318252D01*
X3944969Y316032D01*
Y315940D01*
X3944877Y315755D01*
X3944784Y315477D01*
X3944692Y315107D01*
X3944322Y314089D01*
X3943767Y312795D01*
X3943212Y311315D01*
X3942472Y309834D01*
X3941547Y308262D01*
X3940622Y306782D01*
X3940529Y306597D01*
X3940159Y306135D01*
X3939604Y305487D01*
X3938864Y304654D01*
X3938032Y303729D01*
X3937014Y302805D01*
X3935997Y301787D01*
X3934794Y300954D01*
X3934609Y300862D01*
X3934239Y300584D01*
X3933592Y300214D01*
X3932667Y299752D01*
X3931557Y299197D01*
X3930262Y298735D01*
X3928782Y298180D01*
X3927117Y297717D01*
X3926932D01*
X3926654Y297625D01*
X3926377Y297532D01*
X3925452Y297440D01*
X3924157Y297255D01*
X3922677Y297070D01*
X3920919Y296885D01*
X3918977Y296792D01*
X3916849Y296700D01*
X3893817D01*
Y360709D01*
X3918422D01*
X3920087Y360617D01*
D02*
G37*
G36*
X4067254Y273815D02*
X4059392D01*
Y282788D01*
X4067254D01*
Y273815D01*
D02*
G37*
G36*
X4271957Y266137D02*
X4272974Y265952D01*
X4274177Y265582D01*
X4275472Y265120D01*
X4276952Y264473D01*
X4278524Y263640D01*
X4275657Y256425D01*
X4275564Y256517D01*
X4275194Y256702D01*
X4274639Y256980D01*
X4273899Y257257D01*
X4273067Y257535D01*
X4272049Y257812D01*
X4271032Y257998D01*
X4270014Y258090D01*
X4269552D01*
X4269089Y257998D01*
X4268442Y257905D01*
X4267794Y257720D01*
X4266962Y257442D01*
X4266129Y257072D01*
X4265389Y256517D01*
X4265297Y256425D01*
X4265019Y256240D01*
X4264742Y255870D01*
X4264279Y255407D01*
X4263817Y254760D01*
X4263354Y254020D01*
X4262892Y253188D01*
X4262522Y252170D01*
X4262429Y251985D01*
X4262337Y251430D01*
X4262152Y250597D01*
X4261874Y249488D01*
X4261597Y248100D01*
X4261412Y246528D01*
X4261319Y244863D01*
X4261227Y243012D01*
Y218778D01*
X4253364D01*
Y265212D01*
X4260487D01*
Y258183D01*
X4260579Y258275D01*
X4260949Y258923D01*
X4261412Y259755D01*
X4262152Y260772D01*
X4262892Y261790D01*
X4263724Y262900D01*
X4264557Y263825D01*
X4265389Y264565D01*
X4265482Y264658D01*
X4265759Y264842D01*
X4266314Y265120D01*
X4266869Y265397D01*
X4267609Y265675D01*
X4268534Y265952D01*
X4269459Y266137D01*
X4270477Y266230D01*
X4271124D01*
X4271957Y266137D01*
D02*
G37*
G36*
X3922769Y218778D02*
X3915739D01*
Y225530D01*
X3915647Y225438D01*
X3915462Y225160D01*
X3915184Y224790D01*
X3914722Y224327D01*
X3914167Y223773D01*
X3913519Y223032D01*
X3912779Y222385D01*
X3911854Y221645D01*
X3910837Y220905D01*
X3909727Y220257D01*
X3908524Y219610D01*
X3907229Y218963D01*
X3905749Y218500D01*
X3904269Y218130D01*
X3902604Y217852D01*
X3900939Y217760D01*
X3900292D01*
X3899459Y217852D01*
X3898442Y217945D01*
X3897239Y218130D01*
X3895944Y218407D01*
X3894649Y218778D01*
X3893262Y219333D01*
X3893077Y219425D01*
X3892707Y219610D01*
X3892059Y219980D01*
X3891319Y220442D01*
X3890394Y220998D01*
X3889562Y221645D01*
X3888729Y222385D01*
X3887989Y223218D01*
X3887897Y223310D01*
X3887712Y223680D01*
X3887434Y224143D01*
X3887064Y224882D01*
X3886602Y225715D01*
X3886232Y226732D01*
X3885862Y227843D01*
X3885584Y229045D01*
Y229137D01*
X3885492Y229507D01*
X3885399Y230062D01*
Y230803D01*
X3885307Y231912D01*
X3885214Y233115D01*
X3885122Y234688D01*
Y236445D01*
Y265212D01*
X3892984D01*
Y239405D01*
Y239312D01*
Y239127D01*
Y238850D01*
Y238387D01*
Y237370D01*
X3893077Y236075D01*
Y234688D01*
X3893169Y233300D01*
X3893262Y232097D01*
X3893447Y231080D01*
Y230988D01*
X3893632Y230618D01*
X3893817Y230062D01*
X3894094Y229322D01*
X3894557Y228583D01*
X3895112Y227750D01*
X3895759Y227010D01*
X3896592Y226270D01*
X3896684Y226178D01*
X3897054Y225993D01*
X3897517Y225715D01*
X3898257Y225438D01*
X3899089Y225067D01*
X3900107Y224790D01*
X3901217Y224605D01*
X3902512Y224512D01*
X3903159D01*
X3903807Y224605D01*
X3904639Y224697D01*
X3905657Y224975D01*
X3906767Y225252D01*
X3907969Y225715D01*
X3909172Y226270D01*
X3909357Y226363D01*
X3909727Y226640D01*
X3910282Y227010D01*
X3910929Y227565D01*
X3911669Y228305D01*
X3912409Y229137D01*
X3913057Y230062D01*
X3913612Y231173D01*
X3913704Y231357D01*
X3913797Y231727D01*
X3913982Y232468D01*
X3914259Y233485D01*
X3914537Y234780D01*
X3914722Y236352D01*
X3914814Y238202D01*
X3914907Y240330D01*
Y265212D01*
X3922769D01*
Y218778D01*
D02*
G37*
G36*
X4136907Y259848D02*
X4136999Y259940D01*
X4137184Y260125D01*
X4137462Y260402D01*
X4137924Y260865D01*
X4138387Y261327D01*
X4139034Y261882D01*
X4139867Y262438D01*
X4140699Y263085D01*
X4141624Y263640D01*
X4142642Y264195D01*
X4145047Y265212D01*
X4146342Y265675D01*
X4147729Y265952D01*
X4149209Y266137D01*
X4150689Y266230D01*
X4151522D01*
X4152539Y266137D01*
X4153742Y265952D01*
X4155129Y265767D01*
X4156609Y265397D01*
X4158089Y264842D01*
X4159569Y264195D01*
X4159754Y264103D01*
X4160217Y263825D01*
X4160864Y263363D01*
X4161697Y262715D01*
X4162529Y261882D01*
X4163454Y260957D01*
X4164287Y259848D01*
X4165027Y258553D01*
X4165119Y258368D01*
X4165304Y257905D01*
X4165582Y257072D01*
X4165859Y255870D01*
X4166137Y254390D01*
X4166414Y252632D01*
X4166599Y250505D01*
X4166692Y248100D01*
Y218778D01*
X4158829D01*
Y248192D01*
Y248285D01*
Y248470D01*
Y248748D01*
Y249118D01*
X4158737Y250135D01*
X4158552Y251430D01*
X4158182Y252817D01*
X4157719Y254205D01*
X4157072Y255593D01*
X4156239Y256702D01*
X4156147Y256795D01*
X4155777Y257165D01*
X4155222Y257627D01*
X4154389Y258090D01*
X4153372Y258645D01*
X4152169Y259015D01*
X4150689Y259385D01*
X4149024Y259478D01*
X4148469D01*
X4147822Y259385D01*
X4146897Y259293D01*
X4145972Y259015D01*
X4144862Y258738D01*
X4143752Y258275D01*
X4142549Y257627D01*
X4142457Y257535D01*
X4142087Y257257D01*
X4141532Y256887D01*
X4140884Y256332D01*
X4140144Y255593D01*
X4139404Y254760D01*
X4138757Y253743D01*
X4138202Y252632D01*
X4138109Y252447D01*
X4138017Y252077D01*
X4137832Y251338D01*
X4137554Y250412D01*
X4137277Y249210D01*
X4137092Y247730D01*
X4136999Y246065D01*
X4136907Y244123D01*
Y218778D01*
X4129044D01*
Y282788D01*
X4136907D01*
Y259848D01*
D02*
G37*
G36*
X4067254Y218778D02*
X4059392D01*
Y265212D01*
X4067254D01*
Y218778D01*
D02*
G37*
G36*
X4049402Y275202D02*
X4014622D01*
Y255407D01*
X4044684D01*
Y247822D01*
X4014622D01*
Y218778D01*
X4006112D01*
Y282788D01*
X4049402D01*
Y275202D01*
D02*
G37*
G36*
X3992514Y218778D02*
X3984652D01*
Y282788D01*
X3992514D01*
Y218778D01*
D02*
G37*
G36*
X3875317Y275202D02*
X3840537D01*
Y255407D01*
X3870599D01*
Y247822D01*
X3840537D01*
Y218778D01*
X3832027D01*
Y282788D01*
X3875317D01*
Y275202D01*
D02*
G37*
G36*
X4187967Y265212D02*
X4195922D01*
Y259108D01*
X4187967D01*
Y231820D01*
Y231635D01*
Y231265D01*
Y230710D01*
X4188059Y230062D01*
X4188152Y228583D01*
X4188244Y227935D01*
X4188337Y227472D01*
X4188429Y227287D01*
X4188707Y226917D01*
X4189077Y226455D01*
X4189724Y225993D01*
X4189909Y225900D01*
X4190372Y225715D01*
X4191204Y225530D01*
X4192407Y225438D01*
X4193332D01*
X4193794Y225530D01*
X4194442D01*
X4195182Y225623D01*
X4195922Y225715D01*
X4196939Y218778D01*
X4196754D01*
X4196384Y218685D01*
X4195737Y218593D01*
X4194904Y218500D01*
X4193979Y218315D01*
X4192962Y218222D01*
X4190927Y218130D01*
X4190187D01*
X4189447Y218222D01*
X4188522Y218315D01*
X4187412Y218407D01*
X4186302Y218685D01*
X4185284Y218963D01*
X4184267Y219425D01*
X4184174Y219518D01*
X4183897Y219702D01*
X4183527Y219980D01*
X4182972Y220442D01*
X4182509Y220905D01*
X4181954Y221553D01*
X4181399Y222200D01*
X4181029Y223032D01*
Y223125D01*
X4180844Y223495D01*
X4180752Y224143D01*
X4180567Y225067D01*
X4180382Y226270D01*
X4180289Y227010D01*
Y227843D01*
X4180197Y228860D01*
X4180104Y229877D01*
Y230988D01*
Y232282D01*
Y259108D01*
X4174277D01*
Y265212D01*
X4180104D01*
Y276683D01*
X4187967Y281400D01*
Y265212D01*
D02*
G37*
G36*
X4224227Y266137D02*
X4224967Y266045D01*
X4225892Y265860D01*
X4226909Y265675D01*
X4228112Y265397D01*
X4229222Y265120D01*
X4230517Y264658D01*
X4231719Y264195D01*
X4233014Y263548D01*
X4234309Y262808D01*
X4235604Y261975D01*
X4236807Y260957D01*
X4237917Y259848D01*
X4238009Y259755D01*
X4238194Y259570D01*
X4238472Y259200D01*
X4238842Y258645D01*
X4239304Y257998D01*
X4239767Y257257D01*
X4240322Y256332D01*
X4240877Y255222D01*
X4241432Y254020D01*
X4241987Y252725D01*
X4242449Y251245D01*
X4242912Y249673D01*
X4243282Y247915D01*
X4243559Y246065D01*
X4243744Y244123D01*
X4243837Y241995D01*
Y241903D01*
Y241532D01*
Y240885D01*
X4243744Y239960D01*
X4209057D01*
Y239868D01*
Y239590D01*
X4209149Y239220D01*
Y238665D01*
X4209242Y238018D01*
X4209427Y237278D01*
X4209704Y235613D01*
X4210259Y233762D01*
X4210999Y231727D01*
X4212017Y229877D01*
X4213312Y228213D01*
X4213404D01*
X4213497Y228028D01*
X4214052Y227565D01*
X4214884Y226917D01*
X4215994Y226270D01*
X4217474Y225530D01*
X4219139Y224882D01*
X4220989Y224420D01*
X4222007Y224327D01*
X4223117Y224235D01*
X4223857D01*
X4224689Y224327D01*
X4225707Y224512D01*
X4226817Y224790D01*
X4228112Y225160D01*
X4229314Y225715D01*
X4230517Y226455D01*
X4230609Y226548D01*
X4231072Y226917D01*
X4231627Y227472D01*
X4232274Y228213D01*
X4233014Y229230D01*
X4233847Y230525D01*
X4234679Y232005D01*
X4235419Y233762D01*
X4243559Y232745D01*
Y232653D01*
X4243467Y232468D01*
X4243374Y232097D01*
X4243189Y231542D01*
X4242912Y230988D01*
X4242634Y230248D01*
X4241894Y228675D01*
X4240969Y226917D01*
X4239674Y225067D01*
X4238194Y223310D01*
X4236344Y221645D01*
X4236252D01*
X4236067Y221460D01*
X4235789Y221275D01*
X4235419Y220998D01*
X4234864Y220720D01*
X4234309Y220442D01*
X4233569Y220072D01*
X4232737Y219702D01*
X4231812Y219333D01*
X4230887Y218963D01*
X4228574Y218407D01*
X4225984Y217945D01*
X4223117Y217760D01*
X4222099D01*
X4221452Y217852D01*
X4220619Y217945D01*
X4219602Y218130D01*
X4218492Y218315D01*
X4217289Y218500D01*
X4214699Y219240D01*
X4213312Y219795D01*
X4212017Y220350D01*
X4210629Y221090D01*
X4209334Y221923D01*
X4208132Y222847D01*
X4206929Y223958D01*
X4206837Y224050D01*
X4206652Y224235D01*
X4206374Y224605D01*
X4206004Y225160D01*
X4205542Y225808D01*
X4205079Y226548D01*
X4204524Y227472D01*
X4203969Y228490D01*
X4203414Y229692D01*
X4202859Y230988D01*
X4202397Y232468D01*
X4201934Y234040D01*
X4201564Y235705D01*
X4201287Y237555D01*
X4201102Y239498D01*
X4201009Y241532D01*
Y241625D01*
Y242088D01*
Y242643D01*
X4201102Y243475D01*
X4201194Y244493D01*
X4201287Y245602D01*
X4201472Y246898D01*
X4201749Y248192D01*
X4202489Y251153D01*
X4202952Y252632D01*
X4203507Y254205D01*
X4204247Y255685D01*
X4205079Y257072D01*
X4206004Y258460D01*
X4207022Y259755D01*
X4207114Y259848D01*
X4207299Y260033D01*
X4207669Y260310D01*
X4208132Y260772D01*
X4208687Y261235D01*
X4209427Y261790D01*
X4210259Y262438D01*
X4211277Y262993D01*
X4212294Y263640D01*
X4213497Y264195D01*
X4214792Y264750D01*
X4216179Y265212D01*
X4217659Y265675D01*
X4219232Y265952D01*
X4220897Y266137D01*
X4222654Y266230D01*
X4223579D01*
X4224227Y266137D01*
D02*
G37*
G36*
X3955607D02*
X3956347Y266045D01*
X3957272Y265860D01*
X3958289Y265675D01*
X3959492Y265397D01*
X3960602Y265120D01*
X3961897Y264658D01*
X3963099Y264195D01*
X3964394Y263548D01*
X3965689Y262808D01*
X3966984Y261975D01*
X3968187Y260957D01*
X3969297Y259848D01*
X3969389Y259755D01*
X3969574Y259570D01*
X3969852Y259200D01*
X3970222Y258645D01*
X3970684Y257998D01*
X3971147Y257257D01*
X3971702Y256332D01*
X3972257Y255222D01*
X3972812Y254020D01*
X3973367Y252725D01*
X3973829Y251245D01*
X3974292Y249673D01*
X3974662Y247915D01*
X3974939Y246065D01*
X3975124Y244123D01*
X3975217Y241995D01*
Y241903D01*
Y241532D01*
Y240885D01*
X3975124Y239960D01*
X3940437D01*
Y239868D01*
Y239590D01*
X3940529Y239220D01*
Y238665D01*
X3940622Y238018D01*
X3940807Y237278D01*
X3941084Y235613D01*
X3941639Y233762D01*
X3942379Y231727D01*
X3943397Y229877D01*
X3944692Y228213D01*
X3944784D01*
X3944877Y228028D01*
X3945432Y227565D01*
X3946264Y226917D01*
X3947374Y226270D01*
X3948854Y225530D01*
X3950519Y224882D01*
X3952369Y224420D01*
X3953387Y224327D01*
X3954497Y224235D01*
X3955237D01*
X3956069Y224327D01*
X3957087Y224512D01*
X3958197Y224790D01*
X3959492Y225160D01*
X3960694Y225715D01*
X3961897Y226455D01*
X3961989Y226548D01*
X3962452Y226917D01*
X3963007Y227472D01*
X3963654Y228213D01*
X3964394Y229230D01*
X3965227Y230525D01*
X3966059Y232005D01*
X3966799Y233762D01*
X3974939Y232745D01*
Y232653D01*
X3974847Y232468D01*
X3974754Y232097D01*
X3974569Y231542D01*
X3974292Y230988D01*
X3974014Y230248D01*
X3973274Y228675D01*
X3972349Y226917D01*
X3971054Y225067D01*
X3969574Y223310D01*
X3967724Y221645D01*
X3967632D01*
X3967447Y221460D01*
X3967169Y221275D01*
X3966799Y220998D01*
X3966244Y220720D01*
X3965689Y220442D01*
X3964949Y220072D01*
X3964117Y219702D01*
X3963192Y219333D01*
X3962267Y218963D01*
X3959954Y218407D01*
X3957364Y217945D01*
X3954497Y217760D01*
X3953479D01*
X3952832Y217852D01*
X3951999Y217945D01*
X3950982Y218130D01*
X3949872Y218315D01*
X3948669Y218500D01*
X3946079Y219240D01*
X3944692Y219795D01*
X3943397Y220350D01*
X3942009Y221090D01*
X3940714Y221923D01*
X3939512Y222847D01*
X3938309Y223958D01*
X3938217Y224050D01*
X3938032Y224235D01*
X3937754Y224605D01*
X3937384Y225160D01*
X3936922Y225808D01*
X3936459Y226548D01*
X3935904Y227472D01*
X3935349Y228490D01*
X3934794Y229692D01*
X3934239Y230988D01*
X3933777Y232468D01*
X3933314Y234040D01*
X3932944Y235705D01*
X3932667Y237555D01*
X3932482Y239498D01*
X3932389Y241532D01*
Y241625D01*
Y242088D01*
Y242643D01*
X3932482Y243475D01*
X3932574Y244493D01*
X3932667Y245602D01*
X3932852Y246898D01*
X3933129Y248192D01*
X3933869Y251153D01*
X3934332Y252632D01*
X3934887Y254205D01*
X3935627Y255685D01*
X3936459Y257072D01*
X3937384Y258460D01*
X3938402Y259755D01*
X3938494Y259848D01*
X3938679Y260033D01*
X3939049Y260310D01*
X3939512Y260772D01*
X3940067Y261235D01*
X3940807Y261790D01*
X3941639Y262438D01*
X3942657Y262993D01*
X3943674Y263640D01*
X3944877Y264195D01*
X3946172Y264750D01*
X3947559Y265212D01*
X3949039Y265675D01*
X3950612Y265952D01*
X3952277Y266137D01*
X3954034Y266230D01*
X3954959D01*
X3955607Y266137D01*
D02*
G37*
G36*
X4097687D02*
X4098334Y266045D01*
X4099167Y265860D01*
X4100092Y265675D01*
X4101109Y265397D01*
X4102127Y265027D01*
X4103237Y264565D01*
X4104347Y264010D01*
X4105549Y263363D01*
X4106659Y262623D01*
X4107769Y261697D01*
X4108879Y260680D01*
X4109897Y259478D01*
Y265212D01*
X4117112D01*
Y225067D01*
Y224975D01*
Y224605D01*
Y224050D01*
Y223310D01*
X4117019Y222477D01*
Y221460D01*
X4116927Y220350D01*
X4116834Y219148D01*
X4116557Y216650D01*
X4116187Y214060D01*
X4115909Y212857D01*
X4115632Y211748D01*
X4115262Y210730D01*
X4114892Y209805D01*
Y209713D01*
X4114799Y209620D01*
X4114429Y209065D01*
X4113967Y208232D01*
X4113227Y207215D01*
X4112209Y206105D01*
X4111007Y204903D01*
X4109527Y203700D01*
X4107862Y202683D01*
X4107769D01*
X4107677Y202590D01*
X4107399Y202405D01*
X4107029Y202312D01*
X4106567Y202035D01*
X4106012Y201850D01*
X4104624Y201387D01*
X4102959Y200833D01*
X4100924Y200463D01*
X4098612Y200093D01*
X4096114Y200000D01*
X4095282D01*
X4094727Y200093D01*
X4093987D01*
X4093247Y200185D01*
X4092322Y200278D01*
X4091304Y200463D01*
X4089177Y200925D01*
X4086957Y201572D01*
X4084737Y202498D01*
X4082702Y203792D01*
X4082609Y203885D01*
X4082517Y203977D01*
X4081869Y204532D01*
X4081129Y205365D01*
X4080204Y206567D01*
X4079279Y208140D01*
X4078447Y210083D01*
X4078169Y211192D01*
X4077984Y212395D01*
X4077799Y213597D01*
Y214985D01*
X4085477Y213968D01*
Y213782D01*
X4085569Y213412D01*
X4085754Y212765D01*
X4085939Y211933D01*
X4086309Y211100D01*
X4086772Y210268D01*
X4087327Y209435D01*
X4088067Y208787D01*
X4088252Y208695D01*
X4088622Y208417D01*
X4089269Y208048D01*
X4090194Y207678D01*
X4091304Y207215D01*
X4092692Y206845D01*
X4094357Y206567D01*
X4096114Y206475D01*
X4097039D01*
X4097964Y206567D01*
X4099259Y206752D01*
X4100554Y207030D01*
X4101942Y207400D01*
X4103329Y207955D01*
X4104532Y208695D01*
X4104624Y208787D01*
X4104994Y209065D01*
X4105549Y209620D01*
X4106197Y210268D01*
X4106844Y211192D01*
X4107492Y212210D01*
X4108139Y213412D01*
X4108602Y214800D01*
Y214893D01*
X4108694Y215262D01*
X4108787Y216002D01*
X4108879Y216928D01*
X4108972Y217575D01*
Y218315D01*
X4109064Y219148D01*
Y220072D01*
Y221090D01*
X4109157Y222292D01*
Y223495D01*
Y224882D01*
X4109064Y224790D01*
X4108879Y224605D01*
X4108602Y224327D01*
X4108232Y223958D01*
X4107769Y223495D01*
X4107122Y222940D01*
X4106382Y222385D01*
X4105642Y221830D01*
X4103699Y220720D01*
X4101572Y219702D01*
X4100369Y219333D01*
X4099074Y219055D01*
X4097687Y218870D01*
X4096299Y218778D01*
X4095837D01*
X4095374Y218870D01*
X4094727D01*
X4093894Y218963D01*
X4092969Y219148D01*
X4091952Y219333D01*
X4090842Y219610D01*
X4089639Y219980D01*
X4088437Y220442D01*
X4087234Y220998D01*
X4085939Y221645D01*
X4084737Y222477D01*
X4083534Y223403D01*
X4082424Y224420D01*
X4081407Y225623D01*
X4081314Y225715D01*
X4081222Y225900D01*
X4080944Y226363D01*
X4080574Y226825D01*
X4080204Y227565D01*
X4079742Y228305D01*
X4079279Y229230D01*
X4078817Y230340D01*
X4078354Y231450D01*
X4077892Y232745D01*
X4077429Y234040D01*
X4077059Y235520D01*
X4076412Y238665D01*
X4076319Y240423D01*
X4076227Y242180D01*
Y242273D01*
Y242458D01*
Y242827D01*
Y243290D01*
X4076319Y243938D01*
Y244585D01*
X4076504Y246250D01*
X4076782Y248100D01*
X4077244Y250135D01*
X4077799Y252262D01*
X4078632Y254390D01*
Y254482D01*
X4078724Y254667D01*
X4078909Y254945D01*
X4079094Y255315D01*
X4079649Y256332D01*
X4080389Y257627D01*
X4081407Y259015D01*
X4082609Y260402D01*
X4083997Y261882D01*
X4085569Y263085D01*
X4085662D01*
X4085754Y263178D01*
X4086032Y263363D01*
X4086402Y263548D01*
X4087327Y264103D01*
X4088622Y264658D01*
X4090194Y265212D01*
X4092044Y265767D01*
X4094079Y266137D01*
X4096299Y266230D01*
X4097132D01*
X4097687Y266137D01*
D02*
G37*
%LPC*%
G36*
X3917127Y353125D02*
X3902327D01*
Y304284D01*
X3917497D01*
X3918144Y304377D01*
X3919532Y304469D01*
X3921104Y304562D01*
X3922769Y304747D01*
X3924434Y305024D01*
X3925822Y305394D01*
X3926007Y305487D01*
X3926469Y305579D01*
X3927117Y305857D01*
X3927949Y306227D01*
X3928874Y306782D01*
X3929799Y307337D01*
X3930724Y307985D01*
X3931649Y308724D01*
X3931742Y308909D01*
X3932112Y309279D01*
X3932667Y309927D01*
X3933314Y310852D01*
X3934054Y312055D01*
X3934887Y313442D01*
X3935627Y315014D01*
X3936274Y316772D01*
Y316865D01*
X3936367Y317050D01*
X3936459Y317327D01*
X3936552Y317697D01*
X3936644Y318159D01*
X3936829Y318807D01*
X3937014Y319454D01*
X3937199Y320195D01*
X3937477Y322045D01*
X3937754Y324172D01*
X3937939Y326577D01*
X3938032Y329167D01*
Y329260D01*
Y329630D01*
Y330092D01*
X3937939Y330832D01*
Y331664D01*
X3937847Y332589D01*
X3937754Y333700D01*
X3937662Y334810D01*
X3937199Y337307D01*
X3936644Y339897D01*
X3935812Y342302D01*
X3935257Y343505D01*
X3934702Y344522D01*
Y344615D01*
X3934517Y344800D01*
X3934332Y345077D01*
X3934147Y345447D01*
X3933407Y346372D01*
X3932482Y347482D01*
X3931279Y348685D01*
X3929892Y349887D01*
X3928319Y350904D01*
X3926654Y351737D01*
X3926469Y351829D01*
X3926007Y351922D01*
X3925174Y352200D01*
X3923972Y352477D01*
X3922492Y352662D01*
X3920642Y352940D01*
X3919532Y353032D01*
X3918329D01*
X3917127Y353125D01*
D02*
G37*
G36*
X4222747Y259755D02*
X4222192D01*
X4221822Y259663D01*
X4220804Y259570D01*
X4219602Y259293D01*
X4218122Y258830D01*
X4216549Y258183D01*
X4215069Y257257D01*
X4213589Y256055D01*
X4213404Y255870D01*
X4213034Y255407D01*
X4212387Y254575D01*
X4211739Y253465D01*
X4210999Y252170D01*
X4210352Y250505D01*
X4209797Y248562D01*
X4209519Y246435D01*
X4235512D01*
Y246528D01*
Y246713D01*
X4235419Y246990D01*
Y247360D01*
X4235234Y248470D01*
X4234957Y249673D01*
X4234494Y251153D01*
X4234032Y252540D01*
X4233292Y253928D01*
X4232459Y255130D01*
Y255222D01*
X4232274Y255315D01*
X4231812Y255870D01*
X4230979Y256610D01*
X4229869Y257442D01*
X4228482Y258275D01*
X4226817Y259015D01*
X4224874Y259570D01*
X4223857Y259663D01*
X4222747Y259755D01*
D02*
G37*
G36*
X3954127D02*
X3953572D01*
X3953202Y259663D01*
X3952184Y259570D01*
X3950982Y259293D01*
X3949502Y258830D01*
X3947929Y258183D01*
X3946449Y257257D01*
X3944969Y256055D01*
X3944784Y255870D01*
X3944414Y255407D01*
X3943767Y254575D01*
X3943119Y253465D01*
X3942379Y252170D01*
X3941732Y250505D01*
X3941177Y248562D01*
X3940899Y246435D01*
X3966892D01*
Y246528D01*
Y246713D01*
X3966799Y246990D01*
Y247360D01*
X3966614Y248470D01*
X3966337Y249673D01*
X3965874Y251153D01*
X3965412Y252540D01*
X3964672Y253928D01*
X3963839Y255130D01*
Y255222D01*
X3963654Y255315D01*
X3963192Y255870D01*
X3962359Y256610D01*
X3961249Y257442D01*
X3959862Y258275D01*
X3958197Y259015D01*
X3956254Y259570D01*
X3955237Y259663D01*
X3954127Y259755D01*
D02*
G37*
G36*
X4097872D02*
X4096392D01*
X4096022Y259663D01*
X4095004Y259570D01*
X4093802Y259200D01*
X4092322Y258738D01*
X4090842Y257905D01*
X4089362Y256887D01*
X4088622Y256147D01*
X4087882Y255407D01*
Y255315D01*
X4087697Y255222D01*
X4087512Y254945D01*
X4087327Y254575D01*
X4087049Y254205D01*
X4086772Y253650D01*
X4086402Y253002D01*
X4086124Y252262D01*
X4085754Y251430D01*
X4085384Y250412D01*
X4085107Y249395D01*
X4084829Y248285D01*
X4084644Y246990D01*
X4084459Y245695D01*
X4084274Y244308D01*
Y242735D01*
Y242643D01*
Y242365D01*
Y241903D01*
X4084367Y241255D01*
Y240515D01*
X4084459Y239590D01*
X4084737Y237648D01*
X4085199Y235428D01*
X4085754Y233300D01*
X4086679Y231173D01*
X4087234Y230248D01*
X4087882Y229415D01*
X4088067Y229230D01*
X4088529Y228768D01*
X4089269Y228120D01*
X4090379Y227380D01*
X4091674Y226548D01*
X4093247Y225900D01*
X4095004Y225438D01*
X4095929Y225345D01*
X4096947Y225252D01*
X4097502D01*
X4097872Y225345D01*
X4098889Y225438D01*
X4100184Y225808D01*
X4101572Y226270D01*
X4103144Y227010D01*
X4104624Y228028D01*
X4105364Y228675D01*
X4106104Y229415D01*
Y229507D01*
X4106289Y229600D01*
X4106474Y229877D01*
X4106659Y230248D01*
X4106937Y230618D01*
X4107307Y231173D01*
X4107584Y231820D01*
X4107954Y232653D01*
X4108324Y233485D01*
X4108602Y234410D01*
X4108972Y235520D01*
X4109249Y236722D01*
X4109434Y237925D01*
X4109619Y239312D01*
X4109804Y240885D01*
Y242458D01*
Y242550D01*
Y242827D01*
Y243290D01*
X4109712Y243845D01*
Y244585D01*
X4109619Y245417D01*
X4109342Y247268D01*
X4108879Y249395D01*
X4108232Y251523D01*
X4107307Y253650D01*
X4106659Y254575D01*
X4106012Y255407D01*
Y255500D01*
X4105827Y255593D01*
X4105364Y256055D01*
X4104532Y256795D01*
X4103422Y257627D01*
X4102127Y258368D01*
X4100554Y259108D01*
X4098797Y259570D01*
X4097872Y259755D01*
D02*
G37*
%LPD*%
D34*
X4160532Y2050001D02*
G03*
X4160532Y2050001I-4123J0D01*
G01*
X3760213Y2263079D02*
X4056472D01*
X4045646Y2515047D02*
X4122417Y2438276D01*
X3760213Y2515047D02*
X4045646D01*
X3760213Y2263079D02*
Y2515047D01*
X4122417Y2329024D02*
Y2438276D01*
X4056472Y2263079D02*
X4122417Y2329024D01*
X4277315Y2515921D02*
X4573575D01*
X4211370Y2340724D02*
X4288142Y2263953D01*
X4573575D01*
Y2515921D01*
X4211370Y2340724D02*
Y2449976D01*
X4277315Y2515921D01*
X4053409Y2066001D02*
X4172409D01*
X4053409Y1982001D02*
Y2066001D01*
Y1982001D02*
X4172409D01*
Y2066001D01*
X4300000Y3229843D02*
Y3309843D01*
X4260000Y3269843D02*
X4340000D01*
X4100000Y2710000D02*
Y3210000D01*
Y2710000D02*
X4250000Y2560000D01*
X4350000D01*
X4500000Y2710000D01*
Y3210000D01*
X4100000D02*
X4500000D01*
X3603583Y3231260D02*
Y3311260D01*
X3563583Y3271260D02*
X3643583D01*
X3403583Y2711417D02*
Y3211417D01*
Y2711417D02*
X3553583Y2561417D01*
X3653583D01*
X3803583Y2711417D01*
Y3211417D01*
X3403583D02*
X3803583D01*
X1308780Y3222795D02*
Y3302795D01*
X1268780Y3262795D02*
X1348780D01*
X1108780Y2702953D02*
Y3202953D01*
Y2702953D02*
X1258780Y2552953D01*
X1358780D01*
X1508780Y2702953D01*
Y3202953D01*
X1108780D02*
X1508780D01*
X2678780Y3227795D02*
Y3307795D01*
X2638780Y3267795D02*
X2718780D01*
X2478780Y2707953D02*
Y3207953D01*
Y2707953D02*
X2628780Y2557953D01*
X2728780D01*
X2878780Y2707953D01*
Y3207953D01*
X2478780D02*
X2878780D01*
X220000Y1990000D02*
X240000Y1970000D01*
Y1970000D02*
X1040000Y1970000D01*
X1060000Y1990000D01*
X4641009Y2804959D02*
X4541041D01*
Y2854943D01*
X4557702Y2871605D01*
X4591025D01*
X4607686Y2854943D01*
Y2804959D01*
X4541041Y2904927D02*
Y2938250D01*
Y2921588D01*
X4641009D01*
Y2904927D01*
Y2938250D01*
Y2988234D02*
X4541041D01*
X4641009Y3054879D01*
X4541041D01*
X2640000Y2279987D02*
X2679987Y2240000D01*
X2659994Y2259994D01*
X2679987Y2279987D01*
X2640000Y2240000D01*
X80019Y1410000D02*
Y1449987D01*
Y1429994D01*
X140000D01*
Y1499971D02*
Y1479977D01*
X130003Y1469981D01*
X110010D01*
X100013Y1479977D01*
Y1499971D01*
X110010Y1509968D01*
X120007D01*
Y1469981D01*
X140000Y1529961D02*
Y1549955D01*
Y1539958D01*
X80019D01*
Y1529961D01*
X140000Y1609935D02*
Y1589942D01*
X130003Y1579945D01*
X110010D01*
X100013Y1589942D01*
Y1609935D01*
X110010Y1619932D01*
X120007D01*
Y1579945D01*
X140000Y1639926D02*
X100013D01*
Y1649922D01*
X110010Y1659919D01*
X140000D01*
X110010D01*
X100013Y1669916D01*
X110010Y1679913D01*
X140000D01*
Y1729897D02*
Y1709903D01*
X130003Y1699906D01*
X110010D01*
X100013Y1709903D01*
Y1729897D01*
X110010Y1739893D01*
X120007D01*
Y1699906D01*
X90016Y1769884D02*
X100013D01*
Y1759887D01*
Y1779880D01*
Y1769884D01*
X130003D01*
X140000Y1779880D01*
X100013Y1809871D02*
X140000D01*
X120007D01*
X110010Y1819867D01*
X100013Y1829864D01*
Y1839861D01*
Y1869851D02*
X130003D01*
X140000Y1879848D01*
Y1909838D01*
X149997D01*
X159994Y1899841D01*
Y1889845D01*
X140000Y1909838D02*
X100013D01*
X140000Y2029800D02*
Y1989812D01*
X100013Y2029800D01*
X90016D01*
X80019Y2019803D01*
Y1999809D01*
X90016Y1989812D01*
Y2049793D02*
X80019Y2059790D01*
Y2079783D01*
X90016Y2089780D01*
X130003D01*
X140000Y2079783D01*
Y2059790D01*
X130003Y2049793D01*
X90016D01*
X140000Y2149761D02*
Y2109774D01*
X100013Y2149761D01*
X90016D01*
X80019Y2139764D01*
Y2119770D01*
X90016Y2109774D01*
Y2169754D02*
X80019Y2179751D01*
Y2199744D01*
X90016Y2209741D01*
X130003D01*
X140000Y2199744D01*
Y2179751D01*
X130003Y2169754D01*
X90016D01*
X100013Y2289715D02*
X140000Y2309709D01*
X100013Y2329702D01*
X90016Y2349696D02*
X80019Y2359693D01*
Y2379686D01*
X90016Y2389683D01*
X130003D01*
X140000Y2379686D01*
Y2359693D01*
X130003Y2349696D01*
X90016D01*
X140000Y2409677D02*
X130003D01*
Y2419673D01*
X140000D01*
Y2409677D01*
Y2459660D02*
Y2479654D01*
Y2469657D01*
X80019D01*
X90016Y2459660D01*
X2440000Y2279987D02*
X2479987Y2240000D01*
X2459994Y2259994D01*
X2479987Y2279987D01*
X2440000Y2240000D01*
X1570010Y2680000D02*
Y2719987D01*
X1550016Y2699994D02*
X1590003D01*
X1600000Y2779968D02*
Y2739981D01*
X1560013Y2779968D01*
X1550016D01*
X1540019Y2769971D01*
Y2749977D01*
X1550016Y2739981D01*
X1600000Y2829952D02*
X1540019D01*
X1570010Y2799961D01*
Y2839948D01*
X1540019Y2859942D02*
X1580006D01*
X1600000Y2879935D01*
X1580006Y2899929D01*
X1540019D01*
Y3009893D02*
Y2989900D01*
X1550016Y2979903D01*
X1590003D01*
X1600000Y2989900D01*
Y3009893D01*
X1590003Y3019890D01*
X1550016D01*
X1540019Y3009893D01*
Y3039884D02*
X1590003D01*
X1600000Y3049880D01*
Y3069874D01*
X1590003Y3079871D01*
X1540019D01*
Y3099864D02*
Y3139851D01*
Y3119858D01*
X1600000D01*
X2420010Y2710000D02*
Y2749987D01*
X2400016Y2729994D02*
X2440003D01*
X2450000Y2809968D02*
Y2769981D01*
X2410013Y2809968D01*
X2400016D01*
X2390019Y2799971D01*
Y2779977D01*
X2400016Y2769981D01*
X2450000Y2859952D02*
X2390019D01*
X2420010Y2829961D01*
Y2869948D01*
X2390019Y2889942D02*
X2430006D01*
X2450000Y2909935D01*
X2430006Y2929929D01*
X2390019D01*
Y3009903D02*
Y3029896D01*
Y3019900D01*
X2450000D01*
Y3009903D01*
Y3029896D01*
Y3059887D02*
X2390019D01*
X2450000Y3099874D01*
X2390019D01*
X2246677Y2256658D02*
X2240013Y2249994D01*
Y2236664D01*
X2246677Y2230000D01*
X2253342D01*
X2260006Y2236664D01*
Y2249994D01*
X2266671Y2256658D01*
X2273336D01*
X2280000Y2249994D01*
Y2236664D01*
X2273336Y2230000D01*
X2240013Y2269987D02*
X2280000D01*
Y2289981D01*
X2273336Y2296645D01*
X2246677D01*
X2240013Y2289981D01*
Y2269987D01*
X2280000Y2309974D02*
X2253342D01*
X2240013Y2323303D01*
X2253342Y2336632D01*
X2280000D01*
X2260006D01*
Y2309974D01*
X2146677Y2256658D02*
X2140013Y2249994D01*
Y2236664D01*
X2146677Y2230000D01*
X2153342D01*
X2160006Y2236664D01*
Y2249994D01*
X2166671Y2256658D01*
X2173336D01*
X2180000Y2249994D01*
Y2236664D01*
X2173336Y2230000D01*
X2146677Y2296645D02*
X2140013Y2289981D01*
Y2276652D01*
X2146677Y2269987D01*
X2173336D01*
X2180000Y2276652D01*
Y2289981D01*
X2173336Y2296645D01*
X2140013Y2309974D02*
X2180000D01*
Y2336632D01*
X2540000Y2279987D02*
X2579987Y2240000D01*
X2559994Y2259994D01*
X2579987Y2279987D01*
X2540000Y2240000D01*
X3736645Y833306D02*
X3719984Y849968D01*
X3686661D01*
X3670000Y833306D01*
Y816645D01*
X3686661Y799984D01*
X3719984D01*
X3736645Y783323D01*
Y766661D01*
X3719984Y750000D01*
X3686661D01*
X3670000Y766661D01*
X3836613Y849968D02*
X3769968D01*
Y750000D01*
X3836613D01*
X3769968Y799984D02*
X3803290D01*
X3869935Y750000D02*
Y849968D01*
X3903258Y816645D01*
X3936581Y849968D01*
Y750000D01*
X4136516D02*
X4069871D01*
X4136516Y816645D01*
Y833306D01*
X4119855Y849968D01*
X4086532D01*
X4069871Y833306D01*
X4169838D02*
X4186500Y849968D01*
X4219822D01*
X4236484Y833306D01*
Y766661D01*
X4219822Y750000D01*
X4186500D01*
X4169838Y766661D01*
Y833306D01*
X4336451Y750000D02*
X4269806D01*
X4336451Y816645D01*
Y833306D01*
X4319790Y849968D01*
X4286467D01*
X4269806Y833306D01*
X4369774D02*
X4386435Y849968D01*
X4419758D01*
X4436419Y833306D01*
Y766661D01*
X4419758Y750000D01*
X4386435D01*
X4369774Y766661D01*
Y833306D01*
X570000Y1939981D02*
X589994D01*
X579997D01*
Y1880000D01*
X570000D01*
X589994D01*
X659971D02*
X619984D01*
X659971Y1919987D01*
Y1929984D01*
X649974Y1939981D01*
X629981D01*
X619984Y1929984D01*
X719952D02*
X709955Y1939981D01*
X689961D01*
X679964Y1929984D01*
Y1889997D01*
X689961Y1880000D01*
X709955D01*
X719952Y1889997D01*
X1090000Y2489984D02*
X1099997Y2499981D01*
X1119990D01*
X1129987Y2489984D01*
Y2479987D01*
X1119990Y2469990D01*
X1109994D01*
X1119990D01*
X1129987Y2459994D01*
Y2449997D01*
X1119990Y2440000D01*
X1099997D01*
X1090000Y2449997D01*
X1149981Y2499981D02*
Y2459994D01*
X1169974Y2440000D01*
X1189968Y2459994D01*
Y2499981D01*
X1209961Y2489984D02*
X1219958Y2499981D01*
X1239951D01*
X1249948Y2489984D01*
Y2479987D01*
X1239951Y2469990D01*
X1229955D01*
X1239951D01*
X1249948Y2459994D01*
Y2449997D01*
X1239951Y2440000D01*
X1219958D01*
X1209961Y2449997D01*
X299987Y1269984D02*
X289990Y1279981D01*
X269997D01*
X260000Y1269984D01*
Y1229997D01*
X269997Y1220000D01*
X289990D01*
X299987Y1229997D01*
X319981Y1220000D02*
Y1259987D01*
X339974Y1279981D01*
X359968Y1259987D01*
Y1220000D01*
Y1249990D01*
X319981D01*
X379961Y1220000D02*
Y1279981D01*
X419948Y1220000D01*
Y1279981D01*
X439942Y1249990D02*
X479929D01*
X509919Y1269984D02*
Y1259987D01*
X499922D01*
X519916D01*
X509919D01*
Y1229997D01*
X519916Y1220000D01*
X579896D02*
X559903D01*
X549906Y1229997D01*
Y1249990D01*
X559903Y1259987D01*
X579896D01*
X589893Y1249990D01*
Y1239994D01*
X549906D01*
X609887Y1259987D02*
Y1220000D01*
Y1239994D01*
X619884Y1249990D01*
X629880Y1259987D01*
X639877D01*
X669867Y1220000D02*
Y1259987D01*
X679864D01*
X689861Y1249990D01*
Y1220000D01*
Y1249990D01*
X699858Y1259987D01*
X709855Y1249990D01*
Y1220000D01*
X729848D02*
Y1229997D01*
X739845D01*
Y1220000D01*
X729848D01*
X1129987Y2089984D02*
X1119990Y2099981D01*
X1099997D01*
X1090000Y2089984D01*
Y2049997D01*
X1099997Y2040000D01*
X1119990D01*
X1129987Y2049997D01*
Y2069990D01*
X1109994D01*
X1149981Y2040000D02*
Y2099981D01*
X1189968Y2040000D01*
Y2099981D01*
X1209961D02*
Y2040000D01*
X1239951D01*
X1249948Y2049997D01*
Y2089984D01*
X1239951Y2099981D01*
X1209961D01*
X1129987Y2399981D02*
X1090000D01*
Y2369990D01*
X1109994Y2379987D01*
X1119990D01*
X1129987Y2369990D01*
Y2349997D01*
X1119990Y2340000D01*
X1099997D01*
X1090000Y2349997D01*
X1149981Y2399981D02*
Y2359994D01*
X1169974Y2340000D01*
X1189968Y2359994D01*
Y2399981D01*
X1129987Y2189984D02*
X1119990Y2199981D01*
X1099997D01*
X1090000Y2189984D01*
Y2179987D01*
X1099997Y2169990D01*
X1119990D01*
X1129987Y2159994D01*
Y2149997D01*
X1119990Y2140000D01*
X1099997D01*
X1090000Y2149997D01*
X1149981Y2199981D02*
Y2140000D01*
X1179971D01*
X1189968Y2149997D01*
Y2189984D01*
X1179971Y2199981D01*
X1149981D01*
X1209961Y2140000D02*
Y2179987D01*
X1229955Y2199981D01*
X1249948Y2179987D01*
Y2140000D01*
Y2169990D01*
X1209961D01*
X1129987Y2289984D02*
X1119990Y2299981D01*
X1099997D01*
X1090000Y2289984D01*
Y2279987D01*
X1099997Y2269990D01*
X1119990D01*
X1129987Y2259994D01*
Y2249997D01*
X1119990Y2240000D01*
X1099997D01*
X1090000Y2249997D01*
X1189968Y2289984D02*
X1179971Y2299981D01*
X1159977D01*
X1149981Y2289984D01*
Y2249997D01*
X1159977Y2240000D01*
X1179971D01*
X1189968Y2249997D01*
X1209961Y2299981D02*
Y2240000D01*
X1249948D01*
X1865000Y2380001D02*
X1805019D01*
Y2409991D01*
X1815016Y2419988D01*
X1835010D01*
X1845006Y2409991D01*
Y2380001D01*
Y2399994D02*
X1865000Y2419988D01*
X1805019Y2479968D02*
X1815016Y2459975D01*
X1835010Y2439981D01*
X1855003D01*
X1865000Y2449978D01*
Y2469972D01*
X1855003Y2479968D01*
X1845006D01*
X1835010Y2469972D01*
Y2439981D01*
X4070000Y1530000D02*
Y1589981D01*
X4099990D01*
X4109987Y1579984D01*
Y1559990D01*
X4099990Y1549994D01*
X4070000D01*
X4089994D02*
X4109987Y1530000D01*
X4129981Y1579984D02*
X4139977Y1589981D01*
X4159971D01*
X4169968Y1579984D01*
Y1569987D01*
X4159971Y1559990D01*
X4149974D01*
X4159971D01*
X4169968Y1549994D01*
Y1539997D01*
X4159971Y1530000D01*
X4139977D01*
X4129981Y1539997D01*
X3900000Y1230000D02*
X3840019D01*
Y1259990D01*
X3850016Y1269987D01*
X3870010D01*
X3880006Y1259990D01*
Y1230000D01*
X3900000Y1289981D02*
Y1309974D01*
Y1299977D01*
X3840019D01*
X3850016Y1289981D01*
X3840019Y1379951D02*
Y1339964D01*
X3870010D01*
X3860013Y1359958D01*
Y1369955D01*
X3870010Y1379951D01*
X3890003D01*
X3900000Y1369955D01*
Y1349961D01*
X3890003Y1339964D01*
X1459987Y999984D02*
X1449990Y1009981D01*
X1429997D01*
X1420000Y999984D01*
Y959997D01*
X1429997Y950000D01*
X1449990D01*
X1459987Y959997D01*
X1479981Y950000D02*
X1499974D01*
X1489977D01*
Y1009981D01*
X1479981Y999984D01*
X1529964D02*
X1539961Y1009981D01*
X1559955D01*
X1569951Y999984D01*
Y959997D01*
X1559955Y950000D01*
X1539961D01*
X1529964Y959997D01*
Y999984D01*
X1363583Y2066398D02*
Y2016414D01*
X1373580Y2006417D01*
X1393573D01*
X1403570Y2016414D01*
Y2066398D01*
X1463550D02*
X1423563D01*
Y2036408D01*
X1443557Y2046404D01*
X1453554D01*
X1463550Y2036408D01*
Y2016414D01*
X1453554Y2006417D01*
X1433560D01*
X1423563Y2016414D01*
X961987Y1833984D02*
X951990Y1843981D01*
X931997D01*
X922000Y1833984D01*
Y1793997D01*
X931997Y1784000D01*
X951990D01*
X961987Y1793997D01*
X981981Y1784000D02*
X1001974D01*
X991977D01*
Y1843981D01*
X981981Y1833984D01*
X1031964Y1784000D02*
X1051958D01*
X1041961D01*
Y1843981D01*
X1031964Y1833984D01*
X740000Y2550000D02*
X680019D01*
Y2579990D01*
X690016Y2589987D01*
X710010D01*
X720006Y2579990D01*
Y2550000D01*
X740000Y2609981D02*
Y2629974D01*
Y2619977D01*
X680019D01*
X690016Y2609981D01*
X740000Y2659964D02*
Y2679958D01*
Y2669961D01*
X680019D01*
X690016Y2659964D01*
X460000Y2550000D02*
X400019D01*
Y2579990D01*
X410016Y2589987D01*
X430010D01*
X440007Y2579990D01*
Y2550000D01*
X460000Y2609981D02*
Y2629974D01*
Y2619977D01*
X400019D01*
X410016Y2609981D01*
Y2659964D02*
X400019Y2669961D01*
Y2689955D01*
X410016Y2699952D01*
X420013D01*
X430010Y2689955D01*
Y2679958D01*
Y2689955D01*
X440007Y2699952D01*
X450003D01*
X460000Y2689955D01*
Y2669961D01*
X450003Y2659964D01*
X330000Y2550000D02*
X270019D01*
Y2579990D01*
X280016Y2589987D01*
X300010D01*
X310007Y2579990D01*
Y2550000D01*
X330000Y2609981D02*
Y2629974D01*
Y2619977D01*
X270019D01*
X280016Y2609981D01*
X330000Y2689955D02*
X270019D01*
X300010Y2659964D01*
Y2699952D01*
X600000Y2550000D02*
X540019D01*
Y2579990D01*
X550016Y2589987D01*
X570010D01*
X580006Y2579990D01*
Y2550000D01*
X600000Y2609981D02*
Y2629974D01*
Y2619977D01*
X540019D01*
X550016Y2609981D01*
X600000Y2699952D02*
Y2659964D01*
X560013Y2699952D01*
X550016D01*
X540019Y2689955D01*
Y2669961D01*
X550016Y2659964D01*
X880000Y2550000D02*
X820019D01*
Y2579990D01*
X830016Y2589987D01*
X850010D01*
X860006Y2579990D01*
Y2550000D01*
X880000Y2609981D02*
Y2629974D01*
Y2619977D01*
X820019D01*
X830016Y2609981D01*
Y2659964D02*
X820019Y2669961D01*
Y2689955D01*
X830016Y2699952D01*
X870003D01*
X880000Y2689955D01*
Y2669961D01*
X870003Y2659964D01*
X830016D01*
X1020000Y2550000D02*
X960019D01*
Y2579990D01*
X970016Y2589987D01*
X990010D01*
X1000006Y2579990D01*
Y2550000D01*
X1010003Y2609981D02*
X1020000Y2619977D01*
Y2639971D01*
X1010003Y2649968D01*
X970016D01*
X960019Y2639971D01*
Y2619977D01*
X970016Y2609981D01*
X980013D01*
X990010Y2619977D01*
Y2649968D01*
X4100000Y3243465D02*
Y3303445D01*
X4129990D01*
X4139987Y3293448D01*
Y3273455D01*
X4129990Y3263458D01*
X4100000D01*
X4159981Y3293448D02*
X4169977Y3303445D01*
X4189971D01*
X4199968Y3293448D01*
Y3283452D01*
X4189971Y3273455D01*
X4199968Y3263458D01*
Y3253461D01*
X4189971Y3243465D01*
X4169977D01*
X4159981Y3253461D01*
Y3263458D01*
X4169977Y3273455D01*
X4159981Y3283452D01*
Y3293448D01*
X4169977Y3273455D02*
X4189971D01*
X1750000Y2380000D02*
X1690019D01*
Y2409990D01*
X1700016Y2419987D01*
X1720010D01*
X1730006Y2409990D01*
Y2380000D01*
Y2399994D02*
X1750000Y2419987D01*
X1690019Y2479968D02*
Y2439981D01*
X1720010D01*
X1710013Y2459974D01*
Y2469971D01*
X1720010Y2479968D01*
X1740003D01*
X1750000Y2469971D01*
Y2449977D01*
X1740003Y2439981D01*
X2140019Y2820000D02*
X2190003D01*
X2200000Y2829997D01*
Y2849990D01*
X2190003Y2859987D01*
X2140019D01*
X2200000Y2879981D02*
Y2899974D01*
Y2889977D01*
X2140019D01*
X2150016Y2879981D01*
X720000Y1419981D02*
Y1369997D01*
X729997Y1360000D01*
X749990D01*
X759987Y1369997D01*
Y1419981D01*
X819968D02*
X799974Y1409984D01*
X779981Y1389990D01*
Y1369997D01*
X789977Y1360000D01*
X809971D01*
X819968Y1369997D01*
Y1379994D01*
X809971Y1389990D01*
X779981D01*
X1358583Y2251417D02*
Y2311398D01*
X1388573D01*
X1398570Y2301401D01*
Y2281408D01*
X1388573Y2271411D01*
X1358583D01*
X1458550Y2311398D02*
X1418563D01*
Y2281408D01*
X1438557Y2291404D01*
X1448554D01*
X1458550Y2281408D01*
Y2261414D01*
X1448554Y2251417D01*
X1428560D01*
X1418563Y2261414D01*
X160001Y1109999D02*
Y1169980D01*
X189991D01*
X199988Y1159983D01*
Y1139990D01*
X189991Y1129993D01*
X160001D01*
X249972Y1109999D02*
Y1169980D01*
X219981Y1139990D01*
X259968D01*
X490000Y960000D02*
Y1019981D01*
X519990D01*
X529987Y1009984D01*
Y989990D01*
X519990Y979994D01*
X490000D01*
X509993D02*
X529987Y960000D01*
X579971D02*
Y1019981D01*
X549981Y989990D01*
X589968D01*
X273583Y891417D02*
Y951398D01*
X303573D01*
X313570Y941401D01*
Y921408D01*
X303573Y911411D01*
X273583D01*
X333563Y951398D02*
X373550D01*
Y941401D01*
X333563Y901414D01*
Y891417D01*
X890000Y880000D02*
Y939981D01*
X919990D01*
X929987Y929984D01*
Y909990D01*
X919990Y899994D01*
X890000D01*
X989968Y939981D02*
X969974Y929984D01*
X949981Y909990D01*
Y889997D01*
X959977Y880000D01*
X979971D01*
X989968Y889997D01*
Y899994D01*
X979971Y909990D01*
X949981D01*
X2313583Y1106398D02*
Y1056414D01*
X2323579Y1046417D01*
X2343573D01*
X2353570Y1056414D01*
Y1106398D01*
X2403554Y1046417D02*
Y1106398D01*
X2373563Y1076408D01*
X2413550D01*
X2519987Y109984D02*
X2509990Y119981D01*
X2489997D01*
X2480000Y109984D01*
Y69997D01*
X2489997Y60000D01*
X2509990D01*
X2519987Y69997D01*
X2539981D02*
X2549977Y60000D01*
X2569971D01*
X2579968Y69997D01*
Y109984D01*
X2569971Y119981D01*
X2549977D01*
X2539981Y109984D01*
Y99987D01*
X2549977Y89990D01*
X2579968D01*
X3418386Y3249882D02*
Y3309863D01*
X3448376D01*
X3458373Y3299866D01*
Y3279872D01*
X3448376Y3269875D01*
X3418386D01*
X3478366Y3299866D02*
X3488363Y3309863D01*
X3508357D01*
X3518354Y3299866D01*
Y3289869D01*
X3508357Y3279872D01*
X3498360D01*
X3508357D01*
X3518354Y3269875D01*
Y3259879D01*
X3508357Y3249882D01*
X3488363D01*
X3478366Y3259879D01*
X2490000Y3230000D02*
Y3289981D01*
X2519990D01*
X2529987Y3279984D01*
Y3259990D01*
X2519990Y3249994D01*
X2490000D01*
X2549981Y3230000D02*
X2569974D01*
X2559977D01*
Y3289981D01*
X2549981Y3279984D01*
X3910000Y2059981D02*
Y2009997D01*
X3919997Y2000000D01*
X3939990D01*
X3949987Y2009997D01*
Y2059981D01*
X3969981Y2049984D02*
X3979977Y2059981D01*
X3999971D01*
X4009968Y2049984D01*
Y2039987D01*
X3999971Y2029990D01*
X3989974D01*
X3999971D01*
X4009968Y2019994D01*
Y2009997D01*
X3999971Y2000000D01*
X3979977D01*
X3969981Y2009997D01*
X1110000Y3230000D02*
Y3289981D01*
X1139990D01*
X1149987Y3279984D01*
Y3259990D01*
X1139990Y3249994D01*
X1110000D01*
X1209968Y3230000D02*
X1169981D01*
X1209968Y3269987D01*
Y3279984D01*
X1199971Y3289981D01*
X1179977D01*
X1169981Y3279984D01*
X4210000Y1097981D02*
Y1047997D01*
X4219997Y1038000D01*
X4239990D01*
X4249987Y1047997D01*
Y1097981D01*
X4309968Y1038000D02*
X4269981D01*
X4309968Y1077987D01*
Y1087984D01*
X4299971Y1097981D01*
X4279977D01*
X4269981Y1087984D01*
X3850000Y1530000D02*
Y1589981D01*
X3879990D01*
X3889987Y1579984D01*
Y1559990D01*
X3879990Y1549994D01*
X3850000D01*
X3869994D02*
X3889987Y1530000D01*
X3949968D02*
X3909981D01*
X3949968Y1569987D01*
Y1579984D01*
X3939971Y1589981D01*
X3919977D01*
X3909981Y1579984D01*
X4390000Y1620000D02*
Y1679981D01*
X4419990D01*
X4429987Y1669984D01*
Y1649990D01*
X4419990Y1639994D01*
X4390000D01*
X4409993D02*
X4429987Y1620000D01*
X4449981D02*
X4469974D01*
X4459977D01*
Y1679981D01*
X4449981Y1669984D01*
X4500000Y2149981D02*
Y2090000D01*
X4539987D01*
X4559981D02*
X4579974D01*
X4569977D01*
Y2149981D01*
X4559981Y2139984D01*
X4329987Y2219984D02*
X4319990Y2229981D01*
X4299997D01*
X4290000Y2219984D01*
Y2179997D01*
X4299997Y2170000D01*
X4319990D01*
X4329987Y2179997D01*
X4349981Y2219984D02*
X4359977Y2229981D01*
X4379971D01*
X4389968Y2219984D01*
Y2209987D01*
X4379971Y2199990D01*
X4389968Y2189994D01*
Y2179997D01*
X4379971Y2170000D01*
X4359977D01*
X4349981Y2179997D01*
Y2189994D01*
X4359977Y2199990D01*
X4349981Y2209987D01*
Y2219984D01*
X4359977Y2199990D02*
X4379971D01*
X4419987Y1589984D02*
X4409990Y1599981D01*
X4389997D01*
X4380000Y1589984D01*
Y1549997D01*
X4389997Y1540000D01*
X4409990D01*
X4419987Y1549997D01*
X4439981Y1599981D02*
X4479968D01*
Y1589984D01*
X4439981Y1549997D01*
Y1540000D01*
X4419987Y1499984D02*
X4409990Y1509981D01*
X4389997D01*
X4380000Y1499984D01*
Y1459997D01*
X4389997Y1450000D01*
X4409990D01*
X4419987Y1459997D01*
X4479968Y1509981D02*
X4459974Y1499984D01*
X4439981Y1479990D01*
Y1459997D01*
X4449977Y1450000D01*
X4469971D01*
X4479968Y1459997D01*
Y1469994D01*
X4469971Y1479990D01*
X4439981D01*
X3889987Y1819984D02*
X3879990Y1829981D01*
X3859997D01*
X3850000Y1819984D01*
Y1779997D01*
X3859997Y1770000D01*
X3879990D01*
X3889987Y1779997D01*
X3949968Y1829981D02*
X3909981D01*
Y1799990D01*
X3929974Y1809987D01*
X3939971D01*
X3949968Y1799990D01*
Y1779997D01*
X3939971Y1770000D01*
X3919977D01*
X3909981Y1779997D01*
X3680016Y2379987D02*
X3670019Y2369990D01*
Y2349997D01*
X3680016Y2340000D01*
X3720003D01*
X3730000Y2349997D01*
Y2369990D01*
X3720003Y2379987D01*
X3730000Y2429971D02*
X3670019D01*
X3700010Y2399981D01*
Y2439968D01*
X4620016Y2389987D02*
X4610019Y2379990D01*
Y2359997D01*
X4620016Y2350000D01*
X4660003D01*
X4670000Y2359997D01*
Y2379990D01*
X4660003Y2389987D01*
X4620016Y2409981D02*
X4610019Y2419977D01*
Y2439971D01*
X4620016Y2449968D01*
X4630013D01*
X4640010Y2439971D01*
Y2429974D01*
Y2439971D01*
X4650007Y2449968D01*
X4660003D01*
X4670000Y2439971D01*
Y2419977D01*
X4660003Y2409981D01*
X2070016Y2429987D02*
X2060019Y2419990D01*
Y2399997D01*
X2070016Y2390000D01*
X2110003D01*
X2120000Y2399997D01*
Y2419990D01*
X2110003Y2429987D01*
X2120000Y2489968D02*
Y2449981D01*
X2080013Y2489968D01*
X2070016D01*
X2060019Y2479971D01*
Y2459977D01*
X2070016Y2449981D01*
X1970016Y2429987D02*
X1960019Y2419990D01*
Y2399997D01*
X1970016Y2390000D01*
X2010003D01*
X2020000Y2399997D01*
Y2419990D01*
X2010003Y2429987D01*
X2020000Y2449981D02*
Y2469974D01*
Y2459977D01*
X1960019D01*
X1970016Y2449981D01*
D42*
X4149764Y1381890D02*
G03*
X4149764Y1381890I-4921J0D01*
G01*
X1284370Y1480945D02*
G03*
X1284370Y1480945I-4921J0D01*
G01*
X2123386Y2971220D02*
G03*
X2123386Y2971220I-4921J0D01*
G01*
D43*
X1249134Y1384488D02*
G03*
X1249134Y1384488I-11811J0D01*
G01*
X2078898Y2881654D02*
G03*
X2078898Y2881654I-11811J0D01*
G01*
D44*
X4202913Y1118110D02*
Y1381890D01*
X4317087Y1118110D02*
Y1381890D01*
X4202913D02*
X4317087D01*
X4202913Y1118110D02*
X4317087D01*
X863307Y1156142D02*
Y1423858D01*
X1276693Y1156142D02*
Y1423858D01*
X863307Y1156142D02*
X1276693D01*
X863307Y1423858D02*
X1276693D01*
X1408583Y1221417D02*
Y1921417D01*
X3808583D01*
Y1221417D02*
Y1921417D01*
X1408583Y1221417D02*
X3808583D01*
X1408583Y1521417D02*
X1458583D01*
Y1621417D01*
X1408583D02*
X1458583D01*
X1913543Y2921024D02*
X2106457D01*
X1913543Y2798976D02*
X2106457D01*
Y2921024D01*
X1913543Y2798976D02*
Y2921024D01*
%TF.MD5,8c539cec9988e3badc236f4d03af31fe*%
M02*
