G04*
G04 #@! TF.GenerationSoftware,Altium Limited,Altium Designer,19.1.8 (144)*
G04*
G04 Layer_Color=65535*
%FSLAX25Y25*%
%MOIN*%
G70*
G01*
G75*
%ADD10C,0.01000*%
%ADD11C,0.00984*%
%ADD12C,0.02362*%
%ADD13C,0.00787*%
G36*
X405908Y69399D02*
X407662D01*
Y69106D01*
X409415D01*
Y68814D01*
X411169D01*
Y68522D01*
X412923D01*
Y68230D01*
X414676D01*
Y67937D01*
X412923D01*
Y67645D01*
X411169D01*
Y67353D01*
X409415D01*
Y67060D01*
X407662D01*
Y66768D01*
X405908D01*
Y66476D01*
X405324D01*
Y66768D01*
X403570D01*
Y67060D01*
X401816D01*
Y67353D01*
X400063D01*
Y67645D01*
X398309D01*
Y67937D01*
X396555D01*
Y68230D01*
X398309D01*
Y68522D01*
X400063D01*
Y68814D01*
X401816D01*
Y69106D01*
X403570D01*
Y69399D01*
X405324D01*
Y69691D01*
X405908D01*
Y69399D01*
D02*
G37*
G36*
X421983Y62676D02*
X421691D01*
Y62384D01*
X421399D01*
Y62092D01*
X421106D01*
Y61800D01*
X420814D01*
Y61507D01*
X420522D01*
Y61215D01*
Y60923D01*
X420229D01*
Y60630D01*
X419937D01*
Y60338D01*
X419645D01*
Y60046D01*
X419353D01*
Y59754D01*
X419060D01*
Y59461D01*
Y59169D01*
X418768D01*
Y58877D01*
X418476D01*
Y58584D01*
X418184D01*
Y58292D01*
X417891D01*
Y58000D01*
X417599D01*
Y57708D01*
Y57415D01*
X417307D01*
Y57123D01*
X417015D01*
Y56831D01*
X416722D01*
Y56539D01*
X416430D01*
Y56246D01*
X416138D01*
Y55954D01*
Y55662D01*
X415845D01*
Y55370D01*
X415553D01*
Y55077D01*
X415261D01*
Y54785D01*
Y54493D01*
Y54201D01*
X414969D01*
Y53908D01*
Y53616D01*
X414676D01*
Y53324D01*
Y53031D01*
Y52739D01*
X414384D01*
Y52447D01*
Y52155D01*
X414092D01*
Y51862D01*
Y51570D01*
Y51278D01*
X413799D01*
Y50985D01*
Y50693D01*
X413507D01*
Y50401D01*
Y50109D01*
Y49816D01*
X413215D01*
Y49524D01*
Y49232D01*
X412923D01*
Y48940D01*
Y48647D01*
Y48355D01*
X412630D01*
Y48063D01*
Y47771D01*
X412338D01*
Y47478D01*
Y47186D01*
Y46894D01*
X412046D01*
Y46601D01*
Y46309D01*
X411754D01*
Y46017D01*
Y45725D01*
Y45432D01*
X411461D01*
Y45140D01*
Y44848D01*
X411169D01*
Y44556D01*
Y44263D01*
Y43971D01*
X410877D01*
Y43679D01*
Y43386D01*
X410584D01*
Y43094D01*
Y42802D01*
Y42510D01*
X410292D01*
Y42802D01*
Y43094D01*
Y43386D01*
Y43679D01*
Y43971D01*
Y44263D01*
X410584D01*
Y44556D01*
Y44848D01*
Y45140D01*
Y45432D01*
Y45725D01*
Y46017D01*
X410877D01*
Y46309D01*
Y46601D01*
Y46894D01*
Y47186D01*
Y47478D01*
Y47771D01*
X411169D01*
Y48063D01*
Y48355D01*
Y48647D01*
Y48940D01*
Y49232D01*
X411461D01*
Y49524D01*
Y49816D01*
Y50109D01*
Y50401D01*
Y50693D01*
Y50985D01*
X411754D01*
Y51278D01*
Y51570D01*
Y51862D01*
Y52155D01*
Y52447D01*
Y52739D01*
X412046D01*
Y53031D01*
Y53324D01*
Y53616D01*
Y53908D01*
Y54201D01*
Y54493D01*
X412338D01*
Y54785D01*
Y55077D01*
Y55370D01*
Y55662D01*
Y55954D01*
Y56246D01*
X412630D01*
Y56539D01*
Y56831D01*
Y57123D01*
Y57415D01*
X413215D01*
Y57708D01*
X413507D01*
Y58000D01*
X414092D01*
Y58292D01*
X414384D01*
Y58584D01*
X414969D01*
Y58877D01*
X415261D01*
Y59169D01*
X415845D01*
Y59461D01*
X416430D01*
Y59754D01*
X416722D01*
Y60046D01*
X417307D01*
Y60338D01*
X417599D01*
Y60630D01*
X418184D01*
Y60923D01*
X418476D01*
Y61215D01*
X419060D01*
Y61507D01*
X419645D01*
Y61800D01*
X419937D01*
Y62092D01*
X420522D01*
Y62384D01*
X420814D01*
Y62676D01*
X421399D01*
Y62969D01*
X421983D01*
Y62676D01*
D02*
G37*
G36*
X389833D02*
X390418D01*
Y62384D01*
X390710D01*
Y62092D01*
X391295D01*
Y61800D01*
X391587D01*
Y61507D01*
X392171D01*
Y61215D01*
X392464D01*
Y60923D01*
X393048D01*
Y60630D01*
X393633D01*
Y60338D01*
X393925D01*
Y60046D01*
X394510D01*
Y59754D01*
X394802D01*
Y59461D01*
X395386D01*
Y59169D01*
X395679D01*
Y58877D01*
X396263D01*
Y58584D01*
X396848D01*
Y58292D01*
X397140D01*
Y58000D01*
X397725D01*
Y57708D01*
X398017D01*
Y57415D01*
X398601D01*
Y57123D01*
Y56831D01*
Y56539D01*
Y56246D01*
X398894D01*
Y55954D01*
Y55662D01*
Y55370D01*
Y55077D01*
Y54785D01*
Y54493D01*
X399186D01*
Y54201D01*
Y53908D01*
Y53616D01*
Y53324D01*
Y53031D01*
Y52739D01*
X399478D01*
Y52447D01*
Y52155D01*
Y51862D01*
Y51570D01*
Y51278D01*
Y50985D01*
X399770D01*
Y50693D01*
Y50401D01*
Y50109D01*
Y49816D01*
Y49524D01*
Y49232D01*
X400063D01*
Y48940D01*
Y48647D01*
Y48355D01*
Y48063D01*
Y47771D01*
Y47478D01*
X400355D01*
Y47186D01*
Y46894D01*
Y46601D01*
Y46309D01*
Y46017D01*
Y45725D01*
X400647D01*
Y45432D01*
Y45140D01*
Y44848D01*
Y44556D01*
Y44263D01*
Y43971D01*
X400940D01*
Y43679D01*
Y43386D01*
Y43094D01*
Y42802D01*
Y42510D01*
X400647D01*
Y42802D01*
Y43094D01*
X400355D01*
Y43386D01*
Y43679D01*
Y43971D01*
X400063D01*
Y44263D01*
Y44556D01*
X399770D01*
Y44848D01*
Y45140D01*
Y45432D01*
X399478D01*
Y45725D01*
Y46017D01*
X399186D01*
Y46309D01*
Y46601D01*
Y46894D01*
X398894D01*
Y47186D01*
Y47478D01*
X398601D01*
Y47771D01*
Y48063D01*
Y48355D01*
X398309D01*
Y48647D01*
Y48940D01*
X398017D01*
Y49232D01*
Y49524D01*
Y49816D01*
X397725D01*
Y50109D01*
Y50401D01*
X397432D01*
Y50693D01*
Y50985D01*
Y51278D01*
X397140D01*
Y51570D01*
Y51862D01*
X396848D01*
Y52155D01*
Y52447D01*
Y52739D01*
X396555D01*
Y53031D01*
Y53324D01*
X396263D01*
Y53616D01*
Y53908D01*
Y54201D01*
X395971D01*
Y54493D01*
Y54785D01*
X395679D01*
Y55077D01*
Y55370D01*
X395386D01*
Y55662D01*
X395094D01*
Y55954D01*
Y56246D01*
X394802D01*
Y56539D01*
X394510D01*
Y56831D01*
X394217D01*
Y57123D01*
X393925D01*
Y57415D01*
X393633D01*
Y57708D01*
Y58000D01*
X393340D01*
Y58292D01*
X393048D01*
Y58584D01*
X392756D01*
Y58877D01*
X392464D01*
Y59169D01*
X392171D01*
Y59461D01*
Y59754D01*
X391879D01*
Y60046D01*
X391587D01*
Y60338D01*
X391295D01*
Y60630D01*
X391002D01*
Y60923D01*
X390710D01*
Y61215D01*
Y61507D01*
X390418D01*
Y61800D01*
X390125D01*
Y62092D01*
X389833D01*
Y62384D01*
X389541D01*
Y62676D01*
X389249D01*
Y62969D01*
X389833D01*
Y62676D01*
D02*
G37*
G36*
X421106Y66184D02*
X420522D01*
Y65891D01*
X420229D01*
Y65599D01*
X419645D01*
Y65307D01*
X419353D01*
Y65014D01*
X418768D01*
Y64722D01*
X418476D01*
Y64430D01*
X417891D01*
Y64138D01*
X417599D01*
Y63845D01*
X417015D01*
Y63553D01*
X416722D01*
Y63261D01*
X416138D01*
Y62969D01*
X415553D01*
Y62676D01*
X415261D01*
Y62384D01*
X414676D01*
Y62092D01*
X414384D01*
Y61800D01*
X413799D01*
Y61507D01*
X413507D01*
Y61215D01*
X412923D01*
Y60923D01*
X412630D01*
Y60630D01*
X412046D01*
Y60338D01*
X411754D01*
Y60046D01*
X411169D01*
Y59754D01*
X410877D01*
Y59461D01*
X410292D01*
Y59169D01*
Y58877D01*
Y58584D01*
X410000D01*
Y58292D01*
Y58000D01*
Y57708D01*
Y57415D01*
Y57123D01*
Y56831D01*
X409708D01*
Y56539D01*
Y56246D01*
Y55954D01*
Y55662D01*
Y55370D01*
Y55077D01*
Y54785D01*
X409415D01*
Y54493D01*
Y54201D01*
Y53908D01*
Y53616D01*
Y53324D01*
Y53031D01*
X409123D01*
Y52739D01*
Y52447D01*
Y52155D01*
Y51862D01*
Y51570D01*
Y51278D01*
X408831D01*
Y50985D01*
Y50693D01*
Y50401D01*
Y50109D01*
Y49816D01*
Y49524D01*
Y49232D01*
X408539D01*
Y48940D01*
Y48647D01*
Y48355D01*
Y48063D01*
Y47771D01*
Y47478D01*
X408246D01*
Y47186D01*
Y46894D01*
Y46601D01*
Y46309D01*
Y46017D01*
Y45725D01*
Y45432D01*
X407954D01*
Y45140D01*
Y44848D01*
Y44556D01*
Y44263D01*
Y43971D01*
Y43679D01*
X407662D01*
Y43386D01*
Y43094D01*
Y42802D01*
Y42510D01*
Y42217D01*
Y41925D01*
X407370D01*
Y41633D01*
Y41341D01*
Y41048D01*
Y40756D01*
Y40464D01*
Y40171D01*
Y39879D01*
X407077D01*
Y39587D01*
Y39295D01*
Y39002D01*
Y38710D01*
Y38418D01*
Y38126D01*
X406785D01*
Y38418D01*
Y38710D01*
Y39002D01*
Y39295D01*
Y39587D01*
Y39879D01*
Y40171D01*
Y40464D01*
Y40756D01*
Y41048D01*
Y41341D01*
Y41633D01*
Y41925D01*
Y42217D01*
Y42510D01*
Y42802D01*
Y43094D01*
Y43386D01*
Y43679D01*
Y43971D01*
Y44263D01*
Y44556D01*
Y44848D01*
Y45140D01*
Y45432D01*
Y45725D01*
Y46017D01*
Y46309D01*
Y46601D01*
Y46894D01*
Y47186D01*
Y47478D01*
Y47771D01*
Y48063D01*
Y48355D01*
Y48647D01*
Y48940D01*
Y49232D01*
Y49524D01*
Y49816D01*
Y50109D01*
Y50401D01*
Y50693D01*
Y50985D01*
Y51278D01*
Y51570D01*
Y51862D01*
Y52155D01*
Y52447D01*
Y52739D01*
Y53031D01*
Y53324D01*
Y53616D01*
Y53908D01*
Y54201D01*
Y54493D01*
Y54785D01*
Y55077D01*
Y55370D01*
Y55662D01*
Y55954D01*
Y56246D01*
Y56539D01*
Y56831D01*
Y57123D01*
Y57415D01*
Y57708D01*
Y58000D01*
Y58292D01*
Y58584D01*
Y58877D01*
Y59169D01*
Y59461D01*
Y59754D01*
Y60046D01*
Y60338D01*
Y60630D01*
Y60923D01*
Y61215D01*
Y61507D01*
Y61800D01*
Y62092D01*
Y62384D01*
Y62676D01*
Y62969D01*
Y63261D01*
Y63553D01*
Y63845D01*
Y64138D01*
X407077D01*
Y64430D01*
X408831D01*
Y64722D01*
X410584D01*
Y65014D01*
X412338D01*
Y65307D01*
X414092D01*
Y65599D01*
X415845D01*
Y65891D01*
X417891D01*
Y66184D01*
X419645D01*
Y66476D01*
X421106D01*
Y66184D01*
D02*
G37*
G36*
X391587D02*
X393340D01*
Y65891D01*
X395094D01*
Y65599D01*
X397140D01*
Y65307D01*
X398894D01*
Y65014D01*
X400647D01*
Y64722D01*
X402401D01*
Y64430D01*
X404155D01*
Y64138D01*
X404447D01*
Y63845D01*
Y63553D01*
Y63261D01*
Y62969D01*
Y62676D01*
Y62384D01*
Y62092D01*
Y61800D01*
Y61507D01*
Y61215D01*
Y60923D01*
Y60630D01*
Y60338D01*
Y60046D01*
Y59754D01*
Y59461D01*
Y59169D01*
Y58877D01*
Y58584D01*
Y58292D01*
Y58000D01*
Y57708D01*
Y57415D01*
Y57123D01*
Y56831D01*
Y56539D01*
Y56246D01*
Y55954D01*
Y55662D01*
Y55370D01*
Y55077D01*
Y54785D01*
Y54493D01*
Y54201D01*
Y53908D01*
Y53616D01*
Y53324D01*
Y53031D01*
Y52739D01*
Y52447D01*
Y52155D01*
Y51862D01*
Y51570D01*
Y51278D01*
Y50985D01*
Y50693D01*
Y50401D01*
Y50109D01*
Y49816D01*
Y49524D01*
Y49232D01*
Y48940D01*
Y48647D01*
Y48355D01*
Y48063D01*
Y47771D01*
Y47478D01*
Y47186D01*
Y46894D01*
Y46601D01*
Y46309D01*
Y46017D01*
Y45725D01*
Y45432D01*
Y45140D01*
Y44848D01*
Y44556D01*
Y44263D01*
Y43971D01*
Y43679D01*
Y43386D01*
Y43094D01*
Y42802D01*
Y42510D01*
Y42217D01*
Y41925D01*
Y41633D01*
Y41341D01*
Y41048D01*
Y40756D01*
Y40464D01*
Y40171D01*
Y39879D01*
Y39587D01*
Y39295D01*
Y39002D01*
Y38710D01*
Y38418D01*
Y38126D01*
Y37833D01*
X404155D01*
Y38126D01*
Y38418D01*
Y38710D01*
Y39002D01*
Y39295D01*
Y39587D01*
Y39879D01*
X403862D01*
Y40171D01*
Y40464D01*
Y40756D01*
Y41048D01*
Y41341D01*
Y41633D01*
X403570D01*
Y41925D01*
Y42217D01*
Y42510D01*
Y42802D01*
Y43094D01*
Y43386D01*
Y43679D01*
X403278D01*
Y43971D01*
Y44263D01*
Y44556D01*
Y44848D01*
Y45140D01*
Y45432D01*
X402985D01*
Y45725D01*
Y46017D01*
Y46309D01*
Y46601D01*
Y46894D01*
Y47186D01*
X402693D01*
Y47478D01*
Y47771D01*
Y48063D01*
Y48355D01*
Y48647D01*
Y48940D01*
Y49232D01*
X402401D01*
Y49524D01*
Y49816D01*
Y50109D01*
Y50401D01*
Y50693D01*
Y50985D01*
X402109D01*
Y51278D01*
Y51570D01*
Y51862D01*
Y52155D01*
Y52447D01*
Y52739D01*
Y53031D01*
X401816D01*
Y53324D01*
Y53616D01*
Y53908D01*
Y54201D01*
Y54493D01*
Y54785D01*
X401524D01*
Y55077D01*
Y55370D01*
Y55662D01*
Y55954D01*
Y56246D01*
Y56539D01*
X401232D01*
Y56831D01*
Y57123D01*
Y57415D01*
Y57708D01*
Y58000D01*
Y58292D01*
Y58584D01*
X400940D01*
Y58877D01*
Y59169D01*
Y59461D01*
X400355D01*
Y59754D01*
X400063D01*
Y60046D01*
X399478D01*
Y60338D01*
X399186D01*
Y60630D01*
X398601D01*
Y60923D01*
X398309D01*
Y61215D01*
X397725D01*
Y61507D01*
X397432D01*
Y61800D01*
X396848D01*
Y62092D01*
X396263D01*
Y62384D01*
X395971D01*
Y62676D01*
X395386D01*
Y62969D01*
X395094D01*
Y63261D01*
X394510D01*
Y63553D01*
X394217D01*
Y63845D01*
X393633D01*
Y64138D01*
X393340D01*
Y64430D01*
X392756D01*
Y64722D01*
X392464D01*
Y65014D01*
X391879D01*
Y65307D01*
X391587D01*
Y65599D01*
X391002D01*
Y65891D01*
X390710D01*
Y66184D01*
X390125D01*
Y66476D01*
X391587D01*
Y66184D01*
D02*
G37*
G36*
X413903Y36173D02*
X413977D01*
X414153Y36154D01*
X414347Y36126D01*
X414551Y36080D01*
X414773Y36025D01*
X414986Y35951D01*
X414995D01*
X415013Y35941D01*
X415041Y35932D01*
X415078Y35914D01*
X415180Y35858D01*
X415309Y35794D01*
X415448Y35701D01*
X415596Y35590D01*
X415735Y35470D01*
X415864Y35322D01*
X415883Y35303D01*
X415920Y35248D01*
X415975Y35164D01*
X416049Y35044D01*
X416123Y34896D01*
X416207Y34711D01*
X416290Y34508D01*
X416355Y34276D01*
X415587Y34073D01*
Y34082D01*
X415578Y34091D01*
X415568Y34119D01*
X415559Y34156D01*
X415531Y34239D01*
X415494Y34350D01*
X415439Y34480D01*
X415374Y34600D01*
X415309Y34730D01*
X415226Y34841D01*
X415217Y34850D01*
X415189Y34887D01*
X415134Y34933D01*
X415069Y34998D01*
X414986Y35072D01*
X414875Y35146D01*
X414754Y35220D01*
X414616Y35285D01*
X414597Y35294D01*
X414551Y35313D01*
X414468Y35340D01*
X414357Y35377D01*
X414227Y35405D01*
X414079Y35433D01*
X413913Y35451D01*
X413737Y35460D01*
X413635D01*
X413589Y35451D01*
X413533D01*
X413395Y35442D01*
X413237Y35414D01*
X413062Y35386D01*
X412895Y35340D01*
X412729Y35276D01*
X412710Y35266D01*
X412655Y35248D01*
X412581Y35201D01*
X412488Y35155D01*
X412377Y35081D01*
X412257Y35007D01*
X412146Y34915D01*
X412044Y34813D01*
X412035Y34804D01*
X411998Y34767D01*
X411952Y34702D01*
X411896Y34628D01*
X411831Y34535D01*
X411767Y34424D01*
X411702Y34304D01*
X411637Y34175D01*
Y34165D01*
X411628Y34147D01*
X411619Y34119D01*
X411600Y34073D01*
X411582Y34018D01*
X411563Y33953D01*
X411535Y33879D01*
X411517Y33795D01*
X411471Y33601D01*
X411434Y33379D01*
X411406Y33148D01*
X411397Y32889D01*
Y32880D01*
Y32852D01*
Y32806D01*
X411406Y32750D01*
Y32676D01*
X411415Y32584D01*
X411424Y32491D01*
X411434Y32389D01*
X411471Y32158D01*
X411517Y31918D01*
X411591Y31677D01*
X411683Y31446D01*
Y31437D01*
X411702Y31418D01*
X411711Y31390D01*
X411739Y31353D01*
X411804Y31252D01*
X411905Y31122D01*
X412026Y30983D01*
X412174Y30845D01*
X412349Y30715D01*
X412544Y30595D01*
X412553D01*
X412571Y30586D01*
X412599Y30567D01*
X412645Y30549D01*
X412692Y30530D01*
X412756Y30512D01*
X412904Y30456D01*
X413089Y30410D01*
X413293Y30364D01*
X413515Y30327D01*
X413746Y30318D01*
X413839D01*
X413894Y30327D01*
X413950D01*
X414088Y30345D01*
X414255Y30364D01*
X414431Y30401D01*
X414625Y30456D01*
X414819Y30521D01*
X414828D01*
X414847Y30530D01*
X414865Y30539D01*
X414902Y30558D01*
X415004Y30604D01*
X415115Y30660D01*
X415245Y30724D01*
X415383Y30799D01*
X415513Y30882D01*
X415624Y30974D01*
Y32177D01*
X413737D01*
Y32935D01*
X416456D01*
Y30558D01*
X416447Y30549D01*
X416429Y30539D01*
X416392Y30512D01*
X416345Y30475D01*
X416290Y30438D01*
X416225Y30391D01*
X416142Y30336D01*
X416059Y30281D01*
X415864Y30160D01*
X415642Y30031D01*
X415411Y29910D01*
X415161Y29809D01*
X415152D01*
X415134Y29800D01*
X415097Y29790D01*
X415050Y29772D01*
X414986Y29753D01*
X414912Y29726D01*
X414828Y29707D01*
X414745Y29689D01*
X414542Y29642D01*
X414310Y29596D01*
X414061Y29568D01*
X413802Y29559D01*
X413709D01*
X413644Y29568D01*
X413561D01*
X413459Y29577D01*
X413348Y29596D01*
X413228Y29605D01*
X412960Y29661D01*
X412673Y29726D01*
X412377Y29827D01*
X412229Y29883D01*
X412081Y29957D01*
X412072Y29966D01*
X412044Y29975D01*
X412007Y30003D01*
X411952Y30031D01*
X411887Y30077D01*
X411822Y30123D01*
X411646Y30253D01*
X411461Y30419D01*
X411267Y30623D01*
X411082Y30854D01*
X410916Y31122D01*
Y31132D01*
X410897Y31159D01*
X410879Y31196D01*
X410851Y31261D01*
X410823Y31326D01*
X410795Y31418D01*
X410758Y31511D01*
X410721Y31622D01*
X410684Y31742D01*
X410647Y31881D01*
X410620Y32019D01*
X410592Y32168D01*
X410546Y32491D01*
X410527Y32833D01*
Y32843D01*
Y32880D01*
Y32926D01*
X410536Y32991D01*
Y33074D01*
X410546Y33176D01*
X410564Y33277D01*
X410573Y33398D01*
X410601Y33527D01*
X410620Y33666D01*
X410694Y33962D01*
X410786Y34267D01*
X410916Y34572D01*
X410925Y34582D01*
X410934Y34609D01*
X410953Y34646D01*
X410990Y34702D01*
X411027Y34776D01*
X411073Y34850D01*
X411202Y35026D01*
X411360Y35229D01*
X411554Y35423D01*
X411776Y35618D01*
X411905Y35701D01*
X412035Y35784D01*
X412044Y35794D01*
X412072Y35803D01*
X412109Y35821D01*
X412164Y35849D01*
X412238Y35877D01*
X412322Y35914D01*
X412414Y35951D01*
X412525Y35988D01*
X412645Y36025D01*
X412775Y36052D01*
X412914Y36089D01*
X413062Y36117D01*
X413385Y36163D01*
X413552Y36182D01*
X413848D01*
X413903Y36173D01*
D02*
G37*
G36*
X400870Y29670D02*
X399991D01*
X396643Y34693D01*
Y29670D01*
X395829D01*
Y36071D01*
X396698D01*
X400056Y31039D01*
Y36071D01*
X400870D01*
Y29670D01*
D02*
G37*
G36*
X404996D02*
X404108D01*
X401629Y36071D01*
X402554D01*
X404219Y31418D01*
Y31409D01*
X404228Y31390D01*
X404237Y31363D01*
X404256Y31326D01*
X404265Y31270D01*
X404283Y31215D01*
X404330Y31076D01*
X404385Y30919D01*
X404441Y30743D01*
X404552Y30373D01*
Y30382D01*
X404561Y30401D01*
X404570Y30428D01*
X404579Y30465D01*
X404607Y30567D01*
X404653Y30706D01*
X404700Y30863D01*
X404755Y31039D01*
X404820Y31224D01*
X404894Y31418D01*
X406633Y36071D01*
X407493D01*
X404996Y29670D01*
D02*
G37*
G36*
X418519Y30428D02*
X421673D01*
Y29670D01*
X417668D01*
Y36071D01*
X418519D01*
Y30428D01*
D02*
G37*
G36*
X392009Y36062D02*
X392194Y36052D01*
X392379Y36034D01*
X392564Y36006D01*
X392721Y35978D01*
X392730D01*
X392749Y35969D01*
X392776D01*
X392813Y35951D01*
X392915Y35923D01*
X393045Y35877D01*
X393193Y35812D01*
X393350Y35729D01*
X393507Y35636D01*
X393655Y35516D01*
X393664Y35507D01*
X393674Y35497D01*
X393701Y35470D01*
X393738Y35442D01*
X393831Y35350D01*
X393942Y35220D01*
X394062Y35063D01*
X394192Y34878D01*
X394312Y34665D01*
X394414Y34424D01*
Y34415D01*
X394423Y34397D01*
X394441Y34360D01*
X394451Y34304D01*
X394478Y34239D01*
X394497Y34165D01*
X394515Y34082D01*
X394543Y33981D01*
X394571Y33879D01*
X394589Y33758D01*
X394636Y33500D01*
X394663Y33213D01*
X394673Y32898D01*
Y32889D01*
Y32870D01*
Y32824D01*
Y32778D01*
X394663Y32713D01*
Y32639D01*
X394654Y32463D01*
X394626Y32260D01*
X394599Y32047D01*
X394552Y31825D01*
X394497Y31603D01*
Y31594D01*
X394488Y31576D01*
X394478Y31548D01*
X394469Y31511D01*
X394432Y31409D01*
X394377Y31280D01*
X394321Y31132D01*
X394247Y30983D01*
X394155Y30826D01*
X394062Y30678D01*
X394053Y30660D01*
X394016Y30613D01*
X393960Y30549D01*
X393886Y30465D01*
X393803Y30373D01*
X393701Y30281D01*
X393600Y30179D01*
X393479Y30095D01*
X393461Y30086D01*
X393424Y30058D01*
X393359Y30021D01*
X393267Y29975D01*
X393156Y29920D01*
X393026Y29873D01*
X392878Y29818D01*
X392712Y29772D01*
X392693D01*
X392665Y29763D01*
X392638Y29753D01*
X392545Y29744D01*
X392416Y29726D01*
X392268Y29707D01*
X392092Y29689D01*
X391898Y29679D01*
X391685Y29670D01*
X389382D01*
Y36071D01*
X391842D01*
X392009Y36062D01*
D02*
G37*
G36*
X406725Y27382D02*
X405939D01*
Y28279D01*
X406725D01*
Y27382D01*
D02*
G37*
G36*
X427196Y26614D02*
X427297Y26595D01*
X427418Y26558D01*
X427547Y26512D01*
X427695Y26447D01*
X427852Y26364D01*
X427566Y25642D01*
X427556Y25652D01*
X427519Y25670D01*
X427464Y25698D01*
X427390Y25726D01*
X427307Y25754D01*
X427205Y25781D01*
X427103Y25800D01*
X427001Y25809D01*
X426955D01*
X426909Y25800D01*
X426844Y25791D01*
X426779Y25772D01*
X426696Y25744D01*
X426613Y25707D01*
X426539Y25652D01*
X426530Y25642D01*
X426502Y25624D01*
X426474Y25587D01*
X426428Y25541D01*
X426382Y25476D01*
X426335Y25402D01*
X426289Y25319D01*
X426252Y25217D01*
X426243Y25199D01*
X426234Y25143D01*
X426215Y25060D01*
X426187Y24949D01*
X426160Y24810D01*
X426141Y24653D01*
X426132Y24486D01*
X426123Y24301D01*
Y21878D01*
X425336D01*
Y26521D01*
X426049D01*
Y25818D01*
X426058Y25828D01*
X426095Y25892D01*
X426141Y25975D01*
X426215Y26077D01*
X426289Y26179D01*
X426372Y26290D01*
X426456Y26382D01*
X426539Y26456D01*
X426548Y26466D01*
X426576Y26484D01*
X426631Y26512D01*
X426687Y26540D01*
X426761Y26568D01*
X426853Y26595D01*
X426946Y26614D01*
X427048Y26623D01*
X427112D01*
X427196Y26614D01*
D02*
G37*
G36*
X392277Y21878D02*
X391574D01*
Y22553D01*
X391565Y22544D01*
X391546Y22516D01*
X391518Y22479D01*
X391472Y22433D01*
X391417Y22377D01*
X391352Y22303D01*
X391278Y22239D01*
X391185Y22164D01*
X391084Y22091D01*
X390973Y22026D01*
X390852Y21961D01*
X390723Y21896D01*
X390575Y21850D01*
X390427Y21813D01*
X390260Y21785D01*
X390094Y21776D01*
X390029D01*
X389946Y21785D01*
X389844Y21794D01*
X389724Y21813D01*
X389594Y21841D01*
X389465Y21878D01*
X389326Y21933D01*
X389308Y21942D01*
X389271Y21961D01*
X389206Y21998D01*
X389132Y22044D01*
X389039Y22100D01*
X388956Y22164D01*
X388873Y22239D01*
X388799Y22322D01*
X388790Y22331D01*
X388771Y22368D01*
X388743Y22414D01*
X388706Y22488D01*
X388660Y22571D01*
X388623Y22673D01*
X388586Y22784D01*
X388558Y22905D01*
Y22914D01*
X388549Y22951D01*
X388540Y23006D01*
Y23080D01*
X388531Y23191D01*
X388521Y23312D01*
X388512Y23469D01*
Y23644D01*
Y26521D01*
X389298D01*
Y23941D01*
Y23931D01*
Y23913D01*
Y23885D01*
Y23839D01*
Y23737D01*
X389308Y23607D01*
Y23469D01*
X389317Y23330D01*
X389326Y23210D01*
X389345Y23108D01*
Y23099D01*
X389363Y23062D01*
X389382Y23006D01*
X389409Y22932D01*
X389456Y22858D01*
X389511Y22775D01*
X389576Y22701D01*
X389659Y22627D01*
X389668Y22618D01*
X389705Y22599D01*
X389752Y22571D01*
X389826Y22544D01*
X389909Y22507D01*
X390011Y22479D01*
X390122Y22460D01*
X390251Y22451D01*
X390316D01*
X390381Y22460D01*
X390464Y22470D01*
X390566Y22498D01*
X390677Y22525D01*
X390797Y22571D01*
X390917Y22627D01*
X390936Y22636D01*
X390973Y22664D01*
X391028Y22701D01*
X391093Y22757D01*
X391167Y22830D01*
X391241Y22914D01*
X391306Y23006D01*
X391361Y23117D01*
X391370Y23136D01*
X391380Y23173D01*
X391398Y23247D01*
X391426Y23348D01*
X391454Y23478D01*
X391472Y23635D01*
X391481Y23820D01*
X391491Y24033D01*
Y26521D01*
X392277D01*
Y21878D01*
D02*
G37*
G36*
X413691Y25985D02*
X413700Y25994D01*
X413718Y26013D01*
X413746Y26040D01*
X413792Y26087D01*
X413839Y26133D01*
X413903Y26188D01*
X413987Y26244D01*
X414070Y26309D01*
X414162Y26364D01*
X414264Y26419D01*
X414505Y26521D01*
X414634Y26568D01*
X414773Y26595D01*
X414921Y26614D01*
X415069Y26623D01*
X415152D01*
X415254Y26614D01*
X415374Y26595D01*
X415513Y26577D01*
X415661Y26540D01*
X415809Y26484D01*
X415957Y26419D01*
X415975Y26410D01*
X416022Y26382D01*
X416086Y26336D01*
X416170Y26272D01*
X416253Y26188D01*
X416345Y26096D01*
X416429Y25985D01*
X416503Y25855D01*
X416512Y25837D01*
X416530Y25791D01*
X416558Y25707D01*
X416586Y25587D01*
X416614Y25439D01*
X416641Y25263D01*
X416660Y25051D01*
X416669Y24810D01*
Y21878D01*
X415883D01*
Y24819D01*
Y24828D01*
Y24847D01*
Y24875D01*
Y24912D01*
X415874Y25014D01*
X415855Y25143D01*
X415818Y25282D01*
X415772Y25420D01*
X415707Y25559D01*
X415624Y25670D01*
X415615Y25679D01*
X415578Y25717D01*
X415522Y25763D01*
X415439Y25809D01*
X415337Y25864D01*
X415217Y25901D01*
X415069Y25938D01*
X414902Y25948D01*
X414847D01*
X414782Y25938D01*
X414690Y25929D01*
X414597Y25901D01*
X414486Y25874D01*
X414375Y25828D01*
X414255Y25763D01*
X414246Y25754D01*
X414209Y25726D01*
X414153Y25689D01*
X414088Y25633D01*
X414014Y25559D01*
X413940Y25476D01*
X413876Y25374D01*
X413820Y25263D01*
X413811Y25245D01*
X413802Y25208D01*
X413783Y25134D01*
X413755Y25041D01*
X413728Y24921D01*
X413709Y24773D01*
X413700Y24607D01*
X413691Y24412D01*
Y21878D01*
X412904D01*
Y28279D01*
X413691D01*
Y25985D01*
D02*
G37*
G36*
X406725Y21878D02*
X405939D01*
Y26521D01*
X406725D01*
Y21878D01*
D02*
G37*
G36*
X404940Y27520D02*
X401462D01*
Y25541D01*
X404468D01*
Y24782D01*
X401462D01*
Y21878D01*
X400611D01*
Y28279D01*
X404940D01*
Y27520D01*
D02*
G37*
G36*
X399251Y21878D02*
X398465D01*
Y28279D01*
X399251D01*
Y21878D01*
D02*
G37*
G36*
X387532Y27520D02*
X384054D01*
Y25541D01*
X387060D01*
Y24782D01*
X384054D01*
Y21878D01*
X383203D01*
Y28279D01*
X387532D01*
Y27520D01*
D02*
G37*
G36*
X418797Y26521D02*
X419592D01*
Y25911D01*
X418797D01*
Y23182D01*
Y23164D01*
Y23126D01*
Y23071D01*
X418806Y23006D01*
X418815Y22858D01*
X418824Y22794D01*
X418834Y22747D01*
X418843Y22729D01*
X418871Y22692D01*
X418908Y22646D01*
X418972Y22599D01*
X418991Y22590D01*
X419037Y22571D01*
X419120Y22553D01*
X419241Y22544D01*
X419333D01*
X419379Y22553D01*
X419444D01*
X419518Y22562D01*
X419592Y22571D01*
X419694Y21878D01*
X419675D01*
X419638Y21869D01*
X419574Y21859D01*
X419490Y21850D01*
X419398Y21832D01*
X419296Y21822D01*
X419093Y21813D01*
X419019D01*
X418945Y21822D01*
X418852Y21832D01*
X418741Y21841D01*
X418630Y21869D01*
X418528Y21896D01*
X418427Y21942D01*
X418417Y21952D01*
X418390Y21970D01*
X418353Y21998D01*
X418297Y22044D01*
X418251Y22091D01*
X418195Y22155D01*
X418140Y22220D01*
X418103Y22303D01*
Y22312D01*
X418084Y22350D01*
X418075Y22414D01*
X418057Y22507D01*
X418038Y22627D01*
X418029Y22701D01*
Y22784D01*
X418020Y22886D01*
X418010Y22988D01*
Y23099D01*
Y23228D01*
Y25911D01*
X417428D01*
Y26521D01*
X418010D01*
Y27668D01*
X418797Y28140D01*
Y26521D01*
D02*
G37*
G36*
X422423Y26614D02*
X422497Y26605D01*
X422589Y26586D01*
X422691Y26568D01*
X422811Y26540D01*
X422922Y26512D01*
X423052Y26466D01*
X423172Y26419D01*
X423301Y26355D01*
X423431Y26281D01*
X423560Y26197D01*
X423681Y26096D01*
X423792Y25985D01*
X423801Y25975D01*
X423819Y25957D01*
X423847Y25920D01*
X423884Y25864D01*
X423930Y25800D01*
X423977Y25726D01*
X424032Y25633D01*
X424088Y25522D01*
X424143Y25402D01*
X424199Y25273D01*
X424245Y25124D01*
X424291Y24967D01*
X424328Y24791D01*
X424356Y24607D01*
X424374Y24412D01*
X424384Y24200D01*
Y24190D01*
Y24153D01*
Y24089D01*
X424374Y23996D01*
X420906D01*
Y23987D01*
Y23959D01*
X420915Y23922D01*
Y23866D01*
X420924Y23802D01*
X420943Y23728D01*
X420970Y23561D01*
X421026Y23376D01*
X421100Y23173D01*
X421202Y22988D01*
X421331Y22821D01*
X421340D01*
X421350Y22803D01*
X421405Y22757D01*
X421488Y22692D01*
X421599Y22627D01*
X421747Y22553D01*
X421914Y22488D01*
X422099Y22442D01*
X422201Y22433D01*
X422312Y22423D01*
X422386D01*
X422469Y22433D01*
X422571Y22451D01*
X422682Y22479D01*
X422811Y22516D01*
X422931Y22571D01*
X423052Y22646D01*
X423061Y22655D01*
X423107Y22692D01*
X423163Y22747D01*
X423227Y22821D01*
X423301Y22923D01*
X423385Y23053D01*
X423468Y23201D01*
X423542Y23376D01*
X424356Y23275D01*
Y23265D01*
X424347Y23247D01*
X424337Y23210D01*
X424319Y23154D01*
X424291Y23099D01*
X424263Y23025D01*
X424189Y22867D01*
X424097Y22692D01*
X423967Y22507D01*
X423819Y22331D01*
X423634Y22164D01*
X423625D01*
X423607Y22146D01*
X423579Y22128D01*
X423542Y22100D01*
X423486Y22072D01*
X423431Y22044D01*
X423357Y22007D01*
X423274Y21970D01*
X423181Y21933D01*
X423089Y21896D01*
X422857Y21841D01*
X422598Y21794D01*
X422312Y21776D01*
X422210D01*
X422145Y21785D01*
X422062Y21794D01*
X421960Y21813D01*
X421849Y21832D01*
X421729Y21850D01*
X421470Y21924D01*
X421331Y21980D01*
X421202Y22035D01*
X421063Y22109D01*
X420933Y22192D01*
X420813Y22285D01*
X420693Y22396D01*
X420684Y22405D01*
X420665Y22423D01*
X420637Y22460D01*
X420600Y22516D01*
X420554Y22581D01*
X420508Y22655D01*
X420452Y22747D01*
X420397Y22849D01*
X420341Y22969D01*
X420286Y23099D01*
X420240Y23247D01*
X420193Y23404D01*
X420156Y23571D01*
X420129Y23755D01*
X420110Y23950D01*
X420101Y24153D01*
Y24162D01*
Y24209D01*
Y24264D01*
X420110Y24348D01*
X420119Y24449D01*
X420129Y24560D01*
X420147Y24690D01*
X420175Y24819D01*
X420249Y25115D01*
X420295Y25263D01*
X420351Y25420D01*
X420425Y25569D01*
X420508Y25707D01*
X420600Y25846D01*
X420702Y25975D01*
X420711Y25985D01*
X420730Y26003D01*
X420767Y26031D01*
X420813Y26077D01*
X420869Y26123D01*
X420943Y26179D01*
X421026Y26244D01*
X421128Y26299D01*
X421229Y26364D01*
X421350Y26419D01*
X421479Y26475D01*
X421618Y26521D01*
X421766Y26568D01*
X421923Y26595D01*
X422090Y26614D01*
X422265Y26623D01*
X422358D01*
X422423Y26614D01*
D02*
G37*
G36*
X395561D02*
X395635Y26605D01*
X395727Y26586D01*
X395829Y26568D01*
X395949Y26540D01*
X396060Y26512D01*
X396190Y26466D01*
X396310Y26419D01*
X396439Y26355D01*
X396569Y26281D01*
X396698Y26197D01*
X396819Y26096D01*
X396930Y25985D01*
X396939Y25975D01*
X396957Y25957D01*
X396985Y25920D01*
X397022Y25864D01*
X397068Y25800D01*
X397115Y25726D01*
X397170Y25633D01*
X397226Y25522D01*
X397281Y25402D01*
X397337Y25273D01*
X397383Y25124D01*
X397429Y24967D01*
X397466Y24791D01*
X397494Y24607D01*
X397512Y24412D01*
X397522Y24200D01*
Y24190D01*
Y24153D01*
Y24089D01*
X397512Y23996D01*
X394044D01*
Y23987D01*
Y23959D01*
X394053Y23922D01*
Y23866D01*
X394062Y23802D01*
X394081Y23728D01*
X394108Y23561D01*
X394164Y23376D01*
X394238Y23173D01*
X394340Y22988D01*
X394469Y22821D01*
X394478D01*
X394488Y22803D01*
X394543Y22757D01*
X394626Y22692D01*
X394737Y22627D01*
X394885Y22553D01*
X395052Y22488D01*
X395237Y22442D01*
X395339Y22433D01*
X395450Y22423D01*
X395524D01*
X395607Y22433D01*
X395709Y22451D01*
X395820Y22479D01*
X395949Y22516D01*
X396069Y22571D01*
X396190Y22646D01*
X396199Y22655D01*
X396245Y22692D01*
X396301Y22747D01*
X396365Y22821D01*
X396439Y22923D01*
X396523Y23053D01*
X396606Y23201D01*
X396680Y23376D01*
X397494Y23275D01*
Y23265D01*
X397485Y23247D01*
X397475Y23210D01*
X397457Y23154D01*
X397429Y23099D01*
X397401Y23025D01*
X397327Y22867D01*
X397235Y22692D01*
X397105Y22507D01*
X396957Y22331D01*
X396772Y22164D01*
X396763D01*
X396745Y22146D01*
X396717Y22128D01*
X396680Y22100D01*
X396624Y22072D01*
X396569Y22044D01*
X396495Y22007D01*
X396412Y21970D01*
X396319Y21933D01*
X396227Y21896D01*
X395995Y21841D01*
X395736Y21794D01*
X395450Y21776D01*
X395348D01*
X395283Y21785D01*
X395200Y21794D01*
X395098Y21813D01*
X394987Y21832D01*
X394867Y21850D01*
X394608Y21924D01*
X394469Y21980D01*
X394340Y22035D01*
X394201Y22109D01*
X394071Y22192D01*
X393951Y22285D01*
X393831Y22396D01*
X393822Y22405D01*
X393803Y22423D01*
X393775Y22460D01*
X393738Y22516D01*
X393692Y22581D01*
X393646Y22655D01*
X393590Y22747D01*
X393535Y22849D01*
X393479Y22969D01*
X393424Y23099D01*
X393378Y23247D01*
X393331Y23404D01*
X393294Y23571D01*
X393267Y23755D01*
X393248Y23950D01*
X393239Y24153D01*
Y24162D01*
Y24209D01*
Y24264D01*
X393248Y24348D01*
X393257Y24449D01*
X393267Y24560D01*
X393285Y24690D01*
X393313Y24819D01*
X393387Y25115D01*
X393433Y25263D01*
X393489Y25420D01*
X393563Y25569D01*
X393646Y25707D01*
X393738Y25846D01*
X393840Y25975D01*
X393849Y25985D01*
X393868Y26003D01*
X393905Y26031D01*
X393951Y26077D01*
X394007Y26123D01*
X394081Y26179D01*
X394164Y26244D01*
X394266Y26299D01*
X394367Y26364D01*
X394488Y26419D01*
X394617Y26475D01*
X394756Y26521D01*
X394904Y26568D01*
X395061Y26595D01*
X395228Y26614D01*
X395403Y26623D01*
X395496D01*
X395561Y26614D01*
D02*
G37*
G36*
X409769D02*
X409833Y26605D01*
X409917Y26586D01*
X410009Y26568D01*
X410111Y26540D01*
X410213Y26503D01*
X410324Y26456D01*
X410435Y26401D01*
X410555Y26336D01*
X410666Y26262D01*
X410777Y26170D01*
X410888Y26068D01*
X410990Y25948D01*
Y26521D01*
X411711D01*
Y22507D01*
Y22498D01*
Y22460D01*
Y22405D01*
Y22331D01*
X411702Y22248D01*
Y22146D01*
X411693Y22035D01*
X411683Y21915D01*
X411656Y21665D01*
X411619Y21406D01*
X411591Y21286D01*
X411563Y21175D01*
X411526Y21073D01*
X411489Y20980D01*
Y20971D01*
X411480Y20962D01*
X411443Y20907D01*
X411397Y20823D01*
X411323Y20721D01*
X411221Y20610D01*
X411101Y20490D01*
X410953Y20370D01*
X410786Y20268D01*
X410777D01*
X410768Y20259D01*
X410740Y20241D01*
X410703Y20231D01*
X410657Y20203D01*
X410601Y20185D01*
X410462Y20139D01*
X410296Y20083D01*
X410092Y20046D01*
X409861Y20009D01*
X409611Y20000D01*
X409528D01*
X409473Y20009D01*
X409399D01*
X409325Y20019D01*
X409232Y20028D01*
X409130Y20046D01*
X408918Y20092D01*
X408696Y20157D01*
X408474Y20250D01*
X408270Y20379D01*
X408261Y20389D01*
X408252Y20398D01*
X408187Y20453D01*
X408113Y20537D01*
X408020Y20657D01*
X407928Y20814D01*
X407845Y21008D01*
X407817Y21119D01*
X407798Y21239D01*
X407780Y21360D01*
Y21498D01*
X408548Y21397D01*
Y21378D01*
X408557Y21341D01*
X408575Y21276D01*
X408594Y21193D01*
X408631Y21110D01*
X408677Y21027D01*
X408733Y20944D01*
X408807Y20879D01*
X408825Y20869D01*
X408862Y20842D01*
X408927Y20805D01*
X409019Y20768D01*
X409130Y20721D01*
X409269Y20685D01*
X409436Y20657D01*
X409611Y20648D01*
X409704D01*
X409796Y20657D01*
X409926Y20675D01*
X410055Y20703D01*
X410194Y20740D01*
X410333Y20796D01*
X410453Y20869D01*
X410462Y20879D01*
X410499Y20907D01*
X410555Y20962D01*
X410620Y21027D01*
X410684Y21119D01*
X410749Y21221D01*
X410814Y21341D01*
X410860Y21480D01*
Y21489D01*
X410869Y21526D01*
X410879Y21600D01*
X410888Y21693D01*
X410897Y21757D01*
Y21832D01*
X410906Y21915D01*
Y22007D01*
Y22109D01*
X410916Y22229D01*
Y22350D01*
Y22488D01*
X410906Y22479D01*
X410888Y22460D01*
X410860Y22433D01*
X410823Y22396D01*
X410777Y22350D01*
X410712Y22294D01*
X410638Y22239D01*
X410564Y22183D01*
X410370Y22072D01*
X410157Y21970D01*
X410037Y21933D01*
X409907Y21905D01*
X409769Y21887D01*
X409630Y21878D01*
X409584D01*
X409537Y21887D01*
X409473D01*
X409389Y21896D01*
X409297Y21915D01*
X409195Y21933D01*
X409084Y21961D01*
X408964Y21998D01*
X408844Y22044D01*
X408723Y22100D01*
X408594Y22164D01*
X408474Y22248D01*
X408353Y22340D01*
X408242Y22442D01*
X408141Y22562D01*
X408131Y22571D01*
X408122Y22590D01*
X408094Y22636D01*
X408057Y22682D01*
X408020Y22757D01*
X407974Y22830D01*
X407928Y22923D01*
X407882Y23034D01*
X407835Y23145D01*
X407789Y23275D01*
X407743Y23404D01*
X407706Y23552D01*
X407641Y23866D01*
X407632Y24042D01*
X407623Y24218D01*
Y24227D01*
Y24246D01*
Y24283D01*
Y24329D01*
X407632Y24394D01*
Y24459D01*
X407650Y24625D01*
X407678Y24810D01*
X407724Y25014D01*
X407780Y25226D01*
X407863Y25439D01*
Y25448D01*
X407872Y25467D01*
X407891Y25495D01*
X407909Y25532D01*
X407965Y25633D01*
X408039Y25763D01*
X408141Y25901D01*
X408261Y26040D01*
X408400Y26188D01*
X408557Y26309D01*
X408566D01*
X408575Y26318D01*
X408603Y26336D01*
X408640Y26355D01*
X408733Y26410D01*
X408862Y26466D01*
X409019Y26521D01*
X409204Y26577D01*
X409408Y26614D01*
X409630Y26623D01*
X409713D01*
X409769Y26614D01*
D02*
G37*
%LPC*%
G36*
X391713Y35313D02*
X390233D01*
Y30428D01*
X391750D01*
X391814Y30438D01*
X391953Y30447D01*
X392110Y30456D01*
X392277Y30475D01*
X392443Y30502D01*
X392582Y30539D01*
X392601Y30549D01*
X392647Y30558D01*
X392712Y30586D01*
X392795Y30623D01*
X392887Y30678D01*
X392980Y30734D01*
X393072Y30799D01*
X393165Y30872D01*
X393174Y30891D01*
X393211Y30928D01*
X393267Y30993D01*
X393331Y31085D01*
X393405Y31205D01*
X393489Y31344D01*
X393563Y31501D01*
X393627Y31677D01*
Y31686D01*
X393637Y31705D01*
X393646Y31733D01*
X393655Y31770D01*
X393664Y31816D01*
X393683Y31881D01*
X393701Y31945D01*
X393720Y32019D01*
X393748Y32204D01*
X393775Y32417D01*
X393794Y32658D01*
X393803Y32917D01*
Y32926D01*
Y32963D01*
Y33009D01*
X393794Y33083D01*
Y33166D01*
X393785Y33259D01*
X393775Y33370D01*
X393766Y33481D01*
X393720Y33731D01*
X393664Y33990D01*
X393581Y34230D01*
X393526Y34350D01*
X393470Y34452D01*
Y34462D01*
X393452Y34480D01*
X393433Y34508D01*
X393415Y34545D01*
X393341Y34637D01*
X393248Y34748D01*
X393128Y34868D01*
X392989Y34989D01*
X392832Y35090D01*
X392665Y35174D01*
X392647Y35183D01*
X392601Y35192D01*
X392517Y35220D01*
X392397Y35248D01*
X392249Y35266D01*
X392064Y35294D01*
X391953Y35303D01*
X391833D01*
X391713Y35313D01*
D02*
G37*
G36*
X422275Y25975D02*
X422219D01*
X422182Y25966D01*
X422080Y25957D01*
X421960Y25929D01*
X421812Y25883D01*
X421655Y25818D01*
X421507Y25726D01*
X421359Y25605D01*
X421340Y25587D01*
X421303Y25541D01*
X421239Y25458D01*
X421174Y25346D01*
X421100Y25217D01*
X421035Y25051D01*
X420980Y24856D01*
X420952Y24644D01*
X423551D01*
Y24653D01*
Y24671D01*
X423542Y24699D01*
Y24736D01*
X423523Y24847D01*
X423496Y24967D01*
X423449Y25115D01*
X423403Y25254D01*
X423329Y25393D01*
X423246Y25513D01*
Y25522D01*
X423227Y25532D01*
X423181Y25587D01*
X423098Y25661D01*
X422987Y25744D01*
X422848Y25828D01*
X422682Y25901D01*
X422487Y25957D01*
X422386Y25966D01*
X422275Y25975D01*
D02*
G37*
G36*
X395413D02*
X395357D01*
X395320Y25966D01*
X395218Y25957D01*
X395098Y25929D01*
X394950Y25883D01*
X394793Y25818D01*
X394645Y25726D01*
X394497Y25605D01*
X394478Y25587D01*
X394441Y25541D01*
X394377Y25458D01*
X394312Y25346D01*
X394238Y25217D01*
X394173Y25051D01*
X394118Y24856D01*
X394090Y24644D01*
X396689D01*
Y24653D01*
Y24671D01*
X396680Y24699D01*
Y24736D01*
X396661Y24847D01*
X396634Y24967D01*
X396587Y25115D01*
X396541Y25254D01*
X396467Y25393D01*
X396384Y25513D01*
Y25522D01*
X396365Y25532D01*
X396319Y25587D01*
X396236Y25661D01*
X396125Y25744D01*
X395986Y25828D01*
X395820Y25901D01*
X395625Y25957D01*
X395524Y25966D01*
X395413Y25975D01*
D02*
G37*
G36*
X409787D02*
X409639D01*
X409602Y25966D01*
X409500Y25957D01*
X409380Y25920D01*
X409232Y25874D01*
X409084Y25791D01*
X408936Y25689D01*
X408862Y25615D01*
X408788Y25541D01*
Y25532D01*
X408770Y25522D01*
X408751Y25495D01*
X408733Y25458D01*
X408705Y25420D01*
X408677Y25365D01*
X408640Y25300D01*
X408612Y25226D01*
X408575Y25143D01*
X408538Y25041D01*
X408511Y24939D01*
X408483Y24828D01*
X408464Y24699D01*
X408446Y24569D01*
X408427Y24431D01*
Y24273D01*
Y24264D01*
Y24237D01*
Y24190D01*
X408437Y24126D01*
Y24051D01*
X408446Y23959D01*
X408474Y23765D01*
X408520Y23543D01*
X408575Y23330D01*
X408668Y23117D01*
X408723Y23025D01*
X408788Y22941D01*
X408807Y22923D01*
X408853Y22877D01*
X408927Y22812D01*
X409038Y22738D01*
X409167Y22655D01*
X409325Y22590D01*
X409500Y22544D01*
X409593Y22535D01*
X409695Y22525D01*
X409750D01*
X409787Y22535D01*
X409889Y22544D01*
X410018Y22581D01*
X410157Y22627D01*
X410314Y22701D01*
X410462Y22803D01*
X410536Y22867D01*
X410610Y22941D01*
Y22951D01*
X410629Y22960D01*
X410647Y22988D01*
X410666Y23025D01*
X410694Y23062D01*
X410731Y23117D01*
X410758Y23182D01*
X410795Y23265D01*
X410832Y23348D01*
X410860Y23441D01*
X410897Y23552D01*
X410925Y23672D01*
X410943Y23792D01*
X410962Y23931D01*
X410980Y24089D01*
Y24246D01*
Y24255D01*
Y24283D01*
Y24329D01*
X410971Y24385D01*
Y24459D01*
X410962Y24542D01*
X410934Y24727D01*
X410888Y24939D01*
X410823Y25152D01*
X410731Y25365D01*
X410666Y25458D01*
X410601Y25541D01*
Y25550D01*
X410583Y25559D01*
X410536Y25605D01*
X410453Y25679D01*
X410342Y25763D01*
X410213Y25837D01*
X410055Y25911D01*
X409880Y25957D01*
X409787Y25975D01*
D02*
G37*
%LPD*%
D10*
X416053Y205000D02*
X415435Y205357D01*
Y204643D01*
X416053Y205000D01*
X376021Y226308D02*
X405647D01*
X404565Y251505D02*
X412242Y243828D01*
X376021Y251505D02*
X404565D01*
X376021Y226308D02*
Y251505D01*
X412242Y232902D02*
Y243828D01*
X405647Y226308D02*
X412242Y232902D01*
X427732Y251592D02*
X457358D01*
X421137Y234072D02*
X428814Y226395D01*
X457358D01*
Y251592D01*
X421137Y234072D02*
Y244998D01*
X427732Y251592D01*
X405341Y206600D02*
X417241D01*
X405341Y198200D02*
Y206600D01*
Y198200D02*
X417241D01*
Y206600D01*
X430000Y322984D02*
Y330984D01*
X426000Y326984D02*
X434000D01*
X410000Y271000D02*
Y321000D01*
Y271000D02*
X425000Y256000D01*
X435000D01*
X450000Y271000D01*
Y321000D01*
X410000D02*
X450000D01*
X360358Y323126D02*
Y331126D01*
X356358Y327126D02*
X364358D01*
X340358Y271142D02*
Y321142D01*
Y271142D02*
X355358Y256142D01*
X365358D01*
X380358Y271142D01*
Y321142D01*
X340358D02*
X380358D01*
X130878Y322280D02*
Y330279D01*
X126878Y326279D02*
X134878D01*
X110878Y270295D02*
Y320295D01*
Y270295D02*
X125878Y255295D01*
X135878D01*
X150878Y270295D01*
Y320295D01*
X110878D02*
X150878D01*
X267878Y322779D02*
Y330780D01*
X263878Y326780D02*
X271878D01*
X247878Y270795D02*
Y320795D01*
Y270795D02*
X262878Y255795D01*
X272878D01*
X287878Y270795D01*
Y320795D01*
X247878D02*
X287878D01*
X22000Y199000D02*
X24000Y197000D01*
Y197000D02*
X104000Y197000D01*
X106000Y199000D01*
X464101Y280496D02*
X454104D01*
Y285494D01*
X455770Y287160D01*
X459102D01*
X460769Y285494D01*
Y280496D01*
X454104Y290493D02*
Y293825D01*
Y292159D01*
X464101D01*
Y290493D01*
Y293825D01*
Y298823D02*
X454104D01*
X464101Y305488D01*
X454104D01*
X264000Y227999D02*
X267999Y224000D01*
X265999Y225999D01*
X267999Y227999D01*
X264000Y224000D01*
X8002Y141000D02*
Y144999D01*
Y142999D01*
X14000D01*
Y149997D02*
Y147998D01*
X13000Y146998D01*
X11001D01*
X10001Y147998D01*
Y149997D01*
X11001Y150997D01*
X12001D01*
Y146998D01*
X14000Y152996D02*
Y154996D01*
Y153996D01*
X8002D01*
Y152996D01*
X14000Y160994D02*
Y158994D01*
X13000Y157994D01*
X11001D01*
X10001Y158994D01*
Y160994D01*
X11001Y161993D01*
X12001D01*
Y157994D01*
X14000Y163993D02*
X10001D01*
Y164992D01*
X11001Y165992D01*
X14000D01*
X11001D01*
X10001Y166992D01*
X11001Y167991D01*
X14000D01*
Y172990D02*
Y170990D01*
X13000Y169991D01*
X11001D01*
X10001Y170990D01*
Y172990D01*
X11001Y173989D01*
X12001D01*
Y169991D01*
X9002Y176988D02*
X10001D01*
Y175989D01*
Y177988D01*
Y176988D01*
X13000D01*
X14000Y177988D01*
X10001Y180987D02*
X14000D01*
X12001D01*
X11001Y181987D01*
X10001Y182986D01*
Y183986D01*
Y186985D02*
X13000D01*
X14000Y187985D01*
Y190984D01*
X15000D01*
X15999Y189984D01*
Y188985D01*
X14000Y190984D02*
X10001D01*
X14000Y202980D02*
Y198981D01*
X10001Y202980D01*
X9002D01*
X8002Y201980D01*
Y199981D01*
X9002Y198981D01*
Y204979D02*
X8002Y205979D01*
Y207978D01*
X9002Y208978D01*
X13000D01*
X14000Y207978D01*
Y205979D01*
X13000Y204979D01*
X9002D01*
X14000Y214976D02*
Y210977D01*
X10001Y214976D01*
X9002D01*
X8002Y213976D01*
Y211977D01*
X9002Y210977D01*
Y216975D02*
X8002Y217975D01*
Y219974D01*
X9002Y220974D01*
X13000D01*
X14000Y219974D01*
Y217975D01*
X13000Y216975D01*
X9002D01*
X10001Y228972D02*
X14000Y230971D01*
X10001Y232970D01*
X9002Y234970D02*
X8002Y235969D01*
Y237969D01*
X9002Y238968D01*
X13000D01*
X14000Y237969D01*
Y235969D01*
X13000Y234970D01*
X9002D01*
X14000Y240968D02*
X13000D01*
Y241967D01*
X14000D01*
Y240968D01*
Y245966D02*
Y247965D01*
Y246966D01*
X8002D01*
X9002Y245966D01*
X244000Y227999D02*
X247999Y224000D01*
X245999Y225999D01*
X247999Y227999D01*
X244000Y224000D01*
X157001Y268000D02*
Y271999D01*
X155002Y269999D02*
X159000D01*
X160000Y277997D02*
Y273998D01*
X156001Y277997D01*
X155002D01*
X154002Y276997D01*
Y274998D01*
X155002Y273998D01*
X160000Y282995D02*
X154002D01*
X157001Y279996D01*
Y283995D01*
X154002Y285994D02*
X158001D01*
X160000Y287994D01*
X158001Y289993D01*
X154002D01*
Y300989D02*
Y298990D01*
X155002Y297990D01*
X159000D01*
X160000Y298990D01*
Y300989D01*
X159000Y301989D01*
X155002D01*
X154002Y300989D01*
Y303988D02*
X159000D01*
X160000Y304988D01*
Y306987D01*
X159000Y307987D01*
X154002D01*
Y309986D02*
Y313985D01*
Y311986D01*
X160000D01*
X242001Y271000D02*
Y274999D01*
X240002Y272999D02*
X244000D01*
X245000Y280997D02*
Y276998D01*
X241001Y280997D01*
X240002D01*
X239002Y279997D01*
Y277998D01*
X240002Y276998D01*
X245000Y285995D02*
X239002D01*
X242001Y282996D01*
Y286995D01*
X239002Y288994D02*
X243001D01*
X245000Y290993D01*
X243001Y292993D01*
X239002D01*
Y300990D02*
Y302990D01*
Y301990D01*
X245000D01*
Y300990D01*
Y302990D01*
Y305989D02*
X239002D01*
X245000Y309987D01*
X239002D01*
X224668Y225666D02*
X224001Y224999D01*
Y223666D01*
X224668Y223000D01*
X225334D01*
X226001Y223666D01*
Y224999D01*
X226667Y225666D01*
X227334D01*
X228000Y224999D01*
Y223666D01*
X227334Y223000D01*
X224001Y226999D02*
X228000D01*
Y228998D01*
X227334Y229664D01*
X224668D01*
X224001Y228998D01*
Y226999D01*
X228000Y230997D02*
X225334D01*
X224001Y232330D01*
X225334Y233663D01*
X228000D01*
X226001D01*
Y230997D01*
X214668Y225666D02*
X214001Y224999D01*
Y223666D01*
X214668Y223000D01*
X215334D01*
X216001Y223666D01*
Y224999D01*
X216667Y225666D01*
X217334D01*
X218000Y224999D01*
Y223666D01*
X217334Y223000D01*
X214668Y229664D02*
X214001Y228998D01*
Y227665D01*
X214668Y226999D01*
X217334D01*
X218000Y227665D01*
Y228998D01*
X217334Y229664D01*
X214001Y230997D02*
X218000D01*
Y233663D01*
X254000Y227999D02*
X257999Y224000D01*
X255999Y225999D01*
X257999Y227999D01*
X254000Y224000D01*
X373664Y83331D02*
X371998Y84997D01*
X368666D01*
X367000Y83331D01*
Y81665D01*
X368666Y79998D01*
X371998D01*
X373664Y78332D01*
Y76666D01*
X371998Y75000D01*
X368666D01*
X367000Y76666D01*
X383661Y84997D02*
X376997D01*
Y75000D01*
X383661D01*
X376997Y79998D02*
X380329D01*
X386994Y75000D02*
Y84997D01*
X390326Y81665D01*
X393658Y84997D01*
Y75000D01*
X413652D02*
X406987D01*
X413652Y81665D01*
Y83331D01*
X411985Y84997D01*
X408653D01*
X406987Y83331D01*
X416984D02*
X418650Y84997D01*
X421982D01*
X423648Y83331D01*
Y76666D01*
X421982Y75000D01*
X418650D01*
X416984Y76666D01*
Y83331D01*
X433645Y75000D02*
X426981D01*
X433645Y81665D01*
Y83331D01*
X431979Y84997D01*
X428647D01*
X426981Y83331D01*
X436977D02*
X438644Y84997D01*
X441976D01*
X443642Y83331D01*
Y76666D01*
X441976Y75000D01*
X438644D01*
X436977Y76666D01*
Y83331D01*
X57000Y193998D02*
X58999D01*
X58000D01*
Y188000D01*
X57000D01*
X58999D01*
X65997D02*
X61998D01*
X65997Y191999D01*
Y192998D01*
X64997Y193998D01*
X62998D01*
X61998Y192998D01*
X71995D02*
X70995Y193998D01*
X68996D01*
X67996Y192998D01*
Y189000D01*
X68996Y188000D01*
X70995D01*
X71995Y189000D01*
X109000Y248998D02*
X110000Y249998D01*
X111999D01*
X112999Y248998D01*
Y247999D01*
X111999Y246999D01*
X110999D01*
X111999D01*
X112999Y245999D01*
Y245000D01*
X111999Y244000D01*
X110000D01*
X109000Y245000D01*
X114998Y249998D02*
Y245999D01*
X116997Y244000D01*
X118997Y245999D01*
Y249998D01*
X120996Y248998D02*
X121996Y249998D01*
X123995D01*
X124995Y248998D01*
Y247999D01*
X123995Y246999D01*
X122995D01*
X123995D01*
X124995Y245999D01*
Y245000D01*
X123995Y244000D01*
X121996D01*
X120996Y245000D01*
X29999Y126998D02*
X28999Y127998D01*
X27000D01*
X26000Y126998D01*
Y123000D01*
X27000Y122000D01*
X28999D01*
X29999Y123000D01*
X31998Y122000D02*
Y125999D01*
X33997Y127998D01*
X35997Y125999D01*
Y122000D01*
Y124999D01*
X31998D01*
X37996Y122000D02*
Y127998D01*
X41995Y122000D01*
Y127998D01*
X43994Y124999D02*
X47993D01*
X50992Y126998D02*
Y125999D01*
X49992D01*
X51992D01*
X50992D01*
Y123000D01*
X51992Y122000D01*
X57990D02*
X55990D01*
X54991Y123000D01*
Y124999D01*
X55990Y125999D01*
X57990D01*
X58989Y124999D01*
Y123999D01*
X54991D01*
X60989Y125999D02*
Y122000D01*
Y123999D01*
X61988Y124999D01*
X62988Y125999D01*
X63988D01*
X66987Y122000D02*
Y125999D01*
X67986D01*
X68986Y124999D01*
Y122000D01*
Y124999D01*
X69986Y125999D01*
X70986Y124999D01*
Y122000D01*
X72985D02*
Y123000D01*
X73984D01*
Y122000D01*
X72985D01*
X112999Y208998D02*
X111999Y209998D01*
X110000D01*
X109000Y208998D01*
Y205000D01*
X110000Y204000D01*
X111999D01*
X112999Y205000D01*
Y206999D01*
X110999D01*
X114998Y204000D02*
Y209998D01*
X118997Y204000D01*
Y209998D01*
X120996D02*
Y204000D01*
X123995D01*
X124995Y205000D01*
Y208998D01*
X123995Y209998D01*
X120996D01*
X112999Y239998D02*
X109000D01*
Y236999D01*
X110999Y237999D01*
X111999D01*
X112999Y236999D01*
Y235000D01*
X111999Y234000D01*
X110000D01*
X109000Y235000D01*
X114998Y239998D02*
Y235999D01*
X116997Y234000D01*
X118997Y235999D01*
Y239998D01*
X112999Y218998D02*
X111999Y219998D01*
X110000D01*
X109000Y218998D01*
Y217999D01*
X110000Y216999D01*
X111999D01*
X112999Y215999D01*
Y215000D01*
X111999Y214000D01*
X110000D01*
X109000Y215000D01*
X114998Y219998D02*
Y214000D01*
X117997D01*
X118997Y215000D01*
Y218998D01*
X117997Y219998D01*
X114998D01*
X120996Y214000D02*
Y217999D01*
X122995Y219998D01*
X124995Y217999D01*
Y214000D01*
Y216999D01*
X120996D01*
X112999Y228998D02*
X111999Y229998D01*
X110000D01*
X109000Y228998D01*
Y227999D01*
X110000Y226999D01*
X111999D01*
X112999Y225999D01*
Y225000D01*
X111999Y224000D01*
X110000D01*
X109000Y225000D01*
X118997Y228998D02*
X117997Y229998D01*
X115998D01*
X114998Y228998D01*
Y225000D01*
X115998Y224000D01*
X117997D01*
X118997Y225000D01*
X120996Y229998D02*
Y224000D01*
X124995D01*
X186500Y238000D02*
X180502D01*
Y240999D01*
X181502Y241999D01*
X183501D01*
X184501Y240999D01*
Y238000D01*
Y239999D02*
X186500Y241999D01*
X180502Y247997D02*
X181502Y245998D01*
X183501Y243998D01*
X185500D01*
X186500Y244998D01*
Y246997D01*
X185500Y247997D01*
X184501D01*
X183501Y246997D01*
Y243998D01*
X407000Y153000D02*
Y158998D01*
X409999D01*
X410999Y157998D01*
Y155999D01*
X409999Y154999D01*
X407000D01*
X408999D02*
X410999Y153000D01*
X412998Y157998D02*
X413998Y158998D01*
X415997D01*
X416997Y157998D01*
Y156999D01*
X415997Y155999D01*
X414997D01*
X415997D01*
X416997Y154999D01*
Y154000D01*
X415997Y153000D01*
X413998D01*
X412998Y154000D01*
X390000Y123000D02*
X384002D01*
Y125999D01*
X385002Y126999D01*
X387001D01*
X388001Y125999D01*
Y123000D01*
X390000Y128998D02*
Y130997D01*
Y129998D01*
X384002D01*
X385002Y128998D01*
X384002Y137995D02*
Y133996D01*
X387001D01*
X386001Y135996D01*
Y136995D01*
X387001Y137995D01*
X389000D01*
X390000Y136995D01*
Y134996D01*
X389000Y133996D01*
X145999Y99998D02*
X144999Y100998D01*
X143000D01*
X142000Y99998D01*
Y96000D01*
X143000Y95000D01*
X144999D01*
X145999Y96000D01*
X147998Y95000D02*
X149997D01*
X148998D01*
Y100998D01*
X147998Y99998D01*
X152996D02*
X153996Y100998D01*
X155996D01*
X156995Y99998D01*
Y96000D01*
X155996Y95000D01*
X153996D01*
X152996Y96000D01*
Y99998D01*
X136358Y206640D02*
Y201641D01*
X137358Y200642D01*
X139357D01*
X140357Y201641D01*
Y206640D01*
X146355D02*
X142356D01*
Y203641D01*
X144356Y204640D01*
X145355D01*
X146355Y203641D01*
Y201641D01*
X145355Y200642D01*
X143356D01*
X142356Y201641D01*
X96199Y183398D02*
X95199Y184398D01*
X93200D01*
X92200Y183398D01*
Y179400D01*
X93200Y178400D01*
X95199D01*
X96199Y179400D01*
X98198Y178400D02*
X100197D01*
X99198D01*
Y184398D01*
X98198Y183398D01*
X103196Y178400D02*
X105196D01*
X104196D01*
Y184398D01*
X103196Y183398D01*
X74000Y255000D02*
X68002D01*
Y257999D01*
X69002Y258999D01*
X71001D01*
X72001Y257999D01*
Y255000D01*
X74000Y260998D02*
Y262997D01*
Y261998D01*
X68002D01*
X69002Y260998D01*
X74000Y265996D02*
Y267996D01*
Y266996D01*
X68002D01*
X69002Y265996D01*
X46000Y255000D02*
X40002D01*
Y257999D01*
X41002Y258999D01*
X43001D01*
X44001Y257999D01*
Y255000D01*
X46000Y260998D02*
Y262997D01*
Y261998D01*
X40002D01*
X41002Y260998D01*
Y265996D02*
X40002Y266996D01*
Y268995D01*
X41002Y269995D01*
X42001D01*
X43001Y268995D01*
Y267996D01*
Y268995D01*
X44001Y269995D01*
X45000D01*
X46000Y268995D01*
Y266996D01*
X45000Y265996D01*
X33000Y255000D02*
X27002D01*
Y257999D01*
X28002Y258999D01*
X30001D01*
X31001Y257999D01*
Y255000D01*
X33000Y260998D02*
Y262997D01*
Y261998D01*
X27002D01*
X28002Y260998D01*
X33000Y268995D02*
X27002D01*
X30001Y265996D01*
Y269995D01*
X60000Y255000D02*
X54002D01*
Y257999D01*
X55002Y258999D01*
X57001D01*
X58001Y257999D01*
Y255000D01*
X60000Y260998D02*
Y262997D01*
Y261998D01*
X54002D01*
X55002Y260998D01*
X60000Y269995D02*
Y265996D01*
X56001Y269995D01*
X55002D01*
X54002Y268995D01*
Y266996D01*
X55002Y265996D01*
X88000Y255000D02*
X82002D01*
Y257999D01*
X83002Y258999D01*
X85001D01*
X86001Y257999D01*
Y255000D01*
X88000Y260998D02*
Y262997D01*
Y261998D01*
X82002D01*
X83002Y260998D01*
Y265996D02*
X82002Y266996D01*
Y268995D01*
X83002Y269995D01*
X87000D01*
X88000Y268995D01*
Y266996D01*
X87000Y265996D01*
X83002D01*
X102000Y255000D02*
X96002D01*
Y257999D01*
X97002Y258999D01*
X99001D01*
X100001Y257999D01*
Y255000D01*
X101000Y260998D02*
X102000Y261998D01*
Y263997D01*
X101000Y264997D01*
X97002D01*
X96002Y263997D01*
Y261998D01*
X97002Y260998D01*
X98001D01*
X99001Y261998D01*
Y264997D01*
X410000Y324346D02*
Y330345D01*
X412999D01*
X413999Y329345D01*
Y327345D01*
X412999Y326346D01*
X410000D01*
X415998Y329345D02*
X416998Y330345D01*
X418997D01*
X419997Y329345D01*
Y328345D01*
X418997Y327345D01*
X419997Y326346D01*
Y325346D01*
X418997Y324346D01*
X416998D01*
X415998Y325346D01*
Y326346D01*
X416998Y327345D01*
X415998Y328345D01*
Y329345D01*
X416998Y327345D02*
X418997D01*
X175000Y238000D02*
X169002D01*
Y240999D01*
X170002Y241999D01*
X172001D01*
X173001Y240999D01*
Y238000D01*
Y239999D02*
X175000Y241999D01*
X169002Y247997D02*
Y243998D01*
X172001D01*
X171001Y245997D01*
Y246997D01*
X172001Y247997D01*
X174000D01*
X175000Y246997D01*
Y244998D01*
X174000Y243998D01*
X214002Y282000D02*
X219000D01*
X220000Y283000D01*
Y284999D01*
X219000Y285999D01*
X214002D01*
X220000Y287998D02*
Y289997D01*
Y288998D01*
X214002D01*
X215002Y287998D01*
X72000Y141998D02*
Y137000D01*
X73000Y136000D01*
X74999D01*
X75999Y137000D01*
Y141998D01*
X81997D02*
X79997Y140998D01*
X77998Y138999D01*
Y137000D01*
X78998Y136000D01*
X80997D01*
X81997Y137000D01*
Y137999D01*
X80997Y138999D01*
X77998D01*
X135858Y225142D02*
Y231140D01*
X138857D01*
X139857Y230140D01*
Y228141D01*
X138857Y227141D01*
X135858D01*
X145855Y231140D02*
X141856D01*
Y228141D01*
X143856Y229140D01*
X144855D01*
X145855Y228141D01*
Y226141D01*
X144855Y225142D01*
X142856D01*
X141856Y226141D01*
X16000Y111000D02*
Y116998D01*
X18999D01*
X19999Y115998D01*
Y113999D01*
X18999Y112999D01*
X16000D01*
X24997Y111000D02*
Y116998D01*
X21998Y113999D01*
X25997D01*
X49000Y96000D02*
Y101998D01*
X51999D01*
X52999Y100998D01*
Y98999D01*
X51999Y97999D01*
X49000D01*
X50999D02*
X52999Y96000D01*
X57997D02*
Y101998D01*
X54998Y98999D01*
X58997D01*
X27358Y89142D02*
Y95140D01*
X30357D01*
X31357Y94140D01*
Y92141D01*
X30357Y91141D01*
X27358D01*
X33356Y95140D02*
X37355D01*
Y94140D01*
X33356Y90141D01*
Y89142D01*
X89000Y88000D02*
Y93998D01*
X91999D01*
X92999Y92998D01*
Y90999D01*
X91999Y89999D01*
X89000D01*
X98997Y93998D02*
X96997Y92998D01*
X94998Y90999D01*
Y89000D01*
X95998Y88000D01*
X97997D01*
X98997Y89000D01*
Y89999D01*
X97997Y90999D01*
X94998D01*
X231358Y110640D02*
Y105641D01*
X232358Y104642D01*
X234357D01*
X235357Y105641D01*
Y110640D01*
X240355Y104642D02*
Y110640D01*
X237356Y107641D01*
X241355D01*
X251999Y10998D02*
X250999Y11998D01*
X249000D01*
X248000Y10998D01*
Y7000D01*
X249000Y6000D01*
X250999D01*
X251999Y7000D01*
X253998D02*
X254998Y6000D01*
X256997D01*
X257997Y7000D01*
Y10998D01*
X256997Y11998D01*
X254998D01*
X253998Y10998D01*
Y9999D01*
X254998Y8999D01*
X257997D01*
X341839Y324988D02*
Y330986D01*
X344838D01*
X345837Y329987D01*
Y327987D01*
X344838Y326988D01*
X341839D01*
X347837Y329987D02*
X348836Y330986D01*
X350836D01*
X351835Y329987D01*
Y328987D01*
X350836Y327987D01*
X349836D01*
X350836D01*
X351835Y326988D01*
Y325988D01*
X350836Y324988D01*
X348836D01*
X347837Y325988D01*
X249000Y323000D02*
Y328998D01*
X251999D01*
X252999Y327998D01*
Y325999D01*
X251999Y324999D01*
X249000D01*
X254998Y323000D02*
X256997D01*
X255998D01*
Y328998D01*
X254998Y327998D01*
X391000Y205998D02*
Y201000D01*
X392000Y200000D01*
X393999D01*
X394999Y201000D01*
Y205998D01*
X396998Y204998D02*
X397998Y205998D01*
X399997D01*
X400997Y204998D01*
Y203999D01*
X399997Y202999D01*
X398997D01*
X399997D01*
X400997Y201999D01*
Y201000D01*
X399997Y200000D01*
X397998D01*
X396998Y201000D01*
X111000Y323000D02*
Y328998D01*
X113999D01*
X114999Y327998D01*
Y325999D01*
X113999Y324999D01*
X111000D01*
X120997Y323000D02*
X116998D01*
X120997Y326999D01*
Y327998D01*
X119997Y328998D01*
X117998D01*
X116998Y327998D01*
X421000Y109798D02*
Y104800D01*
X422000Y103800D01*
X423999D01*
X424999Y104800D01*
Y109798D01*
X430997Y103800D02*
X426998D01*
X430997Y107799D01*
Y108798D01*
X429997Y109798D01*
X427998D01*
X426998Y108798D01*
X385000Y153000D02*
Y158998D01*
X387999D01*
X388999Y157998D01*
Y155999D01*
X387999Y154999D01*
X385000D01*
X386999D02*
X388999Y153000D01*
X394997D02*
X390998D01*
X394997Y156999D01*
Y157998D01*
X393997Y158998D01*
X391998D01*
X390998Y157998D01*
X439000Y162000D02*
Y167998D01*
X441999D01*
X442999Y166998D01*
Y164999D01*
X441999Y163999D01*
X439000D01*
X440999D02*
X442999Y162000D01*
X444998D02*
X446997D01*
X445998D01*
Y167998D01*
X444998Y166998D01*
X450000Y214998D02*
Y209000D01*
X453999D01*
X455998D02*
X457997D01*
X456998D01*
Y214998D01*
X455998Y213998D01*
X432999Y221998D02*
X431999Y222998D01*
X430000D01*
X429000Y221998D01*
Y218000D01*
X430000Y217000D01*
X431999D01*
X432999Y218000D01*
X434998Y221998D02*
X435998Y222998D01*
X437997D01*
X438997Y221998D01*
Y220999D01*
X437997Y219999D01*
X438997Y218999D01*
Y218000D01*
X437997Y217000D01*
X435998D01*
X434998Y218000D01*
Y218999D01*
X435998Y219999D01*
X434998Y220999D01*
Y221998D01*
X435998Y219999D02*
X437997D01*
X441999Y158998D02*
X440999Y159998D01*
X439000D01*
X438000Y158998D01*
Y155000D01*
X439000Y154000D01*
X440999D01*
X441999Y155000D01*
X443998Y159998D02*
X447997D01*
Y158998D01*
X443998Y155000D01*
Y154000D01*
X441999Y149998D02*
X440999Y150998D01*
X439000D01*
X438000Y149998D01*
Y146000D01*
X439000Y145000D01*
X440999D01*
X441999Y146000D01*
X447997Y150998D02*
X445997Y149998D01*
X443998Y147999D01*
Y146000D01*
X444998Y145000D01*
X446997D01*
X447997Y146000D01*
Y146999D01*
X446997Y147999D01*
X443998D01*
X388999Y181998D02*
X387999Y182998D01*
X386000D01*
X385000Y181998D01*
Y178000D01*
X386000Y177000D01*
X387999D01*
X388999Y178000D01*
X394997Y182998D02*
X390998D01*
Y179999D01*
X392997Y180999D01*
X393997D01*
X394997Y179999D01*
Y178000D01*
X393997Y177000D01*
X391998D01*
X390998Y178000D01*
X368002Y237999D02*
X367002Y236999D01*
Y235000D01*
X368002Y234000D01*
X372000D01*
X373000Y235000D01*
Y236999D01*
X372000Y237999D01*
X373000Y242997D02*
X367002D01*
X370001Y239998D01*
Y243997D01*
X462002Y238999D02*
X461002Y237999D01*
Y236000D01*
X462002Y235000D01*
X466000D01*
X467000Y236000D01*
Y237999D01*
X466000Y238999D01*
X462002Y240998D02*
X461002Y241998D01*
Y243997D01*
X462002Y244997D01*
X463001D01*
X464001Y243997D01*
Y242997D01*
Y243997D01*
X465001Y244997D01*
X466000D01*
X467000Y243997D01*
Y241998D01*
X466000Y240998D01*
X207002Y242999D02*
X206002Y241999D01*
Y240000D01*
X207002Y239000D01*
X211000D01*
X212000Y240000D01*
Y241999D01*
X211000Y242999D01*
X212000Y248997D02*
Y244998D01*
X208001Y248997D01*
X207002D01*
X206002Y247997D01*
Y245998D01*
X207002Y244998D01*
X197002Y242999D02*
X196002Y241999D01*
Y240000D01*
X197002Y239000D01*
X201000D01*
X202000Y240000D01*
Y241999D01*
X201000Y242999D01*
X202000Y244998D02*
Y246997D01*
Y245998D01*
X196002D01*
X197002Y244998D01*
D11*
X414976Y138189D02*
X414238Y138615D01*
Y137763D01*
X414976Y138189D01*
X128437Y148094D02*
X127699Y148521D01*
Y147668D01*
X128437Y148094D01*
X212339Y297122D02*
X211600Y297548D01*
Y296696D01*
X212339Y297122D01*
D12*
X124913Y138449D02*
X124469Y139372D01*
X123469Y139600D01*
X122668Y138961D01*
Y137936D01*
X123469Y137297D01*
X124469Y137525D01*
X124913Y138449D01*
X207890Y288165D02*
X207445Y289089D01*
X206446Y289317D01*
X205644Y288678D01*
Y287653D01*
X206446Y287014D01*
X207445Y287242D01*
X207890Y288165D01*
D13*
X420291Y111811D02*
Y138189D01*
X431709Y111811D02*
Y138189D01*
X420291D02*
X431709D01*
X420291Y111811D02*
X431709D01*
X86331Y115614D02*
Y142386D01*
X127669Y115614D02*
Y142386D01*
X86331Y115614D02*
X127669D01*
X86331Y142386D02*
X127669D01*
X140858Y122142D02*
Y192142D01*
X380858D01*
Y122142D02*
Y192142D01*
X140858Y122142D02*
X380858D01*
X140858Y152142D02*
X145858D01*
Y162142D01*
X140858D02*
X145858D01*
X191354Y292102D02*
X210646D01*
X191354Y279898D02*
X210646D01*
Y292102D01*
X191354Y279898D02*
Y292102D01*
M02*
