G04*
G04 #@! TF.GenerationSoftware,Altium Limited,Altium Designer,19.1.8 (144)*
G04*
G04 Layer_Color=32768*
%FSLAX25Y25*%
%MOIN*%
G70*
G01*
G75*
%ADD10C,0.01000*%
%ADD52C,0.00394*%
%ADD53C,0.00197*%
D10*
X26858Y-858D02*
Y43142D01*
Y-858D02*
X83358D01*
Y85642D01*
X26858D02*
X83358D01*
X26858Y42642D02*
Y85642D01*
X90858Y-858D02*
Y43142D01*
Y-858D02*
X147358D01*
Y85642D01*
X90858D02*
X147358D01*
X90858Y42642D02*
Y85642D01*
D52*
X424031Y125000D02*
X427969D01*
X426000Y123031D02*
Y126969D01*
X183500Y254673D02*
Y258610D01*
X181532Y256642D02*
X185468D01*
X105032Y129000D02*
X108968D01*
X107000Y127032D02*
Y130968D01*
X201000Y284032D02*
Y287968D01*
X199031Y286000D02*
X202969D01*
X123673Y217000D02*
X127610D01*
X125642Y215032D02*
Y218969D01*
X123673Y208000D02*
X127610D01*
X125642Y206031D02*
Y209968D01*
X173000Y254673D02*
Y258610D01*
X171031Y256642D02*
X174969D01*
X43000Y96673D02*
Y100610D01*
X41032Y98642D02*
X44969D01*
X409673Y165000D02*
X413610D01*
X411642Y163031D02*
Y166969D01*
X388673Y165000D02*
X392610D01*
X390642Y163032D02*
Y166969D01*
X427390Y165000D02*
X431327D01*
X429358Y163031D02*
Y166968D01*
X93032Y168642D02*
X96969D01*
X95000Y166673D02*
Y170610D01*
X132642Y96032D02*
Y99969D01*
X130673Y98000D02*
X134610D01*
X266358Y7031D02*
Y10968D01*
X264390Y9000D02*
X268327D01*
X419642Y219032D02*
Y222969D01*
X417673Y221000D02*
X421610D01*
X429642Y155031D02*
Y158968D01*
X427673Y157000D02*
X431610D01*
X429642Y146031D02*
Y149968D01*
X427673Y148000D02*
X431610D01*
X404358Y178032D02*
Y181969D01*
X402390Y180000D02*
X406327D01*
X207032Y257358D02*
X210969D01*
X209000Y255390D02*
Y259327D01*
X197032Y257358D02*
X200969D01*
X199000Y255390D02*
Y259327D01*
D53*
X409268Y110827D02*
Y139173D01*
X442732Y110827D02*
Y139173D01*
X409268D02*
X442732D01*
X409268Y110827D02*
X442732D01*
X179957Y263335D02*
X187043D01*
X179957Y249949D02*
X187043D01*
Y263335D01*
X179957Y249949D02*
Y263335D01*
X84362Y103902D02*
Y154098D01*
X129638Y103902D02*
Y154098D01*
X84362Y103902D02*
X129638D01*
X84362Y154098D02*
X129638D01*
X190370Y301551D02*
X211630D01*
X190370Y270449D02*
X211630D01*
Y301551D01*
X190370Y270449D02*
Y301551D01*
X132335Y213457D02*
Y220543D01*
X118949Y213457D02*
Y220543D01*
X132335D01*
X118949Y213457D02*
X132335D01*
Y204457D02*
Y211543D01*
X118949Y204457D02*
Y211543D01*
X132335D01*
X118949Y204457D02*
X132335D01*
X169457Y249949D02*
X176543D01*
X169457Y263335D02*
X176543D01*
X169457Y249949D02*
Y263335D01*
X176543Y249949D02*
Y263335D01*
X39457Y91949D02*
X46543D01*
X39457Y105335D02*
X46543D01*
X39457Y91949D02*
Y105335D01*
X46543Y91949D02*
Y105335D01*
X404949Y161457D02*
Y168543D01*
X418335Y161457D02*
Y168543D01*
X404949D02*
X418335D01*
X404949Y161457D02*
X418335D01*
X383949Y161457D02*
Y168543D01*
X397335Y161457D02*
Y168543D01*
X383949D02*
X397335D01*
X383949Y161457D02*
X397335D01*
X422665Y161457D02*
Y168543D01*
X436051Y161457D02*
Y168543D01*
X422665D02*
X436051D01*
X422665Y161457D02*
X436051D01*
X98740Y161949D02*
Y175335D01*
X91260Y161949D02*
Y175335D01*
X98740D01*
X91260Y161949D02*
X98740D01*
X125949Y101740D02*
X139335D01*
X125949Y94260D02*
X139335D01*
X125949D02*
Y101740D01*
X139335Y94260D02*
Y101740D01*
X259665Y12740D02*
X273051D01*
X259665Y5260D02*
X273051D01*
X259665D02*
Y12740D01*
X273051Y5260D02*
Y12740D01*
X412949Y217260D02*
X426335D01*
X412949Y224740D02*
X426335D01*
Y217260D02*
Y224740D01*
X412949Y217260D02*
Y224740D01*
X422949Y153260D02*
X436335D01*
X422949Y160740D02*
X436335D01*
Y153260D02*
Y160740D01*
X422949Y153260D02*
Y160740D01*
X422949Y144260D02*
X436335D01*
X422949Y151740D02*
X436335D01*
Y144260D02*
Y151740D01*
X422949Y144260D02*
Y151740D01*
X397666Y183740D02*
X411051D01*
X397666Y176260D02*
X411051D01*
X397666D02*
Y183740D01*
X411051Y176260D02*
Y183740D01*
X205260Y250665D02*
Y264051D01*
X212740Y250665D02*
Y264051D01*
X205260Y250665D02*
X212740D01*
X205260Y264051D02*
X212740D01*
X195260Y250665D02*
Y264051D01*
X202740Y250665D02*
Y264051D01*
X195260Y250665D02*
X202740D01*
X195260Y264051D02*
X202740D01*
M02*
