%TF.GenerationSoftware,Altium Limited,Altium Designer,19.1.8 (144)*%
G04 Layer_Color=2752767*
%FSLAX26Y26*%
%MOIN*%
%TF.FileFunction,Drawing*%
%TF.Part,Single*%
G01*
G75*
%TA.AperFunction,NonConductor*%
%ADD71C,0.005000*%
%ADD72C,0.006667*%
D71*
X1438583Y1251417D02*
Y1291417D01*
X1478583D01*
Y1251417D01*
X1438583D01*
X1538583D02*
Y1291417D01*
X1578583D01*
Y1251417D01*
X1538583D01*
X1638583D02*
Y1291417D01*
X1678583D01*
Y1251417D01*
X1638583D01*
X1738583D02*
Y1291417D01*
X1778583D01*
Y1251417D01*
X1738583D01*
X1838583D02*
Y1291417D01*
X1878583D01*
Y1251417D01*
X1838583D01*
X1938583D02*
Y1291417D01*
X1978583D01*
Y1251417D01*
X1938583D01*
X2038583D02*
Y1291417D01*
X2078583D01*
Y1251417D01*
X2038583D01*
X2138583D02*
Y1291417D01*
X2178583D01*
Y1251417D01*
X2138583D01*
X2238583D02*
Y1291417D01*
X2278583D01*
Y1251417D01*
X2238583D01*
X2338583D02*
Y1291417D01*
X2378583D01*
Y1251417D01*
X2338583D01*
X2438583D02*
Y1291417D01*
X2478583D01*
Y1251417D01*
X2438583D01*
X2538583D02*
Y1291417D01*
X2578583D01*
Y1251417D01*
X2538583D01*
X2638583D02*
Y1291417D01*
X2678583D01*
Y1251417D01*
X2638583D01*
X2738583D02*
Y1291417D01*
X2778583D01*
Y1251417D01*
X2738583D01*
Y1851417D02*
Y1891417D01*
X2778583D01*
Y1851417D01*
X2738583D01*
X2638583D02*
Y1891417D01*
X2678583D01*
Y1851417D01*
X2638583D01*
X2538583D02*
Y1891417D01*
X2578583D01*
Y1851417D01*
X2538583D01*
X2438583D02*
Y1891417D01*
X2478583D01*
Y1851417D01*
X2438583D01*
X2338583D02*
Y1891417D01*
X2378583D01*
Y1851417D01*
X2338583D01*
X2238583D02*
Y1891417D01*
X2278583D01*
Y1851417D01*
X2238583D01*
X2138583D02*
Y1891417D01*
X2178583D01*
Y1851417D01*
X2138583D01*
X2038583D02*
Y1891417D01*
X2078583D01*
Y1851417D01*
X2038583D01*
X1938583D02*
Y1891417D01*
X1978583D01*
Y1851417D01*
X1938583D01*
X1838583D02*
Y1891417D01*
X1878583D01*
Y1851417D01*
X1838583D01*
X1738583D02*
Y1891417D01*
X1778583D01*
Y1851417D01*
X1738583D01*
X2938583Y1251417D02*
Y1291417D01*
X2978583D01*
Y1251417D01*
X2938583D01*
X3038583D02*
Y1291417D01*
X3078583D01*
Y1251417D01*
X3038583D01*
X3138583D02*
Y1291417D01*
X3178583D01*
Y1251417D01*
X3138583D01*
X3238583D02*
Y1291417D01*
X3278583D01*
Y1251417D01*
X3238583D01*
X3338583D02*
Y1291417D01*
X3378583D01*
Y1251417D01*
X3338583D01*
X3438583D02*
Y1291417D01*
X3478583D01*
Y1251417D01*
X3438583D01*
X3538583D02*
Y1291417D01*
X3578583D01*
Y1251417D01*
X3538583D01*
X3638583D02*
Y1291417D01*
X3678583D01*
Y1251417D01*
X3638583D01*
X3738583D02*
Y1291417D01*
X3778583D01*
Y1251417D01*
X3738583D01*
Y1851417D02*
Y1891417D01*
X3778583D01*
Y1851417D01*
X3738583D01*
X3638583D02*
Y1891417D01*
X3678583D01*
Y1851417D01*
X3638583D01*
X3538583D02*
Y1891417D01*
X3578583D01*
Y1851417D01*
X3538583D01*
X3438583D02*
Y1891417D01*
X3478583D01*
Y1851417D01*
X3438583D01*
X3338583D02*
Y1891417D01*
X3378583D01*
Y1851417D01*
X3338583D01*
X3238583D02*
Y1891417D01*
X3278583D01*
Y1851417D01*
X3238583D01*
X3138583D02*
Y1891417D01*
X3178583D01*
Y1851417D01*
X3138583D01*
X2838583Y1251417D02*
Y1291417D01*
X2878583D01*
Y1251417D01*
X2838583D01*
X1638583Y1851417D02*
Y1891417D01*
X1678583D01*
Y1851417D01*
X1638583D01*
X1538583D02*
Y1891417D01*
X1578583D01*
Y1851417D01*
X1538583D01*
X1438583D02*
Y1891417D01*
X1478583D01*
Y1851417D01*
X1438583D01*
X2838583D02*
Y1891417D01*
X2878583D01*
Y1851417D01*
X2838583D01*
X2938583D02*
Y1891417D01*
X2978583D01*
Y1851417D01*
X2938583D01*
X3038583D02*
Y1891417D01*
X3078583D01*
Y1851417D01*
X3038583D01*
X3960000Y1440000D02*
X3940000Y1480000D01*
X3980000D01*
X3960000Y1440000D01*
Y1340000D02*
X3940000Y1380000D01*
X3980000D01*
X3960000Y1340000D01*
Y1240000D02*
X3940000Y1280000D01*
X3980000D01*
X3960000Y1240000D01*
X290000Y2450000D02*
X270000Y2490000D01*
X310000D01*
X290000Y2450000D01*
Y2150000D02*
X270000Y2190000D01*
X310000D01*
X290000Y2150000D01*
Y2050000D02*
X270000Y2090000D01*
X310000D01*
X290000Y2050000D01*
Y2250000D02*
X270000Y2290000D01*
X310000D01*
X290000Y2250000D01*
Y2350000D02*
X270000Y2390000D01*
X310000D01*
X290000Y2350000D01*
X430000Y2450000D02*
X410000Y2490000D01*
X450000D01*
X430000Y2450000D01*
Y2150000D02*
X410000Y2190000D01*
X450000D01*
X430000Y2150000D01*
Y2050000D02*
X410000Y2090000D01*
X450000D01*
X430000Y2050000D01*
Y2250000D02*
X410000Y2290000D01*
X450000D01*
X430000Y2250000D01*
Y2350000D02*
X410000Y2390000D01*
X450000D01*
X430000Y2350000D01*
X570000Y2450000D02*
X550000Y2490000D01*
X590000D01*
X570000Y2450000D01*
Y2150000D02*
X550000Y2190000D01*
X590000D01*
X570000Y2150000D01*
Y2050000D02*
X550000Y2090000D01*
X590000D01*
X570000Y2050000D01*
Y2250000D02*
X550000Y2290000D01*
X590000D01*
X570000Y2250000D01*
Y2350000D02*
X550000Y2390000D01*
X590000D01*
X570000Y2350000D01*
X710000Y2450000D02*
X690000Y2490000D01*
X730000D01*
X710000Y2450000D01*
Y2150000D02*
X690000Y2190000D01*
X730000D01*
X710000Y2150000D01*
Y2050000D02*
X690000Y2090000D01*
X730000D01*
X710000Y2050000D01*
Y2250000D02*
X690000Y2290000D01*
X730000D01*
X710000Y2250000D01*
Y2350000D02*
X690000Y2390000D01*
X730000D01*
X710000Y2350000D01*
X850000Y2450000D02*
X830000Y2490000D01*
X870000D01*
X850000Y2450000D01*
Y2150000D02*
X830000Y2190000D01*
X870000D01*
X850000Y2150000D01*
Y2050000D02*
X830000Y2090000D01*
X870000D01*
X850000Y2050000D01*
Y2250000D02*
X830000Y2290000D01*
X870000D01*
X850000Y2250000D01*
Y2350000D02*
X830000Y2390000D01*
X870000D01*
X850000Y2350000D01*
X990000Y2450000D02*
X970000Y2490000D01*
X1010000D01*
X990000Y2450000D01*
Y2150000D02*
X970000Y2190000D01*
X1010000D01*
X990000Y2150000D01*
Y2050000D02*
X970000Y2090000D01*
X1010000D01*
X990000Y2050000D01*
Y2250000D02*
X970000Y2290000D01*
X1010000D01*
X990000Y2250000D01*
Y2350000D02*
X970000Y2390000D01*
X1010000D01*
X990000Y2350000D01*
X4300000Y3023465D02*
X4310000Y3033465D01*
X4320000D01*
X4310000Y3043465D01*
X4320000Y3053465D01*
X4310000D01*
X4300000Y3063465D01*
X4290000Y3053465D01*
X4280000D01*
X4290000Y3043465D01*
X4280000Y3033465D01*
X4290000D01*
X4300000Y3023465D01*
Y2740000D02*
X4310000Y2750000D01*
X4320000D01*
X4310000Y2760000D01*
X4320000Y2770000D01*
X4310000D01*
X4300000Y2780000D01*
X4290000Y2770000D01*
X4280000D01*
X4290000Y2760000D01*
X4280000Y2750000D01*
X4290000D01*
X4300000Y2740000D01*
X658583Y656417D02*
X668583Y676417D01*
X658583Y696417D01*
X678583Y686417D01*
X698583Y696417D01*
X688583Y676417D01*
X698583Y656417D01*
X678583Y666417D01*
X658583Y656417D01*
X558583D02*
X568583Y676417D01*
X558583Y696417D01*
X578583Y686417D01*
X598583Y696417D01*
X588583Y676417D01*
X598583Y656417D01*
X578583Y666417D01*
X558583Y656417D01*
X458583D02*
X468583Y676417D01*
X458583Y696417D01*
X478583Y686417D01*
X498583Y696417D01*
X488583Y676417D01*
X498583Y656417D01*
X478583Y666417D01*
X458583Y656417D01*
X608583Y756417D02*
X618583Y776417D01*
X608583Y796417D01*
X628583Y786417D01*
X648583Y796417D01*
X638583Y776417D01*
X648583Y756417D01*
X628583Y766417D01*
X608583Y756417D01*
X508583D02*
X518583Y776417D01*
X508583Y796417D01*
X528583Y786417D01*
X548583Y796417D01*
X538583Y776417D01*
X548583Y756417D01*
X528583Y766417D01*
X508583Y756417D01*
X408583D02*
X418583Y776417D01*
X408583Y796417D01*
X428583Y786417D01*
X448583Y796417D01*
X438583Y776417D01*
X448583Y756417D01*
X428583Y766417D01*
X408583Y756417D01*
X743583Y416417D02*
Y406417D01*
X763583D01*
Y416417D01*
X773583D01*
Y436417D01*
X763583D01*
Y446417D01*
X743583D01*
Y436417D01*
X733583D01*
Y416417D01*
X743583D01*
X343583D02*
Y406417D01*
X363583D01*
Y416417D01*
X373583D01*
Y436417D01*
X363583D01*
Y446417D01*
X343583D01*
Y436417D01*
X333583D01*
Y416417D01*
X343583D01*
X1298583Y656417D02*
X1308583Y676417D01*
X1298583Y696417D01*
X1318583Y686417D01*
X1338583Y696417D01*
X1328583Y676417D01*
X1338583Y656417D01*
X1318583Y666417D01*
X1298583Y656417D01*
X1198583D02*
X1208583Y676417D01*
X1198583Y696417D01*
X1218583Y686417D01*
X1238583Y696417D01*
X1228583Y676417D01*
X1238583Y656417D01*
X1218583Y666417D01*
X1198583Y656417D01*
X1098583D02*
X1108583Y676417D01*
X1098583Y696417D01*
X1118583Y686417D01*
X1138583Y696417D01*
X1128583Y676417D01*
X1138583Y656417D01*
X1118583Y666417D01*
X1098583Y656417D01*
X1248583Y756417D02*
X1258583Y776417D01*
X1248583Y796417D01*
X1268583Y786417D01*
X1288583Y796417D01*
X1278583Y776417D01*
X1288583Y756417D01*
X1268583Y766417D01*
X1248583Y756417D01*
X1148583D02*
X1158583Y776417D01*
X1148583Y796417D01*
X1168583Y786417D01*
X1188583Y796417D01*
X1178583Y776417D01*
X1188583Y756417D01*
X1168583Y766417D01*
X1148583Y756417D01*
X1048583D02*
X1058583Y776417D01*
X1048583Y796417D01*
X1068583Y786417D01*
X1088583Y796417D01*
X1078583Y776417D01*
X1088583Y756417D01*
X1068583Y766417D01*
X1048583Y756417D01*
X1383583Y416417D02*
Y406417D01*
X1403583D01*
Y416417D01*
X1413583D01*
Y436417D01*
X1403583D01*
Y446417D01*
X1383583D01*
Y436417D01*
X1373583D01*
Y416417D01*
X1383583D01*
X983583D02*
Y406417D01*
X1003583D01*
Y416417D01*
X1013583D01*
Y436417D01*
X1003583D01*
Y446417D01*
X983583D01*
Y436417D01*
X973583D01*
Y416417D01*
X983583D01*
X1558583Y2151417D02*
X1538583Y2191417D01*
X1578583D01*
X1558583Y2151417D01*
X1658583D02*
X1638583Y2191417D01*
X1678583D01*
X1658583Y2151417D01*
X1758583D02*
X1738583Y2191417D01*
X1778583D01*
X1758583Y2151417D01*
X1858583D02*
X1838583Y2191417D01*
X1878583D01*
X1858583Y2151417D01*
X2258583D02*
X2238583Y2191417D01*
X2278583D01*
X2258583Y2151417D01*
X2158583D02*
X2138583Y2191417D01*
X2178583D01*
X2158583Y2151417D01*
X2058583D02*
X2038583Y2191417D01*
X2078583D01*
X2058583Y2151417D01*
X1958583D02*
X1938583Y2191417D01*
X1978583D01*
X1958583Y2151417D01*
X2658583D02*
X2638583Y2191417D01*
X2678583D01*
X2658583Y2151417D01*
X2558583D02*
X2538583Y2191417D01*
X2578583D01*
X2558583Y2151417D01*
X2458583D02*
X2438583Y2191417D01*
X2478583D01*
X2458583Y2151417D01*
X2358583D02*
X2338583Y2191417D01*
X2378583D01*
X2358583Y2151417D01*
X3058583D02*
X3038583Y2191417D01*
X3078583D01*
X3058583Y2151417D01*
X2958583D02*
X2938583Y2191417D01*
X2978583D01*
X2958583Y2151417D01*
X2858583D02*
X2838583Y2191417D01*
X2878583D01*
X2858583Y2151417D01*
X2758583D02*
X2738583Y2191417D01*
X2778583D01*
X2758583Y2151417D01*
X3458583D02*
X3438583Y2191417D01*
X3478583D01*
X3458583Y2151417D01*
X3558583D02*
X3538583Y2191417D01*
X3578583D01*
X3558583Y2151417D01*
X3658583D02*
X3638583Y2191417D01*
X3678583D01*
X3658583Y2151417D01*
X3758583D02*
X3738583Y2191417D01*
X3778583D01*
X3758583Y2151417D01*
X3158583D02*
X3138583Y2191417D01*
X3178583D01*
X3158583Y2151417D01*
X3258583D02*
X3238583Y2191417D01*
X3278583D01*
X3258583Y2151417D01*
X3358583D02*
X3338583Y2191417D01*
X3378583D01*
X3358583Y2151417D01*
X1458583D02*
X1438583Y2191417D01*
X1478583D01*
X1458583Y2151417D01*
X330000Y1120000D02*
X310000Y1160000D01*
X350000D01*
X330000Y1120000D01*
X430000D02*
X410000Y1160000D01*
X450000D01*
X430000Y1120000D01*
X530000D02*
X510000Y1160000D01*
X550000D01*
X530000Y1120000D01*
X3603583Y3024882D02*
X3613583Y3034882D01*
X3623583D01*
X3613583Y3044882D01*
X3623583Y3054882D01*
X3613583D01*
X3603583Y3064882D01*
X3593583Y3054882D01*
X3583583D01*
X3593583Y3044882D01*
X3583583Y3034882D01*
X3593583D01*
X3603583Y3024882D01*
Y2741417D02*
X3613583Y2751417D01*
X3623583D01*
X3613583Y2761417D01*
X3623583Y2771417D01*
X3613583D01*
X3603583Y2781417D01*
X3593583Y2771417D01*
X3583583D01*
X3593583Y2761417D01*
X3583583Y2751417D01*
X3593583D01*
X3603583Y2741417D01*
X1308780Y3016417D02*
X1318780Y3026417D01*
X1328780D01*
X1318780Y3036417D01*
X1328780Y3046417D01*
X1318780D01*
X1308780Y3056417D01*
X1298780Y3046417D01*
X1288780D01*
X1298780Y3036417D01*
X1288780Y3026417D01*
X1298780D01*
X1308780Y3016417D01*
Y2732953D02*
X1318780Y2742953D01*
X1328780D01*
X1318780Y2752953D01*
X1328780Y2762953D01*
X1318780D01*
X1308780Y2772953D01*
X1298780Y2762953D01*
X1288780D01*
X1298780Y2752953D01*
X1288780Y2742953D01*
X1298780D01*
X1308780Y2732953D01*
X2678780Y3021417D02*
X2688780Y3031417D01*
X2698780D01*
X2688780Y3041417D01*
X2698780Y3051417D01*
X2688780D01*
X2678780Y3061417D01*
X2668780Y3051417D01*
X2658780D01*
X2668780Y3041417D01*
X2658780Y3031417D01*
X2668780D01*
X2678780Y3021417D01*
Y2737953D02*
X2688780Y2747953D01*
X2698780D01*
X2688780Y2757953D01*
X2698780Y2767953D01*
X2688780D01*
X2678780Y2777953D01*
X2668780Y2767953D01*
X2658780D01*
X2668780Y2757953D01*
X2658780Y2747953D01*
X2668780D01*
X2678780Y2737953D01*
X4600000Y3220000D02*
X4610000D01*
X4620000Y3230000D01*
X4630000Y3220000D01*
X4640000D01*
Y3230000D01*
X4630000Y3240000D01*
X4640000Y3250000D01*
Y3260000D01*
X4630000D01*
X4620000Y3250000D01*
X4610000Y3260000D01*
X4600000D01*
Y3250000D01*
X4610000Y3240000D01*
X4600000Y3230000D01*
Y3220000D01*
Y110000D02*
X4610000D01*
X4620000Y120000D01*
X4630000Y110000D01*
X4640000D01*
Y120000D01*
X4630000Y130000D01*
X4640000Y140000D01*
Y150000D01*
X4630000D01*
X4620000Y140000D01*
X4610000Y150000D01*
X4600000D01*
Y140000D01*
X4610000Y130000D01*
X4600000Y120000D01*
Y110000D01*
X130000D02*
X140000D01*
X150000Y120000D01*
X160000Y110000D01*
X170000D01*
Y120000D01*
X160000Y130000D01*
X170000Y140000D01*
Y150000D01*
X160000D01*
X150000Y140000D01*
X140000Y150000D01*
X130000D01*
Y140000D01*
X140000Y130000D01*
X130000Y120000D01*
Y110000D01*
X140000Y3220000D02*
X150000D01*
X160000Y3230000D01*
X170000Y3220000D01*
X180000D01*
Y3230000D01*
X170000Y3240000D01*
X180000Y3250000D01*
Y3260000D01*
X170000D01*
X160000Y3250000D01*
X150000Y3260000D01*
X140000D01*
Y3250000D01*
X150000Y3240000D01*
X140000Y3230000D01*
Y3220000D01*
X4240000Y1160000D02*
X4260000Y1180000D01*
X4280000Y1160000D01*
X4260000Y1140000D01*
X4240000Y1160000D01*
Y1220000D02*
X4260000Y1240000D01*
X4280000Y1220000D01*
X4260000Y1200000D01*
X4240000Y1220000D01*
Y1280000D02*
X4260000Y1300000D01*
X4280000Y1280000D01*
X4260000Y1260000D01*
X4240000Y1280000D01*
Y1340000D02*
X4260000Y1360000D01*
X4280000Y1340000D01*
X4260000Y1320000D01*
X4240000Y1340000D01*
X1350000Y1440000D02*
X1370000Y1460000D01*
X1390000Y1440000D01*
X1370000Y1420000D01*
X1350000Y1440000D01*
X930000Y1560000D02*
X950000Y1580000D01*
X970000Y1560000D01*
X950000Y1540000D01*
X930000Y1560000D01*
X1780000Y1620000D02*
X1800000Y1640000D01*
X1820000Y1620000D01*
X1800000Y1600000D01*
X1780000Y1620000D01*
X980000Y980000D02*
X1000000Y1000000D01*
X1020000Y980000D01*
X1000000Y960000D01*
X980000Y980000D01*
X1525000Y1715000D02*
X1545000Y1735000D01*
X1565000Y1715000D01*
X1545000Y1695000D01*
X1525000Y1715000D01*
X2170000Y2540000D02*
X2190000Y2560000D01*
X2210000Y2540000D01*
X2190000Y2520000D01*
X2170000Y2540000D01*
D72*
X2678583Y271417D02*
G03*
X2678583Y271417I-20000J0D01*
G01*
X2578583D02*
G03*
X2578583Y271417I-20000J0D01*
G01*
X2678583Y921417D02*
G03*
X2678583Y921417I-20000J0D01*
G01*
X2578583D02*
G03*
X2578583Y921417I-20000J0D01*
G01*
X2878583Y271417D02*
G03*
X2878583Y271417I-20000J0D01*
G01*
X2778583D02*
G03*
X2778583Y271417I-20000J0D01*
G01*
X2878583Y921417D02*
G03*
X2878583Y921417I-20000J0D01*
G01*
X2778583D02*
G03*
X2778583Y921417I-20000J0D01*
G01*
X3078583Y271417D02*
G03*
X3078583Y271417I-20000J0D01*
G01*
X2978583D02*
G03*
X2978583Y271417I-20000J0D01*
G01*
X3078583Y921417D02*
G03*
X3078583Y921417I-20000J0D01*
G01*
X2978583D02*
G03*
X2978583Y921417I-20000J0D01*
G01*
X3178583D02*
G03*
X3178583Y921417I-20000J0D01*
G01*
X3278583D02*
G03*
X3278583Y921417I-20000J0D01*
G01*
X3178583Y271417D02*
G03*
X3178583Y271417I-20000J0D01*
G01*
X3278583D02*
G03*
X3278583Y271417I-20000J0D01*
G01*
%TF.MD5,1a1ee78cb7808966c5800798bab76b9e*%
M02*
