%TF.GenerationSoftware,Altium Limited,Altium Designer,19.1.8 (144)*%
G04 Layer_Color=16711935*
%FSLAX26Y26*%
%MOIN*%
%TF.FileFunction,Soldermask,Bot*%
%TF.Part,Single*%
G01*
G75*
%TA.AperFunction,SMDPad,CuDef*%
%ADD35R,0.049339X0.059181*%
%TA.AperFunction,ComponentPad*%
%ADD36C,0.068000*%
%ADD37R,0.068000X0.068000*%
%ADD38C,0.244220*%
%ADD39R,0.068000X0.068000*%
%TA.AperFunction,WasherPad*%
%ADD40C,0.068000*%
%TA.AperFunction,ViaPad*%
%ADD41C,0.058000*%
D35*
X1292835Y2170000D02*
D03*
X1220000D02*
D03*
X1292835Y2080000D02*
D03*
X1220000D02*
D03*
D36*
X1458583Y1271417D02*
D03*
X1558583D02*
D03*
X1658583D02*
D03*
X1758583D02*
D03*
X1858583D02*
D03*
X1958583D02*
D03*
X2058583D02*
D03*
X2158583D02*
D03*
X2258583D02*
D03*
X2358583D02*
D03*
X2458583D02*
D03*
X2558583D02*
D03*
X2658583D02*
D03*
X2758583D02*
D03*
Y1871417D02*
D03*
X2658583D02*
D03*
X2558583D02*
D03*
X2458583D02*
D03*
X2358583D02*
D03*
X2258583D02*
D03*
X2158583D02*
D03*
X2058583D02*
D03*
X1958583D02*
D03*
X1858583D02*
D03*
X1758583D02*
D03*
X2958583Y1271417D02*
D03*
X3058583D02*
D03*
X3158583D02*
D03*
X3258583D02*
D03*
X3358583D02*
D03*
X3458583D02*
D03*
X3558583D02*
D03*
X3658583D02*
D03*
X3758583D02*
D03*
Y1871417D02*
D03*
X3658583D02*
D03*
X3558583D02*
D03*
X3458583D02*
D03*
X3358583D02*
D03*
X3258583D02*
D03*
X3158583D02*
D03*
X2858583Y1271417D02*
D03*
X1658583Y1871417D02*
D03*
X1558583D02*
D03*
X1458583D02*
D03*
X2858583D02*
D03*
X2958583D02*
D03*
X3058583D02*
D03*
X2658583Y271417D02*
D03*
X2558583D02*
D03*
X2658583Y921417D02*
D03*
X2558583D02*
D03*
X2858583Y271417D02*
D03*
X2758583D02*
D03*
X2858583Y921417D02*
D03*
X2758583D02*
D03*
X3058583Y271417D02*
D03*
X2958583D02*
D03*
X3058583Y921417D02*
D03*
X2958583D02*
D03*
X3158583D02*
D03*
X3258583D02*
D03*
X3158583Y271417D02*
D03*
X3258583D02*
D03*
X3960000Y1460000D02*
D03*
Y1360000D02*
D03*
X290000Y2470000D02*
D03*
Y2170000D02*
D03*
Y2270000D02*
D03*
Y2370000D02*
D03*
X430000Y2470000D02*
D03*
Y2170000D02*
D03*
Y2270000D02*
D03*
Y2370000D02*
D03*
X570000Y2470000D02*
D03*
Y2170000D02*
D03*
Y2270000D02*
D03*
Y2370000D02*
D03*
X710000Y2470000D02*
D03*
Y2170000D02*
D03*
Y2270000D02*
D03*
Y2370000D02*
D03*
X850000Y2470000D02*
D03*
Y2170000D02*
D03*
Y2270000D02*
D03*
Y2370000D02*
D03*
X990000Y2470000D02*
D03*
Y2170000D02*
D03*
Y2270000D02*
D03*
Y2370000D02*
D03*
X678583Y676417D02*
D03*
X578583D02*
D03*
X478583D02*
D03*
X628583Y776417D02*
D03*
X528583D02*
D03*
X753583Y426417D02*
D03*
X353583D02*
D03*
X1318583Y676417D02*
D03*
X1218583D02*
D03*
X1118583D02*
D03*
X1268583Y776417D02*
D03*
X1168583D02*
D03*
X1393583Y426417D02*
D03*
X993583D02*
D03*
X1558583Y2171417D02*
D03*
X1658583D02*
D03*
X1758583D02*
D03*
X1858583D02*
D03*
X2258583D02*
D03*
X2158583D02*
D03*
X2058583D02*
D03*
X1958583D02*
D03*
X2658583D02*
D03*
X2558583D02*
D03*
X2458583D02*
D03*
X2358583D02*
D03*
X3058583D02*
D03*
X2958583D02*
D03*
X2858583D02*
D03*
X2758583D02*
D03*
X3458583D02*
D03*
X3558583D02*
D03*
X3658583D02*
D03*
X3158583D02*
D03*
X3258583D02*
D03*
X3358583D02*
D03*
X1458583D02*
D03*
X330000Y1140000D02*
D03*
X430000D02*
D03*
D37*
X3960000Y1260000D02*
D03*
X290000Y2070000D02*
D03*
X430000D02*
D03*
X570000D02*
D03*
X710000D02*
D03*
X850000D02*
D03*
X990000D02*
D03*
D38*
X4300000Y3043465D02*
D03*
Y2760000D02*
D03*
X3603583Y3044882D02*
D03*
Y2761417D02*
D03*
X1308780Y3036417D02*
D03*
Y2752953D02*
D03*
X2678780Y3041417D02*
D03*
Y2757953D02*
D03*
D39*
X428583Y776417D02*
D03*
X1068583D02*
D03*
X3758583Y2171417D02*
D03*
X530000Y1140000D02*
D03*
D40*
X4620000Y3240000D02*
D03*
Y130000D02*
D03*
X150000D02*
D03*
X160000Y3240000D02*
D03*
D41*
X4260000Y1160000D02*
D03*
Y1220000D02*
D03*
Y1280000D02*
D03*
Y1340000D02*
D03*
X1370000Y1440000D02*
D03*
X950000Y1560000D02*
D03*
X1800000Y1620000D02*
D03*
X1000000Y980000D02*
D03*
X1545000Y1715000D02*
D03*
X2190000Y2540000D02*
D03*
%TF.MD5,1d2030edb86ef5041ee1370e31efcab4*%
M02*
