G04*
G04 #@! TF.GenerationSoftware,Altium Limited,Altium Designer,20.0.12 (288)*
G04*
G04 Layer_Physical_Order=1*
G04 Layer_Color=255*
%FSLAX25Y25*%
%MOIN*%
G70*
G01*
G75*
%ADD10C,0.01000*%
%ADD12R,0.05118X0.04134*%
%ADD13R,0.04331X0.04921*%
%ADD14R,0.05512X0.04134*%
%ADD21C,0.02000*%
%ADD22C,0.05906*%
%ADD23R,0.05906X0.05906*%
%ADD24C,0.01000*%
%ADD25C,0.02362*%
G36*
X251969Y232283D02*
X271654D01*
Y23622D01*
X248031D01*
Y3937D01*
X207871D01*
X207838Y4437D01*
X207968Y4454D01*
X208881Y4832D01*
X209665Y5434D01*
X210266Y6218D01*
X210644Y7131D01*
X210773Y8110D01*
X210644Y9090D01*
X210266Y10003D01*
X209665Y10787D01*
X208881Y11388D01*
X207968Y11766D01*
X206988Y11895D01*
X206009Y11766D01*
X205096Y11388D01*
X204312Y10787D01*
X203710Y10003D01*
X203475Y9436D01*
X176741D01*
X176506Y10003D01*
X175905Y10787D01*
X175121Y11388D01*
X174208Y11766D01*
X173228Y11895D01*
X172249Y11766D01*
X171336Y11388D01*
X170552Y10787D01*
X169950Y10003D01*
X169572Y9090D01*
X169443Y8110D01*
X169572Y7131D01*
X169950Y6218D01*
X170552Y5434D01*
X171336Y4832D01*
X172249Y4454D01*
X172378Y4437D01*
X172346Y3937D01*
X114111D01*
X114078Y4437D01*
X114208Y4454D01*
X115121Y4832D01*
X115905Y5434D01*
X116506Y6218D01*
X116885Y7131D01*
X117014Y8110D01*
X116885Y9090D01*
X116506Y10003D01*
X115905Y10787D01*
X115121Y11388D01*
X114208Y11766D01*
X113228Y11895D01*
X112249Y11766D01*
X111336Y11388D01*
X110552Y10787D01*
X109950Y10003D01*
X109572Y9090D01*
X109443Y8110D01*
X109572Y7131D01*
X109950Y6218D01*
X110552Y5434D01*
X111336Y4832D01*
X112249Y4454D01*
X112378Y4437D01*
X112346Y3937D01*
X23622D01*
Y23622D01*
X3937D01*
Y232283D01*
X23622D01*
Y251969D01*
X251969D01*
Y232283D01*
D02*
G37*
G36*
X203710Y6218D02*
X204312Y5434D01*
X205096Y4832D01*
X206009Y4454D01*
X206138Y4437D01*
X206105Y3937D01*
X174111D01*
X174078Y4437D01*
X174208Y4454D01*
X175121Y4832D01*
X175905Y5434D01*
X176506Y6218D01*
X176741Y6785D01*
X203475D01*
X203710Y6218D01*
D02*
G37*
%LPC*%
G36*
X113728Y242031D02*
Y238610D01*
X117149D01*
X117079Y239142D01*
X116681Y240104D01*
X116048Y240929D01*
X115222Y241563D01*
X114260Y241961D01*
X113728Y242031D01*
D02*
G37*
G36*
X112728D02*
X112197Y241961D01*
X111235Y241563D01*
X110409Y240929D01*
X109776Y240104D01*
X109377Y239142D01*
X109307Y238610D01*
X112728D01*
Y242031D01*
D02*
G37*
G36*
X58500Y239921D02*
Y236500D01*
X61921D01*
X61851Y237032D01*
X61453Y237993D01*
X60819Y238819D01*
X59993Y239453D01*
X59032Y239851D01*
X58500Y239921D01*
D02*
G37*
G36*
X48500D02*
Y236500D01*
X51921D01*
X51851Y237032D01*
X51453Y237993D01*
X50819Y238819D01*
X49993Y239453D01*
X49032Y239851D01*
X48500Y239921D01*
D02*
G37*
G36*
X57500D02*
X56968Y239851D01*
X56007Y239453D01*
X55181Y238819D01*
X54547Y237993D01*
X54149Y237032D01*
X54079Y236500D01*
X57500D01*
Y239921D01*
D02*
G37*
G36*
X47500D02*
X46968Y239851D01*
X46007Y239453D01*
X45181Y238819D01*
X44547Y237993D01*
X44149Y237032D01*
X44079Y236500D01*
X47500D01*
Y239921D01*
D02*
G37*
G36*
X210741Y241863D02*
X203235D01*
Y234358D01*
X210741D01*
Y241863D01*
D02*
G37*
G36*
X173228Y241895D02*
X172249Y241766D01*
X171336Y241388D01*
X170552Y240787D01*
X169950Y240003D01*
X169572Y239090D01*
X169443Y238110D01*
X169572Y237131D01*
X169950Y236218D01*
X170552Y235434D01*
X171336Y234832D01*
X172249Y234454D01*
X173228Y234325D01*
X174208Y234454D01*
X175121Y234832D01*
X175905Y235434D01*
X176506Y236218D01*
X176884Y237131D01*
X177014Y238110D01*
X176884Y239090D01*
X176506Y240003D01*
X175905Y240787D01*
X175121Y241388D01*
X174208Y241766D01*
X173228Y241895D01*
D02*
G37*
G36*
X117149Y237610D02*
X113728D01*
Y234189D01*
X114260Y234259D01*
X115222Y234658D01*
X116048Y235291D01*
X116681Y236117D01*
X117079Y237078D01*
X117149Y237610D01*
D02*
G37*
G36*
X112728D02*
X109307D01*
X109377Y237078D01*
X109776Y236117D01*
X110409Y235291D01*
X111235Y234658D01*
X112197Y234259D01*
X112728Y234189D01*
Y237610D01*
D02*
G37*
G36*
X57500Y235500D02*
X54079D01*
X54149Y234968D01*
X54547Y234007D01*
X55181Y233181D01*
X56007Y232547D01*
X56968Y232149D01*
X57500Y232079D01*
Y235500D01*
D02*
G37*
G36*
X47500D02*
X44079D01*
X44149Y234968D01*
X44547Y234007D01*
X45181Y233181D01*
X46007Y232547D01*
X46968Y232149D01*
X47500Y232079D01*
Y235500D01*
D02*
G37*
G36*
X61921D02*
X58500D01*
Y232079D01*
X59032Y232149D01*
X59993Y232547D01*
X60819Y233181D01*
X61453Y234007D01*
X61851Y234968D01*
X61921Y235500D01*
D02*
G37*
G36*
X51921D02*
X48500D01*
Y232079D01*
X49032Y232149D01*
X49993Y232547D01*
X50819Y233181D01*
X51453Y234007D01*
X51851Y234968D01*
X51921Y235500D01*
D02*
G37*
G36*
X206988Y231895D02*
X206009Y231766D01*
X205096Y231388D01*
X204312Y230787D01*
X203710Y230003D01*
X203686Y229945D01*
X176530D01*
X176506Y230003D01*
X175905Y230787D01*
X175121Y231388D01*
X174208Y231766D01*
X173228Y231895D01*
X172249Y231766D01*
X171336Y231388D01*
X170552Y230787D01*
X169950Y230003D01*
X169572Y229090D01*
X169443Y228110D01*
X169572Y227131D01*
X169950Y226218D01*
X170552Y225434D01*
X171336Y224832D01*
X172249Y224454D01*
X173228Y224325D01*
X174208Y224454D01*
X175121Y224832D01*
X175905Y225434D01*
X176506Y226218D01*
X176530Y226275D01*
X203686D01*
X203710Y226218D01*
X204312Y225434D01*
X205096Y224832D01*
X206009Y224454D01*
X206988Y224325D01*
X207968Y224454D01*
X208881Y224832D01*
X209665Y225434D01*
X210266Y226218D01*
X210644Y227131D01*
X210773Y228110D01*
X210644Y229090D01*
X210266Y230003D01*
X209665Y230787D01*
X208881Y231388D01*
X207968Y231766D01*
X206988Y231895D01*
D02*
G37*
G36*
X82000Y239785D02*
X81020Y239656D01*
X80107Y239278D01*
X79324Y238677D01*
X78722Y237893D01*
X78344Y236980D01*
X78215Y236000D01*
X78344Y235020D01*
X78722Y234107D01*
X79324Y233324D01*
X80107Y232722D01*
X80165Y232698D01*
Y229302D01*
X80107Y229278D01*
X79324Y228677D01*
X78722Y227893D01*
X78698Y227835D01*
X75302D01*
X75278Y227893D01*
X74677Y228677D01*
X73893Y229278D01*
X73835Y229302D01*
Y232698D01*
X73893Y232722D01*
X74677Y233324D01*
X75278Y234107D01*
X75656Y235020D01*
X75785Y236000D01*
X75656Y236980D01*
X75278Y237893D01*
X74677Y238677D01*
X73893Y239278D01*
X72980Y239656D01*
X72000Y239785D01*
X71020Y239656D01*
X70107Y239278D01*
X69323Y238677D01*
X68722Y237893D01*
X68344Y236980D01*
X68215Y236000D01*
X68344Y235020D01*
X68722Y234107D01*
X69323Y233324D01*
X70107Y232722D01*
X70165Y232698D01*
Y229302D01*
X70107Y229278D01*
X69323Y228677D01*
X68722Y227893D01*
X68344Y226980D01*
X68215Y226000D01*
X68344Y225020D01*
X68722Y224107D01*
X69323Y223323D01*
X70107Y222722D01*
X70165Y222698D01*
Y219302D01*
X70107Y219278D01*
X69323Y218676D01*
X68722Y217893D01*
X68344Y216980D01*
X68215Y216000D01*
X68344Y215020D01*
X68722Y214107D01*
X69323Y213323D01*
X70107Y212722D01*
X71020Y212344D01*
X72000Y212215D01*
X72980Y212344D01*
X73893Y212722D01*
X74677Y213323D01*
X75278Y214107D01*
X75656Y215020D01*
X75785Y216000D01*
X75656Y216980D01*
X75278Y217893D01*
X74677Y218676D01*
X73893Y219278D01*
X73835Y219302D01*
Y222698D01*
X73893Y222722D01*
X74677Y223323D01*
X75278Y224107D01*
X75302Y224165D01*
X78698D01*
X78722Y224107D01*
X79324Y223323D01*
X80107Y222722D01*
X80165Y222698D01*
Y219753D01*
X78247D01*
Y212247D01*
X80165D01*
Y177681D01*
X17041Y114558D01*
X16984Y114581D01*
X16004Y114710D01*
X15024Y114581D01*
X14111Y114203D01*
X13327Y113602D01*
X12726Y112818D01*
X12348Y111905D01*
X12219Y110925D01*
X12348Y109945D01*
X12726Y109033D01*
X13327Y108249D01*
X14111Y107647D01*
X15024Y107269D01*
X16004Y107140D01*
X16984Y107269D01*
X17897Y107647D01*
X18680Y108249D01*
X19282Y109033D01*
X19395Y109307D01*
X30444D01*
Y108491D01*
X37556D01*
Y114225D01*
X30444D01*
Y112977D01*
X21305D01*
X21113Y113439D01*
X83298Y175624D01*
X83696Y176219D01*
X83835Y176921D01*
Y212247D01*
X85753D01*
Y219753D01*
X83835D01*
Y222698D01*
X83893Y222722D01*
X84676Y223323D01*
X85278Y224107D01*
X85302Y224165D01*
X97045D01*
X99151Y222060D01*
X99746Y221662D01*
X100448Y221522D01*
X110689D01*
X110859Y221022D01*
X110552Y220787D01*
X109950Y220003D01*
X109572Y219090D01*
X109443Y218110D01*
X109572Y217131D01*
X109950Y216218D01*
X110552Y215434D01*
X111336Y214832D01*
X112249Y214454D01*
X113228Y214325D01*
X114208Y214454D01*
X115121Y214832D01*
X115905Y215434D01*
X116506Y216218D01*
X116885Y217131D01*
X117014Y218110D01*
X116885Y219090D01*
X116506Y220003D01*
X115905Y220787D01*
X115598Y221022D01*
X115768Y221522D01*
X167221D01*
X169596Y219147D01*
X169572Y219090D01*
X169443Y218110D01*
X169572Y217131D01*
X169950Y216218D01*
X170552Y215434D01*
X171336Y214832D01*
X172249Y214454D01*
X173228Y214325D01*
X174208Y214454D01*
X175121Y214832D01*
X175905Y215434D01*
X176506Y216218D01*
X176884Y217131D01*
X177014Y218110D01*
X176884Y219090D01*
X176506Y220003D01*
X175905Y220787D01*
X175121Y221388D01*
X174208Y221766D01*
X173228Y221895D01*
X172249Y221766D01*
X172191Y221743D01*
X169279Y224655D01*
X168683Y225053D01*
X167981Y225193D01*
X116350D01*
X116104Y225693D01*
X116506Y226218D01*
X116885Y227131D01*
X117014Y228110D01*
X116885Y229090D01*
X116506Y230003D01*
X115905Y230787D01*
X115121Y231388D01*
X114208Y231766D01*
X113228Y231895D01*
X112249Y231766D01*
X111336Y231388D01*
X110552Y230787D01*
X109950Y230003D01*
X109572Y229090D01*
X109443Y228110D01*
X109572Y227131D01*
X109950Y226218D01*
X110353Y225693D01*
X110107Y225193D01*
X101208D01*
X99103Y227298D01*
X98508Y227696D01*
X97806Y227835D01*
X85302D01*
X85278Y227893D01*
X84676Y228677D01*
X83893Y229278D01*
X83835Y229302D01*
Y232698D01*
X83893Y232722D01*
X84676Y233324D01*
X85278Y234107D01*
X85656Y235020D01*
X85785Y236000D01*
X85656Y236980D01*
X85278Y237893D01*
X84676Y238677D01*
X83893Y239278D01*
X82980Y239656D01*
X82000Y239785D01*
D02*
G37*
G36*
X58500Y229921D02*
Y226500D01*
X61921D01*
X61851Y227032D01*
X61453Y227993D01*
X60819Y228819D01*
X59993Y229453D01*
X59032Y229851D01*
X58500Y229921D01*
D02*
G37*
G36*
X48500D02*
Y226500D01*
X51921D01*
X51851Y227032D01*
X51453Y227993D01*
X50819Y228819D01*
X49993Y229453D01*
X49032Y229851D01*
X48500Y229921D01*
D02*
G37*
G36*
X57500D02*
X56968Y229851D01*
X56007Y229453D01*
X55181Y228819D01*
X54547Y227993D01*
X54149Y227032D01*
X54079Y226500D01*
X57500D01*
Y229921D01*
D02*
G37*
G36*
X47500D02*
X46968Y229851D01*
X46007Y229453D01*
X45181Y228819D01*
X44547Y227993D01*
X44149Y227032D01*
X44079Y226500D01*
X47500D01*
Y229921D01*
D02*
G37*
G36*
X57500Y225500D02*
X54079D01*
X54149Y224968D01*
X54547Y224007D01*
X55181Y223181D01*
X56007Y222547D01*
X56968Y222149D01*
X57500Y222079D01*
Y225500D01*
D02*
G37*
G36*
X47500D02*
X44079D01*
X44149Y224968D01*
X44547Y224007D01*
X45181Y223181D01*
X46007Y222547D01*
X46968Y222149D01*
X47500Y222079D01*
Y225500D01*
D02*
G37*
G36*
X61921D02*
X58500D01*
Y222079D01*
X59032Y222149D01*
X59993Y222547D01*
X60819Y223181D01*
X61453Y224007D01*
X61851Y224968D01*
X61921Y225500D01*
D02*
G37*
G36*
X51921D02*
X48500D01*
Y222079D01*
X49032Y222149D01*
X49993Y222547D01*
X50819Y223181D01*
X51453Y224007D01*
X51851Y224968D01*
X51921Y225500D01*
D02*
G37*
G36*
X61953Y219953D02*
X58500D01*
Y216500D01*
X61953D01*
Y219953D01*
D02*
G37*
G36*
X48500Y219921D02*
Y216500D01*
X51921D01*
X51851Y217032D01*
X51453Y217993D01*
X50819Y218819D01*
X49993Y219453D01*
X49032Y219851D01*
X48500Y219921D01*
D02*
G37*
G36*
X47500D02*
X46968Y219851D01*
X46007Y219453D01*
X45181Y218819D01*
X44547Y217993D01*
X44149Y217032D01*
X44079Y216500D01*
X47500D01*
Y219921D01*
D02*
G37*
G36*
X57500Y219953D02*
X54047D01*
Y216500D01*
X57500D01*
Y219953D01*
D02*
G37*
G36*
X206988Y221895D02*
X206009Y221766D01*
X205096Y221388D01*
X204312Y220787D01*
X203710Y220003D01*
X203332Y219090D01*
X203203Y218110D01*
X203332Y217131D01*
X203710Y216218D01*
X204312Y215434D01*
X205096Y214832D01*
X206009Y214454D01*
X206988Y214325D01*
X207968Y214454D01*
X208881Y214832D01*
X209665Y215434D01*
X210266Y216218D01*
X210644Y217131D01*
X210773Y218110D01*
X210644Y219090D01*
X210266Y220003D01*
X209665Y220787D01*
X208881Y221388D01*
X207968Y221766D01*
X206988Y221895D01*
D02*
G37*
G36*
X47500Y215500D02*
X44079D01*
X44149Y214968D01*
X44547Y214007D01*
X45181Y213181D01*
X46007Y212547D01*
X46968Y212149D01*
X47500Y212079D01*
Y215500D01*
D02*
G37*
G36*
X51921D02*
X48500D01*
Y212079D01*
X49032Y212149D01*
X49993Y212547D01*
X50819Y213181D01*
X51453Y214007D01*
X51851Y214968D01*
X51921Y215500D01*
D02*
G37*
G36*
X61953D02*
X58500D01*
Y212047D01*
X61953D01*
Y215500D01*
D02*
G37*
G36*
X57500D02*
X54047D01*
Y212047D01*
X57500D01*
Y215500D01*
D02*
G37*
G36*
X206988Y211895D02*
X206009Y211766D01*
X205096Y211388D01*
X204312Y210787D01*
X203710Y210003D01*
X203686Y209946D01*
X176530D01*
X176506Y210003D01*
X175905Y210787D01*
X175121Y211388D01*
X174208Y211766D01*
X173228Y211895D01*
X172249Y211766D01*
X171336Y211388D01*
X170552Y210787D01*
X169950Y210003D01*
X169572Y209090D01*
X169443Y208110D01*
X169572Y207131D01*
X169950Y206218D01*
X170552Y205434D01*
X171336Y204832D01*
X172249Y204454D01*
X173228Y204325D01*
X174208Y204454D01*
X175121Y204832D01*
X175905Y205434D01*
X176506Y206218D01*
X176530Y206275D01*
X203686D01*
X203710Y206218D01*
X204312Y205434D01*
X205096Y204832D01*
X206009Y204454D01*
X206988Y204325D01*
X207968Y204454D01*
X208881Y204832D01*
X209665Y205434D01*
X210266Y206218D01*
X210644Y207131D01*
X210773Y208110D01*
X210644Y209090D01*
X210266Y210003D01*
X209665Y210787D01*
X208881Y211388D01*
X207968Y211766D01*
X206988Y211895D01*
D02*
G37*
G36*
X113228D02*
X112249Y211766D01*
X111336Y211388D01*
X110552Y210787D01*
X109950Y210003D01*
X109572Y209090D01*
X109443Y208110D01*
X109572Y207131D01*
X109950Y206218D01*
X110552Y205434D01*
X111336Y204832D01*
X112249Y204454D01*
X113228Y204325D01*
X114208Y204454D01*
X115121Y204832D01*
X115905Y205434D01*
X116506Y206218D01*
X116885Y207131D01*
X117014Y208110D01*
X116885Y209090D01*
X116506Y210003D01*
X115905Y210787D01*
X115121Y211388D01*
X114208Y211766D01*
X113228Y211895D01*
D02*
G37*
G36*
X206988Y201895D02*
X206009Y201766D01*
X205096Y201388D01*
X204312Y200787D01*
X203710Y200003D01*
X203686Y199945D01*
X176530D01*
X176506Y200003D01*
X175905Y200787D01*
X175121Y201388D01*
X174208Y201766D01*
X173228Y201895D01*
X172249Y201766D01*
X171336Y201388D01*
X170552Y200787D01*
X169950Y200003D01*
X169572Y199090D01*
X169443Y198110D01*
X169572Y197131D01*
X169950Y196218D01*
X170552Y195434D01*
X171336Y194832D01*
X172249Y194454D01*
X173228Y194325D01*
X174208Y194454D01*
X175121Y194832D01*
X175905Y195434D01*
X176506Y196218D01*
X176530Y196275D01*
X203686D01*
X203710Y196218D01*
X204312Y195434D01*
X205096Y194832D01*
X206009Y194454D01*
X206988Y194325D01*
X207968Y194454D01*
X208881Y194832D01*
X209665Y195434D01*
X210266Y196218D01*
X210644Y197131D01*
X210773Y198110D01*
X210644Y199090D01*
X210266Y200003D01*
X209665Y200787D01*
X208881Y201388D01*
X207968Y201766D01*
X206988Y201895D01*
D02*
G37*
G36*
X113228D02*
X112249Y201766D01*
X111336Y201388D01*
X110552Y200787D01*
X109950Y200003D01*
X109572Y199090D01*
X109443Y198110D01*
X109572Y197131D01*
X109950Y196218D01*
X110552Y195434D01*
X111336Y194832D01*
X112249Y194454D01*
X113228Y194325D01*
X114208Y194454D01*
X115121Y194832D01*
X115905Y195434D01*
X116506Y196218D01*
X116885Y197131D01*
X117014Y198110D01*
X116885Y199090D01*
X116506Y200003D01*
X115905Y200787D01*
X115121Y201388D01*
X114208Y201766D01*
X113228Y201895D01*
D02*
G37*
G36*
X206988Y191895D02*
X206009Y191766D01*
X205096Y191388D01*
X204312Y190787D01*
X203710Y190003D01*
X203686Y189945D01*
X176530D01*
X176506Y190003D01*
X175905Y190787D01*
X175121Y191388D01*
X174208Y191766D01*
X173228Y191895D01*
X172249Y191766D01*
X171336Y191388D01*
X170552Y190787D01*
X169950Y190003D01*
X169572Y189090D01*
X169443Y188110D01*
X169572Y187131D01*
X169950Y186218D01*
X170552Y185434D01*
X171336Y184832D01*
X172249Y184454D01*
X173228Y184325D01*
X174208Y184454D01*
X175121Y184832D01*
X175905Y185434D01*
X176506Y186218D01*
X176530Y186275D01*
X203686D01*
X203710Y186218D01*
X204312Y185434D01*
X205096Y184832D01*
X206009Y184454D01*
X206988Y184325D01*
X207968Y184454D01*
X208881Y184832D01*
X209665Y185434D01*
X210266Y186218D01*
X210644Y187131D01*
X210773Y188110D01*
X210644Y189090D01*
X210266Y190003D01*
X209665Y190787D01*
X208881Y191388D01*
X207968Y191766D01*
X206988Y191895D01*
D02*
G37*
G36*
X113228D02*
X112249Y191766D01*
X111336Y191388D01*
X110552Y190787D01*
X109950Y190003D01*
X109572Y189090D01*
X109443Y188110D01*
X109572Y187131D01*
X109950Y186218D01*
X110552Y185434D01*
X111336Y184832D01*
X112249Y184454D01*
X113228Y184325D01*
X114208Y184454D01*
X115121Y184832D01*
X115905Y185434D01*
X116506Y186218D01*
X116885Y187131D01*
X117014Y188110D01*
X116885Y189090D01*
X116506Y190003D01*
X115905Y190787D01*
X115121Y191388D01*
X114208Y191766D01*
X113228Y191895D01*
D02*
G37*
G36*
X206988Y181895D02*
X206009Y181766D01*
X205096Y181388D01*
X204312Y180787D01*
X203710Y180003D01*
X203686Y179946D01*
X176530D01*
X176506Y180003D01*
X175905Y180787D01*
X175121Y181388D01*
X174208Y181766D01*
X173228Y181895D01*
X172249Y181766D01*
X171336Y181388D01*
X170552Y180787D01*
X169950Y180003D01*
X169572Y179090D01*
X169443Y178110D01*
X169572Y177131D01*
X169950Y176218D01*
X170552Y175434D01*
X171336Y174832D01*
X172249Y174454D01*
X173228Y174325D01*
X174208Y174454D01*
X175121Y174832D01*
X175905Y175434D01*
X176506Y176218D01*
X176530Y176275D01*
X203686D01*
X203710Y176218D01*
X204312Y175434D01*
X205096Y174832D01*
X206009Y174454D01*
X206988Y174325D01*
X207968Y174454D01*
X208881Y174832D01*
X209665Y175434D01*
X210266Y176218D01*
X210644Y177131D01*
X210773Y178110D01*
X210644Y179090D01*
X210266Y180003D01*
X209665Y180787D01*
X208881Y181388D01*
X207968Y181766D01*
X206988Y181895D01*
D02*
G37*
G36*
X247500Y178764D02*
Y175343D01*
X250921D01*
X250851Y175874D01*
X250453Y176836D01*
X249819Y177662D01*
X248993Y178295D01*
X248032Y178693D01*
X247500Y178764D01*
D02*
G37*
G36*
X246500D02*
X245968Y178693D01*
X245007Y178295D01*
X244181Y177662D01*
X243547Y176836D01*
X243149Y175874D01*
X243079Y175343D01*
X246500D01*
Y178764D01*
D02*
G37*
G36*
X113228Y181895D02*
X112249Y181766D01*
X111336Y181388D01*
X110552Y180787D01*
X109950Y180003D01*
X109572Y179090D01*
X109443Y178110D01*
X109572Y177131D01*
X109950Y176218D01*
X110552Y175434D01*
X111336Y174832D01*
X112249Y174454D01*
X113228Y174325D01*
X114208Y174454D01*
X115121Y174832D01*
X115905Y175434D01*
X116506Y176218D01*
X116885Y177131D01*
X117014Y178110D01*
X116885Y179090D01*
X116506Y180003D01*
X115905Y180787D01*
X115121Y181388D01*
X114208Y181766D01*
X113228Y181895D01*
D02*
G37*
G36*
X250921Y174343D02*
X247500D01*
Y170922D01*
X248032Y170992D01*
X248993Y171390D01*
X249819Y172023D01*
X250453Y172849D01*
X250851Y173811D01*
X250921Y174343D01*
D02*
G37*
G36*
X246500D02*
X243079D01*
X243149Y173811D01*
X243547Y172849D01*
X244181Y172023D01*
X245007Y171390D01*
X245968Y170992D01*
X246500Y170922D01*
Y174343D01*
D02*
G37*
G36*
X206988Y171895D02*
X206009Y171766D01*
X205096Y171388D01*
X204312Y170787D01*
X203710Y170003D01*
X203686Y169946D01*
X176530D01*
X176506Y170003D01*
X175905Y170787D01*
X175121Y171388D01*
X174208Y171766D01*
X173228Y171895D01*
X172249Y171766D01*
X171336Y171388D01*
X170552Y170787D01*
X169950Y170003D01*
X169572Y169090D01*
X169443Y168110D01*
X169572Y167131D01*
X169950Y166218D01*
X170552Y165434D01*
X171336Y164832D01*
X172249Y164454D01*
X173228Y164325D01*
X174208Y164454D01*
X175121Y164832D01*
X175905Y165434D01*
X176506Y166218D01*
X176530Y166275D01*
X203686D01*
X203710Y166218D01*
X204312Y165434D01*
X205096Y164832D01*
X206009Y164454D01*
X206988Y164325D01*
X207968Y164454D01*
X208881Y164832D01*
X209665Y165434D01*
X210266Y166218D01*
X210644Y167131D01*
X210773Y168110D01*
X210644Y169090D01*
X210266Y170003D01*
X209665Y170787D01*
X208881Y171388D01*
X207968Y171766D01*
X206988Y171895D01*
D02*
G37*
G36*
X113228D02*
X112249Y171766D01*
X111336Y171388D01*
X110552Y170787D01*
X109950Y170003D01*
X109572Y169090D01*
X109443Y168110D01*
X109572Y167131D01*
X109950Y166218D01*
X110552Y165434D01*
X111336Y164832D01*
X112249Y164454D01*
X113228Y164325D01*
X114208Y164454D01*
X115121Y164832D01*
X115905Y165434D01*
X116506Y166218D01*
X116885Y167131D01*
X117014Y168110D01*
X116885Y169090D01*
X116506Y170003D01*
X115905Y170787D01*
X115121Y171388D01*
X114208Y171766D01*
X113228Y171895D01*
D02*
G37*
G36*
X247000Y168785D02*
X246020Y168656D01*
X245107Y168278D01*
X244323Y167676D01*
X243722Y166893D01*
X243698Y166835D01*
X223878D01*
X223176Y166696D01*
X222580Y166298D01*
X208025Y151743D01*
X207968Y151766D01*
X206988Y151895D01*
X206009Y151766D01*
X205096Y151388D01*
X204312Y150787D01*
X203710Y150003D01*
X203686Y149945D01*
X176530D01*
X176506Y150003D01*
X175905Y150787D01*
X175121Y151388D01*
X174208Y151766D01*
X173228Y151895D01*
X172249Y151766D01*
X171336Y151388D01*
X170552Y150787D01*
X169950Y150003D01*
X169572Y149090D01*
X169443Y148110D01*
X169572Y147131D01*
X169950Y146218D01*
X170552Y145434D01*
X171336Y144832D01*
X172249Y144454D01*
X173228Y144325D01*
X174208Y144454D01*
X175121Y144832D01*
X175905Y145434D01*
X176506Y146218D01*
X176530Y146275D01*
X203686D01*
X203710Y146218D01*
X204312Y145434D01*
X205096Y144832D01*
X206009Y144454D01*
X206988Y144325D01*
X207968Y144454D01*
X208881Y144832D01*
X209665Y145434D01*
X210266Y146218D01*
X210644Y147131D01*
X210773Y148110D01*
X210644Y149090D01*
X210621Y149147D01*
X224638Y163165D01*
X243698D01*
X243722Y163107D01*
X244323Y162323D01*
X245107Y161722D01*
X246020Y161344D01*
X247000Y161215D01*
X247980Y161344D01*
X248893Y161722D01*
X249676Y162323D01*
X250278Y163107D01*
X250656Y164020D01*
X250785Y165000D01*
X250656Y165980D01*
X250278Y166893D01*
X249676Y167676D01*
X248893Y168278D01*
X247980Y168656D01*
X247000Y168785D01*
D02*
G37*
G36*
X206988Y161895D02*
X206009Y161766D01*
X205096Y161388D01*
X204312Y160787D01*
X203710Y160003D01*
X203686Y159945D01*
X176530D01*
X176506Y160003D01*
X175905Y160787D01*
X175121Y161388D01*
X174208Y161766D01*
X173228Y161895D01*
X172249Y161766D01*
X171336Y161388D01*
X170552Y160787D01*
X169950Y160003D01*
X169572Y159090D01*
X169443Y158110D01*
X169572Y157131D01*
X169950Y156218D01*
X170552Y155434D01*
X171336Y154832D01*
X172249Y154454D01*
X173228Y154325D01*
X174208Y154454D01*
X175121Y154832D01*
X175905Y155434D01*
X176506Y156218D01*
X176530Y156275D01*
X203686D01*
X203710Y156218D01*
X204312Y155434D01*
X205096Y154832D01*
X206009Y154454D01*
X206988Y154325D01*
X207968Y154454D01*
X208881Y154832D01*
X209665Y155434D01*
X210266Y156218D01*
X210644Y157131D01*
X210773Y158110D01*
X210644Y159090D01*
X210266Y160003D01*
X209665Y160787D01*
X208881Y161388D01*
X207968Y161766D01*
X206988Y161895D01*
D02*
G37*
G36*
X113228D02*
X112249Y161766D01*
X111336Y161388D01*
X110552Y160787D01*
X109950Y160003D01*
X109572Y159090D01*
X109443Y158110D01*
X109572Y157131D01*
X109950Y156218D01*
X110552Y155434D01*
X111336Y154832D01*
X112249Y154454D01*
X113228Y154325D01*
X114208Y154454D01*
X115121Y154832D01*
X115905Y155434D01*
X116506Y156218D01*
X116885Y157131D01*
X117014Y158110D01*
X116885Y159090D01*
X116506Y160003D01*
X115905Y160787D01*
X115121Y161388D01*
X114208Y161766D01*
X113228Y161895D01*
D02*
G37*
G36*
Y151895D02*
X112249Y151766D01*
X111336Y151388D01*
X110552Y150787D01*
X109950Y150003D01*
X109572Y149090D01*
X109443Y148110D01*
X109572Y147131D01*
X109950Y146218D01*
X110552Y145434D01*
X111336Y144832D01*
X112249Y144454D01*
X113228Y144325D01*
X114208Y144454D01*
X115121Y144832D01*
X115905Y145434D01*
X116506Y146218D01*
X116885Y147131D01*
X117014Y148110D01*
X116885Y149090D01*
X116506Y150003D01*
X115905Y150787D01*
X115121Y151388D01*
X114208Y151766D01*
X113228Y151895D01*
D02*
G37*
G36*
X247500Y143606D02*
Y140185D01*
X250921D01*
X250851Y140717D01*
X250453Y141679D01*
X249819Y142504D01*
X248993Y143138D01*
X248032Y143536D01*
X247500Y143606D01*
D02*
G37*
G36*
X246500D02*
X245968Y143536D01*
X245007Y143138D01*
X244181Y142504D01*
X243547Y141679D01*
X243149Y140717D01*
X243079Y140185D01*
X246500D01*
Y143606D01*
D02*
G37*
G36*
X206988Y141895D02*
X206009Y141766D01*
X205096Y141388D01*
X204312Y140787D01*
X203710Y140003D01*
X203686Y139945D01*
X176530D01*
X176506Y140003D01*
X175905Y140787D01*
X175121Y141388D01*
X174208Y141766D01*
X173228Y141895D01*
X172249Y141766D01*
X171336Y141388D01*
X170552Y140787D01*
X169950Y140003D01*
X169572Y139090D01*
X169443Y138110D01*
X169572Y137131D01*
X169950Y136218D01*
X170552Y135434D01*
X171336Y134832D01*
X172249Y134454D01*
X173228Y134325D01*
X174208Y134454D01*
X175121Y134832D01*
X175905Y135434D01*
X176506Y136218D01*
X176530Y136275D01*
X203686D01*
X203710Y136218D01*
X204312Y135434D01*
X205096Y134832D01*
X206009Y134454D01*
X206988Y134325D01*
X207968Y134454D01*
X208025Y134478D01*
X213958Y128545D01*
X214554Y128147D01*
X215256Y128007D01*
X243698D01*
X243722Y127950D01*
X244323Y127166D01*
X245107Y126565D01*
X246020Y126186D01*
X247000Y126057D01*
X247980Y126186D01*
X248893Y126565D01*
X249676Y127166D01*
X250278Y127950D01*
X250656Y128863D01*
X250785Y129842D01*
X250656Y130822D01*
X250278Y131735D01*
X249676Y132519D01*
X248893Y133121D01*
X247980Y133499D01*
X247000Y133628D01*
X246020Y133499D01*
X245107Y133121D01*
X244323Y132519D01*
X243722Y131735D01*
X243698Y131678D01*
X216016D01*
X210621Y137073D01*
X210644Y137131D01*
X210773Y138110D01*
X210644Y139090D01*
X210266Y140003D01*
X209665Y140787D01*
X208881Y141388D01*
X207968Y141766D01*
X206988Y141895D01*
D02*
G37*
G36*
X250921Y139185D02*
X247500D01*
Y135764D01*
X248032Y135834D01*
X248993Y136232D01*
X249819Y136866D01*
X250453Y137692D01*
X250851Y138653D01*
X250921Y139185D01*
D02*
G37*
G36*
X246500D02*
X243079D01*
X243149Y138653D01*
X243547Y137692D01*
X244181Y136866D01*
X245007Y136232D01*
X245968Y135834D01*
X246500Y135764D01*
Y139185D01*
D02*
G37*
G36*
X113228Y141895D02*
X112249Y141766D01*
X111336Y141388D01*
X110552Y140787D01*
X109950Y140003D01*
X109572Y139090D01*
X109443Y138110D01*
X109572Y137131D01*
X109950Y136218D01*
X110552Y135434D01*
X111336Y134832D01*
X112249Y134454D01*
X113228Y134325D01*
X114208Y134454D01*
X115121Y134832D01*
X115905Y135434D01*
X116506Y136218D01*
X116885Y137131D01*
X117014Y138110D01*
X116885Y139090D01*
X116506Y140003D01*
X115905Y140787D01*
X115121Y141388D01*
X114208Y141766D01*
X113228Y141895D01*
D02*
G37*
G36*
X206988Y131895D02*
X206009Y131766D01*
X205096Y131388D01*
X204312Y130787D01*
X203710Y130003D01*
X203686Y129946D01*
X176530D01*
X176506Y130003D01*
X175905Y130787D01*
X175121Y131388D01*
X174208Y131766D01*
X173228Y131895D01*
X172249Y131766D01*
X171336Y131388D01*
X170552Y130787D01*
X169950Y130003D01*
X169572Y129090D01*
X169443Y128110D01*
X169572Y127131D01*
X169950Y126218D01*
X170552Y125434D01*
X171336Y124832D01*
X172249Y124454D01*
X173228Y124325D01*
X174208Y124454D01*
X175121Y124832D01*
X175905Y125434D01*
X176506Y126218D01*
X176530Y126275D01*
X203686D01*
X203710Y126218D01*
X204312Y125434D01*
X205096Y124832D01*
X206009Y124454D01*
X206988Y124325D01*
X207968Y124454D01*
X208881Y124832D01*
X209665Y125434D01*
X210266Y126218D01*
X210644Y127131D01*
X210773Y128110D01*
X210644Y129090D01*
X210266Y130003D01*
X209665Y130787D01*
X208881Y131388D01*
X207968Y131766D01*
X206988Y131895D01*
D02*
G37*
G36*
X16004Y134710D02*
X15024Y134581D01*
X14111Y134203D01*
X13327Y133602D01*
X12726Y132818D01*
X12348Y131905D01*
X12219Y130925D01*
X12348Y129946D01*
X12726Y129033D01*
X13327Y128249D01*
X14111Y127647D01*
X15024Y127269D01*
X16004Y127140D01*
X16984Y127269D01*
X17897Y127647D01*
X18680Y128249D01*
X19282Y129033D01*
X19660Y129946D01*
X19789Y130925D01*
X19660Y131905D01*
X19282Y132818D01*
X18680Y133602D01*
X17897Y134203D01*
X16984Y134581D01*
X16004Y134710D01*
D02*
G37*
G36*
X81004D02*
X80024Y134581D01*
X79111Y134203D01*
X78327Y133602D01*
X77726Y132818D01*
X77348Y131905D01*
X77219Y130925D01*
X77348Y129946D01*
X77726Y129033D01*
X78327Y128249D01*
X79111Y127647D01*
X80024Y127269D01*
X81004Y127140D01*
X81984Y127269D01*
X82897Y127647D01*
X83680Y128249D01*
X84282Y129033D01*
X84306Y129090D01*
X108596D01*
X109459Y128228D01*
X109443Y128110D01*
X109572Y127131D01*
X109950Y126218D01*
X110552Y125434D01*
X111336Y124832D01*
X112249Y124454D01*
X113228Y124325D01*
X114208Y124454D01*
X115121Y124832D01*
X115905Y125434D01*
X116506Y126218D01*
X116885Y127131D01*
X117014Y128110D01*
X116885Y129090D01*
X116506Y130003D01*
X115905Y130787D01*
X115121Y131388D01*
X114208Y131766D01*
X113228Y131895D01*
X112249Y131766D01*
X111444Y131433D01*
X110654Y132223D01*
X110059Y132621D01*
X109357Y132761D01*
X84306D01*
X84282Y132818D01*
X83680Y133602D01*
X82897Y134203D01*
X81984Y134581D01*
X81004Y134710D01*
D02*
G37*
G36*
X16504Y124846D02*
Y121425D01*
X19925D01*
X19855Y121957D01*
X19457Y122919D01*
X18823Y123744D01*
X17997Y124378D01*
X17036Y124776D01*
X16504Y124846D01*
D02*
G37*
G36*
X15504D02*
X14972Y124776D01*
X14010Y124378D01*
X13185Y123744D01*
X12551Y122919D01*
X12153Y121957D01*
X12083Y121425D01*
X15504D01*
Y124846D01*
D02*
G37*
G36*
X206988Y121895D02*
X206009Y121766D01*
X205096Y121388D01*
X204312Y120787D01*
X203710Y120003D01*
X203686Y119946D01*
X176530D01*
X176506Y120003D01*
X175905Y120787D01*
X175121Y121388D01*
X174208Y121766D01*
X173228Y121895D01*
X172249Y121766D01*
X171336Y121388D01*
X170552Y120787D01*
X169950Y120003D01*
X169572Y119090D01*
X169443Y118110D01*
X169572Y117131D01*
X169950Y116218D01*
X170552Y115434D01*
X171336Y114832D01*
X172249Y114454D01*
X173228Y114325D01*
X174208Y114454D01*
X175121Y114832D01*
X175905Y115434D01*
X176506Y116218D01*
X176530Y116275D01*
X203686D01*
X203710Y116218D01*
X204312Y115434D01*
X205096Y114832D01*
X206009Y114454D01*
X206988Y114325D01*
X207968Y114454D01*
X208881Y114832D01*
X209665Y115434D01*
X210266Y116218D01*
X210644Y117131D01*
X210773Y118110D01*
X210644Y119090D01*
X210266Y120003D01*
X209665Y120787D01*
X208881Y121388D01*
X207968Y121766D01*
X206988Y121895D01*
D02*
G37*
G36*
X37756Y121709D02*
X34500D01*
Y119142D01*
X37756D01*
Y121709D01*
D02*
G37*
G36*
X33500D02*
X30244D01*
Y119142D01*
X33500D01*
Y121709D01*
D02*
G37*
G36*
X19925Y120425D02*
X16504D01*
Y117004D01*
X17036Y117074D01*
X17997Y117473D01*
X18823Y118106D01*
X19457Y118932D01*
X19855Y119893D01*
X19925Y120425D01*
D02*
G37*
G36*
X15504D02*
X12083D01*
X12153Y119893D01*
X12551Y118932D01*
X13185Y118106D01*
X14010Y117473D01*
X14972Y117074D01*
X15504Y117004D01*
Y120425D01*
D02*
G37*
G36*
X37756Y118142D02*
X34500D01*
Y115575D01*
X37756D01*
Y118142D01*
D02*
G37*
G36*
X33500D02*
X30244D01*
Y115575D01*
X33500D01*
Y118142D01*
D02*
G37*
G36*
X81004Y124710D02*
X80024Y124581D01*
X79111Y124203D01*
X78327Y123602D01*
X77726Y122818D01*
X77348Y121905D01*
X77219Y120925D01*
X77348Y119946D01*
X77726Y119033D01*
X78327Y118249D01*
X79111Y117647D01*
X80024Y117269D01*
X81004Y117140D01*
X81984Y117269D01*
X82897Y117647D01*
X83680Y118249D01*
X84282Y119033D01*
X84306Y119090D01*
X108596D01*
X109459Y118228D01*
X109443Y118110D01*
X109572Y117131D01*
X109950Y116218D01*
X110552Y115434D01*
X111336Y114832D01*
X112249Y114454D01*
X113228Y114325D01*
X114208Y114454D01*
X115121Y114832D01*
X115905Y115434D01*
X116506Y116218D01*
X116885Y117131D01*
X117014Y118110D01*
X116885Y119090D01*
X116506Y120003D01*
X115905Y120787D01*
X115121Y121388D01*
X114208Y121766D01*
X113228Y121895D01*
X112249Y121766D01*
X111444Y121433D01*
X110654Y122223D01*
X110059Y122621D01*
X109357Y122760D01*
X84306D01*
X84282Y122818D01*
X83680Y123602D01*
X82897Y124203D01*
X81984Y124581D01*
X81004Y124710D01*
D02*
G37*
G36*
Y114710D02*
X80024Y114581D01*
X79111Y114203D01*
X78327Y113602D01*
X77726Y112818D01*
X77348Y111905D01*
X77219Y110925D01*
X77348Y109945D01*
X77726Y109033D01*
X78327Y108249D01*
X79111Y107647D01*
X80024Y107269D01*
X81004Y107140D01*
X81984Y107269D01*
X82897Y107647D01*
X83680Y108249D01*
X84282Y109033D01*
X84660Y109945D01*
X84789Y110925D01*
X84660Y111905D01*
X84282Y112818D01*
X83680Y113602D01*
X82897Y114203D01*
X81984Y114581D01*
X81004Y114710D01*
D02*
G37*
G36*
X206988Y111895D02*
X206009Y111766D01*
X205096Y111388D01*
X204312Y110787D01*
X203710Y110003D01*
X203332Y109090D01*
X203203Y108110D01*
X203332Y107131D01*
X203710Y106218D01*
X204312Y105434D01*
X205096Y104832D01*
X206009Y104454D01*
X206988Y104325D01*
X207968Y104454D01*
X208881Y104832D01*
X209665Y105434D01*
X210266Y106218D01*
X210644Y107131D01*
X210773Y108110D01*
X210644Y109090D01*
X210266Y110003D01*
X209665Y110787D01*
X208881Y111388D01*
X207968Y111766D01*
X206988Y111895D01*
D02*
G37*
G36*
X173228D02*
X172249Y111766D01*
X171336Y111388D01*
X170552Y110787D01*
X169950Y110003D01*
X169572Y109090D01*
X169443Y108110D01*
X169572Y107131D01*
X169950Y106218D01*
X170552Y105434D01*
X171336Y104832D01*
X172249Y104454D01*
X173228Y104325D01*
X174208Y104454D01*
X175121Y104832D01*
X175905Y105434D01*
X176506Y106218D01*
X176884Y107131D01*
X177014Y108110D01*
X176884Y109090D01*
X176506Y110003D01*
X175905Y110787D01*
X175121Y111388D01*
X174208Y111766D01*
X173228Y111895D01*
D02*
G37*
G36*
X113228D02*
X112249Y111766D01*
X111336Y111388D01*
X110552Y110787D01*
X109950Y110003D01*
X109572Y109090D01*
X109443Y108110D01*
X109572Y107131D01*
X109950Y106218D01*
X110552Y105434D01*
X111336Y104832D01*
X112249Y104454D01*
X113228Y104325D01*
X114208Y104454D01*
X115121Y104832D01*
X115905Y105434D01*
X116506Y106218D01*
X116885Y107131D01*
X117014Y108110D01*
X116885Y109090D01*
X116506Y110003D01*
X115905Y110787D01*
X115121Y111388D01*
X114208Y111766D01*
X113228Y111895D01*
D02*
G37*
G36*
X207488Y102031D02*
Y98610D01*
X210909D01*
X210839Y99142D01*
X210441Y100104D01*
X209807Y100929D01*
X208982Y101563D01*
X208020Y101961D01*
X207488Y102031D01*
D02*
G37*
G36*
X173728D02*
Y98610D01*
X177149D01*
X177079Y99142D01*
X176681Y100104D01*
X176048Y100929D01*
X175222Y101563D01*
X174260Y101961D01*
X173728Y102031D01*
D02*
G37*
G36*
X172728D02*
X172196Y101961D01*
X171235Y101563D01*
X170409Y100929D01*
X169776Y100104D01*
X169377Y99142D01*
X169307Y98610D01*
X172728D01*
Y102031D01*
D02*
G37*
G36*
X206488Y102031D02*
X205956Y101961D01*
X204995Y101563D01*
X204169Y100929D01*
X203536Y100104D01*
X203137Y99142D01*
X203067Y98610D01*
X206488D01*
Y102031D01*
D02*
G37*
G36*
X81004Y104710D02*
X80024Y104581D01*
X79111Y104203D01*
X78327Y103602D01*
X77726Y102818D01*
X77348Y101905D01*
X77219Y100925D01*
X77348Y99945D01*
X77726Y99033D01*
X78327Y98249D01*
X79111Y97647D01*
X80024Y97269D01*
X81004Y97140D01*
X81984Y97269D01*
X82897Y97647D01*
X83680Y98249D01*
X84282Y99033D01*
X84660Y99945D01*
X84789Y100925D01*
X84660Y101905D01*
X84282Y102818D01*
X83680Y103602D01*
X82897Y104203D01*
X81984Y104581D01*
X81004Y104710D01*
D02*
G37*
G36*
X16004D02*
X15024Y104581D01*
X14111Y104203D01*
X13327Y103602D01*
X12726Y102818D01*
X12348Y101905D01*
X12219Y100925D01*
X12348Y99945D01*
X12726Y99033D01*
X13327Y98249D01*
X14111Y97647D01*
X15024Y97269D01*
X16004Y97140D01*
X16984Y97269D01*
X17897Y97647D01*
X18680Y98249D01*
X19282Y99033D01*
X19660Y99945D01*
X19789Y100925D01*
X19660Y101905D01*
X19282Y102818D01*
X18680Y103602D01*
X17897Y104203D01*
X16984Y104581D01*
X16004Y104710D01*
D02*
G37*
G36*
X113228Y101895D02*
X112249Y101766D01*
X111336Y101388D01*
X110552Y100787D01*
X109950Y100003D01*
X109572Y99090D01*
X109443Y98110D01*
X109572Y97131D01*
X109950Y96218D01*
X110552Y95434D01*
X111336Y94832D01*
X112249Y94454D01*
X113228Y94325D01*
X114208Y94454D01*
X115121Y94832D01*
X115905Y95434D01*
X116506Y96218D01*
X116885Y97131D01*
X117014Y98110D01*
X116885Y99090D01*
X116506Y100003D01*
X115905Y100787D01*
X115121Y101388D01*
X114208Y101766D01*
X113228Y101895D01*
D02*
G37*
G36*
X210909Y97610D02*
X207488D01*
Y94189D01*
X208020Y94259D01*
X208982Y94657D01*
X209807Y95291D01*
X210441Y96117D01*
X210839Y97078D01*
X210909Y97610D01*
D02*
G37*
G36*
X177149D02*
X173728D01*
Y94189D01*
X174260Y94259D01*
X175222Y94657D01*
X176048Y95291D01*
X176681Y96117D01*
X177079Y97078D01*
X177149Y97610D01*
D02*
G37*
G36*
X172728D02*
X169307D01*
X169377Y97078D01*
X169776Y96117D01*
X170409Y95291D01*
X171235Y94657D01*
X172196Y94259D01*
X172728Y94189D01*
Y97610D01*
D02*
G37*
G36*
X206488D02*
X203067D01*
X203137Y97078D01*
X203536Y96117D01*
X204169Y95291D01*
X204995Y94657D01*
X205956Y94259D01*
X206488Y94189D01*
Y97610D01*
D02*
G37*
G36*
X206988Y91895D02*
X206009Y91766D01*
X205096Y91388D01*
X204312Y90787D01*
X203710Y90003D01*
X203686Y89946D01*
X176530D01*
X176506Y90003D01*
X175905Y90787D01*
X175121Y91388D01*
X174208Y91766D01*
X173228Y91895D01*
X172249Y91766D01*
X171336Y91388D01*
X170552Y90787D01*
X169950Y90003D01*
X169572Y89090D01*
X169443Y88110D01*
X169572Y87131D01*
X169950Y86218D01*
X170552Y85434D01*
X171336Y84832D01*
X172249Y84454D01*
X173228Y84325D01*
X174208Y84454D01*
X175121Y84832D01*
X175905Y85434D01*
X176506Y86218D01*
X176530Y86275D01*
X203686D01*
X203710Y86218D01*
X204312Y85434D01*
X205096Y84832D01*
X206009Y84454D01*
X206988Y84325D01*
X207968Y84454D01*
X208881Y84832D01*
X209665Y85434D01*
X210266Y86218D01*
X210644Y87131D01*
X210773Y88110D01*
X210644Y89090D01*
X210266Y90003D01*
X209665Y90787D01*
X208881Y91388D01*
X207968Y91766D01*
X206988Y91895D01*
D02*
G37*
G36*
X81004Y94710D02*
X80024Y94581D01*
X79111Y94203D01*
X78327Y93602D01*
X77726Y92818D01*
X77702Y92760D01*
X70256D01*
X69554Y92621D01*
X68958Y92223D01*
X52836Y76101D01*
X52438Y75506D01*
X52299Y74803D01*
Y47847D01*
X50775D01*
Y42113D01*
X57493D01*
Y47847D01*
X55969D01*
Y74043D01*
X71016Y89090D01*
X77702D01*
X77726Y89033D01*
X78327Y88249D01*
X79111Y87647D01*
X80024Y87269D01*
X81004Y87140D01*
X81984Y87269D01*
X82897Y87647D01*
X83680Y88249D01*
X84282Y89033D01*
X84660Y89946D01*
X84789Y90925D01*
X84660Y91905D01*
X84282Y92818D01*
X83680Y93602D01*
X82897Y94203D01*
X81984Y94581D01*
X81004Y94710D01*
D02*
G37*
G36*
X16004D02*
X15024Y94581D01*
X14111Y94203D01*
X13327Y93602D01*
X12726Y92818D01*
X12348Y91905D01*
X12219Y90925D01*
X12348Y89946D01*
X12726Y89033D01*
X13327Y88249D01*
X14111Y87647D01*
X15024Y87269D01*
X16004Y87140D01*
X16984Y87269D01*
X17897Y87647D01*
X18680Y88249D01*
X19282Y89033D01*
X19660Y89946D01*
X19789Y90925D01*
X19660Y91905D01*
X19282Y92818D01*
X18680Y93602D01*
X17897Y94203D01*
X16984Y94581D01*
X16004Y94710D01*
D02*
G37*
G36*
X113228Y91895D02*
X112249Y91766D01*
X111336Y91388D01*
X110552Y90787D01*
X109950Y90003D01*
X109572Y89090D01*
X109443Y88110D01*
X109572Y87131D01*
X109950Y86218D01*
X110552Y85434D01*
X111336Y84832D01*
X112249Y84454D01*
X113228Y84325D01*
X114208Y84454D01*
X115121Y84832D01*
X115905Y85434D01*
X116506Y86218D01*
X116885Y87131D01*
X117014Y88110D01*
X116885Y89090D01*
X116506Y90003D01*
X115905Y90787D01*
X115121Y91388D01*
X114208Y91766D01*
X113228Y91895D01*
D02*
G37*
G36*
X206988Y81895D02*
X206009Y81766D01*
X205096Y81388D01*
X204312Y80787D01*
X203710Y80003D01*
X203686Y79945D01*
X176530D01*
X176506Y80003D01*
X175905Y80787D01*
X175121Y81388D01*
X174208Y81766D01*
X173228Y81895D01*
X172249Y81766D01*
X171336Y81388D01*
X170552Y80787D01*
X169950Y80003D01*
X169572Y79090D01*
X169443Y78110D01*
X169572Y77131D01*
X169950Y76218D01*
X170552Y75434D01*
X171336Y74832D01*
X172249Y74454D01*
X173228Y74325D01*
X174208Y74454D01*
X175121Y74832D01*
X175905Y75434D01*
X176506Y76218D01*
X176530Y76275D01*
X203686D01*
X203710Y76218D01*
X204312Y75434D01*
X205096Y74832D01*
X206009Y74454D01*
X206988Y74325D01*
X207968Y74454D01*
X208881Y74832D01*
X209665Y75434D01*
X210266Y76218D01*
X210644Y77131D01*
X210773Y78110D01*
X210644Y79090D01*
X210266Y80003D01*
X209665Y80787D01*
X208881Y81388D01*
X207968Y81766D01*
X206988Y81895D01*
D02*
G37*
G36*
X81004Y84710D02*
X80024Y84581D01*
X79111Y84203D01*
X78327Y83602D01*
X77726Y82818D01*
X77348Y81905D01*
X77219Y80925D01*
X77348Y79945D01*
X77726Y79033D01*
X78327Y78249D01*
X79111Y77647D01*
X80024Y77269D01*
X81004Y77140D01*
X81984Y77269D01*
X82897Y77647D01*
X83680Y78249D01*
X84282Y79033D01*
X84660Y79945D01*
X84789Y80925D01*
X84660Y81905D01*
X84282Y82818D01*
X83680Y83602D01*
X82897Y84203D01*
X81984Y84581D01*
X81004Y84710D01*
D02*
G37*
G36*
X113228Y81895D02*
X112249Y81766D01*
X111336Y81388D01*
X110552Y80787D01*
X109950Y80003D01*
X109572Y79090D01*
X109443Y78110D01*
X109572Y77131D01*
X109950Y76218D01*
X110552Y75434D01*
X111336Y74832D01*
X112249Y74454D01*
X113228Y74325D01*
X114208Y74454D01*
X115121Y74832D01*
X115905Y75434D01*
X116506Y76218D01*
X116885Y77131D01*
X117014Y78110D01*
X116885Y79090D01*
X116506Y80003D01*
X115905Y80787D01*
X115121Y81388D01*
X114208Y81766D01*
X113228Y81895D01*
D02*
G37*
G36*
X206988Y71895D02*
X206009Y71766D01*
X205096Y71388D01*
X204312Y70787D01*
X203710Y70003D01*
X203686Y69946D01*
X176530D01*
X176506Y70003D01*
X175905Y70787D01*
X175121Y71388D01*
X174208Y71766D01*
X173228Y71895D01*
X172249Y71766D01*
X171336Y71388D01*
X170552Y70787D01*
X169950Y70003D01*
X169572Y69090D01*
X169443Y68110D01*
X169572Y67131D01*
X169950Y66218D01*
X170552Y65434D01*
X171336Y64832D01*
X172249Y64454D01*
X173228Y64325D01*
X174208Y64454D01*
X175121Y64832D01*
X175905Y65434D01*
X176506Y66218D01*
X176530Y66275D01*
X203686D01*
X203710Y66218D01*
X204312Y65434D01*
X205096Y64832D01*
X206009Y64454D01*
X206988Y64325D01*
X207968Y64454D01*
X208881Y64832D01*
X209665Y65434D01*
X210266Y66218D01*
X210644Y67131D01*
X210773Y68110D01*
X210644Y69090D01*
X210266Y70003D01*
X209665Y70787D01*
X208881Y71388D01*
X207968Y71766D01*
X206988Y71895D01*
D02*
G37*
G36*
X81004Y74710D02*
X80024Y74581D01*
X79111Y74203D01*
X78327Y73602D01*
X77726Y72818D01*
X77348Y71905D01*
X77219Y70925D01*
X77348Y69946D01*
X77726Y69033D01*
X78327Y68249D01*
X79111Y67647D01*
X80024Y67269D01*
X81004Y67140D01*
X81984Y67269D01*
X82897Y67647D01*
X83680Y68249D01*
X84282Y69033D01*
X84660Y69946D01*
X84789Y70925D01*
X84660Y71905D01*
X84282Y72818D01*
X83680Y73602D01*
X82897Y74203D01*
X81984Y74581D01*
X81004Y74710D01*
D02*
G37*
G36*
X16004D02*
X15024Y74581D01*
X14111Y74203D01*
X13327Y73602D01*
X12726Y72818D01*
X12348Y71905D01*
X12219Y70925D01*
X12348Y69946D01*
X12726Y69033D01*
X13327Y68249D01*
X14111Y67647D01*
X15024Y67269D01*
X16004Y67140D01*
X16984Y67269D01*
X17897Y67647D01*
X18680Y68249D01*
X19282Y69033D01*
X19660Y69946D01*
X19789Y70925D01*
X19660Y71905D01*
X19282Y72818D01*
X18680Y73602D01*
X17897Y74203D01*
X16984Y74581D01*
X16004Y74710D01*
D02*
G37*
G36*
X113228Y71895D02*
X112249Y71766D01*
X111336Y71388D01*
X110552Y70787D01*
X109950Y70003D01*
X109572Y69090D01*
X109443Y68110D01*
X109572Y67131D01*
X109950Y66218D01*
X110552Y65434D01*
X111336Y64832D01*
X112249Y64454D01*
X113228Y64325D01*
X114208Y64454D01*
X115121Y64832D01*
X115905Y65434D01*
X116506Y66218D01*
X116885Y67131D01*
X117014Y68110D01*
X116885Y69090D01*
X116506Y70003D01*
X115905Y70787D01*
X115121Y71388D01*
X114208Y71766D01*
X113228Y71895D01*
D02*
G37*
G36*
X206988Y61895D02*
X206009Y61766D01*
X205096Y61388D01*
X204312Y60787D01*
X203710Y60003D01*
X203686Y59945D01*
X176530D01*
X176506Y60003D01*
X175905Y60787D01*
X175121Y61388D01*
X174208Y61766D01*
X173228Y61895D01*
X172249Y61766D01*
X171336Y61388D01*
X170552Y60787D01*
X169950Y60003D01*
X169572Y59090D01*
X169443Y58110D01*
X169572Y57131D01*
X169950Y56218D01*
X170552Y55434D01*
X171336Y54832D01*
X172249Y54454D01*
X173228Y54325D01*
X174208Y54454D01*
X175121Y54832D01*
X175905Y55434D01*
X176506Y56218D01*
X176530Y56275D01*
X203686D01*
X203710Y56218D01*
X204312Y55434D01*
X205096Y54832D01*
X206009Y54454D01*
X206988Y54325D01*
X207968Y54454D01*
X208881Y54832D01*
X209665Y55434D01*
X210266Y56218D01*
X210644Y57131D01*
X210773Y58110D01*
X210644Y59090D01*
X210266Y60003D01*
X209665Y60787D01*
X208881Y61388D01*
X207968Y61766D01*
X206988Y61895D01*
D02*
G37*
G36*
X16004Y64710D02*
X15024Y64581D01*
X14111Y64203D01*
X13327Y63602D01*
X12726Y62818D01*
X12348Y61905D01*
X12219Y60925D01*
X12348Y59945D01*
X12726Y59033D01*
X13327Y58249D01*
X14111Y57647D01*
X15024Y57269D01*
X16004Y57140D01*
X16984Y57269D01*
X17897Y57647D01*
X18680Y58249D01*
X19282Y59033D01*
X19660Y59945D01*
X19789Y60925D01*
X19660Y61905D01*
X19282Y62818D01*
X18680Y63602D01*
X17897Y64203D01*
X16984Y64581D01*
X16004Y64710D01*
D02*
G37*
G36*
X113228Y61895D02*
X112249Y61766D01*
X111336Y61388D01*
X110552Y60787D01*
X109950Y60003D01*
X109572Y59090D01*
X109443Y58110D01*
X109572Y57131D01*
X109950Y56218D01*
X110552Y55434D01*
X111336Y54832D01*
X112249Y54454D01*
X113228Y54325D01*
X114208Y54454D01*
X115121Y54832D01*
X115905Y55434D01*
X116506Y56218D01*
X116885Y57131D01*
X117014Y58110D01*
X116885Y59090D01*
X116506Y60003D01*
X115905Y60787D01*
X115121Y61388D01*
X114208Y61766D01*
X113228Y61895D01*
D02*
G37*
G36*
X206988Y51895D02*
X206009Y51766D01*
X205096Y51388D01*
X204312Y50787D01*
X203710Y50003D01*
X203475Y49436D01*
X176741D01*
X176506Y50003D01*
X175905Y50787D01*
X175121Y51388D01*
X174208Y51766D01*
X173228Y51895D01*
X172249Y51766D01*
X171336Y51388D01*
X170552Y50787D01*
X169950Y50003D01*
X169572Y49090D01*
X169443Y48110D01*
X169572Y47131D01*
X169950Y46218D01*
X170552Y45434D01*
X171336Y44832D01*
X172249Y44454D01*
X173228Y44325D01*
X174208Y44454D01*
X175121Y44832D01*
X175905Y45434D01*
X176506Y46218D01*
X176741Y46785D01*
X203475D01*
X203710Y46218D01*
X204312Y45434D01*
X205096Y44832D01*
X206009Y44454D01*
X206988Y44325D01*
X207968Y44454D01*
X208881Y44832D01*
X209665Y45434D01*
X210266Y46218D01*
X210644Y47131D01*
X210773Y48110D01*
X210644Y49090D01*
X210266Y50003D01*
X209665Y50787D01*
X208881Y51388D01*
X207968Y51766D01*
X206988Y51895D01*
D02*
G37*
G36*
X81004Y64710D02*
X80024Y64581D01*
X79111Y64203D01*
X78327Y63602D01*
X77726Y62818D01*
X77348Y61905D01*
X77219Y60925D01*
X77348Y59945D01*
X77726Y59033D01*
X78327Y58249D01*
X79111Y57647D01*
X80024Y57269D01*
X81004Y57140D01*
X81984Y57269D01*
X82041Y57293D01*
X92521Y46812D01*
X93117Y46415D01*
X93819Y46275D01*
X109927D01*
X109950Y46218D01*
X110552Y45434D01*
X111336Y44832D01*
X112249Y44454D01*
X113228Y44325D01*
X114208Y44454D01*
X115121Y44832D01*
X115905Y45434D01*
X116506Y46218D01*
X116885Y47131D01*
X117014Y48110D01*
X116885Y49090D01*
X116506Y50003D01*
X115905Y50787D01*
X115121Y51388D01*
X114208Y51766D01*
X113228Y51895D01*
X112249Y51766D01*
X111336Y51388D01*
X110552Y50787D01*
X109950Y50003D01*
X109927Y49946D01*
X94579D01*
X84636Y59888D01*
X84660Y59945D01*
X84789Y60925D01*
X84660Y61905D01*
X84282Y62818D01*
X83680Y63602D01*
X82897Y64203D01*
X81984Y64581D01*
X81004Y64710D01*
D02*
G37*
G36*
X70866Y86666D02*
X70093Y86512D01*
X69438Y86074D01*
X69000Y85419D01*
X68846Y84646D01*
X69000Y83873D01*
X69031Y83826D01*
Y47847D01*
X67507D01*
Y42113D01*
X74225D01*
Y47847D01*
X72701D01*
Y83826D01*
X72732Y83873D01*
X72886Y84646D01*
X72732Y85419D01*
X72294Y86074D01*
X71639Y86512D01*
X70866Y86666D01*
D02*
G37*
G36*
X16004Y84710D02*
X15024Y84581D01*
X14111Y84203D01*
X13327Y83602D01*
X12726Y82818D01*
X12348Y81905D01*
X12219Y80925D01*
X12348Y79945D01*
X12726Y79033D01*
X13327Y78249D01*
X14111Y77647D01*
X15024Y77269D01*
X16004Y77140D01*
X16984Y77269D01*
X17041Y77293D01*
X35566Y58767D01*
Y47847D01*
X34043D01*
Y42113D01*
X40761D01*
Y47847D01*
X39237D01*
Y59528D01*
X39097Y60230D01*
X38699Y60825D01*
X19636Y79888D01*
X19660Y79945D01*
X19789Y80925D01*
X19660Y81905D01*
X19282Y82818D01*
X18680Y83602D01*
X17897Y84203D01*
X16984Y84581D01*
X16004Y84710D01*
D02*
G37*
G36*
X206988Y41895D02*
X206009Y41766D01*
X205096Y41388D01*
X204312Y40787D01*
X203710Y40003D01*
X203686Y39946D01*
X176530D01*
X176506Y40003D01*
X175905Y40787D01*
X175121Y41388D01*
X174208Y41766D01*
X173228Y41895D01*
X172249Y41766D01*
X171336Y41388D01*
X170552Y40787D01*
X169950Y40003D01*
X169572Y39090D01*
X169443Y38110D01*
X169572Y37131D01*
X169950Y36218D01*
X170552Y35434D01*
X171336Y34832D01*
X172249Y34454D01*
X173228Y34325D01*
X174208Y34454D01*
X175121Y34832D01*
X175905Y35434D01*
X176506Y36218D01*
X176530Y36275D01*
X203686D01*
X203710Y36218D01*
X204312Y35434D01*
X205096Y34832D01*
X206009Y34454D01*
X206988Y34325D01*
X207968Y34454D01*
X208881Y34832D01*
X209665Y35434D01*
X210266Y36218D01*
X210644Y37131D01*
X210773Y38110D01*
X210644Y39090D01*
X210266Y40003D01*
X209665Y40787D01*
X208881Y41388D01*
X207968Y41766D01*
X206988Y41895D01*
D02*
G37*
G36*
X113228D02*
X112249Y41766D01*
X111336Y41388D01*
X110552Y40787D01*
X109950Y40003D01*
X109572Y39090D01*
X109443Y38110D01*
X109572Y37131D01*
X109950Y36218D01*
X110552Y35434D01*
X111336Y34832D01*
X112249Y34454D01*
X113228Y34325D01*
X114208Y34454D01*
X115121Y34832D01*
X115905Y35434D01*
X116506Y36218D01*
X116885Y37131D01*
X117014Y38110D01*
X116885Y39090D01*
X116506Y40003D01*
X115905Y40787D01*
X115121Y41388D01*
X114208Y41766D01*
X113228Y41895D01*
D02*
G37*
G36*
X206988Y31895D02*
X206009Y31766D01*
X205096Y31388D01*
X204312Y30787D01*
X203710Y30003D01*
X203686Y29945D01*
X176530D01*
X176506Y30003D01*
X175905Y30787D01*
X175121Y31388D01*
X174208Y31766D01*
X173228Y31895D01*
X172249Y31766D01*
X171336Y31388D01*
X170552Y30787D01*
X169950Y30003D01*
X169572Y29090D01*
X169443Y28110D01*
X169572Y27131D01*
X169950Y26218D01*
X170552Y25434D01*
X171336Y24832D01*
X172249Y24454D01*
X173228Y24325D01*
X174208Y24454D01*
X175121Y24832D01*
X175905Y25434D01*
X176506Y26218D01*
X176530Y26275D01*
X203686D01*
X203710Y26218D01*
X204312Y25434D01*
X205096Y24832D01*
X206009Y24454D01*
X206988Y24325D01*
X207968Y24454D01*
X208881Y24832D01*
X209665Y25434D01*
X210266Y26218D01*
X210644Y27131D01*
X210773Y28110D01*
X210644Y29090D01*
X210266Y30003D01*
X209665Y30787D01*
X208881Y31388D01*
X207968Y31766D01*
X206988Y31895D01*
D02*
G37*
G36*
X113228D02*
X112249Y31766D01*
X111336Y31388D01*
X110552Y30787D01*
X109950Y30003D01*
X109572Y29090D01*
X109443Y28110D01*
X109572Y27131D01*
X109950Y26218D01*
X110552Y25434D01*
X111336Y24832D01*
X112249Y24454D01*
X113228Y24325D01*
X114208Y24454D01*
X115121Y24832D01*
X115905Y25434D01*
X116506Y26218D01*
X116885Y27131D01*
X117014Y28110D01*
X116885Y29090D01*
X116506Y30003D01*
X115905Y30787D01*
X115121Y31388D01*
X114208Y31766D01*
X113228Y31895D01*
D02*
G37*
G36*
X74225Y40564D02*
X67507D01*
Y34830D01*
X69031D01*
Y28261D01*
X67901D01*
Y21739D01*
X73831D01*
Y28261D01*
X72701D01*
Y34830D01*
X74225D01*
Y40564D01*
D02*
G37*
G36*
X57493D02*
X50775D01*
Y34830D01*
X52299D01*
Y28261D01*
X51169D01*
Y21739D01*
X57099D01*
Y28261D01*
X55969D01*
Y34830D01*
X57493D01*
Y40564D01*
D02*
G37*
G36*
X40761D02*
X34043D01*
Y34830D01*
X35566D01*
Y28261D01*
X34436D01*
Y21739D01*
X40367D01*
Y28261D01*
X39237D01*
Y34830D01*
X40761D01*
Y40564D01*
D02*
G37*
G36*
X206988Y21895D02*
X206009Y21766D01*
X205096Y21388D01*
X204312Y20787D01*
X203710Y20003D01*
X203686Y19945D01*
X176530D01*
X176506Y20003D01*
X175905Y20787D01*
X175121Y21388D01*
X174208Y21766D01*
X173228Y21895D01*
X172249Y21766D01*
X171336Y21388D01*
X170552Y20787D01*
X169950Y20003D01*
X169572Y19090D01*
X169443Y18110D01*
X169572Y17131D01*
X169950Y16218D01*
X170552Y15434D01*
X171336Y14832D01*
X172249Y14454D01*
X173228Y14325D01*
X174208Y14454D01*
X175121Y14832D01*
X175905Y15434D01*
X176506Y16218D01*
X176530Y16275D01*
X203686D01*
X203710Y16218D01*
X204312Y15434D01*
X205096Y14832D01*
X206009Y14454D01*
X206988Y14325D01*
X207968Y14454D01*
X208881Y14832D01*
X209665Y15434D01*
X210266Y16218D01*
X210644Y17131D01*
X210773Y18110D01*
X210644Y19090D01*
X210266Y20003D01*
X209665Y20787D01*
X208881Y21388D01*
X207968Y21766D01*
X206988Y21895D01*
D02*
G37*
G36*
X74032Y19209D02*
X71366D01*
Y16248D01*
X74032D01*
Y19209D01*
D02*
G37*
G36*
X57299D02*
X54634D01*
Y16248D01*
X57299D01*
Y19209D01*
D02*
G37*
G36*
X70366D02*
X67701D01*
Y16248D01*
X70366D01*
Y19209D01*
D02*
G37*
G36*
X53634D02*
X50968D01*
Y16248D01*
X53634D01*
Y19209D01*
D02*
G37*
G36*
X40567D02*
X37902D01*
Y16248D01*
X40567D01*
Y19209D01*
D02*
G37*
G36*
X36902D02*
X34236D01*
Y16248D01*
X36902D01*
Y19209D01*
D02*
G37*
G36*
X113228Y21895D02*
X112249Y21766D01*
X111336Y21388D01*
X110552Y20787D01*
X109950Y20003D01*
X109572Y19090D01*
X109443Y18110D01*
X109572Y17131D01*
X109950Y16218D01*
X110552Y15434D01*
X111336Y14832D01*
X112249Y14454D01*
X113228Y14325D01*
X114208Y14454D01*
X115121Y14832D01*
X115905Y15434D01*
X116506Y16218D01*
X116885Y17131D01*
X117014Y18110D01*
X116885Y19090D01*
X116506Y20003D01*
X115905Y20787D01*
X115121Y21388D01*
X114208Y21766D01*
X113228Y21895D01*
D02*
G37*
G36*
X74032Y15248D02*
X71366D01*
Y12287D01*
X74032D01*
Y15248D01*
D02*
G37*
G36*
X70366D02*
X67701D01*
Y12287D01*
X70366D01*
Y15248D01*
D02*
G37*
G36*
X57299D02*
X54634D01*
Y12287D01*
X57299D01*
Y15248D01*
D02*
G37*
G36*
X53634D02*
X50968D01*
Y12287D01*
X53634D01*
Y15248D01*
D02*
G37*
G36*
X40567Y15248D02*
X37902D01*
Y12287D01*
X40567D01*
Y15248D01*
D02*
G37*
G36*
X36902D02*
X34236D01*
Y12287D01*
X36902D01*
Y15248D01*
D02*
G37*
%LPD*%
D10*
X173228Y48110D02*
X206988D01*
X173228Y8110D02*
X206988D01*
D12*
X37402Y44980D02*
D03*
Y37697D02*
D03*
X54134Y44980D02*
D03*
Y37697D02*
D03*
X70866Y44980D02*
D03*
Y37697D02*
D03*
D13*
X37402Y25000D02*
D03*
Y15748D02*
D03*
X54134Y25000D02*
D03*
Y15748D02*
D03*
X70866Y25000D02*
D03*
Y15748D02*
D03*
D14*
X34000Y111358D02*
D03*
Y118642D02*
D03*
D21*
X70866Y25000D02*
Y37697D01*
X54134Y25000D02*
Y37697D01*
X37402Y25000D02*
Y37697D01*
X70866Y44980D02*
Y84646D01*
X70256Y90925D02*
X81004D01*
X54134Y74803D02*
X70256Y90925D01*
X54134Y44980D02*
Y74803D01*
X16004Y80925D02*
X37402Y59528D01*
Y44980D02*
Y59528D01*
X223878Y165000D02*
X247000D01*
X206988Y148110D02*
X223878Y165000D01*
X206988Y138110D02*
X215256Y129842D01*
X247000D01*
X16354Y110567D02*
X16533Y110746D01*
X167981Y223358D02*
X173228Y218110D01*
X100448Y223358D02*
X167981D01*
X173228Y228110D02*
X206988D01*
X173228Y208110D02*
X206988D01*
X173228Y198110D02*
X206988D01*
X173228Y188110D02*
X206988D01*
X173228Y178110D02*
X206988D01*
X173228Y168110D02*
X206988D01*
X173228Y158110D02*
X206988D01*
X173228Y148110D02*
X206988D01*
X173228Y138110D02*
X206988D01*
X173228Y128110D02*
X206988D01*
X173228Y118110D02*
X206988D01*
X173228Y88110D02*
X206988D01*
X173228Y78110D02*
X206988D01*
X173228Y68110D02*
X206988D01*
X173228Y58110D02*
X206988D01*
X173228Y38110D02*
X206988D01*
X173228Y28110D02*
X206988D01*
X173228Y18110D02*
X206988D01*
X81004Y60925D02*
X93819Y48110D01*
X113228D01*
X112171Y128110D02*
X113228D01*
X109357Y130925D02*
X112171Y128110D01*
X81004Y130925D02*
X109357D01*
X112171Y118110D02*
X113228D01*
X109357Y120925D02*
X112171Y118110D01*
X81004Y120925D02*
X109357D01*
X97806Y226000D02*
X100448Y223358D01*
X82000Y226000D02*
X97806D01*
X16220Y111142D02*
X82000Y176921D01*
X16004Y110925D02*
X16220Y111142D01*
X82000Y176921D02*
Y216000D01*
X33784Y111142D02*
X34000Y111358D01*
X16220Y111142D02*
X33784D01*
X72000Y226000D02*
Y236000D01*
Y216000D02*
Y226000D01*
X82000D01*
Y236000D01*
Y216000D02*
Y226000D01*
D22*
X206988Y8110D02*
D03*
Y198110D02*
D03*
Y188110D02*
D03*
Y178110D02*
D03*
Y228110D02*
D03*
Y218110D02*
D03*
Y208110D02*
D03*
Y138110D02*
D03*
Y148110D02*
D03*
Y158110D02*
D03*
Y168110D02*
D03*
Y98110D02*
D03*
Y108110D02*
D03*
Y118110D02*
D03*
Y128110D02*
D03*
Y58110D02*
D03*
Y68110D02*
D03*
Y78110D02*
D03*
Y88110D02*
D03*
Y48110D02*
D03*
Y38110D02*
D03*
Y28110D02*
D03*
Y18110D02*
D03*
X113228Y238110D02*
D03*
Y228110D02*
D03*
Y218110D02*
D03*
Y208110D02*
D03*
Y198110D02*
D03*
Y188110D02*
D03*
Y178110D02*
D03*
Y168110D02*
D03*
Y158110D02*
D03*
Y148110D02*
D03*
Y138110D02*
D03*
Y128110D02*
D03*
Y118110D02*
D03*
Y108110D02*
D03*
X173228D02*
D03*
Y118110D02*
D03*
Y128110D02*
D03*
Y138110D02*
D03*
Y148110D02*
D03*
Y158110D02*
D03*
Y168110D02*
D03*
Y178110D02*
D03*
Y188110D02*
D03*
Y198110D02*
D03*
Y208110D02*
D03*
X113228Y88110D02*
D03*
Y78110D02*
D03*
Y68110D02*
D03*
Y58110D02*
D03*
Y48110D02*
D03*
Y38110D02*
D03*
Y28110D02*
D03*
Y18110D02*
D03*
Y8110D02*
D03*
X173228D02*
D03*
Y18110D02*
D03*
Y28110D02*
D03*
Y38110D02*
D03*
Y48110D02*
D03*
Y58110D02*
D03*
Y68110D02*
D03*
X113228Y98110D02*
D03*
X173228Y218110D02*
D03*
Y228110D02*
D03*
Y238110D02*
D03*
Y98110D02*
D03*
Y88110D02*
D03*
Y78110D02*
D03*
X16004Y120925D02*
D03*
Y130925D02*
D03*
X81004Y120925D02*
D03*
Y130925D02*
D03*
X16004Y100925D02*
D03*
Y110925D02*
D03*
X81004Y100925D02*
D03*
Y110925D02*
D03*
X16004Y80925D02*
D03*
Y90925D02*
D03*
X81004Y80925D02*
D03*
Y90925D02*
D03*
Y70925D02*
D03*
Y60925D02*
D03*
X16004Y70925D02*
D03*
Y60925D02*
D03*
X72000Y236000D02*
D03*
Y226000D02*
D03*
Y216000D02*
D03*
X82000Y236000D02*
D03*
Y226000D02*
D03*
X48000Y236000D02*
D03*
Y226000D02*
D03*
Y216000D02*
D03*
X58000Y236000D02*
D03*
Y226000D02*
D03*
X247000Y165000D02*
D03*
Y174843D02*
D03*
Y129842D02*
D03*
Y139685D02*
D03*
D23*
X206988Y238110D02*
D03*
X82000Y216000D02*
D03*
X58000D02*
D03*
D24*
X263000Y12642D02*
D03*
Y244642D02*
D03*
X13000D02*
D03*
Y12642D02*
D03*
D25*
X70866Y84646D02*
D03*
M02*
