G04*
G04 #@! TF.GenerationSoftware,Altium Limited,Altium Designer,20.0.12 (288)*
G04*
G04 Layer_Color=65535*
%FSLAX25Y25*%
%MOIN*%
G70*
G01*
G75*
%ADD10C,0.01000*%
%ADD11C,0.00787*%
G36*
X61891Y188914D02*
X52831Y187307D01*
X43771Y188914D01*
X52831Y190522D01*
X61891Y188914D01*
D02*
G37*
G36*
X63060Y176493D02*
X57507Y163340D01*
X59845Y178246D01*
X69198Y183800D01*
X63060Y176493D01*
D02*
G37*
G36*
X45816Y178246D02*
X48155Y163340D01*
X42601Y176493D01*
X36464Y183800D01*
X45816Y178246D01*
D02*
G37*
G36*
X57507Y180292D02*
X54000Y158956D01*
Y184969D01*
X68321Y187307D01*
X57507Y180292D01*
D02*
G37*
G36*
X51662Y184969D02*
Y158810D01*
X48155Y180292D01*
X37341Y187307D01*
X51662Y184969D01*
D02*
G37*
D10*
X31890Y11713D02*
X42520D01*
X48622D02*
X59252D01*
X65354D02*
X75984D01*
X5177Y49114D02*
X89823D01*
Y155413D01*
X5177D02*
X89823D01*
X5177Y49114D02*
Y155413D01*
X48306Y206786D02*
X47306Y207786D01*
X45307D01*
X44307Y206786D01*
Y202787D01*
X45307Y201787D01*
X47306D01*
X48306Y202787D01*
Y204786D01*
X46306D01*
X50305Y201787D02*
Y207786D01*
X54304Y201787D01*
Y207786D01*
X56303D02*
Y201787D01*
X59302D01*
X60302Y202787D01*
Y206786D01*
X59302Y207786D01*
X56303D01*
X91551Y247094D02*
Y253092D01*
X94550D01*
X95550Y252092D01*
Y250093D01*
X94550Y249093D01*
X91551D01*
X93550D02*
X95550Y247094D01*
X100548D02*
X98549D01*
X97549Y248094D01*
Y250093D01*
X98549Y251093D01*
X100548D01*
X101548Y250093D01*
Y249093D01*
X97549D01*
X107546Y251093D02*
X104547D01*
X103547Y250093D01*
Y248094D01*
X104547Y247094D01*
X107546D01*
X112544D02*
X110545D01*
X109545Y248094D01*
Y250093D01*
X110545Y251093D01*
X112544D01*
X113544Y250093D01*
Y249093D01*
X109545D01*
X115543Y247094D02*
X117543D01*
X116543D01*
Y251093D01*
X115543D01*
X120542D02*
X122541Y247094D01*
X124540Y251093D01*
X129539Y247094D02*
X127540D01*
X126540Y248094D01*
Y250093D01*
X127540Y251093D01*
X129539D01*
X130539Y250093D01*
Y249093D01*
X126540D01*
X132538Y251093D02*
Y247094D01*
Y249093D01*
X133538Y250093D01*
X134537Y251093D01*
X135537D01*
X138536Y250093D02*
X142535D01*
X144534Y253092D02*
X148533D01*
X146533D01*
Y247094D01*
X153531D02*
X151532D01*
X150532Y248094D01*
Y250093D01*
X151532Y251093D01*
X153531D01*
X154531Y250093D01*
Y249093D01*
X150532D01*
X156530Y247094D02*
X158529D01*
X157530D01*
Y253092D01*
X156530D01*
X164528Y247094D02*
X162528D01*
X161529Y248094D01*
Y250093D01*
X162528Y251093D01*
X164528D01*
X165527Y250093D01*
Y249093D01*
X161529D01*
X167527Y247094D02*
Y251093D01*
X168526D01*
X169526Y250093D01*
Y247094D01*
Y250093D01*
X170526Y251093D01*
X171525Y250093D01*
Y247094D01*
X176524D02*
X174524D01*
X173525Y248094D01*
Y250093D01*
X174524Y251093D01*
X176524D01*
X177523Y250093D01*
Y249093D01*
X173525D01*
X180522Y252092D02*
Y251093D01*
X179523D01*
X181522D01*
X180522D01*
Y248094D01*
X181522Y247094D01*
X184521Y251093D02*
Y247094D01*
Y249093D01*
X185521Y250093D01*
X186521Y251093D01*
X187520D01*
X190519D02*
Y248094D01*
X191519Y247094D01*
X194518D01*
Y246094D01*
X193518Y245094D01*
X192518D01*
X194518Y247094D02*
Y251093D01*
X206514Y247094D02*
X202515D01*
X206514Y251093D01*
Y252092D01*
X205514Y253092D01*
X203515D01*
X202515Y252092D01*
X208513D02*
X209513Y253092D01*
X211512D01*
X212512Y252092D01*
Y248094D01*
X211512Y247094D01*
X209513D01*
X208513Y248094D01*
Y252092D01*
X218510Y247094D02*
X214511D01*
X218510Y251093D01*
Y252092D01*
X217510Y253092D01*
X215511D01*
X214511Y252092D01*
X220510D02*
X221509Y253092D01*
X223509D01*
X224508Y252092D01*
Y248094D01*
X223509Y247094D01*
X221509D01*
X220510Y248094D01*
Y252092D01*
X225285Y162479D02*
X224286Y161479D01*
Y159480D01*
X225285Y158480D01*
X229284D01*
X230284Y159480D01*
Y161479D01*
X229284Y162479D01*
X227285D01*
Y160480D01*
X231283Y164478D02*
Y168477D01*
X224286Y170476D02*
X230284D01*
Y174475D01*
X224286Y180473D02*
Y176474D01*
X230284D01*
Y180473D01*
X227285Y176474D02*
Y178474D01*
X224286Y182473D02*
X230284D01*
Y185472D01*
X229284Y186471D01*
X225285D01*
X224286Y185472D01*
Y182473D01*
X67929Y206786D02*
X68929Y207786D01*
X70928D01*
X71928Y206786D01*
Y205786D01*
X70928Y204786D01*
X69928D01*
X70928D01*
X71928Y203787D01*
Y202787D01*
X70928Y201787D01*
X68929D01*
X67929Y202787D01*
X73927Y207786D02*
Y203787D01*
X75927Y201787D01*
X77926Y203787D01*
Y207786D01*
X79925Y206786D02*
X80925Y207786D01*
X82924D01*
X83924Y206786D01*
Y205786D01*
X82924Y204786D01*
X81925D01*
X82924D01*
X83924Y203787D01*
Y202787D01*
X82924Y201787D01*
X80925D01*
X79925Y202787D01*
X230284Y119110D02*
X224286D01*
Y122109D01*
X225285Y123109D01*
X227285D01*
X228284Y122109D01*
Y119110D01*
Y121110D02*
X230284Y123109D01*
X231283Y125108D02*
Y129107D01*
X224286Y131106D02*
X230284D01*
Y135105D01*
X224286Y141103D02*
Y137104D01*
X230284D01*
Y141103D01*
X227285Y137104D02*
Y139104D01*
X224286Y143103D02*
X230284D01*
Y146101D01*
X229284Y147101D01*
X225285D01*
X224286Y146101D01*
Y143103D01*
X186915Y220472D02*
X191914D01*
X192913Y221472D01*
Y223471D01*
X191914Y224471D01*
X186915D01*
X192913Y226470D02*
Y228470D01*
Y227470D01*
X186915D01*
X187915Y226470D01*
X5454Y165373D02*
Y160375D01*
X6454Y159375D01*
X8453D01*
X9453Y160375D01*
Y165373D01*
X15451Y159375D02*
X11452D01*
X15451Y163374D01*
Y164374D01*
X14451Y165373D01*
X12452D01*
X11452Y164374D01*
X82677Y36417D02*
X76679D01*
Y39416D01*
X77679Y40416D01*
X79678D01*
X80678Y39416D01*
Y36417D01*
Y38417D02*
X82677Y40416D01*
X77679Y42415D02*
X76679Y43415D01*
Y45414D01*
X77679Y46414D01*
X78679D01*
X79678Y45414D01*
Y44415D01*
Y45414D01*
X80678Y46414D01*
X81678D01*
X82677Y45414D01*
Y43415D01*
X81678Y42415D01*
X64961Y36417D02*
X58963D01*
Y39416D01*
X59962Y40416D01*
X61962D01*
X62961Y39416D01*
Y36417D01*
Y38417D02*
X64961Y40416D01*
Y46414D02*
Y42415D01*
X60962Y46414D01*
X59962D01*
X58963Y45414D01*
Y43415D01*
X59962Y42415D01*
X48228Y37402D02*
X42230D01*
Y40401D01*
X43230Y41400D01*
X45229D01*
X46229Y40401D01*
Y37402D01*
Y39401D02*
X48228Y41400D01*
Y43400D02*
Y45399D01*
Y44399D01*
X42230D01*
X43230Y43400D01*
X76679Y15748D02*
X82677D01*
Y18747D01*
X81678Y19747D01*
X77679D01*
X76679Y18747D01*
Y15748D01*
X77679Y21746D02*
X76679Y22746D01*
Y24745D01*
X77679Y25745D01*
X78679D01*
X79678Y24745D01*
Y23745D01*
Y24745D01*
X80678Y25745D01*
X81678D01*
X82677Y24745D01*
Y22746D01*
X81678Y21746D01*
X58963Y15748D02*
X64961D01*
Y18747D01*
X63961Y19747D01*
X59962D01*
X58963Y18747D01*
Y15748D01*
X64961Y25745D02*
Y21746D01*
X60962Y25745D01*
X59962D01*
X58963Y24745D01*
Y22746D01*
X59962Y21746D01*
X42230Y16732D02*
X48228D01*
Y19731D01*
X47229Y20731D01*
X43230D01*
X42230Y19731D01*
Y16732D01*
X48228Y22730D02*
Y24730D01*
Y23730D01*
X42230D01*
X43230Y22730D01*
X35199Y129740D02*
X34199Y130740D01*
X32200D01*
X31200Y129740D01*
Y125741D01*
X32200Y124742D01*
X34199D01*
X35199Y125741D01*
X37198Y124742D02*
X39197D01*
X38198D01*
Y130740D01*
X37198Y129740D01*
X67500Y244542D02*
Y250540D01*
X70499D01*
X71499Y249540D01*
Y247541D01*
X70499Y246541D01*
X67500D01*
X77497Y250540D02*
X73498D01*
Y247541D01*
X75497Y248540D01*
X76497D01*
X77497Y247541D01*
Y245541D01*
X76497Y244542D01*
X74498D01*
X73498Y245541D01*
X43500Y244542D02*
Y250540D01*
X46499D01*
X47499Y249540D01*
Y247541D01*
X46499Y246541D01*
X43500D01*
X52497Y244542D02*
Y250540D01*
X49498Y247541D01*
X53497D01*
X220472Y228346D02*
X214474D01*
Y231346D01*
X215474Y232345D01*
X217473D01*
X218473Y231346D01*
Y228346D01*
X215474Y234345D02*
X214474Y235344D01*
Y237344D01*
X215474Y238343D01*
X216474D01*
X217473Y237344D01*
Y236344D01*
Y237344D01*
X218473Y238343D01*
X219473D01*
X220472Y237344D01*
Y235344D01*
X219473Y234345D01*
X244094Y110236D02*
Y116234D01*
X247094D01*
X248093Y115235D01*
Y113235D01*
X247094Y112236D01*
X244094D01*
X254091Y110236D02*
X250093D01*
X254091Y114235D01*
Y115235D01*
X253092Y116234D01*
X251092D01*
X250093Y115235D01*
X244094Y188976D02*
Y194974D01*
X247094D01*
X248093Y193975D01*
Y191975D01*
X247094Y190976D01*
X244094D01*
X250093Y188976D02*
X252092D01*
X251092D01*
Y194974D01*
X250093Y193975D01*
D11*
X108228Y243110D02*
X178228D01*
Y3110D02*
Y243110D01*
X108228Y3110D02*
X178228D01*
X108228D02*
Y243110D01*
X138228Y238110D02*
Y243110D01*
Y238110D02*
X148228D01*
Y243110D01*
M02*
