G04*
G04 #@! TF.GenerationSoftware,Altium Limited,Altium Designer,20.0.12 (288)*
G04*
G04 Layer_Physical_Order=1*
G04 Layer_Color=255*
%FSLAX25Y25*%
%MOIN*%
G70*
G01*
G75*
%ADD10C,0.01000*%
%ADD15R,0.01772X0.05709*%
%ADD16R,0.03937X0.02362*%
%ADD17R,0.12598X0.06299*%
%ADD18R,0.04134X0.05512*%
%ADD19R,0.05512X0.04134*%
%ADD20R,0.04134X0.05118*%
%ADD21R,0.05118X0.04134*%
%ADD22O,0.02559X0.06496*%
%ADD23R,0.02362X0.06890*%
%ADD24R,0.09843X0.12795*%
%ADD25R,0.04921X0.04331*%
%ADD26R,0.04331X0.04921*%
%ADD27R,0.03543X0.03150*%
%ADD47C,0.01500*%
%ADD48C,0.02000*%
%ADD49C,0.03150*%
%ADD50C,0.05906*%
%ADD51R,0.05906X0.05906*%
%ADD52R,0.05906X0.05906*%
%ADD53C,0.25197*%
%ADD54C,0.06000*%
%ADD55R,0.06000X0.06000*%
%ADD56C,0.02362*%
G36*
X450787Y311024D02*
X472441Y311024D01*
X472441Y25591D01*
X448819D01*
Y3937D01*
X171653D01*
Y31496D01*
X3937D01*
Y311024D01*
X27559D01*
X27559Y333465D01*
X450787Y333465D01*
X450787Y311024D01*
D02*
G37*
%LPC*%
G36*
X138290Y326714D02*
X138239Y326703D01*
X138186Y326706D01*
X138103Y326677D01*
X138017Y326659D01*
X137973Y326630D01*
X137924Y326612D01*
X137859Y326553D01*
X137786Y326505D01*
X137756Y326461D01*
X137717Y326425D01*
X130700Y316967D01*
X128791Y316817D01*
X126756Y316328D01*
X124822Y315527D01*
X123037Y314434D01*
X121446Y313074D01*
X120086Y311483D01*
X118992Y309698D01*
X118191Y307764D01*
X117703Y305729D01*
X117538Y303642D01*
X117703Y301555D01*
X118191Y299520D01*
X118992Y297586D01*
X120086Y295801D01*
X121446Y294209D01*
X123037Y292850D01*
X124822Y291756D01*
X126756Y290955D01*
X128791Y290466D01*
X130878Y290302D01*
X132965Y290466D01*
X135000Y290955D01*
X136934Y291756D01*
X138719Y292850D01*
X138879Y292987D01*
X171776Y292987D01*
Y263050D01*
X169741D01*
Y257517D01*
X176259D01*
Y263050D01*
X174223D01*
Y292987D01*
X191619D01*
Y292977D01*
X195381D01*
Y292987D01*
X196619D01*
Y292977D01*
X200381D01*
Y293114D01*
X200505Y293196D01*
X200659Y293428D01*
X200714Y293701D01*
X200714Y304000D01*
X200659Y304273D01*
X200505Y304505D01*
X178505Y326505D01*
X178273Y326659D01*
X178000Y326714D01*
X138290Y326714D01*
D02*
G37*
G36*
X422244Y314649D02*
Y306890D01*
X430003D01*
X429477Y308161D01*
X428358Y309986D01*
X426968Y311614D01*
X425341Y313004D01*
X423516Y314122D01*
X422244Y314649D01*
D02*
G37*
G36*
X412402Y314649D02*
X411130Y314122D01*
X409305Y313004D01*
X407678Y311614D01*
X406287Y309986D01*
X405169Y308161D01*
X404642Y306890D01*
X412402D01*
Y314649D01*
D02*
G37*
G36*
X325197Y326698D02*
X224213D01*
X223939Y326644D01*
X223708Y326489D01*
X201857Y304639D01*
X201703Y304407D01*
X201648Y304134D01*
Y301267D01*
X201619D01*
Y292977D01*
X202356D01*
X220152Y289848D01*
X220214Y289850D01*
X220276Y289838D01*
X314196Y289837D01*
X314303Y289859D01*
X314412Y289871D01*
X318408Y291135D01*
X319960Y290762D01*
X322047Y290598D01*
X324134Y290762D01*
X326169Y291250D01*
X328103Y292051D01*
X329888Y293145D01*
X331480Y294504D01*
X332839Y296096D01*
X333933Y297881D01*
X334734Y299815D01*
X335223Y301850D01*
X335387Y303937D01*
X335223Y306024D01*
X334734Y308059D01*
X333933Y309993D01*
X332839Y311778D01*
X332210Y312515D01*
X332210Y319685D01*
X332155Y319958D01*
X332001Y320190D01*
X325701Y326489D01*
X325470Y326644D01*
X325197Y326698D01*
D02*
G37*
G36*
X430003Y297047D02*
X422244D01*
Y289288D01*
X423516Y289815D01*
X425341Y290933D01*
X426968Y292323D01*
X428358Y293951D01*
X429477Y295776D01*
X430003Y297047D01*
D02*
G37*
G36*
X412402D02*
X404642D01*
X405169Y295776D01*
X406287Y293951D01*
X407678Y292323D01*
X409305Y290933D01*
X411130Y289815D01*
X412402Y289288D01*
Y297047D01*
D02*
G37*
G36*
X326969Y288271D02*
Y280512D01*
X334728D01*
X334201Y281783D01*
X333083Y283608D01*
X331693Y285236D01*
X330065Y286626D01*
X328240Y287744D01*
X326969Y288271D01*
D02*
G37*
G36*
X317126D02*
X315855Y287744D01*
X314030Y286626D01*
X312402Y285236D01*
X311012Y283608D01*
X309893Y281783D01*
X309367Y280512D01*
X317126D01*
Y288271D01*
D02*
G37*
G36*
X272638D02*
Y280512D01*
X280397D01*
X279870Y281783D01*
X278752Y283608D01*
X277362Y285236D01*
X275734Y286626D01*
X273909Y287744D01*
X272638Y288271D01*
D02*
G37*
G36*
X262795D02*
X261524Y287744D01*
X259699Y286626D01*
X258071Y285236D01*
X256681Y283608D01*
X255563Y281783D01*
X255036Y280512D01*
X262795D01*
Y288271D01*
D02*
G37*
G36*
X135799Y287976D02*
Y280217D01*
X143558D01*
X143032Y281488D01*
X141913Y283313D01*
X140523Y284941D01*
X138896Y286331D01*
X137071Y287449D01*
X135799Y287976D01*
D02*
G37*
G36*
X125957D02*
X124685Y287449D01*
X122860Y286331D01*
X121233Y284941D01*
X119843Y283313D01*
X118724Y281488D01*
X118198Y280217D01*
X125957D01*
Y287976D01*
D02*
G37*
G36*
X195681Y279323D02*
X195000D01*
Y276378D01*
X195681D01*
Y279323D01*
D02*
G37*
G36*
X192000D02*
X191319D01*
Y276378D01*
X192000D01*
Y279323D01*
D02*
G37*
G36*
X195681Y273378D02*
X195000D01*
Y270433D01*
X195681D01*
Y273378D01*
D02*
G37*
G36*
X192000D02*
X191319D01*
Y270433D01*
X192000D01*
Y273378D01*
D02*
G37*
G36*
X205381Y279023D02*
X201619D01*
Y270733D01*
X202276D01*
Y263767D01*
X199723D01*
Y270733D01*
X200381D01*
Y279023D01*
X196619D01*
Y270733D01*
X197276D01*
Y263767D01*
X195544D01*
Y258233D01*
X202276D01*
Y256784D01*
X200500D01*
Y253716D01*
Y250650D01*
X202756D01*
Y250650D01*
X203206Y250836D01*
X227554Y226488D01*
X227362Y226026D01*
X226704D01*
X212865Y239865D01*
X212468Y240130D01*
X212000Y240224D01*
X191507D01*
X184523Y247207D01*
Y250233D01*
X186759D01*
Y255767D01*
X180241D01*
Y254223D01*
X176259D01*
Y255767D01*
X169741D01*
Y250233D01*
X176259D01*
Y251776D01*
X180241D01*
Y250233D01*
X182077D01*
Y246700D01*
X182170Y246232D01*
X182435Y245835D01*
X190135Y238135D01*
X190532Y237870D01*
X191000Y237776D01*
X211493D01*
X225332Y223938D01*
X225729Y223673D01*
X226197Y223579D01*
X245690D01*
X249576Y219693D01*
Y219017D01*
X249077Y218917D01*
X249049Y218984D01*
X248463Y219747D01*
X247700Y220332D01*
X246812Y220701D01*
X245858Y220826D01*
X244905Y220701D01*
X244016Y220332D01*
X243253Y219747D01*
X242668Y218984D01*
X242300Y218095D01*
X242174Y217142D01*
X242300Y216188D01*
X242668Y215300D01*
X243253Y214537D01*
X244016Y213951D01*
X244905Y213583D01*
X245858Y213457D01*
X246812Y213583D01*
X247700Y213951D01*
X248463Y214537D01*
X249049Y215300D01*
X249077Y215366D01*
X249576Y215267D01*
Y193200D01*
X249670Y192732D01*
X249935Y192335D01*
X252936Y189334D01*
X252668Y188984D01*
X252299Y188095D01*
X252174Y187142D01*
X252299Y186188D01*
X252668Y185300D01*
X253253Y184537D01*
X254016Y183951D01*
X254905Y183583D01*
X255858Y183458D01*
X256812Y183583D01*
X257700Y183951D01*
X258463Y184537D01*
X259049Y185300D01*
X259417Y186188D01*
X259542Y187142D01*
X259417Y188095D01*
X259049Y188984D01*
X258463Y189747D01*
X257700Y190332D01*
X256812Y190700D01*
X255858Y190826D01*
X255015Y190715D01*
X252024Y193707D01*
Y215548D01*
X252523Y215648D01*
X252668Y215300D01*
X253253Y214537D01*
X254016Y213951D01*
X254905Y213583D01*
X255858Y213457D01*
X256812Y213583D01*
X257700Y213951D01*
X258463Y214537D01*
X259049Y215300D01*
X259176Y215608D01*
X259677Y215508D01*
Y192100D01*
X259770Y191632D01*
X260035Y191235D01*
X262556Y188714D01*
X262299Y188095D01*
X262174Y187142D01*
X262299Y186188D01*
X262668Y185300D01*
X263253Y184537D01*
X264016Y183951D01*
X264905Y183583D01*
X265858Y183458D01*
X266812Y183583D01*
X267700Y183951D01*
X268463Y184537D01*
X269049Y185300D01*
X269417Y186188D01*
X269543Y187142D01*
X269417Y188095D01*
X269049Y188984D01*
X268463Y189747D01*
X267700Y190332D01*
X266812Y190700D01*
X265858Y190826D01*
X264905Y190700D01*
X264286Y190444D01*
X262123Y192607D01*
Y215307D01*
X262624Y215406D01*
X262668Y215300D01*
X263253Y214537D01*
X264016Y213951D01*
X264905Y213583D01*
X265858Y213457D01*
X266812Y213583D01*
X267700Y213951D01*
X268463Y214537D01*
X269049Y215300D01*
X269417Y216188D01*
X269543Y217142D01*
X269417Y218095D01*
X269049Y218984D01*
X268463Y219747D01*
X267700Y220332D01*
X266812Y220701D01*
X265858Y220826D01*
X264905Y220701D01*
X264016Y220332D01*
X263253Y219747D01*
X262668Y218984D01*
X262624Y218877D01*
X262123Y218977D01*
Y220100D01*
X262030Y220568D01*
X261765Y220965D01*
X255362Y227368D01*
X254965Y227633D01*
X254497Y227726D01*
X229776D01*
X207315Y250188D01*
X207500Y250635D01*
Y253717D01*
Y256784D01*
X205244D01*
Y253491D01*
X204744Y253224D01*
X204724Y253237D01*
Y270733D01*
X205381D01*
Y279023D01*
D02*
G37*
G36*
X334728Y270669D02*
X326969D01*
Y262910D01*
X328240Y263437D01*
X330065Y264555D01*
X331693Y265945D01*
X333083Y267573D01*
X334201Y269398D01*
X334728Y270669D01*
D02*
G37*
G36*
X317126D02*
X309367D01*
X309893Y269398D01*
X311012Y267573D01*
X312402Y265945D01*
X314030Y264555D01*
X315855Y263437D01*
X317126Y262910D01*
Y270669D01*
D02*
G37*
G36*
X280397D02*
X272638D01*
Y262910D01*
X273909Y263437D01*
X275734Y264555D01*
X277362Y265945D01*
X278752Y267573D01*
X279870Y269398D01*
X280397Y270669D01*
D02*
G37*
G36*
X262795D02*
X255036D01*
X255563Y269398D01*
X256681Y267573D01*
X258071Y265945D01*
X259699Y264555D01*
X261524Y263437D01*
X262795Y262910D01*
Y270669D01*
D02*
G37*
G36*
X143558Y270374D02*
X135799D01*
Y262615D01*
X137071Y263141D01*
X138896Y264260D01*
X140523Y265650D01*
X141913Y267278D01*
X143032Y269103D01*
X143558Y270374D01*
D02*
G37*
G36*
X125957D02*
X118198D01*
X118724Y269103D01*
X119843Y267278D01*
X121233Y265650D01*
X122860Y264260D01*
X124685Y263141D01*
X125957Y262615D01*
Y270374D01*
D02*
G37*
G36*
X187059Y263350D02*
X185000D01*
Y261784D01*
X187059D01*
Y263350D01*
D02*
G37*
G36*
X182000D02*
X179941D01*
Y261784D01*
X182000D01*
Y263350D01*
D02*
G37*
G36*
X187059Y258784D02*
X185000D01*
Y257217D01*
X187059D01*
Y258784D01*
D02*
G37*
G36*
X182000D02*
X179941D01*
Y257217D01*
X182000D01*
Y258784D01*
D02*
G37*
G36*
X212756Y256784D02*
X210500D01*
Y255217D01*
X212756D01*
Y256784D01*
D02*
G37*
G36*
X197500Y256784D02*
X195244D01*
Y255217D01*
X197500D01*
Y256784D01*
D02*
G37*
G36*
X212756Y252217D02*
X210500D01*
Y250650D01*
X212756D01*
Y252217D01*
D02*
G37*
G36*
X197500Y252217D02*
X195244D01*
Y250650D01*
X197500D01*
Y252217D01*
D02*
G37*
G36*
X210381Y279023D02*
X206619D01*
Y270733D01*
X207277D01*
Y263767D01*
X205544D01*
Y258233D01*
X212456D01*
Y258233D01*
X212866Y258403D01*
X213737Y257533D01*
Y251051D01*
X213604Y250962D01*
X213189Y250340D01*
X213043Y249606D01*
X213189Y248872D01*
X213604Y248250D01*
X214227Y247834D01*
X214961Y247688D01*
X215695Y247834D01*
X216317Y248250D01*
X216733Y248872D01*
X216879Y249606D01*
X216733Y250340D01*
X216317Y250962D01*
X216184Y251051D01*
Y258039D01*
X216091Y258508D01*
X215826Y258905D01*
X212865Y261865D01*
X212468Y262130D01*
X212456Y262133D01*
Y263767D01*
X209723D01*
Y270733D01*
X210381D01*
Y279023D01*
D02*
G37*
G36*
X99000Y250684D02*
X98046Y250559D01*
X97158Y250191D01*
X96395Y249605D01*
X95809Y248842D01*
X95441Y247954D01*
X95316Y247000D01*
X95441Y246046D01*
X95809Y245158D01*
X96395Y244395D01*
X97158Y243809D01*
X98046Y243441D01*
X99000Y243316D01*
X99954Y243441D01*
X100842Y243809D01*
X101605Y244395D01*
X102191Y245158D01*
X102559Y246046D01*
X102684Y247000D01*
X102559Y247954D01*
X102191Y248842D01*
X101605Y249605D01*
X100842Y250191D01*
X99954Y250559D01*
X99000Y250684D01*
D02*
G37*
G36*
X85000D02*
X84046Y250559D01*
X83158Y250191D01*
X82395Y249605D01*
X81809Y248842D01*
X81441Y247954D01*
X81316Y247000D01*
X81441Y246046D01*
X81809Y245158D01*
X82395Y244395D01*
X83158Y243809D01*
X84046Y243441D01*
X85000Y243316D01*
X85954Y243441D01*
X86842Y243809D01*
X87605Y244395D01*
X88191Y245158D01*
X88559Y246046D01*
X88684Y247000D01*
X88559Y247954D01*
X88191Y248842D01*
X87605Y249605D01*
X86842Y250191D01*
X85954Y250559D01*
X85000Y250684D01*
D02*
G37*
G36*
X71000D02*
X70046Y250559D01*
X69158Y250191D01*
X68395Y249605D01*
X67809Y248842D01*
X67441Y247954D01*
X67316Y247000D01*
X67441Y246046D01*
X67809Y245158D01*
X68395Y244395D01*
X69158Y243809D01*
X70046Y243441D01*
X71000Y243316D01*
X71954Y243441D01*
X72842Y243809D01*
X73605Y244395D01*
X74191Y245158D01*
X74559Y246046D01*
X74684Y247000D01*
X74559Y247954D01*
X74191Y248842D01*
X73605Y249605D01*
X72842Y250191D01*
X71954Y250559D01*
X71000Y250684D01*
D02*
G37*
G36*
X57000D02*
X56046Y250559D01*
X55158Y250191D01*
X54395Y249605D01*
X53809Y248842D01*
X53441Y247954D01*
X53316Y247000D01*
X53441Y246046D01*
X53809Y245158D01*
X54395Y244395D01*
X55158Y243809D01*
X56046Y243441D01*
X57000Y243316D01*
X57954Y243441D01*
X58842Y243809D01*
X59605Y244395D01*
X60191Y245158D01*
X60559Y246046D01*
X60684Y247000D01*
X60559Y247954D01*
X60191Y248842D01*
X59605Y249605D01*
X58842Y250191D01*
X57954Y250559D01*
X57000Y250684D01*
D02*
G37*
G36*
X43000D02*
X42046Y250559D01*
X41158Y250191D01*
X40395Y249605D01*
X39809Y248842D01*
X39441Y247954D01*
X39316Y247000D01*
X39441Y246046D01*
X39809Y245158D01*
X40395Y244395D01*
X41158Y243809D01*
X42046Y243441D01*
X43000Y243316D01*
X43954Y243441D01*
X44842Y243809D01*
X45605Y244395D01*
X46191Y245158D01*
X46559Y246046D01*
X46684Y247000D01*
X46559Y247954D01*
X46191Y248842D01*
X45605Y249605D01*
X44842Y250191D01*
X43954Y250559D01*
X43000Y250684D01*
D02*
G37*
G36*
X29000D02*
X28046Y250559D01*
X27158Y250191D01*
X26395Y249605D01*
X25809Y248842D01*
X25441Y247954D01*
X25316Y247000D01*
X25441Y246046D01*
X25809Y245158D01*
X26395Y244395D01*
X27158Y243809D01*
X28046Y243441D01*
X29000Y243316D01*
X29954Y243441D01*
X30842Y243809D01*
X31605Y244395D01*
X32191Y245158D01*
X32559Y246046D01*
X32684Y247000D01*
X32559Y247954D01*
X32191Y248842D01*
X31605Y249605D01*
X30842Y250191D01*
X29954Y250559D01*
X29000Y250684D01*
D02*
G37*
G36*
X457299Y243520D02*
X451500D01*
Y240870D01*
X457299D01*
Y243520D01*
D02*
G37*
G36*
X390764D02*
X384965D01*
Y240870D01*
X390764D01*
Y243520D01*
D02*
G37*
G36*
X381965D02*
X376165D01*
Y240870D01*
X381965D01*
Y243520D01*
D02*
G37*
G36*
X448500D02*
X442701D01*
Y240870D01*
X448500D01*
Y243520D01*
D02*
G37*
G36*
X99000Y240684D02*
X98046Y240559D01*
X97158Y240191D01*
X96395Y239605D01*
X95809Y238842D01*
X95659Y238478D01*
X88341D01*
X88191Y238842D01*
X87605Y239605D01*
X86842Y240191D01*
X85954Y240559D01*
X85000Y240684D01*
X84046Y240559D01*
X83158Y240191D01*
X82395Y239605D01*
X81809Y238842D01*
X81659Y238478D01*
X74341D01*
X74191Y238842D01*
X73605Y239605D01*
X72842Y240191D01*
X71954Y240559D01*
X71000Y240684D01*
X70046Y240559D01*
X69158Y240191D01*
X68395Y239605D01*
X67809Y238842D01*
X67659Y238478D01*
X60341D01*
X60191Y238842D01*
X59605Y239605D01*
X58842Y240191D01*
X57954Y240559D01*
X57000Y240684D01*
X56046Y240559D01*
X55158Y240191D01*
X54395Y239605D01*
X53809Y238842D01*
X53659Y238478D01*
X46341D01*
X46191Y238842D01*
X45605Y239605D01*
X44842Y240191D01*
X43954Y240559D01*
X43000Y240684D01*
X42046Y240559D01*
X41158Y240191D01*
X40395Y239605D01*
X39809Y238842D01*
X39659Y238478D01*
X32341D01*
X32191Y238842D01*
X31605Y239605D01*
X30842Y240191D01*
X29954Y240559D01*
X29000Y240684D01*
X28046Y240559D01*
X27158Y240191D01*
X26395Y239605D01*
X25809Y238842D01*
X25441Y237954D01*
X25316Y237000D01*
X25441Y236046D01*
X25809Y235158D01*
X26395Y234395D01*
X27158Y233809D01*
X28046Y233441D01*
X29000Y233316D01*
X29954Y233441D01*
X30842Y233809D01*
X31605Y234395D01*
X32191Y235158D01*
X32341Y235522D01*
X39659D01*
X39809Y235158D01*
X40395Y234395D01*
X41158Y233809D01*
X42046Y233441D01*
X43000Y233316D01*
X43954Y233441D01*
X44842Y233809D01*
X45605Y234395D01*
X46191Y235158D01*
X46341Y235522D01*
X53659D01*
X53809Y235158D01*
X54395Y234395D01*
X55158Y233809D01*
X56046Y233441D01*
X57000Y233316D01*
X57954Y233441D01*
X58842Y233809D01*
X59605Y234395D01*
X60191Y235158D01*
X60341Y235522D01*
X67659D01*
X67809Y235158D01*
X68395Y234395D01*
X69158Y233809D01*
X70046Y233441D01*
X71000Y233316D01*
X71954Y233441D01*
X72842Y233809D01*
X73605Y234395D01*
X74191Y235158D01*
X74341Y235522D01*
X81659D01*
X81809Y235158D01*
X82395Y234395D01*
X83158Y233809D01*
X84046Y233441D01*
X85000Y233316D01*
X85954Y233441D01*
X86842Y233809D01*
X87605Y234395D01*
X88191Y235158D01*
X88341Y235522D01*
X95659D01*
X95809Y235158D01*
X96395Y234395D01*
X97158Y233809D01*
X98046Y233441D01*
X99000Y233316D01*
X99954Y233441D01*
X100317Y233592D01*
X143499Y190410D01*
X143467Y189911D01*
X143253Y189747D01*
X142668Y188984D01*
X142299Y188095D01*
X142174Y187142D01*
X142299Y186188D01*
X142335Y186102D01*
X141911Y185819D01*
X102303Y225428D01*
X102559Y226046D01*
X102684Y227000D01*
X102559Y227954D01*
X102191Y228842D01*
X101605Y229605D01*
X100842Y230191D01*
X99954Y230559D01*
X99000Y230684D01*
X98046Y230559D01*
X97158Y230191D01*
X96395Y229605D01*
X95809Y228842D01*
X95441Y227954D01*
X95316Y227000D01*
X95441Y226046D01*
X95809Y225158D01*
X96395Y224395D01*
X97158Y223809D01*
X98046Y223441D01*
X99000Y223316D01*
X99954Y223441D01*
X100572Y223697D01*
X129763Y194507D01*
X129527Y194044D01*
X128794Y193898D01*
X128354Y193604D01*
X95965D01*
X95399Y193492D01*
X94919Y193171D01*
X82566Y180818D01*
X80304D01*
Y179149D01*
X79842Y178958D01*
X78818Y179982D01*
X78338Y180303D01*
X77772Y180415D01*
X74814D01*
Y180818D01*
X69477D01*
Y177378D01*
X69177D01*
Y176697D01*
X72146D01*
Y173697D01*
X69177D01*
Y173109D01*
X68726Y173019D01*
X68246Y172699D01*
X64948Y169401D01*
X58946D01*
Y168506D01*
X44794D01*
Y170582D01*
X39261D01*
Y164064D01*
X44794D01*
Y165549D01*
X58946D01*
Y163867D01*
X65464D01*
Y165817D01*
X65711Y165982D01*
X69074Y169346D01*
X69477Y169576D01*
Y169576D01*
X69477Y169576D01*
X74225D01*
X74432Y169076D01*
X73182Y167826D01*
X69379D01*
Y160914D01*
X70922D01*
Y158771D01*
X69379D01*
Y152253D01*
X74913D01*
Y158771D01*
X73369D01*
Y160914D01*
X74913D01*
Y166096D01*
X76162Y167345D01*
X76662Y167138D01*
Y160914D01*
X78206D01*
Y158771D01*
X76662D01*
Y152253D01*
X78206D01*
Y149913D01*
X76662D01*
Y143394D01*
X82196D01*
Y149913D01*
X80653D01*
Y152253D01*
X82196D01*
Y158771D01*
X80653D01*
Y160914D01*
X82196D01*
Y165819D01*
X82220Y165937D01*
Y169576D01*
X85641D01*
Y173338D01*
X80304D01*
Y171306D01*
X80131Y171133D01*
X79866Y170736D01*
X79773Y170268D01*
Y167826D01*
X77350D01*
X77143Y168326D01*
X77637Y168820D01*
X77902Y169217D01*
X77995Y169685D01*
Y175771D01*
X77959Y175952D01*
X78420Y176198D01*
X79403Y175215D01*
X79883Y174895D01*
X80448Y174782D01*
X141040D01*
X154466Y161356D01*
X154946Y161036D01*
X155512Y160923D01*
X162213D01*
X162652Y160630D01*
X163386Y160484D01*
X164120Y160630D01*
X164742Y161045D01*
X165158Y161668D01*
X165304Y162402D01*
X165158Y163136D01*
X164742Y163758D01*
X164120Y164173D01*
X163386Y164320D01*
X162652Y164173D01*
X162213Y163880D01*
X156124D01*
X142698Y177306D01*
X142218Y177627D01*
X141653Y177739D01*
X85641D01*
Y179712D01*
X96577Y190648D01*
X128354D01*
X128794Y190354D01*
X129528Y190208D01*
X130262Y190354D01*
X130884Y190770D01*
X131299Y191392D01*
X131446Y192126D01*
X131909Y192361D01*
X152613Y171657D01*
X152582Y171500D01*
X152728Y170766D01*
X153144Y170144D01*
X153766Y169728D01*
X154500Y169582D01*
X155234Y169728D01*
X155856Y170144D01*
X156272Y170766D01*
X156418Y171500D01*
X156272Y172234D01*
X155856Y172856D01*
X155234Y173272D01*
X154500Y173418D01*
X154343Y173387D01*
X144536Y183195D01*
X144819Y183619D01*
X144905Y183583D01*
X145858Y183458D01*
X146812Y183583D01*
X147176Y183734D01*
X174855Y156055D01*
X175334Y155734D01*
X175900Y155622D01*
X373784D01*
X404427Y124978D01*
Y123535D01*
X403434D01*
Y118985D01*
X408377D01*
Y123535D01*
X407384D01*
Y125591D01*
X407271Y126156D01*
X406951Y126636D01*
X375441Y158145D01*
X374962Y158466D01*
X374396Y158578D01*
X176512D01*
X149266Y185824D01*
X149417Y186188D01*
X149542Y187142D01*
X149417Y188095D01*
X149049Y188984D01*
X148463Y189747D01*
X147700Y190332D01*
X147337Y190483D01*
Y213800D01*
X147700Y213951D01*
X148463Y214537D01*
X149049Y215300D01*
X149417Y216188D01*
X149542Y217142D01*
X149417Y218095D01*
X149049Y218984D01*
X148463Y219747D01*
X147700Y220332D01*
X147337Y220483D01*
Y226269D01*
X149125D01*
Y231802D01*
X142213D01*
Y226269D01*
X144380D01*
Y220483D01*
X144016Y220332D01*
X143253Y219747D01*
X142668Y218984D01*
X142299Y218095D01*
X142174Y217142D01*
X142299Y216188D01*
X142668Y215300D01*
X143253Y214537D01*
X144016Y213951D01*
X144380Y213800D01*
Y194364D01*
X143918Y194173D01*
X102408Y235683D01*
X102559Y236046D01*
X102684Y237000D01*
X102559Y237954D01*
X102191Y238842D01*
X101605Y239605D01*
X100842Y240191D01*
X99954Y240559D01*
X99000Y240684D01*
D02*
G37*
G36*
X149425Y239386D02*
X147169D01*
Y237819D01*
X149425D01*
Y239386D01*
D02*
G37*
G36*
X144169D02*
X141913D01*
Y237819D01*
X144169D01*
Y239386D01*
D02*
G37*
G36*
X457299Y237870D02*
X451500D01*
Y235221D01*
X457299D01*
Y237870D01*
D02*
G37*
G36*
X448500D02*
X442701D01*
Y235221D01*
X448500D01*
Y237870D01*
D02*
G37*
G36*
X390764D02*
X384965D01*
Y235221D01*
X390764D01*
Y237870D01*
D02*
G37*
G36*
X381965D02*
X376165D01*
Y235221D01*
X381965D01*
Y237870D01*
D02*
G37*
G36*
X149425Y234819D02*
X147169D01*
Y233252D01*
X149425D01*
Y234819D01*
D02*
G37*
G36*
X144169D02*
X141913D01*
Y233252D01*
X144169D01*
Y234819D01*
D02*
G37*
G36*
X85000Y230684D02*
X84046Y230559D01*
X83158Y230191D01*
X82395Y229605D01*
X81809Y228842D01*
X81441Y227954D01*
X81316Y227000D01*
X81441Y226046D01*
X81809Y225158D01*
X82395Y224395D01*
X83158Y223809D01*
X84046Y223441D01*
X85000Y223316D01*
X85954Y223441D01*
X86842Y223809D01*
X87605Y224395D01*
X88191Y225158D01*
X88559Y226046D01*
X88684Y227000D01*
X88559Y227954D01*
X88191Y228842D01*
X87605Y229605D01*
X86842Y230191D01*
X85954Y230559D01*
X85000Y230684D01*
D02*
G37*
G36*
X71000D02*
X70046Y230559D01*
X69158Y230191D01*
X68395Y229605D01*
X67809Y228842D01*
X67441Y227954D01*
X67316Y227000D01*
X67441Y226046D01*
X67809Y225158D01*
X68395Y224395D01*
X69158Y223809D01*
X70046Y223441D01*
X71000Y223316D01*
X71954Y223441D01*
X72842Y223809D01*
X73605Y224395D01*
X74191Y225158D01*
X74559Y226046D01*
X74684Y227000D01*
X74559Y227954D01*
X74191Y228842D01*
X73605Y229605D01*
X72842Y230191D01*
X71954Y230559D01*
X71000Y230684D01*
D02*
G37*
G36*
X57000D02*
X56046Y230559D01*
X55158Y230191D01*
X54395Y229605D01*
X53809Y228842D01*
X53441Y227954D01*
X53316Y227000D01*
X53441Y226046D01*
X53809Y225158D01*
X54395Y224395D01*
X55158Y223809D01*
X56046Y223441D01*
X57000Y223316D01*
X57954Y223441D01*
X58842Y223809D01*
X59605Y224395D01*
X60191Y225158D01*
X60559Y226046D01*
X60684Y227000D01*
X60559Y227954D01*
X60191Y228842D01*
X59605Y229605D01*
X58842Y230191D01*
X57954Y230559D01*
X57000Y230684D01*
D02*
G37*
G36*
X43000D02*
X42046Y230559D01*
X41158Y230191D01*
X40395Y229605D01*
X39809Y228842D01*
X39441Y227954D01*
X39316Y227000D01*
X39441Y226046D01*
X39809Y225158D01*
X40395Y224395D01*
X41158Y223809D01*
X42046Y223441D01*
X43000Y223316D01*
X43954Y223441D01*
X44842Y223809D01*
X45605Y224395D01*
X46191Y225158D01*
X46559Y226046D01*
X46684Y227000D01*
X46559Y227954D01*
X46191Y228842D01*
X45605Y229605D01*
X44842Y230191D01*
X43954Y230559D01*
X43000Y230684D01*
D02*
G37*
G36*
X29000D02*
X28046Y230559D01*
X27158Y230191D01*
X26395Y229605D01*
X25809Y228842D01*
X25441Y227954D01*
X25316Y227000D01*
X25441Y226046D01*
X25809Y225158D01*
X26395Y224395D01*
X27158Y223809D01*
X28046Y223441D01*
X29000Y223316D01*
X29954Y223441D01*
X30842Y223809D01*
X31605Y224395D01*
X32191Y225158D01*
X32559Y226046D01*
X32684Y227000D01*
X32559Y227954D01*
X32191Y228842D01*
X31605Y229605D01*
X30842Y230191D01*
X29954Y230559D01*
X29000Y230684D01*
D02*
G37*
G36*
X287358Y220799D02*
Y218642D01*
X289515D01*
X289311Y219135D01*
X288677Y219961D01*
X287852Y220595D01*
X287358Y220799D01*
D02*
G37*
G36*
X284358D02*
X283865Y220595D01*
X283039Y219961D01*
X282405Y219135D01*
X282201Y218642D01*
X284358D01*
Y220799D01*
D02*
G37*
G36*
X157358D02*
Y218642D01*
X159515D01*
X159311Y219135D01*
X158677Y219961D01*
X157852Y220595D01*
X157358Y220799D01*
D02*
G37*
G36*
X154358D02*
X153865Y220595D01*
X153039Y219961D01*
X152406Y219135D01*
X152201Y218642D01*
X154358D01*
Y220799D01*
D02*
G37*
G36*
X275858Y220826D02*
X274905Y220701D01*
X274016Y220332D01*
X273253Y219747D01*
X272668Y218984D01*
X272300Y218095D01*
X272174Y217142D01*
X272300Y216188D01*
X272668Y215300D01*
X273253Y214537D01*
X274016Y213951D01*
X274905Y213583D01*
X275858Y213457D01*
X276812Y213583D01*
X277700Y213951D01*
X278463Y214537D01*
X279049Y215300D01*
X279417Y216188D01*
X279542Y217142D01*
X279417Y218095D01*
X279049Y218984D01*
X278463Y219747D01*
X277700Y220332D01*
X276812Y220701D01*
X275858Y220826D01*
D02*
G37*
G36*
X235858D02*
X234905Y220701D01*
X234016Y220332D01*
X233253Y219747D01*
X232668Y218984D01*
X232299Y218095D01*
X232174Y217142D01*
X232299Y216188D01*
X232668Y215300D01*
X233253Y214537D01*
X234016Y213951D01*
X234905Y213583D01*
X235858Y213457D01*
X236812Y213583D01*
X237700Y213951D01*
X238463Y214537D01*
X239049Y215300D01*
X239417Y216188D01*
X239543Y217142D01*
X239417Y218095D01*
X239049Y218984D01*
X238463Y219747D01*
X237700Y220332D01*
X236812Y220701D01*
X235858Y220826D01*
D02*
G37*
G36*
X99000Y220684D02*
X98046Y220559D01*
X97158Y220191D01*
X96395Y219605D01*
X95809Y218842D01*
X95441Y217954D01*
X95316Y217000D01*
X95441Y216046D01*
X95809Y215158D01*
X96395Y214395D01*
X97158Y213809D01*
X98046Y213441D01*
X99000Y213316D01*
X99954Y213441D01*
X100842Y213809D01*
X101605Y214395D01*
X102191Y215158D01*
X102559Y216046D01*
X102684Y217000D01*
X102559Y217954D01*
X102191Y218842D01*
X101605Y219605D01*
X100842Y220191D01*
X99954Y220559D01*
X99000Y220684D01*
D02*
G37*
G36*
X85000D02*
X84046Y220559D01*
X83158Y220191D01*
X82395Y219605D01*
X81809Y218842D01*
X81441Y217954D01*
X81316Y217000D01*
X81441Y216046D01*
X81809Y215158D01*
X82395Y214395D01*
X83158Y213809D01*
X84046Y213441D01*
X85000Y213316D01*
X85954Y213441D01*
X86842Y213809D01*
X87605Y214395D01*
X88191Y215158D01*
X88559Y216046D01*
X88684Y217000D01*
X88559Y217954D01*
X88191Y218842D01*
X87605Y219605D01*
X86842Y220191D01*
X85954Y220559D01*
X85000Y220684D01*
D02*
G37*
G36*
X71000D02*
X70046Y220559D01*
X69158Y220191D01*
X68395Y219605D01*
X67809Y218842D01*
X67441Y217954D01*
X67316Y217000D01*
X67441Y216046D01*
X67809Y215158D01*
X68395Y214395D01*
X69158Y213809D01*
X70046Y213441D01*
X71000Y213316D01*
X71954Y213441D01*
X72842Y213809D01*
X73605Y214395D01*
X74191Y215158D01*
X74559Y216046D01*
X74684Y217000D01*
X74559Y217954D01*
X74191Y218842D01*
X73605Y219605D01*
X72842Y220191D01*
X71954Y220559D01*
X71000Y220684D01*
D02*
G37*
G36*
X57000D02*
X56046Y220559D01*
X55158Y220191D01*
X54395Y219605D01*
X53809Y218842D01*
X53441Y217954D01*
X53316Y217000D01*
X53441Y216046D01*
X53809Y215158D01*
X54395Y214395D01*
X55158Y213809D01*
X56046Y213441D01*
X57000Y213316D01*
X57954Y213441D01*
X58842Y213809D01*
X59605Y214395D01*
X60191Y215158D01*
X60559Y216046D01*
X60684Y217000D01*
X60559Y217954D01*
X60191Y218842D01*
X59605Y219605D01*
X58842Y220191D01*
X57954Y220559D01*
X57000Y220684D01*
D02*
G37*
G36*
X43000D02*
X42046Y220559D01*
X41158Y220191D01*
X40395Y219605D01*
X39809Y218842D01*
X39441Y217954D01*
X39316Y217000D01*
X39441Y216046D01*
X39809Y215158D01*
X40395Y214395D01*
X41158Y213809D01*
X42046Y213441D01*
X43000Y213316D01*
X43954Y213441D01*
X44842Y213809D01*
X45605Y214395D01*
X46191Y215158D01*
X46559Y216046D01*
X46684Y217000D01*
X46559Y217954D01*
X46191Y218842D01*
X45605Y219605D01*
X44842Y220191D01*
X43954Y220559D01*
X43000Y220684D01*
D02*
G37*
G36*
X29000D02*
X28046Y220559D01*
X27158Y220191D01*
X26395Y219605D01*
X25809Y218842D01*
X25441Y217954D01*
X25316Y217000D01*
X25441Y216046D01*
X25809Y215158D01*
X26395Y214395D01*
X27158Y213809D01*
X28046Y213441D01*
X29000Y213316D01*
X29954Y213441D01*
X30842Y213809D01*
X31605Y214395D01*
X32191Y215158D01*
X32559Y216046D01*
X32684Y217000D01*
X32559Y217954D01*
X32191Y218842D01*
X31605Y219605D01*
X30842Y220191D01*
X29954Y220559D01*
X29000Y220684D01*
D02*
G37*
G36*
X102953Y210953D02*
X100500D01*
Y208500D01*
X102953D01*
Y210953D01*
D02*
G37*
G36*
X88953D02*
X86500D01*
Y208500D01*
X88953D01*
Y210953D01*
D02*
G37*
G36*
X74953D02*
X72500D01*
Y208500D01*
X74953D01*
Y210953D01*
D02*
G37*
G36*
X60953D02*
X58500D01*
Y208500D01*
X60953D01*
Y210953D01*
D02*
G37*
G36*
X46953D02*
X44500D01*
Y208500D01*
X46953D01*
Y210953D01*
D02*
G37*
G36*
X32953D02*
X30500D01*
Y208500D01*
X32953D01*
Y210953D01*
D02*
G37*
G36*
X97500D02*
X95047D01*
Y208500D01*
X97500D01*
Y210953D01*
D02*
G37*
G36*
X83500D02*
X81047D01*
Y208500D01*
X83500D01*
Y210953D01*
D02*
G37*
G36*
X69500D02*
X67047D01*
Y208500D01*
X69500D01*
Y210953D01*
D02*
G37*
G36*
X55500D02*
X53047D01*
Y208500D01*
X55500D01*
Y210953D01*
D02*
G37*
G36*
X41500D02*
X39047D01*
Y208500D01*
X41500D01*
Y210953D01*
D02*
G37*
G36*
X27500D02*
X25047D01*
Y208500D01*
X27500D01*
Y210953D01*
D02*
G37*
G36*
X102953Y205500D02*
X100500D01*
Y203047D01*
X102953D01*
Y205500D01*
D02*
G37*
G36*
X97500D02*
X95047D01*
Y203047D01*
X97500D01*
Y205500D01*
D02*
G37*
G36*
X88953D02*
X86500D01*
Y203047D01*
X88953D01*
Y205500D01*
D02*
G37*
G36*
X83500D02*
X81047D01*
Y203047D01*
X83500D01*
Y205500D01*
D02*
G37*
G36*
X74953D02*
X72500D01*
Y203047D01*
X74953D01*
Y205500D01*
D02*
G37*
G36*
X69500D02*
X67047D01*
Y203047D01*
X69500D01*
Y205500D01*
D02*
G37*
G36*
X60953D02*
X58500D01*
Y203047D01*
X60953D01*
Y205500D01*
D02*
G37*
G36*
X55500D02*
X53047D01*
Y203047D01*
X55500D01*
Y205500D01*
D02*
G37*
G36*
X46953D02*
X44500D01*
Y203047D01*
X46953D01*
Y205500D01*
D02*
G37*
G36*
X41500D02*
X39047D01*
Y203047D01*
X41500D01*
Y205500D01*
D02*
G37*
G36*
X32953D02*
X30500D01*
Y203047D01*
X32953D01*
Y205500D01*
D02*
G37*
G36*
X27500D02*
X25047D01*
Y203047D01*
X27500D01*
Y205500D01*
D02*
G37*
G36*
X456709Y204740D02*
X455142D01*
Y202681D01*
X456709D01*
Y204740D01*
D02*
G37*
G36*
X452142D02*
X450575D01*
Y202681D01*
X452142D01*
Y204740D01*
D02*
G37*
G36*
X456709Y199681D02*
X455142D01*
Y197622D01*
X456709D01*
Y199681D01*
D02*
G37*
G36*
X452142D02*
X450575D01*
Y197622D01*
X452142D01*
Y199681D01*
D02*
G37*
G36*
X417323Y286962D02*
X415236Y286797D01*
X413201Y286309D01*
X411267Y285508D01*
X409482Y284414D01*
X407890Y283054D01*
X406531Y281463D01*
X405437Y279678D01*
X404636Y277744D01*
X404147Y275709D01*
X403983Y273622D01*
X403992Y273506D01*
X402645Y272158D01*
X402490Y271927D01*
X402436Y271654D01*
X402436Y243220D01*
X396544D01*
Y235521D01*
X402436D01*
X402436Y216051D01*
X402457Y215946D01*
X402468Y215838D01*
X402484Y215810D01*
X402490Y215778D01*
X402550Y215688D01*
X402602Y215594D01*
X428532Y184562D01*
Y181879D01*
X434233D01*
Y181079D01*
X434326Y180611D01*
X434591Y180214D01*
X438484Y176321D01*
X438881Y176056D01*
X439350Y175962D01*
X440178D01*
X440570Y176040D01*
X444182D01*
Y174497D01*
X451094D01*
Y180031D01*
X444182D01*
Y178487D01*
X440256D01*
X439864Y178409D01*
X439856D01*
X436887Y181379D01*
X437094Y181879D01*
X439381D01*
Y188987D01*
X439381D01*
X439249Y189487D01*
X441058Y191296D01*
X443591D01*
Y189261D01*
X449125D01*
Y195779D01*
X447582D01*
Y197922D01*
X449125D01*
Y204440D01*
X443591D01*
Y197922D01*
X445135D01*
Y195779D01*
X443591D01*
Y193743D01*
X440551D01*
X440083Y193650D01*
X439686Y193385D01*
X436954Y190653D01*
X436689Y190256D01*
X436595Y189787D01*
Y188987D01*
X434156D01*
Y194466D01*
X437218Y197528D01*
X439775D01*
Y204047D01*
X434241D01*
Y198733D01*
X432960Y197452D01*
X432918Y197473D01*
X432918Y197473D01*
X432491Y197691D01*
X432491Y197961D01*
Y204047D01*
X431422D01*
Y235521D01*
X436920D01*
Y243220D01*
X431422D01*
Y271260D01*
X431368Y271533D01*
X431213Y271764D01*
X430567Y272411D01*
X430662Y273622D01*
X430498Y275709D01*
X430010Y277744D01*
X429208Y279678D01*
X428115Y281463D01*
X426755Y283054D01*
X425164Y284414D01*
X423379Y285508D01*
X421445Y286309D01*
X419410Y286797D01*
X417323Y286962D01*
D02*
G37*
G36*
X289515Y215642D02*
X282201D01*
X282405Y215148D01*
X283039Y214323D01*
X283865Y213689D01*
X284635Y213370D01*
Y190913D01*
X283865Y190594D01*
X283039Y189961D01*
X282405Y189135D01*
X282201Y188642D01*
X285858D01*
Y187142D01*
D01*
Y188642D01*
X289515D01*
X289311Y189135D01*
X288677Y189961D01*
X287852Y190594D01*
X287082Y190913D01*
Y213370D01*
X287852Y213689D01*
X288677Y214323D01*
X289311Y215148D01*
X289515Y215642D01*
D02*
G37*
G36*
X159515D02*
X152201D01*
X152406Y215148D01*
X153039Y214323D01*
X153865Y213689D01*
X154635Y213370D01*
Y190913D01*
X153865Y190594D01*
X153039Y189961D01*
X152406Y189135D01*
X152201Y188642D01*
X155858D01*
Y187142D01*
D01*
Y188642D01*
X159515D01*
X159311Y189135D01*
X158677Y189961D01*
X157852Y190594D01*
X157082Y190913D01*
Y213370D01*
X157852Y213689D01*
X158677Y214323D01*
X159311Y215148D01*
X159515Y215642D01*
D02*
G37*
G36*
X289515Y185642D02*
X287358D01*
Y183485D01*
X287852Y183689D01*
X288677Y184323D01*
X289311Y185148D01*
X289515Y185642D01*
D02*
G37*
G36*
X159515D02*
X157358D01*
Y183485D01*
X157852Y183689D01*
X158677Y184323D01*
X159311Y185148D01*
X159515Y185642D01*
D02*
G37*
G36*
X154358D02*
X152201D01*
X152406Y185148D01*
X153039Y184323D01*
X153865Y183689D01*
X154358Y183485D01*
Y185642D01*
D02*
G37*
G36*
X284358D02*
X282201D01*
X282405Y185148D01*
X283039Y184323D01*
X283865Y183689D01*
X284358Y183485D01*
Y185642D01*
D02*
G37*
G36*
X379511Y220795D02*
X372205D01*
Y213489D01*
X374635D01*
Y190589D01*
X374016Y190332D01*
X373253Y189747D01*
X372668Y188984D01*
X372300Y188095D01*
X372174Y187142D01*
X372300Y186188D01*
X372668Y185300D01*
X373253Y184537D01*
X374016Y183951D01*
X374905Y183583D01*
X375858Y183458D01*
X376812Y183583D01*
X377700Y183951D01*
X378463Y184537D01*
X379049Y185300D01*
X379417Y186188D01*
X379542Y187142D01*
X379417Y188095D01*
X379049Y188984D01*
X378463Y189747D01*
X377700Y190332D01*
X377082Y190589D01*
Y213489D01*
X379511D01*
Y220795D01*
D02*
G37*
G36*
X365858Y220826D02*
X364905Y220701D01*
X364016Y220332D01*
X363253Y219747D01*
X362668Y218984D01*
X362299Y218095D01*
X362174Y217142D01*
X362299Y216188D01*
X362668Y215300D01*
X363253Y214537D01*
X364016Y213951D01*
X364635Y213695D01*
Y190589D01*
X364016Y190332D01*
X363253Y189747D01*
X362668Y188984D01*
X362299Y188095D01*
X362174Y187142D01*
X362299Y186188D01*
X362668Y185300D01*
X363253Y184537D01*
X364016Y183951D01*
X364905Y183583D01*
X365858Y183458D01*
X366812Y183583D01*
X367700Y183951D01*
X368463Y184537D01*
X369049Y185300D01*
X369417Y186188D01*
X369543Y187142D01*
X369417Y188095D01*
X369049Y188984D01*
X368463Y189747D01*
X367700Y190332D01*
X367082Y190589D01*
Y213695D01*
X367700Y213951D01*
X368463Y214537D01*
X369049Y215300D01*
X369417Y216188D01*
X369543Y217142D01*
X369417Y218095D01*
X369049Y218984D01*
X368463Y219747D01*
X367700Y220332D01*
X366812Y220701D01*
X365858Y220826D01*
D02*
G37*
G36*
X355858D02*
X354905Y220701D01*
X354016Y220332D01*
X353253Y219747D01*
X352668Y218984D01*
X352299Y218095D01*
X352174Y217142D01*
X352299Y216188D01*
X352668Y215300D01*
X353253Y214537D01*
X354016Y213951D01*
X354635Y213695D01*
Y190589D01*
X354016Y190332D01*
X353253Y189747D01*
X352668Y188984D01*
X352299Y188095D01*
X352174Y187142D01*
X352299Y186188D01*
X352668Y185300D01*
X353253Y184537D01*
X354016Y183951D01*
X354905Y183583D01*
X355858Y183458D01*
X356812Y183583D01*
X357700Y183951D01*
X358463Y184537D01*
X359049Y185300D01*
X359417Y186188D01*
X359542Y187142D01*
X359417Y188095D01*
X359049Y188984D01*
X358463Y189747D01*
X357700Y190332D01*
X357082Y190589D01*
Y213695D01*
X357700Y213951D01*
X358463Y214537D01*
X359049Y215300D01*
X359417Y216188D01*
X359542Y217142D01*
X359417Y218095D01*
X359049Y218984D01*
X358463Y219747D01*
X357700Y220332D01*
X356812Y220701D01*
X355858Y220826D01*
D02*
G37*
G36*
X345858D02*
X344905Y220701D01*
X344016Y220332D01*
X343253Y219747D01*
X342668Y218984D01*
X342300Y218095D01*
X342174Y217142D01*
X342300Y216188D01*
X342668Y215300D01*
X343253Y214537D01*
X344016Y213951D01*
X344635Y213695D01*
Y190589D01*
X344016Y190332D01*
X343253Y189747D01*
X342668Y188984D01*
X342300Y188095D01*
X342174Y187142D01*
X342300Y186188D01*
X342668Y185300D01*
X343253Y184537D01*
X344016Y183951D01*
X344905Y183583D01*
X345858Y183458D01*
X346812Y183583D01*
X347700Y183951D01*
X348463Y184537D01*
X349049Y185300D01*
X349417Y186188D01*
X349542Y187142D01*
X349417Y188095D01*
X349049Y188984D01*
X348463Y189747D01*
X347700Y190332D01*
X347082Y190589D01*
Y213695D01*
X347700Y213951D01*
X348463Y214537D01*
X349049Y215300D01*
X349417Y216188D01*
X349542Y217142D01*
X349417Y218095D01*
X349049Y218984D01*
X348463Y219747D01*
X347700Y220332D01*
X346812Y220701D01*
X345858Y220826D01*
D02*
G37*
G36*
X335858D02*
X334905Y220701D01*
X334016Y220332D01*
X333253Y219747D01*
X332668Y218984D01*
X332299Y218095D01*
X332174Y217142D01*
X332299Y216188D01*
X332668Y215300D01*
X333253Y214537D01*
X334016Y213951D01*
X334635Y213695D01*
Y190589D01*
X334016Y190332D01*
X333253Y189747D01*
X332668Y188984D01*
X332299Y188095D01*
X332174Y187142D01*
X332299Y186188D01*
X332668Y185300D01*
X333253Y184537D01*
X334016Y183951D01*
X334905Y183583D01*
X335858Y183458D01*
X336812Y183583D01*
X337700Y183951D01*
X338463Y184537D01*
X339049Y185300D01*
X339417Y186188D01*
X339543Y187142D01*
X339417Y188095D01*
X339049Y188984D01*
X338463Y189747D01*
X337700Y190332D01*
X337082Y190589D01*
Y213695D01*
X337700Y213951D01*
X338463Y214537D01*
X339049Y215300D01*
X339417Y216188D01*
X339543Y217142D01*
X339417Y218095D01*
X339049Y218984D01*
X338463Y219747D01*
X337700Y220332D01*
X336812Y220701D01*
X335858Y220826D01*
D02*
G37*
G36*
X325858D02*
X324905Y220701D01*
X324016Y220332D01*
X323253Y219747D01*
X322668Y218984D01*
X322300Y218095D01*
X322174Y217142D01*
X322300Y216188D01*
X322668Y215300D01*
X323253Y214537D01*
X324016Y213951D01*
X324635Y213695D01*
Y190589D01*
X324016Y190332D01*
X323253Y189747D01*
X322668Y188984D01*
X322300Y188095D01*
X322174Y187142D01*
X322300Y186188D01*
X322668Y185300D01*
X323253Y184537D01*
X324016Y183951D01*
X324905Y183583D01*
X325858Y183458D01*
X326812Y183583D01*
X327700Y183951D01*
X328463Y184537D01*
X329049Y185300D01*
X329417Y186188D01*
X329542Y187142D01*
X329417Y188095D01*
X329049Y188984D01*
X328463Y189747D01*
X327700Y190332D01*
X327082Y190589D01*
Y213695D01*
X327700Y213951D01*
X328463Y214537D01*
X329049Y215300D01*
X329417Y216188D01*
X329542Y217142D01*
X329417Y218095D01*
X329049Y218984D01*
X328463Y219747D01*
X327700Y220332D01*
X326812Y220701D01*
X325858Y220826D01*
D02*
G37*
G36*
X315858D02*
X314905Y220701D01*
X314016Y220332D01*
X313253Y219747D01*
X312668Y218984D01*
X312299Y218095D01*
X312174Y217142D01*
X312299Y216188D01*
X312668Y215300D01*
X313253Y214537D01*
X314016Y213951D01*
X314635Y213695D01*
Y190589D01*
X314016Y190332D01*
X313253Y189747D01*
X312668Y188984D01*
X312299Y188095D01*
X312174Y187142D01*
X312299Y186188D01*
X312668Y185300D01*
X313253Y184537D01*
X314016Y183951D01*
X314905Y183583D01*
X315858Y183458D01*
X316812Y183583D01*
X317700Y183951D01*
X318463Y184537D01*
X319049Y185300D01*
X319417Y186188D01*
X319543Y187142D01*
X319417Y188095D01*
X319049Y188984D01*
X318463Y189747D01*
X317700Y190332D01*
X317082Y190589D01*
Y213695D01*
X317700Y213951D01*
X318463Y214537D01*
X319049Y215300D01*
X319417Y216188D01*
X319543Y217142D01*
X319417Y218095D01*
X319049Y218984D01*
X318463Y219747D01*
X317700Y220332D01*
X316812Y220701D01*
X315858Y220826D01*
D02*
G37*
G36*
X305858D02*
X304905Y220701D01*
X304016Y220332D01*
X303253Y219747D01*
X302668Y218984D01*
X302299Y218095D01*
X302174Y217142D01*
X302299Y216188D01*
X302668Y215300D01*
X303253Y214537D01*
X304016Y213951D01*
X304635Y213695D01*
Y190589D01*
X304016Y190332D01*
X303253Y189747D01*
X302668Y188984D01*
X302299Y188095D01*
X302174Y187142D01*
X302299Y186188D01*
X302668Y185300D01*
X303253Y184537D01*
X304016Y183951D01*
X304905Y183583D01*
X305858Y183458D01*
X306812Y183583D01*
X307700Y183951D01*
X308463Y184537D01*
X309049Y185300D01*
X309417Y186188D01*
X309542Y187142D01*
X309417Y188095D01*
X309049Y188984D01*
X308463Y189747D01*
X307700Y190332D01*
X307082Y190589D01*
Y213695D01*
X307700Y213951D01*
X308463Y214537D01*
X309049Y215300D01*
X309417Y216188D01*
X309542Y217142D01*
X309417Y218095D01*
X309049Y218984D01*
X308463Y219747D01*
X307700Y220332D01*
X306812Y220701D01*
X305858Y220826D01*
D02*
G37*
G36*
X295858D02*
X294905Y220701D01*
X294016Y220332D01*
X293253Y219747D01*
X292668Y218984D01*
X292300Y218095D01*
X292174Y217142D01*
X292300Y216188D01*
X292668Y215300D01*
X293253Y214537D01*
X294016Y213951D01*
X294635Y213695D01*
Y190589D01*
X294016Y190332D01*
X293253Y189747D01*
X292668Y188984D01*
X292300Y188095D01*
X292174Y187142D01*
X292300Y186188D01*
X292668Y185300D01*
X293253Y184537D01*
X294016Y183951D01*
X294905Y183583D01*
X295858Y183458D01*
X296812Y183583D01*
X297700Y183951D01*
X298463Y184537D01*
X299049Y185300D01*
X299417Y186188D01*
X299542Y187142D01*
X299417Y188095D01*
X299049Y188984D01*
X298463Y189747D01*
X297700Y190332D01*
X297082Y190589D01*
Y213695D01*
X297700Y213951D01*
X298463Y214537D01*
X299049Y215300D01*
X299417Y216188D01*
X299542Y217142D01*
X299417Y218095D01*
X299049Y218984D01*
X298463Y219747D01*
X297700Y220332D01*
X296812Y220701D01*
X295858Y220826D01*
D02*
G37*
G36*
X275858Y190826D02*
X274905Y190700D01*
X274016Y190332D01*
X273253Y189747D01*
X272668Y188984D01*
X272300Y188095D01*
X272174Y187142D01*
X272300Y186188D01*
X272668Y185300D01*
X273253Y184537D01*
X274016Y183951D01*
X274905Y183583D01*
X275858Y183458D01*
X276812Y183583D01*
X277700Y183951D01*
X278463Y184537D01*
X279049Y185300D01*
X279417Y186188D01*
X279542Y187142D01*
X279417Y188095D01*
X279049Y188984D01*
X278463Y189747D01*
X277700Y190332D01*
X276812Y190700D01*
X275858Y190826D01*
D02*
G37*
G36*
X245858D02*
X244905Y190700D01*
X244016Y190332D01*
X243253Y189747D01*
X242668Y188984D01*
X242300Y188095D01*
X242174Y187142D01*
X242300Y186188D01*
X242668Y185300D01*
X243253Y184537D01*
X244016Y183951D01*
X244905Y183583D01*
X245858Y183458D01*
X246812Y183583D01*
X247700Y183951D01*
X248463Y184537D01*
X249049Y185300D01*
X249417Y186188D01*
X249542Y187142D01*
X249417Y188095D01*
X249049Y188984D01*
X248463Y189747D01*
X247700Y190332D01*
X246812Y190700D01*
X245858Y190826D01*
D02*
G37*
G36*
X235858D02*
X234905Y190700D01*
X234016Y190332D01*
X233253Y189747D01*
X232668Y188984D01*
X232299Y188095D01*
X232174Y187142D01*
X232299Y186188D01*
X232668Y185300D01*
X233253Y184537D01*
X234016Y183951D01*
X234905Y183583D01*
X235858Y183458D01*
X236812Y183583D01*
X237700Y183951D01*
X238463Y184537D01*
X239049Y185300D01*
X239417Y186188D01*
X239543Y187142D01*
X239417Y188095D01*
X239049Y188984D01*
X238463Y189747D01*
X237700Y190332D01*
X236812Y190700D01*
X235858Y190826D01*
D02*
G37*
G36*
X225858Y220826D02*
X224905Y220701D01*
X224016Y220332D01*
X223253Y219747D01*
X222668Y218984D01*
X222300Y218095D01*
X222174Y217142D01*
X222300Y216188D01*
X222668Y215300D01*
X223253Y214537D01*
X224016Y213951D01*
X224635Y213695D01*
Y190589D01*
X224016Y190332D01*
X223253Y189747D01*
X222668Y188984D01*
X222300Y188095D01*
X222174Y187142D01*
X222300Y186188D01*
X222668Y185300D01*
X223253Y184537D01*
X224016Y183951D01*
X224905Y183583D01*
X225858Y183458D01*
X226812Y183583D01*
X227700Y183951D01*
X228463Y184537D01*
X229049Y185300D01*
X229417Y186188D01*
X229542Y187142D01*
X229417Y188095D01*
X229049Y188984D01*
X228463Y189747D01*
X227700Y190332D01*
X227082Y190589D01*
Y213695D01*
X227700Y213951D01*
X228463Y214537D01*
X229049Y215300D01*
X229417Y216188D01*
X229542Y217142D01*
X229417Y218095D01*
X229049Y218984D01*
X228463Y219747D01*
X227700Y220332D01*
X226812Y220701D01*
X225858Y220826D01*
D02*
G37*
G36*
X215858D02*
X214905Y220701D01*
X214016Y220332D01*
X213253Y219747D01*
X212668Y218984D01*
X212299Y218095D01*
X212174Y217142D01*
X212299Y216188D01*
X212668Y215300D01*
X213253Y214537D01*
X214016Y213951D01*
X214635Y213695D01*
Y190589D01*
X214016Y190332D01*
X213253Y189747D01*
X212668Y188984D01*
X212299Y188095D01*
X212174Y187142D01*
X212299Y186188D01*
X212668Y185300D01*
X213253Y184537D01*
X214016Y183951D01*
X214905Y183583D01*
X215858Y183458D01*
X216812Y183583D01*
X217700Y183951D01*
X218463Y184537D01*
X219049Y185300D01*
X219417Y186188D01*
X219543Y187142D01*
X219417Y188095D01*
X219049Y188984D01*
X218463Y189747D01*
X217700Y190332D01*
X217082Y190589D01*
Y213695D01*
X217700Y213951D01*
X218463Y214537D01*
X219049Y215300D01*
X219417Y216188D01*
X219543Y217142D01*
X219417Y218095D01*
X219049Y218984D01*
X218463Y219747D01*
X217700Y220332D01*
X216812Y220701D01*
X215858Y220826D01*
D02*
G37*
G36*
X205858D02*
X204905Y220701D01*
X204016Y220332D01*
X203253Y219747D01*
X202668Y218984D01*
X202299Y218095D01*
X202174Y217142D01*
X202299Y216188D01*
X202668Y215300D01*
X203253Y214537D01*
X204016Y213951D01*
X204635Y213695D01*
Y190589D01*
X204016Y190332D01*
X203253Y189747D01*
X202668Y188984D01*
X202299Y188095D01*
X202174Y187142D01*
X202299Y186188D01*
X202668Y185300D01*
X203253Y184537D01*
X204016Y183951D01*
X204905Y183583D01*
X205858Y183458D01*
X206812Y183583D01*
X207700Y183951D01*
X208463Y184537D01*
X209049Y185300D01*
X209417Y186188D01*
X209542Y187142D01*
X209417Y188095D01*
X209049Y188984D01*
X208463Y189747D01*
X207700Y190332D01*
X207082Y190589D01*
Y213695D01*
X207700Y213951D01*
X208463Y214537D01*
X209049Y215300D01*
X209417Y216188D01*
X209542Y217142D01*
X209417Y218095D01*
X209049Y218984D01*
X208463Y219747D01*
X207700Y220332D01*
X206812Y220701D01*
X205858Y220826D01*
D02*
G37*
G36*
X195858D02*
X194905Y220701D01*
X194016Y220332D01*
X193253Y219747D01*
X192668Y218984D01*
X192299Y218095D01*
X192174Y217142D01*
X192299Y216188D01*
X192668Y215300D01*
X193253Y214537D01*
X194016Y213951D01*
X194635Y213695D01*
Y190589D01*
X194016Y190332D01*
X193253Y189747D01*
X192668Y188984D01*
X192299Y188095D01*
X192174Y187142D01*
X192299Y186188D01*
X192668Y185300D01*
X193253Y184537D01*
X194016Y183951D01*
X194905Y183583D01*
X195858Y183458D01*
X196812Y183583D01*
X197700Y183951D01*
X198463Y184537D01*
X199049Y185300D01*
X199417Y186188D01*
X199542Y187142D01*
X199417Y188095D01*
X199049Y188984D01*
X198463Y189747D01*
X197700Y190332D01*
X197082Y190589D01*
Y213695D01*
X197700Y213951D01*
X198463Y214537D01*
X199049Y215300D01*
X199417Y216188D01*
X199542Y217142D01*
X199417Y218095D01*
X199049Y218984D01*
X198463Y219747D01*
X197700Y220332D01*
X196812Y220701D01*
X195858Y220826D01*
D02*
G37*
G36*
X185858D02*
X184905Y220701D01*
X184016Y220332D01*
X183253Y219747D01*
X182668Y218984D01*
X182299Y218095D01*
X182174Y217142D01*
X182299Y216188D01*
X182668Y215300D01*
X183253Y214537D01*
X184016Y213951D01*
X184635Y213695D01*
Y190589D01*
X184016Y190332D01*
X183253Y189747D01*
X182668Y188984D01*
X182299Y188095D01*
X182174Y187142D01*
X182299Y186188D01*
X182668Y185300D01*
X183253Y184537D01*
X184016Y183951D01*
X184905Y183583D01*
X185858Y183458D01*
X186812Y183583D01*
X187700Y183951D01*
X188463Y184537D01*
X189049Y185300D01*
X189417Y186188D01*
X189542Y187142D01*
X189417Y188095D01*
X189049Y188984D01*
X188463Y189747D01*
X187700Y190332D01*
X187082Y190589D01*
Y213695D01*
X187700Y213951D01*
X188463Y214537D01*
X189049Y215300D01*
X189417Y216188D01*
X189542Y217142D01*
X189417Y218095D01*
X189049Y218984D01*
X188463Y219747D01*
X187700Y220332D01*
X186812Y220701D01*
X185858Y220826D01*
D02*
G37*
G36*
X175858D02*
X174905Y220701D01*
X174016Y220332D01*
X173253Y219747D01*
X172668Y218984D01*
X172300Y218095D01*
X172174Y217142D01*
X172300Y216188D01*
X172668Y215300D01*
X173253Y214537D01*
X174016Y213951D01*
X174635Y213695D01*
Y190589D01*
X174016Y190332D01*
X173253Y189747D01*
X172668Y188984D01*
X172300Y188095D01*
X172174Y187142D01*
X172300Y186188D01*
X172668Y185300D01*
X173253Y184537D01*
X174016Y183951D01*
X174905Y183583D01*
X175858Y183458D01*
X176812Y183583D01*
X177700Y183951D01*
X178463Y184537D01*
X179049Y185300D01*
X179417Y186188D01*
X179543Y187142D01*
X179417Y188095D01*
X179049Y188984D01*
X178463Y189747D01*
X177700Y190332D01*
X177082Y190589D01*
Y213695D01*
X177700Y213951D01*
X178463Y214537D01*
X179049Y215300D01*
X179417Y216188D01*
X179543Y217142D01*
X179417Y218095D01*
X179049Y218984D01*
X178463Y219747D01*
X177700Y220332D01*
X176812Y220701D01*
X175858Y220826D01*
D02*
G37*
G36*
X165858D02*
X164905Y220701D01*
X164016Y220332D01*
X163253Y219747D01*
X162668Y218984D01*
X162300Y218095D01*
X162174Y217142D01*
X162300Y216188D01*
X162668Y215300D01*
X163253Y214537D01*
X164016Y213951D01*
X164380Y213800D01*
Y190483D01*
X164016Y190332D01*
X163253Y189747D01*
X162668Y188984D01*
X162300Y188095D01*
X162174Y187142D01*
X162300Y186188D01*
X162668Y185300D01*
X163253Y184537D01*
X164016Y183951D01*
X164905Y183583D01*
X165858Y183458D01*
X166812Y183583D01*
X167700Y183951D01*
X168463Y184537D01*
X169049Y185300D01*
X169417Y186188D01*
X169543Y187142D01*
X169417Y188095D01*
X169049Y188984D01*
X168463Y189747D01*
X167700Y190332D01*
X167337Y190483D01*
Y213800D01*
X167700Y213951D01*
X168463Y214537D01*
X169049Y215300D01*
X169417Y216188D01*
X169543Y217142D01*
X169417Y218095D01*
X169049Y218984D01*
X168463Y219747D01*
X167700Y220332D01*
X166812Y220701D01*
X165858Y220826D01*
D02*
G37*
G36*
X436295Y171965D02*
X435910D01*
Y171665D01*
X432004D01*
Y171965D01*
X431618D01*
Y171665D01*
X431091D01*
Y168110D01*
X430118D01*
Y166610D01*
X428232D01*
Y164256D01*
X430152D01*
X430424Y163836D01*
X428587Y159755D01*
X427450D01*
Y152843D01*
X427996D01*
Y139775D01*
X424694D01*
Y125580D01*
X435936D01*
Y139775D01*
X432634D01*
Y152843D01*
X432983D01*
Y153617D01*
X433465D01*
X433738Y153671D01*
X433969Y153826D01*
X434124Y154058D01*
X434178Y154331D01*
Y157331D01*
X434678Y157598D01*
X434733Y157562D01*
Y152843D01*
X440267D01*
Y159755D01*
X436463D01*
X436460Y159759D01*
Y164256D01*
X439681D01*
Y166610D01*
X437795D01*
Y168110D01*
X436822D01*
Y171665D01*
X436295D01*
Y171965D01*
D02*
G37*
G36*
X451394Y173047D02*
X449138D01*
Y171480D01*
X451394D01*
Y173047D01*
D02*
G37*
G36*
X446138D02*
X443882D01*
Y171480D01*
X446138D01*
Y173047D01*
D02*
G37*
G36*
X428618Y171965D02*
X428232D01*
Y169610D01*
X428618D01*
Y171965D01*
D02*
G37*
G36*
X439681D02*
X439295D01*
Y169610D01*
X439681D01*
Y171965D01*
D02*
G37*
G36*
X451394Y168480D02*
X449138D01*
Y166913D01*
X451394D01*
Y168480D01*
D02*
G37*
G36*
X446138D02*
X443882D01*
Y166913D01*
X446138D01*
Y168480D01*
D02*
G37*
G36*
X17717Y171007D02*
X16763Y170882D01*
X15874Y170513D01*
X15111Y169928D01*
X14526Y169165D01*
X14158Y168276D01*
X14032Y167323D01*
X14158Y166369D01*
X14526Y165481D01*
X15111Y164718D01*
X15874Y164132D01*
X16763Y163764D01*
X17717Y163639D01*
X18670Y163764D01*
X19559Y164132D01*
X20322Y164718D01*
X20907Y165481D01*
X21058Y165844D01*
X31977D01*
Y164064D01*
X37511D01*
Y170582D01*
X31977D01*
Y168801D01*
X21058D01*
X20907Y169165D01*
X20322Y169928D01*
X19559Y170513D01*
X18670Y170882D01*
X17717Y171007D01*
D02*
G37*
G36*
X19217Y161137D02*
Y158980D01*
X21374D01*
X21169Y159474D01*
X20536Y160300D01*
X19710Y160933D01*
X19217Y161137D01*
D02*
G37*
G36*
X16217D02*
X15723Y160933D01*
X14897Y160300D01*
X14264Y159474D01*
X14059Y158980D01*
X16217D01*
Y161137D01*
D02*
G37*
G36*
X21374Y155980D02*
X19217D01*
Y153823D01*
X19710Y154028D01*
X20536Y154661D01*
X21169Y155487D01*
X21374Y155980D01*
D02*
G37*
G36*
X16217D02*
X14059D01*
X14264Y155487D01*
X14897Y154661D01*
X15723Y154028D01*
X16217Y153823D01*
Y155980D01*
D02*
G37*
G36*
X75213Y150213D02*
X73646D01*
Y148153D01*
X75213D01*
Y150213D01*
D02*
G37*
G36*
X70646D02*
X69079D01*
Y148153D01*
X70646D01*
Y150213D01*
D02*
G37*
G36*
X124622Y148441D02*
X122563D01*
Y146874D01*
X124622D01*
Y148441D01*
D02*
G37*
G36*
X119563D02*
X117504D01*
Y146874D01*
X119563D01*
Y148441D01*
D02*
G37*
G36*
X75213Y145153D02*
X73646D01*
Y143095D01*
X75213D01*
Y145153D01*
D02*
G37*
G36*
X70646D02*
X69079D01*
Y143095D01*
X70646D01*
Y145153D01*
D02*
G37*
G36*
X124622Y143874D02*
X122563D01*
Y142307D01*
X124622D01*
Y143874D01*
D02*
G37*
G36*
X119563D02*
X117504D01*
Y142307D01*
X119563D01*
Y143874D01*
D02*
G37*
G36*
X147358Y130799D02*
Y128642D01*
X149515D01*
X149311Y129135D01*
X148677Y129961D01*
X147852Y130595D01*
X147358Y130799D01*
D02*
G37*
G36*
X144358D02*
X143865Y130595D01*
X143039Y129961D01*
X142405Y129135D01*
X142201Y128642D01*
X144358D01*
Y130799D01*
D02*
G37*
G36*
X65464Y162117D02*
X58946D01*
Y156583D01*
X61022D01*
Y138287D01*
X61134Y137722D01*
X61455Y137242D01*
X65054Y133642D01*
X64863Y133180D01*
X60914D01*
Y126662D01*
X61661D01*
Y122807D01*
X54860Y116006D01*
X54540Y115526D01*
X54427Y114961D01*
Y105227D01*
X53139D01*
Y98709D01*
X58649D01*
X60766Y96592D01*
X61245Y96272D01*
X61811Y96159D01*
X68296D01*
Y95954D01*
X73594D01*
Y95043D01*
X72361Y93810D01*
X69379D01*
Y86898D01*
X70667D01*
Y84755D01*
X69379D01*
Y78237D01*
X74913D01*
Y84755D01*
X73624D01*
Y86898D01*
X74913D01*
Y92181D01*
X76117Y93385D01*
X76162Y93452D01*
X76662Y93301D01*
Y86898D01*
X78492D01*
Y84755D01*
X76662D01*
Y78237D01*
X77951D01*
Y75897D01*
X76662D01*
Y69379D01*
X82196D01*
Y75897D01*
X80907D01*
Y78237D01*
X82196D01*
Y84755D01*
X81449D01*
Y86898D01*
X82196D01*
Y91719D01*
X82837Y92360D01*
X83157Y92840D01*
X83270Y93405D01*
Y95954D01*
X84460D01*
Y99716D01*
X79123D01*
Y95954D01*
X80313D01*
Y94018D01*
X80105Y93810D01*
X76937D01*
X76514Y94249D01*
X76551Y94431D01*
Y103750D01*
X76438Y104316D01*
X76117Y104796D01*
X75951Y104962D01*
X80137Y109149D01*
X80655Y109252D01*
X81278Y109667D01*
X81693Y110290D01*
X81839Y111024D01*
X81693Y111758D01*
X81278Y112380D01*
X80655Y112796D01*
X79921Y112942D01*
X79187Y112796D01*
X78565Y112380D01*
X78149Y111758D01*
X78046Y111239D01*
X73895Y107088D01*
X73633Y107196D01*
Y107196D01*
X68296D01*
Y103756D01*
X67996D01*
Y103075D01*
X70965D01*
Y100075D01*
X67996D01*
Y99394D01*
X67611Y99116D01*
X62423D01*
X58672Y102867D01*
Y105227D01*
X57384D01*
Y114348D01*
X64185Y121150D01*
X64506Y121629D01*
X64618Y122195D01*
Y126662D01*
X66448D01*
Y131595D01*
X66910Y131787D01*
X68198Y130499D01*
Y126662D01*
X72034D01*
X72084Y126612D01*
X72564Y126292D01*
X73130Y126179D01*
X117804D01*
Y124891D01*
X124322D01*
Y130424D01*
X122541D01*
Y135324D01*
X124322D01*
Y140858D01*
X117804D01*
Y135324D01*
X119585D01*
Y130424D01*
X117804D01*
Y129136D01*
X73742D01*
X73731Y129147D01*
Y133180D01*
X69698D01*
X63978Y138900D01*
Y156583D01*
X65464D01*
Y162117D01*
D02*
G37*
G36*
X149515Y125642D02*
X147358D01*
Y123485D01*
X147852Y123689D01*
X148677Y124323D01*
X149311Y125148D01*
X149515Y125642D01*
D02*
G37*
G36*
X144358D02*
X142201D01*
X142405Y125148D01*
X143039Y124323D01*
X143865Y123689D01*
X144358Y123485D01*
Y125642D01*
D02*
G37*
G36*
X375858Y130826D02*
X374905Y130701D01*
X374016Y130332D01*
X373253Y129747D01*
X372668Y128984D01*
X372300Y128095D01*
X372174Y127142D01*
X372300Y126188D01*
X372668Y125300D01*
X373253Y124537D01*
X374016Y123951D01*
X374905Y123583D01*
X375858Y123458D01*
X376812Y123583D01*
X377700Y123951D01*
X378463Y124537D01*
X379049Y125300D01*
X379417Y126188D01*
X379542Y127142D01*
X379417Y128095D01*
X379049Y128984D01*
X378463Y129747D01*
X377700Y130332D01*
X376812Y130701D01*
X375858Y130826D01*
D02*
G37*
G36*
X365858D02*
X364905Y130701D01*
X364016Y130332D01*
X363253Y129747D01*
X362668Y128984D01*
X362299Y128095D01*
X362174Y127142D01*
X362299Y126188D01*
X362668Y125300D01*
X363253Y124537D01*
X364016Y123951D01*
X364905Y123583D01*
X365858Y123458D01*
X366812Y123583D01*
X367700Y123951D01*
X368463Y124537D01*
X369049Y125300D01*
X369417Y126188D01*
X369543Y127142D01*
X369417Y128095D01*
X369049Y128984D01*
X368463Y129747D01*
X367700Y130332D01*
X366812Y130701D01*
X365858Y130826D01*
D02*
G37*
G36*
X355858D02*
X354905Y130701D01*
X354016Y130332D01*
X353253Y129747D01*
X352668Y128984D01*
X352299Y128095D01*
X352174Y127142D01*
X352299Y126188D01*
X352668Y125300D01*
X353253Y124537D01*
X354016Y123951D01*
X354905Y123583D01*
X355858Y123458D01*
X356812Y123583D01*
X357700Y123951D01*
X358463Y124537D01*
X359049Y125300D01*
X359417Y126188D01*
X359542Y127142D01*
X359417Y128095D01*
X359049Y128984D01*
X358463Y129747D01*
X357700Y130332D01*
X356812Y130701D01*
X355858Y130826D01*
D02*
G37*
G36*
X345858D02*
X344905Y130701D01*
X344016Y130332D01*
X343253Y129747D01*
X342668Y128984D01*
X342300Y128095D01*
X342174Y127142D01*
X342300Y126188D01*
X342668Y125300D01*
X343253Y124537D01*
X344016Y123951D01*
X344905Y123583D01*
X345858Y123458D01*
X346812Y123583D01*
X347700Y123951D01*
X348463Y124537D01*
X349049Y125300D01*
X349417Y126188D01*
X349542Y127142D01*
X349417Y128095D01*
X349049Y128984D01*
X348463Y129747D01*
X347700Y130332D01*
X346812Y130701D01*
X345858Y130826D01*
D02*
G37*
G36*
X325858D02*
X324905Y130701D01*
X324016Y130332D01*
X323253Y129747D01*
X322668Y128984D01*
X322300Y128095D01*
X322174Y127142D01*
X322300Y126188D01*
X322668Y125300D01*
X323253Y124537D01*
X324016Y123951D01*
X324905Y123583D01*
X325858Y123458D01*
X326812Y123583D01*
X327700Y123951D01*
X328463Y124537D01*
X329049Y125300D01*
X329417Y126188D01*
X329542Y127142D01*
X329417Y128095D01*
X329049Y128984D01*
X328463Y129747D01*
X327700Y130332D01*
X326812Y130701D01*
X325858Y130826D01*
D02*
G37*
G36*
X315858D02*
X314905Y130701D01*
X314016Y130332D01*
X313253Y129747D01*
X312668Y128984D01*
X312299Y128095D01*
X312174Y127142D01*
X312299Y126188D01*
X312668Y125300D01*
X313253Y124537D01*
X314016Y123951D01*
X314905Y123583D01*
X315858Y123458D01*
X316812Y123583D01*
X317700Y123951D01*
X318463Y124537D01*
X319049Y125300D01*
X319417Y126188D01*
X319543Y127142D01*
X319417Y128095D01*
X319049Y128984D01*
X318463Y129747D01*
X317700Y130332D01*
X316812Y130701D01*
X315858Y130826D01*
D02*
G37*
G36*
X305858D02*
X304905Y130701D01*
X304016Y130332D01*
X303253Y129747D01*
X302668Y128984D01*
X302299Y128095D01*
X302174Y127142D01*
X302299Y126188D01*
X302668Y125300D01*
X303253Y124537D01*
X304016Y123951D01*
X304905Y123583D01*
X305858Y123458D01*
X306812Y123583D01*
X307700Y123951D01*
X308463Y124537D01*
X309049Y125300D01*
X309417Y126188D01*
X309542Y127142D01*
X309417Y128095D01*
X309049Y128984D01*
X308463Y129747D01*
X307700Y130332D01*
X306812Y130701D01*
X305858Y130826D01*
D02*
G37*
G36*
X285858D02*
X284905Y130701D01*
X284016Y130332D01*
X283253Y129747D01*
X282668Y128984D01*
X282299Y128095D01*
X282174Y127142D01*
X282299Y126188D01*
X282668Y125300D01*
X283253Y124537D01*
X284016Y123951D01*
X284905Y123583D01*
X285858Y123458D01*
X286812Y123583D01*
X287700Y123951D01*
X288463Y124537D01*
X289049Y125300D01*
X289417Y126188D01*
X289543Y127142D01*
X289417Y128095D01*
X289049Y128984D01*
X288463Y129747D01*
X287700Y130332D01*
X286812Y130701D01*
X285858Y130826D01*
D02*
G37*
G36*
X245858D02*
X244905Y130701D01*
X244016Y130332D01*
X243253Y129747D01*
X242668Y128984D01*
X242300Y128095D01*
X242174Y127142D01*
X242300Y126188D01*
X242668Y125300D01*
X243253Y124537D01*
X244016Y123951D01*
X244905Y123583D01*
X245858Y123458D01*
X246812Y123583D01*
X247700Y123951D01*
X248463Y124537D01*
X249049Y125300D01*
X249417Y126188D01*
X249542Y127142D01*
X249417Y128095D01*
X249049Y128984D01*
X248463Y129747D01*
X247700Y130332D01*
X246812Y130701D01*
X245858Y130826D01*
D02*
G37*
G36*
X235858D02*
X234905Y130701D01*
X234016Y130332D01*
X233253Y129747D01*
X232668Y128984D01*
X232299Y128095D01*
X232174Y127142D01*
X232299Y126188D01*
X232668Y125300D01*
X233253Y124537D01*
X234016Y123951D01*
X234905Y123583D01*
X235858Y123458D01*
X236812Y123583D01*
X237700Y123951D01*
X238463Y124537D01*
X239049Y125300D01*
X239417Y126188D01*
X239543Y127142D01*
X239417Y128095D01*
X239049Y128984D01*
X238463Y129747D01*
X237700Y130332D01*
X236812Y130701D01*
X235858Y130826D01*
D02*
G37*
G36*
X225858D02*
X224905Y130701D01*
X224016Y130332D01*
X223253Y129747D01*
X222668Y128984D01*
X222300Y128095D01*
X222174Y127142D01*
X222300Y126188D01*
X222668Y125300D01*
X223253Y124537D01*
X224016Y123951D01*
X224905Y123583D01*
X225858Y123458D01*
X226812Y123583D01*
X227700Y123951D01*
X228463Y124537D01*
X229049Y125300D01*
X229417Y126188D01*
X229542Y127142D01*
X229417Y128095D01*
X229049Y128984D01*
X228463Y129747D01*
X227700Y130332D01*
X226812Y130701D01*
X225858Y130826D01*
D02*
G37*
G36*
X215858D02*
X214905Y130701D01*
X214016Y130332D01*
X213253Y129747D01*
X212668Y128984D01*
X212299Y128095D01*
X212174Y127142D01*
X212299Y126188D01*
X212668Y125300D01*
X213253Y124537D01*
X214016Y123951D01*
X214905Y123583D01*
X215858Y123458D01*
X216812Y123583D01*
X217700Y123951D01*
X218463Y124537D01*
X219049Y125300D01*
X219417Y126188D01*
X219543Y127142D01*
X219417Y128095D01*
X219049Y128984D01*
X218463Y129747D01*
X217700Y130332D01*
X216812Y130701D01*
X215858Y130826D01*
D02*
G37*
G36*
X205858D02*
X204905Y130701D01*
X204016Y130332D01*
X203253Y129747D01*
X202668Y128984D01*
X202299Y128095D01*
X202174Y127142D01*
X202299Y126188D01*
X202668Y125300D01*
X203253Y124537D01*
X204016Y123951D01*
X204905Y123583D01*
X205858Y123458D01*
X206812Y123583D01*
X207700Y123951D01*
X208463Y124537D01*
X209049Y125300D01*
X209417Y126188D01*
X209542Y127142D01*
X209417Y128095D01*
X209049Y128984D01*
X208463Y129747D01*
X207700Y130332D01*
X206812Y130701D01*
X205858Y130826D01*
D02*
G37*
G36*
X175858D02*
X174905Y130701D01*
X174016Y130332D01*
X173253Y129747D01*
X172668Y128984D01*
X172300Y128095D01*
X172174Y127142D01*
X172300Y126188D01*
X172668Y125300D01*
X173253Y124537D01*
X174016Y123951D01*
X174905Y123583D01*
X175858Y123458D01*
X176812Y123583D01*
X177700Y123951D01*
X178463Y124537D01*
X179049Y125300D01*
X179417Y126188D01*
X179543Y127142D01*
X179417Y128095D01*
X179049Y128984D01*
X178463Y129747D01*
X177700Y130332D01*
X176812Y130701D01*
X175858Y130826D01*
D02*
G37*
G36*
X165858D02*
X164905Y130701D01*
X164016Y130332D01*
X163253Y129747D01*
X162668Y128984D01*
X162300Y128095D01*
X162174Y127142D01*
X162300Y126188D01*
X162668Y125300D01*
X163253Y124537D01*
X164016Y123951D01*
X164905Y123583D01*
X165858Y123458D01*
X166812Y123583D01*
X167700Y123951D01*
X168463Y124537D01*
X169049Y125300D01*
X169417Y126188D01*
X169543Y127142D01*
X169417Y128095D01*
X169049Y128984D01*
X168463Y129747D01*
X167700Y130332D01*
X166812Y130701D01*
X165858Y130826D01*
D02*
G37*
G36*
X155858D02*
X154905Y130701D01*
X154016Y130332D01*
X153253Y129747D01*
X152668Y128984D01*
X152299Y128095D01*
X152174Y127142D01*
X152299Y126188D01*
X152668Y125300D01*
X153253Y124537D01*
X154016Y123951D01*
X154905Y123583D01*
X155858Y123458D01*
X156812Y123583D01*
X157700Y123951D01*
X158463Y124537D01*
X159049Y125300D01*
X159417Y126188D01*
X159543Y127142D01*
X159417Y128095D01*
X159049Y128984D01*
X158463Y129747D01*
X157700Y130332D01*
X156812Y130701D01*
X155858Y130826D01*
D02*
G37*
G36*
X134661Y115961D02*
X132405D01*
Y114394D01*
X134661D01*
Y115961D01*
D02*
G37*
G36*
X129405D02*
X127150D01*
Y114394D01*
X129405D01*
Y115961D01*
D02*
G37*
G36*
X456409Y195779D02*
X450875D01*
Y189261D01*
X452163D01*
Y139775D01*
X446741D01*
Y125580D01*
X446924D01*
Y120173D01*
X446497Y118923D01*
X445429Y116885D01*
X444061Y115036D01*
X442426Y113418D01*
X441445Y112708D01*
X436505D01*
Y111419D01*
X433180D01*
Y113102D01*
X427646D01*
Y106583D01*
X433180D01*
Y108463D01*
X436505D01*
Y107174D01*
X443023D01*
Y108463D01*
X448709D01*
Y107961D01*
X455621D01*
Y109129D01*
X460095Y109129D01*
Y108143D01*
X467007D01*
Y113676D01*
X466462D01*
X466462Y117905D01*
X466462Y118890D01*
X466448Y118959D01*
Y119029D01*
X466064Y120961D01*
X466037Y121026D01*
X466023Y121095D01*
X465269Y122915D01*
X465230Y122974D01*
X465203Y123038D01*
X464109Y124676D01*
X464059Y124726D01*
X464020Y124784D01*
X463324Y125481D01*
X463324Y125481D01*
X457983Y130821D01*
Y139775D01*
X455120D01*
Y189261D01*
X456409D01*
Y195779D01*
D02*
G37*
G36*
X134661Y111394D02*
X132405D01*
Y109827D01*
X134661D01*
Y111394D01*
D02*
G37*
G36*
X467307Y106693D02*
X465051D01*
Y105126D01*
X467307D01*
Y106693D01*
D02*
G37*
G36*
X462051D02*
X459795D01*
Y105126D01*
X462051D01*
Y106693D01*
D02*
G37*
G36*
X455921Y106512D02*
X453665D01*
Y104945D01*
X455921D01*
Y106512D01*
D02*
G37*
G36*
X450665D02*
X448410D01*
Y104945D01*
X450665D01*
Y106512D01*
D02*
G37*
G36*
X19217Y104051D02*
Y101894D01*
X21374D01*
X21169Y102387D01*
X20536Y103213D01*
X19710Y103846D01*
X19217Y104051D01*
D02*
G37*
G36*
X16217D02*
X15723Y103846D01*
X14897Y103213D01*
X14264Y102387D01*
X14059Y101894D01*
X16217D01*
Y104051D01*
D02*
G37*
G36*
X467307Y102126D02*
X465051D01*
Y100559D01*
X467307D01*
Y102126D01*
D02*
G37*
G36*
X462051D02*
X459795D01*
Y100559D01*
X462051D01*
Y102126D01*
D02*
G37*
G36*
X455921Y101945D02*
X453665D01*
Y100378D01*
X455921D01*
Y101945D01*
D02*
G37*
G36*
X450665D02*
X448410D01*
Y100378D01*
X450665D01*
Y101945D01*
D02*
G37*
G36*
X17717Y113920D02*
X16763Y113795D01*
X15874Y113427D01*
X15111Y112841D01*
X14526Y112078D01*
X14158Y111190D01*
X14032Y110236D01*
X14158Y109283D01*
X14526Y108394D01*
X15111Y107631D01*
X15874Y107046D01*
X16763Y106677D01*
X17717Y106552D01*
X18670Y106677D01*
X19559Y107046D01*
X20322Y107631D01*
X20907Y108394D01*
X21058Y108758D01*
X30096D01*
X37931Y100923D01*
X38411Y100603D01*
X38976Y100490D01*
X45855D01*
Y98709D01*
X51389D01*
Y105227D01*
X45855D01*
Y103447D01*
X39589D01*
X31754Y111282D01*
X31274Y111602D01*
X30709Y111715D01*
X21058D01*
X20907Y112078D01*
X20322Y112841D01*
X19559Y113427D01*
X18670Y113795D01*
X17717Y113920D01*
D02*
G37*
G36*
X136874Y100460D02*
Y98252D01*
X137698D01*
Y98721D01*
X137521Y99610D01*
X137018Y100364D01*
X136874Y100460D01*
D02*
G37*
G36*
X133874D02*
X133731Y100364D01*
X133227Y99610D01*
X133050Y98721D01*
Y98252D01*
X133874D01*
Y100460D01*
D02*
G37*
G36*
X408377Y114479D02*
X403434D01*
Y109930D01*
X405729D01*
X407239Y108420D01*
X407801Y108044D01*
X408465Y107912D01*
X411181D01*
X412828Y105853D01*
X412859Y105828D01*
X412881Y105795D01*
X414917Y103759D01*
X414710Y103259D01*
X413867D01*
Y97725D01*
X420779D01*
Y103259D01*
X420143D01*
X419952Y103721D01*
X422814Y106583D01*
X425897D01*
Y110167D01*
X425911Y110236D01*
X425897Y110305D01*
Y113102D01*
X420363D01*
Y111379D01*
X409183D01*
X408377Y112184D01*
Y114479D01*
D02*
G37*
G36*
X21374Y98894D02*
X19217D01*
Y96737D01*
X19710Y96941D01*
X20536Y97575D01*
X21169Y98400D01*
X21374Y98894D01*
D02*
G37*
G36*
X16217D02*
X14059D01*
X14264Y98400D01*
X14897Y97575D01*
X15723Y96941D01*
X16217Y96737D01*
Y98894D01*
D02*
G37*
G36*
X335858Y130826D02*
X334905Y130701D01*
X334016Y130332D01*
X333253Y129747D01*
X332668Y128984D01*
X332299Y128095D01*
X332174Y127142D01*
X332299Y126188D01*
X332668Y125300D01*
X333253Y124537D01*
X334016Y123951D01*
X334635Y123695D01*
Y102765D01*
X327372Y95503D01*
X326754Y95759D01*
X325800Y95884D01*
X324846Y95759D01*
X323958Y95391D01*
X323195Y94805D01*
X322609Y94042D01*
X322241Y93154D01*
X322116Y92200D01*
X322241Y91246D01*
X322609Y90358D01*
X323195Y89595D01*
X323958Y89009D01*
X324846Y88641D01*
X325800Y88516D01*
X326754Y88641D01*
X327642Y89009D01*
X328405Y89595D01*
X328991Y90358D01*
X329359Y91246D01*
X329484Y92200D01*
X329359Y93154D01*
X329102Y93772D01*
X336723Y101393D01*
X336989Y101790D01*
X337082Y102258D01*
Y123695D01*
X337700Y123951D01*
X338463Y124537D01*
X339049Y125300D01*
X339417Y126188D01*
X339543Y127142D01*
X339417Y128095D01*
X339049Y128984D01*
X338463Y129747D01*
X337700Y130332D01*
X336812Y130701D01*
X335858Y130826D01*
D02*
G37*
G36*
X421079Y96276D02*
X418823D01*
Y94709D01*
X421079D01*
Y96276D01*
D02*
G37*
G36*
X415823D02*
X413567D01*
Y94709D01*
X415823D01*
Y96276D01*
D02*
G37*
G36*
X195858Y130826D02*
X194905Y130701D01*
X194016Y130332D01*
X193253Y129747D01*
X192668Y128984D01*
X192299Y128095D01*
X192174Y127142D01*
X192299Y126188D01*
X192668Y125300D01*
X192965Y124912D01*
X161581Y93527D01*
X142503D01*
X142230Y93938D01*
X142242Y94027D01*
X142392Y94784D01*
Y95529D01*
X161713D01*
X162181Y95622D01*
X162578Y95887D01*
X177095Y110405D01*
X186723Y120033D01*
X186989Y120429D01*
X187082Y120898D01*
Y123695D01*
X187700Y123951D01*
X188463Y124537D01*
X189049Y125300D01*
X189417Y126188D01*
X189542Y127142D01*
X189417Y128095D01*
X189049Y128984D01*
X188463Y129747D01*
X187700Y130332D01*
X186812Y130701D01*
X185858Y130826D01*
X184905Y130701D01*
X184016Y130332D01*
X183253Y129747D01*
X182668Y128984D01*
X182299Y128095D01*
X182174Y127142D01*
X182299Y126188D01*
X182668Y125300D01*
X183253Y124537D01*
X184016Y123951D01*
X184635Y123695D01*
Y121404D01*
X175365Y112135D01*
X161206Y97975D01*
X142392D01*
Y98721D01*
X142239Y99493D01*
X141801Y100148D01*
X141146Y100585D01*
X140374Y100739D01*
X139602Y100585D01*
X138947Y100148D01*
X138509Y99493D01*
X138356Y98721D01*
Y94784D01*
X138506Y94027D01*
X138518Y93938D01*
X138289Y93594D01*
X137789Y93603D01*
X137548Y94028D01*
X137698Y94784D01*
Y95252D01*
X133050D01*
Y94784D01*
X133200Y94028D01*
X132959Y93603D01*
X132459Y93594D01*
X132230Y93938D01*
X132242Y94027D01*
X132392Y94784D01*
Y98721D01*
X132239Y99493D01*
X131801Y100148D01*
X131774Y100166D01*
Y102843D01*
X134361D01*
Y103017D01*
X136410D01*
X136439Y102974D01*
X137061Y102559D01*
X137795Y102413D01*
X138529Y102559D01*
X139152Y102974D01*
X139567Y103597D01*
X139713Y104331D01*
X139567Y105065D01*
X139152Y105687D01*
X138529Y106103D01*
X137795Y106249D01*
X137061Y106103D01*
X136869Y105974D01*
X134361D01*
Y108377D01*
X129540D01*
X128553Y109365D01*
X128744Y109827D01*
X129405D01*
Y111394D01*
X127083D01*
X126688Y111230D01*
X122541Y115376D01*
Y117607D01*
X124322D01*
Y123141D01*
X117804D01*
Y117607D01*
X119585D01*
Y114764D01*
X119697Y114198D01*
X120018Y113718D01*
X126185Y107551D01*
X125994Y107089D01*
X84460D01*
Y107196D01*
X79123D01*
Y105371D01*
X79033Y104921D01*
X79123Y104472D01*
Y103434D01*
X84460D01*
Y104132D01*
X127450D01*
Y102843D01*
X128817D01*
Y99953D01*
X128509Y99493D01*
X128356Y98721D01*
Y94784D01*
X128491Y94104D01*
X128226Y93878D01*
X128078Y93809D01*
X127345Y94543D01*
X127392Y94784D01*
Y98721D01*
X127239Y99493D01*
X126801Y100148D01*
X126146Y100585D01*
X125374Y100739D01*
X124602Y100585D01*
X123947Y100148D01*
X123509Y99493D01*
X123356Y98721D01*
Y94784D01*
X123509Y94011D01*
X123947Y93356D01*
X124602Y92919D01*
X125374Y92765D01*
X125614Y92813D01*
X126988Y91439D01*
X127385Y91174D01*
X127854Y91080D01*
X162087D01*
X162556Y91174D01*
X162953Y91439D01*
X181989Y110476D01*
X182450Y110229D01*
X182334Y109646D01*
X182480Y108912D01*
X182896Y108290D01*
X183028Y108201D01*
Y106409D01*
X180599D01*
Y100875D01*
X187117D01*
Y106409D01*
X185476D01*
Y108201D01*
X185608Y108290D01*
X186024Y108912D01*
X186170Y109646D01*
X186024Y110380D01*
X185608Y111002D01*
X184986Y111418D01*
X184252Y111564D01*
X183668Y111448D01*
X183422Y111908D01*
X195074Y123561D01*
X195858Y123458D01*
X196702Y123568D01*
X197202Y123275D01*
Y106409D01*
X195166D01*
Y100875D01*
X201684D01*
Y106409D01*
X199649D01*
Y125591D01*
X199556Y126059D01*
X199426Y126253D01*
X199542Y127142D01*
X199417Y128095D01*
X199049Y128984D01*
X198463Y129747D01*
X197700Y130332D01*
X196812Y130701D01*
X195858Y130826D01*
D02*
G37*
G36*
X421079Y91709D02*
X418823D01*
Y90142D01*
X421079D01*
Y91709D01*
D02*
G37*
G36*
X415823D02*
X413567D01*
Y90142D01*
X415823D01*
Y91709D01*
D02*
G37*
G36*
X315800Y95884D02*
X314846Y95759D01*
X313958Y95391D01*
X313195Y94805D01*
X312609Y94042D01*
X312241Y93154D01*
X312116Y92200D01*
X312241Y91246D01*
X312609Y90358D01*
X313195Y89595D01*
X313958Y89009D01*
X314846Y88641D01*
X315800Y88516D01*
X316754Y88641D01*
X317642Y89009D01*
X318405Y89595D01*
X318991Y90358D01*
X319359Y91246D01*
X319484Y92200D01*
X319359Y93154D01*
X318991Y94042D01*
X318405Y94805D01*
X317642Y95391D01*
X316754Y95759D01*
X315800Y95884D01*
D02*
G37*
G36*
X305800D02*
X304846Y95759D01*
X303958Y95391D01*
X303195Y94805D01*
X302609Y94042D01*
X302241Y93154D01*
X302116Y92200D01*
X302241Y91246D01*
X302609Y90358D01*
X303195Y89595D01*
X303958Y89009D01*
X304846Y88641D01*
X305800Y88516D01*
X306754Y88641D01*
X307642Y89009D01*
X308405Y89595D01*
X308991Y90358D01*
X309359Y91246D01*
X309484Y92200D01*
X309359Y93154D01*
X308991Y94042D01*
X308405Y94805D01*
X307642Y95391D01*
X306754Y95759D01*
X305800Y95884D01*
D02*
G37*
G36*
X295858Y130826D02*
X294905Y130701D01*
X294016Y130332D01*
X293253Y129747D01*
X292668Y128984D01*
X292300Y128095D01*
X292174Y127142D01*
X292300Y126188D01*
X292668Y125300D01*
X293253Y124537D01*
X294016Y123951D01*
X294635Y123695D01*
Y95671D01*
X293958Y95391D01*
X293195Y94805D01*
X292609Y94042D01*
X292241Y93154D01*
X292116Y92200D01*
X292241Y91246D01*
X292609Y90358D01*
X293195Y89595D01*
X293958Y89009D01*
X294846Y88641D01*
X295800Y88516D01*
X296754Y88641D01*
X297642Y89009D01*
X298405Y89595D01*
X298991Y90358D01*
X299359Y91246D01*
X299484Y92200D01*
X299359Y93154D01*
X298991Y94042D01*
X298405Y94805D01*
X297642Y95391D01*
X297082Y95623D01*
Y123695D01*
X297700Y123951D01*
X298463Y124537D01*
X299049Y125300D01*
X299417Y126188D01*
X299542Y127142D01*
X299417Y128095D01*
X299049Y128984D01*
X298463Y129747D01*
X297700Y130332D01*
X296812Y130701D01*
X295858Y130826D01*
D02*
G37*
G36*
X285800Y95884D02*
X284846Y95759D01*
X283958Y95391D01*
X283195Y94805D01*
X282609Y94042D01*
X282241Y93154D01*
X282116Y92200D01*
X282241Y91246D01*
X282609Y90358D01*
X283195Y89595D01*
X283958Y89009D01*
X284846Y88641D01*
X285800Y88516D01*
X286754Y88641D01*
X287642Y89009D01*
X288405Y89595D01*
X288991Y90358D01*
X289359Y91246D01*
X289484Y92200D01*
X289359Y93154D01*
X288991Y94042D01*
X288405Y94805D01*
X287642Y95391D01*
X286754Y95759D01*
X285800Y95884D01*
D02*
G37*
G36*
X275858Y130826D02*
X274905Y130701D01*
X274016Y130332D01*
X273253Y129747D01*
X272668Y128984D01*
X272300Y128095D01*
X272174Y127142D01*
X272300Y126188D01*
X272668Y125300D01*
X273253Y124537D01*
X274016Y123951D01*
X274635Y123695D01*
Y95671D01*
X273958Y95391D01*
X273195Y94805D01*
X272609Y94042D01*
X272241Y93154D01*
X272116Y92200D01*
X272241Y91246D01*
X272609Y90358D01*
X273195Y89595D01*
X273958Y89009D01*
X274846Y88641D01*
X275800Y88516D01*
X276754Y88641D01*
X277642Y89009D01*
X278405Y89595D01*
X278991Y90358D01*
X279359Y91246D01*
X279484Y92200D01*
X279359Y93154D01*
X278991Y94042D01*
X278405Y94805D01*
X277642Y95391D01*
X277082Y95623D01*
Y123695D01*
X277700Y123951D01*
X278463Y124537D01*
X279049Y125300D01*
X279417Y126188D01*
X279542Y127142D01*
X279417Y128095D01*
X279049Y128984D01*
X278463Y129747D01*
X277700Y130332D01*
X276812Y130701D01*
X275858Y130826D01*
D02*
G37*
G36*
X265858D02*
X264905Y130701D01*
X264016Y130332D01*
X263253Y129747D01*
X262668Y128984D01*
X262299Y128095D01*
X262174Y127142D01*
X262299Y126188D01*
X262668Y125300D01*
X263253Y124537D01*
X264016Y123951D01*
X264635Y123695D01*
Y95671D01*
X263958Y95391D01*
X263195Y94805D01*
X262609Y94042D01*
X262241Y93154D01*
X262116Y92200D01*
X262241Y91246D01*
X262609Y90358D01*
X263195Y89595D01*
X263958Y89009D01*
X264846Y88641D01*
X265800Y88516D01*
X266754Y88641D01*
X267642Y89009D01*
X268405Y89595D01*
X268991Y90358D01*
X269359Y91246D01*
X269484Y92200D01*
X269359Y93154D01*
X268991Y94042D01*
X268405Y94805D01*
X267642Y95391D01*
X267082Y95623D01*
Y123695D01*
X267700Y123951D01*
X268463Y124537D01*
X269049Y125300D01*
X269417Y126188D01*
X269543Y127142D01*
X269417Y128095D01*
X269049Y128984D01*
X268463Y129747D01*
X267700Y130332D01*
X266812Y130701D01*
X265858Y130826D01*
D02*
G37*
G36*
X201684Y99125D02*
X195166D01*
Y93591D01*
X197202D01*
Y88987D01*
X195560D01*
Y82666D01*
X201291D01*
Y88987D01*
X199649D01*
Y93591D01*
X201684D01*
Y99125D01*
D02*
G37*
G36*
X187117D02*
X180599D01*
Y93591D01*
X182635D01*
Y88987D01*
X180993D01*
Y82666D01*
X186724D01*
Y88987D01*
X185082D01*
Y93591D01*
X187117D01*
Y99125D01*
D02*
G37*
G36*
X443023Y105424D02*
X436505D01*
Y99891D01*
X438540D01*
Y85641D01*
X436898D01*
Y79320D01*
X442629D01*
Y85641D01*
X440987D01*
Y99891D01*
X443023D01*
Y105424D01*
D02*
G37*
G36*
X187024Y80035D02*
X185358D01*
Y78075D01*
X187024D01*
Y80035D01*
D02*
G37*
G36*
X182358D02*
X180693D01*
Y78075D01*
X182358D01*
Y80035D01*
D02*
G37*
G36*
X201591D02*
X199925D01*
Y78075D01*
X201591D01*
Y80035D01*
D02*
G37*
G36*
X196925D02*
X195260D01*
Y78075D01*
X196925D01*
Y80035D01*
D02*
G37*
G36*
X159268Y77378D02*
X157701D01*
Y75319D01*
X159268D01*
Y77378D01*
D02*
G37*
G36*
X154701D02*
X153134D01*
Y75319D01*
X154701D01*
Y77378D01*
D02*
G37*
G36*
X442929Y76689D02*
X441264D01*
Y74728D01*
X442929D01*
Y76689D01*
D02*
G37*
G36*
X438264D02*
X436598D01*
Y74728D01*
X438264D01*
Y76689D01*
D02*
G37*
G36*
X75213Y76197D02*
X73646D01*
Y74138D01*
X75213D01*
Y76197D01*
D02*
G37*
G36*
X70646D02*
X69079D01*
Y74138D01*
X70646D01*
Y76197D01*
D02*
G37*
G36*
X201591Y75075D02*
X199925D01*
Y73114D01*
X201591D01*
Y75075D01*
D02*
G37*
G36*
X196925D02*
X195260D01*
Y73114D01*
X196925D01*
Y75075D01*
D02*
G37*
G36*
X187024Y75075D02*
X185358D01*
Y73114D01*
X187024D01*
Y75075D01*
D02*
G37*
G36*
X182358D02*
X180693D01*
Y73114D01*
X182358D01*
Y75075D01*
D02*
G37*
G36*
X140374Y78495D02*
X139602Y78341D01*
X138947Y77903D01*
X138509Y77249D01*
X138356Y76476D01*
Y72539D01*
X138509Y71767D01*
X138947Y71112D01*
X139602Y70675D01*
X140374Y70521D01*
X141146Y70675D01*
X141801Y71112D01*
X142239Y71767D01*
X142392Y72539D01*
Y73284D01*
X146150D01*
Y70560D01*
X151684D01*
Y77078D01*
X146150D01*
Y75731D01*
X142392D01*
Y76476D01*
X142239Y77249D01*
X141801Y77903D01*
X141146Y78341D01*
X140374Y78495D01*
D02*
G37*
G36*
X125374D02*
X124602Y78341D01*
X123947Y77903D01*
X123509Y77249D01*
X123356Y76476D01*
Y72539D01*
X123509Y71767D01*
X123947Y71112D01*
X124602Y70675D01*
X125374Y70521D01*
X126146Y70675D01*
X126801Y71112D01*
X127239Y71767D01*
X127392Y72539D01*
Y76476D01*
X127239Y77249D01*
X126801Y77903D01*
X126146Y78341D01*
X125374Y78495D01*
D02*
G37*
G36*
X159268Y72319D02*
X157701D01*
Y70260D01*
X159268D01*
Y72319D01*
D02*
G37*
G36*
X154701D02*
X153134D01*
Y70260D01*
X154701D01*
Y72319D01*
D02*
G37*
G36*
X442929Y71728D02*
X441264D01*
Y69768D01*
X442929D01*
Y71728D01*
D02*
G37*
G36*
X438264D02*
X436598D01*
Y69768D01*
X438264D01*
Y71728D01*
D02*
G37*
G36*
X75213Y71138D02*
X73646D01*
Y69079D01*
X75213D01*
Y71138D01*
D02*
G37*
G36*
X70646D02*
X69079D01*
Y69079D01*
X70646D01*
Y71138D01*
D02*
G37*
G36*
X11811Y72739D02*
X10858Y72614D01*
X9969Y72246D01*
X9206Y71660D01*
X8620Y70897D01*
X8252Y70009D01*
X8127Y69055D01*
X8252Y68102D01*
X8620Y67213D01*
X9206Y66450D01*
X9969Y65864D01*
X10858Y65496D01*
X11811Y65371D01*
X12765Y65496D01*
X13653Y65864D01*
X14416Y66450D01*
X15002Y67213D01*
X15370Y68102D01*
X15495Y69055D01*
X15370Y70009D01*
X15002Y70897D01*
X14416Y71660D01*
X13653Y72246D01*
X12765Y72614D01*
X11811Y72739D01*
D02*
G37*
G36*
X391256Y62614D02*
X389295D01*
Y60949D01*
X391256D01*
Y62614D01*
D02*
G37*
G36*
X386295D02*
X384335D01*
Y60949D01*
X386295D01*
Y62614D01*
D02*
G37*
G36*
X371369Y62708D02*
X365835D01*
Y56190D01*
X371369D01*
Y58225D01*
X375383D01*
Y56583D01*
X381704D01*
Y62314D01*
X375383D01*
Y60672D01*
X371369D01*
Y62708D01*
D02*
G37*
G36*
X135374Y78495D02*
X134602Y78341D01*
X133947Y77903D01*
X133509Y77249D01*
X133356Y76476D01*
Y72539D01*
X133509Y71767D01*
X133947Y71112D01*
X134151Y70976D01*
Y63046D01*
X131930Y60826D01*
X131665Y60429D01*
X131572Y59961D01*
Y58281D01*
X130929Y58015D01*
X130156Y57422D01*
X129563Y56649D01*
X129519Y56542D01*
X129019Y56641D01*
Y59375D01*
X131239Y61595D01*
X131504Y61992D01*
X131597Y62461D01*
Y70976D01*
X131801Y71112D01*
X132239Y71767D01*
X132392Y72539D01*
Y76476D01*
X132239Y77249D01*
X131801Y77903D01*
X131146Y78341D01*
X130374Y78495D01*
X129602Y78341D01*
X128947Y77903D01*
X128509Y77249D01*
X128356Y76476D01*
Y72539D01*
X128509Y71767D01*
X128947Y71112D01*
X129150Y70976D01*
Y62967D01*
X126930Y60747D01*
X126665Y60350D01*
X126572Y59882D01*
Y58952D01*
X126495Y58483D01*
X126072Y58483D01*
X119095D01*
Y51083D01*
X126495Y51083D01*
X126572Y50615D01*
Y48281D01*
X125929Y48015D01*
X125156Y47422D01*
X124563Y46649D01*
X124190Y45749D01*
X124063Y44783D01*
X124190Y43818D01*
X124457Y43175D01*
X121875Y40594D01*
X79250D01*
X79217Y41094D01*
X79864Y41179D01*
X80764Y41552D01*
X81537Y42145D01*
X82130Y42917D01*
X82502Y43818D01*
X82630Y44783D01*
X82502Y45749D01*
X82130Y46649D01*
X81537Y47422D01*
X80764Y48015D01*
X79864Y48388D01*
X78898Y48515D01*
X77932Y48388D01*
X77032Y48015D01*
X76259Y47422D01*
X75666Y46649D01*
X75293Y45749D01*
X75166Y44783D01*
X75293Y43818D01*
X75666Y42917D01*
X76259Y42145D01*
X77032Y41552D01*
X77932Y41179D01*
X78578Y41094D01*
X78545Y40594D01*
X69250D01*
X69217Y41094D01*
X69863Y41179D01*
X70764Y41552D01*
X71536Y42145D01*
X72130Y42917D01*
X72502Y43818D01*
X72630Y44783D01*
X72502Y45749D01*
X72130Y46649D01*
X71536Y47422D01*
X70764Y48015D01*
X69863Y48388D01*
X68898Y48515D01*
X67932Y48388D01*
X67032Y48015D01*
X66259Y47422D01*
X65666Y46649D01*
X65293Y45749D01*
X65166Y44783D01*
X65293Y43818D01*
X65666Y42917D01*
X66259Y42145D01*
X67032Y41552D01*
X67932Y41179D01*
X68578Y41094D01*
X68546Y40594D01*
X65758D01*
X62506Y43845D01*
X62630Y44783D01*
X62502Y45749D01*
X62130Y46649D01*
X61537Y47422D01*
X60764Y48015D01*
X59864Y48388D01*
X58898Y48515D01*
X57932Y48388D01*
X57032Y48015D01*
X56259Y47422D01*
X55666Y46649D01*
X55400Y46007D01*
X29331D01*
X28850Y46052D01*
Y50862D01*
X35342D01*
X36485Y49718D01*
X36882Y49453D01*
X37351Y49360D01*
X59698D01*
X60166Y49453D01*
X60563Y49718D01*
X62289Y51445D01*
X62932Y51179D01*
X63898Y51051D01*
X64864Y51179D01*
X65764Y51552D01*
X66536Y52145D01*
X67130Y52917D01*
X67502Y53818D01*
X67630Y54783D01*
X67502Y55749D01*
X67130Y56649D01*
X66536Y57422D01*
X65764Y58015D01*
X64864Y58388D01*
X63898Y58515D01*
X62932Y58388D01*
X62032Y58015D01*
X61259Y57422D01*
X60666Y56649D01*
X60293Y55749D01*
X60166Y54783D01*
X60293Y53818D01*
X60559Y53175D01*
X59191Y51807D01*
X57598D01*
Y58483D01*
X50198D01*
Y51807D01*
X37857D01*
X36713Y52951D01*
X36316Y53216D01*
X35848Y53309D01*
X29339D01*
X28850Y53335D01*
X28850Y53809D01*
Y58869D01*
X24142D01*
X24024Y58893D01*
X15638D01*
X15495Y59055D01*
X15370Y60009D01*
X15002Y60897D01*
X14416Y61660D01*
X13653Y62246D01*
X12765Y62614D01*
X11811Y62739D01*
X10858Y62614D01*
X9969Y62246D01*
X9206Y61660D01*
X8620Y60897D01*
X8252Y60009D01*
X8127Y59055D01*
X8252Y58102D01*
X8620Y57213D01*
X9206Y56450D01*
X9969Y55864D01*
X10858Y55496D01*
X11811Y55371D01*
X12765Y55496D01*
X13653Y55864D01*
X14416Y56450D01*
X14470Y56520D01*
X14844Y56446D01*
X22332D01*
X22332Y53335D01*
X21842Y53309D01*
X14842D01*
X14374Y53216D01*
X13977Y52951D01*
X13734Y52708D01*
X8158D01*
Y45402D01*
X15464D01*
Y50862D01*
X22332D01*
Y46052D01*
X24408D01*
X24460Y45792D01*
X24725Y45395D01*
X26202Y43918D01*
X26599Y43653D01*
X27067Y43560D01*
X55400D01*
X55666Y42917D01*
X56259Y42145D01*
X57032Y41552D01*
X57932Y41179D01*
X58898Y41052D01*
X59864Y41179D01*
X60764Y41552D01*
X61089Y41801D01*
X64386Y38505D01*
X64783Y38240D01*
X65251Y38147D01*
X122382D01*
X122850Y38240D01*
X123247Y38505D01*
X126187Y41445D01*
X126829Y41179D01*
X127795Y41052D01*
X128761Y41179D01*
X129661Y41552D01*
X130434Y42145D01*
X131027Y42917D01*
X131400Y43818D01*
X131527Y44783D01*
X131400Y45749D01*
X131027Y46649D01*
X130434Y47422D01*
X129661Y48015D01*
X129019Y48281D01*
Y52926D01*
X129519Y53025D01*
X129563Y52917D01*
X130156Y52145D01*
X130929Y51552D01*
X131829Y51179D01*
X132795Y51051D01*
X133761Y51179D01*
X134661Y51552D01*
X135434Y52145D01*
X136027Y52917D01*
X136400Y53818D01*
X136527Y54783D01*
X136400Y55749D01*
X136027Y56649D01*
X135434Y57422D01*
X134661Y58015D01*
X134019Y58281D01*
Y59454D01*
X136239Y61674D01*
X136504Y62071D01*
X136598Y62539D01*
Y70976D01*
X136801Y71112D01*
X137239Y71767D01*
X137392Y72539D01*
Y76476D01*
X137239Y77249D01*
X136801Y77903D01*
X136146Y78341D01*
X135374Y78495D01*
D02*
G37*
G36*
X391256Y57949D02*
X389295D01*
Y56283D01*
X391256D01*
Y57949D01*
D02*
G37*
G36*
X386295D02*
X384335D01*
Y56283D01*
X386295D01*
Y57949D01*
D02*
G37*
G36*
X255858Y130826D02*
X254905Y130701D01*
X254016Y130332D01*
X253253Y129747D01*
X252668Y128984D01*
X252299Y128095D01*
X252174Y127142D01*
X252299Y126188D01*
X252668Y125300D01*
X253253Y124537D01*
X254016Y123951D01*
X254635Y123695D01*
Y95671D01*
X253958Y95391D01*
X253195Y94805D01*
X252609Y94042D01*
X252241Y93154D01*
X252116Y92200D01*
X252241Y91246D01*
X252609Y90358D01*
X253195Y89595D01*
X253958Y89009D01*
X254846Y88641D01*
X255800Y88516D01*
X256754Y88641D01*
X257372Y88898D01*
X271151Y75119D01*
X271548Y74854D01*
X272016Y74761D01*
X336895D01*
X352580Y59076D01*
X352977Y58811D01*
X353445Y58717D01*
X358552D01*
Y56190D01*
X364086D01*
Y62708D01*
X358552D01*
Y61164D01*
X353952D01*
X338267Y76849D01*
X337870Y77115D01*
X337402Y77208D01*
X272522D01*
X259103Y90628D01*
X259359Y91246D01*
X259484Y92200D01*
X259359Y93154D01*
X258991Y94042D01*
X258405Y94805D01*
X257642Y95391D01*
X257082Y95623D01*
Y123695D01*
X257700Y123951D01*
X258463Y124537D01*
X259049Y125300D01*
X259417Y126188D01*
X259542Y127142D01*
X259417Y128095D01*
X259049Y128984D01*
X258463Y129747D01*
X257700Y130332D01*
X256812Y130701D01*
X255858Y130826D01*
D02*
G37*
G36*
X142795Y58515D02*
X141829Y58388D01*
X140929Y58015D01*
X140156Y57422D01*
X139563Y56649D01*
X139190Y55749D01*
X139063Y54783D01*
X139190Y53818D01*
X139563Y52917D01*
X140156Y52145D01*
X140929Y51552D01*
X141829Y51179D01*
X142795Y51051D01*
X143761Y51179D01*
X144661Y51552D01*
X145434Y52145D01*
X146027Y52917D01*
X146400Y53818D01*
X146527Y54783D01*
X146400Y55749D01*
X146027Y56649D01*
X145434Y57422D01*
X144661Y58015D01*
X143761Y58388D01*
X142795Y58515D01*
D02*
G37*
G36*
X73898D02*
X72932Y58388D01*
X72032Y58015D01*
X71259Y57422D01*
X70666Y56649D01*
X70293Y55749D01*
X70166Y54783D01*
X70293Y53818D01*
X70666Y52917D01*
X71259Y52145D01*
X72032Y51552D01*
X72932Y51179D01*
X73898Y51051D01*
X74863Y51179D01*
X75764Y51552D01*
X76537Y52145D01*
X77130Y52917D01*
X77502Y53818D01*
X77630Y54783D01*
X77502Y55749D01*
X77130Y56649D01*
X76537Y57422D01*
X75764Y58015D01*
X74863Y58388D01*
X73898Y58515D01*
D02*
G37*
G36*
X391256Y50016D02*
X389295D01*
Y48350D01*
X391256D01*
Y50016D01*
D02*
G37*
G36*
X386295D02*
X384335D01*
Y48350D01*
X386295D01*
Y50016D01*
D02*
G37*
G36*
X371763Y50109D02*
X366229D01*
Y43591D01*
X371763D01*
Y45627D01*
X375383D01*
Y43985D01*
X381704D01*
Y49716D01*
X375383D01*
Y48074D01*
X371763D01*
Y50109D01*
D02*
G37*
G36*
X391256Y45350D02*
X389295D01*
Y43685D01*
X391256D01*
Y45350D01*
D02*
G37*
G36*
X386295D02*
X384335D01*
Y43685D01*
X386295D01*
Y45350D01*
D02*
G37*
G36*
X298031Y68060D02*
X297298Y67914D01*
X296675Y67498D01*
X296259Y66876D01*
X296113Y66142D01*
X296259Y65408D01*
X296675Y64785D01*
X297298Y64370D01*
X298031Y64224D01*
X298765Y64370D01*
X299388Y64785D01*
X299476Y64918D01*
X334926D01*
X353859Y45985D01*
X354256Y45720D01*
X354724Y45627D01*
X358946D01*
Y43591D01*
X364479D01*
Y50109D01*
X358946D01*
Y48074D01*
X355231D01*
X336298Y67007D01*
X335901Y67272D01*
X335433Y67365D01*
X299476D01*
X299388Y67498D01*
X298765Y67914D01*
X298031Y68060D01*
D02*
G37*
G36*
X147795Y48515D02*
X146829Y48388D01*
X145929Y48015D01*
X145156Y47422D01*
X144563Y46649D01*
X144191Y45749D01*
X144063Y44783D01*
X144191Y43818D01*
X144563Y42917D01*
X145156Y42145D01*
X145929Y41552D01*
X146829Y41179D01*
X147795Y41052D01*
X148761Y41179D01*
X149661Y41552D01*
X150434Y42145D01*
X151027Y42917D01*
X151400Y43818D01*
X151527Y44783D01*
X151400Y45749D01*
X151027Y46649D01*
X150434Y47422D01*
X149661Y48015D01*
X148761Y48388D01*
X147795Y48515D01*
D02*
G37*
G36*
X137795D02*
X136829Y48388D01*
X135929Y48015D01*
X135156Y47422D01*
X134563Y46649D01*
X134190Y45749D01*
X134063Y44783D01*
X134190Y43818D01*
X134563Y42917D01*
X135156Y42145D01*
X135929Y41552D01*
X136829Y41179D01*
X137795Y41052D01*
X138761Y41179D01*
X139661Y41552D01*
X140434Y42145D01*
X141027Y42917D01*
X141400Y43818D01*
X141527Y44783D01*
X141400Y45749D01*
X141027Y46649D01*
X140434Y47422D01*
X139661Y48015D01*
X138761Y48388D01*
X137795Y48515D01*
D02*
G37*
G36*
X391256Y37024D02*
X389295D01*
Y35358D01*
X391256D01*
Y37024D01*
D02*
G37*
G36*
X386295D02*
X384335D01*
Y35358D01*
X386295D01*
Y37024D01*
D02*
G37*
G36*
X371369Y37117D02*
X365835D01*
Y30599D01*
X371369D01*
Y32635D01*
X375383D01*
Y30993D01*
X381704D01*
Y36724D01*
X375383D01*
Y35082D01*
X371369D01*
Y37117D01*
D02*
G37*
G36*
X391256Y32358D02*
X389295D01*
Y30693D01*
X391256D01*
Y32358D01*
D02*
G37*
G36*
X386295D02*
X384335D01*
Y30693D01*
X386295D01*
Y32358D01*
D02*
G37*
G36*
X364086Y37117D02*
X358552D01*
Y34688D01*
X312065D01*
X311596Y34595D01*
X311199Y34330D01*
X307372Y30503D01*
X306754Y30759D01*
X305800Y30884D01*
X304846Y30759D01*
X303958Y30391D01*
X303195Y29805D01*
X302609Y29042D01*
X302241Y28154D01*
X302116Y27200D01*
X302241Y26246D01*
X302609Y25358D01*
X303195Y24595D01*
X303958Y24009D01*
X304846Y23641D01*
X305800Y23516D01*
X306754Y23641D01*
X307642Y24009D01*
X308405Y24595D01*
X308991Y25358D01*
X309359Y26246D01*
X309484Y27200D01*
X309359Y28154D01*
X309103Y28772D01*
X312571Y32241D01*
X358552D01*
Y30599D01*
X364086D01*
Y37117D01*
D02*
G37*
G36*
X267300Y30857D02*
Y28700D01*
X269457D01*
X269253Y29193D01*
X268619Y30019D01*
X267793Y30653D01*
X267300Y30857D01*
D02*
G37*
G36*
X264300D02*
X263807Y30653D01*
X262981Y30019D01*
X262347Y29193D01*
X262143Y28700D01*
X264300D01*
Y30857D01*
D02*
G37*
G36*
X269457Y25700D02*
X267300D01*
Y23543D01*
X267793Y23747D01*
X268619Y24381D01*
X269253Y25207D01*
X269457Y25700D01*
D02*
G37*
G36*
X264300D02*
X262143D01*
X262347Y25207D01*
X262981Y24381D01*
X263807Y23747D01*
X264300Y23543D01*
Y25700D01*
D02*
G37*
G36*
X325800Y30884D02*
X324846Y30759D01*
X323958Y30391D01*
X323195Y29805D01*
X322609Y29042D01*
X322241Y28154D01*
X322116Y27200D01*
X322241Y26246D01*
X322609Y25358D01*
X323195Y24595D01*
X323958Y24009D01*
X324846Y23641D01*
X325800Y23516D01*
X326754Y23641D01*
X327642Y24009D01*
X328405Y24595D01*
X328991Y25358D01*
X329359Y26246D01*
X329484Y27200D01*
X329359Y28154D01*
X328991Y29042D01*
X328405Y29805D01*
X327642Y30391D01*
X326754Y30759D01*
X325800Y30884D01*
D02*
G37*
G36*
X315800D02*
X314846Y30759D01*
X313958Y30391D01*
X313195Y29805D01*
X312609Y29042D01*
X312241Y28154D01*
X312116Y27200D01*
X312241Y26246D01*
X312609Y25358D01*
X313195Y24595D01*
X313958Y24009D01*
X314846Y23641D01*
X315800Y23516D01*
X316754Y23641D01*
X317642Y24009D01*
X318405Y24595D01*
X318991Y25358D01*
X319359Y26246D01*
X319484Y27200D01*
X319359Y28154D01*
X318991Y29042D01*
X318405Y29805D01*
X317642Y30391D01*
X316754Y30759D01*
X315800Y30884D01*
D02*
G37*
G36*
X295800D02*
X294846Y30759D01*
X293958Y30391D01*
X293195Y29805D01*
X292609Y29042D01*
X292241Y28154D01*
X292116Y27200D01*
X292241Y26246D01*
X292609Y25358D01*
X293195Y24595D01*
X293958Y24009D01*
X294846Y23641D01*
X295800Y23516D01*
X296754Y23641D01*
X297642Y24009D01*
X298405Y24595D01*
X298991Y25358D01*
X299359Y26246D01*
X299484Y27200D01*
X299359Y28154D01*
X298991Y29042D01*
X298405Y29805D01*
X297642Y30391D01*
X296754Y30759D01*
X295800Y30884D01*
D02*
G37*
G36*
X285800D02*
X284846Y30759D01*
X283958Y30391D01*
X283195Y29805D01*
X282609Y29042D01*
X282241Y28154D01*
X282116Y27200D01*
X282241Y26246D01*
X282609Y25358D01*
X283195Y24595D01*
X283958Y24009D01*
X284846Y23641D01*
X285800Y23516D01*
X286754Y23641D01*
X287642Y24009D01*
X288405Y24595D01*
X288991Y25358D01*
X289359Y26246D01*
X289484Y27200D01*
X289359Y28154D01*
X288991Y29042D01*
X288405Y29805D01*
X287642Y30391D01*
X286754Y30759D01*
X285800Y30884D01*
D02*
G37*
G36*
X255800D02*
X254846Y30759D01*
X253958Y30391D01*
X253195Y29805D01*
X252609Y29042D01*
X252241Y28154D01*
X252116Y27200D01*
X252241Y26246D01*
X252609Y25358D01*
X253195Y24595D01*
X253958Y24009D01*
X254846Y23641D01*
X255800Y23516D01*
X256754Y23641D01*
X257642Y24009D01*
X258405Y24595D01*
X258991Y25358D01*
X259359Y26246D01*
X259484Y27200D01*
X259359Y28154D01*
X258991Y29042D01*
X258405Y29805D01*
X257642Y30391D01*
X256754Y30759D01*
X255800Y30884D01*
D02*
G37*
G36*
X275800D02*
X274846Y30759D01*
X273958Y30391D01*
X273195Y29805D01*
X272609Y29042D01*
X272241Y28154D01*
X272116Y27200D01*
X272241Y26246D01*
X272609Y25358D01*
X273195Y24595D01*
X273958Y24009D01*
X274380Y23834D01*
Y12471D01*
X273229Y11320D01*
X272767Y11511D01*
Y12456D01*
X267233D01*
Y5544D01*
X272767D01*
Y7521D01*
X273000D01*
X273566Y7634D01*
X274045Y7954D01*
X276904Y10813D01*
X277224Y11293D01*
X277337Y11858D01*
Y23883D01*
X277642Y24009D01*
X278405Y24595D01*
X278991Y25358D01*
X279359Y26246D01*
X279484Y27200D01*
X279387Y27942D01*
Y27991D01*
X279367Y28087D01*
X279359Y28154D01*
X279350Y28174D01*
X279274Y28557D01*
X279058Y28881D01*
X278991Y29042D01*
X278405Y29805D01*
X277642Y30391D01*
X276754Y30759D01*
X275800Y30884D01*
D02*
G37*
G36*
X265783Y12756D02*
X264216D01*
Y10500D01*
X265783D01*
Y12756D01*
D02*
G37*
G36*
X261216D02*
X259649D01*
Y10500D01*
X261216D01*
Y12756D01*
D02*
G37*
G36*
X265783Y7500D02*
X264216D01*
Y5244D01*
X265783D01*
Y7500D01*
D02*
G37*
G36*
X261216D02*
X259649D01*
Y5244D01*
X261216D01*
Y7500D01*
D02*
G37*
%LPD*%
G36*
X178000Y326000D02*
X200000Y304000D01*
X200000Y293701D01*
X135467Y293701D01*
X139000Y299000D01*
X141000Y302000D01*
Y303000D01*
X130920Y315000D01*
X130000D01*
X130500Y315500D01*
X138290Y326000D01*
X178000Y326000D01*
D02*
G37*
G36*
X331496Y319685D02*
X331496Y299291D01*
X329134Y295276D01*
X314196Y290551D01*
X220276Y290551D01*
X202362Y293701D01*
Y304134D01*
X224213Y325984D01*
X325197D01*
X331496Y319685D01*
D02*
G37*
G36*
X259677Y219593D02*
Y218775D01*
X259176Y218676D01*
X259049Y218984D01*
X258463Y219747D01*
X257700Y220332D01*
X256812Y220701D01*
X255858Y220826D01*
X254905Y220701D01*
X254016Y220332D01*
X253253Y219747D01*
X252668Y218984D01*
X252523Y218636D01*
X252024Y218736D01*
Y220200D01*
X251930Y220668D01*
X251665Y221065D01*
X247913Y224817D01*
X248104Y225279D01*
X253990D01*
X259677Y219593D01*
D02*
G37*
G36*
X430709Y271260D02*
Y183071D01*
X403150Y216051D01*
X403150Y271654D01*
X406693Y275197D01*
X426772Y275197D01*
X430709Y271260D01*
D02*
G37*
G36*
X433465Y165354D02*
Y163386D01*
Y157874D01*
Y154331D01*
X428346D01*
Y157480D01*
X431890Y165354D01*
X432677Y166929D01*
X433465Y165354D01*
D02*
G37*
G36*
X453937Y133858D02*
X462819Y124976D01*
X462819Y124976D01*
X463516Y124280D01*
X464610Y122642D01*
X465364Y120822D01*
X465748Y118890D01*
X465748Y117905D01*
X465748Y109843D01*
X447638Y109843D01*
Y109941D01*
X437660Y109941D01*
X437660D01*
X438790Y110362D01*
X440936Y111459D01*
X442889Y112872D01*
X444603Y114567D01*
X446036Y116505D01*
X447155Y118640D01*
X447638Y120055D01*
X447638Y138583D01*
X453937Y133858D01*
D02*
G37*
G36*
X417323Y102362D02*
X413386Y106299D01*
X410236Y110236D01*
X425197D01*
X417323Y102362D01*
D02*
G37*
D10*
X70284Y102256D02*
X70965Y101575D01*
X226197Y224803D02*
X246197D01*
X212000Y239000D02*
X226197Y224803D01*
X246197D02*
X250800Y220200D01*
X99000Y227000D02*
X154500Y171500D01*
X79429Y164370D02*
X80996Y165937D01*
X82185Y171457D02*
X82972D01*
X80996Y170268D02*
X82185Y171457D01*
X80996Y165937D02*
Y170268D01*
X72146Y165059D02*
X76772Y169685D01*
X73606Y178937D02*
X76772Y175771D01*
Y169685D02*
Y175771D01*
X122382Y39370D02*
X127795Y44783D01*
X65251Y39370D02*
X122382D01*
X59837Y44783D02*
X65251Y39370D01*
X63661Y54547D02*
Y55020D01*
X197079Y126937D02*
X198425Y125591D01*
Y103642D02*
Y125591D01*
X79429Y147638D02*
Y155512D01*
X27067Y44783D02*
X58898D01*
X25591Y46260D02*
X27067Y44783D01*
X25591Y46260D02*
Y48819D01*
X59698Y50583D02*
X63661Y54547D01*
X37351Y50583D02*
X59698D01*
X35848Y52086D02*
X37351Y50583D01*
X14842Y52086D02*
X35848D01*
X11811Y49055D02*
X14842Y52086D01*
X11811Y59055D02*
X13458D01*
X14844Y57669D01*
X24024D01*
X25591Y56102D01*
X79429Y155512D02*
Y164370D01*
X72146Y155512D02*
Y164370D01*
X145858Y217142D02*
X146722Y218006D01*
X145858Y217142D02*
X145858Y217142D01*
X58898Y44783D02*
X59837D01*
X63661Y55020D02*
X63898Y54783D01*
X132795D02*
Y59961D01*
X184252Y105020D02*
Y109646D01*
Y105020D02*
X184744Y104527D01*
X183858Y103642D02*
X184744Y104527D01*
X184858Y126142D02*
X185858Y125142D01*
X195858Y126075D02*
Y127142D01*
X162087Y92304D02*
X195858Y126075D01*
X127854Y92304D02*
X162087D01*
X148228Y74508D02*
X148917Y73819D01*
X140374Y74508D02*
X148228D01*
X130374Y62461D02*
Y74508D01*
X127795Y59882D02*
X130374Y62461D01*
X127795Y44783D02*
Y59882D01*
X135374Y62539D02*
Y74508D01*
X132795Y59961D02*
X135374Y62539D01*
X176230Y111270D02*
X185858Y120898D01*
Y125142D01*
X161713Y96752D02*
X176230Y111270D01*
X140374Y96752D02*
X161713D01*
X125374Y94784D02*
X127854Y92304D01*
X125374Y94784D02*
Y96752D01*
X335858Y102258D02*
Y127142D01*
X325800Y92200D02*
X335858Y102258D01*
X368602Y59449D02*
X378543D01*
X368996Y46850D02*
X378543D01*
X368602Y33858D02*
X378543D01*
X353445Y59941D02*
X361319D01*
X255858Y92142D02*
Y127142D01*
X337402Y75984D02*
X353445Y59941D01*
X272016Y75984D02*
X337402D01*
X295858Y92142D02*
Y127142D01*
X354724Y46850D02*
X361713D01*
X335433Y66142D02*
X354724Y46850D01*
X298031Y66142D02*
X335433D01*
X255858Y92142D02*
X272016Y75984D01*
X361319Y59449D02*
Y59941D01*
X312065Y33465D02*
X360925D01*
X361319Y33858D01*
X305800Y27200D02*
X312065Y33465D01*
X214961Y249606D02*
Y258039D01*
X212000Y261000D02*
X214961Y258039D01*
X209000Y261000D02*
X212000D01*
X439764Y84842D02*
Y102657D01*
X183000Y253500D02*
X183500Y253000D01*
X183258Y253000D02*
X183300Y252958D01*
X173000Y253000D02*
X183258D01*
X195858Y127142D02*
X196063Y126937D01*
X197079D01*
X198425Y85827D02*
Y96358D01*
X183858Y85827D02*
Y96358D01*
X430217Y156299D02*
X430315Y156201D01*
X437500Y156299D02*
Y156988D01*
X435236Y159252D02*
X437500Y156988D01*
X435236Y159252D02*
Y168110D01*
X446358Y192520D02*
Y201181D01*
X437819Y189787D02*
X440551Y192520D01*
X446358D01*
X437819Y185457D02*
Y189787D01*
X437795Y185433D02*
X437819Y185457D01*
X447165Y177737D02*
X447638Y178209D01*
X440178Y177186D02*
X440256Y177264D01*
X439350Y177186D02*
X440178D01*
X440256Y177264D02*
X447638D01*
X435457Y181079D02*
X439350Y177186D01*
X435457Y181079D02*
Y185213D01*
X435236Y185433D02*
X435457Y185213D01*
X250800Y193200D02*
Y220200D01*
Y193200D02*
X255858Y188142D01*
X254497Y226503D02*
X260900Y220100D01*
Y192100D02*
Y220100D01*
Y192100D02*
X265858Y187142D01*
X229270Y226503D02*
X254497D01*
X173000Y260283D02*
Y298000D01*
X165858Y187142D02*
X165858Y187142D01*
X183300Y246700D02*
Y252958D01*
X145000Y188000D02*
X145858Y187142D01*
X145000Y188000D02*
Y191000D01*
X255858Y187142D02*
Y188142D01*
X191000Y239000D02*
X212000D01*
X183300Y246700D02*
X191000Y239000D01*
X203500Y252272D02*
X229270Y226503D01*
X203500Y252272D02*
Y274878D01*
X208500Y261500D02*
X209000Y261000D01*
X315858Y187142D02*
Y217142D01*
X155858Y187142D02*
Y217142D01*
X185858Y187142D02*
Y217142D01*
X195858Y187142D02*
Y217142D01*
X205858Y187142D02*
Y217142D01*
X215858Y187142D02*
Y217142D01*
X225858Y187142D02*
Y217142D01*
X285858Y187142D02*
Y217142D01*
X295858Y187142D02*
Y217142D01*
X305858Y187142D02*
Y217142D01*
X325858Y187142D02*
Y217142D01*
X335858Y187142D02*
Y217142D01*
X345858Y187142D02*
Y217142D01*
X355858Y187142D02*
Y217142D01*
X365858Y187142D02*
Y217142D01*
X375858Y187142D02*
Y217142D01*
X175858Y187142D02*
Y217142D01*
X170000Y301000D02*
X173000Y298000D01*
X208500Y261500D02*
Y274878D01*
X198500Y261500D02*
Y274878D01*
Y261500D02*
X199000Y261000D01*
X275858Y92142D02*
Y127142D01*
X265858Y92142D02*
Y127142D01*
D15*
X430118Y168110D02*
D03*
X432677D02*
D03*
X435236D02*
D03*
X437795D02*
D03*
Y185433D02*
D03*
X435236D02*
D03*
X432677D02*
D03*
X430118D02*
D03*
D16*
X81791Y105315D02*
D03*
Y97835D02*
D03*
X70965D02*
D03*
Y101575D02*
D03*
Y105315D02*
D03*
X82972Y178937D02*
D03*
Y171457D02*
D03*
X72146D02*
D03*
Y175197D02*
D03*
Y178937D02*
D03*
D17*
X383465Y239370D02*
D03*
X403543D02*
D03*
X450000D02*
D03*
X429921D02*
D03*
D18*
X72146Y90354D02*
D03*
X79429D02*
D03*
X72146Y164370D02*
D03*
X79429D02*
D03*
X270000Y9000D02*
D03*
X262717D02*
D03*
X437500Y156299D02*
D03*
X430217D02*
D03*
D19*
X417323Y100492D02*
D03*
Y93209D02*
D03*
X145669Y236319D02*
D03*
Y229035D02*
D03*
X130905Y105610D02*
D03*
Y112894D02*
D03*
X447638Y177264D02*
D03*
Y169980D02*
D03*
X452165Y110728D02*
D03*
Y103445D02*
D03*
X463551Y110909D02*
D03*
Y103626D02*
D03*
X209000Y261000D02*
D03*
Y253717D02*
D03*
X199000Y261000D02*
D03*
Y253716D02*
D03*
D20*
X79429Y72638D02*
D03*
X72146D02*
D03*
X79429Y81496D02*
D03*
X72146D02*
D03*
X48622Y101969D02*
D03*
X55905D02*
D03*
X63681Y129921D02*
D03*
X70965D02*
D03*
X72146Y146653D02*
D03*
X79429D02*
D03*
Y155512D02*
D03*
X72146D02*
D03*
X34744Y167323D02*
D03*
X42028D02*
D03*
X156201Y73819D02*
D03*
X148917D02*
D03*
X368602Y59449D02*
D03*
X361319D02*
D03*
X368996Y46850D02*
D03*
X361713D02*
D03*
X368602Y33858D02*
D03*
X361319D02*
D03*
X430413Y109843D02*
D03*
X423130D02*
D03*
X429724Y200787D02*
D03*
X437008D02*
D03*
X453642Y201181D02*
D03*
X446358D02*
D03*
Y192520D02*
D03*
X453642D02*
D03*
D21*
X121063Y145374D02*
D03*
Y138091D02*
D03*
X62205Y166634D02*
D03*
Y159350D02*
D03*
X121063Y127657D02*
D03*
Y120374D02*
D03*
X183858Y103642D02*
D03*
Y96358D02*
D03*
X198425Y103642D02*
D03*
Y96358D02*
D03*
X183500Y260283D02*
D03*
Y253000D02*
D03*
X173000Y253000D02*
D03*
Y260283D02*
D03*
X25591Y48819D02*
D03*
Y56102D02*
D03*
X439764Y102657D02*
D03*
Y109941D02*
D03*
D22*
X140374Y96752D02*
D03*
X135374D02*
D03*
X130374D02*
D03*
X125374D02*
D03*
X140374Y74508D02*
D03*
X135374D02*
D03*
X130374D02*
D03*
X125374D02*
D03*
D23*
X193500Y274878D02*
D03*
X198500D02*
D03*
X203500D02*
D03*
X208500D02*
D03*
X193500Y297122D02*
D03*
X198500D02*
D03*
X203500D02*
D03*
X208500D02*
D03*
D24*
X452362Y132677D02*
D03*
X430315D02*
D03*
D25*
X378543Y59449D02*
D03*
X387795D02*
D03*
X378543Y46850D02*
D03*
X387795D02*
D03*
X378543Y33858D02*
D03*
X387795D02*
D03*
D26*
X183858Y85827D02*
D03*
Y76575D02*
D03*
X198425Y85827D02*
D03*
Y76575D02*
D03*
X439764Y82480D02*
D03*
Y73228D02*
D03*
D27*
X405905Y112205D02*
D03*
Y121260D02*
D03*
D47*
X450264Y109941D02*
X451293Y110146D01*
X452165Y110728D01*
X55905Y101969D02*
Y114961D01*
X61811Y97638D02*
X71850D01*
X55905Y101969D02*
X57480D01*
X61811Y97638D01*
X72146Y81693D02*
Y82677D01*
X82972Y179134D02*
X95965Y192126D01*
X129528D01*
X277908Y27142D02*
Y27991D01*
X130295Y96831D02*
Y105610D01*
X81201D02*
X130217D01*
X73606Y178937D02*
X77772D01*
X72933D02*
X73606D01*
X72146D02*
X72933D01*
X72146Y164370D02*
Y165059D01*
X141653Y176261D02*
X155512Y162402D01*
X80448Y176261D02*
X141653D01*
X77772Y178937D02*
X80448Y176261D01*
X79971Y82234D02*
Y90354D01*
Y81053D02*
Y82234D01*
X79429Y91043D02*
X81791Y93405D01*
X79429Y90354D02*
Y91043D01*
X81791Y93405D02*
Y97835D01*
X79429Y81693D02*
X79971Y82234D01*
X72146Y91504D02*
X75072Y94431D01*
X80512Y104921D02*
X81201Y105610D01*
X73901Y104921D02*
Y105003D01*
X79921Y111024D01*
X72146Y81496D02*
Y90323D01*
X55905Y114961D02*
X63140Y122195D01*
X38976Y101969D02*
X48622D01*
X30709Y110236D02*
X38976Y101969D01*
X17717Y110236D02*
X30709D01*
X63140Y122195D02*
Y129774D01*
X63287Y129921D01*
X62500Y138287D02*
Y159744D01*
Y138287D02*
X73130Y127657D01*
X121063D01*
X155512Y162402D02*
X163386D01*
X79429Y72638D02*
Y80512D01*
X71850Y104921D02*
X71888Y104959D01*
X71850Y104921D02*
X73901D01*
X75072Y103750D01*
Y94431D02*
Y103750D01*
X121063Y127657D02*
Y138091D01*
X130295Y105610D02*
X130905D01*
X130217D02*
X130295D01*
X121063Y114764D02*
X130217Y105610D01*
X121063Y114764D02*
Y120374D01*
X62008Y159744D02*
X62500D01*
X69291Y171653D02*
X71850D01*
X64665Y167028D02*
X69291Y171653D01*
X62008Y167028D02*
X64665D01*
X42323D02*
X62008D01*
X42028Y167323D02*
X42323Y167028D01*
X17717Y167323D02*
X34744D01*
X145858Y217142D02*
Y228847D01*
Y217142D02*
Y217142D01*
X145669Y229035D02*
X145858Y228847D01*
X137630Y104496D02*
X137795Y104331D01*
X132020Y104496D02*
X137630D01*
X130905Y105610D02*
X132020Y104496D01*
X130295Y96831D02*
X130374Y96752D01*
X277308Y28591D02*
Y28591D01*
Y28591D02*
X277908Y27991D01*
X405905Y121260D02*
Y125591D01*
X374396Y157100D02*
X405905Y125591D01*
X439764Y109941D02*
X450264D01*
X430512D02*
X439764D01*
X430413Y109843D02*
X430512Y109941D01*
X452362Y131201D02*
X453110Y131949D01*
X453642Y133957D02*
Y192520D01*
X452362Y132677D02*
X453642Y133957D01*
X437008Y199409D02*
Y200787D01*
X432677Y195079D02*
X437008Y199409D01*
X175900Y157100D02*
X374396D01*
X432677Y185433D02*
Y195079D01*
X452362Y131201D02*
Y132677D01*
X145858Y187142D02*
X175900Y157100D01*
X43000Y237000D02*
X57000D01*
X29000D02*
X43000D01*
X85000D02*
X99000D01*
X71000D02*
X85000D01*
X57000D02*
X71000D01*
X275858Y11858D02*
Y27142D01*
X273000Y9000D02*
X275858Y11858D01*
X270000Y9000D02*
X273000D01*
X165858Y187142D02*
Y217142D01*
X99000Y237000D02*
X145000Y191000D01*
X145858Y187142D02*
Y217142D01*
D48*
X416043Y100492D02*
X417110Y101559D01*
X405905Y112205D02*
X408465Y109646D01*
X417110Y101559D02*
Y103331D01*
X423130Y109350D01*
Y109843D01*
X408465Y109646D02*
X422933D01*
X423130Y109843D01*
X429724Y200787D02*
Y201279D01*
D49*
X430315Y132677D02*
Y156201D01*
D50*
X265800Y27200D02*
D03*
X255800D02*
D03*
X265800Y92200D02*
D03*
X255800D02*
D03*
X285800Y27200D02*
D03*
X275800D02*
D03*
X285800Y92200D02*
D03*
X275800D02*
D03*
X305800Y27200D02*
D03*
X295800D02*
D03*
X305800Y92200D02*
D03*
X295800D02*
D03*
X315800D02*
D03*
X325800D02*
D03*
X315800Y27200D02*
D03*
X325800D02*
D03*
X145858Y127142D02*
D03*
X155858D02*
D03*
X165858D02*
D03*
X175858D02*
D03*
X185858D02*
D03*
X195858D02*
D03*
X205858D02*
D03*
X215858D02*
D03*
X225858D02*
D03*
X235858D02*
D03*
X245858D02*
D03*
X255858D02*
D03*
X265858D02*
D03*
X275858D02*
D03*
Y187142D02*
D03*
X265858D02*
D03*
X255858D02*
D03*
X245858D02*
D03*
X235858D02*
D03*
X225858D02*
D03*
X215858D02*
D03*
X205858D02*
D03*
X195858D02*
D03*
X185858D02*
D03*
X175858D02*
D03*
X295858Y127142D02*
D03*
X305858D02*
D03*
X315858D02*
D03*
X325858D02*
D03*
X335858D02*
D03*
X345858D02*
D03*
X355858D02*
D03*
X365858D02*
D03*
X375858D02*
D03*
Y187142D02*
D03*
X365858D02*
D03*
X355858D02*
D03*
X345858D02*
D03*
X335858D02*
D03*
X325858D02*
D03*
X315858D02*
D03*
X285858Y127142D02*
D03*
X165858Y187142D02*
D03*
X155858D02*
D03*
X145858D02*
D03*
X285858D02*
D03*
X295858D02*
D03*
X305858D02*
D03*
X17717Y100394D02*
D03*
Y110236D02*
D03*
Y157480D02*
D03*
Y167323D02*
D03*
X29000Y247000D02*
D03*
Y217000D02*
D03*
Y227000D02*
D03*
Y237000D02*
D03*
X43000Y247000D02*
D03*
Y217000D02*
D03*
Y227000D02*
D03*
Y237000D02*
D03*
X57000Y247000D02*
D03*
Y217000D02*
D03*
Y227000D02*
D03*
Y237000D02*
D03*
X71000Y247000D02*
D03*
Y217000D02*
D03*
Y227000D02*
D03*
Y237000D02*
D03*
X85000Y247000D02*
D03*
Y217000D02*
D03*
Y227000D02*
D03*
Y237000D02*
D03*
X99000Y247000D02*
D03*
Y217000D02*
D03*
Y227000D02*
D03*
Y237000D02*
D03*
X11811Y69055D02*
D03*
Y59055D02*
D03*
X155858Y217142D02*
D03*
X165858D02*
D03*
X175858D02*
D03*
X185858D02*
D03*
X225858D02*
D03*
X215858D02*
D03*
X205858D02*
D03*
X195858D02*
D03*
X265858D02*
D03*
X255858D02*
D03*
X245858D02*
D03*
X235858D02*
D03*
X305858D02*
D03*
X295858D02*
D03*
X285858D02*
D03*
X275858D02*
D03*
X345858D02*
D03*
X355858D02*
D03*
X365858D02*
D03*
X315858D02*
D03*
X325858D02*
D03*
X335858D02*
D03*
X145858D02*
D03*
D51*
X29000Y207000D02*
D03*
X43000D02*
D03*
X57000D02*
D03*
X71000D02*
D03*
X85000D02*
D03*
X99000D02*
D03*
X11811Y49055D02*
D03*
D52*
X375858Y217142D02*
D03*
D53*
X322047Y303937D02*
D03*
Y275590D02*
D03*
X417323Y273622D02*
D03*
Y301969D02*
D03*
X130878Y303642D02*
D03*
Y275295D02*
D03*
X267717Y303937D02*
D03*
Y275590D02*
D03*
D54*
X46398Y19783D02*
D03*
X86398D02*
D03*
X63898Y54783D02*
D03*
X73898D02*
D03*
X58898Y44783D02*
D03*
X68898D02*
D03*
X78898D02*
D03*
X115295Y19783D02*
D03*
X155295D02*
D03*
X132795Y54783D02*
D03*
X142795D02*
D03*
X127795Y44783D02*
D03*
X137795D02*
D03*
X147795D02*
D03*
X15748Y15748D02*
D03*
X462598Y322835D02*
D03*
X460630Y13780D02*
D03*
X13780Y322835D02*
D03*
D55*
X53898Y54783D02*
D03*
X122795D02*
D03*
D56*
X253150Y222539D02*
D03*
X129528Y192126D02*
D03*
X79921Y111024D02*
D03*
X110236Y55118D02*
D03*
X86614D02*
D03*
X98425D02*
D03*
X63779Y107087D02*
D03*
X154500Y171500D02*
D03*
X163386Y162402D02*
D03*
X137795Y104331D02*
D03*
X162992Y88583D02*
D03*
X157480D02*
D03*
X173228Y90551D02*
D03*
X169291Y110236D02*
D03*
X175197Y116142D02*
D03*
X163386Y104331D02*
D03*
X167323Y90551D02*
D03*
X184252Y109646D02*
D03*
X113189Y44193D02*
D03*
X119882Y44390D02*
D03*
X94882Y42323D02*
D03*
X89468D02*
D03*
X192913Y316929D02*
D03*
X208661D02*
D03*
X200787D02*
D03*
X196850Y312992D02*
D03*
X204724D02*
D03*
X200787Y309055D02*
D03*
X298031Y66142D02*
D03*
X208661Y282480D02*
D03*
Y289370D02*
D03*
X203740D02*
D03*
Y282480D02*
D03*
X198819D02*
D03*
X198425Y289370D02*
D03*
X193898D02*
D03*
Y282480D02*
D03*
X274803Y203543D02*
D03*
X242913D02*
D03*
X318898Y173228D02*
D03*
X263779D02*
D03*
Y141732D02*
D03*
X318898D02*
D03*
X441732Y201181D02*
D03*
X446850Y181890D02*
D03*
X442913Y182087D02*
D03*
X430315Y179134D02*
D03*
X434252Y176772D02*
D03*
X430315Y173622D02*
D03*
X438189Y174016D02*
D03*
X440945Y169291D02*
D03*
X444882Y161417D02*
D03*
X448819D02*
D03*
X464567Y208661D02*
D03*
X452756D02*
D03*
X437008D02*
D03*
X436614Y193799D02*
D03*
X440945Y185039D02*
D03*
X448819D02*
D03*
X444882D02*
D03*
X460630Y181102D02*
D03*
Y153543D02*
D03*
X421260Y145669D02*
D03*
X429134Y118110D02*
D03*
X417323Y145669D02*
D03*
X425197Y118110D02*
D03*
X433071D02*
D03*
X214961Y249606D02*
D03*
M02*
