M48
;Layer_Color=9474304
;FILE_FORMAT=2:5
INCH,TZ
;TYPE=PLATED
T1F00S00C0.01181
T2F00S00C0.03504
T3F00S00C0.03543
T4F00S00C0.04000
T5F00S00C0.04016
T6F00S00C0.17717
;TYPE=NON_PLATED
T7F00S00C0.12795
T8F00S00C0.16000
%
T01
X89468Y42323
X94882
X113189Y44193
X119882Y44390
X79921Y111024
X63779Y107087
X86614Y55118
X98425
X110236
X137795Y104331
X163386
X169291Y110236
X175197Y116142
X184252Y109646
X173228Y90551
X167323
X162992Y88583
X157480
X163386Y162402
X154500Y171500
X129528Y192126
X242913Y203543
X274803
X263779Y173228
Y141732
X318898
Y173228
X298031Y66142
X425197Y118110
X429134
X433071
X421260Y145669
X417323
X430315Y173622
Y179134
X434252Y176772
X438189Y174016
X440945Y169291
X444882Y161417
X448819
X460630Y153543
Y181102
X446850Y181890
X442913Y182087
X444882Y185039
X440945
X448819
X436614Y193799
X441732Y201181
X437008Y208661
X452756
X464567
X253150Y222539
X214961Y249606
X208661Y282480
X203740
X198819
X193898
Y289370
X198425
X203740
X208661
Y316929
X204724Y312992
X200787Y316929
X192913
X196850Y312992
X200787Y309055
T02
X127795Y44783
X137795
X147795
X78898
X68898
X58898
X53898Y54783
X63898
X73898
X122795
X132795
X142795
T03
X255800Y27200
X265800
X275800
X285800
X295800
X305800
X315800
X325800
X17717Y100394
Y110236
Y157480
Y167323
X255800Y92200
X265800
X275800
X285800
X295800
X305800
X315800
X325800
T04
X145858Y127142
X155858
X165858
X175858
X185858
X195858
X205858
X215858
X225858
X235858
Y187142
X225858
X215858
X205858
X195858
X185858
X175858
X165858
X155858
X145858
X245858
X255858
X265858
X275858
X285858
X295858
X305858
X315858
X325858
X335858
X345858
X355858
X365858
X375858
Y127142
X365858
X355858
X345858
X335858
X325858
X315858
X305858
X295858
X285858
X275858
X265858
X255858
X245858
T05
X11811Y49055
Y59055
Y69055
X29000Y207000
X43000
X57000
X71000
X85000
X99000
X245858Y217142
X255858
X265858
X275858
X285858
X295858
X305858
X315858
X325858
X335858
X345858
X355858
X365858
X375858
X235858
X225858
X215858
X205858
X195858
X185858
X175858
X165858
X155858
X145858
X99000Y217000
Y227000
Y237000
Y247000
X85000
Y237000
Y227000
Y217000
X71000
Y227000
Y237000
Y247000
X57000
Y237000
Y227000
Y217000
X43000
Y227000
Y237000
Y247000
X29000
Y237000
Y227000
Y217000
T06
X417323Y273622
Y301969
X322047Y303937
Y275590
X267717
Y303937
X130878Y303642
Y275295
T07
X86398Y19783
X115295
X155295
X46398
T08
X460630Y13780
X15748Y15748
X462598Y322835
X13780
M30
