G04*
G04 #@! TF.GenerationSoftware,Altium Limited,Altium Designer,20.0.12 (288)*
G04*
G04 Layer_Color=65535*
%FSLAX25Y25*%
%MOIN*%
G70*
G01*
G75*
%ADD10C,0.01000*%
%ADD11C,0.00984*%
%ADD12C,0.02362*%
%ADD13C,0.00787*%
%ADD14C,0.00799*%
G36*
X61897Y312592D02*
X75049Y307038D01*
X60143Y309377D01*
X54590Y318729D01*
X61897Y312592D01*
D02*
G37*
G36*
X58097Y307038D02*
X79433Y303531D01*
X53421D01*
X51083Y317853D01*
X58097Y307038D01*
D02*
G37*
G36*
X51083Y302362D02*
X49475Y293302D01*
X47868Y302362D01*
X49475Y311423D01*
X51083Y302362D01*
D02*
G37*
G36*
X58097Y297686D02*
X51083Y286872D01*
X53421Y301193D01*
X79579D01*
X58097Y297686D01*
D02*
G37*
G36*
X61897Y292133D02*
X54590Y285995D01*
X60143Y295348D01*
X75049Y297686D01*
X61897Y292133D01*
D02*
G37*
G36*
X97113Y326038D02*
X97104Y326029D01*
X97086Y325992D01*
X97058Y325936D01*
X97030Y325862D01*
X97002Y325779D01*
X96975Y325677D01*
X96956Y325576D01*
X96947Y325474D01*
Y325428D01*
X96956Y325381D01*
X96965Y325317D01*
X96984Y325252D01*
X97012Y325169D01*
X97049Y325085D01*
X97104Y325011D01*
X97113Y325002D01*
X97132Y324974D01*
X97169Y324947D01*
X97215Y324900D01*
X97280Y324854D01*
X97354Y324808D01*
X97437Y324762D01*
X97539Y324725D01*
X97557Y324715D01*
X97613Y324706D01*
X97696Y324688D01*
X97807Y324660D01*
X97946Y324632D01*
X98103Y324614D01*
X98270Y324604D01*
X98455Y324595D01*
X100878D01*
Y323809D01*
X96235D01*
Y324521D01*
X96938D01*
X96928Y324530D01*
X96864Y324567D01*
X96780Y324614D01*
X96679Y324688D01*
X96577Y324762D01*
X96466Y324845D01*
X96373Y324928D01*
X96299Y325011D01*
X96290Y325021D01*
X96272Y325048D01*
X96244Y325104D01*
X96216Y325159D01*
X96188Y325233D01*
X96161Y325326D01*
X96142Y325418D01*
X96133Y325520D01*
Y325585D01*
X96142Y325668D01*
X96161Y325770D01*
X96198Y325890D01*
X96244Y326020D01*
X96309Y326168D01*
X96392Y326325D01*
X97113Y326038D01*
D02*
G37*
G36*
X98760Y322847D02*
Y319378D01*
X98769D01*
X98797D01*
X98834Y319387D01*
X98889D01*
X98954Y319397D01*
X99028Y319415D01*
X99195Y319443D01*
X99380Y319498D01*
X99583Y319572D01*
X99768Y319674D01*
X99935Y319804D01*
Y319813D01*
X99953Y319822D01*
X99999Y319878D01*
X100064Y319961D01*
X100129Y320072D01*
X100203Y320220D01*
X100268Y320386D01*
X100314Y320571D01*
X100323Y320673D01*
X100332Y320784D01*
Y320858D01*
X100323Y320941D01*
X100305Y321043D01*
X100277Y321154D01*
X100240Y321284D01*
X100184Y321404D01*
X100110Y321524D01*
X100101Y321533D01*
X100064Y321580D01*
X100009Y321635D01*
X99935Y321700D01*
X99833Y321774D01*
X99703Y321857D01*
X99555Y321940D01*
X99380Y322014D01*
X99481Y322828D01*
X99491D01*
X99509Y322819D01*
X99546Y322810D01*
X99602Y322791D01*
X99657Y322764D01*
X99731Y322736D01*
X99888Y322662D01*
X100064Y322569D01*
X100249Y322440D01*
X100425Y322292D01*
X100591Y322107D01*
Y322098D01*
X100610Y322079D01*
X100628Y322051D01*
X100656Y322014D01*
X100684Y321959D01*
X100712Y321903D01*
X100749Y321829D01*
X100786Y321746D01*
X100823Y321654D01*
X100860Y321561D01*
X100915Y321330D01*
X100961Y321071D01*
X100980Y320784D01*
Y320682D01*
X100971Y320618D01*
X100961Y320534D01*
X100943Y320433D01*
X100924Y320322D01*
X100906Y320201D01*
X100832Y319942D01*
X100776Y319804D01*
X100721Y319674D01*
X100647Y319535D01*
X100564Y319406D01*
X100471Y319286D01*
X100360Y319165D01*
X100351Y319156D01*
X100332Y319138D01*
X100295Y319110D01*
X100240Y319073D01*
X100175Y319027D01*
X100101Y318980D01*
X100009Y318925D01*
X99907Y318869D01*
X99787Y318814D01*
X99657Y318758D01*
X99509Y318712D01*
X99352Y318666D01*
X99185Y318629D01*
X99000Y318601D01*
X98806Y318583D01*
X98603Y318573D01*
X98593D01*
X98547D01*
X98492D01*
X98408Y318583D01*
X98307Y318592D01*
X98196Y318601D01*
X98066Y318620D01*
X97937Y318647D01*
X97641Y318721D01*
X97493Y318768D01*
X97335Y318823D01*
X97187Y318897D01*
X97049Y318980D01*
X96910Y319073D01*
X96780Y319175D01*
X96771Y319184D01*
X96753Y319202D01*
X96725Y319239D01*
X96679Y319286D01*
X96632Y319341D01*
X96577Y319415D01*
X96512Y319498D01*
X96457Y319600D01*
X96392Y319702D01*
X96336Y319822D01*
X96281Y319952D01*
X96235Y320090D01*
X96188Y320238D01*
X96161Y320396D01*
X96142Y320562D01*
X96133Y320738D01*
Y320830D01*
X96142Y320895D01*
X96151Y320969D01*
X96170Y321062D01*
X96188Y321163D01*
X96216Y321284D01*
X96244Y321395D01*
X96290Y321524D01*
X96336Y321644D01*
X96401Y321774D01*
X96475Y321903D01*
X96558Y322033D01*
X96660Y322153D01*
X96771Y322264D01*
X96780Y322273D01*
X96799Y322292D01*
X96836Y322320D01*
X96891Y322357D01*
X96956Y322403D01*
X97030Y322449D01*
X97123Y322505D01*
X97234Y322560D01*
X97354Y322616D01*
X97483Y322671D01*
X97631Y322717D01*
X97789Y322764D01*
X97964Y322801D01*
X98149Y322828D01*
X98344Y322847D01*
X98556Y322856D01*
X98566D01*
X98603D01*
X98667D01*
X98760Y322847D01*
D02*
G37*
G36*
X100878Y318148D02*
X100887Y318111D01*
X100897Y318046D01*
X100906Y317963D01*
X100924Y317870D01*
X100934Y317769D01*
X100943Y317565D01*
Y317491D01*
X100934Y317417D01*
X100924Y317325D01*
X100915Y317214D01*
X100887Y317103D01*
X100860Y317001D01*
X100813Y316899D01*
X100804Y316890D01*
X100786Y316862D01*
X100758Y316825D01*
X100712Y316770D01*
X100665Y316723D01*
X100601Y316668D01*
X100536Y316612D01*
X100453Y316575D01*
X100443D01*
X100406Y316557D01*
X100342Y316548D01*
X100249Y316529D01*
X100129Y316511D01*
X100055Y316501D01*
X99972D01*
X99870Y316492D01*
X99768Y316483D01*
X99657D01*
X99528D01*
X96845D01*
Y315900D01*
X96235D01*
Y316483D01*
X95088D01*
X94616Y317269D01*
X96235D01*
Y318065D01*
X96845D01*
Y317269D01*
X99574D01*
X99592D01*
X99629D01*
X99685D01*
X99750Y317278D01*
X99898Y317288D01*
X99962Y317297D01*
X100009Y317306D01*
X100027Y317315D01*
X100064Y317343D01*
X100110Y317380D01*
X100157Y317445D01*
X100166Y317463D01*
X100184Y317510D01*
X100203Y317593D01*
X100212Y317713D01*
Y317806D01*
X100203Y317852D01*
Y317917D01*
X100194Y317991D01*
X100184Y318065D01*
X100878Y318166D01*
Y318148D01*
D02*
G37*
G36*
X93086Y314896D02*
X86685D01*
Y315747D01*
X92327D01*
Y318902D01*
X93086D01*
Y314896D01*
D02*
G37*
G36*
X100878Y314355D02*
X97937D01*
X97927D01*
X97909D01*
X97881D01*
X97844D01*
X97742Y314346D01*
X97613Y314328D01*
X97474Y314291D01*
X97335Y314244D01*
X97197Y314180D01*
X97086Y314096D01*
X97076Y314087D01*
X97039Y314050D01*
X96993Y313995D01*
X96947Y313911D01*
X96891Y313810D01*
X96854Y313689D01*
X96817Y313541D01*
X96808Y313375D01*
Y313319D01*
X96817Y313255D01*
X96827Y313162D01*
X96854Y313070D01*
X96882Y312959D01*
X96928Y312848D01*
X96993Y312727D01*
X97002Y312718D01*
X97030Y312681D01*
X97067Y312626D01*
X97123Y312561D01*
X97197Y312487D01*
X97280Y312413D01*
X97382Y312348D01*
X97493Y312293D01*
X97511Y312283D01*
X97548Y312274D01*
X97622Y312256D01*
X97715Y312228D01*
X97835Y312200D01*
X97983Y312182D01*
X98149Y312172D01*
X98344Y312163D01*
X100878D01*
Y311377D01*
X94477D01*
Y312163D01*
X96771D01*
X96762Y312172D01*
X96743Y312191D01*
X96716Y312219D01*
X96669Y312265D01*
X96623Y312311D01*
X96568Y312376D01*
X96512Y312459D01*
X96447Y312542D01*
X96392Y312635D01*
X96336Y312737D01*
X96235Y312977D01*
X96188Y313107D01*
X96161Y313245D01*
X96142Y313393D01*
X96133Y313541D01*
Y313625D01*
X96142Y313726D01*
X96161Y313847D01*
X96179Y313985D01*
X96216Y314133D01*
X96272Y314281D01*
X96336Y314429D01*
X96346Y314448D01*
X96373Y314494D01*
X96420Y314559D01*
X96484Y314642D01*
X96568Y314725D01*
X96660Y314818D01*
X96771Y314901D01*
X96901Y314975D01*
X96919Y314984D01*
X96965Y315003D01*
X97049Y315031D01*
X97169Y315058D01*
X97317Y315086D01*
X97493Y315114D01*
X97705Y315132D01*
X97946Y315142D01*
X100878D01*
Y314355D01*
D02*
G37*
G36*
X92207Y313675D02*
X92216Y313657D01*
X92244Y313620D01*
X92281Y313574D01*
X92318Y313518D01*
X92365Y313454D01*
X92420Y313370D01*
X92475Y313287D01*
X92596Y313093D01*
X92725Y312871D01*
X92845Y312639D01*
X92947Y312390D01*
Y312381D01*
X92957Y312362D01*
X92966Y312325D01*
X92984Y312279D01*
X93003Y312214D01*
X93031Y312140D01*
X93049Y312057D01*
X93068Y311974D01*
X93114Y311770D01*
X93160Y311539D01*
X93188Y311289D01*
X93197Y311030D01*
Y310938D01*
X93188Y310873D01*
Y310789D01*
X93178Y310688D01*
X93160Y310577D01*
X93151Y310456D01*
X93095Y310188D01*
X93031Y309901D01*
X92929Y309606D01*
X92873Y309457D01*
X92799Y309310D01*
X92790Y309300D01*
X92781Y309273D01*
X92753Y309236D01*
X92725Y309180D01*
X92679Y309115D01*
X92633Y309050D01*
X92503Y308875D01*
X92337Y308690D01*
X92133Y308495D01*
X91902Y308311D01*
X91634Y308144D01*
X91624D01*
X91597Y308125D01*
X91560Y308107D01*
X91495Y308079D01*
X91430Y308051D01*
X91338Y308024D01*
X91245Y307987D01*
X91134Y307950D01*
X91014Y307913D01*
X90875Y307876D01*
X90737Y307848D01*
X90588Y307820D01*
X90265Y307774D01*
X89922Y307755D01*
X89913D01*
X89876D01*
X89830D01*
X89765Y307765D01*
X89682D01*
X89580Y307774D01*
X89478Y307792D01*
X89358Y307802D01*
X89229Y307829D01*
X89090Y307848D01*
X88794Y307922D01*
X88489Y308014D01*
X88183Y308144D01*
X88174Y308153D01*
X88147Y308162D01*
X88109Y308181D01*
X88054Y308218D01*
X87980Y308255D01*
X87906Y308301D01*
X87730Y308431D01*
X87527Y308588D01*
X87332Y308782D01*
X87138Y309004D01*
X87055Y309134D01*
X86972Y309263D01*
X86962Y309273D01*
X86953Y309300D01*
X86935Y309337D01*
X86907Y309393D01*
X86879Y309467D01*
X86842Y309550D01*
X86805Y309643D01*
X86768Y309753D01*
X86731Y309874D01*
X86703Y310003D01*
X86667Y310142D01*
X86639Y310290D01*
X86593Y310614D01*
X86574Y310780D01*
Y311076D01*
X86583Y311132D01*
Y311206D01*
X86602Y311382D01*
X86629Y311576D01*
X86676Y311779D01*
X86731Y312001D01*
X86805Y312214D01*
Y312223D01*
X86814Y312242D01*
X86824Y312269D01*
X86842Y312306D01*
X86898Y312408D01*
X86962Y312538D01*
X87055Y312677D01*
X87166Y312825D01*
X87286Y312963D01*
X87434Y313093D01*
X87453Y313111D01*
X87508Y313148D01*
X87591Y313204D01*
X87712Y313278D01*
X87860Y313352D01*
X88045Y313435D01*
X88248Y313518D01*
X88480Y313583D01*
X88683Y312815D01*
X88674D01*
X88665Y312806D01*
X88637Y312797D01*
X88600Y312788D01*
X88516Y312760D01*
X88406Y312723D01*
X88276Y312667D01*
X88156Y312602D01*
X88026Y312538D01*
X87915Y312455D01*
X87906Y312445D01*
X87869Y312418D01*
X87823Y312362D01*
X87758Y312297D01*
X87684Y312214D01*
X87610Y312103D01*
X87536Y311983D01*
X87471Y311844D01*
X87462Y311825D01*
X87444Y311779D01*
X87416Y311696D01*
X87379Y311585D01*
X87351Y311455D01*
X87323Y311308D01*
X87305Y311141D01*
X87296Y310965D01*
Y310863D01*
X87305Y310817D01*
Y310762D01*
X87314Y310623D01*
X87342Y310466D01*
X87370Y310290D01*
X87416Y310123D01*
X87480Y309957D01*
X87490Y309939D01*
X87508Y309883D01*
X87555Y309809D01*
X87601Y309717D01*
X87675Y309606D01*
X87749Y309485D01*
X87841Y309374D01*
X87943Y309273D01*
X87952Y309263D01*
X87989Y309226D01*
X88054Y309180D01*
X88128Y309124D01*
X88221Y309060D01*
X88332Y308995D01*
X88452Y308930D01*
X88581Y308865D01*
X88591D01*
X88609Y308856D01*
X88637Y308847D01*
X88683Y308828D01*
X88739Y308810D01*
X88803Y308791D01*
X88877Y308764D01*
X88960Y308745D01*
X89155Y308699D01*
X89377Y308662D01*
X89608Y308634D01*
X89867Y308625D01*
X89876D01*
X89904D01*
X89950D01*
X90006Y308634D01*
X90080D01*
X90172Y308644D01*
X90265Y308653D01*
X90367Y308662D01*
X90598Y308699D01*
X90838Y308745D01*
X91079Y308819D01*
X91310Y308912D01*
X91319D01*
X91338Y308930D01*
X91365Y308940D01*
X91403Y308967D01*
X91504Y309032D01*
X91634Y309134D01*
X91773Y309254D01*
X91911Y309402D01*
X92041Y309578D01*
X92161Y309772D01*
Y309781D01*
X92170Y309800D01*
X92189Y309827D01*
X92207Y309874D01*
X92226Y309920D01*
X92244Y309985D01*
X92300Y310133D01*
X92346Y310318D01*
X92392Y310521D01*
X92429Y310743D01*
X92439Y310975D01*
Y311067D01*
X92429Y311122D01*
Y311178D01*
X92411Y311317D01*
X92392Y311483D01*
X92355Y311659D01*
X92300Y311853D01*
X92235Y312048D01*
Y312057D01*
X92226Y312075D01*
X92216Y312094D01*
X92198Y312131D01*
X92152Y312232D01*
X92096Y312344D01*
X92032Y312473D01*
X91957Y312612D01*
X91874Y312741D01*
X91782Y312852D01*
X90579D01*
Y310965D01*
X89821D01*
Y313685D01*
X92198D01*
X92207Y313675D01*
D02*
G37*
G36*
X100508Y310174D02*
X100610D01*
X100721Y310165D01*
X100841Y310156D01*
X101091Y310128D01*
X101350Y310091D01*
X101470Y310063D01*
X101581Y310036D01*
X101683Y309999D01*
X101775Y309962D01*
X101785D01*
X101794Y309952D01*
X101849Y309915D01*
X101933Y309869D01*
X102034Y309795D01*
X102145Y309693D01*
X102266Y309573D01*
X102386Y309425D01*
X102488Y309259D01*
Y309249D01*
X102497Y309240D01*
X102515Y309212D01*
X102525Y309175D01*
X102552Y309129D01*
X102571Y309074D01*
X102617Y308935D01*
X102673Y308768D01*
X102710Y308565D01*
X102747Y308334D01*
X102756Y308084D01*
Y308001D01*
X102747Y307945D01*
Y307871D01*
X102737Y307797D01*
X102728Y307705D01*
X102710Y307603D01*
X102663Y307390D01*
X102599Y307168D01*
X102506Y306946D01*
X102377Y306743D01*
X102367Y306733D01*
X102358Y306724D01*
X102303Y306659D01*
X102219Y306585D01*
X102099Y306493D01*
X101942Y306400D01*
X101748Y306317D01*
X101637Y306289D01*
X101516Y306271D01*
X101396Y306252D01*
X101257D01*
X101359Y307020D01*
X101378D01*
X101415Y307029D01*
X101479Y307048D01*
X101563Y307066D01*
X101646Y307103D01*
X101729Y307150D01*
X101812Y307205D01*
X101877Y307279D01*
X101886Y307298D01*
X101914Y307335D01*
X101951Y307399D01*
X101988Y307492D01*
X102034Y307603D01*
X102071Y307742D01*
X102099Y307908D01*
X102108Y308084D01*
Y308176D01*
X102099Y308269D01*
X102081Y308398D01*
X102053Y308528D01*
X102016Y308667D01*
X101960Y308805D01*
X101886Y308926D01*
X101877Y308935D01*
X101849Y308972D01*
X101794Y309027D01*
X101729Y309092D01*
X101637Y309157D01*
X101535Y309222D01*
X101415Y309286D01*
X101276Y309333D01*
X101267D01*
X101230Y309342D01*
X101156Y309351D01*
X101063Y309360D01*
X100998Y309370D01*
X100924D01*
X100841Y309379D01*
X100749D01*
X100647D01*
X100527Y309388D01*
X100406D01*
X100268D01*
X100277Y309379D01*
X100295Y309360D01*
X100323Y309333D01*
X100360Y309296D01*
X100406Y309249D01*
X100462Y309185D01*
X100517Y309111D01*
X100573Y309037D01*
X100684Y308842D01*
X100786Y308630D01*
X100823Y308509D01*
X100850Y308380D01*
X100869Y308241D01*
X100878Y308102D01*
Y308056D01*
X100869Y308010D01*
Y307945D01*
X100860Y307862D01*
X100841Y307769D01*
X100823Y307668D01*
X100795Y307557D01*
X100758Y307436D01*
X100712Y307316D01*
X100656Y307196D01*
X100591Y307066D01*
X100508Y306946D01*
X100416Y306826D01*
X100314Y306715D01*
X100194Y306613D01*
X100184Y306604D01*
X100166Y306595D01*
X100120Y306567D01*
X100073Y306530D01*
X99999Y306493D01*
X99925Y306447D01*
X99833Y306400D01*
X99722Y306354D01*
X99611Y306308D01*
X99481Y306262D01*
X99352Y306215D01*
X99204Y306178D01*
X98889Y306114D01*
X98714Y306104D01*
X98538Y306095D01*
X98529D01*
X98510D01*
X98473D01*
X98427D01*
X98362Y306104D01*
X98297D01*
X98131Y306123D01*
X97946Y306151D01*
X97742Y306197D01*
X97530Y306252D01*
X97317Y306336D01*
X97308D01*
X97289Y306345D01*
X97261Y306363D01*
X97224Y306382D01*
X97123Y306437D01*
X96993Y306511D01*
X96854Y306613D01*
X96716Y306733D01*
X96568Y306872D01*
X96447Y307029D01*
Y307039D01*
X96438Y307048D01*
X96420Y307076D01*
X96401Y307113D01*
X96346Y307205D01*
X96290Y307335D01*
X96235Y307492D01*
X96179Y307677D01*
X96142Y307880D01*
X96133Y308102D01*
Y308186D01*
X96142Y308241D01*
X96151Y308306D01*
X96170Y308389D01*
X96188Y308482D01*
X96216Y308583D01*
X96253Y308685D01*
X96299Y308796D01*
X96355Y308907D01*
X96420Y309027D01*
X96494Y309138D01*
X96586Y309249D01*
X96688Y309360D01*
X96808Y309462D01*
X96235D01*
Y310184D01*
X100249D01*
X100258D01*
X100295D01*
X100351D01*
X100425D01*
X100508Y310174D01*
D02*
G37*
G36*
X100878Y304412D02*
X96235D01*
Y305198D01*
X100878D01*
Y304412D01*
D02*
G37*
G36*
X95374D02*
X94477D01*
Y305198D01*
X95374D01*
Y304412D01*
D02*
G37*
G36*
X95236Y299935D02*
X97215D01*
Y302941D01*
X97974D01*
Y299935D01*
X100878D01*
Y299084D01*
X94477D01*
Y303413D01*
X95236D01*
Y299935D01*
D02*
G37*
G36*
X93086Y302224D02*
Y301336D01*
X86685Y298857D01*
Y299782D01*
X91338Y301447D01*
X91347D01*
X91365Y301456D01*
X91393Y301466D01*
X91430Y301484D01*
X91486Y301493D01*
X91541Y301512D01*
X91680Y301558D01*
X91837Y301613D01*
X92013Y301669D01*
X92383Y301780D01*
X92374D01*
X92355Y301789D01*
X92327Y301799D01*
X92291Y301808D01*
X92189Y301835D01*
X92050Y301882D01*
X91893Y301928D01*
X91717Y301983D01*
X91532Y302048D01*
X91338Y302122D01*
X86685Y303861D01*
Y304721D01*
X93086Y302224D01*
D02*
G37*
G36*
X100878Y294449D02*
X94477D01*
Y295236D01*
X100878D01*
Y294449D01*
D02*
G37*
G36*
X93086Y297220D02*
X88063Y293871D01*
X93086D01*
Y293057D01*
X86685D01*
Y293927D01*
X91717Y297285D01*
X86685D01*
Y298098D01*
X93086D01*
Y297220D01*
D02*
G37*
G36*
X98760Y293497D02*
Y290028D01*
X98769D01*
X98797D01*
X98834Y290037D01*
X98889D01*
X98954Y290046D01*
X99028Y290065D01*
X99195Y290093D01*
X99380Y290148D01*
X99583Y290222D01*
X99768Y290324D01*
X99935Y290453D01*
Y290463D01*
X99953Y290472D01*
X99999Y290527D01*
X100064Y290611D01*
X100129Y290722D01*
X100203Y290870D01*
X100268Y291036D01*
X100314Y291221D01*
X100323Y291323D01*
X100332Y291434D01*
Y291508D01*
X100323Y291591D01*
X100305Y291693D01*
X100277Y291804D01*
X100240Y291933D01*
X100184Y292054D01*
X100110Y292174D01*
X100101Y292183D01*
X100064Y292229D01*
X100009Y292285D01*
X99935Y292350D01*
X99833Y292424D01*
X99703Y292507D01*
X99555Y292590D01*
X99380Y292664D01*
X99481Y293478D01*
X99491D01*
X99509Y293469D01*
X99546Y293460D01*
X99602Y293441D01*
X99657Y293413D01*
X99731Y293386D01*
X99888Y293312D01*
X100064Y293219D01*
X100249Y293090D01*
X100425Y292942D01*
X100591Y292757D01*
Y292747D01*
X100610Y292729D01*
X100628Y292701D01*
X100656Y292664D01*
X100684Y292609D01*
X100712Y292553D01*
X100749Y292479D01*
X100786Y292396D01*
X100823Y292303D01*
X100860Y292211D01*
X100915Y291980D01*
X100961Y291721D01*
X100980Y291434D01*
Y291332D01*
X100971Y291267D01*
X100961Y291184D01*
X100943Y291082D01*
X100924Y290971D01*
X100906Y290851D01*
X100832Y290592D01*
X100776Y290453D01*
X100721Y290324D01*
X100647Y290185D01*
X100564Y290056D01*
X100471Y289935D01*
X100360Y289815D01*
X100351Y289806D01*
X100332Y289787D01*
X100295Y289760D01*
X100240Y289723D01*
X100175Y289676D01*
X100101Y289630D01*
X100009Y289575D01*
X99907Y289519D01*
X99787Y289464D01*
X99657Y289408D01*
X99509Y289362D01*
X99352Y289316D01*
X99185Y289279D01*
X99000Y289251D01*
X98806Y289232D01*
X98603Y289223D01*
X98593D01*
X98547D01*
X98492D01*
X98408Y289232D01*
X98307Y289242D01*
X98196Y289251D01*
X98066Y289269D01*
X97937Y289297D01*
X97641Y289371D01*
X97493Y289417D01*
X97335Y289473D01*
X97187Y289547D01*
X97049Y289630D01*
X96910Y289723D01*
X96780Y289824D01*
X96771Y289834D01*
X96753Y289852D01*
X96725Y289889D01*
X96679Y289935D01*
X96632Y289991D01*
X96577Y290065D01*
X96512Y290148D01*
X96457Y290250D01*
X96392Y290352D01*
X96336Y290472D01*
X96281Y290601D01*
X96235Y290740D01*
X96188Y290888D01*
X96161Y291045D01*
X96142Y291212D01*
X96133Y291388D01*
Y291480D01*
X96142Y291545D01*
X96151Y291619D01*
X96170Y291711D01*
X96188Y291813D01*
X96216Y291933D01*
X96244Y292044D01*
X96290Y292174D01*
X96336Y292294D01*
X96401Y292424D01*
X96475Y292553D01*
X96558Y292683D01*
X96660Y292803D01*
X96771Y292914D01*
X96780Y292923D01*
X96799Y292942D01*
X96836Y292969D01*
X96891Y293006D01*
X96956Y293053D01*
X97030Y293099D01*
X97123Y293154D01*
X97234Y293210D01*
X97354Y293265D01*
X97483Y293321D01*
X97631Y293367D01*
X97789Y293413D01*
X97964Y293450D01*
X98149Y293478D01*
X98344Y293497D01*
X98556Y293506D01*
X98566D01*
X98603D01*
X98667D01*
X98760Y293497D01*
D02*
G37*
G36*
X90043Y291892D02*
X90117D01*
X90293Y291882D01*
X90496Y291855D01*
X90709Y291827D01*
X90931Y291781D01*
X91153Y291725D01*
X91162D01*
X91180Y291716D01*
X91208Y291707D01*
X91245Y291698D01*
X91347Y291660D01*
X91477Y291605D01*
X91624Y291549D01*
X91773Y291476D01*
X91930Y291383D01*
X92078Y291290D01*
X92096Y291281D01*
X92142Y291244D01*
X92207Y291189D01*
X92291Y291115D01*
X92383Y291032D01*
X92475Y290930D01*
X92577Y290828D01*
X92660Y290708D01*
X92670Y290689D01*
X92698Y290652D01*
X92734Y290587D01*
X92781Y290495D01*
X92836Y290384D01*
X92883Y290254D01*
X92938Y290107D01*
X92984Y289940D01*
Y289921D01*
X92993Y289894D01*
X93003Y289866D01*
X93012Y289774D01*
X93031Y289644D01*
X93049Y289496D01*
X93068Y289320D01*
X93077Y289126D01*
X93086Y288913D01*
Y286610D01*
X86685D01*
Y289071D01*
X86694Y289237D01*
X86703Y289422D01*
X86722Y289607D01*
X86750Y289792D01*
X86778Y289949D01*
Y289959D01*
X86787Y289977D01*
Y290005D01*
X86805Y290042D01*
X86833Y290143D01*
X86879Y290273D01*
X86944Y290421D01*
X87027Y290578D01*
X87120Y290736D01*
X87240Y290883D01*
X87249Y290893D01*
X87258Y290902D01*
X87286Y290930D01*
X87314Y290967D01*
X87406Y291059D01*
X87536Y291170D01*
X87693Y291290D01*
X87878Y291420D01*
X88091Y291540D01*
X88332Y291642D01*
X88341D01*
X88359Y291651D01*
X88396Y291670D01*
X88452Y291679D01*
X88516Y291707D01*
X88591Y291725D01*
X88674Y291744D01*
X88775Y291772D01*
X88877Y291799D01*
X88998Y291818D01*
X89257Y291864D01*
X89543Y291892D01*
X89858Y291901D01*
X89867D01*
X89885D01*
X89932D01*
X89978D01*
X90043Y291892D01*
D02*
G37*
G36*
X100878Y287558D02*
X100203D01*
X100212Y287549D01*
X100240Y287530D01*
X100277Y287503D01*
X100323Y287456D01*
X100379Y287401D01*
X100453Y287336D01*
X100517Y287262D01*
X100591Y287170D01*
X100665Y287068D01*
X100730Y286957D01*
X100795Y286837D01*
X100860Y286707D01*
X100906Y286559D01*
X100943Y286411D01*
X100971Y286245D01*
X100980Y286078D01*
Y286013D01*
X100971Y285930D01*
X100961Y285828D01*
X100943Y285708D01*
X100915Y285579D01*
X100878Y285449D01*
X100823Y285310D01*
X100813Y285292D01*
X100795Y285255D01*
X100758Y285190D01*
X100712Y285116D01*
X100656Y285024D01*
X100591Y284940D01*
X100517Y284857D01*
X100434Y284783D01*
X100425Y284774D01*
X100388Y284755D01*
X100342Y284728D01*
X100268Y284691D01*
X100184Y284644D01*
X100083Y284607D01*
X99972Y284570D01*
X99851Y284543D01*
X99842D01*
X99805Y284533D01*
X99750Y284524D01*
X99676D01*
X99565Y284515D01*
X99444Y284506D01*
X99287Y284496D01*
X99111D01*
X96235D01*
Y285283D01*
X98815D01*
X98825D01*
X98843D01*
X98871D01*
X98917D01*
X99019D01*
X99148Y285292D01*
X99287D01*
X99426Y285301D01*
X99546Y285310D01*
X99648Y285329D01*
X99657D01*
X99694Y285347D01*
X99750Y285366D01*
X99824Y285394D01*
X99898Y285440D01*
X99981Y285495D01*
X100055Y285560D01*
X100129Y285643D01*
X100138Y285653D01*
X100157Y285690D01*
X100184Y285736D01*
X100212Y285810D01*
X100249Y285893D01*
X100277Y285995D01*
X100295Y286106D01*
X100305Y286235D01*
Y286300D01*
X100295Y286365D01*
X100286Y286448D01*
X100258Y286550D01*
X100231Y286661D01*
X100184Y286781D01*
X100129Y286901D01*
X100120Y286920D01*
X100092Y286957D01*
X100055Y287012D01*
X99999Y287077D01*
X99925Y287151D01*
X99842Y287225D01*
X99750Y287290D01*
X99639Y287345D01*
X99620Y287355D01*
X99583Y287364D01*
X99509Y287382D01*
X99407Y287410D01*
X99278Y287438D01*
X99121Y287456D01*
X98936Y287466D01*
X98723Y287475D01*
X96235D01*
Y288261D01*
X100878D01*
Y287558D01*
D02*
G37*
G36*
X95236Y280038D02*
X97215D01*
Y283044D01*
X97974D01*
Y280038D01*
X100878D01*
Y279187D01*
X94477D01*
Y283516D01*
X95236D01*
Y280038D01*
D02*
G37*
G36*
X34928Y323618D02*
X35039D01*
X35159Y323608D01*
X35289Y323599D01*
X35585Y323571D01*
X35890Y323525D01*
X36186Y323470D01*
X36325Y323433D01*
X36463Y323386D01*
X36472D01*
X36491Y323377D01*
X36528Y323359D01*
X36574Y323340D01*
X36639Y323322D01*
X36704Y323285D01*
X36861Y323211D01*
X37027Y323118D01*
X37212Y322998D01*
X37379Y322859D01*
X37536Y322693D01*
Y322683D01*
X37555Y322674D01*
X37573Y322646D01*
X37592Y322609D01*
X37620Y322563D01*
X37657Y322517D01*
X37721Y322378D01*
X37786Y322212D01*
X37851Y322017D01*
X37888Y321786D01*
X37906Y321536D01*
Y321444D01*
X37897Y321379D01*
X37888Y321305D01*
X37869Y321213D01*
X37851Y321111D01*
X37823Y321000D01*
X37786Y320889D01*
X37749Y320769D01*
X37694Y320648D01*
X37629Y320528D01*
X37555Y320408D01*
X37462Y320288D01*
X37361Y320177D01*
X37249Y320075D01*
X37240Y320066D01*
X37212Y320047D01*
X37166Y320019D01*
X37092Y319973D01*
X37009Y319927D01*
X36898Y319881D01*
X36768Y319816D01*
X36621Y319760D01*
X36454Y319705D01*
X36260Y319649D01*
X36047Y319594D01*
X35807Y319548D01*
X35548Y319501D01*
X35270Y319474D01*
X34965Y319455D01*
X34641Y319446D01*
X34632D01*
X34595D01*
X34530D01*
X34456D01*
X34354Y319455D01*
X34243D01*
X34123Y319464D01*
X33984Y319474D01*
X33698Y319501D01*
X33392Y319548D01*
X33087Y319603D01*
X32948Y319640D01*
X32809Y319677D01*
X32800D01*
X32782Y319686D01*
X32745Y319705D01*
X32699Y319723D01*
X32634Y319742D01*
X32569Y319779D01*
X32412Y319853D01*
X32245Y319945D01*
X32070Y320066D01*
X31894Y320204D01*
X31746Y320371D01*
Y320380D01*
X31727Y320389D01*
X31709Y320417D01*
X31690Y320454D01*
X31653Y320500D01*
X31626Y320556D01*
X31552Y320695D01*
X31487Y320861D01*
X31422Y321055D01*
X31385Y321287D01*
X31367Y321536D01*
Y321620D01*
X31376Y321721D01*
X31394Y321842D01*
X31422Y321980D01*
X31459Y322128D01*
X31505Y322286D01*
X31579Y322434D01*
Y322443D01*
X31589Y322452D01*
X31616Y322498D01*
X31662Y322572D01*
X31727Y322665D01*
X31820Y322767D01*
X31921Y322878D01*
X32042Y322979D01*
X32181Y323081D01*
X32199Y323090D01*
X32245Y323127D01*
X32329Y323164D01*
X32449Y323229D01*
X32588Y323285D01*
X32745Y323359D01*
X32930Y323423D01*
X33133Y323479D01*
X33143D01*
X33161Y323488D01*
X33189Y323497D01*
X33235Y323507D01*
X33290Y323516D01*
X33355Y323525D01*
X33439Y323544D01*
X33531Y323553D01*
X33633Y323571D01*
X33744Y323581D01*
X33873Y323590D01*
X34003Y323608D01*
X34151Y323618D01*
X34299D01*
X34465Y323627D01*
X34641D01*
X34650D01*
X34687D01*
X34752D01*
X34826D01*
X34928Y323618D01*
D02*
G37*
G36*
X37795Y314358D02*
X37786D01*
X37749D01*
X37694D01*
X37620Y314368D01*
X37536Y314377D01*
X37444Y314395D01*
X37351Y314414D01*
X37249Y314451D01*
X37240D01*
X37231Y314460D01*
X37176Y314479D01*
X37092Y314516D01*
X36981Y314571D01*
X36852Y314645D01*
X36704Y314738D01*
X36556Y314839D01*
X36399Y314969D01*
X36389D01*
X36380Y314987D01*
X36325Y315034D01*
X36241Y315117D01*
X36121Y315237D01*
X35982Y315376D01*
X35816Y315552D01*
X35631Y315764D01*
X35436Y315996D01*
X35427Y316005D01*
X35399Y316042D01*
X35353Y316097D01*
X35298Y316162D01*
X35224Y316245D01*
X35140Y316347D01*
X35048Y316449D01*
X34946Y316569D01*
X34724Y316800D01*
X34502Y317032D01*
X34391Y317143D01*
X34280Y317244D01*
X34179Y317337D01*
X34077Y317411D01*
X34067D01*
X34058Y317429D01*
X34031Y317448D01*
X33994Y317466D01*
X33892Y317531D01*
X33771Y317605D01*
X33623Y317670D01*
X33466Y317735D01*
X33290Y317772D01*
X33124Y317790D01*
X33115D01*
X33105D01*
X33050Y317781D01*
X32958Y317772D01*
X32856Y317744D01*
X32726Y317707D01*
X32597Y317642D01*
X32467Y317559D01*
X32338Y317448D01*
X32319Y317429D01*
X32282Y317383D01*
X32236Y317318D01*
X32171Y317217D01*
X32116Y317087D01*
X32060Y316939D01*
X32023Y316763D01*
X32014Y316569D01*
Y316514D01*
X32023Y316477D01*
X32032Y316366D01*
X32060Y316236D01*
X32097Y316097D01*
X32162Y315940D01*
X32245Y315792D01*
X32356Y315653D01*
X32375Y315635D01*
X32421Y315598D01*
X32495Y315542D01*
X32606Y315487D01*
X32735Y315422D01*
X32902Y315367D01*
X33087Y315330D01*
X33300Y315311D01*
X33217Y314506D01*
X33207D01*
X33180Y314516D01*
X33133D01*
X33068Y314525D01*
X32994Y314543D01*
X32911Y314562D01*
X32809Y314590D01*
X32708Y314617D01*
X32486Y314691D01*
X32264Y314802D01*
X32153Y314867D01*
X32042Y314950D01*
X31940Y315034D01*
X31848Y315126D01*
X31838Y315135D01*
X31829Y315154D01*
X31801Y315182D01*
X31773Y315228D01*
X31736Y315283D01*
X31699Y315348D01*
X31653Y315422D01*
X31607Y315515D01*
X31561Y315616D01*
X31514Y315727D01*
X31477Y315848D01*
X31440Y315977D01*
X31413Y316116D01*
X31385Y316264D01*
X31376Y316421D01*
X31367Y316588D01*
Y316680D01*
X31376Y316745D01*
X31385Y316819D01*
X31394Y316911D01*
X31413Y317013D01*
X31431Y317115D01*
X31496Y317355D01*
X31589Y317596D01*
X31644Y317716D01*
X31709Y317836D01*
X31792Y317947D01*
X31885Y318049D01*
X31894Y318058D01*
X31903Y318077D01*
X31940Y318095D01*
X31977Y318132D01*
X32023Y318179D01*
X32088Y318225D01*
X32153Y318271D01*
X32236Y318327D01*
X32412Y318419D01*
X32634Y318512D01*
X32745Y318549D01*
X32874Y318567D01*
X33004Y318586D01*
X33143Y318595D01*
X33161D01*
X33207D01*
X33281Y318586D01*
X33383Y318576D01*
X33494Y318558D01*
X33623Y318521D01*
X33762Y318484D01*
X33901Y318428D01*
X33920Y318419D01*
X33966Y318401D01*
X34040Y318364D01*
X34141Y318308D01*
X34253Y318234D01*
X34391Y318142D01*
X34530Y318031D01*
X34687Y317901D01*
X34706Y317883D01*
X34761Y317836D01*
X34808Y317790D01*
X34854Y317744D01*
X34909Y317688D01*
X34983Y317614D01*
X35057Y317540D01*
X35140Y317448D01*
X35233Y317355D01*
X35335Y317244D01*
X35436Y317124D01*
X35557Y316995D01*
X35677Y316847D01*
X35807Y316699D01*
X35816Y316689D01*
X35834Y316671D01*
X35862Y316634D01*
X35899Y316588D01*
X35954Y316532D01*
X36010Y316467D01*
X36130Y316319D01*
X36269Y316162D01*
X36408Y316014D01*
X36528Y315885D01*
X36574Y315829D01*
X36621Y315783D01*
X36630Y315774D01*
X36658Y315746D01*
X36694Y315709D01*
X36750Y315663D01*
X36815Y315616D01*
X36880Y315561D01*
X37037Y315450D01*
Y318604D01*
X37795D01*
Y314358D01*
D02*
G37*
G36*
X34928Y313665D02*
X35039D01*
X35159Y313655D01*
X35289Y313646D01*
X35585Y313618D01*
X35890Y313572D01*
X36186Y313517D01*
X36325Y313480D01*
X36463Y313433D01*
X36472D01*
X36491Y313424D01*
X36528Y313406D01*
X36574Y313387D01*
X36639Y313369D01*
X36704Y313332D01*
X36861Y313258D01*
X37027Y313165D01*
X37212Y313045D01*
X37379Y312906D01*
X37536Y312740D01*
Y312730D01*
X37555Y312721D01*
X37573Y312693D01*
X37592Y312656D01*
X37620Y312610D01*
X37657Y312564D01*
X37721Y312425D01*
X37786Y312259D01*
X37851Y312064D01*
X37888Y311833D01*
X37906Y311583D01*
Y311491D01*
X37897Y311426D01*
X37888Y311352D01*
X37869Y311260D01*
X37851Y311158D01*
X37823Y311047D01*
X37786Y310936D01*
X37749Y310816D01*
X37694Y310695D01*
X37629Y310575D01*
X37555Y310455D01*
X37462Y310335D01*
X37361Y310224D01*
X37249Y310122D01*
X37240Y310113D01*
X37212Y310094D01*
X37166Y310066D01*
X37092Y310020D01*
X37009Y309974D01*
X36898Y309928D01*
X36768Y309863D01*
X36621Y309807D01*
X36454Y309752D01*
X36260Y309696D01*
X36047Y309641D01*
X35807Y309595D01*
X35548Y309548D01*
X35270Y309521D01*
X34965Y309502D01*
X34641Y309493D01*
X34632D01*
X34595D01*
X34530D01*
X34456D01*
X34354Y309502D01*
X34243D01*
X34123Y309511D01*
X33984Y309521D01*
X33698Y309548D01*
X33392Y309595D01*
X33087Y309650D01*
X32948Y309687D01*
X32809Y309724D01*
X32800D01*
X32782Y309733D01*
X32745Y309752D01*
X32699Y309770D01*
X32634Y309789D01*
X32569Y309826D01*
X32412Y309900D01*
X32245Y309992D01*
X32070Y310113D01*
X31894Y310251D01*
X31746Y310418D01*
Y310427D01*
X31727Y310436D01*
X31709Y310464D01*
X31690Y310501D01*
X31653Y310547D01*
X31626Y310603D01*
X31552Y310742D01*
X31487Y310908D01*
X31422Y311102D01*
X31385Y311334D01*
X31367Y311583D01*
Y311667D01*
X31376Y311768D01*
X31394Y311889D01*
X31422Y312027D01*
X31459Y312175D01*
X31505Y312333D01*
X31579Y312481D01*
Y312490D01*
X31589Y312499D01*
X31616Y312545D01*
X31662Y312619D01*
X31727Y312712D01*
X31820Y312814D01*
X31921Y312925D01*
X32042Y313026D01*
X32181Y313128D01*
X32199Y313137D01*
X32245Y313174D01*
X32329Y313211D01*
X32449Y313276D01*
X32588Y313332D01*
X32745Y313406D01*
X32930Y313470D01*
X33133Y313526D01*
X33143D01*
X33161Y313535D01*
X33189Y313544D01*
X33235Y313554D01*
X33290Y313563D01*
X33355Y313572D01*
X33439Y313591D01*
X33531Y313600D01*
X33633Y313618D01*
X33744Y313628D01*
X33873Y313637D01*
X34003Y313655D01*
X34151Y313665D01*
X34299D01*
X34465Y313674D01*
X34641D01*
X34650D01*
X34687D01*
X34752D01*
X34826D01*
X34928Y313665D01*
D02*
G37*
G36*
X37795Y304405D02*
X37786D01*
X37749D01*
X37694D01*
X37620Y304415D01*
X37536Y304424D01*
X37444Y304442D01*
X37351Y304461D01*
X37249Y304498D01*
X37240D01*
X37231Y304507D01*
X37176Y304526D01*
X37092Y304563D01*
X36981Y304618D01*
X36852Y304692D01*
X36704Y304785D01*
X36556Y304886D01*
X36399Y305016D01*
X36389D01*
X36380Y305034D01*
X36325Y305081D01*
X36241Y305164D01*
X36121Y305284D01*
X35982Y305423D01*
X35816Y305599D01*
X35631Y305811D01*
X35436Y306043D01*
X35427Y306052D01*
X35399Y306089D01*
X35353Y306144D01*
X35298Y306209D01*
X35224Y306292D01*
X35140Y306394D01*
X35048Y306496D01*
X34946Y306616D01*
X34724Y306847D01*
X34502Y307079D01*
X34391Y307190D01*
X34280Y307291D01*
X34179Y307384D01*
X34077Y307458D01*
X34067D01*
X34058Y307476D01*
X34031Y307495D01*
X33994Y307513D01*
X33892Y307578D01*
X33771Y307652D01*
X33623Y307717D01*
X33466Y307782D01*
X33290Y307819D01*
X33124Y307837D01*
X33115D01*
X33105D01*
X33050Y307828D01*
X32958Y307819D01*
X32856Y307791D01*
X32726Y307754D01*
X32597Y307689D01*
X32467Y307606D01*
X32338Y307495D01*
X32319Y307476D01*
X32282Y307430D01*
X32236Y307365D01*
X32171Y307264D01*
X32116Y307134D01*
X32060Y306986D01*
X32023Y306810D01*
X32014Y306616D01*
Y306561D01*
X32023Y306524D01*
X32032Y306413D01*
X32060Y306283D01*
X32097Y306144D01*
X32162Y305987D01*
X32245Y305839D01*
X32356Y305700D01*
X32375Y305682D01*
X32421Y305645D01*
X32495Y305589D01*
X32606Y305534D01*
X32735Y305469D01*
X32902Y305414D01*
X33087Y305377D01*
X33300Y305358D01*
X33217Y304553D01*
X33207D01*
X33180Y304563D01*
X33133D01*
X33068Y304572D01*
X32994Y304590D01*
X32911Y304609D01*
X32809Y304637D01*
X32708Y304664D01*
X32486Y304738D01*
X32264Y304849D01*
X32153Y304914D01*
X32042Y304997D01*
X31940Y305081D01*
X31848Y305173D01*
X31838Y305182D01*
X31829Y305201D01*
X31801Y305229D01*
X31773Y305275D01*
X31736Y305330D01*
X31699Y305395D01*
X31653Y305469D01*
X31607Y305562D01*
X31561Y305663D01*
X31514Y305774D01*
X31477Y305895D01*
X31440Y306024D01*
X31413Y306163D01*
X31385Y306311D01*
X31376Y306468D01*
X31367Y306635D01*
Y306727D01*
X31376Y306792D01*
X31385Y306866D01*
X31394Y306958D01*
X31413Y307060D01*
X31431Y307162D01*
X31496Y307402D01*
X31589Y307643D01*
X31644Y307763D01*
X31709Y307883D01*
X31792Y307994D01*
X31885Y308096D01*
X31894Y308105D01*
X31903Y308124D01*
X31940Y308142D01*
X31977Y308179D01*
X32023Y308226D01*
X32088Y308272D01*
X32153Y308318D01*
X32236Y308374D01*
X32412Y308466D01*
X32634Y308559D01*
X32745Y308596D01*
X32874Y308614D01*
X33004Y308633D01*
X33143Y308642D01*
X33161D01*
X33207D01*
X33281Y308633D01*
X33383Y308623D01*
X33494Y308605D01*
X33623Y308568D01*
X33762Y308531D01*
X33901Y308475D01*
X33920Y308466D01*
X33966Y308448D01*
X34040Y308411D01*
X34141Y308355D01*
X34253Y308281D01*
X34391Y308189D01*
X34530Y308078D01*
X34687Y307948D01*
X34706Y307930D01*
X34761Y307883D01*
X34808Y307837D01*
X34854Y307791D01*
X34909Y307735D01*
X34983Y307661D01*
X35057Y307587D01*
X35140Y307495D01*
X35233Y307402D01*
X35335Y307291D01*
X35436Y307171D01*
X35557Y307042D01*
X35677Y306894D01*
X35807Y306746D01*
X35816Y306736D01*
X35834Y306718D01*
X35862Y306681D01*
X35899Y306635D01*
X35954Y306579D01*
X36010Y306514D01*
X36130Y306366D01*
X36269Y306209D01*
X36408Y306061D01*
X36528Y305932D01*
X36574Y305876D01*
X36621Y305830D01*
X36630Y305821D01*
X36658Y305793D01*
X36694Y305756D01*
X36750Y305710D01*
X36815Y305663D01*
X36880Y305608D01*
X37037Y305497D01*
Y308651D01*
X37795D01*
Y304405D01*
D02*
G37*
G36*
Y300160D02*
X32440D01*
X37795Y298291D01*
Y297533D01*
X32347Y295683D01*
X37795D01*
Y294869D01*
X31394D01*
Y296136D01*
X35936Y297653D01*
X35945D01*
X35964Y297662D01*
X35991Y297671D01*
X36038Y297690D01*
X36149Y297727D01*
X36288Y297773D01*
X36445Y297819D01*
X36602Y297875D01*
X36750Y297921D01*
X36880Y297958D01*
X36861Y297967D01*
X36815Y297977D01*
X36731Y298004D01*
X36621Y298041D01*
X36472Y298088D01*
X36297Y298152D01*
X36093Y298217D01*
X35853Y298300D01*
X31394Y299836D01*
Y300974D01*
X37795D01*
Y300160D01*
D02*
G37*
G36*
Y288939D02*
X31394D01*
Y293574D01*
X32153D01*
Y289790D01*
X34104D01*
Y293333D01*
X34863D01*
Y289790D01*
X37037D01*
Y293722D01*
X37795D01*
Y288939D01*
D02*
G37*
G36*
X36186Y287746D02*
X36315Y287728D01*
X36463Y287691D01*
X36621Y287644D01*
X36787Y287570D01*
X36963Y287469D01*
X36972D01*
X36981Y287459D01*
X37037Y287413D01*
X37120Y287348D01*
X37212Y287256D01*
X37323Y287136D01*
X37444Y286988D01*
X37555Y286821D01*
X37657Y286627D01*
Y286618D01*
X37666Y286599D01*
X37675Y286571D01*
X37694Y286534D01*
X37712Y286479D01*
X37740Y286414D01*
X37777Y286266D01*
X37823Y286090D01*
X37869Y285878D01*
X37897Y285646D01*
X37906Y285397D01*
Y285249D01*
X37897Y285175D01*
Y285091D01*
X37888Y284999D01*
X37879Y284888D01*
X37841Y284657D01*
X37804Y284416D01*
X37740Y284176D01*
X37657Y283944D01*
Y283935D01*
X37647Y283917D01*
X37629Y283889D01*
X37610Y283852D01*
X37555Y283741D01*
X37472Y283611D01*
X37361Y283463D01*
X37231Y283306D01*
X37074Y283158D01*
X36898Y283019D01*
X36889D01*
X36870Y283001D01*
X36843Y282992D01*
X36805Y282964D01*
X36759Y282945D01*
X36704Y282918D01*
X36565Y282853D01*
X36389Y282788D01*
X36195Y282733D01*
X35973Y282696D01*
X35742Y282677D01*
X35668Y283473D01*
X35677D01*
X35686D01*
X35714Y283482D01*
X35751D01*
X35834Y283500D01*
X35954Y283528D01*
X36075Y283565D01*
X36213Y283602D01*
X36343Y283667D01*
X36463Y283732D01*
X36472Y283741D01*
X36509Y283769D01*
X36574Y283815D01*
X36639Y283889D01*
X36722Y283981D01*
X36805Y284083D01*
X36889Y284222D01*
X36963Y284370D01*
Y284379D01*
X36972Y284388D01*
X36981Y284416D01*
X36990Y284444D01*
X37018Y284536D01*
X37055Y284657D01*
X37092Y284805D01*
X37120Y284971D01*
X37139Y285156D01*
X37148Y285360D01*
Y285443D01*
X37139Y285535D01*
X37129Y285646D01*
X37111Y285776D01*
X37092Y285924D01*
X37055Y286072D01*
X37009Y286211D01*
X37000Y286229D01*
X36981Y286275D01*
X36944Y286340D01*
X36907Y286423D01*
X36843Y286507D01*
X36778Y286599D01*
X36704Y286692D01*
X36611Y286766D01*
X36602Y286775D01*
X36565Y286793D01*
X36519Y286821D01*
X36445Y286858D01*
X36371Y286895D01*
X36278Y286923D01*
X36176Y286941D01*
X36066Y286951D01*
X36056D01*
X36010D01*
X35954Y286941D01*
X35881Y286932D01*
X35807Y286904D01*
X35714Y286877D01*
X35622Y286830D01*
X35538Y286766D01*
X35529Y286756D01*
X35501Y286729D01*
X35464Y286692D01*
X35409Y286627D01*
X35353Y286553D01*
X35289Y286451D01*
X35224Y286331D01*
X35168Y286192D01*
X35159Y286183D01*
X35150Y286137D01*
X35122Y286063D01*
X35113Y286016D01*
X35094Y285952D01*
X35067Y285887D01*
X35048Y285804D01*
X35020Y285711D01*
X34993Y285600D01*
X34965Y285489D01*
X34928Y285360D01*
X34891Y285212D01*
X34854Y285054D01*
Y285045D01*
X34844Y285017D01*
X34835Y284971D01*
X34817Y284916D01*
X34798Y284842D01*
X34780Y284758D01*
X34724Y284573D01*
X34659Y284370D01*
X34595Y284157D01*
X34530Y283972D01*
X34493Y283889D01*
X34456Y283815D01*
Y283806D01*
X34447Y283796D01*
X34410Y283741D01*
X34363Y283658D01*
X34290Y283565D01*
X34206Y283454D01*
X34104Y283343D01*
X33984Y283232D01*
X33855Y283140D01*
X33836Y283130D01*
X33790Y283103D01*
X33716Y283066D01*
X33623Y283029D01*
X33503Y282992D01*
X33364Y282955D01*
X33217Y282927D01*
X33059Y282918D01*
X33050D01*
X33041D01*
X33013D01*
X32976D01*
X32884Y282936D01*
X32763Y282955D01*
X32625Y282982D01*
X32467Y283029D01*
X32310Y283093D01*
X32153Y283186D01*
X32144D01*
X32134Y283195D01*
X32079Y283241D01*
X32005Y283306D01*
X31912Y283389D01*
X31811Y283500D01*
X31699Y283639D01*
X31598Y283806D01*
X31505Y283991D01*
Y284000D01*
X31496Y284018D01*
X31487Y284046D01*
X31468Y284083D01*
X31450Y284129D01*
X31431Y284194D01*
X31394Y284333D01*
X31357Y284509D01*
X31320Y284712D01*
X31293Y284925D01*
X31283Y285165D01*
Y285286D01*
X31293Y285350D01*
Y285415D01*
X31311Y285591D01*
X31339Y285785D01*
X31385Y285989D01*
X31440Y286211D01*
X31514Y286414D01*
Y286423D01*
X31524Y286442D01*
X31542Y286470D01*
X31561Y286507D01*
X31607Y286599D01*
X31690Y286719D01*
X31783Y286858D01*
X31903Y286997D01*
X32042Y287126D01*
X32199Y287247D01*
X32208D01*
X32217Y287256D01*
X32245Y287274D01*
X32273Y287293D01*
X32366Y287339D01*
X32486Y287395D01*
X32634Y287459D01*
X32809Y287506D01*
X32994Y287552D01*
X33198Y287570D01*
X33263Y286756D01*
X33253D01*
X33235D01*
X33207Y286747D01*
X33161Y286738D01*
X33059Y286710D01*
X32921Y286673D01*
X32772Y286618D01*
X32625Y286534D01*
X32486Y286433D01*
X32356Y286303D01*
X32347Y286285D01*
X32310Y286238D01*
X32254Y286146D01*
X32199Y286026D01*
X32144Y285868D01*
X32088Y285683D01*
X32051Y285452D01*
X32042Y285193D01*
Y285064D01*
X32051Y285008D01*
X32060Y284934D01*
X32079Y284768D01*
X32116Y284583D01*
X32162Y284398D01*
X32236Y284222D01*
X32282Y284148D01*
X32329Y284074D01*
X32338Y284055D01*
X32375Y284018D01*
X32440Y283963D01*
X32513Y283907D01*
X32615Y283843D01*
X32726Y283787D01*
X32856Y283750D01*
X33004Y283732D01*
X33022D01*
X33059D01*
X33124Y283741D01*
X33198Y283759D01*
X33290Y283787D01*
X33383Y283833D01*
X33476Y283889D01*
X33568Y283972D01*
X33577Y283981D01*
X33605Y284028D01*
X33633Y284065D01*
X33651Y284102D01*
X33679Y284157D01*
X33716Y284222D01*
X33744Y284305D01*
X33781Y284398D01*
X33818Y284499D01*
X33864Y284620D01*
X33901Y284749D01*
X33947Y284897D01*
X33984Y285064D01*
X34031Y285249D01*
Y285258D01*
X34040Y285295D01*
X34049Y285350D01*
X34067Y285415D01*
X34086Y285498D01*
X34114Y285600D01*
X34141Y285702D01*
X34169Y285813D01*
X34234Y286053D01*
X34299Y286285D01*
X34336Y286396D01*
X34373Y286497D01*
X34400Y286590D01*
X34438Y286664D01*
Y286673D01*
X34447Y286692D01*
X34465Y286719D01*
X34484Y286756D01*
X34539Y286858D01*
X34613Y286978D01*
X34715Y287117D01*
X34826Y287256D01*
X34955Y287385D01*
X35094Y287496D01*
X35113Y287506D01*
X35159Y287543D01*
X35242Y287580D01*
X35353Y287635D01*
X35483Y287681D01*
X35640Y287728D01*
X35816Y287755D01*
X36001Y287765D01*
X36010D01*
X36019D01*
X36047D01*
X36084D01*
X36186Y287746D01*
D02*
G37*
%LPC*%
G36*
X98112Y322024D02*
X98103D01*
X98085D01*
X98057Y322014D01*
X98020D01*
X97909Y321996D01*
X97789Y321968D01*
X97641Y321922D01*
X97502Y321876D01*
X97363Y321802D01*
X97243Y321718D01*
X97234D01*
X97224Y321700D01*
X97169Y321654D01*
X97095Y321570D01*
X97012Y321459D01*
X96928Y321321D01*
X96854Y321154D01*
X96799Y320960D01*
X96790Y320858D01*
X96780Y320747D01*
Y320692D01*
X96790Y320655D01*
X96799Y320553D01*
X96827Y320433D01*
X96873Y320285D01*
X96938Y320127D01*
X97030Y319979D01*
X97150Y319831D01*
X97169Y319813D01*
X97215Y319776D01*
X97298Y319711D01*
X97409Y319646D01*
X97539Y319572D01*
X97705Y319508D01*
X97900Y319452D01*
X98112Y319424D01*
Y322024D01*
D02*
G37*
G36*
X98667Y309453D02*
X98510D01*
X98501D01*
X98473D01*
X98427D01*
X98371Y309444D01*
X98297D01*
X98214Y309434D01*
X98029Y309407D01*
X97816Y309360D01*
X97604Y309296D01*
X97391Y309203D01*
X97298Y309138D01*
X97215Y309074D01*
X97206D01*
X97197Y309055D01*
X97150Y309009D01*
X97076Y308926D01*
X96993Y308815D01*
X96919Y308685D01*
X96845Y308528D01*
X96799Y308352D01*
X96780Y308260D01*
Y308112D01*
X96790Y308075D01*
X96799Y307973D01*
X96836Y307853D01*
X96882Y307705D01*
X96965Y307557D01*
X97067Y307409D01*
X97141Y307335D01*
X97215Y307261D01*
X97224D01*
X97234Y307242D01*
X97261Y307224D01*
X97298Y307205D01*
X97335Y307177D01*
X97391Y307150D01*
X97456Y307113D01*
X97530Y307085D01*
X97613Y307048D01*
X97715Y307011D01*
X97816Y306983D01*
X97927Y306955D01*
X98057Y306937D01*
X98186Y306918D01*
X98325Y306900D01*
X98482D01*
X98492D01*
X98519D01*
X98566D01*
X98630Y306909D01*
X98704D01*
X98797Y306918D01*
X98991Y306946D01*
X99213Y306992D01*
X99426Y307048D01*
X99639Y307140D01*
X99731Y307196D01*
X99814Y307261D01*
X99833Y307279D01*
X99879Y307325D01*
X99944Y307399D01*
X100018Y307510D01*
X100101Y307640D01*
X100166Y307797D01*
X100212Y307973D01*
X100221Y308065D01*
X100231Y308167D01*
Y308223D01*
X100221Y308260D01*
X100212Y308361D01*
X100175Y308491D01*
X100129Y308630D01*
X100055Y308787D01*
X99953Y308935D01*
X99888Y309009D01*
X99814Y309083D01*
X99805D01*
X99796Y309101D01*
X99768Y309120D01*
X99731Y309138D01*
X99694Y309166D01*
X99639Y309203D01*
X99574Y309231D01*
X99491Y309268D01*
X99407Y309305D01*
X99315Y309333D01*
X99204Y309370D01*
X99084Y309397D01*
X98963Y309416D01*
X98825Y309434D01*
X98667Y309453D01*
D02*
G37*
G36*
X98112Y292673D02*
X98103D01*
X98085D01*
X98057Y292664D01*
X98020D01*
X97909Y292646D01*
X97789Y292618D01*
X97641Y292572D01*
X97502Y292525D01*
X97363Y292451D01*
X97243Y292368D01*
X97234D01*
X97224Y292350D01*
X97169Y292303D01*
X97095Y292220D01*
X97012Y292109D01*
X96928Y291970D01*
X96854Y291804D01*
X96799Y291610D01*
X96790Y291508D01*
X96780Y291397D01*
Y291341D01*
X96790Y291304D01*
X96799Y291203D01*
X96827Y291082D01*
X96873Y290934D01*
X96938Y290777D01*
X97030Y290629D01*
X97150Y290481D01*
X97169Y290463D01*
X97215Y290426D01*
X97298Y290361D01*
X97409Y290296D01*
X97539Y290222D01*
X97705Y290157D01*
X97900Y290102D01*
X98112Y290074D01*
Y292673D01*
D02*
G37*
G36*
X89839Y291032D02*
X89830D01*
X89793D01*
X89747D01*
X89673Y291022D01*
X89590D01*
X89497Y291013D01*
X89386Y291004D01*
X89275Y290995D01*
X89025Y290948D01*
X88766Y290893D01*
X88526Y290809D01*
X88406Y290754D01*
X88304Y290699D01*
X88295D01*
X88276Y290680D01*
X88248Y290662D01*
X88211Y290643D01*
X88119Y290569D01*
X88008Y290476D01*
X87888Y290356D01*
X87767Y290217D01*
X87665Y290060D01*
X87582Y289894D01*
X87573Y289875D01*
X87564Y289829D01*
X87536Y289746D01*
X87508Y289626D01*
X87490Y289477D01*
X87462Y289293D01*
X87453Y289181D01*
Y289061D01*
X87444Y288941D01*
Y287461D01*
X92327D01*
Y288978D01*
X92318Y289043D01*
X92309Y289181D01*
X92300Y289339D01*
X92281Y289505D01*
X92254Y289672D01*
X92216Y289810D01*
X92207Y289829D01*
X92198Y289875D01*
X92170Y289940D01*
X92133Y290023D01*
X92078Y290116D01*
X92022Y290208D01*
X91957Y290301D01*
X91883Y290393D01*
X91865Y290403D01*
X91828Y290440D01*
X91763Y290495D01*
X91671Y290560D01*
X91550Y290634D01*
X91412Y290717D01*
X91255Y290791D01*
X91079Y290856D01*
X91070D01*
X91051Y290865D01*
X91023Y290874D01*
X90986Y290883D01*
X90940Y290893D01*
X90875Y290911D01*
X90811Y290930D01*
X90737Y290948D01*
X90552Y290976D01*
X90339Y291004D01*
X90098Y291022D01*
X89839Y291032D01*
D02*
G37*
G36*
X34928Y322822D02*
X34641D01*
X34632D01*
X34622D01*
X34576D01*
X34493D01*
X34382Y322813D01*
X34262D01*
X34114Y322804D01*
X33957Y322794D01*
X33781Y322776D01*
X33429Y322730D01*
X33253Y322702D01*
X33087Y322665D01*
X32930Y322628D01*
X32782Y322572D01*
X32652Y322517D01*
X32541Y322452D01*
X32532D01*
X32523Y322434D01*
X32495Y322415D01*
X32458Y322387D01*
X32375Y322304D01*
X32273Y322202D01*
X32181Y322064D01*
X32097Y321906D01*
X32060Y321823D01*
X32032Y321731D01*
X32023Y321629D01*
X32014Y321527D01*
Y321472D01*
X32023Y321435D01*
X32042Y321333D01*
X32070Y321213D01*
X32125Y321074D01*
X32208Y320926D01*
X32264Y320852D01*
X32319Y320778D01*
X32393Y320713D01*
X32476Y320648D01*
X32486D01*
X32504Y320630D01*
X32541Y320611D01*
X32588Y320584D01*
X32662Y320556D01*
X32745Y320519D01*
X32847Y320491D01*
X32967Y320454D01*
X33105Y320417D01*
X33263Y320380D01*
X33439Y320343D01*
X33633Y320315D01*
X33855Y320288D01*
X34095Y320269D01*
X34354Y320260D01*
X34641Y320251D01*
X34659D01*
X34706D01*
X34789D01*
X34900Y320260D01*
X35020D01*
X35168Y320269D01*
X35326Y320278D01*
X35492Y320297D01*
X35853Y320343D01*
X36029Y320371D01*
X36195Y320408D01*
X36352Y320445D01*
X36500Y320500D01*
X36630Y320556D01*
X36741Y320621D01*
X36750D01*
X36759Y320639D01*
X36824Y320685D01*
X36907Y320769D01*
X37000Y320870D01*
X37092Y321009D01*
X37176Y321166D01*
X37240Y321342D01*
X37249Y321435D01*
X37259Y321536D01*
Y321592D01*
X37249Y321629D01*
X37231Y321721D01*
X37194Y321851D01*
X37129Y321990D01*
X37037Y322147D01*
X36981Y322221D01*
X36907Y322295D01*
X36833Y322369D01*
X36741Y322443D01*
X36731D01*
X36713Y322461D01*
X36685Y322480D01*
X36639Y322498D01*
X36574Y322535D01*
X36491Y322563D01*
X36399Y322600D01*
X36288Y322637D01*
X36149Y322665D01*
X36001Y322702D01*
X35825Y322739D01*
X35640Y322767D01*
X35418Y322785D01*
X35187Y322804D01*
X34928Y322822D01*
D02*
G37*
G36*
Y312869D02*
X34641D01*
X34632D01*
X34622D01*
X34576D01*
X34493D01*
X34382Y312860D01*
X34262D01*
X34114Y312851D01*
X33957Y312841D01*
X33781Y312823D01*
X33429Y312777D01*
X33253Y312749D01*
X33087Y312712D01*
X32930Y312675D01*
X32782Y312619D01*
X32652Y312564D01*
X32541Y312499D01*
X32532D01*
X32523Y312481D01*
X32495Y312462D01*
X32458Y312434D01*
X32375Y312351D01*
X32273Y312249D01*
X32181Y312111D01*
X32097Y311953D01*
X32060Y311870D01*
X32032Y311778D01*
X32023Y311676D01*
X32014Y311574D01*
Y311519D01*
X32023Y311482D01*
X32042Y311380D01*
X32070Y311260D01*
X32125Y311121D01*
X32208Y310973D01*
X32264Y310899D01*
X32319Y310825D01*
X32393Y310760D01*
X32476Y310695D01*
X32486D01*
X32504Y310677D01*
X32541Y310658D01*
X32588Y310631D01*
X32662Y310603D01*
X32745Y310566D01*
X32847Y310538D01*
X32967Y310501D01*
X33105Y310464D01*
X33263Y310427D01*
X33439Y310390D01*
X33633Y310362D01*
X33855Y310335D01*
X34095Y310316D01*
X34354Y310307D01*
X34641Y310298D01*
X34659D01*
X34706D01*
X34789D01*
X34900Y310307D01*
X35020D01*
X35168Y310316D01*
X35326Y310325D01*
X35492Y310344D01*
X35853Y310390D01*
X36029Y310418D01*
X36195Y310455D01*
X36352Y310492D01*
X36500Y310547D01*
X36630Y310603D01*
X36741Y310668D01*
X36750D01*
X36759Y310686D01*
X36824Y310732D01*
X36907Y310816D01*
X37000Y310917D01*
X37092Y311056D01*
X37176Y311213D01*
X37240Y311389D01*
X37249Y311482D01*
X37259Y311583D01*
Y311639D01*
X37249Y311676D01*
X37231Y311768D01*
X37194Y311898D01*
X37129Y312037D01*
X37037Y312194D01*
X36981Y312268D01*
X36907Y312342D01*
X36833Y312416D01*
X36741Y312490D01*
X36731D01*
X36713Y312508D01*
X36685Y312527D01*
X36639Y312545D01*
X36574Y312582D01*
X36491Y312610D01*
X36399Y312647D01*
X36288Y312684D01*
X36149Y312712D01*
X36001Y312749D01*
X35825Y312786D01*
X35640Y312814D01*
X35418Y312832D01*
X35187Y312851D01*
X34928Y312869D01*
D02*
G37*
%LPD*%
D10*
X438730Y179433D02*
X438112Y179790D01*
Y179076D01*
X438730Y179433D01*
X439918Y172633D02*
Y181033D01*
X428018Y172633D02*
X439918D01*
X428018D02*
Y181033D01*
X439918D01*
X337611Y16373D02*
Y101019D01*
X231312D02*
X337611D01*
X231312Y16373D02*
Y101019D01*
Y16373D02*
X337611D01*
X375343Y226378D02*
X405905D01*
X375343D02*
Y251575D01*
X412106Y232579D02*
Y245276D01*
X405905Y226378D02*
X412106Y232579D01*
X375343Y251575D02*
X405807D01*
X412106Y245276D01*
X427559Y252362D02*
X458121D01*
Y227165D02*
Y252362D01*
X421358Y233465D02*
Y246161D01*
X427559Y252362D01*
X427658Y227165D02*
X458121D01*
X421358Y233465D02*
X427658Y227165D01*
X322047Y322575D02*
Y330575D01*
X318047Y326575D02*
X326047D01*
X302047Y270590D02*
Y320590D01*
Y270590D02*
X317047Y255591D01*
X327047D01*
X342047Y270590D01*
Y320590D01*
X302047D02*
X342047D01*
X417323Y246984D02*
Y254984D01*
X413323Y250984D02*
X421323D01*
X437323Y256968D02*
Y306968D01*
X422323Y321969D02*
X437323Y306968D01*
X412323Y321969D02*
X422323D01*
X397323Y306968D02*
X412323Y321969D01*
X397323Y256968D02*
Y306968D01*
Y256968D02*
X437323D01*
X130878Y322280D02*
Y330279D01*
X126878Y326279D02*
X134878D01*
X110878Y270295D02*
Y320295D01*
Y270295D02*
X125878Y255295D01*
X135878D01*
X150878Y270295D01*
Y320295D01*
X110878D02*
X150878D01*
X267717Y322575D02*
Y330575D01*
X263717Y326575D02*
X271716D01*
X247716Y270590D02*
Y320590D01*
Y270590D02*
X262717Y255591D01*
X272716D01*
X287717Y270590D01*
Y320590D01*
X247716D02*
X287717D01*
X391831Y53937D02*
Y64567D01*
Y41339D02*
Y51968D01*
Y28346D02*
Y38976D01*
X178347Y72539D02*
X188976D01*
X192913D02*
X203543D01*
X402756Y124803D02*
X409449D01*
X434252Y69193D02*
X444882D01*
X22000Y199000D02*
X24000Y197000D01*
Y197000D02*
X104000Y197000D01*
X106000Y199000D01*
X451731Y275307D02*
X441734D01*
Y280305D01*
X443400Y281972D01*
X446732D01*
X448398Y280305D01*
Y275307D01*
X441734Y285304D02*
Y288636D01*
Y286970D01*
X451731D01*
Y285304D01*
Y288636D01*
Y293634D02*
X441734D01*
X451731Y300299D01*
X441734D01*
X224668Y225666D02*
X224001Y224999D01*
Y223666D01*
X224668Y223000D01*
X225334D01*
X226001Y223666D01*
Y224999D01*
X226667Y225666D01*
X227334D01*
X228000Y224999D01*
Y223666D01*
X227334Y223000D01*
X224001Y226999D02*
X228000D01*
Y228998D01*
X227334Y229664D01*
X224668D01*
X224001Y228998D01*
Y226999D01*
X228000Y230997D02*
X225334D01*
X224001Y232330D01*
X225334Y233663D01*
X228000D01*
X226001D01*
Y230997D01*
X214668Y225666D02*
X214001Y224999D01*
Y223666D01*
X214668Y223000D01*
X215334D01*
X216001Y223666D01*
Y224999D01*
X216667Y225666D01*
X217334D01*
X218000Y224999D01*
Y223666D01*
X217334Y223000D01*
X214668Y229664D02*
X214001Y228998D01*
Y227665D01*
X214668Y226999D01*
X217334D01*
X218000Y227665D01*
Y228998D01*
X217334Y229664D01*
X214001Y230997D02*
X218000D01*
Y233663D01*
X138978Y106692D02*
X138190Y105905D01*
Y104331D01*
X138978Y103543D01*
X142126D01*
X142913Y104331D01*
Y105905D01*
X142126Y106692D01*
X142913Y108266D02*
Y109841D01*
Y109053D01*
X138190D01*
X138978Y108266D01*
Y112202D02*
X138190Y112989D01*
Y114563D01*
X138978Y115350D01*
X142126D01*
X142913Y114563D01*
Y112989D01*
X142126Y112202D01*
X138978D01*
D11*
X71457Y108661D02*
X70718Y109088D01*
Y108235D01*
X71457Y108661D01*
X72638Y182283D02*
X71900Y182710D01*
Y181857D01*
X72638Y182283D01*
X144311Y96752D02*
X143573Y97178D01*
Y96326D01*
X144311Y96752D01*
X212339Y297122D02*
X211600Y297548D01*
Y296696D01*
X212339Y297122D01*
D12*
X139961Y87992D02*
X139516Y88915D01*
X138517Y89144D01*
X137715Y88505D01*
Y87480D01*
X138517Y86841D01*
X139516Y87069D01*
X139961Y87992D01*
X207890Y288165D02*
X207445Y289089D01*
X206446Y289317D01*
X205644Y288678D01*
Y287653D01*
X206446Y287014D01*
X207445Y287242D01*
X207890Y288165D01*
D13*
X78347Y95472D02*
Y107677D01*
X74409Y95472D02*
Y107677D01*
Y95472D02*
X78347D01*
X74409Y107677D02*
X78347D01*
X79528Y169095D02*
Y181299D01*
X75590Y169095D02*
Y181299D01*
Y169095D02*
X79528D01*
X75590Y181299D02*
X79528D01*
X140858Y122142D02*
Y192142D01*
X380858D01*
Y122142D02*
Y192142D01*
X140858Y122142D02*
X380858D01*
X140858Y152142D02*
X145858D01*
Y162142D01*
X140858D02*
X145858D01*
X123031Y91929D02*
X142717D01*
X123031Y79331D02*
X142717D01*
Y91929D01*
X123031Y79331D02*
Y91929D01*
X191354Y279898D02*
Y292102D01*
X210646Y279898D02*
Y292102D01*
X191354Y279898D02*
X210646D01*
X191354Y292102D02*
X210646D01*
D14*
X196840Y48042D02*
X196053Y47255D01*
Y45681D01*
X196840Y44894D01*
X199988D01*
X200776Y45681D01*
Y47255D01*
X199988Y48042D01*
X200776Y49617D02*
X197627D01*
X196053Y51191D01*
X197627Y52765D01*
X200776D01*
X198414D01*
Y49617D01*
X200776Y54339D02*
X196053D01*
X200776Y57488D01*
X196053D01*
X200776Y59062D02*
X196053D01*
Y61424D01*
X196840Y62211D01*
X198414D01*
X199201Y61424D01*
Y59062D01*
Y60637D02*
X200776Y62211D01*
X196053Y63785D02*
X200776Y66934D01*
X196053D02*
X200776Y63785D01*
X263799Y226948D02*
X266948Y223799D01*
X265373Y225374D01*
X266948Y226948D01*
X263799Y223799D01*
X412609Y61034D02*
X411822Y61821D01*
X410248D01*
X409461Y61034D01*
Y57886D01*
X410248Y57098D01*
X411822D01*
X412609Y57886D01*
X417332Y61034D02*
X416545Y61821D01*
X414971D01*
X414184Y61034D01*
Y60247D01*
X414971Y59460D01*
X416545D01*
X417332Y58673D01*
Y57886D01*
X416545Y57098D01*
X414971D01*
X414184Y57886D01*
X182273Y48042D02*
X181486Y47255D01*
Y45681D01*
X182273Y44894D01*
X185422D01*
X186209Y45681D01*
Y47255D01*
X185422Y48042D01*
X186209Y49617D02*
X183060D01*
X181486Y51191D01*
X183060Y52765D01*
X186209D01*
X183847D01*
Y49617D01*
X186209Y54339D02*
X181486D01*
X186209Y57488D01*
X181486D01*
Y59062D02*
Y62211D01*
Y60637D01*
X186209D01*
X181486Y63785D02*
X186209Y66934D01*
X181486D02*
X186209Y63785D01*
X273634Y226782D02*
X276782Y223634D01*
X275208Y225208D01*
X276782Y226782D01*
X273634Y223634D01*
X409067Y35837D02*
Y31114D01*
X411428D01*
X412216Y31901D01*
Y32689D01*
X411428Y33476D01*
X409067D01*
X411428D01*
X412216Y34263D01*
Y35050D01*
X411428Y35837D01*
X409067D01*
X413790D02*
Y31901D01*
X414577Y31114D01*
X416151D01*
X416938Y31901D01*
Y35837D01*
X421661Y35050D02*
X420874Y35837D01*
X419300D01*
X418513Y35050D01*
Y34263D01*
X419300Y33476D01*
X420874D01*
X421661Y32689D01*
Y31901D01*
X420874Y31114D01*
X419300D01*
X418513Y31901D01*
X423236Y35837D02*
Y35050D01*
X424810Y33476D01*
X426384Y35050D01*
Y35837D01*
X424810Y33476D02*
Y31114D01*
X409067Y44106D02*
Y48829D01*
X411428D01*
X412216Y48042D01*
Y46468D01*
X411428Y45681D01*
X409067D01*
X410641D02*
X412216Y44106D01*
X416938Y48829D02*
X413790D01*
Y44106D01*
X416938D01*
X413790Y46468D02*
X415364D01*
X421661Y48042D02*
X420874Y48829D01*
X419300D01*
X418513Y48042D01*
Y47255D01*
X419300Y46468D01*
X420874D01*
X421661Y45681D01*
Y44893D01*
X420874Y44106D01*
X419300D01*
X418513Y44893D01*
X426384Y48829D02*
X423236D01*
Y44106D01*
X426384D01*
X423236Y46468D02*
X424810D01*
X427958Y48829D02*
X431107D01*
X429533D01*
Y44106D01*
X234157Y227149D02*
X237306Y224000D01*
X235732Y225574D01*
X237306Y227149D01*
X234157Y224000D01*
X8663Y193307D02*
Y196456D01*
Y194881D01*
X13386D01*
Y200391D02*
Y198817D01*
X12599Y198030D01*
X11024D01*
X10237Y198817D01*
Y200391D01*
X11024Y201179D01*
X11812D01*
Y198030D01*
X13386Y202753D02*
Y204327D01*
Y203540D01*
X8663D01*
Y202753D01*
X13386Y209050D02*
Y207476D01*
X12599Y206689D01*
X11024D01*
X10237Y207476D01*
Y209050D01*
X11024Y209837D01*
X11812D01*
Y206689D01*
X13386Y211411D02*
X10237D01*
Y212199D01*
X11024Y212986D01*
X13386D01*
X11024D01*
X10237Y213773D01*
X11024Y214560D01*
X13386D01*
Y218496D02*
Y216921D01*
X12599Y216134D01*
X11024D01*
X10237Y216921D01*
Y218496D01*
X11024Y219283D01*
X11812D01*
Y216134D01*
X9450Y221644D02*
X10237D01*
Y220857D01*
Y222431D01*
Y221644D01*
X12599D01*
X13386Y222431D01*
X10237Y224793D02*
X13386D01*
X11812D01*
X11024Y225580D01*
X10237Y226367D01*
Y227154D01*
Y229516D02*
X12599D01*
X13386Y230303D01*
Y232664D01*
X14173D01*
X14960Y231877D01*
Y231090D01*
X13386Y232664D02*
X10237D01*
X13386Y242110D02*
Y238962D01*
X10237Y242110D01*
X9450D01*
X8663Y241323D01*
Y239749D01*
X9450Y238962D01*
Y243685D02*
X8663Y244472D01*
Y246046D01*
X9450Y246833D01*
X12599D01*
X13386Y246046D01*
Y244472D01*
X12599Y243685D01*
X9450D01*
X13386Y251556D02*
Y248407D01*
X10237Y251556D01*
X9450D01*
X8663Y250769D01*
Y249195D01*
X9450Y248407D01*
Y253130D02*
X8663Y253917D01*
Y255492D01*
X9450Y256279D01*
X12599D01*
X13386Y255492D01*
Y253917D01*
X12599Y253130D01*
X9450D01*
X10237Y262576D02*
X13386Y264150D01*
X10237Y265725D01*
X13386Y270447D02*
Y267299D01*
X10237Y270447D01*
X9450D01*
X8663Y269660D01*
Y268086D01*
X9450Y267299D01*
X13386Y272022D02*
X12599D01*
Y272809D01*
X13386D01*
Y272022D01*
X9450Y275957D02*
X8663Y276745D01*
Y278319D01*
X9450Y279106D01*
X12599D01*
X13386Y278319D01*
Y276745D01*
X12599Y275957D01*
X9450D01*
X244000Y227149D02*
X247149Y224000D01*
X245574Y225574D01*
X247149Y227149D01*
X244000Y224000D01*
X160000Y271149D02*
Y268000D01*
X156851Y271149D01*
X156064D01*
X155277Y270361D01*
Y268787D01*
X156064Y268000D01*
X160000Y275084D02*
X155277D01*
X157639Y272723D01*
Y275871D01*
X155277Y277446D02*
X158426D01*
X160000Y279020D01*
X158426Y280594D01*
X155277D01*
Y289253D02*
Y287679D01*
X156064Y286892D01*
X159213D01*
X160000Y287679D01*
Y289253D01*
X159213Y290040D01*
X156064D01*
X155277Y289253D01*
Y291614D02*
X159213D01*
X160000Y292402D01*
Y293976D01*
X159213Y294763D01*
X155277D01*
Y296337D02*
Y299486D01*
Y297912D01*
X160000D01*
X245000Y274149D02*
Y271000D01*
X241851Y274149D01*
X241064D01*
X240277Y273361D01*
Y271787D01*
X241064Y271000D01*
X245000Y278084D02*
X240277D01*
X242639Y275723D01*
Y278871D01*
X240277Y280446D02*
X243426D01*
X245000Y282020D01*
X243426Y283594D01*
X240277D01*
Y289892D02*
Y291466D01*
Y290679D01*
X245000D01*
Y289892D01*
Y291466D01*
Y293827D02*
X240277D01*
X245000Y296976D01*
X240277D01*
X254000Y227149D02*
X257149Y224000D01*
X255574Y225574D01*
X257149Y227149D01*
X254000Y224000D01*
X36417Y192715D02*
X37992D01*
X37205D01*
Y187992D01*
X36417D01*
X37992D01*
X43502D02*
X40353D01*
X43502Y191141D01*
Y191928D01*
X42715Y192715D01*
X41140D01*
X40353Y191928D01*
X48224D02*
X47437Y192715D01*
X45863D01*
X45076Y191928D01*
Y188779D01*
X45863Y187992D01*
X47437D01*
X48224Y188779D01*
X109000Y247936D02*
X109787Y248723D01*
X111361D01*
X112149Y247936D01*
Y247149D01*
X111361Y246361D01*
X110574D01*
X111361D01*
X112149Y245574D01*
Y244787D01*
X111361Y244000D01*
X109787D01*
X109000Y244787D01*
X113723Y248723D02*
Y245574D01*
X115297Y244000D01*
X116872Y245574D01*
Y248723D01*
X118446Y247936D02*
X119233Y248723D01*
X120807D01*
X121594Y247936D01*
Y247149D01*
X120807Y246361D01*
X120020D01*
X120807D01*
X121594Y245574D01*
Y244787D01*
X120807Y244000D01*
X119233D01*
X118446Y244787D01*
X112149Y207936D02*
X111361Y208723D01*
X109787D01*
X109000Y207936D01*
Y204787D01*
X109787Y204000D01*
X111361D01*
X112149Y204787D01*
Y206361D01*
X110574D01*
X113723Y204000D02*
Y208723D01*
X116872Y204000D01*
Y208723D01*
X118446D02*
Y204000D01*
X120807D01*
X121594Y204787D01*
Y207936D01*
X120807Y208723D01*
X118446D01*
X112149Y238723D02*
X109000D01*
Y236361D01*
X110574Y237149D01*
X111361D01*
X112149Y236361D01*
Y234787D01*
X111361Y234000D01*
X109787D01*
X109000Y234787D01*
X113723Y238723D02*
Y235574D01*
X115297Y234000D01*
X116872Y235574D01*
Y238723D01*
X112149Y217936D02*
X111361Y218723D01*
X109787D01*
X109000Y217936D01*
Y217149D01*
X109787Y216361D01*
X111361D01*
X112149Y215574D01*
Y214787D01*
X111361Y214000D01*
X109787D01*
X109000Y214787D01*
X113723Y218723D02*
Y214000D01*
X116084D01*
X116872Y214787D01*
Y217936D01*
X116084Y218723D01*
X113723D01*
X118446Y214000D02*
Y217149D01*
X120020Y218723D01*
X121594Y217149D01*
Y214000D01*
Y216361D01*
X118446D01*
X112149Y227936D02*
X111361Y228723D01*
X109787D01*
X109000Y227936D01*
Y227149D01*
X109787Y226361D01*
X111361D01*
X112149Y225574D01*
Y224787D01*
X111361Y224000D01*
X109787D01*
X109000Y224787D01*
X116872Y227936D02*
X116084Y228723D01*
X114510D01*
X113723Y227936D01*
Y224787D01*
X114510Y224000D01*
X116084D01*
X116872Y224787D01*
X118446Y228723D02*
Y224000D01*
X121594D01*
X68743Y117143D02*
Y113207D01*
X69530Y112420D01*
X71105D01*
X71892Y113207D01*
Y117143D01*
X73466D02*
X76615D01*
Y116355D01*
X73466Y113207D01*
Y112420D01*
X69856Y190743D02*
Y186807D01*
X70643Y186020D01*
X72217D01*
X73005Y186807D01*
Y190743D01*
X77727D02*
X76153Y189955D01*
X74579Y188381D01*
Y186807D01*
X75366Y186020D01*
X76940D01*
X77727Y186807D01*
Y187594D01*
X76940Y188381D01*
X74579D01*
X85433Y70768D02*
Y75491D01*
X87795D01*
X88582Y74704D01*
Y73129D01*
X87795Y72342D01*
X85433D01*
X87007D02*
X88582Y70768D01*
X90156Y74704D02*
X90943Y75491D01*
X92517D01*
X93305Y74704D01*
Y73916D01*
X92517Y73129D01*
X91730D01*
X92517D01*
X93305Y72342D01*
Y71555D01*
X92517Y70768D01*
X90943D01*
X90156Y71555D01*
X94879Y74704D02*
X95666Y75491D01*
X97240D01*
X98027Y74704D01*
Y71555D01*
X97240Y70768D01*
X95666D01*
X94879Y71555D01*
Y74704D01*
X85433Y79134D02*
Y83857D01*
X87795D01*
X88582Y83070D01*
Y81495D01*
X87795Y80708D01*
X85433D01*
X87007D02*
X88582Y79134D01*
X93305D02*
X90156D01*
X93305Y82282D01*
Y83070D01*
X92517Y83857D01*
X90943D01*
X90156Y83070D01*
X94879Y79921D02*
X95666Y79134D01*
X97240D01*
X98027Y79921D01*
Y83070D01*
X97240Y83857D01*
X95666D01*
X94879Y83070D01*
Y82282D01*
X95666Y81495D01*
X98027D01*
X46752Y92126D02*
Y96849D01*
X49113D01*
X49901Y96062D01*
Y94487D01*
X49113Y93700D01*
X46752D01*
X48326D02*
X49901Y92126D01*
X54623D02*
X51475D01*
X54623Y95275D01*
Y96062D01*
X53836Y96849D01*
X52262D01*
X51475Y96062D01*
X56198Y96849D02*
X59346D01*
Y96062D01*
X56198Y92913D01*
Y92126D01*
X46063Y127559D02*
Y132282D01*
X48424D01*
X49212Y131495D01*
Y129920D01*
X48424Y129133D01*
X46063D01*
X47637D02*
X49212Y127559D01*
X53935D02*
X50786D01*
X53935Y130708D01*
Y131495D01*
X53147Y132282D01*
X51573D01*
X50786Y131495D01*
X58657Y132282D02*
X55509D01*
Y129920D01*
X57083Y130708D01*
X57870D01*
X58657Y129920D01*
Y128346D01*
X57870Y127559D01*
X56296D01*
X55509Y128346D01*
X84646Y143701D02*
Y148424D01*
X87007D01*
X87794Y147636D01*
Y146062D01*
X87007Y145275D01*
X84646D01*
X86220D02*
X87794Y143701D01*
X92517D02*
X89369D01*
X92517Y146849D01*
Y147636D01*
X91730Y148424D01*
X90156D01*
X89369Y147636D01*
X94091D02*
X94879Y148424D01*
X96453D01*
X97240Y147636D01*
Y146849D01*
X96453Y146062D01*
X95666D01*
X96453D01*
X97240Y145275D01*
Y144488D01*
X96453Y143701D01*
X94879D01*
X94091Y144488D01*
X84646Y152559D02*
Y157282D01*
X87007D01*
X87794Y156495D01*
Y154920D01*
X87007Y154133D01*
X84646D01*
X86220D02*
X87794Y152559D01*
X92517D02*
X89369D01*
X92517Y155708D01*
Y156495D01*
X91730Y157282D01*
X90156D01*
X89369Y156495D01*
X97240Y152559D02*
X94091D01*
X97240Y155708D01*
Y156495D01*
X96453Y157282D01*
X94879D01*
X94091Y156495D01*
X32283Y172835D02*
Y177558D01*
X34645D01*
X35432Y176770D01*
Y175196D01*
X34645Y174409D01*
X32283D01*
X33858D02*
X35432Y172835D01*
X40155D02*
X37006D01*
X40155Y175983D01*
Y176770D01*
X39368Y177558D01*
X37793D01*
X37006Y176770D01*
X41729D02*
X42516Y177558D01*
X44091D01*
X44878Y176770D01*
Y173622D01*
X44091Y172835D01*
X42516D01*
X41729Y173622D01*
Y176770D01*
X131102Y136221D02*
X126380D01*
Y138582D01*
X127167Y139369D01*
X128741D01*
X129528Y138582D01*
Y136221D01*
Y137795D02*
X131102Y139369D01*
Y140943D02*
Y142518D01*
Y141730D01*
X126380D01*
X127167Y140943D01*
X130315Y144879D02*
X131102Y145666D01*
Y147240D01*
X130315Y148028D01*
X127167D01*
X126380Y147240D01*
Y145666D01*
X127167Y144879D01*
X127954D01*
X128741Y145666D01*
Y148028D01*
X64567Y143307D02*
X59844D01*
Y145668D01*
X60631Y146456D01*
X62205D01*
X62993Y145668D01*
Y143307D01*
Y144881D02*
X64567Y146456D01*
Y148030D02*
Y149604D01*
Y148817D01*
X59844D01*
X60631Y148030D01*
Y151966D02*
X59844Y152753D01*
Y154327D01*
X60631Y155114D01*
X61418D01*
X62205Y154327D01*
X62993Y155114D01*
X63780D01*
X64567Y154327D01*
Y152753D01*
X63780Y151966D01*
X62993D01*
X62205Y152753D01*
X61418Y151966D01*
X60631D01*
X62205Y152753D02*
Y154327D01*
X131102Y118504D02*
X126380D01*
Y120865D01*
X127167Y121652D01*
X128741D01*
X129528Y120865D01*
Y118504D01*
Y120078D02*
X131102Y121652D01*
Y123227D02*
Y124801D01*
Y124014D01*
X126380D01*
X127167Y123227D01*
X126380Y127163D02*
Y130311D01*
X127167D01*
X130315Y127163D01*
X131102D01*
X4600Y123200D02*
Y127923D01*
X6961D01*
X7749Y127136D01*
Y125561D01*
X6961Y124774D01*
X4600D01*
X9323Y123200D02*
X10897D01*
X10110D01*
Y127923D01*
X9323Y127136D01*
X16407Y127923D02*
X14833Y127136D01*
X13259Y125561D01*
Y123987D01*
X14046Y123200D01*
X15620D01*
X16407Y123987D01*
Y124774D01*
X15620Y125561D01*
X13259D01*
X5118Y87400D02*
X8267D01*
X6692D01*
Y82677D01*
X12202D02*
X10628D01*
X9841Y83464D01*
Y85039D01*
X10628Y85826D01*
X12202D01*
X12990Y85039D01*
Y84251D01*
X9841D01*
X14564Y82677D02*
Y85826D01*
X15351D01*
X16138Y85039D01*
Y82677D01*
Y85039D01*
X16925Y85826D01*
X17713Y85039D01*
Y82677D01*
X19287Y81103D02*
Y85826D01*
X21648D01*
X22435Y85039D01*
Y83464D01*
X21648Y82677D01*
X19287D01*
X28732Y87400D02*
Y82677D01*
X31881D01*
X4600Y180300D02*
Y185023D01*
X6961D01*
X7749Y184236D01*
Y182661D01*
X6961Y181874D01*
X4600D01*
X9323Y180300D02*
X10897D01*
X10110D01*
Y185023D01*
X9323Y184236D01*
X16407Y185023D02*
X13259D01*
Y182661D01*
X14833Y183449D01*
X15620D01*
X16407Y182661D01*
Y181087D01*
X15620Y180300D01*
X14046D01*
X13259Y181087D01*
X4331Y144880D02*
X7479D01*
X5905D01*
Y140157D01*
X11415D02*
X9841D01*
X9054Y140945D01*
Y142519D01*
X9841Y143306D01*
X11415D01*
X12202Y142519D01*
Y141732D01*
X9054D01*
X13777Y140157D02*
Y143306D01*
X14564D01*
X15351Y142519D01*
Y140157D01*
Y142519D01*
X16138Y143306D01*
X16925Y142519D01*
Y140157D01*
X18499Y138583D02*
Y143306D01*
X20861D01*
X21648Y142519D01*
Y140945D01*
X20861Y140157D01*
X18499D01*
X27945D02*
Y144880D01*
X30307D01*
X31094Y144093D01*
Y142519D01*
X30307Y141732D01*
X27945D01*
X29519D02*
X31094Y140157D01*
X88582Y91731D02*
X87795Y92518D01*
X86220D01*
X85433Y91731D01*
Y88582D01*
X86220Y87795D01*
X87795D01*
X88582Y88582D01*
X90156Y87795D02*
X91730D01*
X90943D01*
Y92518D01*
X90156Y91731D01*
X94092D02*
X94879Y92518D01*
X96453D01*
X97240Y91731D01*
Y90944D01*
X96453Y90157D01*
X97240Y89370D01*
Y88582D01*
X96453Y87795D01*
X94879D01*
X94092Y88582D01*
Y89370D01*
X94879Y90157D01*
X94092Y90944D01*
Y91731D01*
X94879Y90157D02*
X96453D01*
X87794Y165353D02*
X87007Y166140D01*
X85433D01*
X84646Y165353D01*
Y162205D01*
X85433Y161417D01*
X87007D01*
X87794Y162205D01*
X89369Y161417D02*
X90943D01*
X90156D01*
Y166140D01*
X89369Y165353D01*
X96453Y166140D02*
X93304D01*
Y163779D01*
X94879Y164566D01*
X95666D01*
X96453Y163779D01*
Y162205D01*
X95666Y161417D01*
X94091D01*
X93304Y162205D01*
X145749Y246236D02*
X144961Y247023D01*
X143387D01*
X142600Y246236D01*
Y243087D01*
X143387Y242300D01*
X144961D01*
X145749Y243087D01*
X147323Y242300D02*
X148897D01*
X148110D01*
Y247023D01*
X147323Y246236D01*
X151259Y242300D02*
X152833D01*
X152046D01*
Y247023D01*
X151259Y246236D01*
X108268Y90353D02*
Y86417D01*
X109055Y85630D01*
X110629D01*
X111416Y86417D01*
Y90353D01*
X115352Y85630D02*
Y90353D01*
X112991Y87991D01*
X116139D01*
X146850Y79134D02*
Y83857D01*
X149212D01*
X149999Y83070D01*
Y81495D01*
X149212Y80708D01*
X146850D01*
X148425D02*
X149999Y79134D01*
X151573D02*
X153148D01*
X152360D01*
Y83857D01*
X151573Y83070D01*
X158658Y83857D02*
X157083Y83070D01*
X155509Y81495D01*
Y79921D01*
X156296Y79134D01*
X157870D01*
X158658Y79921D01*
Y80708D01*
X157870Y81495D01*
X155509D01*
X28543Y62992D02*
X23820D01*
Y65354D01*
X24608Y66141D01*
X26182D01*
X26969Y65354D01*
Y62992D01*
Y64566D02*
X28543Y66141D01*
Y70076D02*
X23820D01*
X26182Y67715D01*
Y70864D01*
X38200Y66100D02*
Y70823D01*
X40561D01*
X41349Y70036D01*
Y68461D01*
X40561Y67674D01*
X38200D01*
X42923Y70823D02*
X46071D01*
Y70036D01*
X42923Y66887D01*
Y66100D01*
X7874Y34646D02*
Y39369D01*
X10236D01*
X11023Y38581D01*
Y37007D01*
X10236Y36220D01*
X7874D01*
X15745Y39369D02*
X14171Y38581D01*
X12597Y37007D01*
Y35433D01*
X13384Y34646D01*
X14958D01*
X15745Y35433D01*
Y36220D01*
X14958Y37007D01*
X12597D01*
X107100Y66100D02*
Y70823D01*
X109461D01*
X110249Y70036D01*
Y68461D01*
X109461Y67674D01*
X107100D01*
X114184Y66100D02*
Y70823D01*
X111823Y68461D01*
X114971D01*
X342126Y56693D02*
Y61416D01*
X344487D01*
X345275Y60629D01*
Y59054D01*
X344487Y58267D01*
X342126D01*
X343700D02*
X345275Y56693D01*
X346849D02*
X348423D01*
X347636D01*
Y61416D01*
X346849Y60629D01*
X353933Y61416D02*
X350785D01*
Y59054D01*
X352359Y59842D01*
X353146D01*
X353933Y59054D01*
Y57480D01*
X353146Y56693D01*
X351572D01*
X350785Y57480D01*
X342126Y44488D02*
Y49211D01*
X344487D01*
X345275Y48424D01*
Y46850D01*
X344487Y46062D01*
X342126D01*
X343700D02*
X345275Y44488D01*
X346849D02*
X348423D01*
X347636D01*
Y49211D01*
X346849Y48424D01*
X353146Y44488D02*
Y49211D01*
X350785Y46850D01*
X353933D01*
X342126Y31496D02*
Y36219D01*
X344487D01*
X345275Y35432D01*
Y33858D01*
X344487Y33070D01*
X342126D01*
X343700D02*
X345275Y31496D01*
X346849D02*
X348423D01*
X347636D01*
Y36219D01*
X346849Y35432D01*
X350785D02*
X351572Y36219D01*
X353146D01*
X353933Y35432D01*
Y34645D01*
X353146Y33858D01*
X352359D01*
X353146D01*
X353933Y33070D01*
Y32283D01*
X353146Y31496D01*
X351572D01*
X350785Y32283D01*
X395276Y61809D02*
Y57087D01*
X397637D01*
X398424Y57874D01*
Y61022D01*
X397637Y61809D01*
X395276D01*
X399998D02*
X403147D01*
Y61022D01*
X399998Y57874D01*
Y57087D01*
X395276Y49211D02*
Y44488D01*
X397637D01*
X398424Y45275D01*
Y48424D01*
X397637Y49211D01*
X395276D01*
X403147D02*
X401573Y48424D01*
X399998Y46850D01*
Y45275D01*
X400786Y44488D01*
X402360D01*
X403147Y45275D01*
Y46062D01*
X402360Y46850D01*
X399998D01*
X395276Y35825D02*
Y31102D01*
X397637D01*
X398424Y31890D01*
Y35038D01*
X397637Y35825D01*
X395276D01*
X403147D02*
X399998D01*
Y33464D01*
X401573Y34251D01*
X402360D01*
X403147Y33464D01*
Y31890D01*
X402360Y31102D01*
X400786D01*
X399998Y31890D01*
X426378Y104724D02*
X431101D01*
Y102363D01*
X430314Y101576D01*
X428739D01*
X427952Y102363D01*
Y104724D01*
Y103150D02*
X426378Y101576D01*
Y100002D02*
Y98427D01*
Y99214D01*
X431101D01*
X430314Y100002D01*
X426378Y92917D02*
Y96066D01*
X429527Y92917D01*
X430314D01*
X431101Y93704D01*
Y95279D01*
X430314Y96066D01*
X409448Y99214D02*
X410235Y100001D01*
Y101575D01*
X409448Y102362D01*
X406299D01*
X405512Y101575D01*
Y100001D01*
X406299Y99214D01*
X405512Y97639D02*
Y96065D01*
Y96852D01*
X410235D01*
X409448Y97639D01*
X405512Y90555D02*
Y93704D01*
X408660Y90555D01*
X409448D01*
X410235Y91342D01*
Y92916D01*
X409448Y93704D01*
X224411Y61024D02*
X228347D01*
X229134Y61811D01*
Y63385D01*
X228347Y64172D01*
X224411D01*
X229134Y68895D02*
Y65746D01*
X225985Y68895D01*
X225198D01*
X224411Y68108D01*
Y66534D01*
X225198Y65746D01*
X178347Y95669D02*
X173624D01*
Y98031D01*
X174411Y98818D01*
X175985D01*
X176772Y98031D01*
Y95669D01*
Y97244D02*
X178347Y98818D01*
Y100392D02*
Y101967D01*
Y101179D01*
X173624D01*
X174411Y100392D01*
X178347Y104328D02*
Y105902D01*
Y105115D01*
X173624D01*
X174411Y104328D01*
X209055Y94882D02*
X204332D01*
Y97243D01*
X205119Y98031D01*
X206694D01*
X207481Y97243D01*
Y94882D01*
Y96456D02*
X209055Y98031D01*
Y99605D02*
Y101179D01*
Y100392D01*
X204332D01*
X205119Y99605D01*
Y103541D02*
X204332Y104328D01*
Y105902D01*
X205119Y106689D01*
X208268D01*
X209055Y105902D01*
Y104328D01*
X208268Y103541D01*
X205119D01*
X173624Y77165D02*
X178347D01*
Y79527D01*
X177559Y80314D01*
X174411D01*
X173624Y79527D01*
Y77165D01*
X178347Y84250D02*
X173624D01*
X175985Y81888D01*
Y85037D01*
X205907Y75984D02*
X210630D01*
Y78346D01*
X209843Y79133D01*
X206694D01*
X205907Y78346D01*
Y75984D01*
X206694Y80707D02*
X205907Y81494D01*
Y83069D01*
X206694Y83856D01*
X207481D01*
X208268Y83069D01*
Y82281D01*
Y83069D01*
X209056Y83856D01*
X209843D01*
X210630Y83069D01*
Y81494D01*
X209843Y80707D01*
X413677Y179156D02*
Y175220D01*
X414464Y174433D01*
X416039D01*
X416826Y175220D01*
Y179156D01*
X418400Y178369D02*
X419187Y179156D01*
X420761D01*
X421549Y178369D01*
Y177582D01*
X420761Y176794D01*
X419974D01*
X420761D01*
X421549Y176007D01*
Y175220D01*
X420761Y174433D01*
X419187D01*
X418400Y175220D01*
X402362Y132676D02*
Y127953D01*
X404724D01*
X405511Y128740D01*
Y131888D01*
X404724Y132676D01*
X402362D01*
X410234Y127953D02*
X407085D01*
X410234Y131101D01*
Y131888D01*
X409446Y132676D01*
X407872D01*
X407085Y131888D01*
X436614Y98425D02*
X441337D01*
Y96064D01*
X440550Y95277D01*
X438976D01*
X438189Y96064D01*
Y98425D01*
Y96851D02*
X436614Y95277D01*
X440550Y93702D02*
X441337Y92915D01*
Y91341D01*
X440550Y90554D01*
X439763D01*
X438976Y91341D01*
Y92128D01*
Y91341D01*
X438189Y90554D01*
X437401D01*
X436614Y91341D01*
Y92915D01*
X437401Y93702D01*
X450786Y81102D02*
X446063D01*
Y78741D01*
X446850Y77954D01*
X449999D01*
X450786Y78741D01*
Y81102D01*
X446063Y76380D02*
Y74805D01*
Y75592D01*
X450786D01*
X449999Y76380D01*
X416142Y198425D02*
Y203148D01*
X418503D01*
X419290Y202361D01*
Y200787D01*
X418503Y199999D01*
X416142D01*
X417716D02*
X419290Y198425D01*
X420865Y199212D02*
X421652Y198425D01*
X423226D01*
X424013Y199212D01*
Y202361D01*
X423226Y203148D01*
X421652D01*
X420865Y202361D01*
Y201574D01*
X421652Y200787D01*
X424013D01*
X186500Y238000D02*
X181777D01*
Y240361D01*
X182564Y241149D01*
X184139D01*
X184926Y240361D01*
Y238000D01*
Y239574D02*
X186500Y241149D01*
X181777Y245871D02*
X182564Y244297D01*
X184139Y242723D01*
X185713D01*
X186500Y243510D01*
Y245084D01*
X185713Y245871D01*
X184926D01*
X184139Y245084D01*
Y242723D01*
X136200Y205123D02*
Y201187D01*
X136987Y200400D01*
X138561D01*
X139349Y201187D01*
Y205123D01*
X144071D02*
X140923D01*
Y202761D01*
X142497Y203549D01*
X143284D01*
X144071Y202761D01*
Y201187D01*
X143284Y200400D01*
X141710D01*
X140923Y201187D01*
X74000Y255000D02*
X69277D01*
Y257361D01*
X70064Y258149D01*
X71639D01*
X72426Y257361D01*
Y255000D01*
X74000Y259723D02*
Y261297D01*
Y260510D01*
X69277D01*
X70064Y259723D01*
X74000Y263659D02*
Y265233D01*
Y264446D01*
X69277D01*
X70064Y263659D01*
X46000Y255000D02*
X41277D01*
Y257361D01*
X42064Y258149D01*
X43639D01*
X44426Y257361D01*
Y255000D01*
X46000Y259723D02*
Y261297D01*
Y260510D01*
X41277D01*
X42064Y259723D01*
Y263659D02*
X41277Y264446D01*
Y266020D01*
X42064Y266807D01*
X42851D01*
X43639Y266020D01*
Y265233D01*
Y266020D01*
X44426Y266807D01*
X45213D01*
X46000Y266020D01*
Y264446D01*
X45213Y263659D01*
X33000Y255000D02*
X28277D01*
Y257361D01*
X29064Y258149D01*
X30639D01*
X31426Y257361D01*
Y255000D01*
X33000Y259723D02*
Y261297D01*
Y260510D01*
X28277D01*
X29064Y259723D01*
X33000Y266020D02*
X28277D01*
X30639Y263659D01*
Y266807D01*
X60000Y255000D02*
X55277D01*
Y257361D01*
X56064Y258149D01*
X57639D01*
X58426Y257361D01*
Y255000D01*
X60000Y259723D02*
Y261297D01*
Y260510D01*
X55277D01*
X56064Y259723D01*
X60000Y266807D02*
Y263659D01*
X56851Y266807D01*
X56064D01*
X55277Y266020D01*
Y264446D01*
X56064Y263659D01*
X88000Y255000D02*
X83277D01*
Y257361D01*
X84064Y258149D01*
X85639D01*
X86426Y257361D01*
Y255000D01*
X88000Y259723D02*
Y261297D01*
Y260510D01*
X83277D01*
X84064Y259723D01*
Y263659D02*
X83277Y264446D01*
Y266020D01*
X84064Y266807D01*
X87213D01*
X88000Y266020D01*
Y264446D01*
X87213Y263659D01*
X84064D01*
X102000Y255000D02*
X97277D01*
Y257361D01*
X98064Y258149D01*
X99639D01*
X100426Y257361D01*
Y255000D01*
X101213Y259723D02*
X102000Y260510D01*
Y262084D01*
X101213Y262872D01*
X98064D01*
X97277Y262084D01*
Y260510D01*
X98064Y259723D01*
X98851D01*
X99639Y260510D01*
Y262872D01*
X302047Y323937D02*
Y328660D01*
X304409D01*
X305196Y327873D01*
Y326298D01*
X304409Y325511D01*
X302047D01*
X306770Y327873D02*
X307557Y328660D01*
X309132D01*
X309919Y327873D01*
Y327086D01*
X309132Y326298D01*
X309919Y325511D01*
Y324724D01*
X309132Y323937D01*
X307557D01*
X306770Y324724D01*
Y325511D01*
X307557Y326298D01*
X306770Y327086D01*
Y327873D01*
X307557Y326298D02*
X309132D01*
X175000Y238000D02*
X170277D01*
Y240361D01*
X171064Y241149D01*
X172639D01*
X173426Y240361D01*
Y238000D01*
Y239574D02*
X175000Y241149D01*
X170277Y245871D02*
Y242723D01*
X172639D01*
X171851Y244297D01*
Y245084D01*
X172639Y245871D01*
X174213D01*
X175000Y245084D01*
Y243510D01*
X174213Y242723D01*
X215277Y282000D02*
X219213D01*
X220000Y282787D01*
Y284361D01*
X219213Y285149D01*
X215277D01*
X220000Y286723D02*
Y288297D01*
Y287510D01*
X215277D01*
X216064Y286723D01*
X384646Y214567D02*
Y219290D01*
X387007D01*
X387794Y218503D01*
Y216928D01*
X387007Y216141D01*
X384646D01*
X392517Y219290D02*
X389369D01*
Y216928D01*
X390943Y217716D01*
X391730D01*
X392517Y216928D01*
Y215354D01*
X391730Y214567D01*
X390156D01*
X389369Y215354D01*
X251574Y10235D02*
X250787Y11022D01*
X249212D01*
X248425Y10235D01*
Y7086D01*
X249212Y6299D01*
X250787D01*
X251574Y7086D01*
X253148D02*
X253935Y6299D01*
X255509D01*
X256297Y7086D01*
Y10235D01*
X255509Y11022D01*
X253935D01*
X253148Y10235D01*
Y9448D01*
X253935Y8661D01*
X256297D01*
X412205Y324016D02*
Y328739D01*
X414566D01*
X415353Y327952D01*
Y326377D01*
X414566Y325590D01*
X412205D01*
X416928Y327952D02*
X417715Y328739D01*
X419289D01*
X420076Y327952D01*
Y327164D01*
X419289Y326377D01*
X418502D01*
X419289D01*
X420076Y325590D01*
Y324803D01*
X419289Y324016D01*
X417715D01*
X416928Y324803D01*
X248839Y322795D02*
Y327518D01*
X251200D01*
X251987Y326731D01*
Y325157D01*
X251200Y324370D01*
X248839D01*
X253561Y322795D02*
X255136D01*
X254349D01*
Y327518D01*
X253561Y326731D01*
X111000Y323000D02*
Y327723D01*
X113361D01*
X114149Y326936D01*
Y325361D01*
X113361Y324574D01*
X111000D01*
X118871Y323000D02*
X115723D01*
X118871Y326149D01*
Y326936D01*
X118084Y327723D01*
X116510D01*
X115723Y326936D01*
X459449Y198819D02*
Y203542D01*
X461810D01*
X462597Y202755D01*
Y201180D01*
X461810Y200393D01*
X459449D01*
X461023D02*
X462597Y198819D01*
X467320D02*
X464172D01*
X467320Y201968D01*
Y202755D01*
X466533Y203542D01*
X464959D01*
X464172Y202755D01*
X459449Y190157D02*
Y194880D01*
X461810D01*
X462597Y194093D01*
Y192519D01*
X461810Y191732D01*
X459449D01*
X461023D02*
X462597Y190157D01*
X464172D02*
X465746D01*
X464959D01*
Y194880D01*
X464172Y194093D01*
X462598Y136219D02*
Y131496D01*
X465747D01*
X467321D02*
X468896D01*
X468109D01*
Y136219D01*
X467321Y135432D01*
X457873Y175196D02*
X457086Y175983D01*
X455512D01*
X454724Y175196D01*
Y172047D01*
X455512Y171260D01*
X457086D01*
X457873Y172047D01*
X459447Y175196D02*
X460234Y175983D01*
X461809D01*
X462596Y175196D01*
Y174408D01*
X461809Y173621D01*
X462596Y172834D01*
Y172047D01*
X461809Y171260D01*
X460234D01*
X459447Y172047D01*
Y172834D01*
X460234Y173621D01*
X459447Y174408D01*
Y175196D01*
X460234Y173621D02*
X461809D01*
X453101Y95580D02*
X453888Y96367D01*
Y97941D01*
X453101Y98728D01*
X449953D01*
X449165Y97941D01*
Y96367D01*
X449953Y95580D01*
X453888Y94006D02*
Y90857D01*
X453101D01*
X449953Y94006D01*
X449165D01*
X464487Y95761D02*
X465274Y96548D01*
Y98122D01*
X464487Y98909D01*
X461338D01*
X460551Y98122D01*
Y96548D01*
X461338Y95761D01*
X465274Y91038D02*
X464487Y92612D01*
X462913Y94187D01*
X461338D01*
X460551Y93399D01*
Y91825D01*
X461338Y91038D01*
X462125D01*
X462913Y91825D01*
Y94187D01*
X418007Y157235D02*
X417220Y158022D01*
X415645D01*
X414858Y157235D01*
Y154086D01*
X415645Y153299D01*
X417220D01*
X418007Y154086D01*
X422730Y158022D02*
X419581D01*
Y155661D01*
X421155Y156448D01*
X421943D01*
X422730Y155661D01*
Y154086D01*
X421943Y153299D01*
X420368D01*
X419581Y154086D01*
X368929Y237219D02*
X368142Y236432D01*
Y234857D01*
X368929Y234070D01*
X372077D01*
X372865Y234857D01*
Y236432D01*
X372077Y237219D01*
X372865Y241154D02*
X368142D01*
X370503Y238793D01*
Y241942D01*
X463285Y238919D02*
X462498Y238131D01*
Y236557D01*
X463285Y235770D01*
X466434D01*
X467221Y236557D01*
Y238131D01*
X466434Y238919D01*
X463285Y240493D02*
X462498Y241280D01*
Y242854D01*
X463285Y243642D01*
X464073D01*
X464860Y242854D01*
Y242067D01*
Y242854D01*
X465647Y243642D01*
X466434D01*
X467221Y242854D01*
Y241280D01*
X466434Y240493D01*
X208064Y242149D02*
X207277Y241361D01*
Y239787D01*
X208064Y239000D01*
X211213D01*
X212000Y239787D01*
Y241361D01*
X211213Y242149D01*
X212000Y246871D02*
Y243723D01*
X208851Y246871D01*
X208064D01*
X207277Y246084D01*
Y244510D01*
X208064Y243723D01*
X198064Y242149D02*
X197277Y241361D01*
Y239787D01*
X198064Y239000D01*
X201213D01*
X202000Y239787D01*
Y241361D01*
X201213Y242149D01*
X202000Y243723D02*
Y245297D01*
Y244510D01*
X197277D01*
X198064Y243723D01*
M02*
