G04*
G04 #@! TF.GenerationSoftware,Altium Limited,Altium Designer,20.0.12 (288)*
G04*
G04 Layer_Color=12632256*
%FSLAX25Y25*%
%MOIN*%
G70*
G01*
G75*
%ADD50C,0.05906*%
%ADD51R,0.05906X0.05906*%
%ADD52R,0.05906X0.05906*%
%ADD53C,0.25197*%
%ADD54C,0.06000*%
%ADD55R,0.06000X0.06000*%
D50*
X265800Y27200D02*
D03*
X255800D02*
D03*
X265800Y92200D02*
D03*
X255800D02*
D03*
X285800Y27200D02*
D03*
X275800D02*
D03*
X285800Y92200D02*
D03*
X275800D02*
D03*
X305800Y27200D02*
D03*
X295800D02*
D03*
X305800Y92200D02*
D03*
X295800D02*
D03*
X315800D02*
D03*
X325800D02*
D03*
X315800Y27200D02*
D03*
X325800D02*
D03*
X145858Y127142D02*
D03*
X155858D02*
D03*
X165858D02*
D03*
X175858D02*
D03*
X185858D02*
D03*
X195858D02*
D03*
X205858D02*
D03*
X215858D02*
D03*
X225858D02*
D03*
X235858D02*
D03*
X245858D02*
D03*
X255858D02*
D03*
X265858D02*
D03*
X275858D02*
D03*
Y187142D02*
D03*
X265858D02*
D03*
X255858D02*
D03*
X245858D02*
D03*
X235858D02*
D03*
X225858D02*
D03*
X215858D02*
D03*
X205858D02*
D03*
X195858D02*
D03*
X185858D02*
D03*
X175858D02*
D03*
X295858Y127142D02*
D03*
X305858D02*
D03*
X315858D02*
D03*
X325858D02*
D03*
X335858D02*
D03*
X345858D02*
D03*
X355858D02*
D03*
X365858D02*
D03*
X375858D02*
D03*
Y187142D02*
D03*
X365858D02*
D03*
X355858D02*
D03*
X345858D02*
D03*
X335858D02*
D03*
X325858D02*
D03*
X315858D02*
D03*
X285858Y127142D02*
D03*
X165858Y187142D02*
D03*
X155858D02*
D03*
X145858D02*
D03*
X285858D02*
D03*
X295858D02*
D03*
X305858D02*
D03*
X17717Y100394D02*
D03*
Y110236D02*
D03*
Y157480D02*
D03*
Y167323D02*
D03*
X29000Y247000D02*
D03*
Y217000D02*
D03*
Y227000D02*
D03*
Y237000D02*
D03*
X43000Y247000D02*
D03*
Y217000D02*
D03*
Y227000D02*
D03*
Y237000D02*
D03*
X57000Y247000D02*
D03*
Y217000D02*
D03*
Y227000D02*
D03*
Y237000D02*
D03*
X71000Y247000D02*
D03*
Y217000D02*
D03*
Y227000D02*
D03*
Y237000D02*
D03*
X85000Y247000D02*
D03*
Y217000D02*
D03*
Y227000D02*
D03*
Y237000D02*
D03*
X99000Y247000D02*
D03*
Y217000D02*
D03*
Y227000D02*
D03*
Y237000D02*
D03*
X11811Y69055D02*
D03*
Y59055D02*
D03*
X155858Y217142D02*
D03*
X165858D02*
D03*
X175858D02*
D03*
X185858D02*
D03*
X225858D02*
D03*
X215858D02*
D03*
X205858D02*
D03*
X195858D02*
D03*
X265858D02*
D03*
X255858D02*
D03*
X245858D02*
D03*
X235858D02*
D03*
X305858D02*
D03*
X295858D02*
D03*
X285858D02*
D03*
X275858D02*
D03*
X345858D02*
D03*
X355858D02*
D03*
X365858D02*
D03*
X315858D02*
D03*
X325858D02*
D03*
X335858D02*
D03*
X145858D02*
D03*
D51*
X29000Y207000D02*
D03*
X43000D02*
D03*
X57000D02*
D03*
X71000D02*
D03*
X85000D02*
D03*
X99000D02*
D03*
X11811Y49055D02*
D03*
D52*
X375858Y217142D02*
D03*
D53*
X322047Y303937D02*
D03*
Y275590D02*
D03*
X417323Y273622D02*
D03*
Y301969D02*
D03*
X130878Y303642D02*
D03*
Y275295D02*
D03*
X267717Y303937D02*
D03*
Y275590D02*
D03*
D54*
X46398Y19783D02*
D03*
X86398D02*
D03*
X63898Y54783D02*
D03*
X73898D02*
D03*
X58898Y44783D02*
D03*
X68898D02*
D03*
X78898D02*
D03*
X115295Y19783D02*
D03*
X155295D02*
D03*
X132795Y54783D02*
D03*
X142795D02*
D03*
X127795Y44783D02*
D03*
X137795D02*
D03*
X147795D02*
D03*
X15748Y15748D02*
D03*
X462598Y322835D02*
D03*
X460630Y13780D02*
D03*
X13780Y322835D02*
D03*
D55*
X53898Y54783D02*
D03*
X122795D02*
D03*
M02*
