G04*
G04 #@! TF.GenerationSoftware,Altium Limited,Altium Designer,20.0.12 (288)*
G04*
G04 Layer_Color=32768*
%FSLAX25Y25*%
%MOIN*%
G70*
G01*
G75*
%ADD10C,0.01000*%
%ADD57C,0.00394*%
%ADD58C,0.00197*%
D10*
X37898Y19783D02*
Y62783D01*
X94398D01*
Y-12106D02*
Y62783D01*
X37898Y-12106D02*
X94398D01*
X37898D02*
Y20283D01*
X106795Y19783D02*
Y62783D01*
X163295D01*
Y-12106D02*
Y62783D01*
X106795Y-12106D02*
X163295D01*
X106795D02*
Y20283D01*
D57*
X73819Y90354D02*
X77756D01*
X75787Y88386D02*
Y92323D01*
X73819Y164370D02*
X77756D01*
X75787Y162402D02*
Y166339D01*
X417323Y94882D02*
Y98819D01*
X415354Y96850D02*
X419291D01*
X145669Y230709D02*
Y234646D01*
X143701Y232677D02*
X147638D01*
X130905Y107283D02*
Y111221D01*
X128937Y109252D02*
X132874D01*
X264390Y9000D02*
X268327D01*
X266358Y7031D02*
Y10968D01*
X447638Y171653D02*
Y175591D01*
X445669Y173622D02*
X449606D01*
X452165Y105118D02*
Y109055D01*
X450197Y107087D02*
X454134D01*
X463551Y105299D02*
Y109236D01*
X461583Y107268D02*
X465520D01*
X431890Y156299D02*
X435827D01*
X433858Y154331D02*
Y158268D01*
X209000Y255390D02*
Y259327D01*
X207032Y257358D02*
X210969D01*
X199000Y255390D02*
Y259327D01*
X197032Y257358D02*
X200969D01*
X73819Y72638D02*
X77756D01*
X75787Y70669D02*
Y74606D01*
X73819Y81496D02*
X77756D01*
X75787Y79528D02*
Y83465D01*
X50295Y101969D02*
X54232D01*
X52264Y100000D02*
Y103937D01*
X65354Y129921D02*
X69291D01*
X67323Y127953D02*
Y131890D01*
X73819Y146653D02*
X77756D01*
X75787Y144685D02*
Y148622D01*
X73819Y155512D02*
X77756D01*
X75787Y153543D02*
Y157480D01*
X36417Y167323D02*
X40354D01*
X38386Y165354D02*
Y169291D01*
X121063Y139764D02*
Y143701D01*
X119095Y141732D02*
X123031D01*
X62205Y161024D02*
Y164961D01*
X60236Y162992D02*
X64173D01*
X121063Y122047D02*
Y125984D01*
X119095Y124016D02*
X123031D01*
X150591Y73819D02*
X154528D01*
X152559Y71850D02*
Y75787D01*
X362992Y59449D02*
X366929D01*
X364961Y57480D02*
Y61417D01*
X363386Y46850D02*
X367323D01*
X365354Y44882D02*
Y48819D01*
X362992Y33858D02*
X366929D01*
X364961Y31890D02*
Y35827D01*
X424803Y109843D02*
X428740D01*
X426772Y107874D02*
Y111811D01*
X183858Y98032D02*
Y101969D01*
X181890Y100000D02*
X185827D01*
X198425Y98032D02*
Y101969D01*
X196457Y100000D02*
X200394D01*
X431398Y200787D02*
X435335D01*
X433366Y198819D02*
Y202756D01*
X123673Y217000D02*
X127610D01*
X125642Y215032D02*
Y218969D01*
X123673Y208000D02*
X127610D01*
X125642Y206031D02*
Y209968D01*
X183500Y254673D02*
Y258610D01*
X181532Y256642D02*
X185468D01*
X173000Y254673D02*
Y258610D01*
X171031Y256642D02*
X174969D01*
X25591Y50492D02*
Y54429D01*
X23622Y52461D02*
X27559D01*
X439764Y104331D02*
Y108268D01*
X437795Y106299D02*
X441732D01*
X448032Y201181D02*
X451968D01*
X450000Y199213D02*
Y203150D01*
X448032Y192520D02*
X451968D01*
X450000Y190551D02*
Y194488D01*
X132874Y83661D02*
Y87598D01*
X130905Y85630D02*
X134843D01*
X199031Y286000D02*
X202969D01*
X201000Y284032D02*
Y287968D01*
X383169Y57480D02*
Y61417D01*
X381201Y59449D02*
X385138D01*
X383169Y44882D02*
Y48819D01*
X381201Y46850D02*
X385138D01*
X383169Y31890D02*
Y35827D01*
X381201Y33858D02*
X385138D01*
X181890Y81201D02*
X185827D01*
X183858Y79232D02*
Y83169D01*
X196457Y81201D02*
X200394D01*
X198425Y79232D02*
Y83169D01*
X437795Y77854D02*
X441732D01*
X439764Y75886D02*
Y79823D01*
D58*
X69095Y86614D02*
Y94095D01*
X82480Y86614D02*
Y94095D01*
X69095D02*
X82480D01*
X69095Y86614D02*
X82480D01*
X69095Y160630D02*
Y168110D01*
X82480Y160630D02*
Y168110D01*
X69095D02*
X82480D01*
X69095Y160630D02*
X82480D01*
X413583Y103543D02*
X421063D01*
X413583Y90158D02*
X421063D01*
Y103543D01*
X413583Y90158D02*
Y103543D01*
X141929Y239370D02*
X149409D01*
X141929Y225984D02*
X149409D01*
Y239370D01*
X141929Y225984D02*
Y239370D01*
X127165Y102559D02*
X134646D01*
X127165Y115945D02*
X134646D01*
X127165Y102559D02*
Y115945D01*
X134646Y102559D02*
Y115945D01*
X273051Y5260D02*
Y12740D01*
X259665Y5260D02*
Y12740D01*
Y5260D02*
X273051D01*
X259665Y12740D02*
X273051D01*
X443898Y180315D02*
X451378D01*
X443898Y166929D02*
X451378D01*
Y180315D01*
X443898Y166929D02*
Y180315D01*
X448425Y113779D02*
X455905D01*
X448425Y100394D02*
X455905D01*
Y113779D01*
X448425Y100394D02*
Y113779D01*
X459811Y113961D02*
X467291D01*
X459811Y100575D02*
X467291D01*
Y113961D01*
X459811Y100575D02*
Y113961D01*
X440551Y152559D02*
Y160039D01*
X427165Y152559D02*
Y160039D01*
Y152559D02*
X440551D01*
X427165Y160039D02*
X440551D01*
X205260Y264051D02*
X212740D01*
X205260Y250665D02*
X212740D01*
Y264051D01*
X205260Y250665D02*
Y264051D01*
X195260Y264051D02*
X202740D01*
X195260Y250665D02*
X202740D01*
Y264051D01*
X195260Y250665D02*
Y264051D01*
X82480Y69095D02*
Y76181D01*
X69095Y69095D02*
Y76181D01*
Y69095D02*
X82480D01*
X69095Y76181D02*
X82480D01*
Y77953D02*
Y85039D01*
X69095Y77953D02*
Y85039D01*
Y77953D02*
X82480D01*
X69095Y85039D02*
X82480D01*
X45571Y98425D02*
Y105512D01*
X58957Y98425D02*
Y105512D01*
X45571D02*
X58957D01*
X45571Y98425D02*
X58957D01*
X60630Y126378D02*
Y133465D01*
X74016Y126378D02*
Y133465D01*
X60630D02*
X74016D01*
X60630Y126378D02*
X74016D01*
X69095Y143110D02*
Y150197D01*
X82480Y143110D02*
Y150197D01*
X69095D02*
X82480D01*
X69095Y143110D02*
X82480D01*
X82480Y151969D02*
Y159055D01*
X69095Y151969D02*
Y159055D01*
Y151969D02*
X82480D01*
X69095Y159055D02*
X82480D01*
X31693Y163779D02*
Y170866D01*
X45079Y163779D02*
Y170866D01*
X31693D02*
X45079D01*
X31693Y163779D02*
X45079D01*
X117520Y148425D02*
X124606D01*
X117520Y135039D02*
X124606D01*
Y148425D01*
X117520Y135039D02*
Y148425D01*
X58661Y169685D02*
X65748D01*
X58661Y156299D02*
X65748D01*
Y169685D01*
X58661Y156299D02*
Y169685D01*
X117520Y130709D02*
X124606D01*
X117520Y117323D02*
X124606D01*
Y130709D01*
X117520Y117323D02*
Y130709D01*
X159252Y70276D02*
Y77362D01*
X145866Y70276D02*
Y77362D01*
Y70276D02*
X159252D01*
X145866Y77362D02*
X159252D01*
X371654Y55905D02*
Y62992D01*
X358268Y55905D02*
Y62992D01*
Y55905D02*
X371654D01*
X358268Y62992D02*
X371654D01*
X372047Y43307D02*
Y50394D01*
X358661Y43307D02*
Y50394D01*
Y43307D02*
X372047D01*
X358661Y50394D02*
X372047D01*
X371654Y30315D02*
Y37402D01*
X358268Y30315D02*
Y37402D01*
Y30315D02*
X371654D01*
X358268Y37402D02*
X371654D01*
X433465Y106299D02*
Y113386D01*
X420079Y106299D02*
Y113386D01*
Y106299D02*
X433465D01*
X420079Y113386D02*
X433465D01*
X180315Y106693D02*
X187402D01*
X180315Y93307D02*
X187402D01*
Y106693D01*
X180315Y93307D02*
Y106693D01*
X194882D02*
X201969D01*
X194882Y93307D02*
X201969D01*
Y106693D01*
X194882Y93307D02*
Y106693D01*
X426673Y197244D02*
Y204331D01*
X440059Y197244D02*
Y204331D01*
X426673D02*
X440059D01*
X426673Y197244D02*
X440059D01*
X132335Y213457D02*
Y220543D01*
X118949Y213457D02*
Y220543D01*
X132335D01*
X118949Y213457D02*
X132335D01*
Y204457D02*
Y211543D01*
X118949Y204457D02*
Y211543D01*
X132335D01*
X118949Y204457D02*
X132335D01*
X179957Y263335D02*
X187043D01*
X179957Y249949D02*
X187043D01*
Y263335D01*
X179957Y249949D02*
Y263335D01*
X169457Y249949D02*
X176543D01*
X169457Y263335D02*
X176543D01*
X169457Y249949D02*
Y263335D01*
X176543Y249949D02*
Y263335D01*
X22047Y45768D02*
X29134D01*
X22047Y59153D02*
X29134D01*
X22047Y45768D02*
Y59153D01*
X29134Y45768D02*
Y59153D01*
X436221Y99606D02*
X443307D01*
X436221Y112992D02*
X443307D01*
X436221Y99606D02*
Y112992D01*
X443307Y99606D02*
Y112992D01*
X456693Y197638D02*
Y204724D01*
X443307Y197638D02*
Y204724D01*
Y197638D02*
X456693D01*
X443307Y204724D02*
X456693D01*
X443307Y188976D02*
Y196063D01*
X456693Y188976D02*
Y196063D01*
X443307D02*
X456693D01*
X443307Y188976D02*
X456693D01*
X121063Y101969D02*
X144685D01*
X121063Y69291D02*
X144685D01*
Y101969D01*
X121063Y69291D02*
Y101969D01*
X190370Y270449D02*
Y301551D01*
X211630Y270449D02*
Y301551D01*
X190370Y270449D02*
X211630D01*
X190370Y301551D02*
X211630D01*
X375394Y55709D02*
X390846D01*
X375394Y63189D02*
X390846D01*
Y55709D02*
Y63189D01*
X375394Y55709D02*
Y63189D01*
Y43110D02*
X390846D01*
X375394Y50591D02*
X390846D01*
Y43110D02*
Y50591D01*
X375394Y43110D02*
Y50591D01*
Y30118D02*
X390846D01*
X375394Y37598D02*
X390846D01*
Y30118D02*
Y37598D01*
X375394Y30118D02*
Y37598D01*
X180118Y73524D02*
Y88976D01*
X187598Y73524D02*
Y88976D01*
X180118Y73524D02*
X187598D01*
X180118Y88976D02*
X187598D01*
X194685Y73524D02*
Y88976D01*
X202165Y73524D02*
Y88976D01*
X194685Y73524D02*
X202165D01*
X194685Y88976D02*
X202165D01*
X436024Y70177D02*
Y85630D01*
X443504Y70177D02*
Y85630D01*
X436024Y70177D02*
X443504D01*
X436024Y85630D02*
X443504D01*
M02*
