G04*
G04 #@! TF.GenerationSoftware,Altium Limited,Altium Designer,20.0.12 (288)*
G04*
G04 Layer_Physical_Order=2*
G04 Layer_Color=16711680*
%FSLAX25Y25*%
%MOIN*%
G70*
G01*
G75*
%ADD10C,0.01000*%
%ADD20R,0.04134X0.05118*%
%ADD47C,0.01500*%
%ADD50C,0.05906*%
%ADD51R,0.05906X0.05906*%
%ADD52R,0.05906X0.05906*%
%ADD53C,0.25197*%
%ADD54C,0.06000*%
%ADD55R,0.06000X0.06000*%
%ADD56C,0.02362*%
G36*
X450787Y311024D02*
X472441Y311024D01*
X472441Y25591D01*
X448819D01*
Y3937D01*
X171653D01*
Y31496D01*
X3937D01*
Y311024D01*
X27559D01*
X27559Y333465D01*
X450787Y333465D01*
X450787Y311024D01*
D02*
G37*
%LPC*%
G36*
X422244Y314649D02*
Y306890D01*
X430003D01*
X429477Y308161D01*
X428358Y309986D01*
X426968Y311614D01*
X425341Y313004D01*
X423516Y314122D01*
X422244Y314649D01*
D02*
G37*
G36*
X412402Y314649D02*
X411130Y314122D01*
X409305Y313004D01*
X407678Y311614D01*
X406287Y309986D01*
X405169Y308161D01*
X404642Y306890D01*
X412402D01*
Y314649D01*
D02*
G37*
G36*
X322047Y317277D02*
X319960Y317112D01*
X317925Y316624D01*
X315991Y315823D01*
X314207Y314729D01*
X312615Y313369D01*
X311255Y311778D01*
X310162Y309993D01*
X309361Y308059D01*
X308872Y306024D01*
X308708Y303937D01*
X308872Y301850D01*
X309361Y299815D01*
X310162Y297881D01*
X311255Y296096D01*
X312615Y294504D01*
X314207Y293145D01*
X315991Y292051D01*
X317925Y291250D01*
X319960Y290762D01*
X322047Y290598D01*
X324134Y290762D01*
X326169Y291250D01*
X328103Y292051D01*
X329888Y293145D01*
X331480Y294504D01*
X332839Y296096D01*
X333933Y297881D01*
X334734Y299815D01*
X335223Y301850D01*
X335387Y303937D01*
X335223Y306024D01*
X334734Y308059D01*
X333933Y309993D01*
X332839Y311778D01*
X331480Y313369D01*
X329888Y314729D01*
X328103Y315823D01*
X326169Y316624D01*
X324134Y317112D01*
X322047Y317277D01*
D02*
G37*
G36*
X267717D02*
X265630Y317112D01*
X263594Y316624D01*
X261661Y315823D01*
X259876Y314729D01*
X258284Y313369D01*
X256925Y311778D01*
X255831Y309993D01*
X255030Y308059D01*
X254541Y306024D01*
X254377Y303937D01*
X254541Y301850D01*
X255030Y299815D01*
X255831Y297881D01*
X256925Y296096D01*
X258284Y294504D01*
X259876Y293145D01*
X261661Y292051D01*
X263594Y291250D01*
X265630Y290762D01*
X267717Y290598D01*
X269803Y290762D01*
X271839Y291250D01*
X273773Y292051D01*
X275557Y293145D01*
X277149Y294504D01*
X278508Y296096D01*
X279602Y297881D01*
X280403Y299815D01*
X280892Y301850D01*
X281056Y303937D01*
X280892Y306024D01*
X280403Y308059D01*
X279602Y309993D01*
X278508Y311778D01*
X277149Y313369D01*
X275557Y314729D01*
X273773Y315823D01*
X271839Y316624D01*
X269803Y317112D01*
X267717Y317277D01*
D02*
G37*
G36*
X130878Y316981D02*
X128791Y316817D01*
X126756Y316328D01*
X124822Y315527D01*
X123037Y314434D01*
X121446Y313074D01*
X120086Y311483D01*
X118992Y309698D01*
X118191Y307764D01*
X117703Y305729D01*
X117538Y303642D01*
X117703Y301555D01*
X118191Y299520D01*
X118992Y297586D01*
X120086Y295801D01*
X121446Y294209D01*
X123037Y292850D01*
X124822Y291756D01*
X126756Y290955D01*
X128791Y290466D01*
X130878Y290302D01*
X132965Y290466D01*
X135000Y290955D01*
X136934Y291756D01*
X138719Y292850D01*
X140310Y294209D01*
X141670Y295801D01*
X142764Y297586D01*
X143565Y299520D01*
X144053Y301555D01*
X144218Y303642D01*
X144053Y305729D01*
X143565Y307764D01*
X142764Y309698D01*
X141670Y311483D01*
X140310Y313074D01*
X138719Y314434D01*
X136934Y315527D01*
X135000Y316328D01*
X132965Y316817D01*
X130878Y316981D01*
D02*
G37*
G36*
X430003Y297047D02*
X422244D01*
Y289288D01*
X423516Y289815D01*
X425341Y290933D01*
X426968Y292323D01*
X428358Y293951D01*
X429477Y295776D01*
X430003Y297047D01*
D02*
G37*
G36*
X412402D02*
X404642D01*
X405169Y295776D01*
X406287Y293951D01*
X407678Y292323D01*
X409305Y290933D01*
X411130Y289815D01*
X412402Y289288D01*
Y297047D01*
D02*
G37*
G36*
X326969Y288271D02*
Y280512D01*
X334728D01*
X334201Y281783D01*
X333083Y283608D01*
X331693Y285236D01*
X330065Y286626D01*
X328240Y287744D01*
X326969Y288271D01*
D02*
G37*
G36*
X317126D02*
X315855Y287744D01*
X314030Y286626D01*
X312402Y285236D01*
X311012Y283608D01*
X309893Y281783D01*
X309367Y280512D01*
X317126D01*
Y288271D01*
D02*
G37*
G36*
X272638D02*
Y280512D01*
X280397D01*
X279870Y281783D01*
X278752Y283608D01*
X277362Y285236D01*
X275734Y286626D01*
X273909Y287744D01*
X272638Y288271D01*
D02*
G37*
G36*
X262795D02*
X261524Y287744D01*
X259699Y286626D01*
X258071Y285236D01*
X256681Y283608D01*
X255563Y281783D01*
X255036Y280512D01*
X262795D01*
Y288271D01*
D02*
G37*
G36*
X135799Y287976D02*
Y280217D01*
X143558D01*
X143032Y281488D01*
X141913Y283313D01*
X140523Y284941D01*
X138896Y286331D01*
X137071Y287449D01*
X135799Y287976D01*
D02*
G37*
G36*
X125957D02*
X124685Y287449D01*
X122860Y286331D01*
X121233Y284941D01*
X119843Y283313D01*
X118724Y281488D01*
X118198Y280217D01*
X125957D01*
Y287976D01*
D02*
G37*
G36*
X334728Y270669D02*
X326969D01*
Y262910D01*
X328240Y263437D01*
X330065Y264555D01*
X331693Y265945D01*
X333083Y267573D01*
X334201Y269398D01*
X334728Y270669D01*
D02*
G37*
G36*
X317126D02*
X309367D01*
X309893Y269398D01*
X311012Y267573D01*
X312402Y265945D01*
X314030Y264555D01*
X315855Y263437D01*
X317126Y262910D01*
Y270669D01*
D02*
G37*
G36*
X280397D02*
X272638D01*
Y262910D01*
X273909Y263437D01*
X275734Y264555D01*
X277362Y265945D01*
X278752Y267573D01*
X279870Y269398D01*
X280397Y270669D01*
D02*
G37*
G36*
X262795D02*
X255036D01*
X255563Y269398D01*
X256681Y267573D01*
X258071Y265945D01*
X259699Y264555D01*
X261524Y263437D01*
X262795Y262910D01*
Y270669D01*
D02*
G37*
G36*
X143558Y270374D02*
X135799D01*
Y262615D01*
X137071Y263141D01*
X138896Y264260D01*
X140523Y265650D01*
X141913Y267278D01*
X143032Y269103D01*
X143558Y270374D01*
D02*
G37*
G36*
X125957D02*
X118198D01*
X118724Y269103D01*
X119843Y267278D01*
X121233Y265650D01*
X122860Y264260D01*
X124685Y263141D01*
X125957Y262615D01*
Y270374D01*
D02*
G37*
G36*
X417323Y286962D02*
X415236Y286797D01*
X413201Y286309D01*
X411267Y285508D01*
X409482Y284414D01*
X407890Y283054D01*
X406531Y281463D01*
X405437Y279678D01*
X404636Y277744D01*
X404147Y275709D01*
X403983Y273622D01*
X404147Y271535D01*
X404636Y269500D01*
X405437Y267566D01*
X406531Y265781D01*
X407890Y264190D01*
X409482Y262830D01*
X411267Y261736D01*
X413201Y260935D01*
X415236Y260447D01*
X417323Y260282D01*
X419410Y260447D01*
X421445Y260935D01*
X423379Y261736D01*
X425164Y262830D01*
X426755Y264190D01*
X428115Y265781D01*
X429208Y267566D01*
X430010Y269500D01*
X430498Y271535D01*
X430662Y273622D01*
X430498Y275709D01*
X430010Y277744D01*
X429208Y279678D01*
X428115Y281463D01*
X426755Y283054D01*
X425164Y284414D01*
X423379Y285508D01*
X421445Y286309D01*
X419410Y286797D01*
X417323Y286962D01*
D02*
G37*
G36*
X99000Y250684D02*
X98046Y250559D01*
X97158Y250191D01*
X96395Y249605D01*
X95809Y248842D01*
X95659Y248478D01*
X88341D01*
X88191Y248842D01*
X87605Y249605D01*
X86842Y250191D01*
X85954Y250559D01*
X85000Y250684D01*
X84046Y250559D01*
X83158Y250191D01*
X82395Y249605D01*
X81809Y248842D01*
X81659Y248478D01*
X74341D01*
X74191Y248842D01*
X73605Y249605D01*
X72842Y250191D01*
X71954Y250559D01*
X71000Y250684D01*
X70046Y250559D01*
X69158Y250191D01*
X68395Y249605D01*
X67809Y248842D01*
X67659Y248478D01*
X60341D01*
X60191Y248842D01*
X59605Y249605D01*
X58842Y250191D01*
X57954Y250559D01*
X57000Y250684D01*
X56046Y250559D01*
X55158Y250191D01*
X54395Y249605D01*
X53809Y248842D01*
X53659Y248478D01*
X46341D01*
X46191Y248842D01*
X45605Y249605D01*
X44842Y250191D01*
X43954Y250559D01*
X43000Y250684D01*
X42046Y250559D01*
X41158Y250191D01*
X40395Y249605D01*
X39809Y248842D01*
X39659Y248478D01*
X32341D01*
X32191Y248842D01*
X31605Y249605D01*
X30842Y250191D01*
X29954Y250559D01*
X29000Y250684D01*
X28046Y250559D01*
X27158Y250191D01*
X26395Y249605D01*
X25809Y248842D01*
X25441Y247954D01*
X25316Y247000D01*
X25441Y246046D01*
X25809Y245158D01*
X26395Y244395D01*
X27158Y243809D01*
X28046Y243441D01*
X29000Y243316D01*
X29954Y243441D01*
X30842Y243809D01*
X31605Y244395D01*
X32191Y245158D01*
X32341Y245522D01*
X39659D01*
X39809Y245158D01*
X40395Y244395D01*
X41158Y243809D01*
X42046Y243441D01*
X43000Y243316D01*
X43954Y243441D01*
X44842Y243809D01*
X45605Y244395D01*
X46191Y245158D01*
X46341Y245522D01*
X53659D01*
X53809Y245158D01*
X54395Y244395D01*
X55158Y243809D01*
X56046Y243441D01*
X57000Y243316D01*
X57954Y243441D01*
X58842Y243809D01*
X59605Y244395D01*
X60191Y245158D01*
X60341Y245522D01*
X67659D01*
X67809Y245158D01*
X68395Y244395D01*
X69158Y243809D01*
X70046Y243441D01*
X71000Y243316D01*
X71954Y243441D01*
X72842Y243809D01*
X73605Y244395D01*
X74191Y245158D01*
X74341Y245522D01*
X81659D01*
X81809Y245158D01*
X82395Y244395D01*
X83158Y243809D01*
X84046Y243441D01*
X85000Y243316D01*
X85954Y243441D01*
X86842Y243809D01*
X87605Y244395D01*
X88191Y245158D01*
X88341Y245522D01*
X95659D01*
X95809Y245158D01*
X96395Y244395D01*
X97158Y243809D01*
X98046Y243441D01*
X99000Y243316D01*
X99954Y243441D01*
X100842Y243809D01*
X100903Y243856D01*
X124039Y220721D01*
X123847Y220259D01*
X119233D01*
Y218224D01*
X109507D01*
X102303Y225428D01*
X102559Y226046D01*
X102684Y227000D01*
X102559Y227954D01*
X102191Y228842D01*
X101605Y229605D01*
X100842Y230191D01*
X99954Y230559D01*
X99000Y230684D01*
X98046Y230559D01*
X97158Y230191D01*
X96395Y229605D01*
X95809Y228842D01*
X95553Y228223D01*
X88447D01*
X88191Y228842D01*
X87605Y229605D01*
X86842Y230191D01*
X85954Y230559D01*
X85000Y230684D01*
X84046Y230559D01*
X83158Y230191D01*
X82395Y229605D01*
X81809Y228842D01*
X81553Y228223D01*
X74447D01*
X74191Y228842D01*
X73605Y229605D01*
X72842Y230191D01*
X71954Y230559D01*
X71000Y230684D01*
X70046Y230559D01*
X69158Y230191D01*
X68395Y229605D01*
X67809Y228842D01*
X67553Y228223D01*
X60447D01*
X60191Y228842D01*
X59605Y229605D01*
X58842Y230191D01*
X57954Y230559D01*
X57000Y230684D01*
X56046Y230559D01*
X55158Y230191D01*
X54395Y229605D01*
X53809Y228842D01*
X53553Y228223D01*
X46447D01*
X46191Y228842D01*
X45605Y229605D01*
X44842Y230191D01*
X43954Y230559D01*
X43000Y230684D01*
X42046Y230559D01*
X41158Y230191D01*
X40395Y229605D01*
X39809Y228842D01*
X39553Y228223D01*
X32447D01*
X32191Y228842D01*
X31605Y229605D01*
X30842Y230191D01*
X29954Y230559D01*
X29000Y230684D01*
X28046Y230559D01*
X27158Y230191D01*
X26395Y229605D01*
X25809Y228842D01*
X25441Y227954D01*
X25316Y227000D01*
X25441Y226046D01*
X25809Y225158D01*
X26395Y224395D01*
X27158Y223809D01*
X28046Y223441D01*
X29000Y223316D01*
X29954Y223441D01*
X30842Y223809D01*
X31605Y224395D01*
X32191Y225158D01*
X32447Y225777D01*
X39553D01*
X39809Y225158D01*
X40395Y224395D01*
X41158Y223809D01*
X42046Y223441D01*
X43000Y223316D01*
X43954Y223441D01*
X44842Y223809D01*
X45605Y224395D01*
X46191Y225158D01*
X46447Y225777D01*
X53553D01*
X53809Y225158D01*
X54395Y224395D01*
X55158Y223809D01*
X56046Y223441D01*
X57000Y223316D01*
X57954Y223441D01*
X58842Y223809D01*
X59605Y224395D01*
X60191Y225158D01*
X60447Y225777D01*
X67553D01*
X67809Y225158D01*
X68395Y224395D01*
X69158Y223809D01*
X70046Y223441D01*
X71000Y223316D01*
X71954Y223441D01*
X72842Y223809D01*
X73605Y224395D01*
X74191Y225158D01*
X74447Y225777D01*
X81553D01*
X81809Y225158D01*
X82395Y224395D01*
X83158Y223809D01*
X84046Y223441D01*
X85000Y223316D01*
X85954Y223441D01*
X86842Y223809D01*
X87605Y224395D01*
X88191Y225158D01*
X88447Y225777D01*
X95553D01*
X95809Y225158D01*
X96395Y224395D01*
X97158Y223809D01*
X98046Y223441D01*
X99000Y223316D01*
X99954Y223441D01*
X100572Y223697D01*
X108135Y216135D01*
X108532Y215870D01*
X109000Y215776D01*
X119233D01*
Y213741D01*
X124767D01*
Y219339D01*
X125229Y219531D01*
X126516Y218243D01*
Y213741D01*
X129137D01*
X129137Y211259D01*
X126516D01*
Y204741D01*
X132050D01*
Y206522D01*
X144388D01*
X156834Y194075D01*
X156642Y193613D01*
X130687D01*
X130262Y193898D01*
X129528Y194044D01*
X128794Y193898D01*
X128171Y193482D01*
X127756Y192860D01*
X127610Y192126D01*
X127756Y191392D01*
X128171Y190770D01*
X128794Y190354D01*
X129528Y190208D01*
X130262Y190354D01*
X130714Y190657D01*
X143617D01*
X143787Y190157D01*
X143253Y189747D01*
X142668Y188984D01*
X142299Y188095D01*
X142174Y187142D01*
X142299Y186188D01*
X142668Y185300D01*
X143253Y184537D01*
X144016Y183951D01*
X144905Y183583D01*
X145858Y183458D01*
X146812Y183583D01*
X147700Y183951D01*
X148463Y184537D01*
X149049Y185300D01*
X149417Y186188D01*
X149542Y187142D01*
X149417Y188095D01*
X149049Y188984D01*
X148463Y189747D01*
X147930Y190157D01*
X148099Y190657D01*
X153124D01*
X153294Y190157D01*
X153039Y189961D01*
X152406Y189135D01*
X152201Y188642D01*
X155858D01*
Y187142D01*
D01*
Y188642D01*
X159515D01*
X159311Y189135D01*
X158677Y189961D01*
X158422Y190157D01*
X158592Y190657D01*
X160253D01*
X162450Y188459D01*
X162300Y188095D01*
X162174Y187142D01*
X162300Y186188D01*
X162668Y185300D01*
X163253Y184537D01*
X164016Y183951D01*
X164905Y183583D01*
X165858Y183458D01*
X166812Y183583D01*
X167700Y183951D01*
X168463Y184537D01*
X169049Y185300D01*
X169417Y186188D01*
X169543Y187142D01*
X169417Y188095D01*
X169049Y188984D01*
X168463Y189747D01*
X167700Y190332D01*
X167082Y190589D01*
Y213695D01*
X167700Y213951D01*
X168463Y214537D01*
X169049Y215300D01*
X169417Y216188D01*
X169543Y217142D01*
X169417Y218095D01*
X169049Y218984D01*
X168463Y219747D01*
X167700Y220332D01*
X166812Y220701D01*
X165858Y220826D01*
X164905Y220701D01*
X164016Y220332D01*
X163253Y219747D01*
X162668Y218984D01*
X162300Y218095D01*
X162174Y217142D01*
X162300Y216188D01*
X162668Y215300D01*
X163253Y214537D01*
X164016Y213951D01*
X164635Y213695D01*
Y191163D01*
X164135Y190956D01*
X161910Y193180D01*
X146045Y209045D01*
X146045Y209045D01*
X137045Y218045D01*
X136566Y218366D01*
X136000Y218478D01*
X132050D01*
Y220259D01*
X128682D01*
X102598Y246343D01*
X102684Y247000D01*
X102559Y247954D01*
X102191Y248842D01*
X101605Y249605D01*
X100842Y250191D01*
X99954Y250559D01*
X99000Y250684D01*
D02*
G37*
G36*
X214961Y251524D02*
X214227Y251378D01*
X213604Y250962D01*
X213189Y250340D01*
X213084Y249814D01*
X193493Y230223D01*
X158000D01*
X157532Y230130D01*
X157135Y229865D01*
X147631Y220361D01*
X146812Y220701D01*
X145858Y220826D01*
X144905Y220701D01*
X144016Y220332D01*
X143253Y219747D01*
X142668Y218984D01*
X142299Y218095D01*
X142174Y217142D01*
X142299Y216188D01*
X142668Y215300D01*
X143253Y214537D01*
X144016Y213951D01*
X144905Y213583D01*
X145858Y213457D01*
X146812Y213583D01*
X147700Y213951D01*
X148463Y214537D01*
X149049Y215300D01*
X149417Y216188D01*
X149542Y217142D01*
X149417Y218095D01*
X149244Y218513D01*
X158507Y227777D01*
X194000D01*
X194468Y227870D01*
X194865Y228135D01*
X214509Y247778D01*
X214961Y247688D01*
X215695Y247834D01*
X216317Y248250D01*
X216733Y248872D01*
X216879Y249606D01*
X216733Y250340D01*
X216317Y250962D01*
X215695Y251378D01*
X214961Y251524D01*
D02*
G37*
G36*
X99000Y240684D02*
X98046Y240559D01*
X97158Y240191D01*
X96395Y239605D01*
X95809Y238842D01*
X95441Y237954D01*
X95316Y237000D01*
X95441Y236046D01*
X95809Y235158D01*
X96395Y234395D01*
X97158Y233809D01*
X98046Y233441D01*
X99000Y233316D01*
X99954Y233441D01*
X100842Y233809D01*
X101605Y234395D01*
X102191Y235158D01*
X102559Y236046D01*
X102684Y237000D01*
X102559Y237954D01*
X102191Y238842D01*
X101605Y239605D01*
X100842Y240191D01*
X99954Y240559D01*
X99000Y240684D01*
D02*
G37*
G36*
X85000D02*
X84046Y240559D01*
X83158Y240191D01*
X82395Y239605D01*
X81809Y238842D01*
X81441Y237954D01*
X81316Y237000D01*
X81441Y236046D01*
X81809Y235158D01*
X82395Y234395D01*
X83158Y233809D01*
X84046Y233441D01*
X85000Y233316D01*
X85954Y233441D01*
X86842Y233809D01*
X87605Y234395D01*
X88191Y235158D01*
X88559Y236046D01*
X88684Y237000D01*
X88559Y237954D01*
X88191Y238842D01*
X87605Y239605D01*
X86842Y240191D01*
X85954Y240559D01*
X85000Y240684D01*
D02*
G37*
G36*
X71000D02*
X70046Y240559D01*
X69158Y240191D01*
X68395Y239605D01*
X67809Y238842D01*
X67441Y237954D01*
X67316Y237000D01*
X67441Y236046D01*
X67809Y235158D01*
X68395Y234395D01*
X69158Y233809D01*
X70046Y233441D01*
X71000Y233316D01*
X71954Y233441D01*
X72842Y233809D01*
X73605Y234395D01*
X74191Y235158D01*
X74559Y236046D01*
X74684Y237000D01*
X74559Y237954D01*
X74191Y238842D01*
X73605Y239605D01*
X72842Y240191D01*
X71954Y240559D01*
X71000Y240684D01*
D02*
G37*
G36*
X57000D02*
X56046Y240559D01*
X55158Y240191D01*
X54395Y239605D01*
X53809Y238842D01*
X53441Y237954D01*
X53316Y237000D01*
X53441Y236046D01*
X53809Y235158D01*
X54395Y234395D01*
X55158Y233809D01*
X56046Y233441D01*
X57000Y233316D01*
X57954Y233441D01*
X58842Y233809D01*
X59605Y234395D01*
X60191Y235158D01*
X60559Y236046D01*
X60684Y237000D01*
X60559Y237954D01*
X60191Y238842D01*
X59605Y239605D01*
X58842Y240191D01*
X57954Y240559D01*
X57000Y240684D01*
D02*
G37*
G36*
X43000D02*
X42046Y240559D01*
X41158Y240191D01*
X40395Y239605D01*
X39809Y238842D01*
X39441Y237954D01*
X39316Y237000D01*
X39441Y236046D01*
X39809Y235158D01*
X40395Y234395D01*
X41158Y233809D01*
X42046Y233441D01*
X43000Y233316D01*
X43954Y233441D01*
X44842Y233809D01*
X45605Y234395D01*
X46191Y235158D01*
X46559Y236046D01*
X46684Y237000D01*
X46559Y237954D01*
X46191Y238842D01*
X45605Y239605D01*
X44842Y240191D01*
X43954Y240559D01*
X43000Y240684D01*
D02*
G37*
G36*
X29000D02*
X28046Y240559D01*
X27158Y240191D01*
X26395Y239605D01*
X25809Y238842D01*
X25441Y237954D01*
X25316Y237000D01*
X25441Y236046D01*
X25809Y235158D01*
X26395Y234395D01*
X27158Y233809D01*
X28046Y233441D01*
X29000Y233316D01*
X29954Y233441D01*
X30842Y233809D01*
X31605Y234395D01*
X32191Y235158D01*
X32559Y236046D01*
X32684Y237000D01*
X32559Y237954D01*
X32191Y238842D01*
X31605Y239605D01*
X30842Y240191D01*
X29954Y240559D01*
X29000Y240684D01*
D02*
G37*
G36*
X287358Y220799D02*
Y218642D01*
X289515D01*
X289311Y219135D01*
X288677Y219961D01*
X287852Y220595D01*
X287358Y220799D01*
D02*
G37*
G36*
X284358D02*
X283865Y220595D01*
X283039Y219961D01*
X282405Y219135D01*
X282201Y218642D01*
X284358D01*
Y220799D01*
D02*
G37*
G36*
X157358D02*
Y218642D01*
X159515D01*
X159311Y219135D01*
X158677Y219961D01*
X157852Y220595D01*
X157358Y220799D01*
D02*
G37*
G36*
X154358D02*
X153865Y220595D01*
X153039Y219961D01*
X152406Y219135D01*
X152201Y218642D01*
X154358D01*
Y220799D01*
D02*
G37*
G36*
X99000Y220684D02*
X98046Y220559D01*
X97158Y220191D01*
X96395Y219605D01*
X95809Y218842D01*
X95553Y218224D01*
X88447D01*
X88191Y218842D01*
X87605Y219605D01*
X86842Y220191D01*
X85954Y220559D01*
X85000Y220684D01*
X84046Y220559D01*
X83158Y220191D01*
X82395Y219605D01*
X81809Y218842D01*
X81553Y218224D01*
X74447D01*
X74191Y218842D01*
X73605Y219605D01*
X72842Y220191D01*
X71954Y220559D01*
X71000Y220684D01*
X70046Y220559D01*
X69158Y220191D01*
X68395Y219605D01*
X67809Y218842D01*
X67553Y218224D01*
X60447D01*
X60191Y218842D01*
X59605Y219605D01*
X58842Y220191D01*
X57954Y220559D01*
X57000Y220684D01*
X56046Y220559D01*
X55158Y220191D01*
X54395Y219605D01*
X53809Y218842D01*
X53553Y218224D01*
X46447D01*
X46191Y218842D01*
X45605Y219605D01*
X44842Y220191D01*
X43954Y220559D01*
X43000Y220684D01*
X42046Y220559D01*
X41158Y220191D01*
X40395Y219605D01*
X39809Y218842D01*
X39553Y218224D01*
X32447D01*
X32191Y218842D01*
X31605Y219605D01*
X30842Y220191D01*
X29954Y220559D01*
X29000Y220684D01*
X28046Y220559D01*
X27158Y220191D01*
X26395Y219605D01*
X25809Y218842D01*
X25441Y217954D01*
X25316Y217000D01*
X25441Y216046D01*
X25809Y215158D01*
X26395Y214395D01*
X27158Y213809D01*
X28046Y213441D01*
X29000Y213316D01*
X29954Y213441D01*
X30842Y213809D01*
X31605Y214395D01*
X32191Y215158D01*
X32447Y215776D01*
X39553D01*
X39809Y215158D01*
X40395Y214395D01*
X41158Y213809D01*
X42046Y213441D01*
X43000Y213316D01*
X43954Y213441D01*
X44842Y213809D01*
X45605Y214395D01*
X46191Y215158D01*
X46447Y215776D01*
X53553D01*
X53809Y215158D01*
X54395Y214395D01*
X55158Y213809D01*
X56046Y213441D01*
X57000Y213316D01*
X57954Y213441D01*
X58842Y213809D01*
X59605Y214395D01*
X60191Y215158D01*
X60447Y215776D01*
X67553D01*
X67809Y215158D01*
X68395Y214395D01*
X69158Y213809D01*
X70046Y213441D01*
X71000Y213316D01*
X71954Y213441D01*
X72842Y213809D01*
X73605Y214395D01*
X74191Y215158D01*
X74447Y215776D01*
X81553D01*
X81809Y215158D01*
X82395Y214395D01*
X83158Y213809D01*
X84046Y213441D01*
X85000Y213316D01*
X85954Y213441D01*
X86842Y213809D01*
X87605Y214395D01*
X88191Y215158D01*
X88447Y215776D01*
X95553D01*
X95809Y215158D01*
X96395Y214395D01*
X97158Y213809D01*
X98046Y213441D01*
X99000Y213316D01*
X99954Y213441D01*
X100572Y213698D01*
X102817Y211453D01*
X102610Y210953D01*
X100500D01*
Y208500D01*
X102953D01*
Y210610D01*
X103453Y210817D01*
X107135Y207135D01*
X148135Y166135D01*
X148532Y165870D01*
X149000Y165777D01*
X205716D01*
X206185Y165870D01*
X206582Y166135D01*
X224286Y183839D01*
X224905Y183583D01*
X225858Y183458D01*
X226812Y183583D01*
X227700Y183951D01*
X228463Y184537D01*
X229049Y185300D01*
X229417Y186188D01*
X229542Y187142D01*
X229417Y188095D01*
X229049Y188984D01*
X228463Y189747D01*
X227700Y190332D01*
X226812Y190700D01*
X225858Y190826D01*
X224905Y190700D01*
X224016Y190332D01*
X223253Y189747D01*
X222668Y188984D01*
X222300Y188095D01*
X222174Y187142D01*
X222300Y186188D01*
X222556Y185570D01*
X205210Y168224D01*
X149507D01*
X111416Y206315D01*
X111607Y206776D01*
X119233D01*
Y204741D01*
X124767D01*
Y211259D01*
X119233D01*
Y209224D01*
X108507D01*
X102303Y215428D01*
X102559Y216046D01*
X102684Y217000D01*
X102559Y217954D01*
X102191Y218842D01*
X101605Y219605D01*
X100842Y220191D01*
X99954Y220559D01*
X99000Y220684D01*
D02*
G37*
G36*
X379511Y220795D02*
X372205D01*
Y213489D01*
X379511D01*
Y220795D01*
D02*
G37*
G36*
X289515Y215642D02*
X287358D01*
Y213485D01*
X287852Y213689D01*
X288677Y214323D01*
X289311Y215148D01*
X289515Y215642D01*
D02*
G37*
G36*
X284358D02*
X282201D01*
X282405Y215148D01*
X283039Y214323D01*
X283865Y213689D01*
X284358Y213485D01*
Y215642D01*
D02*
G37*
G36*
X159515D02*
X157358D01*
Y213485D01*
X157852Y213689D01*
X158677Y214323D01*
X159311Y215148D01*
X159515Y215642D01*
D02*
G37*
G36*
X154358D02*
X152201D01*
X152406Y215148D01*
X153039Y214323D01*
X153865Y213689D01*
X154358Y213485D01*
Y215642D01*
D02*
G37*
G36*
X365858Y220826D02*
X364905Y220701D01*
X364016Y220332D01*
X363253Y219747D01*
X362668Y218984D01*
X362299Y218095D01*
X362174Y217142D01*
X362299Y216188D01*
X362668Y215300D01*
X363253Y214537D01*
X364016Y213951D01*
X364905Y213583D01*
X365858Y213457D01*
X366812Y213583D01*
X367700Y213951D01*
X368463Y214537D01*
X369049Y215300D01*
X369417Y216188D01*
X369543Y217142D01*
X369417Y218095D01*
X369049Y218984D01*
X368463Y219747D01*
X367700Y220332D01*
X366812Y220701D01*
X365858Y220826D01*
D02*
G37*
G36*
X355858D02*
X354905Y220701D01*
X354016Y220332D01*
X353253Y219747D01*
X352668Y218984D01*
X352299Y218095D01*
X352174Y217142D01*
X352299Y216188D01*
X352668Y215300D01*
X353253Y214537D01*
X354016Y213951D01*
X354905Y213583D01*
X355858Y213457D01*
X356812Y213583D01*
X357700Y213951D01*
X358463Y214537D01*
X359049Y215300D01*
X359417Y216188D01*
X359542Y217142D01*
X359417Y218095D01*
X359049Y218984D01*
X358463Y219747D01*
X357700Y220332D01*
X356812Y220701D01*
X355858Y220826D01*
D02*
G37*
G36*
X345858D02*
X344905Y220701D01*
X344016Y220332D01*
X343253Y219747D01*
X342668Y218984D01*
X342300Y218095D01*
X342174Y217142D01*
X342300Y216188D01*
X342668Y215300D01*
X343253Y214537D01*
X344016Y213951D01*
X344905Y213583D01*
X345858Y213457D01*
X346812Y213583D01*
X347700Y213951D01*
X348463Y214537D01*
X349049Y215300D01*
X349417Y216188D01*
X349542Y217142D01*
X349417Y218095D01*
X349049Y218984D01*
X348463Y219747D01*
X347700Y220332D01*
X346812Y220701D01*
X345858Y220826D01*
D02*
G37*
G36*
X335858D02*
X334905Y220701D01*
X334016Y220332D01*
X333253Y219747D01*
X332668Y218984D01*
X332299Y218095D01*
X332174Y217142D01*
X332299Y216188D01*
X332668Y215300D01*
X333253Y214537D01*
X334016Y213951D01*
X334905Y213583D01*
X335858Y213457D01*
X336812Y213583D01*
X337700Y213951D01*
X338463Y214537D01*
X339049Y215300D01*
X339417Y216188D01*
X339543Y217142D01*
X339417Y218095D01*
X339049Y218984D01*
X338463Y219747D01*
X337700Y220332D01*
X336812Y220701D01*
X335858Y220826D01*
D02*
G37*
G36*
X325858D02*
X324905Y220701D01*
X324016Y220332D01*
X323253Y219747D01*
X322668Y218984D01*
X322300Y218095D01*
X322174Y217142D01*
X322300Y216188D01*
X322668Y215300D01*
X323253Y214537D01*
X324016Y213951D01*
X324905Y213583D01*
X325858Y213457D01*
X326812Y213583D01*
X327700Y213951D01*
X328463Y214537D01*
X329049Y215300D01*
X329417Y216188D01*
X329542Y217142D01*
X329417Y218095D01*
X329049Y218984D01*
X328463Y219747D01*
X327700Y220332D01*
X326812Y220701D01*
X325858Y220826D01*
D02*
G37*
G36*
X315858D02*
X314905Y220701D01*
X314016Y220332D01*
X313253Y219747D01*
X312668Y218984D01*
X312299Y218095D01*
X312174Y217142D01*
X312299Y216188D01*
X312668Y215300D01*
X313253Y214537D01*
X314016Y213951D01*
X314905Y213583D01*
X315858Y213457D01*
X316812Y213583D01*
X317700Y213951D01*
X318463Y214537D01*
X319049Y215300D01*
X319417Y216188D01*
X319543Y217142D01*
X319417Y218095D01*
X319049Y218984D01*
X318463Y219747D01*
X317700Y220332D01*
X316812Y220701D01*
X315858Y220826D01*
D02*
G37*
G36*
X305858D02*
X304905Y220701D01*
X304016Y220332D01*
X303253Y219747D01*
X302668Y218984D01*
X302299Y218095D01*
X302174Y217142D01*
X302299Y216188D01*
X302668Y215300D01*
X303253Y214537D01*
X304016Y213951D01*
X304905Y213583D01*
X305858Y213457D01*
X306812Y213583D01*
X307700Y213951D01*
X308463Y214537D01*
X309049Y215300D01*
X309417Y216188D01*
X309542Y217142D01*
X309417Y218095D01*
X309049Y218984D01*
X308463Y219747D01*
X307700Y220332D01*
X306812Y220701D01*
X305858Y220826D01*
D02*
G37*
G36*
X295858D02*
X294905Y220701D01*
X294016Y220332D01*
X293253Y219747D01*
X292668Y218984D01*
X292300Y218095D01*
X292174Y217142D01*
X292300Y216188D01*
X292668Y215300D01*
X293253Y214537D01*
X294016Y213951D01*
X294905Y213583D01*
X295858Y213457D01*
X296812Y213583D01*
X297700Y213951D01*
X298463Y214537D01*
X299049Y215300D01*
X299417Y216188D01*
X299542Y217142D01*
X299417Y218095D01*
X299049Y218984D01*
X298463Y219747D01*
X297700Y220332D01*
X296812Y220701D01*
X295858Y220826D01*
D02*
G37*
G36*
X275858D02*
X274905Y220701D01*
X274016Y220332D01*
X273253Y219747D01*
X272668Y218984D01*
X272300Y218095D01*
X272174Y217142D01*
X272300Y216188D01*
X272668Y215300D01*
X273253Y214537D01*
X274016Y213951D01*
X274905Y213583D01*
X275858Y213457D01*
X276812Y213583D01*
X277700Y213951D01*
X278463Y214537D01*
X279049Y215300D01*
X279417Y216188D01*
X279542Y217142D01*
X279417Y218095D01*
X279049Y218984D01*
X278463Y219747D01*
X277700Y220332D01*
X276812Y220701D01*
X275858Y220826D01*
D02*
G37*
G36*
X265858D02*
X264905Y220701D01*
X264016Y220332D01*
X263253Y219747D01*
X262668Y218984D01*
X262299Y218095D01*
X262174Y217142D01*
X262299Y216188D01*
X262668Y215300D01*
X263253Y214537D01*
X264016Y213951D01*
X264905Y213583D01*
X265858Y213457D01*
X266812Y213583D01*
X267700Y213951D01*
X268463Y214537D01*
X269049Y215300D01*
X269417Y216188D01*
X269543Y217142D01*
X269417Y218095D01*
X269049Y218984D01*
X268463Y219747D01*
X267700Y220332D01*
X266812Y220701D01*
X265858Y220826D01*
D02*
G37*
G36*
X255858D02*
X254905Y220701D01*
X254016Y220332D01*
X253253Y219747D01*
X252668Y218984D01*
X252299Y218095D01*
X252174Y217142D01*
X252299Y216188D01*
X252668Y215300D01*
X253253Y214537D01*
X254016Y213951D01*
X254905Y213583D01*
X255858Y213457D01*
X256812Y213583D01*
X257700Y213951D01*
X258463Y214537D01*
X259049Y215300D01*
X259417Y216188D01*
X259542Y217142D01*
X259417Y218095D01*
X259049Y218984D01*
X258463Y219747D01*
X257700Y220332D01*
X256812Y220701D01*
X255858Y220826D01*
D02*
G37*
G36*
X245858D02*
X244905Y220701D01*
X244016Y220332D01*
X243253Y219747D01*
X242668Y218984D01*
X242300Y218095D01*
X242174Y217142D01*
X242300Y216188D01*
X242668Y215300D01*
X243253Y214537D01*
X244016Y213951D01*
X244905Y213583D01*
X245858Y213457D01*
X246812Y213583D01*
X247700Y213951D01*
X248463Y214537D01*
X249049Y215300D01*
X249417Y216188D01*
X249542Y217142D01*
X249417Y218095D01*
X249049Y218984D01*
X248463Y219747D01*
X247700Y220332D01*
X246812Y220701D01*
X245858Y220826D01*
D02*
G37*
G36*
X235858D02*
X234905Y220701D01*
X234016Y220332D01*
X233253Y219747D01*
X232668Y218984D01*
X232299Y218095D01*
X232174Y217142D01*
X232299Y216188D01*
X232668Y215300D01*
X233253Y214537D01*
X234016Y213951D01*
X234905Y213583D01*
X235858Y213457D01*
X236812Y213583D01*
X237700Y213951D01*
X238463Y214537D01*
X239049Y215300D01*
X239417Y216188D01*
X239543Y217142D01*
X239417Y218095D01*
X239049Y218984D01*
X238463Y219747D01*
X237700Y220332D01*
X236812Y220701D01*
X235858Y220826D01*
D02*
G37*
G36*
X225858D02*
X224905Y220701D01*
X224016Y220332D01*
X223253Y219747D01*
X222668Y218984D01*
X222300Y218095D01*
X222174Y217142D01*
X222300Y216188D01*
X222668Y215300D01*
X223253Y214537D01*
X224016Y213951D01*
X224905Y213583D01*
X225858Y213457D01*
X226812Y213583D01*
X227700Y213951D01*
X228463Y214537D01*
X229049Y215300D01*
X229417Y216188D01*
X229542Y217142D01*
X229417Y218095D01*
X229049Y218984D01*
X228463Y219747D01*
X227700Y220332D01*
X226812Y220701D01*
X225858Y220826D01*
D02*
G37*
G36*
X215858D02*
X214905Y220701D01*
X214016Y220332D01*
X213253Y219747D01*
X212668Y218984D01*
X212299Y218095D01*
X212174Y217142D01*
X212299Y216188D01*
X212668Y215300D01*
X213253Y214537D01*
X214016Y213951D01*
X214905Y213583D01*
X215858Y213457D01*
X216812Y213583D01*
X217700Y213951D01*
X218463Y214537D01*
X219049Y215300D01*
X219417Y216188D01*
X219543Y217142D01*
X219417Y218095D01*
X219049Y218984D01*
X218463Y219747D01*
X217700Y220332D01*
X216812Y220701D01*
X215858Y220826D01*
D02*
G37*
G36*
X205858D02*
X204905Y220701D01*
X204016Y220332D01*
X203253Y219747D01*
X202668Y218984D01*
X202299Y218095D01*
X202174Y217142D01*
X202299Y216188D01*
X202668Y215300D01*
X203253Y214537D01*
X204016Y213951D01*
X204905Y213583D01*
X205858Y213457D01*
X206812Y213583D01*
X207700Y213951D01*
X208463Y214537D01*
X209049Y215300D01*
X209417Y216188D01*
X209542Y217142D01*
X209417Y218095D01*
X209049Y218984D01*
X208463Y219747D01*
X207700Y220332D01*
X206812Y220701D01*
X205858Y220826D01*
D02*
G37*
G36*
X195858D02*
X194905Y220701D01*
X194016Y220332D01*
X193253Y219747D01*
X192668Y218984D01*
X192299Y218095D01*
X192174Y217142D01*
X192299Y216188D01*
X192668Y215300D01*
X193253Y214537D01*
X194016Y213951D01*
X194905Y213583D01*
X195858Y213457D01*
X196812Y213583D01*
X197700Y213951D01*
X198463Y214537D01*
X199049Y215300D01*
X199417Y216188D01*
X199542Y217142D01*
X199417Y218095D01*
X199049Y218984D01*
X198463Y219747D01*
X197700Y220332D01*
X196812Y220701D01*
X195858Y220826D01*
D02*
G37*
G36*
X185858D02*
X184905Y220701D01*
X184016Y220332D01*
X183253Y219747D01*
X182668Y218984D01*
X182299Y218095D01*
X182174Y217142D01*
X182299Y216188D01*
X182668Y215300D01*
X183253Y214537D01*
X184016Y213951D01*
X184905Y213583D01*
X185858Y213457D01*
X186812Y213583D01*
X187700Y213951D01*
X188463Y214537D01*
X189049Y215300D01*
X189417Y216188D01*
X189542Y217142D01*
X189417Y218095D01*
X189049Y218984D01*
X188463Y219747D01*
X187700Y220332D01*
X186812Y220701D01*
X185858Y220826D01*
D02*
G37*
G36*
X175858D02*
X174905Y220701D01*
X174016Y220332D01*
X173253Y219747D01*
X172668Y218984D01*
X172300Y218095D01*
X172174Y217142D01*
X172300Y216188D01*
X172668Y215300D01*
X173253Y214537D01*
X174016Y213951D01*
X174905Y213583D01*
X175858Y213457D01*
X176812Y213583D01*
X177700Y213951D01*
X178463Y214537D01*
X179049Y215300D01*
X179417Y216188D01*
X179543Y217142D01*
X179417Y218095D01*
X179049Y218984D01*
X178463Y219747D01*
X177700Y220332D01*
X176812Y220701D01*
X175858Y220826D01*
D02*
G37*
G36*
X88953Y210953D02*
X86500D01*
Y208500D01*
X88953D01*
Y210953D01*
D02*
G37*
G36*
X74953D02*
X72500D01*
Y208500D01*
X74953D01*
Y210953D01*
D02*
G37*
G36*
X60953D02*
X58500D01*
Y208500D01*
X60953D01*
Y210953D01*
D02*
G37*
G36*
X46953D02*
X44500D01*
Y208500D01*
X46953D01*
Y210953D01*
D02*
G37*
G36*
X32953D02*
X30500D01*
Y208500D01*
X32953D01*
Y210953D01*
D02*
G37*
G36*
X97500D02*
X95047D01*
Y208500D01*
X97500D01*
Y210953D01*
D02*
G37*
G36*
X83500D02*
X81047D01*
Y208500D01*
X83500D01*
Y210953D01*
D02*
G37*
G36*
X69500D02*
X67047D01*
Y208500D01*
X69500D01*
Y210953D01*
D02*
G37*
G36*
X55500D02*
X53047D01*
Y208500D01*
X55500D01*
Y210953D01*
D02*
G37*
G36*
X41500D02*
X39047D01*
Y208500D01*
X41500D01*
Y210953D01*
D02*
G37*
G36*
X27500D02*
X25047D01*
Y208500D01*
X27500D01*
Y210953D01*
D02*
G37*
G36*
X102953Y205500D02*
X100500D01*
Y203047D01*
X102953D01*
Y205500D01*
D02*
G37*
G36*
X97500D02*
X95047D01*
Y203047D01*
X97500D01*
Y205500D01*
D02*
G37*
G36*
X88953D02*
X86500D01*
Y203047D01*
X88953D01*
Y205500D01*
D02*
G37*
G36*
X83500D02*
X81047D01*
Y203047D01*
X83500D01*
Y205500D01*
D02*
G37*
G36*
X74953D02*
X72500D01*
Y203047D01*
X74953D01*
Y205500D01*
D02*
G37*
G36*
X69500D02*
X67047D01*
Y203047D01*
X69500D01*
Y205500D01*
D02*
G37*
G36*
X60953D02*
X58500D01*
Y203047D01*
X60953D01*
Y205500D01*
D02*
G37*
G36*
X55500D02*
X53047D01*
Y203047D01*
X55500D01*
Y205500D01*
D02*
G37*
G36*
X46953D02*
X44500D01*
Y203047D01*
X46953D01*
Y205500D01*
D02*
G37*
G36*
X41500D02*
X39047D01*
Y203047D01*
X41500D01*
Y205500D01*
D02*
G37*
G36*
X32953D02*
X30500D01*
Y203047D01*
X32953D01*
Y205500D01*
D02*
G37*
G36*
X27500D02*
X25047D01*
Y203047D01*
X27500D01*
Y205500D01*
D02*
G37*
G36*
X287358Y190799D02*
Y188642D01*
X289515D01*
X289311Y189135D01*
X288677Y189961D01*
X287852Y190594D01*
X287358Y190799D01*
D02*
G37*
G36*
X284358D02*
X283865Y190594D01*
X283039Y189961D01*
X282405Y189135D01*
X282201Y188642D01*
X284358D01*
Y190799D01*
D02*
G37*
G36*
X289515Y185642D02*
X287358D01*
Y183485D01*
X287852Y183689D01*
X288677Y184323D01*
X289311Y185148D01*
X289515Y185642D01*
D02*
G37*
G36*
X159515D02*
X157358D01*
Y183485D01*
X157852Y183689D01*
X158677Y184323D01*
X159311Y185148D01*
X159515Y185642D01*
D02*
G37*
G36*
X154358D02*
X152201D01*
X152406Y185148D01*
X153039Y184323D01*
X153865Y183689D01*
X154358Y183485D01*
Y185642D01*
D02*
G37*
G36*
X284358D02*
X282201D01*
X282405Y185148D01*
X283039Y184323D01*
X283865Y183689D01*
X284358Y183485D01*
Y185642D01*
D02*
G37*
G36*
X375858Y190826D02*
X374905Y190700D01*
X374016Y190332D01*
X373253Y189747D01*
X372668Y188984D01*
X372300Y188095D01*
X372174Y187142D01*
X372300Y186188D01*
X372668Y185300D01*
X373253Y184537D01*
X374016Y183951D01*
X374905Y183583D01*
X375858Y183458D01*
X376812Y183583D01*
X377700Y183951D01*
X378463Y184537D01*
X379049Y185300D01*
X379417Y186188D01*
X379542Y187142D01*
X379417Y188095D01*
X379049Y188984D01*
X378463Y189747D01*
X377700Y190332D01*
X376812Y190700D01*
X375858Y190826D01*
D02*
G37*
G36*
X365858D02*
X364905Y190700D01*
X364016Y190332D01*
X363253Y189747D01*
X362668Y188984D01*
X362299Y188095D01*
X362174Y187142D01*
X362299Y186188D01*
X362668Y185300D01*
X363253Y184537D01*
X364016Y183951D01*
X364905Y183583D01*
X365858Y183458D01*
X366812Y183583D01*
X367700Y183951D01*
X368463Y184537D01*
X369049Y185300D01*
X369417Y186188D01*
X369543Y187142D01*
X369417Y188095D01*
X369049Y188984D01*
X368463Y189747D01*
X367700Y190332D01*
X366812Y190700D01*
X365858Y190826D01*
D02*
G37*
G36*
X355858D02*
X354905Y190700D01*
X354016Y190332D01*
X353253Y189747D01*
X352668Y188984D01*
X352299Y188095D01*
X352174Y187142D01*
X352299Y186188D01*
X352668Y185300D01*
X353253Y184537D01*
X354016Y183951D01*
X354905Y183583D01*
X355858Y183458D01*
X356812Y183583D01*
X357700Y183951D01*
X358463Y184537D01*
X359049Y185300D01*
X359417Y186188D01*
X359542Y187142D01*
X359417Y188095D01*
X359049Y188984D01*
X358463Y189747D01*
X357700Y190332D01*
X356812Y190700D01*
X355858Y190826D01*
D02*
G37*
G36*
X345858D02*
X344905Y190700D01*
X344016Y190332D01*
X343253Y189747D01*
X342668Y188984D01*
X342300Y188095D01*
X342174Y187142D01*
X342300Y186188D01*
X342668Y185300D01*
X343253Y184537D01*
X344016Y183951D01*
X344905Y183583D01*
X345858Y183458D01*
X346812Y183583D01*
X347700Y183951D01*
X348463Y184537D01*
X349049Y185300D01*
X349417Y186188D01*
X349542Y187142D01*
X349417Y188095D01*
X349049Y188984D01*
X348463Y189747D01*
X347700Y190332D01*
X346812Y190700D01*
X345858Y190826D01*
D02*
G37*
G36*
X335858D02*
X334905Y190700D01*
X334016Y190332D01*
X333253Y189747D01*
X332668Y188984D01*
X332299Y188095D01*
X332174Y187142D01*
X332299Y186188D01*
X332668Y185300D01*
X333253Y184537D01*
X334016Y183951D01*
X334905Y183583D01*
X335858Y183458D01*
X336812Y183583D01*
X337700Y183951D01*
X338463Y184537D01*
X339049Y185300D01*
X339417Y186188D01*
X339543Y187142D01*
X339417Y188095D01*
X339049Y188984D01*
X338463Y189747D01*
X337700Y190332D01*
X336812Y190700D01*
X335858Y190826D01*
D02*
G37*
G36*
X325858D02*
X324905Y190700D01*
X324016Y190332D01*
X323253Y189747D01*
X322668Y188984D01*
X322300Y188095D01*
X322174Y187142D01*
X322300Y186188D01*
X322668Y185300D01*
X323253Y184537D01*
X324016Y183951D01*
X324905Y183583D01*
X325858Y183458D01*
X326812Y183583D01*
X327700Y183951D01*
X328463Y184537D01*
X329049Y185300D01*
X329417Y186188D01*
X329542Y187142D01*
X329417Y188095D01*
X329049Y188984D01*
X328463Y189747D01*
X327700Y190332D01*
X326812Y190700D01*
X325858Y190826D01*
D02*
G37*
G36*
X315858D02*
X314905Y190700D01*
X314016Y190332D01*
X313253Y189747D01*
X312668Y188984D01*
X312299Y188095D01*
X312174Y187142D01*
X312299Y186188D01*
X312668Y185300D01*
X313253Y184537D01*
X314016Y183951D01*
X314905Y183583D01*
X315858Y183458D01*
X316812Y183583D01*
X317700Y183951D01*
X318463Y184537D01*
X319049Y185300D01*
X319417Y186188D01*
X319543Y187142D01*
X319417Y188095D01*
X319049Y188984D01*
X318463Y189747D01*
X317700Y190332D01*
X316812Y190700D01*
X315858Y190826D01*
D02*
G37*
G36*
X305858D02*
X304905Y190700D01*
X304016Y190332D01*
X303253Y189747D01*
X302668Y188984D01*
X302299Y188095D01*
X302174Y187142D01*
X302299Y186188D01*
X302668Y185300D01*
X303253Y184537D01*
X304016Y183951D01*
X304905Y183583D01*
X305858Y183458D01*
X306812Y183583D01*
X307700Y183951D01*
X308463Y184537D01*
X309049Y185300D01*
X309417Y186188D01*
X309542Y187142D01*
X309417Y188095D01*
X309049Y188984D01*
X308463Y189747D01*
X307700Y190332D01*
X306812Y190700D01*
X305858Y190826D01*
D02*
G37*
G36*
X295858D02*
X294905Y190700D01*
X294016Y190332D01*
X293253Y189747D01*
X292668Y188984D01*
X292300Y188095D01*
X292174Y187142D01*
X292300Y186188D01*
X292668Y185300D01*
X293253Y184537D01*
X294016Y183951D01*
X294905Y183583D01*
X295858Y183458D01*
X296812Y183583D01*
X297700Y183951D01*
X298463Y184537D01*
X299049Y185300D01*
X299417Y186188D01*
X299542Y187142D01*
X299417Y188095D01*
X299049Y188984D01*
X298463Y189747D01*
X297700Y190332D01*
X296812Y190700D01*
X295858Y190826D01*
D02*
G37*
G36*
X265858D02*
X264905Y190700D01*
X264016Y190332D01*
X263253Y189747D01*
X262668Y188984D01*
X262299Y188095D01*
X262174Y187142D01*
X262299Y186188D01*
X262668Y185300D01*
X263253Y184537D01*
X264016Y183951D01*
X264905Y183583D01*
X265858Y183458D01*
X266812Y183583D01*
X267700Y183951D01*
X268463Y184537D01*
X269049Y185300D01*
X269417Y186188D01*
X269543Y187142D01*
X269417Y188095D01*
X269049Y188984D01*
X268463Y189747D01*
X267700Y190332D01*
X266812Y190700D01*
X265858Y190826D01*
D02*
G37*
G36*
X255858D02*
X254905Y190700D01*
X254016Y190332D01*
X253253Y189747D01*
X252668Y188984D01*
X252299Y188095D01*
X252174Y187142D01*
X252299Y186188D01*
X252668Y185300D01*
X253253Y184537D01*
X254016Y183951D01*
X254905Y183583D01*
X255858Y183458D01*
X256812Y183583D01*
X257700Y183951D01*
X258463Y184537D01*
X259049Y185300D01*
X259417Y186188D01*
X259542Y187142D01*
X259417Y188095D01*
X259049Y188984D01*
X258463Y189747D01*
X257700Y190332D01*
X256812Y190700D01*
X255858Y190826D01*
D02*
G37*
G36*
X245858D02*
X244905Y190700D01*
X244016Y190332D01*
X243253Y189747D01*
X242668Y188984D01*
X242300Y188095D01*
X242174Y187142D01*
X242300Y186188D01*
X242450Y185825D01*
X215584Y158959D01*
X147638D01*
X147072Y158846D01*
X146592Y158526D01*
X100569Y112502D01*
X81095D01*
X80655Y112796D01*
X79921Y112942D01*
X79187Y112796D01*
X78565Y112380D01*
X78149Y111758D01*
X78003Y111024D01*
X78149Y110290D01*
X78565Y109667D01*
X79187Y109252D01*
X79921Y109106D01*
X80655Y109252D01*
X81095Y109545D01*
X101181D01*
X101747Y109658D01*
X102226Y109978D01*
X148250Y156002D01*
X216197D01*
X216763Y156114D01*
X217242Y156435D01*
X244541Y183734D01*
X244905Y183583D01*
X245858Y183458D01*
X246812Y183583D01*
X247700Y183951D01*
X248463Y184537D01*
X249049Y185300D01*
X249417Y186188D01*
X249542Y187142D01*
X249417Y188095D01*
X249049Y188984D01*
X248463Y189747D01*
X247700Y190332D01*
X246812Y190700D01*
X245858Y190826D01*
D02*
G37*
G36*
X235858D02*
X234905Y190700D01*
X234016Y190332D01*
X233253Y189747D01*
X232668Y188984D01*
X232299Y188095D01*
X232174Y187142D01*
X232299Y186188D01*
X232450Y185824D01*
X210506Y163880D01*
X164559D01*
X164120Y164173D01*
X163386Y164320D01*
X162652Y164173D01*
X162030Y163758D01*
X161614Y163136D01*
X161468Y162402D01*
X161614Y161668D01*
X162030Y161045D01*
X162652Y160630D01*
X163386Y160484D01*
X164120Y160630D01*
X164559Y160923D01*
X211118D01*
X211684Y161036D01*
X212163Y161356D01*
X234541Y183734D01*
X234905Y183583D01*
X235858Y183458D01*
X236812Y183583D01*
X237700Y183951D01*
X238463Y184537D01*
X239049Y185300D01*
X239417Y186188D01*
X239543Y187142D01*
X239417Y188095D01*
X239049Y188984D01*
X238463Y189747D01*
X237700Y190332D01*
X236812Y190700D01*
X235858Y190826D01*
D02*
G37*
G36*
X215858D02*
X214905Y190700D01*
X214016Y190332D01*
X213253Y189747D01*
X212668Y188984D01*
X212299Y188095D01*
X212174Y187142D01*
X212299Y186188D01*
X212556Y185570D01*
X199710Y172723D01*
X155945D01*
X155856Y172856D01*
X155234Y173272D01*
X154500Y173418D01*
X153766Y173272D01*
X153144Y172856D01*
X152728Y172234D01*
X152582Y171500D01*
X152728Y170766D01*
X153144Y170144D01*
X153766Y169728D01*
X154500Y169582D01*
X155234Y169728D01*
X155856Y170144D01*
X155945Y170276D01*
X200216D01*
X200685Y170370D01*
X201081Y170635D01*
X214286Y183839D01*
X214905Y183583D01*
X215858Y183458D01*
X216812Y183583D01*
X217700Y183951D01*
X218463Y184537D01*
X219049Y185300D01*
X219417Y186188D01*
X219543Y187142D01*
X219417Y188095D01*
X219049Y188984D01*
X218463Y189747D01*
X217700Y190332D01*
X216812Y190700D01*
X215858Y190826D01*
D02*
G37*
G36*
X205858D02*
X204905Y190700D01*
X204016Y190332D01*
X203253Y189747D01*
X202668Y188984D01*
X202299Y188095D01*
X202174Y187142D01*
X202299Y186188D01*
X202668Y185300D01*
X203253Y184537D01*
X204016Y183951D01*
X204905Y183583D01*
X205858Y183458D01*
X206812Y183583D01*
X207700Y183951D01*
X208463Y184537D01*
X209049Y185300D01*
X209417Y186188D01*
X209542Y187142D01*
X209417Y188095D01*
X209049Y188984D01*
X208463Y189747D01*
X207700Y190332D01*
X206812Y190700D01*
X205858Y190826D01*
D02*
G37*
G36*
X195858D02*
X194905Y190700D01*
X194016Y190332D01*
X193253Y189747D01*
X192668Y188984D01*
X192299Y188095D01*
X192174Y187142D01*
X192299Y186188D01*
X192668Y185300D01*
X193253Y184537D01*
X194016Y183951D01*
X194905Y183583D01*
X195858Y183458D01*
X196812Y183583D01*
X197700Y183951D01*
X198463Y184537D01*
X199049Y185300D01*
X199417Y186188D01*
X199542Y187142D01*
X199417Y188095D01*
X199049Y188984D01*
X198463Y189747D01*
X197700Y190332D01*
X196812Y190700D01*
X195858Y190826D01*
D02*
G37*
G36*
X185858D02*
X184905Y190700D01*
X184016Y190332D01*
X183253Y189747D01*
X182668Y188984D01*
X182299Y188095D01*
X182174Y187142D01*
X182299Y186188D01*
X182668Y185300D01*
X183253Y184537D01*
X184016Y183951D01*
X184905Y183583D01*
X185858Y183458D01*
X186812Y183583D01*
X187700Y183951D01*
X188463Y184537D01*
X189049Y185300D01*
X189417Y186188D01*
X189542Y187142D01*
X189417Y188095D01*
X189049Y188984D01*
X188463Y189747D01*
X187700Y190332D01*
X186812Y190700D01*
X185858Y190826D01*
D02*
G37*
G36*
X175858D02*
X174905Y190700D01*
X174016Y190332D01*
X173253Y189747D01*
X172668Y188984D01*
X172300Y188095D01*
X172174Y187142D01*
X172300Y186188D01*
X172668Y185300D01*
X173253Y184537D01*
X174016Y183951D01*
X174905Y183583D01*
X175858Y183458D01*
X176812Y183583D01*
X177700Y183951D01*
X178463Y184537D01*
X179049Y185300D01*
X179417Y186188D01*
X179543Y187142D01*
X179417Y188095D01*
X179049Y188984D01*
X178463Y189747D01*
X177700Y190332D01*
X176812Y190700D01*
X175858Y190826D01*
D02*
G37*
G36*
X17717Y171007D02*
X16763Y170882D01*
X15874Y170513D01*
X15111Y169928D01*
X14526Y169165D01*
X14158Y168276D01*
X14032Y167323D01*
X14158Y166369D01*
X14526Y165481D01*
X15111Y164718D01*
X15874Y164132D01*
X16763Y163764D01*
X17717Y163639D01*
X18670Y163764D01*
X19559Y164132D01*
X20322Y164718D01*
X20907Y165481D01*
X21275Y166369D01*
X21401Y167323D01*
X21275Y168276D01*
X20907Y169165D01*
X20322Y169928D01*
X19559Y170513D01*
X18670Y170882D01*
X17717Y171007D01*
D02*
G37*
G36*
X19217Y161137D02*
Y158980D01*
X21374D01*
X21169Y159474D01*
X20536Y160300D01*
X19710Y160933D01*
X19217Y161137D01*
D02*
G37*
G36*
X16217D02*
X15723Y160933D01*
X14897Y160300D01*
X14264Y159474D01*
X14059Y158980D01*
X16217D01*
Y161137D01*
D02*
G37*
G36*
X21374Y155980D02*
X19217D01*
Y153823D01*
X19710Y154028D01*
X20536Y154661D01*
X21169Y155487D01*
X21374Y155980D01*
D02*
G37*
G36*
X16217D02*
X14059D01*
X14264Y155487D01*
X14897Y154661D01*
X15723Y154028D01*
X16217Y153823D01*
Y155980D01*
D02*
G37*
G36*
X147358Y130799D02*
Y128642D01*
X149515D01*
X149311Y129135D01*
X148677Y129961D01*
X147852Y130595D01*
X147358Y130799D01*
D02*
G37*
G36*
X144358D02*
X143865Y130595D01*
X143039Y129961D01*
X142405Y129135D01*
X142201Y128642D01*
X144358D01*
Y130799D01*
D02*
G37*
G36*
X275858Y190826D02*
X274905Y190700D01*
X274016Y190332D01*
X273253Y189747D01*
X272668Y188984D01*
X272300Y188095D01*
X272174Y187142D01*
X272300Y186188D01*
X272668Y185300D01*
X273253Y184537D01*
X274016Y183951D01*
X274905Y183583D01*
X275858Y183458D01*
X276812Y183583D01*
X277431Y183839D01*
X289721Y171548D01*
Y128667D01*
X289221Y128568D01*
X289049Y128984D01*
X288463Y129747D01*
X287700Y130332D01*
X286812Y130701D01*
X285858Y130826D01*
X284905Y130701D01*
X284016Y130332D01*
X283253Y129747D01*
X282668Y128984D01*
X282299Y128095D01*
X282174Y127142D01*
X282299Y126188D01*
X282450Y125824D01*
X268266Y111641D01*
X262362D01*
X261796Y111528D01*
X261317Y111207D01*
X247288Y97178D01*
X147038D01*
X139670Y104546D01*
X139567Y105065D01*
X139152Y105687D01*
X138529Y106103D01*
X137795Y106249D01*
X137061Y106103D01*
X136439Y105687D01*
X136023Y105065D01*
X135877Y104331D01*
X136023Y103597D01*
X136439Y102974D01*
X137061Y102559D01*
X137580Y102456D01*
X145381Y94655D01*
X145860Y94334D01*
X146426Y94222D01*
X246422D01*
Y55100D01*
X246534Y54534D01*
X246855Y54055D01*
X272392Y28517D01*
X272241Y28154D01*
X272116Y27200D01*
X272241Y26246D01*
X272609Y25358D01*
X273195Y24595D01*
X273958Y24009D01*
X274846Y23641D01*
X275800Y23516D01*
X276754Y23641D01*
X277642Y24009D01*
X278405Y24595D01*
X278991Y25358D01*
X279359Y26246D01*
X279484Y27200D01*
X279359Y28154D01*
X278991Y29042D01*
X278405Y29805D01*
X277642Y30391D01*
X276754Y30759D01*
X275800Y30884D01*
X274846Y30759D01*
X274483Y30608D01*
X249378Y55712D01*
Y95088D01*
X262975Y108684D01*
X268879D01*
X269444Y108796D01*
X269924Y109117D01*
X284541Y123734D01*
X284905Y123583D01*
X285858Y123458D01*
X286812Y123583D01*
X287700Y123951D01*
X288463Y124537D01*
X289049Y125300D01*
X289221Y125716D01*
X289721Y125616D01*
Y115357D01*
X284935Y110571D01*
X284670Y110174D01*
X284577Y109705D01*
Y95647D01*
X283958Y95391D01*
X283195Y94805D01*
X282609Y94042D01*
X282241Y93154D01*
X282116Y92200D01*
X282241Y91246D01*
X282609Y90358D01*
X283195Y89595D01*
X283958Y89009D01*
X284846Y88641D01*
X285800Y88516D01*
X286754Y88641D01*
X287642Y89009D01*
X288405Y89595D01*
X288991Y90358D01*
X289359Y91246D01*
X289484Y92200D01*
X289359Y93154D01*
X288991Y94042D01*
X288405Y94805D01*
X287642Y95391D01*
X287023Y95647D01*
Y109199D01*
X291810Y113985D01*
X292075Y114382D01*
X292168Y114850D01*
Y125198D01*
X292668Y125300D01*
X293253Y124537D01*
X294016Y123951D01*
X294905Y123583D01*
X295858Y123458D01*
X296812Y123583D01*
X297700Y123951D01*
X298463Y124537D01*
X299049Y125300D01*
X299417Y126188D01*
X299542Y127142D01*
X299417Y128095D01*
X299049Y128984D01*
X298463Y129747D01*
X297700Y130332D01*
X296812Y130701D01*
X295858Y130826D01*
X294905Y130701D01*
X294016Y130332D01*
X293253Y129747D01*
X292668Y128984D01*
X292168Y129085D01*
Y172055D01*
X292075Y172523D01*
X291810Y172920D01*
X279161Y185570D01*
X279417Y186188D01*
X279542Y187142D01*
X279417Y188095D01*
X279049Y188984D01*
X278463Y189747D01*
X277700Y190332D01*
X276812Y190700D01*
X275858Y190826D01*
D02*
G37*
G36*
X149515Y125642D02*
X147358D01*
Y123485D01*
X147852Y123689D01*
X148677Y124323D01*
X149311Y125148D01*
X149515Y125642D01*
D02*
G37*
G36*
X144358D02*
X142201D01*
X142405Y125148D01*
X143039Y124323D01*
X143865Y123689D01*
X144358Y123485D01*
Y125642D01*
D02*
G37*
G36*
X375858Y130826D02*
X374905Y130701D01*
X374016Y130332D01*
X373253Y129747D01*
X372668Y128984D01*
X372300Y128095D01*
X372174Y127142D01*
X372300Y126188D01*
X372668Y125300D01*
X373253Y124537D01*
X374016Y123951D01*
X374905Y123583D01*
X375858Y123458D01*
X376812Y123583D01*
X377700Y123951D01*
X378463Y124537D01*
X379049Y125300D01*
X379417Y126188D01*
X379542Y127142D01*
X379417Y128095D01*
X379049Y128984D01*
X378463Y129747D01*
X377700Y130332D01*
X376812Y130701D01*
X375858Y130826D01*
D02*
G37*
G36*
X365858D02*
X364905Y130701D01*
X364016Y130332D01*
X363253Y129747D01*
X362668Y128984D01*
X362299Y128095D01*
X362174Y127142D01*
X362299Y126188D01*
X362668Y125300D01*
X363253Y124537D01*
X364016Y123951D01*
X364905Y123583D01*
X365858Y123458D01*
X366812Y123583D01*
X367700Y123951D01*
X368463Y124537D01*
X369049Y125300D01*
X369417Y126188D01*
X369543Y127142D01*
X369417Y128095D01*
X369049Y128984D01*
X368463Y129747D01*
X367700Y130332D01*
X366812Y130701D01*
X365858Y130826D01*
D02*
G37*
G36*
X355858D02*
X354905Y130701D01*
X354016Y130332D01*
X353253Y129747D01*
X352668Y128984D01*
X352299Y128095D01*
X352174Y127142D01*
X352299Y126188D01*
X352668Y125300D01*
X353253Y124537D01*
X354016Y123951D01*
X354905Y123583D01*
X355858Y123458D01*
X356812Y123583D01*
X357700Y123951D01*
X358463Y124537D01*
X359049Y125300D01*
X359417Y126188D01*
X359542Y127142D01*
X359417Y128095D01*
X359049Y128984D01*
X358463Y129747D01*
X357700Y130332D01*
X356812Y130701D01*
X355858Y130826D01*
D02*
G37*
G36*
X345858D02*
X344905Y130701D01*
X344016Y130332D01*
X343253Y129747D01*
X342668Y128984D01*
X342300Y128095D01*
X342174Y127142D01*
X342300Y126188D01*
X342668Y125300D01*
X343253Y124537D01*
X344016Y123951D01*
X344905Y123583D01*
X345858Y123458D01*
X346812Y123583D01*
X347700Y123951D01*
X348463Y124537D01*
X349049Y125300D01*
X349417Y126188D01*
X349542Y127142D01*
X349417Y128095D01*
X349049Y128984D01*
X348463Y129747D01*
X347700Y130332D01*
X346812Y130701D01*
X345858Y130826D01*
D02*
G37*
G36*
X335858D02*
X334905Y130701D01*
X334016Y130332D01*
X333253Y129747D01*
X332668Y128984D01*
X332299Y128095D01*
X332174Y127142D01*
X332299Y126188D01*
X332668Y125300D01*
X333253Y124537D01*
X334016Y123951D01*
X334905Y123583D01*
X335858Y123458D01*
X336812Y123583D01*
X337700Y123951D01*
X338463Y124537D01*
X339049Y125300D01*
X339417Y126188D01*
X339543Y127142D01*
X339417Y128095D01*
X339049Y128984D01*
X338463Y129747D01*
X337700Y130332D01*
X336812Y130701D01*
X335858Y130826D01*
D02*
G37*
G36*
X325858D02*
X324905Y130701D01*
X324016Y130332D01*
X323253Y129747D01*
X322668Y128984D01*
X322300Y128095D01*
X322174Y127142D01*
X322300Y126188D01*
X322556Y125569D01*
X320001Y123015D01*
X319736Y122618D01*
X319643Y122150D01*
Y93775D01*
X319143Y93675D01*
X318991Y94042D01*
X318405Y94805D01*
X317642Y95391D01*
X316754Y95759D01*
X315800Y95884D01*
X314846Y95759D01*
X313958Y95391D01*
X313195Y94805D01*
X312747Y94222D01*
X312247Y94392D01*
Y121800D01*
X314286Y123839D01*
X314905Y123583D01*
X315858Y123458D01*
X316812Y123583D01*
X317700Y123951D01*
X318463Y124537D01*
X319049Y125300D01*
X319417Y126188D01*
X319543Y127142D01*
X319417Y128095D01*
X319049Y128984D01*
X318463Y129747D01*
X317700Y130332D01*
X316812Y130701D01*
X315858Y130826D01*
X314905Y130701D01*
X314016Y130332D01*
X313253Y129747D01*
X312668Y128984D01*
X312299Y128095D01*
X312174Y127142D01*
X312299Y126188D01*
X312556Y125569D01*
X310158Y123172D01*
X309893Y122775D01*
X309800Y122307D01*
Y93395D01*
X309300Y93295D01*
X308991Y94042D01*
X308405Y94805D01*
X307642Y95391D01*
X306754Y95759D01*
X305800Y95884D01*
X304846Y95759D01*
X303958Y95391D01*
X303195Y94805D01*
X302780Y94265D01*
X302280Y94435D01*
Y121833D01*
X304286Y123839D01*
X304905Y123583D01*
X305858Y123458D01*
X306812Y123583D01*
X307700Y123951D01*
X308463Y124537D01*
X309049Y125300D01*
X309417Y126188D01*
X309542Y127142D01*
X309417Y128095D01*
X309049Y128984D01*
X308463Y129747D01*
X307700Y130332D01*
X306812Y130701D01*
X305858Y130826D01*
X304905Y130701D01*
X304016Y130332D01*
X303253Y129747D01*
X302668Y128984D01*
X302299Y128095D01*
X302174Y127142D01*
X302299Y126188D01*
X302556Y125569D01*
X300191Y123205D01*
X299926Y122808D01*
X299833Y122340D01*
Y93256D01*
X299359Y93154D01*
X298991Y94042D01*
X298405Y94805D01*
X297642Y95391D01*
X296754Y95759D01*
X295800Y95884D01*
X294846Y95759D01*
X293958Y95391D01*
X293195Y94805D01*
X292609Y94042D01*
X292241Y93154D01*
X292116Y92200D01*
X292241Y91246D01*
X292609Y90358D01*
X293195Y89595D01*
X293958Y89009D01*
X294577Y88753D01*
Y68373D01*
X294670Y67905D01*
X294935Y67508D01*
X296145Y66298D01*
X296113Y66142D01*
X296259Y65408D01*
X296675Y64785D01*
X297298Y64370D01*
X298031Y64224D01*
X298765Y64370D01*
X299388Y64785D01*
X299803Y65408D01*
X299949Y66142D01*
X299803Y66876D01*
X299388Y67498D01*
X298765Y67914D01*
X298031Y68060D01*
X297875Y68028D01*
X297024Y68880D01*
Y88753D01*
X297642Y89009D01*
X298405Y89595D01*
X298991Y90358D01*
X299359Y91246D01*
X299833Y91144D01*
Y75411D01*
X299926Y74943D01*
X300191Y74546D01*
X304576Y70161D01*
Y30647D01*
X303958Y30391D01*
X303195Y29805D01*
X302609Y29042D01*
X302241Y28154D01*
X302116Y27200D01*
X302241Y26246D01*
X302609Y25358D01*
X303195Y24595D01*
X303958Y24009D01*
X304846Y23641D01*
X305800Y23516D01*
X306754Y23641D01*
X307642Y24009D01*
X308405Y24595D01*
X308991Y25358D01*
X309359Y26246D01*
X309484Y27200D01*
X309359Y28154D01*
X308991Y29042D01*
X308405Y29805D01*
X307642Y30391D01*
X307024Y30647D01*
Y70668D01*
X306930Y71136D01*
X306665Y71533D01*
X302280Y75918D01*
Y89965D01*
X302780Y90135D01*
X303195Y89595D01*
X303958Y89009D01*
X304846Y88641D01*
X305800Y88516D01*
X306754Y88641D01*
X307642Y89009D01*
X308405Y89595D01*
X308991Y90358D01*
X309300Y91105D01*
X309800Y91005D01*
Y76772D01*
X309893Y76303D01*
X310158Y75906D01*
X314577Y71488D01*
Y30647D01*
X313958Y30391D01*
X313195Y29805D01*
X312609Y29042D01*
X312241Y28154D01*
X312116Y27200D01*
X312241Y26246D01*
X312609Y25358D01*
X313195Y24595D01*
X313958Y24009D01*
X314846Y23641D01*
X315800Y23516D01*
X316754Y23641D01*
X317642Y24009D01*
X318405Y24595D01*
X318991Y25358D01*
X319359Y26246D01*
X319484Y27200D01*
X319359Y28154D01*
X318991Y29042D01*
X318405Y29805D01*
X317642Y30391D01*
X317023Y30647D01*
Y71995D01*
X316930Y72464D01*
X316665Y72860D01*
X312247Y77278D01*
Y90008D01*
X312747Y90178D01*
X313195Y89595D01*
X313958Y89009D01*
X314846Y88641D01*
X315800Y88516D01*
X316754Y88641D01*
X317642Y89009D01*
X318405Y89595D01*
X318991Y90358D01*
X319143Y90725D01*
X319643Y90625D01*
Y77391D01*
X319736Y76922D01*
X320001Y76525D01*
X324576Y71950D01*
Y30647D01*
X323958Y30391D01*
X323195Y29805D01*
X322609Y29042D01*
X322241Y28154D01*
X322116Y27200D01*
X322241Y26246D01*
X322609Y25358D01*
X323195Y24595D01*
X323958Y24009D01*
X324846Y23641D01*
X325800Y23516D01*
X326754Y23641D01*
X327642Y24009D01*
X328405Y24595D01*
X328991Y25358D01*
X329359Y26246D01*
X329484Y27200D01*
X329359Y28154D01*
X328991Y29042D01*
X328405Y29805D01*
X327642Y30391D01*
X327024Y30647D01*
Y72457D01*
X326930Y72925D01*
X326665Y73322D01*
X322090Y77897D01*
Y90306D01*
X322590Y90405D01*
X322609Y90358D01*
X323195Y89595D01*
X323958Y89009D01*
X324846Y88641D01*
X325800Y88516D01*
X326754Y88641D01*
X327642Y89009D01*
X328405Y89595D01*
X328991Y90358D01*
X329359Y91246D01*
X329484Y92200D01*
X329359Y93154D01*
X328991Y94042D01*
X328405Y94805D01*
X327642Y95391D01*
X326754Y95759D01*
X325800Y95884D01*
X324846Y95759D01*
X323958Y95391D01*
X323195Y94805D01*
X322609Y94042D01*
X322590Y93995D01*
X322090Y94094D01*
Y121643D01*
X324286Y123839D01*
X324905Y123583D01*
X325858Y123458D01*
X326812Y123583D01*
X327700Y123951D01*
X328463Y124537D01*
X329049Y125300D01*
X329417Y126188D01*
X329542Y127142D01*
X329417Y128095D01*
X329049Y128984D01*
X328463Y129747D01*
X327700Y130332D01*
X326812Y130701D01*
X325858Y130826D01*
D02*
G37*
G36*
X275858D02*
X274905Y130701D01*
X274016Y130332D01*
X273253Y129747D01*
X272668Y128984D01*
X272300Y128095D01*
X272174Y127142D01*
X272300Y126188D01*
X272668Y125300D01*
X273253Y124537D01*
X274016Y123951D01*
X274905Y123583D01*
X275858Y123458D01*
X276812Y123583D01*
X277700Y123951D01*
X278463Y124537D01*
X279049Y125300D01*
X279417Y126188D01*
X279542Y127142D01*
X279417Y128095D01*
X279049Y128984D01*
X278463Y129747D01*
X277700Y130332D01*
X276812Y130701D01*
X275858Y130826D01*
D02*
G37*
G36*
X265858D02*
X264905Y130701D01*
X264016Y130332D01*
X263253Y129747D01*
X262668Y128984D01*
X262299Y128095D01*
X262174Y127142D01*
X262299Y126188D01*
X262668Y125300D01*
X263253Y124537D01*
X264016Y123951D01*
X264905Y123583D01*
X265858Y123458D01*
X266812Y123583D01*
X267700Y123951D01*
X268463Y124537D01*
X269049Y125300D01*
X269417Y126188D01*
X269543Y127142D01*
X269417Y128095D01*
X269049Y128984D01*
X268463Y129747D01*
X267700Y130332D01*
X266812Y130701D01*
X265858Y130826D01*
D02*
G37*
G36*
X255858D02*
X254905Y130701D01*
X254016Y130332D01*
X253253Y129747D01*
X252668Y128984D01*
X252299Y128095D01*
X252174Y127142D01*
X252299Y126188D01*
X252668Y125300D01*
X253253Y124537D01*
X254016Y123951D01*
X254905Y123583D01*
X255858Y123458D01*
X256812Y123583D01*
X257700Y123951D01*
X258463Y124537D01*
X259049Y125300D01*
X259417Y126188D01*
X259542Y127142D01*
X259417Y128095D01*
X259049Y128984D01*
X258463Y129747D01*
X257700Y130332D01*
X256812Y130701D01*
X255858Y130826D01*
D02*
G37*
G36*
X245858D02*
X244905Y130701D01*
X244016Y130332D01*
X243253Y129747D01*
X242668Y128984D01*
X242300Y128095D01*
X242174Y127142D01*
X242300Y126188D01*
X242668Y125300D01*
X243253Y124537D01*
X244016Y123951D01*
X244905Y123583D01*
X245858Y123458D01*
X246812Y123583D01*
X247700Y123951D01*
X248463Y124537D01*
X249049Y125300D01*
X249417Y126188D01*
X249542Y127142D01*
X249417Y128095D01*
X249049Y128984D01*
X248463Y129747D01*
X247700Y130332D01*
X246812Y130701D01*
X245858Y130826D01*
D02*
G37*
G36*
X235858D02*
X234905Y130701D01*
X234016Y130332D01*
X233253Y129747D01*
X232668Y128984D01*
X232299Y128095D01*
X232174Y127142D01*
X232299Y126188D01*
X232668Y125300D01*
X233253Y124537D01*
X234016Y123951D01*
X234905Y123583D01*
X235858Y123458D01*
X236812Y123583D01*
X237700Y123951D01*
X238463Y124537D01*
X239049Y125300D01*
X239417Y126188D01*
X239543Y127142D01*
X239417Y128095D01*
X239049Y128984D01*
X238463Y129747D01*
X237700Y130332D01*
X236812Y130701D01*
X235858Y130826D01*
D02*
G37*
G36*
X225858D02*
X224905Y130701D01*
X224016Y130332D01*
X223253Y129747D01*
X222668Y128984D01*
X222300Y128095D01*
X222174Y127142D01*
X222300Y126188D01*
X222668Y125300D01*
X223253Y124537D01*
X224016Y123951D01*
X224905Y123583D01*
X225858Y123458D01*
X226812Y123583D01*
X227700Y123951D01*
X228463Y124537D01*
X229049Y125300D01*
X229417Y126188D01*
X229542Y127142D01*
X229417Y128095D01*
X229049Y128984D01*
X228463Y129747D01*
X227700Y130332D01*
X226812Y130701D01*
X225858Y130826D01*
D02*
G37*
G36*
X215858D02*
X214905Y130701D01*
X214016Y130332D01*
X213253Y129747D01*
X212668Y128984D01*
X212299Y128095D01*
X212174Y127142D01*
X212299Y126188D01*
X212668Y125300D01*
X213253Y124537D01*
X214016Y123951D01*
X214905Y123583D01*
X215858Y123458D01*
X216812Y123583D01*
X217700Y123951D01*
X218463Y124537D01*
X219049Y125300D01*
X219417Y126188D01*
X219543Y127142D01*
X219417Y128095D01*
X219049Y128984D01*
X218463Y129747D01*
X217700Y130332D01*
X216812Y130701D01*
X215858Y130826D01*
D02*
G37*
G36*
X205858D02*
X204905Y130701D01*
X204016Y130332D01*
X203253Y129747D01*
X202668Y128984D01*
X202299Y128095D01*
X202174Y127142D01*
X202299Y126188D01*
X202668Y125300D01*
X203253Y124537D01*
X204016Y123951D01*
X204905Y123583D01*
X205858Y123458D01*
X206812Y123583D01*
X207700Y123951D01*
X208463Y124537D01*
X209049Y125300D01*
X209417Y126188D01*
X209542Y127142D01*
X209417Y128095D01*
X209049Y128984D01*
X208463Y129747D01*
X207700Y130332D01*
X206812Y130701D01*
X205858Y130826D01*
D02*
G37*
G36*
X195858D02*
X194905Y130701D01*
X194016Y130332D01*
X193253Y129747D01*
X192668Y128984D01*
X192299Y128095D01*
X192174Y127142D01*
X192299Y126188D01*
X192668Y125300D01*
X193253Y124537D01*
X194016Y123951D01*
X194905Y123583D01*
X195858Y123458D01*
X196812Y123583D01*
X197700Y123951D01*
X198463Y124537D01*
X199049Y125300D01*
X199417Y126188D01*
X199542Y127142D01*
X199417Y128095D01*
X199049Y128984D01*
X198463Y129747D01*
X197700Y130332D01*
X196812Y130701D01*
X195858Y130826D01*
D02*
G37*
G36*
X175858D02*
X174905Y130701D01*
X174016Y130332D01*
X173253Y129747D01*
X172668Y128984D01*
X172300Y128095D01*
X172174Y127142D01*
X172300Y126188D01*
X172668Y125300D01*
X173253Y124537D01*
X174016Y123951D01*
X174905Y123583D01*
X175858Y123458D01*
X176812Y123583D01*
X177700Y123951D01*
X178463Y124537D01*
X179049Y125300D01*
X179417Y126188D01*
X179543Y127142D01*
X179417Y128095D01*
X179049Y128984D01*
X178463Y129747D01*
X177700Y130332D01*
X176812Y130701D01*
X175858Y130826D01*
D02*
G37*
G36*
X165858D02*
X164905Y130701D01*
X164016Y130332D01*
X163253Y129747D01*
X162668Y128984D01*
X162300Y128095D01*
X162174Y127142D01*
X162300Y126188D01*
X162668Y125300D01*
X163253Y124537D01*
X164016Y123951D01*
X164905Y123583D01*
X165858Y123458D01*
X166812Y123583D01*
X167700Y123951D01*
X168463Y124537D01*
X169049Y125300D01*
X169417Y126188D01*
X169543Y127142D01*
X169417Y128095D01*
X169049Y128984D01*
X168463Y129747D01*
X167700Y130332D01*
X166812Y130701D01*
X165858Y130826D01*
D02*
G37*
G36*
X155858D02*
X154905Y130701D01*
X154016Y130332D01*
X153253Y129747D01*
X152668Y128984D01*
X152299Y128095D01*
X152174Y127142D01*
X152299Y126188D01*
X152668Y125300D01*
X153253Y124537D01*
X154016Y123951D01*
X154905Y123583D01*
X155858Y123458D01*
X156812Y123583D01*
X157700Y123951D01*
X158463Y124537D01*
X159049Y125300D01*
X159417Y126188D01*
X159543Y127142D01*
X159417Y128095D01*
X159049Y128984D01*
X158463Y129747D01*
X157700Y130332D01*
X156812Y130701D01*
X155858Y130826D01*
D02*
G37*
G36*
X185858D02*
X184905Y130701D01*
X184016Y130332D01*
X183253Y129747D01*
X182668Y128984D01*
X182299Y128095D01*
X182174Y127142D01*
X182299Y126188D01*
X182668Y125300D01*
X183253Y124537D01*
X183781Y124131D01*
Y111470D01*
X183518Y111418D01*
X182896Y111002D01*
X182480Y110380D01*
X182334Y109646D01*
X182480Y108912D01*
X182896Y108290D01*
X183518Y107874D01*
X184252Y107728D01*
X184986Y107874D01*
X185608Y108290D01*
X186024Y108912D01*
X186170Y109646D01*
X186118Y109905D01*
X186135Y109930D01*
X186228Y110398D01*
Y123506D01*
X186812Y123583D01*
X187700Y123951D01*
X188463Y124537D01*
X189049Y125300D01*
X189417Y126188D01*
X189542Y127142D01*
X189417Y128095D01*
X189049Y128984D01*
X188463Y129747D01*
X187700Y130332D01*
X186812Y130701D01*
X185858Y130826D01*
D02*
G37*
G36*
X17717Y113920D02*
X16763Y113795D01*
X15874Y113427D01*
X15111Y112841D01*
X14526Y112078D01*
X14158Y111190D01*
X14032Y110236D01*
X14158Y109283D01*
X14526Y108394D01*
X15111Y107631D01*
X15874Y107046D01*
X16763Y106677D01*
X17717Y106552D01*
X18670Y106677D01*
X19559Y107046D01*
X20322Y107631D01*
X20907Y108394D01*
X21275Y109283D01*
X21401Y110236D01*
X21275Y111190D01*
X20907Y112078D01*
X20322Y112841D01*
X19559Y113427D01*
X18670Y113795D01*
X17717Y113920D01*
D02*
G37*
G36*
X19217Y104051D02*
Y101894D01*
X21374D01*
X21169Y102387D01*
X20536Y103213D01*
X19710Y103846D01*
X19217Y104051D01*
D02*
G37*
G36*
X16217D02*
X15723Y103846D01*
X14897Y103213D01*
X14264Y102387D01*
X14059Y101894D01*
X16217D01*
Y104051D01*
D02*
G37*
G36*
X21374Y98894D02*
X19217D01*
Y96737D01*
X19710Y96941D01*
X20536Y97575D01*
X21169Y98400D01*
X21374Y98894D01*
D02*
G37*
G36*
X16217D02*
X14059D01*
X14264Y98400D01*
X14897Y97575D01*
X15723Y96941D01*
X16217Y96737D01*
Y98894D01*
D02*
G37*
G36*
X275800Y95884D02*
X274846Y95759D01*
X273958Y95391D01*
X273195Y94805D01*
X272609Y94042D01*
X272241Y93154D01*
X272116Y92200D01*
X272241Y91246D01*
X272609Y90358D01*
X273195Y89595D01*
X273958Y89009D01*
X274846Y88641D01*
X275800Y88516D01*
X276754Y88641D01*
X277642Y89009D01*
X278405Y89595D01*
X278991Y90358D01*
X279359Y91246D01*
X279484Y92200D01*
X279359Y93154D01*
X278991Y94042D01*
X278405Y94805D01*
X277642Y95391D01*
X276754Y95759D01*
X275800Y95884D01*
D02*
G37*
G36*
X265800D02*
X264846Y95759D01*
X263958Y95391D01*
X263195Y94805D01*
X262609Y94042D01*
X262241Y93154D01*
X262116Y92200D01*
X262241Y91246D01*
X262609Y90358D01*
X263195Y89595D01*
X263958Y89009D01*
X264846Y88641D01*
X265800Y88516D01*
X266754Y88641D01*
X267642Y89009D01*
X268405Y89595D01*
X268991Y90358D01*
X269359Y91246D01*
X269484Y92200D01*
X269359Y93154D01*
X268991Y94042D01*
X268405Y94805D01*
X267642Y95391D01*
X266754Y95759D01*
X265800Y95884D01*
D02*
G37*
G36*
X255800D02*
X254846Y95759D01*
X253958Y95391D01*
X253195Y94805D01*
X252609Y94042D01*
X252241Y93154D01*
X252116Y92200D01*
X252241Y91246D01*
X252609Y90358D01*
X253195Y89595D01*
X253958Y89009D01*
X254846Y88641D01*
X255800Y88516D01*
X256754Y88641D01*
X257642Y89009D01*
X258405Y89595D01*
X258991Y90358D01*
X259359Y91246D01*
X259484Y92200D01*
X259359Y93154D01*
X258991Y94042D01*
X258405Y94805D01*
X257642Y95391D01*
X256754Y95759D01*
X255800Y95884D01*
D02*
G37*
G36*
X11811Y72739D02*
X10858Y72614D01*
X9969Y72246D01*
X9206Y71660D01*
X8620Y70897D01*
X8252Y70009D01*
X8127Y69055D01*
X8252Y68102D01*
X8620Y67213D01*
X9206Y66450D01*
X9969Y65864D01*
X10858Y65496D01*
X11811Y65371D01*
X12765Y65496D01*
X13653Y65864D01*
X14416Y66450D01*
X15002Y67213D01*
X15370Y68102D01*
X15495Y69055D01*
X15370Y70009D01*
X15002Y70897D01*
X14416Y71660D01*
X13653Y72246D01*
X12765Y72614D01*
X11811Y72739D01*
D02*
G37*
G36*
Y62739D02*
X10858Y62614D01*
X9969Y62246D01*
X9206Y61660D01*
X8620Y60897D01*
X8252Y60009D01*
X8127Y59055D01*
X8252Y58102D01*
X8620Y57213D01*
X9206Y56450D01*
X9969Y55864D01*
X10858Y55496D01*
X11811Y55371D01*
X12765Y55496D01*
X13653Y55864D01*
X14416Y56450D01*
X15002Y57213D01*
X15370Y58102D01*
X15495Y59055D01*
X15370Y60009D01*
X15002Y60897D01*
X14416Y61660D01*
X13653Y62246D01*
X12765Y62614D01*
X11811Y62739D01*
D02*
G37*
G36*
X142795Y58515D02*
X141829Y58388D01*
X140929Y58015D01*
X140156Y57422D01*
X139563Y56649D01*
X139190Y55749D01*
X139063Y54783D01*
X139190Y53818D01*
X139563Y52917D01*
X140156Y52145D01*
X140929Y51552D01*
X141829Y51179D01*
X142795Y51051D01*
X143761Y51179D01*
X144661Y51552D01*
X145434Y52145D01*
X146027Y52917D01*
X146400Y53818D01*
X146527Y54783D01*
X146400Y55749D01*
X146027Y56649D01*
X145434Y57422D01*
X144661Y58015D01*
X143761Y58388D01*
X142795Y58515D01*
D02*
G37*
G36*
X118595Y60207D02*
X58098D01*
X57629Y60114D01*
X57232Y59849D01*
X55867Y58483D01*
X50198D01*
Y51083D01*
X57598D01*
Y56753D01*
X58604Y57760D01*
X60920D01*
X61134Y57260D01*
X60666Y56649D01*
X60293Y55749D01*
X60166Y54783D01*
X60293Y53818D01*
X60666Y52917D01*
X61259Y52145D01*
X62032Y51552D01*
X62932Y51179D01*
X63898Y51051D01*
X64864Y51179D01*
X65506Y51445D01*
X67233Y49718D01*
X67629Y49453D01*
X68098Y49360D01*
X76354D01*
X76822Y49453D01*
X76832Y49460D01*
X118820D01*
X118830Y49453D01*
X119298Y49360D01*
X127656D01*
X128124Y49453D01*
X128521Y49718D01*
X130604Y51801D01*
X130929Y51552D01*
X131829Y51179D01*
X132795Y51051D01*
X133761Y51179D01*
X134661Y51552D01*
X135434Y52145D01*
X136027Y52917D01*
X136400Y53818D01*
X136527Y54783D01*
X136400Y55749D01*
X136027Y56649D01*
X135434Y57422D01*
X134661Y58015D01*
X133761Y58388D01*
X132795Y58515D01*
X131829Y58388D01*
X130929Y58015D01*
X130156Y57422D01*
X129563Y56649D01*
X129191Y55749D01*
X129063Y54783D01*
X129187Y53845D01*
X127149Y51807D01*
X126495D01*
Y58483D01*
X120826D01*
X119460Y59849D01*
X119063Y60114D01*
X118595Y60207D01*
D02*
G37*
G36*
X15464Y52708D02*
X8158D01*
Y45402D01*
X15464D01*
Y52708D01*
D02*
G37*
G36*
X147795Y48515D02*
X146829Y48388D01*
X145929Y48015D01*
X145156Y47422D01*
X144563Y46649D01*
X144191Y45749D01*
X144063Y44783D01*
X144191Y43818D01*
X144457Y43175D01*
X143088Y41807D01*
X140773D01*
X140559Y42307D01*
X141027Y42917D01*
X141400Y43818D01*
X141527Y44783D01*
X141400Y45749D01*
X141027Y46649D01*
X140434Y47422D01*
X139661Y48015D01*
X138761Y48388D01*
X137795Y48515D01*
X136829Y48388D01*
X135929Y48015D01*
X135156Y47422D01*
X134563Y46649D01*
X134190Y45749D01*
X134063Y44783D01*
X134190Y43818D01*
X134563Y42917D01*
X135032Y42307D01*
X134817Y41807D01*
X130773D01*
X130559Y42307D01*
X131027Y42917D01*
X131400Y43818D01*
X131527Y44783D01*
X131400Y45749D01*
X131027Y46649D01*
X130434Y47422D01*
X129661Y48015D01*
X128761Y48388D01*
X127795Y48515D01*
X126829Y48388D01*
X125929Y48015D01*
X125156Y47422D01*
X124563Y46649D01*
X124190Y45749D01*
X124063Y44783D01*
X124190Y43818D01*
X124563Y42917D01*
X125032Y42307D01*
X124817Y41807D01*
X112500D01*
X108658Y45649D01*
X108261Y45914D01*
X107793Y46007D01*
X82396D01*
X82130Y46649D01*
X81537Y47422D01*
X80764Y48015D01*
X79864Y48388D01*
X78898Y48515D01*
X77932Y48388D01*
X77032Y48015D01*
X76259Y47422D01*
X75666Y46649D01*
X75293Y45749D01*
X75166Y44783D01*
X75293Y43818D01*
X75666Y42917D01*
X76259Y42145D01*
X77032Y41552D01*
X77932Y41179D01*
X78898Y41052D01*
X79864Y41179D01*
X80764Y41552D01*
X81537Y42145D01*
X82130Y42917D01*
X82396Y43560D01*
X107286D01*
X111128Y39718D01*
X111525Y39453D01*
X111993Y39360D01*
X143595D01*
X144063Y39453D01*
X144460Y39718D01*
X146187Y41445D01*
X146829Y41179D01*
X147795Y41052D01*
X148761Y41179D01*
X149661Y41552D01*
X150434Y42145D01*
X151027Y42917D01*
X151400Y43818D01*
X151527Y44783D01*
X151400Y45749D01*
X151027Y46649D01*
X150434Y47422D01*
X149661Y48015D01*
X148761Y48388D01*
X147795Y48515D01*
D02*
G37*
G36*
X68898D02*
X67932Y48388D01*
X67032Y48015D01*
X66259Y47422D01*
X65666Y46649D01*
X65293Y45749D01*
X65166Y44783D01*
X65293Y43818D01*
X65666Y42917D01*
X66259Y42145D01*
X67032Y41552D01*
X67932Y41179D01*
X68898Y41052D01*
X69863Y41179D01*
X70764Y41552D01*
X71536Y42145D01*
X72130Y42917D01*
X72502Y43818D01*
X72630Y44783D01*
X72502Y45749D01*
X72130Y46649D01*
X71536Y47422D01*
X70764Y48015D01*
X69863Y48388D01*
X68898Y48515D01*
D02*
G37*
G36*
X58898D02*
X57932Y48388D01*
X57032Y48015D01*
X56259Y47422D01*
X55666Y46649D01*
X55293Y45749D01*
X55166Y44783D01*
X55293Y43818D01*
X55666Y42917D01*
X56259Y42145D01*
X57032Y41552D01*
X57932Y41179D01*
X58898Y41052D01*
X59864Y41179D01*
X60764Y41552D01*
X61537Y42145D01*
X62130Y42917D01*
X62502Y43818D01*
X62630Y44783D01*
X62502Y45749D01*
X62130Y46649D01*
X61537Y47422D01*
X60764Y48015D01*
X59864Y48388D01*
X58898Y48515D01*
D02*
G37*
G36*
X267300Y30857D02*
Y28700D01*
X269457D01*
X269253Y29193D01*
X268619Y30019D01*
X267793Y30653D01*
X267300Y30857D01*
D02*
G37*
G36*
X264300D02*
X263807Y30653D01*
X262981Y30019D01*
X262347Y29193D01*
X262143Y28700D01*
X264300D01*
Y30857D01*
D02*
G37*
G36*
X269457Y25700D02*
X267300D01*
Y23543D01*
X267793Y23747D01*
X268619Y24381D01*
X269253Y25207D01*
X269457Y25700D01*
D02*
G37*
G36*
X264300D02*
X262143D01*
X262347Y25207D01*
X262981Y24381D01*
X263807Y23747D01*
X264300Y23543D01*
Y25700D01*
D02*
G37*
G36*
X295800Y30884D02*
X294846Y30759D01*
X293958Y30391D01*
X293195Y29805D01*
X292609Y29042D01*
X292241Y28154D01*
X292116Y27200D01*
X292241Y26246D01*
X292609Y25358D01*
X293195Y24595D01*
X293958Y24009D01*
X294846Y23641D01*
X295800Y23516D01*
X296754Y23641D01*
X297642Y24009D01*
X298405Y24595D01*
X298991Y25358D01*
X299359Y26246D01*
X299484Y27200D01*
X299359Y28154D01*
X298991Y29042D01*
X298405Y29805D01*
X297642Y30391D01*
X296754Y30759D01*
X295800Y30884D01*
D02*
G37*
G36*
X285800D02*
X284846Y30759D01*
X283958Y30391D01*
X283195Y29805D01*
X282609Y29042D01*
X282241Y28154D01*
X282116Y27200D01*
X282241Y26246D01*
X282609Y25358D01*
X283195Y24595D01*
X283958Y24009D01*
X284846Y23641D01*
X285800Y23516D01*
X286754Y23641D01*
X287642Y24009D01*
X288405Y24595D01*
X288991Y25358D01*
X289359Y26246D01*
X289484Y27200D01*
X289359Y28154D01*
X288991Y29042D01*
X288405Y29805D01*
X287642Y30391D01*
X286754Y30759D01*
X285800Y30884D01*
D02*
G37*
G36*
X255800D02*
X254846Y30759D01*
X253958Y30391D01*
X253195Y29805D01*
X252609Y29042D01*
X252241Y28154D01*
X252116Y27200D01*
X252241Y26246D01*
X252609Y25358D01*
X253195Y24595D01*
X253958Y24009D01*
X254846Y23641D01*
X255800Y23516D01*
X256754Y23641D01*
X257642Y24009D01*
X258405Y24595D01*
X258991Y25358D01*
X259359Y26246D01*
X259484Y27200D01*
X259359Y28154D01*
X258991Y29042D01*
X258405Y29805D01*
X257642Y30391D01*
X256754Y30759D01*
X255800Y30884D01*
D02*
G37*
%LPD*%
G36*
X143701Y208661D02*
X129850Y208661D01*
X129850Y217000D01*
X136000Y217000D01*
X143701Y208661D01*
D02*
G37*
G36*
X119095Y56753D02*
Y51907D01*
X76984D01*
X76738Y52407D01*
X77130Y52917D01*
X77502Y53818D01*
X77630Y54783D01*
X77502Y55749D01*
X77130Y56649D01*
X76661Y57260D01*
X76876Y57760D01*
X118088D01*
X119095Y56753D01*
D02*
G37*
D10*
X127656Y50583D02*
X131856Y54783D01*
X119298Y50583D02*
X127656D01*
X119198Y50683D02*
X119298Y50583D01*
X76454Y50683D02*
X119198D01*
X58098Y58983D02*
X118595D01*
X154500Y171500D02*
X200216D01*
X185005Y110398D02*
Y126288D01*
X184252Y109646D02*
X185005Y110398D01*
Y126288D02*
X185858Y127142D01*
X69337Y44344D02*
Y45223D01*
X131856Y54783D02*
X132795D01*
X53898D02*
X58098Y58983D01*
X143595Y40584D02*
X147795Y44783D01*
X111993Y40584D02*
X143595D01*
X107793Y44783D02*
X111993Y40584D01*
X78898Y44783D02*
X107793D01*
X76354Y50583D02*
X76454Y50683D01*
X68098Y50583D02*
X76354D01*
X68898Y44783D02*
X69337Y45223D01*
X63898Y54783D02*
X68098Y50583D01*
X118595Y58983D02*
X122795Y54783D01*
X320866Y77391D02*
Y122150D01*
Y77391D02*
X325800Y72457D01*
X320866Y122150D02*
X325858Y127142D01*
X305800Y27200D02*
Y70668D01*
X301057Y75411D02*
X305800Y70668D01*
X301057Y75411D02*
Y122340D01*
X315800Y27200D02*
Y71995D01*
X311024Y76772D02*
X315800Y71995D01*
X311024Y76772D02*
Y122307D01*
X325800Y27200D02*
Y72457D01*
X311024Y122307D02*
X315858Y127142D01*
X295800Y68373D02*
Y92200D01*
Y68373D02*
X298031Y66142D01*
X301057Y122340D02*
X305858Y127142D01*
X214606Y249606D02*
X214961D01*
X194000Y229000D02*
X214606Y249606D01*
X158000Y229000D02*
X194000D01*
X275858Y187142D02*
X290945Y172055D01*
Y114850D02*
Y172055D01*
X285800Y109705D02*
X290945Y114850D01*
X285800Y92200D02*
Y109705D01*
X149000Y167000D02*
X205716D01*
X200216Y171500D02*
X215858Y187142D01*
X165858Y187142D02*
Y217142D01*
X85000Y217000D02*
X99000D01*
X71000D02*
X85000D01*
X71000Y227000D02*
X85000D01*
X57000D02*
X71000D01*
X43000D02*
X57000D01*
X29000D02*
X43000D01*
X29000Y217000D02*
X43000D01*
X57000D01*
X71000D01*
X85000Y227000D02*
X99000D01*
X108000Y208000D02*
X149000Y167000D01*
X99000Y217000D02*
X108000Y208000D01*
X205716Y167000D02*
X225858Y187142D01*
X99000Y227000D02*
X109000Y217000D01*
X146142Y217142D02*
X158000Y229000D01*
X145858Y217142D02*
X146142D01*
X108000Y208000D02*
X122000D01*
X109000Y217000D02*
X122000D01*
D20*
X129283D02*
D03*
X122000D02*
D03*
X129283Y208000D02*
D03*
X122000D02*
D03*
D47*
X79921Y111024D02*
X101181D01*
X147638Y157480D01*
X129537Y192135D02*
X160865D01*
X129528Y192126D02*
X129537Y192135D01*
X99850Y247000D02*
X129850Y217000D01*
X145000Y208000D02*
X160865Y192135D01*
X165858Y187142D01*
X216197Y157480D02*
X245858Y187142D01*
X147638Y157480D02*
X216197D01*
X211118Y162402D02*
X235858Y187142D01*
X163386Y162402D02*
X211118D01*
X137795Y104331D02*
X146426Y95700D01*
X247900D01*
X275800Y27200D02*
X275858Y27142D01*
X247900Y55100D02*
X275800Y27200D01*
X129283Y217000D02*
X129850D01*
X136000D01*
X99000Y247000D02*
X99850D01*
X247900Y55100D02*
Y95700D01*
X262362Y110162D01*
X268879D01*
X285858Y127142D01*
X71000Y247000D02*
X85000D01*
X57000D02*
X71000D01*
X43000D02*
X57000D01*
X29000D02*
X43000D01*
X85000D02*
X99000D01*
X136000Y217000D02*
X145000Y208000D01*
X130000D02*
X145000D01*
D50*
X265800Y27200D02*
D03*
X255800D02*
D03*
X265800Y92200D02*
D03*
X255800D02*
D03*
X285800Y27200D02*
D03*
X275800D02*
D03*
X285800Y92200D02*
D03*
X275800D02*
D03*
X305800Y27200D02*
D03*
X295800D02*
D03*
X305800Y92200D02*
D03*
X295800D02*
D03*
X315800D02*
D03*
X325800D02*
D03*
X315800Y27200D02*
D03*
X325800D02*
D03*
X145858Y127142D02*
D03*
X155858D02*
D03*
X165858D02*
D03*
X175858D02*
D03*
X185858D02*
D03*
X195858D02*
D03*
X205858D02*
D03*
X215858D02*
D03*
X225858D02*
D03*
X235858D02*
D03*
X245858D02*
D03*
X255858D02*
D03*
X265858D02*
D03*
X275858D02*
D03*
Y187142D02*
D03*
X265858D02*
D03*
X255858D02*
D03*
X245858D02*
D03*
X235858D02*
D03*
X225858D02*
D03*
X215858D02*
D03*
X205858D02*
D03*
X195858D02*
D03*
X185858D02*
D03*
X175858D02*
D03*
X295858Y127142D02*
D03*
X305858D02*
D03*
X315858D02*
D03*
X325858D02*
D03*
X335858D02*
D03*
X345858D02*
D03*
X355858D02*
D03*
X365858D02*
D03*
X375858D02*
D03*
Y187142D02*
D03*
X365858D02*
D03*
X355858D02*
D03*
X345858D02*
D03*
X335858D02*
D03*
X325858D02*
D03*
X315858D02*
D03*
X285858Y127142D02*
D03*
X165858Y187142D02*
D03*
X155858D02*
D03*
X145858D02*
D03*
X285858D02*
D03*
X295858D02*
D03*
X305858D02*
D03*
X17717Y100394D02*
D03*
Y110236D02*
D03*
Y157480D02*
D03*
Y167323D02*
D03*
X29000Y247000D02*
D03*
Y217000D02*
D03*
Y227000D02*
D03*
Y237000D02*
D03*
X43000Y247000D02*
D03*
Y217000D02*
D03*
Y227000D02*
D03*
Y237000D02*
D03*
X57000Y247000D02*
D03*
Y217000D02*
D03*
Y227000D02*
D03*
Y237000D02*
D03*
X71000Y247000D02*
D03*
Y217000D02*
D03*
Y227000D02*
D03*
Y237000D02*
D03*
X85000Y247000D02*
D03*
Y217000D02*
D03*
Y227000D02*
D03*
Y237000D02*
D03*
X99000Y247000D02*
D03*
Y217000D02*
D03*
Y227000D02*
D03*
Y237000D02*
D03*
X11811Y69055D02*
D03*
Y59055D02*
D03*
X155858Y217142D02*
D03*
X165858D02*
D03*
X175858D02*
D03*
X185858D02*
D03*
X225858D02*
D03*
X215858D02*
D03*
X205858D02*
D03*
X195858D02*
D03*
X265858D02*
D03*
X255858D02*
D03*
X245858D02*
D03*
X235858D02*
D03*
X305858D02*
D03*
X295858D02*
D03*
X285858D02*
D03*
X275858D02*
D03*
X345858D02*
D03*
X355858D02*
D03*
X365858D02*
D03*
X315858D02*
D03*
X325858D02*
D03*
X335858D02*
D03*
X145858D02*
D03*
D51*
X29000Y207000D02*
D03*
X43000D02*
D03*
X57000D02*
D03*
X71000D02*
D03*
X85000D02*
D03*
X99000D02*
D03*
X11811Y49055D02*
D03*
D52*
X375858Y217142D02*
D03*
D53*
X322047Y303937D02*
D03*
Y275590D02*
D03*
X417323Y273622D02*
D03*
Y301969D02*
D03*
X130878Y303642D02*
D03*
Y275295D02*
D03*
X267717Y303937D02*
D03*
Y275590D02*
D03*
D54*
X46398Y19783D02*
D03*
X86398D02*
D03*
X63898Y54783D02*
D03*
X73898D02*
D03*
X58898Y44783D02*
D03*
X68898D02*
D03*
X78898D02*
D03*
X115295Y19783D02*
D03*
X155295D02*
D03*
X132795Y54783D02*
D03*
X142795D02*
D03*
X127795Y44783D02*
D03*
X137795D02*
D03*
X147795D02*
D03*
X15748Y15748D02*
D03*
X462598Y322835D02*
D03*
X460630Y13780D02*
D03*
X13780Y322835D02*
D03*
D55*
X53898Y54783D02*
D03*
X122795D02*
D03*
D56*
X253150Y222539D02*
D03*
X129528Y192126D02*
D03*
X79921Y111024D02*
D03*
X110236Y55118D02*
D03*
X86614D02*
D03*
X98425D02*
D03*
X63779Y107087D02*
D03*
X154500Y171500D02*
D03*
X163386Y162402D02*
D03*
X137795Y104331D02*
D03*
X162992Y88583D02*
D03*
X157480D02*
D03*
X173228Y90551D02*
D03*
X169291Y110236D02*
D03*
X175197Y116142D02*
D03*
X163386Y104331D02*
D03*
X167323Y90551D02*
D03*
X184252Y109646D02*
D03*
X113189Y44193D02*
D03*
X119882Y44390D02*
D03*
X94882Y42323D02*
D03*
X89468D02*
D03*
X192913Y316929D02*
D03*
X208661D02*
D03*
X200787D02*
D03*
X196850Y312992D02*
D03*
X204724D02*
D03*
X200787Y309055D02*
D03*
X298031Y66142D02*
D03*
X208661Y282480D02*
D03*
Y289370D02*
D03*
X203740D02*
D03*
Y282480D02*
D03*
X198819D02*
D03*
X198425Y289370D02*
D03*
X193898D02*
D03*
Y282480D02*
D03*
X274803Y203543D02*
D03*
X242913D02*
D03*
X318898Y173228D02*
D03*
X263779D02*
D03*
Y141732D02*
D03*
X318898D02*
D03*
X441732Y201181D02*
D03*
X446850Y181890D02*
D03*
X442913Y182087D02*
D03*
X430315Y179134D02*
D03*
X434252Y176772D02*
D03*
X430315Y173622D02*
D03*
X438189Y174016D02*
D03*
X440945Y169291D02*
D03*
X444882Y161417D02*
D03*
X448819D02*
D03*
X464567Y208661D02*
D03*
X452756D02*
D03*
X437008D02*
D03*
X436614Y193799D02*
D03*
X440945Y185039D02*
D03*
X448819D02*
D03*
X444882D02*
D03*
X460630Y181102D02*
D03*
Y153543D02*
D03*
X421260Y145669D02*
D03*
X429134Y118110D02*
D03*
X417323Y145669D02*
D03*
X425197Y118110D02*
D03*
X433071D02*
D03*
X214961Y249606D02*
D03*
M02*
